<?xml version="1.0" encoding="utf-8" standalone="no"?>
<!DOCTYPE svg PUBLIC "-//W3C//DTD SVG 1.1//EN"
  "http://www.w3.org/Graphics/SVG/1.1/DTD/svg11.dtd">
<svg xmlns:xlink="http://www.w3.org/1999/xlink" width="557.084375pt" height="392.514375pt" viewBox="0 0 557.084375 392.514375" xmlns="http://www.w3.org/2000/svg" version="1.1">
 <metadata>
  <rdf:RDF xmlns:dc="http://purl.org/dc/elements/1.1/" xmlns:cc="http://creativecommons.org/ns#" xmlns:rdf="http://www.w3.org/1999/02/22-rdf-syntax-ns#">
   <cc:Work>
    <dc:type rdf:resource="http://purl.org/dc/dcmitype/StillImage"/>
    <dc:date>2025-10-09T09:39:37.731518</dc:date>
    <dc:format>image/svg+xml</dc:format>
    <dc:creator>
     <cc:Agent>
      <dc:title>Matplotlib v3.10.6, https://matplotlib.org/</dc:title>
     </cc:Agent>
    </dc:creator>
   </cc:Work>
  </rdf:RDF>
 </metadata>
 <defs>
  <style type="text/css">*{stroke-linejoin: round; stroke-linecap: butt}</style>
 </defs>
 <g id="figure_1">
  <g id="patch_1">
   <path d="M 0 392.514375 
L 557.084375 392.514375 
L 557.084375 0 
L 0 0 
z
" style="fill: #ffffff"/>
  </g>
  <g id="axes_1">
   <g id="patch_2">
    <path d="M 52.160938 354.958125 
L 498.560938 354.958125 
L 498.560938 22.318125 
L 52.160938 22.318125 
z
" style="fill: #ffffff"/>
   </g>
   <g id="matplotlib.axis_1">
    <g id="xtick_1">
     <g id="line2d_1">
      <path d="M 72.451847 354.958125 
L 72.451847 22.318125 
" clip-path="url(#p4d98b9f9f6)" style="fill: none; stroke: #b0b0b0; stroke-width: 0.8; stroke-linecap: square"/>
     </g>
     <g id="line2d_2">
      <defs>
       <path id="md543528fab" d="M 0 0 
L 0 3.5 
" style="stroke: #000000; stroke-width: 0.8"/>
      </defs>
      <g>
       <use xlink:href="#md543528fab" x="72.451847" y="354.958125" style="stroke: #000000; stroke-width: 0.8"/>
      </g>
     </g>
     <g id="text_1">
      <!-- 0 -->
      <g transform="translate(69.270597 369.556562) scale(0.1 -0.1)">
       <defs>
        <path id="DejaVuSans-30" d="M 2034 4250 
Q 1547 4250 1301 3770 
Q 1056 3291 1056 2328 
Q 1056 1369 1301 889 
Q 1547 409 2034 409 
Q 2525 409 2770 889 
Q 3016 1369 3016 2328 
Q 3016 3291 2770 3770 
Q 2525 4250 2034 4250 
z
M 2034 4750 
Q 2819 4750 3233 4129 
Q 3647 3509 3647 2328 
Q 3647 1150 3233 529 
Q 2819 -91 2034 -91 
Q 1250 -91 836 529 
Q 422 1150 422 2328 
Q 422 3509 836 4129 
Q 1250 4750 2034 4750 
z
" transform="scale(0.015625)"/>
       </defs>
       <use xlink:href="#DejaVuSans-30"/>
      </g>
     </g>
    </g>
    <g id="xtick_2">
     <g id="line2d_3">
      <path d="M 136.00951 354.958125 
L 136.00951 22.318125 
" clip-path="url(#p4d98b9f9f6)" style="fill: none; stroke: #b0b0b0; stroke-width: 0.8; stroke-linecap: square"/>
     </g>
     <g id="line2d_4">
      <g>
       <use xlink:href="#md543528fab" x="136.00951" y="354.958125" style="stroke: #000000; stroke-width: 0.8"/>
      </g>
     </g>
     <g id="text_2">
      <!-- 1 -->
      <g transform="translate(132.82826 369.556562) scale(0.1 -0.1)">
       <defs>
        <path id="DejaVuSans-31" d="M 794 531 
L 1825 531 
L 1825 4091 
L 703 3866 
L 703 4441 
L 1819 4666 
L 2450 4666 
L 2450 531 
L 3481 531 
L 3481 0 
L 794 0 
L 794 531 
z
" transform="scale(0.015625)"/>
       </defs>
       <use xlink:href="#DejaVuSans-31"/>
      </g>
     </g>
    </g>
    <g id="xtick_3">
     <g id="line2d_5">
      <path d="M 199.567173 354.958125 
L 199.567173 22.318125 
" clip-path="url(#p4d98b9f9f6)" style="fill: none; stroke: #b0b0b0; stroke-width: 0.8; stroke-linecap: square"/>
     </g>
     <g id="line2d_6">
      <g>
       <use xlink:href="#md543528fab" x="199.567173" y="354.958125" style="stroke: #000000; stroke-width: 0.8"/>
      </g>
     </g>
     <g id="text_3">
      <!-- 2 -->
      <g transform="translate(196.385923 369.556562) scale(0.1 -0.1)">
       <defs>
        <path id="DejaVuSans-32" d="M 1228 531 
L 3431 531 
L 3431 0 
L 469 0 
L 469 531 
Q 828 903 1448 1529 
Q 2069 2156 2228 2338 
Q 2531 2678 2651 2914 
Q 2772 3150 2772 3378 
Q 2772 3750 2511 3984 
Q 2250 4219 1831 4219 
Q 1534 4219 1204 4116 
Q 875 4013 500 3803 
L 500 4441 
Q 881 4594 1212 4672 
Q 1544 4750 1819 4750 
Q 2544 4750 2975 4387 
Q 3406 4025 3406 3419 
Q 3406 3131 3298 2873 
Q 3191 2616 2906 2266 
Q 2828 2175 2409 1742 
Q 1991 1309 1228 531 
z
" transform="scale(0.015625)"/>
       </defs>
       <use xlink:href="#DejaVuSans-32"/>
      </g>
     </g>
    </g>
    <g id="xtick_4">
     <g id="line2d_7">
      <path d="M 263.124836 354.958125 
L 263.124836 22.318125 
" clip-path="url(#p4d98b9f9f6)" style="fill: none; stroke: #b0b0b0; stroke-width: 0.8; stroke-linecap: square"/>
     </g>
     <g id="line2d_8">
      <g>
       <use xlink:href="#md543528fab" x="263.124836" y="354.958125" style="stroke: #000000; stroke-width: 0.8"/>
      </g>
     </g>
     <g id="text_4">
      <!-- 3 -->
      <g transform="translate(259.943586 369.556562) scale(0.1 -0.1)">
       <defs>
        <path id="DejaVuSans-33" d="M 2597 2516 
Q 3050 2419 3304 2112 
Q 3559 1806 3559 1356 
Q 3559 666 3084 287 
Q 2609 -91 1734 -91 
Q 1441 -91 1130 -33 
Q 819 25 488 141 
L 488 750 
Q 750 597 1062 519 
Q 1375 441 1716 441 
Q 2309 441 2620 675 
Q 2931 909 2931 1356 
Q 2931 1769 2642 2001 
Q 2353 2234 1838 2234 
L 1294 2234 
L 1294 2753 
L 1863 2753 
Q 2328 2753 2575 2939 
Q 2822 3125 2822 3475 
Q 2822 3834 2567 4026 
Q 2313 4219 1838 4219 
Q 1578 4219 1281 4162 
Q 984 4106 628 3988 
L 628 4550 
Q 988 4650 1302 4700 
Q 1616 4750 1894 4750 
Q 2613 4750 3031 4423 
Q 3450 4097 3450 3541 
Q 3450 3153 3228 2886 
Q 3006 2619 2597 2516 
z
" transform="scale(0.015625)"/>
       </defs>
       <use xlink:href="#DejaVuSans-33"/>
      </g>
     </g>
    </g>
    <g id="xtick_5">
     <g id="line2d_9">
      <path d="M 326.6825 354.958125 
L 326.6825 22.318125 
" clip-path="url(#p4d98b9f9f6)" style="fill: none; stroke: #b0b0b0; stroke-width: 0.8; stroke-linecap: square"/>
     </g>
     <g id="line2d_10">
      <g>
       <use xlink:href="#md543528fab" x="326.6825" y="354.958125" style="stroke: #000000; stroke-width: 0.8"/>
      </g>
     </g>
     <g id="text_5">
      <!-- 4 -->
      <g transform="translate(323.50125 369.556562) scale(0.1 -0.1)">
       <defs>
        <path id="DejaVuSans-34" d="M 2419 4116 
L 825 1625 
L 2419 1625 
L 2419 4116 
z
M 2253 4666 
L 3047 4666 
L 3047 1625 
L 3713 1625 
L 3713 1100 
L 3047 1100 
L 3047 0 
L 2419 0 
L 2419 1100 
L 313 1100 
L 313 1709 
L 2253 4666 
z
" transform="scale(0.015625)"/>
       </defs>
       <use xlink:href="#DejaVuSans-34"/>
      </g>
     </g>
    </g>
    <g id="xtick_6">
     <g id="line2d_11">
      <path d="M 390.240163 354.958125 
L 390.240163 22.318125 
" clip-path="url(#p4d98b9f9f6)" style="fill: none; stroke: #b0b0b0; stroke-width: 0.8; stroke-linecap: square"/>
     </g>
     <g id="line2d_12">
      <g>
       <use xlink:href="#md543528fab" x="390.240163" y="354.958125" style="stroke: #000000; stroke-width: 0.8"/>
      </g>
     </g>
     <g id="text_6">
      <!-- 5 -->
      <g transform="translate(387.058913 369.556562) scale(0.1 -0.1)">
       <defs>
        <path id="DejaVuSans-35" d="M 691 4666 
L 3169 4666 
L 3169 4134 
L 1269 4134 
L 1269 2991 
Q 1406 3038 1543 3061 
Q 1681 3084 1819 3084 
Q 2600 3084 3056 2656 
Q 3513 2228 3513 1497 
Q 3513 744 3044 326 
Q 2575 -91 1722 -91 
Q 1428 -91 1123 -41 
Q 819 9 494 109 
L 494 744 
Q 775 591 1075 516 
Q 1375 441 1709 441 
Q 2250 441 2565 725 
Q 2881 1009 2881 1497 
Q 2881 1984 2565 2268 
Q 2250 2553 1709 2553 
Q 1456 2553 1204 2497 
Q 953 2441 691 2322 
L 691 4666 
z
" transform="scale(0.015625)"/>
       </defs>
       <use xlink:href="#DejaVuSans-35"/>
      </g>
     </g>
    </g>
    <g id="xtick_7">
     <g id="line2d_13">
      <path d="M 453.797826 354.958125 
L 453.797826 22.318125 
" clip-path="url(#p4d98b9f9f6)" style="fill: none; stroke: #b0b0b0; stroke-width: 0.8; stroke-linecap: square"/>
     </g>
     <g id="line2d_14">
      <g>
       <use xlink:href="#md543528fab" x="453.797826" y="354.958125" style="stroke: #000000; stroke-width: 0.8"/>
      </g>
     </g>
     <g id="text_7">
      <!-- 6 -->
      <g transform="translate(450.616576 369.556562) scale(0.1 -0.1)">
       <defs>
        <path id="DejaVuSans-36" d="M 2113 2584 
Q 1688 2584 1439 2293 
Q 1191 2003 1191 1497 
Q 1191 994 1439 701 
Q 1688 409 2113 409 
Q 2538 409 2786 701 
Q 3034 994 3034 1497 
Q 3034 2003 2786 2293 
Q 2538 2584 2113 2584 
z
M 3366 4563 
L 3366 3988 
Q 3128 4100 2886 4159 
Q 2644 4219 2406 4219 
Q 1781 4219 1451 3797 
Q 1122 3375 1075 2522 
Q 1259 2794 1537 2939 
Q 1816 3084 2150 3084 
Q 2853 3084 3261 2657 
Q 3669 2231 3669 1497 
Q 3669 778 3244 343 
Q 2819 -91 2113 -91 
Q 1303 -91 875 529 
Q 447 1150 447 2328 
Q 447 3434 972 4092 
Q 1497 4750 2381 4750 
Q 2619 4750 2861 4703 
Q 3103 4656 3366 4563 
z
" transform="scale(0.015625)"/>
       </defs>
       <use xlink:href="#DejaVuSans-36"/>
      </g>
     </g>
    </g>
    <g id="text_8">
     <!-- Timestamp (sec) -->
     <g transform="translate(233.532812 383.234687) scale(0.1 -0.1)">
      <defs>
       <path id="DejaVuSans-54" d="M -19 4666 
L 3928 4666 
L 3928 4134 
L 2272 4134 
L 2272 0 
L 1638 0 
L 1638 4134 
L -19 4134 
L -19 4666 
z
" transform="scale(0.015625)"/>
       <path id="DejaVuSans-69" d="M 603 3500 
L 1178 3500 
L 1178 0 
L 603 0 
L 603 3500 
z
M 603 4863 
L 1178 4863 
L 1178 4134 
L 603 4134 
L 603 4863 
z
" transform="scale(0.015625)"/>
       <path id="DejaVuSans-6d" d="M 3328 2828 
Q 3544 3216 3844 3400 
Q 4144 3584 4550 3584 
Q 5097 3584 5394 3201 
Q 5691 2819 5691 2113 
L 5691 0 
L 5113 0 
L 5113 2094 
Q 5113 2597 4934 2840 
Q 4756 3084 4391 3084 
Q 3944 3084 3684 2787 
Q 3425 2491 3425 1978 
L 3425 0 
L 2847 0 
L 2847 2094 
Q 2847 2600 2669 2842 
Q 2491 3084 2119 3084 
Q 1678 3084 1418 2786 
Q 1159 2488 1159 1978 
L 1159 0 
L 581 0 
L 581 3500 
L 1159 3500 
L 1159 2956 
Q 1356 3278 1631 3431 
Q 1906 3584 2284 3584 
Q 2666 3584 2933 3390 
Q 3200 3197 3328 2828 
z
" transform="scale(0.015625)"/>
       <path id="DejaVuSans-65" d="M 3597 1894 
L 3597 1613 
L 953 1613 
Q 991 1019 1311 708 
Q 1631 397 2203 397 
Q 2534 397 2845 478 
Q 3156 559 3463 722 
L 3463 178 
Q 3153 47 2828 -22 
Q 2503 -91 2169 -91 
Q 1331 -91 842 396 
Q 353 884 353 1716 
Q 353 2575 817 3079 
Q 1281 3584 2069 3584 
Q 2775 3584 3186 3129 
Q 3597 2675 3597 1894 
z
M 3022 2063 
Q 3016 2534 2758 2815 
Q 2500 3097 2075 3097 
Q 1594 3097 1305 2825 
Q 1016 2553 972 2059 
L 3022 2063 
z
" transform="scale(0.015625)"/>
       <path id="DejaVuSans-73" d="M 2834 3397 
L 2834 2853 
Q 2591 2978 2328 3040 
Q 2066 3103 1784 3103 
Q 1356 3103 1142 2972 
Q 928 2841 928 2578 
Q 928 2378 1081 2264 
Q 1234 2150 1697 2047 
L 1894 2003 
Q 2506 1872 2764 1633 
Q 3022 1394 3022 966 
Q 3022 478 2636 193 
Q 2250 -91 1575 -91 
Q 1294 -91 989 -36 
Q 684 19 347 128 
L 347 722 
Q 666 556 975 473 
Q 1284 391 1588 391 
Q 1994 391 2212 530 
Q 2431 669 2431 922 
Q 2431 1156 2273 1281 
Q 2116 1406 1581 1522 
L 1381 1569 
Q 847 1681 609 1914 
Q 372 2147 372 2553 
Q 372 3047 722 3315 
Q 1072 3584 1716 3584 
Q 2034 3584 2315 3537 
Q 2597 3491 2834 3397 
z
" transform="scale(0.015625)"/>
       <path id="DejaVuSans-74" d="M 1172 4494 
L 1172 3500 
L 2356 3500 
L 2356 3053 
L 1172 3053 
L 1172 1153 
Q 1172 725 1289 603 
Q 1406 481 1766 481 
L 2356 481 
L 2356 0 
L 1766 0 
Q 1100 0 847 248 
Q 594 497 594 1153 
L 594 3053 
L 172 3053 
L 172 3500 
L 594 3500 
L 594 4494 
L 1172 4494 
z
" transform="scale(0.015625)"/>
       <path id="DejaVuSans-61" d="M 2194 1759 
Q 1497 1759 1228 1600 
Q 959 1441 959 1056 
Q 959 750 1161 570 
Q 1363 391 1709 391 
Q 2188 391 2477 730 
Q 2766 1069 2766 1631 
L 2766 1759 
L 2194 1759 
z
M 3341 1997 
L 3341 0 
L 2766 0 
L 2766 531 
Q 2569 213 2275 61 
Q 1981 -91 1556 -91 
Q 1019 -91 701 211 
Q 384 513 384 1019 
Q 384 1609 779 1909 
Q 1175 2209 1959 2209 
L 2766 2209 
L 2766 2266 
Q 2766 2663 2505 2880 
Q 2244 3097 1772 3097 
Q 1472 3097 1187 3025 
Q 903 2953 641 2809 
L 641 3341 
Q 956 3463 1253 3523 
Q 1550 3584 1831 3584 
Q 2591 3584 2966 3190 
Q 3341 2797 3341 1997 
z
" transform="scale(0.015625)"/>
       <path id="DejaVuSans-70" d="M 1159 525 
L 1159 -1331 
L 581 -1331 
L 581 3500 
L 1159 3500 
L 1159 2969 
Q 1341 3281 1617 3432 
Q 1894 3584 2278 3584 
Q 2916 3584 3314 3078 
Q 3713 2572 3713 1747 
Q 3713 922 3314 415 
Q 2916 -91 2278 -91 
Q 1894 -91 1617 61 
Q 1341 213 1159 525 
z
M 3116 1747 
Q 3116 2381 2855 2742 
Q 2594 3103 2138 3103 
Q 1681 3103 1420 2742 
Q 1159 2381 1159 1747 
Q 1159 1113 1420 752 
Q 1681 391 2138 391 
Q 2594 391 2855 752 
Q 3116 1113 3116 1747 
z
" transform="scale(0.015625)"/>
       <path id="DejaVuSans-20" transform="scale(0.015625)"/>
       <path id="DejaVuSans-28" d="M 1984 4856 
Q 1566 4138 1362 3434 
Q 1159 2731 1159 2009 
Q 1159 1288 1364 580 
Q 1569 -128 1984 -844 
L 1484 -844 
Q 1016 -109 783 600 
Q 550 1309 550 2009 
Q 550 2706 781 3412 
Q 1013 4119 1484 4856 
L 1984 4856 
z
" transform="scale(0.015625)"/>
       <path id="DejaVuSans-63" d="M 3122 3366 
L 3122 2828 
Q 2878 2963 2633 3030 
Q 2388 3097 2138 3097 
Q 1578 3097 1268 2742 
Q 959 2388 959 1747 
Q 959 1106 1268 751 
Q 1578 397 2138 397 
Q 2388 397 2633 464 
Q 2878 531 3122 666 
L 3122 134 
Q 2881 22 2623 -34 
Q 2366 -91 2075 -91 
Q 1284 -91 818 406 
Q 353 903 353 1747 
Q 353 2603 823 3093 
Q 1294 3584 2113 3584 
Q 2378 3584 2631 3529 
Q 2884 3475 3122 3366 
z
" transform="scale(0.015625)"/>
       <path id="DejaVuSans-29" d="M 513 4856 
L 1013 4856 
Q 1481 4119 1714 3412 
Q 1947 2706 1947 2009 
Q 1947 1309 1714 600 
Q 1481 -109 1013 -844 
L 513 -844 
Q 928 -128 1133 580 
Q 1338 1288 1338 2009 
Q 1338 2731 1133 3434 
Q 928 4138 513 4856 
z
" transform="scale(0.015625)"/>
      </defs>
      <use xlink:href="#DejaVuSans-54"/>
      <use xlink:href="#DejaVuSans-69" transform="translate(57.958984 0)"/>
      <use xlink:href="#DejaVuSans-6d" transform="translate(85.742188 0)"/>
      <use xlink:href="#DejaVuSans-65" transform="translate(183.154297 0)"/>
      <use xlink:href="#DejaVuSans-73" transform="translate(244.677734 0)"/>
      <use xlink:href="#DejaVuSans-74" transform="translate(296.777344 0)"/>
      <use xlink:href="#DejaVuSans-61" transform="translate(335.986328 0)"/>
      <use xlink:href="#DejaVuSans-6d" transform="translate(397.265625 0)"/>
      <use xlink:href="#DejaVuSans-70" transform="translate(494.677734 0)"/>
      <use xlink:href="#DejaVuSans-20" transform="translate(558.154297 0)"/>
      <use xlink:href="#DejaVuSans-28" transform="translate(589.941406 0)"/>
      <use xlink:href="#DejaVuSans-73" transform="translate(628.955078 0)"/>
      <use xlink:href="#DejaVuSans-65" transform="translate(681.054688 0)"/>
      <use xlink:href="#DejaVuSans-63" transform="translate(742.578125 0)"/>
      <use xlink:href="#DejaVuSans-29" transform="translate(797.558594 0)"/>
     </g>
    </g>
   </g>
   <g id="matplotlib.axis_2">
    <g id="ytick_1">
     <g id="line2d_15">
      <path d="M 52.160938 300.430087 
L 498.560938 300.430087 
" clip-path="url(#p4d98b9f9f6)" style="fill: none; stroke: #b0b0b0; stroke-width: 0.8; stroke-linecap: square"/>
     </g>
     <g id="line2d_16">
      <defs>
       <path id="m5fb2258c8c" d="M 0 0 
L -3.5 0 
" style="stroke: #000000; stroke-width: 0.8"/>
      </defs>
      <g>
       <use xlink:href="#m5fb2258c8c" x="52.160938" y="300.430087" style="stroke: #000000; stroke-width: 0.8"/>
      </g>
     </g>
     <g id="text_9">
      <!-- −1.0 -->
      <g transform="translate(20.878125 304.229306) scale(0.1 -0.1)">
       <defs>
        <path id="DejaVuSans-2212" d="M 678 2272 
L 4684 2272 
L 4684 1741 
L 678 1741 
L 678 2272 
z
" transform="scale(0.015625)"/>
        <path id="DejaVuSans-2e" d="M 684 794 
L 1344 794 
L 1344 0 
L 684 0 
L 684 794 
z
" transform="scale(0.015625)"/>
       </defs>
       <use xlink:href="#DejaVuSans-2212"/>
       <use xlink:href="#DejaVuSans-31" transform="translate(83.789062 0)"/>
       <use xlink:href="#DejaVuSans-2e" transform="translate(147.412109 0)"/>
       <use xlink:href="#DejaVuSans-30" transform="translate(179.199219 0)"/>
      </g>
     </g>
    </g>
    <g id="ytick_2">
     <g id="line2d_17">
      <path d="M 52.160938 240.793569 
L 498.560938 240.793569 
" clip-path="url(#p4d98b9f9f6)" style="fill: none; stroke: #b0b0b0; stroke-width: 0.8; stroke-linecap: square"/>
     </g>
     <g id="line2d_18">
      <g>
       <use xlink:href="#m5fb2258c8c" x="52.160938" y="240.793569" style="stroke: #000000; stroke-width: 0.8"/>
      </g>
     </g>
     <g id="text_10">
      <!-- −0.5 -->
      <g transform="translate(20.878125 244.592787) scale(0.1 -0.1)">
       <use xlink:href="#DejaVuSans-2212"/>
       <use xlink:href="#DejaVuSans-30" transform="translate(83.789062 0)"/>
       <use xlink:href="#DejaVuSans-2e" transform="translate(147.412109 0)"/>
       <use xlink:href="#DejaVuSans-35" transform="translate(179.199219 0)"/>
      </g>
     </g>
    </g>
    <g id="ytick_3">
     <g id="line2d_19">
      <path d="M 52.160938 181.15705 
L 498.560938 181.15705 
" clip-path="url(#p4d98b9f9f6)" style="fill: none; stroke: #b0b0b0; stroke-width: 0.8; stroke-linecap: square"/>
     </g>
     <g id="line2d_20">
      <g>
       <use xlink:href="#m5fb2258c8c" x="52.160938" y="181.15705" style="stroke: #000000; stroke-width: 0.8"/>
      </g>
     </g>
     <g id="text_11">
      <!-- 0.0 -->
      <g transform="translate(29.257813 184.956269) scale(0.1 -0.1)">
       <use xlink:href="#DejaVuSans-30"/>
       <use xlink:href="#DejaVuSans-2e" transform="translate(63.623047 0)"/>
       <use xlink:href="#DejaVuSans-30" transform="translate(95.410156 0)"/>
      </g>
     </g>
    </g>
    <g id="ytick_4">
     <g id="line2d_21">
      <path d="M 52.160938 121.520531 
L 498.560938 121.520531 
" clip-path="url(#p4d98b9f9f6)" style="fill: none; stroke: #b0b0b0; stroke-width: 0.8; stroke-linecap: square"/>
     </g>
     <g id="line2d_22">
      <g>
       <use xlink:href="#m5fb2258c8c" x="52.160938" y="121.520531" style="stroke: #000000; stroke-width: 0.8"/>
      </g>
     </g>
     <g id="text_12">
      <!-- 0.5 -->
      <g transform="translate(29.257813 125.31975) scale(0.1 -0.1)">
       <use xlink:href="#DejaVuSans-30"/>
       <use xlink:href="#DejaVuSans-2e" transform="translate(63.623047 0)"/>
       <use xlink:href="#DejaVuSans-35" transform="translate(95.410156 0)"/>
      </g>
     </g>
    </g>
    <g id="ytick_5">
     <g id="line2d_23">
      <path d="M 52.160938 61.884013 
L 498.560938 61.884013 
" clip-path="url(#p4d98b9f9f6)" style="fill: none; stroke: #b0b0b0; stroke-width: 0.8; stroke-linecap: square"/>
     </g>
     <g id="line2d_24">
      <g>
       <use xlink:href="#m5fb2258c8c" x="52.160938" y="61.884013" style="stroke: #000000; stroke-width: 0.8"/>
      </g>
     </g>
     <g id="text_13">
      <!-- 1.0 -->
      <g transform="translate(29.257813 65.683231) scale(0.1 -0.1)">
       <use xlink:href="#DejaVuSans-31"/>
       <use xlink:href="#DejaVuSans-2e" transform="translate(63.623047 0)"/>
       <use xlink:href="#DejaVuSans-30" transform="translate(95.410156 0)"/>
      </g>
     </g>
    </g>
    <g id="text_14">
     <!-- Linear Acceleration (m/s²) -->
     <g transform="translate(14.798438 253.492031) rotate(-90) scale(0.1 -0.1)">
      <defs>
       <path id="DejaVuSans-4c" d="M 628 4666 
L 1259 4666 
L 1259 531 
L 3531 531 
L 3531 0 
L 628 0 
L 628 4666 
z
" transform="scale(0.015625)"/>
       <path id="DejaVuSans-6e" d="M 3513 2113 
L 3513 0 
L 2938 0 
L 2938 2094 
Q 2938 2591 2744 2837 
Q 2550 3084 2163 3084 
Q 1697 3084 1428 2787 
Q 1159 2491 1159 1978 
L 1159 0 
L 581 0 
L 581 3500 
L 1159 3500 
L 1159 2956 
Q 1366 3272 1645 3428 
Q 1925 3584 2291 3584 
Q 2894 3584 3203 3211 
Q 3513 2838 3513 2113 
z
" transform="scale(0.015625)"/>
       <path id="DejaVuSans-72" d="M 2631 2963 
Q 2534 3019 2420 3045 
Q 2306 3072 2169 3072 
Q 1681 3072 1420 2755 
Q 1159 2438 1159 1844 
L 1159 0 
L 581 0 
L 581 3500 
L 1159 3500 
L 1159 2956 
Q 1341 3275 1631 3429 
Q 1922 3584 2338 3584 
Q 2397 3584 2469 3576 
Q 2541 3569 2628 3553 
L 2631 2963 
z
" transform="scale(0.015625)"/>
       <path id="DejaVuSans-41" d="M 2188 4044 
L 1331 1722 
L 3047 1722 
L 2188 4044 
z
M 1831 4666 
L 2547 4666 
L 4325 0 
L 3669 0 
L 3244 1197 
L 1141 1197 
L 716 0 
L 50 0 
L 1831 4666 
z
" transform="scale(0.015625)"/>
       <path id="DejaVuSans-6c" d="M 603 4863 
L 1178 4863 
L 1178 0 
L 603 0 
L 603 4863 
z
" transform="scale(0.015625)"/>
       <path id="DejaVuSans-6f" d="M 1959 3097 
Q 1497 3097 1228 2736 
Q 959 2375 959 1747 
Q 959 1119 1226 758 
Q 1494 397 1959 397 
Q 2419 397 2687 759 
Q 2956 1122 2956 1747 
Q 2956 2369 2687 2733 
Q 2419 3097 1959 3097 
z
M 1959 3584 
Q 2709 3584 3137 3096 
Q 3566 2609 3566 1747 
Q 3566 888 3137 398 
Q 2709 -91 1959 -91 
Q 1206 -91 779 398 
Q 353 888 353 1747 
Q 353 2609 779 3096 
Q 1206 3584 1959 3584 
z
" transform="scale(0.015625)"/>
       <path id="DejaVuSans-2f" d="M 1625 4666 
L 2156 4666 
L 531 -594 
L 0 -594 
L 1625 4666 
z
" transform="scale(0.015625)"/>
       <path id="DejaVuSans-b2" d="M 838 2444 
L 2163 2444 
L 2163 2088 
L 294 2088 
L 294 2431 
Q 400 2528 597 2703 
Q 1672 3656 1672 3950 
Q 1672 4156 1509 4282 
Q 1347 4409 1081 4409 
Q 919 4409 728 4354 
Q 538 4300 313 4191 
L 313 4575 
Q 553 4663 761 4706 
Q 969 4750 1147 4750 
Q 1600 4750 1872 4544 
Q 2144 4338 2144 4000 
Q 2144 3566 1109 2678 
Q 934 2528 838 2444 
z
" transform="scale(0.015625)"/>
      </defs>
      <use xlink:href="#DejaVuSans-4c"/>
      <use xlink:href="#DejaVuSans-69" transform="translate(55.712891 0)"/>
      <use xlink:href="#DejaVuSans-6e" transform="translate(83.496094 0)"/>
      <use xlink:href="#DejaVuSans-65" transform="translate(146.875 0)"/>
      <use xlink:href="#DejaVuSans-61" transform="translate(208.398438 0)"/>
      <use xlink:href="#DejaVuSans-72" transform="translate(269.677734 0)"/>
      <use xlink:href="#DejaVuSans-20" transform="translate(310.791016 0)"/>
      <use xlink:href="#DejaVuSans-41" transform="translate(342.578125 0)"/>
      <use xlink:href="#DejaVuSans-63" transform="translate(409.236328 0)"/>
      <use xlink:href="#DejaVuSans-63" transform="translate(464.216797 0)"/>
      <use xlink:href="#DejaVuSans-65" transform="translate(519.197266 0)"/>
      <use xlink:href="#DejaVuSans-6c" transform="translate(580.720703 0)"/>
      <use xlink:href="#DejaVuSans-65" transform="translate(608.503906 0)"/>
      <use xlink:href="#DejaVuSans-72" transform="translate(670.027344 0)"/>
      <use xlink:href="#DejaVuSans-61" transform="translate(711.140625 0)"/>
      <use xlink:href="#DejaVuSans-74" transform="translate(772.419922 0)"/>
      <use xlink:href="#DejaVuSans-69" transform="translate(811.628906 0)"/>
      <use xlink:href="#DejaVuSans-6f" transform="translate(839.412109 0)"/>
      <use xlink:href="#DejaVuSans-6e" transform="translate(900.59375 0)"/>
      <use xlink:href="#DejaVuSans-20" transform="translate(963.972656 0)"/>
      <use xlink:href="#DejaVuSans-28" transform="translate(995.759766 0)"/>
      <use xlink:href="#DejaVuSans-6d" transform="translate(1034.773438 0)"/>
      <use xlink:href="#DejaVuSans-2f" transform="translate(1132.185547 0)"/>
      <use xlink:href="#DejaVuSans-73" transform="translate(1165.876953 0)"/>
      <use xlink:href="#DejaVuSans-b2" transform="translate(1217.976562 0)"/>
      <use xlink:href="#DejaVuSans-29" transform="translate(1258.064453 0)"/>
     </g>
    </g>
   </g>
   <g id="line2d_25">
    <path d="M 72.451847 177.439898 
L 74.445715 181.074633 
L 78.23454 180.663584 
L 80.144874 182.822109 
L 82.040971 181.319695 
L 85.826641 180.9199 
L 87.737479 183.513019 
L 89.709739 180.717757 
L 91.73117 182.624487 
L 94.149119 182.387231 
L 96.035209 183.22275 
L 97.948618 185.336628 
L 99.894276 182.92702 
L 101.912713 180.733994 
L 103.688325 180.700908 
L 105.582583 184.082653 
L 107.491095 180.40569 
L 109.397296 182.070422 
L 111.311063 178.425692 
L 113.221494 182.51455 
L 115.141542 184.40891 
L 117.178983 178.204581 
L 118.957263 179.674342 
L 120.819843 182.306683 
L 122.790118 182.353334 
L 124.701753 179.565685 
L 126.59785 177.683901 
L 128.514026 179.225295 
L 130.423464 180.566913 
L 132.467967 182.524183 
L 134.26094 179.958768 
L 136.159982 181.093074 
L 138.064637 183.894422 
L 139.975606 180.484026 
L 141.888136 176.612576 
L 143.799153 178.969683 
L 147.680723 187.152119 
L 149.720084 182.630359 
L 151.445712 184.323763 
L 153.355525 179.793081 
L 155.266119 182.168124 
L 157.177869 181.664947 
L 159.087487 179.079897 
L 161.000001 177.376292 
L 162.954152 184.455056 
L 164.983864 183.402485 
L 166.87111 180.593032 
L 168.646673 177.203637 
L 170.554485 185.795543 
L 171.963029 180.871323 
L 174.374876 180.855512 
L 176.292922 179.968103 
L 178.203159 178.515026 
L 180.215071 184.51269 
L 182.130481 184.703665 
L 183.938537 177.442095 
L 185.844901 179.999874 
L 187.756585 182.185748 
L 189.668042 180.462471 
L 191.580719 178.929644 
L 193.439084 177.288607 
L 195.493788 183.504922 
L 197.462648 181.362599 
L 199.23001 181.566484 
L 201.143127 178.62062 
L 203.045683 183.760079 
L 204.95779 184.84066 
L 206.869459 179.673112 
L 208.785276 175.490918 
L 210.763003 123.896044 
L 212.754902 38.435535 
L 214.513804 202.371858 
L 216.425391 193.003539 
L 218.334407 237.04761 
L 220.289274 153.586124 
L 222.194238 214.078963 
L 224.107224 163.647422 
L 226.017477 207.623401 
L 228.01128 162.352419 
L 229.969189 140.870496 
L 231.738244 176.140488 
L 233.644055 121.753138 
L 235.553477 191.218973 
L 237.458426 156.17925 
L 241.28513 206.491221 
L 243.279551 124.138924 
L 245.250738 206.178778 
L 247.012845 198.734934 
L 248.912717 97.584041 
L 250.826435 164.799906 
L 252.737192 159.095576 
L 254.652797 229.516123 
L 256.565539 161.810789 
L 258.544438 164.901347 
L 260.56704 188.763311 
L 262.296606 134.839533 
L 264.202172 239.562755 
L 266.114231 180.696329 
L 268.027721 160.101311 
L 269.939113 165.503328 
L 271.851204 190.343956 
L 273.772212 220.191882 
L 275.806431 158.554763 
L 277.653065 260.457804 
L 279.495306 84.76233 
L 281.405184 211.483846 
L 283.314623 234.311788 
L 285.226307 203.602664 
L 287.138317 149.395092 
L 289.06209 168.87328 
L 291.108497 156.543313 
L 293.061737 113.473746 
L 294.787706 159.129188 
L 296.698008 176.1756 
L 298.608569 188.435704 
L 300.516788 129.857294 
L 302.428212 228.983045 
L 304.342191 200.089945 
L 306.316778 203.133256 
L 310.076446 132.582396 
L 311.985641 194.4976 
L 313.835871 94.938548 
L 315.812996 147.954343 
L 317.752016 156.80435 
L 319.636853 200.836762 
L 321.588075 127.303162 
L 323.650541 211.782185 
L 325.367171 135.591874 
L 327.274609 218.193407 
L 329.188376 170.601611 
L 331.097701 128.634422 
L 332.94785 165.228642 
L 334.929108 198.39352 
L 336.832836 235.48095 
L 338.886791 166.671552 
L 340.78489 173.834333 
L 342.500495 125.872956 
L 344.476254 87.279529 
L 345.886148 244.411355 
L 347.663696 153.093326 
L 349.572029 229.849845 
L 351.481891 205.500124 
L 353.393705 191.54587 
L 355.307472 181.259337 
L 357.219189 132.276571 
L 359.134079 222.204987 
L 361.247162 180.772505 
L 362.95229 168.258793 
L 364.85963 218.433891 
L 366.77286 122.603757 
L 368.683909 222.241614 
L 370.531959 185.481003 
L 372.508222 163.810124 
L 374.488016 240.756444 
L 376.528027 128.824089 
L 378.248335 205.369662 
L 380.168529 264.064102 
L 382.064577 99.31501 
L 383.976489 267.644195 
L 385.889296 169.734093 
L 387.734596 279.535799 
L 389.719743 182.161299 
L 391.757379 131.630826 
L 393.717469 246.110488 
L 396.081057 208.273881 
L 397.92966 237.302099 
L 399.903987 156.945831 
L 401.945203 220.025064 
L 403.901469 154.790256 
L 405.640651 208.040656 
L 407.546233 125.227225 
L 409.061774 37.438125 
L 411.371311 215.49355 
L 413.281075 158.850386 
L 415.129645 215.743091 
L 417.234431 193.26835 
L 419.204348 339.838125 
L 420.930351 211.274444 
L 422.839822 226.38618 
L 424.747878 224.740777 
L 426.594235 88.891881 
L 428.570482 201.714944 
L 430.484379 159.341043 
L 432.459943 256.433463 
L 434.458822 300.151434 
L 436.253617 87.952965 
L 439.560357 189.01748 
L 441.9484 220.440975 
L 443.862899 160.612137 
L 445.771948 157.734045 
L 447.684202 199.443304 
L 449.746065 139.234471 
L 451.663656 198.976448 
L 453.416537 54.513209 
L 455.328547 176.880857 
L 456.774611 172.601266 
L 459.152371 120.475667 
L 461.071443 243.851418 
L 462.975154 206.445182 
L 464.987734 227.259036 
L 467.018699 168.703142 
L 468.644392 153.62285 
L 470.619825 148.530717 
L 472.528597 218.191871 
L 474.442153 203.435363 
L 476.35125 151.719163 
L 478.270028 263.708683 
L 478.270028 263.708683 
" clip-path="url(#p4d98b9f9f6)" style="fill: none; stroke: #1f77b4; stroke-width: 1.5; stroke-linecap: square"/>
   </g>
   <g id="line2d_26">
    <path d="M 72.451847 183.10972 
L 74.445715 181.126167 
L 78.23454 179.197711 
L 80.144874 182.194862 
L 82.040971 182.368064 
L 85.826641 176.803146 
L 87.737479 182.001384 
L 89.709739 183.29301 
L 91.73117 180.714963 
L 94.149119 180.076419 
L 96.035209 184.968996 
L 97.948618 180.88911 
L 99.894276 181.511786 
L 101.912713 182.372827 
L 103.688325 181.303386 
L 105.582583 181.69465 
L 107.491095 177.441043 
L 109.397296 179.975482 
L 111.311063 178.929075 
L 113.221494 184.512989 
L 115.141542 180.758293 
L 117.178983 178.073543 
L 118.957263 179.713791 
L 120.819843 182.115807 
L 122.790118 180.0125 
L 124.701753 179.979065 
L 126.59785 178.367425 
L 130.423464 183.747937 
L 132.467967 177.575841 
L 134.26094 179.085713 
L 136.159982 182.193518 
L 138.064637 184.934922 
L 139.975606 177.696975 
L 141.888136 180.704604 
L 143.799153 178.95786 
L 145.710268 185.279406 
L 147.680723 181.31405 
L 149.720084 181.987898 
L 151.445712 184.794656 
L 153.355525 182.153664 
L 155.266119 182.00496 
L 157.177869 178.875919 
L 159.087487 178.484741 
L 161.000001 184.064169 
L 162.954152 185.287489 
L 164.983864 181.221531 
L 166.87111 177.950916 
L 168.646673 185.479325 
L 170.554485 185.220656 
L 171.963029 180.692348 
L 174.374876 180.478396 
L 176.292922 179.74975 
L 178.203159 183.017506 
L 180.215071 179.537525 
L 182.130481 178.662664 
L 183.938537 181.129395 
L 185.844901 182.555598 
L 187.756585 181.980526 
L 189.668042 178.139709 
L 191.580719 180.027877 
L 193.439084 182.734907 
L 195.493788 184.814122 
L 197.462648 179.889396 
L 199.23001 183.966439 
L 201.143127 180.62491 
L 203.045683 182.240638 
L 204.95779 179.461215 
L 206.869459 177.930079 
L 208.785276 181.649364 
L 210.763003 184.935227 
L 212.754902 180.398168 
L 214.513804 185.495768 
L 216.425391 164.553557 
L 218.334407 199.288494 
L 220.289274 164.359937 
L 222.194238 187.277049 
L 224.107224 185.095874 
L 226.017477 174.504129 
L 228.01128 190.328784 
L 229.969189 193.416649 
L 231.738244 179.2877 
L 233.644055 147.621482 
L 235.553477 198.982171 
L 237.458426 188.702741 
L 239.373022 172.24434 
L 241.28513 166.470396 
L 243.279551 200.152776 
L 245.250738 181.587599 
L 247.012845 203.396376 
L 248.912717 161.814684 
L 250.826435 173.757176 
L 254.652797 187.081254 
L 256.565539 182.697449 
L 258.544438 169.507195 
L 260.56704 192.107271 
L 262.296606 189.444745 
L 264.202172 177.905936 
L 266.114231 180.555275 
L 268.027721 192.783352 
L 269.939113 192.95944 
L 271.851204 168.170938 
L 273.772212 161.775534 
L 275.806431 184.229764 
L 277.653065 213.888983 
L 281.405184 132.173089 
L 283.314623 225.225271 
L 285.226307 194.63618 
L 287.138317 157.836731 
L 289.06209 177.02007 
L 291.108497 186.352388 
L 293.061737 178.114962 
L 294.787706 193.708305 
L 296.698008 173.221276 
L 298.608569 183.293515 
L 300.516788 191.938186 
L 302.428212 166.88495 
L 304.342191 190.714297 
L 306.316778 190.541912 
L 308.345953 170.107384 
L 310.076446 196.548178 
L 311.985641 190.206008 
L 313.835871 158.116607 
L 315.812996 167.134882 
L 317.752016 203.428047 
L 319.636853 194.658702 
L 321.588075 164.099817 
L 323.650541 168.933751 
L 325.367171 193.399992 
L 327.274609 164.066262 
L 329.188376 197.878293 
L 331.097701 160.589985 
L 332.94785 187.804298 
L 334.929108 185.487308 
L 336.832836 190.571067 
L 338.886791 170.890743 
L 340.78489 201.115359 
L 342.500495 167.421604 
L 344.476254 193.052315 
L 345.886148 174.371165 
L 347.663696 187.379856 
L 349.572029 182.072597 
L 351.481891 173.67869 
L 353.393705 206.816035 
L 355.307472 176.010517 
L 357.219189 129.647209 
L 359.134079 249.976671 
L 361.247162 153.046676 
L 362.95229 144.077732 
L 364.85963 223.531413 
L 366.77286 161.65344 
L 368.683909 174.9254 
L 370.531959 203.300948 
L 372.508222 166.839067 
L 374.488016 189.31498 
L 376.528027 181.238806 
L 378.248335 176.430487 
L 380.168529 212.983047 
L 382.064577 167.405836 
L 383.976489 155.275959 
L 385.889296 226.98516 
L 387.734596 129.594644 
L 389.719743 229.695518 
L 391.757379 153.995814 
L 393.717469 159.423659 
L 396.081057 201.278245 
L 397.92966 201.823665 
L 399.903987 140.927448 
L 401.945203 212.505499 
L 403.901469 170.617272 
L 405.640651 195.251092 
L 407.546233 161.11953 
L 409.061774 178.492682 
L 411.371311 222.837367 
L 413.281075 138.938272 
L 415.129645 214.183561 
L 417.234431 191.966729 
L 419.204348 187.805059 
L 420.930351 180.434745 
L 422.839822 183.412772 
L 424.747878 161.084311 
L 426.594235 199.131266 
L 428.570482 185.76159 
L 430.484379 155.740355 
L 432.459943 200.377947 
L 434.458822 169.203048 
L 436.253617 176.493482 
L 439.560357 186.297689 
L 441.9484 208.796736 
L 443.862899 180.044953 
L 445.771948 139.705706 
L 447.684202 214.988276 
L 449.746065 180.256503 
L 451.663656 181.610391 
L 453.416537 103.101036 
L 455.328547 193.427405 
L 456.774611 142.081461 
L 459.152371 167.836449 
L 461.071443 213.951679 
L 462.975154 175.741795 
L 464.987734 195.988198 
L 467.018699 186.484797 
L 468.644392 172.545323 
L 470.619825 120.560302 
L 472.528597 203.580185 
L 474.442153 190.986665 
L 476.35125 214.988461 
L 478.270028 195.701313 
L 478.270028 195.701313 
" clip-path="url(#p4d98b9f9f6)" style="fill: none; stroke: #ff7f0e; stroke-width: 1.5; stroke-linecap: square"/>
   </g>
   <g id="patch_3">
    <path d="M 52.160938 354.958125 
L 52.160938 22.318125 
" style="fill: none; stroke: #000000; stroke-width: 0.8; stroke-linejoin: miter; stroke-linecap: square"/>
   </g>
   <g id="patch_4">
    <path d="M 498.560938 354.958125 
L 498.560938 22.318125 
" style="fill: none; stroke: #000000; stroke-width: 0.8; stroke-linejoin: miter; stroke-linecap: square"/>
   </g>
   <g id="patch_5">
    <path d="M 52.160938 354.958125 
L 498.560938 354.958125 
" style="fill: none; stroke: #000000; stroke-width: 0.8; stroke-linejoin: miter; stroke-linecap: square"/>
   </g>
   <g id="patch_6">
    <path d="M 52.160938 22.318125 
L 498.560938 22.318125 
" style="fill: none; stroke: #000000; stroke-width: 0.8; stroke-linejoin: miter; stroke-linecap: square"/>
   </g>
   <g id="legend_1">
    <g id="patch_7">
     <path d="M 59.160938 59.674375 
L 163.329688 59.674375 
Q 165.329688 59.674375 165.329688 57.674375 
L 165.329688 29.318125 
Q 165.329688 27.318125 163.329688 27.318125 
L 59.160938 27.318125 
Q 57.160938 27.318125 57.160938 29.318125 
L 57.160938 57.674375 
Q 57.160938 59.674375 59.160938 59.674375 
z
" style="fill: #ffffff; opacity: 0.8; stroke: #cccccc; stroke-linejoin: miter"/>
    </g>
    <g id="line2d_27">
     <path d="M 61.160938 35.416562 
L 71.160938 35.416562 
L 81.160938 35.416562 
" style="fill: none; stroke: #1f77b4; stroke-width: 1.5; stroke-linecap: square"/>
    </g>
    <g id="text_15">
     <!-- X Acceleration -->
     <g transform="translate(89.160938 38.916562) scale(0.1 -0.1)">
      <defs>
       <path id="DejaVuSans-58" d="M 403 4666 
L 1081 4666 
L 2241 2931 
L 3406 4666 
L 4084 4666 
L 2584 2425 
L 4184 0 
L 3506 0 
L 2194 1984 
L 872 0 
L 191 0 
L 1856 2491 
L 403 4666 
z
" transform="scale(0.015625)"/>
      </defs>
      <use xlink:href="#DejaVuSans-58"/>
      <use xlink:href="#DejaVuSans-20" transform="translate(68.505859 0)"/>
      <use xlink:href="#DejaVuSans-41" transform="translate(100.292969 0)"/>
      <use xlink:href="#DejaVuSans-63" transform="translate(166.951172 0)"/>
      <use xlink:href="#DejaVuSans-63" transform="translate(221.931641 0)"/>
      <use xlink:href="#DejaVuSans-65" transform="translate(276.912109 0)"/>
      <use xlink:href="#DejaVuSans-6c" transform="translate(338.435547 0)"/>
      <use xlink:href="#DejaVuSans-65" transform="translate(366.21875 0)"/>
      <use xlink:href="#DejaVuSans-72" transform="translate(427.742188 0)"/>
      <use xlink:href="#DejaVuSans-61" transform="translate(468.855469 0)"/>
      <use xlink:href="#DejaVuSans-74" transform="translate(530.134766 0)"/>
      <use xlink:href="#DejaVuSans-69" transform="translate(569.34375 0)"/>
      <use xlink:href="#DejaVuSans-6f" transform="translate(597.126953 0)"/>
      <use xlink:href="#DejaVuSans-6e" transform="translate(658.308594 0)"/>
     </g>
    </g>
    <g id="line2d_28">
     <path d="M 61.160938 50.094687 
L 71.160938 50.094687 
L 81.160938 50.094687 
" style="fill: none; stroke: #ff7f0e; stroke-width: 1.5; stroke-linecap: square"/>
    </g>
    <g id="text_16">
     <!-- Y Acceleration -->
     <g transform="translate(89.160938 53.594687) scale(0.1 -0.1)">
      <defs>
       <path id="DejaVuSans-59" d="M -13 4666 
L 666 4666 
L 1959 2747 
L 3244 4666 
L 3922 4666 
L 2272 2222 
L 2272 0 
L 1638 0 
L 1638 2222 
L -13 4666 
z
" transform="scale(0.015625)"/>
      </defs>
      <use xlink:href="#DejaVuSans-59"/>
      <use xlink:href="#DejaVuSans-20" transform="translate(61.083984 0)"/>
      <use xlink:href="#DejaVuSans-41" transform="translate(92.871094 0)"/>
      <use xlink:href="#DejaVuSans-63" transform="translate(159.529297 0)"/>
      <use xlink:href="#DejaVuSans-63" transform="translate(214.509766 0)"/>
      <use xlink:href="#DejaVuSans-65" transform="translate(269.490234 0)"/>
      <use xlink:href="#DejaVuSans-6c" transform="translate(331.013672 0)"/>
      <use xlink:href="#DejaVuSans-65" transform="translate(358.796875 0)"/>
      <use xlink:href="#DejaVuSans-72" transform="translate(420.320312 0)"/>
      <use xlink:href="#DejaVuSans-61" transform="translate(461.433594 0)"/>
      <use xlink:href="#DejaVuSans-74" transform="translate(522.712891 0)"/>
      <use xlink:href="#DejaVuSans-69" transform="translate(561.921875 0)"/>
      <use xlink:href="#DejaVuSans-6f" transform="translate(589.705078 0)"/>
      <use xlink:href="#DejaVuSans-6e" transform="translate(650.886719 0)"/>
     </g>
    </g>
   </g>
  </g>
  <g id="axes_2">
   <g id="matplotlib.axis_3">
    <g id="ytick_6">
     <g id="line2d_29">
      <defs>
       <path id="md02826cfad" d="M 0 0 
L 3.5 0 
" style="stroke: #000000; stroke-width: 0.8"/>
      </defs>
      <g>
       <use xlink:href="#md02826cfad" x="498.560938" y="353.781366" style="stroke: #000000; stroke-width: 0.8"/>
      </g>
     </g>
     <g id="text_17">
      <!-- −0.06 -->
      <g transform="translate(505.560938 357.580585) scale(0.1 -0.1)">
       <use xlink:href="#DejaVuSans-2212"/>
       <use xlink:href="#DejaVuSans-30" transform="translate(83.789062 0)"/>
       <use xlink:href="#DejaVuSans-2e" transform="translate(147.412109 0)"/>
       <use xlink:href="#DejaVuSans-30" transform="translate(179.199219 0)"/>
       <use xlink:href="#DejaVuSans-36" transform="translate(242.822266 0)"/>
      </g>
     </g>
    </g>
    <g id="ytick_7">
     <g id="line2d_30">
      <g>
       <use xlink:href="#md02826cfad" x="498.560938" y="295.753212" style="stroke: #000000; stroke-width: 0.8"/>
      </g>
     </g>
     <g id="text_18">
      <!-- −0.04 -->
      <g transform="translate(505.560938 299.552431) scale(0.1 -0.1)">
       <use xlink:href="#DejaVuSans-2212"/>
       <use xlink:href="#DejaVuSans-30" transform="translate(83.789062 0)"/>
       <use xlink:href="#DejaVuSans-2e" transform="translate(147.412109 0)"/>
       <use xlink:href="#DejaVuSans-30" transform="translate(179.199219 0)"/>
       <use xlink:href="#DejaVuSans-34" transform="translate(242.822266 0)"/>
      </g>
     </g>
    </g>
    <g id="ytick_8">
     <g id="line2d_31">
      <g>
       <use xlink:href="#md02826cfad" x="498.560938" y="237.725059" style="stroke: #000000; stroke-width: 0.8"/>
      </g>
     </g>
     <g id="text_19">
      <!-- −0.02 -->
      <g transform="translate(505.560938 241.524278) scale(0.1 -0.1)">
       <use xlink:href="#DejaVuSans-2212"/>
       <use xlink:href="#DejaVuSans-30" transform="translate(83.789062 0)"/>
       <use xlink:href="#DejaVuSans-2e" transform="translate(147.412109 0)"/>
       <use xlink:href="#DejaVuSans-30" transform="translate(179.199219 0)"/>
       <use xlink:href="#DejaVuSans-32" transform="translate(242.822266 0)"/>
      </g>
     </g>
    </g>
    <g id="ytick_9">
     <g id="line2d_32">
      <g>
       <use xlink:href="#md02826cfad" x="498.560938" y="179.696905" style="stroke: #000000; stroke-width: 0.8"/>
      </g>
     </g>
     <g id="text_20">
      <!-- 0.00 -->
      <g transform="translate(505.560938 183.496124) scale(0.1 -0.1)">
       <use xlink:href="#DejaVuSans-30"/>
       <use xlink:href="#DejaVuSans-2e" transform="translate(63.623047 0)"/>
       <use xlink:href="#DejaVuSans-30" transform="translate(95.410156 0)"/>
       <use xlink:href="#DejaVuSans-30" transform="translate(159.033203 0)"/>
      </g>
     </g>
    </g>
    <g id="ytick_10">
     <g id="line2d_33">
      <g>
       <use xlink:href="#md02826cfad" x="498.560938" y="121.668752" style="stroke: #000000; stroke-width: 0.8"/>
      </g>
     </g>
     <g id="text_21">
      <!-- 0.02 -->
      <g transform="translate(505.560938 125.467971) scale(0.1 -0.1)">
       <use xlink:href="#DejaVuSans-30"/>
       <use xlink:href="#DejaVuSans-2e" transform="translate(63.623047 0)"/>
       <use xlink:href="#DejaVuSans-30" transform="translate(95.410156 0)"/>
       <use xlink:href="#DejaVuSans-32" transform="translate(159.033203 0)"/>
      </g>
     </g>
    </g>
    <g id="ytick_11">
     <g id="line2d_34">
      <g>
       <use xlink:href="#md02826cfad" x="498.560938" y="63.640598" style="stroke: #000000; stroke-width: 0.8"/>
      </g>
     </g>
     <g id="text_22">
      <!-- 0.04 -->
      <g transform="translate(505.560938 67.439817) scale(0.1 -0.1)">
       <use xlink:href="#DejaVuSans-30"/>
       <use xlink:href="#DejaVuSans-2e" transform="translate(63.623047 0)"/>
       <use xlink:href="#DejaVuSans-30" transform="translate(95.410156 0)"/>
       <use xlink:href="#DejaVuSans-34" transform="translate(159.033203 0)"/>
      </g>
     </g>
    </g>
    <g id="text_23">
     <!-- Angular Velocity (Rad/s) -->
     <g transform="translate(547.804688 248.663125) rotate(-90) scale(0.1 -0.1)">
      <defs>
       <path id="DejaVuSans-67" d="M 2906 1791 
Q 2906 2416 2648 2759 
Q 2391 3103 1925 3103 
Q 1463 3103 1205 2759 
Q 947 2416 947 1791 
Q 947 1169 1205 825 
Q 1463 481 1925 481 
Q 2391 481 2648 825 
Q 2906 1169 2906 1791 
z
M 3481 434 
Q 3481 -459 3084 -895 
Q 2688 -1331 1869 -1331 
Q 1566 -1331 1297 -1286 
Q 1028 -1241 775 -1147 
L 775 -588 
Q 1028 -725 1275 -790 
Q 1522 -856 1778 -856 
Q 2344 -856 2625 -561 
Q 2906 -266 2906 331 
L 2906 616 
Q 2728 306 2450 153 
Q 2172 0 1784 0 
Q 1141 0 747 490 
Q 353 981 353 1791 
Q 353 2603 747 3093 
Q 1141 3584 1784 3584 
Q 2172 3584 2450 3431 
Q 2728 3278 2906 2969 
L 2906 3500 
L 3481 3500 
L 3481 434 
z
" transform="scale(0.015625)"/>
       <path id="DejaVuSans-75" d="M 544 1381 
L 544 3500 
L 1119 3500 
L 1119 1403 
Q 1119 906 1312 657 
Q 1506 409 1894 409 
Q 2359 409 2629 706 
Q 2900 1003 2900 1516 
L 2900 3500 
L 3475 3500 
L 3475 0 
L 2900 0 
L 2900 538 
Q 2691 219 2414 64 
Q 2138 -91 1772 -91 
Q 1169 -91 856 284 
Q 544 659 544 1381 
z
M 1991 3584 
L 1991 3584 
z
" transform="scale(0.015625)"/>
       <path id="DejaVuSans-56" d="M 1831 0 
L 50 4666 
L 709 4666 
L 2188 738 
L 3669 4666 
L 4325 4666 
L 2547 0 
L 1831 0 
z
" transform="scale(0.015625)"/>
       <path id="DejaVuSans-79" d="M 2059 -325 
Q 1816 -950 1584 -1140 
Q 1353 -1331 966 -1331 
L 506 -1331 
L 506 -850 
L 844 -850 
Q 1081 -850 1212 -737 
Q 1344 -625 1503 -206 
L 1606 56 
L 191 3500 
L 800 3500 
L 1894 763 
L 2988 3500 
L 3597 3500 
L 2059 -325 
z
" transform="scale(0.015625)"/>
       <path id="DejaVuSans-52" d="M 2841 2188 
Q 3044 2119 3236 1894 
Q 3428 1669 3622 1275 
L 4263 0 
L 3584 0 
L 2988 1197 
Q 2756 1666 2539 1819 
Q 2322 1972 1947 1972 
L 1259 1972 
L 1259 0 
L 628 0 
L 628 4666 
L 2053 4666 
Q 2853 4666 3247 4331 
Q 3641 3997 3641 3322 
Q 3641 2881 3436 2590 
Q 3231 2300 2841 2188 
z
M 1259 4147 
L 1259 2491 
L 2053 2491 
Q 2509 2491 2742 2702 
Q 2975 2913 2975 3322 
Q 2975 3731 2742 3939 
Q 2509 4147 2053 4147 
L 1259 4147 
z
" transform="scale(0.015625)"/>
       <path id="DejaVuSans-64" d="M 2906 2969 
L 2906 4863 
L 3481 4863 
L 3481 0 
L 2906 0 
L 2906 525 
Q 2725 213 2448 61 
Q 2172 -91 1784 -91 
Q 1150 -91 751 415 
Q 353 922 353 1747 
Q 353 2572 751 3078 
Q 1150 3584 1784 3584 
Q 2172 3584 2448 3432 
Q 2725 3281 2906 2969 
z
M 947 1747 
Q 947 1113 1208 752 
Q 1469 391 1925 391 
Q 2381 391 2643 752 
Q 2906 1113 2906 1747 
Q 2906 2381 2643 2742 
Q 2381 3103 1925 3103 
Q 1469 3103 1208 2742 
Q 947 2381 947 1747 
z
" transform="scale(0.015625)"/>
      </defs>
      <use xlink:href="#DejaVuSans-41"/>
      <use xlink:href="#DejaVuSans-6e" transform="translate(68.408203 0)"/>
      <use xlink:href="#DejaVuSans-67" transform="translate(131.787109 0)"/>
      <use xlink:href="#DejaVuSans-75" transform="translate(195.263672 0)"/>
      <use xlink:href="#DejaVuSans-6c" transform="translate(258.642578 0)"/>
      <use xlink:href="#DejaVuSans-61" transform="translate(286.425781 0)"/>
      <use xlink:href="#DejaVuSans-72" transform="translate(347.705078 0)"/>
      <use xlink:href="#DejaVuSans-20" transform="translate(388.818359 0)"/>
      <use xlink:href="#DejaVuSans-56" transform="translate(420.605469 0)"/>
      <use xlink:href="#DejaVuSans-65" transform="translate(481.263672 0)"/>
      <use xlink:href="#DejaVuSans-6c" transform="translate(542.787109 0)"/>
      <use xlink:href="#DejaVuSans-6f" transform="translate(570.570312 0)"/>
      <use xlink:href="#DejaVuSans-63" transform="translate(631.751953 0)"/>
      <use xlink:href="#DejaVuSans-69" transform="translate(686.732422 0)"/>
      <use xlink:href="#DejaVuSans-74" transform="translate(714.515625 0)"/>
      <use xlink:href="#DejaVuSans-79" transform="translate(753.724609 0)"/>
      <use xlink:href="#DejaVuSans-20" transform="translate(812.904297 0)"/>
      <use xlink:href="#DejaVuSans-28" transform="translate(844.691406 0)"/>
      <use xlink:href="#DejaVuSans-52" transform="translate(883.705078 0)"/>
      <use xlink:href="#DejaVuSans-61" transform="translate(950.9375 0)"/>
      <use xlink:href="#DejaVuSans-64" transform="translate(1012.216797 0)"/>
      <use xlink:href="#DejaVuSans-2f" transform="translate(1075.693359 0)"/>
      <use xlink:href="#DejaVuSans-73" transform="translate(1109.384766 0)"/>
      <use xlink:href="#DejaVuSans-29" transform="translate(1161.484375 0)"/>
     </g>
    </g>
   </g>
   <g id="line2d_35">
    <path d="M 72.451847 179.696906 
L 111.311063 179.696906 
L 208.785276 179.696905 
L 210.763003 180.852895 
L 212.754902 229.002097 
L 214.513804 107.808644 
L 216.425391 121.72588 
L 218.334407 127.007242 
L 220.289274 83.616988 
L 222.194238 67.074841 
L 224.107224 77.979852 
L 226.017477 124.680284 
L 228.01128 190.519451 
L 229.969189 314.829511 
L 231.738244 320.088351 
L 233.644055 239.20248 
L 235.553477 120.93384 
L 237.458426 181.462835 
L 239.373022 167.209874 
L 241.28513 50.282537 
L 243.279551 37.438125 
L 245.250738 205.900019 
L 247.012845 218.52736 
L 248.912717 313.738369 
L 250.826435 283.183911 
L 252.737192 236.687309 
L 254.652797 121.589278 
L 256.565539 151.3621 
L 258.544438 259.81019 
L 260.56704 174.675321 
L 262.296606 89.722678 
L 264.202172 144.506836 
L 266.114231 209.650857 
L 268.027721 187.644647 
L 269.939113 141.255166 
L 271.851204 135.463451 
L 273.772212 179.545638 
L 275.806431 242.028616 
L 277.653065 119.372478 
L 279.495306 153.005555 
L 281.405184 295.714898 
L 283.314623 218.446933 
L 285.226307 175.881755 
L 287.138317 151.917933 
L 289.06209 90.500942 
L 291.108497 169.303403 
L 293.061737 186.095349 
L 294.787706 143.543883 
L 296.698008 168.95754 
L 298.608569 175.750957 
L 300.516788 239.724645 
L 302.428212 232.335588 
L 304.342191 176.663803 
L 306.316778 153.243668 
L 308.345953 152.915176 
L 310.076446 192.696762 
L 311.985641 192.167104 
L 313.835871 247.405351 
L 315.812996 248.737618 
L 317.752016 226.20574 
L 319.636853 135.617747 
L 321.588075 166.738348 
L 323.650541 195.226115 
L 325.367171 236.080396 
L 327.274609 193.432271 
L 329.188376 248.705143 
L 331.097701 135.266492 
L 332.94785 128.943844 
L 334.929108 148.199778 
L 338.886791 208.882039 
L 340.78489 265.810851 
L 342.500495 180.649942 
L 344.476254 136.218427 
L 345.886148 92.20073 
L 347.663696 87.470862 
L 351.481891 339.838125 
L 353.393705 187.18835 
L 355.307472 133.261878 
L 357.219189 122.892589 
L 359.134079 135.597272 
L 361.247162 147.212959 
L 362.95229 229.847948 
L 364.85963 129.847352 
L 366.77286 128.55895 
L 368.683909 181.543422 
L 370.531959 193.505229 
L 372.508222 221.242736 
L 374.488016 177.770388 
L 376.528027 153.526604 
L 378.248335 185.929721 
L 380.168529 204.759058 
L 382.064577 176.752999 
L 383.976489 155.624683 
L 385.889296 221.802067 
L 387.734596 243.798185 
L 389.719743 239.528116 
L 391.757379 132.230348 
L 393.717469 136.092262 
L 396.081057 206.452004 
L 397.92966 223.767485 
L 399.903987 153.057596 
L 401.945203 159.44505 
L 403.901469 230.377437 
L 405.640651 218.543575 
L 407.546233 142.8639 
L 409.061774 133.799633 
L 411.371311 151.592454 
L 413.281075 138.721018 
L 415.129645 144.450413 
L 417.234431 140.236918 
L 419.204348 181.841458 
L 420.930351 182.121026 
L 422.839822 140.809264 
L 424.747878 112.542837 
L 426.594235 190.375174 
L 428.570482 164.61435 
L 430.484379 132.062407 
L 434.458822 212.480773 
L 436.253617 275.081187 
L 439.560357 227.683746 
L 441.9484 236.385514 
L 443.862899 126.897243 
L 445.771948 162.310359 
L 447.684202 206.294881 
L 449.746065 126.509394 
L 451.663656 222.268611 
L 453.416537 212.090761 
L 455.328547 131.238528 
L 456.774611 89.322941 
L 459.152371 132.602978 
L 461.071443 232.035328 
L 462.975154 191.131743 
L 464.987734 210.326058 
L 467.018699 188.714735 
L 468.644392 158.772272 
L 470.619825 201.600508 
L 472.528597 156.964215 
L 474.442153 116.117913 
L 476.35125 277.38601 
L 478.270028 236.474855 
L 478.270028 236.474855 
" clip-path="url(#p4d98b9f9f6)" style="fill: none; stroke: #008000; stroke-width: 1.5; stroke-linecap: square"/>
   </g>
   <g id="patch_8">
    <path d="M 52.160938 354.958125 
L 52.160938 22.318125 
" style="fill: none; stroke: #000000; stroke-width: 0.8; stroke-linejoin: miter; stroke-linecap: square"/>
   </g>
   <g id="patch_9">
    <path d="M 498.560938 354.958125 
L 498.560938 22.318125 
" style="fill: none; stroke: #000000; stroke-width: 0.8; stroke-linejoin: miter; stroke-linecap: square"/>
   </g>
   <g id="patch_10">
    <path d="M 52.160938 354.958125 
L 498.560938 354.958125 
" style="fill: none; stroke: #000000; stroke-width: 0.8; stroke-linejoin: miter; stroke-linecap: square"/>
   </g>
   <g id="patch_11">
    <path d="M 52.160938 22.318125 
L 498.560938 22.318125 
" style="fill: none; stroke: #000000; stroke-width: 0.8; stroke-linejoin: miter; stroke-linecap: square"/>
   </g>
   <g id="text_24">
    <!-- Imu Data Log (Line Motion) -->
    <g transform="translate(193.745 16.318125) scale(0.12 -0.12)">
     <defs>
      <path id="DejaVuSans-49" d="M 628 4666 
L 1259 4666 
L 1259 0 
L 628 0 
L 628 4666 
z
" transform="scale(0.015625)"/>
      <path id="DejaVuSans-44" d="M 1259 4147 
L 1259 519 
L 2022 519 
Q 2988 519 3436 956 
Q 3884 1394 3884 2338 
Q 3884 3275 3436 3711 
Q 2988 4147 2022 4147 
L 1259 4147 
z
M 628 4666 
L 1925 4666 
Q 3281 4666 3915 4102 
Q 4550 3538 4550 2338 
Q 4550 1131 3912 565 
Q 3275 0 1925 0 
L 628 0 
L 628 4666 
z
" transform="scale(0.015625)"/>
      <path id="DejaVuSans-4d" d="M 628 4666 
L 1569 4666 
L 2759 1491 
L 3956 4666 
L 4897 4666 
L 4897 0 
L 4281 0 
L 4281 4097 
L 3078 897 
L 2444 897 
L 1241 4097 
L 1241 0 
L 628 0 
L 628 4666 
z
" transform="scale(0.015625)"/>
     </defs>
     <use xlink:href="#DejaVuSans-49"/>
     <use xlink:href="#DejaVuSans-6d" transform="translate(29.492188 0)"/>
     <use xlink:href="#DejaVuSans-75" transform="translate(126.904297 0)"/>
     <use xlink:href="#DejaVuSans-20" transform="translate(190.283203 0)"/>
     <use xlink:href="#DejaVuSans-44" transform="translate(222.070312 0)"/>
     <use xlink:href="#DejaVuSans-61" transform="translate(299.072266 0)"/>
     <use xlink:href="#DejaVuSans-74" transform="translate(360.351562 0)"/>
     <use xlink:href="#DejaVuSans-61" transform="translate(399.560547 0)"/>
     <use xlink:href="#DejaVuSans-20" transform="translate(460.839844 0)"/>
     <use xlink:href="#DejaVuSans-4c" transform="translate(492.626953 0)"/>
     <use xlink:href="#DejaVuSans-6f" transform="translate(546.589844 0)"/>
     <use xlink:href="#DejaVuSans-67" transform="translate(607.771484 0)"/>
     <use xlink:href="#DejaVuSans-20" transform="translate(671.248047 0)"/>
     <use xlink:href="#DejaVuSans-28" transform="translate(703.035156 0)"/>
     <use xlink:href="#DejaVuSans-4c" transform="translate(742.048828 0)"/>
     <use xlink:href="#DejaVuSans-69" transform="translate(797.761719 0)"/>
     <use xlink:href="#DejaVuSans-6e" transform="translate(825.544922 0)"/>
     <use xlink:href="#DejaVuSans-65" transform="translate(888.923828 0)"/>
     <use xlink:href="#DejaVuSans-20" transform="translate(950.447266 0)"/>
     <use xlink:href="#DejaVuSans-4d" transform="translate(982.234375 0)"/>
     <use xlink:href="#DejaVuSans-6f" transform="translate(1068.513672 0)"/>
     <use xlink:href="#DejaVuSans-74" transform="translate(1129.695312 0)"/>
     <use xlink:href="#DejaVuSans-69" transform="translate(1168.904297 0)"/>
     <use xlink:href="#DejaVuSans-6f" transform="translate(1196.6875 0)"/>
     <use xlink:href="#DejaVuSans-6e" transform="translate(1257.869141 0)"/>
     <use xlink:href="#DejaVuSans-29" transform="translate(1321.248047 0)"/>
    </g>
   </g>
   <g id="legend_2">
    <g id="patch_12">
     <path d="M 378.270313 44.99625 
L 491.560938 44.99625 
Q 493.560938 44.99625 493.560938 42.99625 
L 493.560938 29.318125 
Q 493.560938 27.318125 491.560938 27.318125 
L 378.270313 27.318125 
Q 376.270313 27.318125 376.270313 29.318125 
L 376.270313 42.99625 
Q 376.270313 44.99625 378.270313 44.99625 
z
" style="fill: #ffffff; opacity: 0.8; stroke: #cccccc; stroke-linejoin: miter"/>
    </g>
    <g id="line2d_36">
     <path d="M 380.270313 35.416563 
L 390.270313 35.416563 
L 400.270313 35.416563 
" style="fill: none; stroke: #008000; stroke-width: 1.5; stroke-linecap: square"/>
    </g>
    <g id="text_25">
     <!-- Angular Velocity -->
     <g transform="translate(408.270313 38.916563) scale(0.1 -0.1)">
      <use xlink:href="#DejaVuSans-41"/>
      <use xlink:href="#DejaVuSans-6e" transform="translate(68.408203 0)"/>
      <use xlink:href="#DejaVuSans-67" transform="translate(131.787109 0)"/>
      <use xlink:href="#DejaVuSans-75" transform="translate(195.263672 0)"/>
      <use xlink:href="#DejaVuSans-6c" transform="translate(258.642578 0)"/>
      <use xlink:href="#DejaVuSans-61" transform="translate(286.425781 0)"/>
      <use xlink:href="#DejaVuSans-72" transform="translate(347.705078 0)"/>
      <use xlink:href="#DejaVuSans-20" transform="translate(388.818359 0)"/>
      <use xlink:href="#DejaVuSans-56" transform="translate(420.605469 0)"/>
      <use xlink:href="#DejaVuSans-65" transform="translate(481.263672 0)"/>
      <use xlink:href="#DejaVuSans-6c" transform="translate(542.787109 0)"/>
      <use xlink:href="#DejaVuSans-6f" transform="translate(570.570312 0)"/>
      <use xlink:href="#DejaVuSans-63" transform="translate(631.751953 0)"/>
      <use xlink:href="#DejaVuSans-69" transform="translate(686.732422 0)"/>
      <use xlink:href="#DejaVuSans-74" transform="translate(714.515625 0)"/>
      <use xlink:href="#DejaVuSans-79" transform="translate(753.724609 0)"/>
     </g>
    </g>
   </g>
  </g>
 </g>
 <defs>
  <clipPath id="p4d98b9f9f6">
   <rect x="52.160938" y="22.318125" width="446.4" height="332.64"/>
  </clipPath>
 </defs>
</svg>
