<?xml version="1.0" encoding="utf-8" standalone="no"?>
<!DOCTYPE svg PUBLIC "-//W3C//DTD SVG 1.1//EN"
  "http://www.w3.org/Graphics/SVG/1.1/DTD/svg11.dtd">
<svg xmlns:xlink="http://www.w3.org/1999/xlink" width="542.342188pt" height="392.514375pt" viewBox="0 0 542.342188 392.514375" xmlns="http://www.w3.org/2000/svg" version="1.1">
 <metadata>
  <rdf:RDF xmlns:dc="http://purl.org/dc/elements/1.1/" xmlns:cc="http://creativecommons.org/ns#" xmlns:rdf="http://www.w3.org/1999/02/22-rdf-syntax-ns#">
   <cc:Work>
    <dc:type rdf:resource="http://purl.org/dc/dcmitype/StillImage"/>
    <dc:date>2025-10-09T09:39:33.602395</dc:date>
    <dc:format>image/svg+xml</dc:format>
    <dc:creator>
     <cc:Agent>
      <dc:title>Matplotlib v3.10.6, https://matplotlib.org/</dc:title>
     </cc:Agent>
    </dc:creator>
   </cc:Work>
  </rdf:RDF>
 </metadata>
 <defs>
  <style type="text/css">*{stroke-linejoin: round; stroke-linecap: butt}</style>
 </defs>
 <g id="figure_1">
  <g id="patch_1">
   <path d="M 0 392.514375 
L 542.342188 392.514375 
L 542.342188 0 
L 0 0 
z
" style="fill: #ffffff"/>
  </g>
  <g id="axes_1">
   <g id="patch_2">
    <path d="M 52.160938 354.958125 
L 498.560938 354.958125 
L 498.560938 22.318125 
L 52.160938 22.318125 
z
" style="fill: #ffffff"/>
   </g>
   <g id="matplotlib.axis_1">
    <g id="xtick_1">
     <g id="line2d_1">
      <path d="M 72.451847 354.958125 
L 72.451847 22.318125 
" clip-path="url(#p2ad78eef35)" style="fill: none; stroke: #b0b0b0; stroke-width: 0.8; stroke-linecap: square"/>
     </g>
     <g id="line2d_2">
      <defs>
       <path id="mca4a9b1509" d="M 0 0 
L 0 3.5 
" style="stroke: #000000; stroke-width: 0.8"/>
      </defs>
      <g>
       <use xlink:href="#mca4a9b1509" x="72.451847" y="354.958125" style="stroke: #000000; stroke-width: 0.8"/>
      </g>
     </g>
     <g id="text_1">
      <!-- 0 -->
      <g transform="translate(69.270597 369.556562) scale(0.1 -0.1)">
       <defs>
        <path id="DejaVuSans-30" d="M 2034 4250 
Q 1547 4250 1301 3770 
Q 1056 3291 1056 2328 
Q 1056 1369 1301 889 
Q 1547 409 2034 409 
Q 2525 409 2770 889 
Q 3016 1369 3016 2328 
Q 3016 3291 2770 3770 
Q 2525 4250 2034 4250 
z
M 2034 4750 
Q 2819 4750 3233 4129 
Q 3647 3509 3647 2328 
Q 3647 1150 3233 529 
Q 2819 -91 2034 -91 
Q 1250 -91 836 529 
Q 422 1150 422 2328 
Q 422 3509 836 4129 
Q 1250 4750 2034 4750 
z
" transform="scale(0.015625)"/>
       </defs>
       <use xlink:href="#DejaVuSans-30"/>
      </g>
     </g>
    </g>
    <g id="xtick_2">
     <g id="line2d_3">
      <path d="M 127.016023 354.958125 
L 127.016023 22.318125 
" clip-path="url(#p2ad78eef35)" style="fill: none; stroke: #b0b0b0; stroke-width: 0.8; stroke-linecap: square"/>
     </g>
     <g id="line2d_4">
      <g>
       <use xlink:href="#mca4a9b1509" x="127.016023" y="354.958125" style="stroke: #000000; stroke-width: 0.8"/>
      </g>
     </g>
     <g id="text_2">
      <!-- 1 -->
      <g transform="translate(123.834773 369.556562) scale(0.1 -0.1)">
       <defs>
        <path id="DejaVuSans-31" d="M 794 531 
L 1825 531 
L 1825 4091 
L 703 3866 
L 703 4441 
L 1819 4666 
L 2450 4666 
L 2450 531 
L 3481 531 
L 3481 0 
L 794 0 
L 794 531 
z
" transform="scale(0.015625)"/>
       </defs>
       <use xlink:href="#DejaVuSans-31"/>
      </g>
     </g>
    </g>
    <g id="xtick_3">
     <g id="line2d_5">
      <path d="M 181.5802 354.958125 
L 181.5802 22.318125 
" clip-path="url(#p2ad78eef35)" style="fill: none; stroke: #b0b0b0; stroke-width: 0.8; stroke-linecap: square"/>
     </g>
     <g id="line2d_6">
      <g>
       <use xlink:href="#mca4a9b1509" x="181.5802" y="354.958125" style="stroke: #000000; stroke-width: 0.8"/>
      </g>
     </g>
     <g id="text_3">
      <!-- 2 -->
      <g transform="translate(178.39895 369.556562) scale(0.1 -0.1)">
       <defs>
        <path id="DejaVuSans-32" d="M 1228 531 
L 3431 531 
L 3431 0 
L 469 0 
L 469 531 
Q 828 903 1448 1529 
Q 2069 2156 2228 2338 
Q 2531 2678 2651 2914 
Q 2772 3150 2772 3378 
Q 2772 3750 2511 3984 
Q 2250 4219 1831 4219 
Q 1534 4219 1204 4116 
Q 875 4013 500 3803 
L 500 4441 
Q 881 4594 1212 4672 
Q 1544 4750 1819 4750 
Q 2544 4750 2975 4387 
Q 3406 4025 3406 3419 
Q 3406 3131 3298 2873 
Q 3191 2616 2906 2266 
Q 2828 2175 2409 1742 
Q 1991 1309 1228 531 
z
" transform="scale(0.015625)"/>
       </defs>
       <use xlink:href="#DejaVuSans-32"/>
      </g>
     </g>
    </g>
    <g id="xtick_4">
     <g id="line2d_7">
      <path d="M 236.144377 354.958125 
L 236.144377 22.318125 
" clip-path="url(#p2ad78eef35)" style="fill: none; stroke: #b0b0b0; stroke-width: 0.8; stroke-linecap: square"/>
     </g>
     <g id="line2d_8">
      <g>
       <use xlink:href="#mca4a9b1509" x="236.144377" y="354.958125" style="stroke: #000000; stroke-width: 0.8"/>
      </g>
     </g>
     <g id="text_4">
      <!-- 3 -->
      <g transform="translate(232.963127 369.556562) scale(0.1 -0.1)">
       <defs>
        <path id="DejaVuSans-33" d="M 2597 2516 
Q 3050 2419 3304 2112 
Q 3559 1806 3559 1356 
Q 3559 666 3084 287 
Q 2609 -91 1734 -91 
Q 1441 -91 1130 -33 
Q 819 25 488 141 
L 488 750 
Q 750 597 1062 519 
Q 1375 441 1716 441 
Q 2309 441 2620 675 
Q 2931 909 2931 1356 
Q 2931 1769 2642 2001 
Q 2353 2234 1838 2234 
L 1294 2234 
L 1294 2753 
L 1863 2753 
Q 2328 2753 2575 2939 
Q 2822 3125 2822 3475 
Q 2822 3834 2567 4026 
Q 2313 4219 1838 4219 
Q 1578 4219 1281 4162 
Q 984 4106 628 3988 
L 628 4550 
Q 988 4650 1302 4700 
Q 1616 4750 1894 4750 
Q 2613 4750 3031 4423 
Q 3450 4097 3450 3541 
Q 3450 3153 3228 2886 
Q 3006 2619 2597 2516 
z
" transform="scale(0.015625)"/>
       </defs>
       <use xlink:href="#DejaVuSans-33"/>
      </g>
     </g>
    </g>
    <g id="xtick_5">
     <g id="line2d_9">
      <path d="M 290.708554 354.958125 
L 290.708554 22.318125 
" clip-path="url(#p2ad78eef35)" style="fill: none; stroke: #b0b0b0; stroke-width: 0.8; stroke-linecap: square"/>
     </g>
     <g id="line2d_10">
      <g>
       <use xlink:href="#mca4a9b1509" x="290.708554" y="354.958125" style="stroke: #000000; stroke-width: 0.8"/>
      </g>
     </g>
     <g id="text_5">
      <!-- 4 -->
      <g transform="translate(287.527304 369.556562) scale(0.1 -0.1)">
       <defs>
        <path id="DejaVuSans-34" d="M 2419 4116 
L 825 1625 
L 2419 1625 
L 2419 4116 
z
M 2253 4666 
L 3047 4666 
L 3047 1625 
L 3713 1625 
L 3713 1100 
L 3047 1100 
L 3047 0 
L 2419 0 
L 2419 1100 
L 313 1100 
L 313 1709 
L 2253 4666 
z
" transform="scale(0.015625)"/>
       </defs>
       <use xlink:href="#DejaVuSans-34"/>
      </g>
     </g>
    </g>
    <g id="xtick_6">
     <g id="line2d_11">
      <path d="M 345.27273 354.958125 
L 345.27273 22.318125 
" clip-path="url(#p2ad78eef35)" style="fill: none; stroke: #b0b0b0; stroke-width: 0.8; stroke-linecap: square"/>
     </g>
     <g id="line2d_12">
      <g>
       <use xlink:href="#mca4a9b1509" x="345.27273" y="354.958125" style="stroke: #000000; stroke-width: 0.8"/>
      </g>
     </g>
     <g id="text_6">
      <!-- 5 -->
      <g transform="translate(342.09148 369.556562) scale(0.1 -0.1)">
       <defs>
        <path id="DejaVuSans-35" d="M 691 4666 
L 3169 4666 
L 3169 4134 
L 1269 4134 
L 1269 2991 
Q 1406 3038 1543 3061 
Q 1681 3084 1819 3084 
Q 2600 3084 3056 2656 
Q 3513 2228 3513 1497 
Q 3513 744 3044 326 
Q 2575 -91 1722 -91 
Q 1428 -91 1123 -41 
Q 819 9 494 109 
L 494 744 
Q 775 591 1075 516 
Q 1375 441 1709 441 
Q 2250 441 2565 725 
Q 2881 1009 2881 1497 
Q 2881 1984 2565 2268 
Q 2250 2553 1709 2553 
Q 1456 2553 1204 2497 
Q 953 2441 691 2322 
L 691 4666 
z
" transform="scale(0.015625)"/>
       </defs>
       <use xlink:href="#DejaVuSans-35"/>
      </g>
     </g>
    </g>
    <g id="xtick_7">
     <g id="line2d_13">
      <path d="M 399.836907 354.958125 
L 399.836907 22.318125 
" clip-path="url(#p2ad78eef35)" style="fill: none; stroke: #b0b0b0; stroke-width: 0.8; stroke-linecap: square"/>
     </g>
     <g id="line2d_14">
      <g>
       <use xlink:href="#mca4a9b1509" x="399.836907" y="354.958125" style="stroke: #000000; stroke-width: 0.8"/>
      </g>
     </g>
     <g id="text_7">
      <!-- 6 -->
      <g transform="translate(396.655657 369.556562) scale(0.1 -0.1)">
       <defs>
        <path id="DejaVuSans-36" d="M 2113 2584 
Q 1688 2584 1439 2293 
Q 1191 2003 1191 1497 
Q 1191 994 1439 701 
Q 1688 409 2113 409 
Q 2538 409 2786 701 
Q 3034 994 3034 1497 
Q 3034 2003 2786 2293 
Q 2538 2584 2113 2584 
z
M 3366 4563 
L 3366 3988 
Q 3128 4100 2886 4159 
Q 2644 4219 2406 4219 
Q 1781 4219 1451 3797 
Q 1122 3375 1075 2522 
Q 1259 2794 1537 2939 
Q 1816 3084 2150 3084 
Q 2853 3084 3261 2657 
Q 3669 2231 3669 1497 
Q 3669 778 3244 343 
Q 2819 -91 2113 -91 
Q 1303 -91 875 529 
Q 447 1150 447 2328 
Q 447 3434 972 4092 
Q 1497 4750 2381 4750 
Q 2619 4750 2861 4703 
Q 3103 4656 3366 4563 
z
" transform="scale(0.015625)"/>
       </defs>
       <use xlink:href="#DejaVuSans-36"/>
      </g>
     </g>
    </g>
    <g id="xtick_8">
     <g id="line2d_15">
      <path d="M 454.401084 354.958125 
L 454.401084 22.318125 
" clip-path="url(#p2ad78eef35)" style="fill: none; stroke: #b0b0b0; stroke-width: 0.8; stroke-linecap: square"/>
     </g>
     <g id="line2d_16">
      <g>
       <use xlink:href="#mca4a9b1509" x="454.401084" y="354.958125" style="stroke: #000000; stroke-width: 0.8"/>
      </g>
     </g>
     <g id="text_8">
      <!-- 7 -->
      <g transform="translate(451.219834 369.556562) scale(0.1 -0.1)">
       <defs>
        <path id="DejaVuSans-37" d="M 525 4666 
L 3525 4666 
L 3525 4397 
L 1831 0 
L 1172 0 
L 2766 4134 
L 525 4134 
L 525 4666 
z
" transform="scale(0.015625)"/>
       </defs>
       <use xlink:href="#DejaVuSans-37"/>
      </g>
     </g>
    </g>
    <g id="text_9">
     <!-- Timestamp (sec) -->
     <g transform="translate(233.532812 383.234687) scale(0.1 -0.1)">
      <defs>
       <path id="DejaVuSans-54" d="M -19 4666 
L 3928 4666 
L 3928 4134 
L 2272 4134 
L 2272 0 
L 1638 0 
L 1638 4134 
L -19 4134 
L -19 4666 
z
" transform="scale(0.015625)"/>
       <path id="DejaVuSans-69" d="M 603 3500 
L 1178 3500 
L 1178 0 
L 603 0 
L 603 3500 
z
M 603 4863 
L 1178 4863 
L 1178 4134 
L 603 4134 
L 603 4863 
z
" transform="scale(0.015625)"/>
       <path id="DejaVuSans-6d" d="M 3328 2828 
Q 3544 3216 3844 3400 
Q 4144 3584 4550 3584 
Q 5097 3584 5394 3201 
Q 5691 2819 5691 2113 
L 5691 0 
L 5113 0 
L 5113 2094 
Q 5113 2597 4934 2840 
Q 4756 3084 4391 3084 
Q 3944 3084 3684 2787 
Q 3425 2491 3425 1978 
L 3425 0 
L 2847 0 
L 2847 2094 
Q 2847 2600 2669 2842 
Q 2491 3084 2119 3084 
Q 1678 3084 1418 2786 
Q 1159 2488 1159 1978 
L 1159 0 
L 581 0 
L 581 3500 
L 1159 3500 
L 1159 2956 
Q 1356 3278 1631 3431 
Q 1906 3584 2284 3584 
Q 2666 3584 2933 3390 
Q 3200 3197 3328 2828 
z
" transform="scale(0.015625)"/>
       <path id="DejaVuSans-65" d="M 3597 1894 
L 3597 1613 
L 953 1613 
Q 991 1019 1311 708 
Q 1631 397 2203 397 
Q 2534 397 2845 478 
Q 3156 559 3463 722 
L 3463 178 
Q 3153 47 2828 -22 
Q 2503 -91 2169 -91 
Q 1331 -91 842 396 
Q 353 884 353 1716 
Q 353 2575 817 3079 
Q 1281 3584 2069 3584 
Q 2775 3584 3186 3129 
Q 3597 2675 3597 1894 
z
M 3022 2063 
Q 3016 2534 2758 2815 
Q 2500 3097 2075 3097 
Q 1594 3097 1305 2825 
Q 1016 2553 972 2059 
L 3022 2063 
z
" transform="scale(0.015625)"/>
       <path id="DejaVuSans-73" d="M 2834 3397 
L 2834 2853 
Q 2591 2978 2328 3040 
Q 2066 3103 1784 3103 
Q 1356 3103 1142 2972 
Q 928 2841 928 2578 
Q 928 2378 1081 2264 
Q 1234 2150 1697 2047 
L 1894 2003 
Q 2506 1872 2764 1633 
Q 3022 1394 3022 966 
Q 3022 478 2636 193 
Q 2250 -91 1575 -91 
Q 1294 -91 989 -36 
Q 684 19 347 128 
L 347 722 
Q 666 556 975 473 
Q 1284 391 1588 391 
Q 1994 391 2212 530 
Q 2431 669 2431 922 
Q 2431 1156 2273 1281 
Q 2116 1406 1581 1522 
L 1381 1569 
Q 847 1681 609 1914 
Q 372 2147 372 2553 
Q 372 3047 722 3315 
Q 1072 3584 1716 3584 
Q 2034 3584 2315 3537 
Q 2597 3491 2834 3397 
z
" transform="scale(0.015625)"/>
       <path id="DejaVuSans-74" d="M 1172 4494 
L 1172 3500 
L 2356 3500 
L 2356 3053 
L 1172 3053 
L 1172 1153 
Q 1172 725 1289 603 
Q 1406 481 1766 481 
L 2356 481 
L 2356 0 
L 1766 0 
Q 1100 0 847 248 
Q 594 497 594 1153 
L 594 3053 
L 172 3053 
L 172 3500 
L 594 3500 
L 594 4494 
L 1172 4494 
z
" transform="scale(0.015625)"/>
       <path id="DejaVuSans-61" d="M 2194 1759 
Q 1497 1759 1228 1600 
Q 959 1441 959 1056 
Q 959 750 1161 570 
Q 1363 391 1709 391 
Q 2188 391 2477 730 
Q 2766 1069 2766 1631 
L 2766 1759 
L 2194 1759 
z
M 3341 1997 
L 3341 0 
L 2766 0 
L 2766 531 
Q 2569 213 2275 61 
Q 1981 -91 1556 -91 
Q 1019 -91 701 211 
Q 384 513 384 1019 
Q 384 1609 779 1909 
Q 1175 2209 1959 2209 
L 2766 2209 
L 2766 2266 
Q 2766 2663 2505 2880 
Q 2244 3097 1772 3097 
Q 1472 3097 1187 3025 
Q 903 2953 641 2809 
L 641 3341 
Q 956 3463 1253 3523 
Q 1550 3584 1831 3584 
Q 2591 3584 2966 3190 
Q 3341 2797 3341 1997 
z
" transform="scale(0.015625)"/>
       <path id="DejaVuSans-70" d="M 1159 525 
L 1159 -1331 
L 581 -1331 
L 581 3500 
L 1159 3500 
L 1159 2969 
Q 1341 3281 1617 3432 
Q 1894 3584 2278 3584 
Q 2916 3584 3314 3078 
Q 3713 2572 3713 1747 
Q 3713 922 3314 415 
Q 2916 -91 2278 -91 
Q 1894 -91 1617 61 
Q 1341 213 1159 525 
z
M 3116 1747 
Q 3116 2381 2855 2742 
Q 2594 3103 2138 3103 
Q 1681 3103 1420 2742 
Q 1159 2381 1159 1747 
Q 1159 1113 1420 752 
Q 1681 391 2138 391 
Q 2594 391 2855 752 
Q 3116 1113 3116 1747 
z
" transform="scale(0.015625)"/>
       <path id="DejaVuSans-20" transform="scale(0.015625)"/>
       <path id="DejaVuSans-28" d="M 1984 4856 
Q 1566 4138 1362 3434 
Q 1159 2731 1159 2009 
Q 1159 1288 1364 580 
Q 1569 -128 1984 -844 
L 1484 -844 
Q 1016 -109 783 600 
Q 550 1309 550 2009 
Q 550 2706 781 3412 
Q 1013 4119 1484 4856 
L 1984 4856 
z
" transform="scale(0.015625)"/>
       <path id="DejaVuSans-63" d="M 3122 3366 
L 3122 2828 
Q 2878 2963 2633 3030 
Q 2388 3097 2138 3097 
Q 1578 3097 1268 2742 
Q 959 2388 959 1747 
Q 959 1106 1268 751 
Q 1578 397 2138 397 
Q 2388 397 2633 464 
Q 2878 531 3122 666 
L 3122 134 
Q 2881 22 2623 -34 
Q 2366 -91 2075 -91 
Q 1284 -91 818 406 
Q 353 903 353 1747 
Q 353 2603 823 3093 
Q 1294 3584 2113 3584 
Q 2378 3584 2631 3529 
Q 2884 3475 3122 3366 
z
" transform="scale(0.015625)"/>
       <path id="DejaVuSans-29" d="M 513 4856 
L 1013 4856 
Q 1481 4119 1714 3412 
Q 1947 2706 1947 2009 
Q 1947 1309 1714 600 
Q 1481 -109 1013 -844 
L 513 -844 
Q 928 -128 1133 580 
Q 1338 1288 1338 2009 
Q 1338 2731 1133 3434 
Q 928 4138 513 4856 
z
" transform="scale(0.015625)"/>
      </defs>
      <use xlink:href="#DejaVuSans-54"/>
      <use xlink:href="#DejaVuSans-69" transform="translate(57.958984 0)"/>
      <use xlink:href="#DejaVuSans-6d" transform="translate(85.742188 0)"/>
      <use xlink:href="#DejaVuSans-65" transform="translate(183.154297 0)"/>
      <use xlink:href="#DejaVuSans-73" transform="translate(244.677734 0)"/>
      <use xlink:href="#DejaVuSans-74" transform="translate(296.777344 0)"/>
      <use xlink:href="#DejaVuSans-61" transform="translate(335.986328 0)"/>
      <use xlink:href="#DejaVuSans-6d" transform="translate(397.265625 0)"/>
      <use xlink:href="#DejaVuSans-70" transform="translate(494.677734 0)"/>
      <use xlink:href="#DejaVuSans-20" transform="translate(558.154297 0)"/>
      <use xlink:href="#DejaVuSans-28" transform="translate(589.941406 0)"/>
      <use xlink:href="#DejaVuSans-73" transform="translate(628.955078 0)"/>
      <use xlink:href="#DejaVuSans-65" transform="translate(681.054688 0)"/>
      <use xlink:href="#DejaVuSans-63" transform="translate(742.578125 0)"/>
      <use xlink:href="#DejaVuSans-29" transform="translate(797.558594 0)"/>
     </g>
    </g>
   </g>
   <g id="matplotlib.axis_2">
    <g id="ytick_1">
     <g id="line2d_17">
      <path d="M 52.160938 333.269048 
L 498.560938 333.269048 
" clip-path="url(#p2ad78eef35)" style="fill: none; stroke: #b0b0b0; stroke-width: 0.8; stroke-linecap: square"/>
     </g>
     <g id="line2d_18">
      <defs>
       <path id="m6ad1c23bf4" d="M 0 0 
L -3.5 0 
" style="stroke: #000000; stroke-width: 0.8"/>
      </defs>
      <g>
       <use xlink:href="#m6ad1c23bf4" x="52.160938" y="333.269048" style="stroke: #000000; stroke-width: 0.8"/>
      </g>
     </g>
     <g id="text_10">
      <!-- −1.5 -->
      <g transform="translate(20.878125 337.068267) scale(0.1 -0.1)">
       <defs>
        <path id="DejaVuSans-2212" d="M 678 2272 
L 4684 2272 
L 4684 1741 
L 678 1741 
L 678 2272 
z
" transform="scale(0.015625)"/>
        <path id="DejaVuSans-2e" d="M 684 794 
L 1344 794 
L 1344 0 
L 684 0 
L 684 794 
z
" transform="scale(0.015625)"/>
       </defs>
       <use xlink:href="#DejaVuSans-2212"/>
       <use xlink:href="#DejaVuSans-31" transform="translate(83.789062 0)"/>
       <use xlink:href="#DejaVuSans-2e" transform="translate(147.412109 0)"/>
       <use xlink:href="#DejaVuSans-35" transform="translate(179.199219 0)"/>
      </g>
     </g>
    </g>
    <g id="ytick_2">
     <g id="line2d_19">
      <path d="M 52.160938 287.135966 
L 498.560938 287.135966 
" clip-path="url(#p2ad78eef35)" style="fill: none; stroke: #b0b0b0; stroke-width: 0.8; stroke-linecap: square"/>
     </g>
     <g id="line2d_20">
      <g>
       <use xlink:href="#m6ad1c23bf4" x="52.160938" y="287.135966" style="stroke: #000000; stroke-width: 0.8"/>
      </g>
     </g>
     <g id="text_11">
      <!-- −1.0 -->
      <g transform="translate(20.878125 290.935185) scale(0.1 -0.1)">
       <use xlink:href="#DejaVuSans-2212"/>
       <use xlink:href="#DejaVuSans-31" transform="translate(83.789062 0)"/>
       <use xlink:href="#DejaVuSans-2e" transform="translate(147.412109 0)"/>
       <use xlink:href="#DejaVuSans-30" transform="translate(179.199219 0)"/>
      </g>
     </g>
    </g>
    <g id="ytick_3">
     <g id="line2d_21">
      <path d="M 52.160938 241.002884 
L 498.560938 241.002884 
" clip-path="url(#p2ad78eef35)" style="fill: none; stroke: #b0b0b0; stroke-width: 0.8; stroke-linecap: square"/>
     </g>
     <g id="line2d_22">
      <g>
       <use xlink:href="#m6ad1c23bf4" x="52.160938" y="241.002884" style="stroke: #000000; stroke-width: 0.8"/>
      </g>
     </g>
     <g id="text_12">
      <!-- −0.5 -->
      <g transform="translate(20.878125 244.802103) scale(0.1 -0.1)">
       <use xlink:href="#DejaVuSans-2212"/>
       <use xlink:href="#DejaVuSans-30" transform="translate(83.789062 0)"/>
       <use xlink:href="#DejaVuSans-2e" transform="translate(147.412109 0)"/>
       <use xlink:href="#DejaVuSans-35" transform="translate(179.199219 0)"/>
      </g>
     </g>
    </g>
    <g id="ytick_4">
     <g id="line2d_23">
      <path d="M 52.160938 194.869803 
L 498.560938 194.869803 
" clip-path="url(#p2ad78eef35)" style="fill: none; stroke: #b0b0b0; stroke-width: 0.8; stroke-linecap: square"/>
     </g>
     <g id="line2d_24">
      <g>
       <use xlink:href="#m6ad1c23bf4" x="52.160938" y="194.869803" style="stroke: #000000; stroke-width: 0.8"/>
      </g>
     </g>
     <g id="text_13">
      <!-- 0.0 -->
      <g transform="translate(29.257813 198.669021) scale(0.1 -0.1)">
       <use xlink:href="#DejaVuSans-30"/>
       <use xlink:href="#DejaVuSans-2e" transform="translate(63.623047 0)"/>
       <use xlink:href="#DejaVuSans-30" transform="translate(95.410156 0)"/>
      </g>
     </g>
    </g>
    <g id="ytick_5">
     <g id="line2d_25">
      <path d="M 52.160938 148.736721 
L 498.560938 148.736721 
" clip-path="url(#p2ad78eef35)" style="fill: none; stroke: #b0b0b0; stroke-width: 0.8; stroke-linecap: square"/>
     </g>
     <g id="line2d_26">
      <g>
       <use xlink:href="#m6ad1c23bf4" x="52.160938" y="148.736721" style="stroke: #000000; stroke-width: 0.8"/>
      </g>
     </g>
     <g id="text_14">
      <!-- 0.5 -->
      <g transform="translate(29.257813 152.53594) scale(0.1 -0.1)">
       <use xlink:href="#DejaVuSans-30"/>
       <use xlink:href="#DejaVuSans-2e" transform="translate(63.623047 0)"/>
       <use xlink:href="#DejaVuSans-35" transform="translate(95.410156 0)"/>
      </g>
     </g>
    </g>
    <g id="ytick_6">
     <g id="line2d_27">
      <path d="M 52.160938 102.603639 
L 498.560938 102.603639 
" clip-path="url(#p2ad78eef35)" style="fill: none; stroke: #b0b0b0; stroke-width: 0.8; stroke-linecap: square"/>
     </g>
     <g id="line2d_28">
      <g>
       <use xlink:href="#m6ad1c23bf4" x="52.160938" y="102.603639" style="stroke: #000000; stroke-width: 0.8"/>
      </g>
     </g>
     <g id="text_15">
      <!-- 1.0 -->
      <g transform="translate(29.257813 106.402858) scale(0.1 -0.1)">
       <use xlink:href="#DejaVuSans-31"/>
       <use xlink:href="#DejaVuSans-2e" transform="translate(63.623047 0)"/>
       <use xlink:href="#DejaVuSans-30" transform="translate(95.410156 0)"/>
      </g>
     </g>
    </g>
    <g id="ytick_7">
     <g id="line2d_29">
      <path d="M 52.160938 56.470558 
L 498.560938 56.470558 
" clip-path="url(#p2ad78eef35)" style="fill: none; stroke: #b0b0b0; stroke-width: 0.8; stroke-linecap: square"/>
     </g>
     <g id="line2d_30">
      <g>
       <use xlink:href="#m6ad1c23bf4" x="52.160938" y="56.470558" style="stroke: #000000; stroke-width: 0.8"/>
      </g>
     </g>
     <g id="text_16">
      <!-- 1.5 -->
      <g transform="translate(29.257813 60.269776) scale(0.1 -0.1)">
       <use xlink:href="#DejaVuSans-31"/>
       <use xlink:href="#DejaVuSans-2e" transform="translate(63.623047 0)"/>
       <use xlink:href="#DejaVuSans-35" transform="translate(95.410156 0)"/>
      </g>
     </g>
    </g>
    <g id="text_17">
     <!-- Linear Acceleration (m/s²) -->
     <g transform="translate(14.798438 253.492031) rotate(-90) scale(0.1 -0.1)">
      <defs>
       <path id="DejaVuSans-4c" d="M 628 4666 
L 1259 4666 
L 1259 531 
L 3531 531 
L 3531 0 
L 628 0 
L 628 4666 
z
" transform="scale(0.015625)"/>
       <path id="DejaVuSans-6e" d="M 3513 2113 
L 3513 0 
L 2938 0 
L 2938 2094 
Q 2938 2591 2744 2837 
Q 2550 3084 2163 3084 
Q 1697 3084 1428 2787 
Q 1159 2491 1159 1978 
L 1159 0 
L 581 0 
L 581 3500 
L 1159 3500 
L 1159 2956 
Q 1366 3272 1645 3428 
Q 1925 3584 2291 3584 
Q 2894 3584 3203 3211 
Q 3513 2838 3513 2113 
z
" transform="scale(0.015625)"/>
       <path id="DejaVuSans-72" d="M 2631 2963 
Q 2534 3019 2420 3045 
Q 2306 3072 2169 3072 
Q 1681 3072 1420 2755 
Q 1159 2438 1159 1844 
L 1159 0 
L 581 0 
L 581 3500 
L 1159 3500 
L 1159 2956 
Q 1341 3275 1631 3429 
Q 1922 3584 2338 3584 
Q 2397 3584 2469 3576 
Q 2541 3569 2628 3553 
L 2631 2963 
z
" transform="scale(0.015625)"/>
       <path id="DejaVuSans-41" d="M 2188 4044 
L 1331 1722 
L 3047 1722 
L 2188 4044 
z
M 1831 4666 
L 2547 4666 
L 4325 0 
L 3669 0 
L 3244 1197 
L 1141 1197 
L 716 0 
L 50 0 
L 1831 4666 
z
" transform="scale(0.015625)"/>
       <path id="DejaVuSans-6c" d="M 603 4863 
L 1178 4863 
L 1178 0 
L 603 0 
L 603 4863 
z
" transform="scale(0.015625)"/>
       <path id="DejaVuSans-6f" d="M 1959 3097 
Q 1497 3097 1228 2736 
Q 959 2375 959 1747 
Q 959 1119 1226 758 
Q 1494 397 1959 397 
Q 2419 397 2687 759 
Q 2956 1122 2956 1747 
Q 2956 2369 2687 2733 
Q 2419 3097 1959 3097 
z
M 1959 3584 
Q 2709 3584 3137 3096 
Q 3566 2609 3566 1747 
Q 3566 888 3137 398 
Q 2709 -91 1959 -91 
Q 1206 -91 779 398 
Q 353 888 353 1747 
Q 353 2609 779 3096 
Q 1206 3584 1959 3584 
z
" transform="scale(0.015625)"/>
       <path id="DejaVuSans-2f" d="M 1625 4666 
L 2156 4666 
L 531 -594 
L 0 -594 
L 1625 4666 
z
" transform="scale(0.015625)"/>
       <path id="DejaVuSans-b2" d="M 838 2444 
L 2163 2444 
L 2163 2088 
L 294 2088 
L 294 2431 
Q 400 2528 597 2703 
Q 1672 3656 1672 3950 
Q 1672 4156 1509 4282 
Q 1347 4409 1081 4409 
Q 919 4409 728 4354 
Q 538 4300 313 4191 
L 313 4575 
Q 553 4663 761 4706 
Q 969 4750 1147 4750 
Q 1600 4750 1872 4544 
Q 2144 4338 2144 4000 
Q 2144 3566 1109 2678 
Q 934 2528 838 2444 
z
" transform="scale(0.015625)"/>
      </defs>
      <use xlink:href="#DejaVuSans-4c"/>
      <use xlink:href="#DejaVuSans-69" transform="translate(55.712891 0)"/>
      <use xlink:href="#DejaVuSans-6e" transform="translate(83.496094 0)"/>
      <use xlink:href="#DejaVuSans-65" transform="translate(146.875 0)"/>
      <use xlink:href="#DejaVuSans-61" transform="translate(208.398438 0)"/>
      <use xlink:href="#DejaVuSans-72" transform="translate(269.677734 0)"/>
      <use xlink:href="#DejaVuSans-20" transform="translate(310.791016 0)"/>
      <use xlink:href="#DejaVuSans-41" transform="translate(342.578125 0)"/>
      <use xlink:href="#DejaVuSans-63" transform="translate(409.236328 0)"/>
      <use xlink:href="#DejaVuSans-63" transform="translate(464.216797 0)"/>
      <use xlink:href="#DejaVuSans-65" transform="translate(519.197266 0)"/>
      <use xlink:href="#DejaVuSans-6c" transform="translate(580.720703 0)"/>
      <use xlink:href="#DejaVuSans-65" transform="translate(608.503906 0)"/>
      <use xlink:href="#DejaVuSans-72" transform="translate(670.027344 0)"/>
      <use xlink:href="#DejaVuSans-61" transform="translate(711.140625 0)"/>
      <use xlink:href="#DejaVuSans-74" transform="translate(772.419922 0)"/>
      <use xlink:href="#DejaVuSans-69" transform="translate(811.628906 0)"/>
      <use xlink:href="#DejaVuSans-6f" transform="translate(839.412109 0)"/>
      <use xlink:href="#DejaVuSans-6e" transform="translate(900.59375 0)"/>
      <use xlink:href="#DejaVuSans-20" transform="translate(963.972656 0)"/>
      <use xlink:href="#DejaVuSans-28" transform="translate(995.759766 0)"/>
      <use xlink:href="#DejaVuSans-6d" transform="translate(1034.773438 0)"/>
      <use xlink:href="#DejaVuSans-2f" transform="translate(1132.185547 0)"/>
      <use xlink:href="#DejaVuSans-73" transform="translate(1165.876953 0)"/>
      <use xlink:href="#DejaVuSans-b2" transform="translate(1217.976562 0)"/>
      <use xlink:href="#DejaVuSans-29" transform="translate(1258.064453 0)"/>
     </g>
    </g>
   </g>
   <g id="line2d_31">
    <path d="M 72.451847 192.116812 
L 76.381291 194.627556 
L 78.126437 194.124886 
L 79.566359 195.768832 
L 81.205247 197.068527 
L 82.499268 194.898719 
L 86.127651 193.088561 
L 87.77038 195.410876 
L 89.489712 194.760313 
L 91.215582 194.262202 
L 92.634593 192.639308 
L 94.328446 196.136248 
L 95.617914 195.654322 
L 97.069681 194.336924 
L 98.710817 193.33292 
L 100.34951 191.695639 
L 101.991554 198.166963 
L 103.642721 196.332673 
L 105.28436 192.868692 
L 106.930134 193.038378 
L 108.668994 195.879559 
L 110.299445 199.021628 
L 111.841015 194.521927 
L 113.473757 193.863033 
L 115.112086 196.196445 
L 116.753949 194.869148 
L 118.394639 197.826143 
L 120.037689 192.175211 
L 121.757273 194.010051 
L 123.457021 195.660487 
L 124.960597 197.455587 
L 126.597236 195.252809 
L 128.237339 192.772808 
L 129.88194 194.748181 
L 131.521498 196.402198 
L 133.164716 192.745443 
L 134.876394 193.232835 
L 136.552675 194.271183 
L 138.087722 196.404975 
L 139.672021 194.902695 
L 141.365092 192.758306 
L 143.008534 195.060179 
L 144.647813 196.073779 
L 146.294621 196.871348 
L 147.994844 193.050824 
L 149.704817 193.407884 
L 151.211606 196.071678 
L 152.890513 196.584143 
L 154.524261 194.251341 
L 156.173723 189.476666 
L 157.802078 199.470953 
L 159.440952 195.327646 
L 161.119175 193.487241 
L 162.804187 193.166313 
L 164.435029 192.698548 
L 165.992495 196.670303 
L 167.630991 195.835244 
L 169.269195 192.692845 
L 170.910164 195.847018 
L 174.190468 195.02502 
L 175.911728 192.528411 
L 177.631912 191.72059 
L 179.108179 197.029398 
L 180.742737 195.879746 
L 182.389419 192.705549 
L 184.027162 190.89433 
L 185.668745 195.732338 
L 187.307871 195.389026 
L 188.98499 193.894715 
L 190.741702 191.831707 
L 192.233167 193.735505 
L 193.869484 153.776758 
L 195.510146 176.953135 
L 197.152051 37.438125 
L 198.792546 108.264074 
L 200.438236 173.967636 
L 202.079582 157.593449 
L 203.845946 207.534302 
L 205.416039 97.37018 
L 207.001386 178.547883 
L 208.638877 206.252816 
L 210.291384 150.004909 
L 211.920229 126.815785 
L 213.570292 218.956081 
L 215.19943 139.132199 
L 216.939365 188.880647 
L 218.64572 108.112288 
L 220.126891 193.915652 
L 221.764843 219.755389 
L 223.402194 224.677687 
L 225.043848 266.348134 
L 226.68328 170.710518 
L 228.328119 224.92611 
L 230.029348 202.859294 
L 231.794468 295.392628 
L 233.250007 228.840478 
L 234.833971 166.367696 
L 236.52788 205.95206 
L 238.171978 155.779299 
L 239.811578 196.081814 
L 241.453944 202.692055 
L 243.122599 218.198367 
L 244.873556 180.325605 
L 246.375399 151.853756 
L 248.014399 140.838433 
L 249.653678 286.247771 
L 251.296966 217.372706 
L 252.884883 169.356609 
L 254.580482 197.08028 
L 256.241105 109.19621 
L 257.95383 209.502983 
L 259.63982 187.471056 
L 261.691028 215.737416 
L 263.348843 183.083908 
L 264.974894 169.335266 
L 266.707887 199.443164 
L 268.43729 222.081927 
L 269.892228 190.976162 
L 271.534175 199.323291 
L 272.805413 204.107767 
L 274.814967 270.094784 
L 276.401921 205.918837 
L 278.097842 159.289317 
L 279.780283 229.264587 
L 281.53652 137.608395 
L 282.962864 257.184897 
L 284.659902 147.689865 
L 286.300494 192.517137 
L 287.940989 307.714889 
L 289.582503 178.755357 
L 291.222717 238.712121 
L 292.883983 215.924976 
L 294.656744 239.19882 
L 296.14603 278.97956 
L 297.784275 203.963686 
L 299.372346 226.686151 
L 301.066745 188.278651 
L 302.711122 193.089678 
L 304.352985 204.887892 
L 305.995449 255.488722 
L 307.755457 174.608927 
L 309.4259 166.148272 
L 310.915283 149.550805 
L 312.551084 283.213432 
L 314.192486 199.019279 
L 315.836431 300.528252 
L 317.476171 185.430299 
L 319.117838 190.195196 
L 320.836346 301.333333 
L 322.58043 181.180116 
L 324.051013 223.90431 
L 325.678656 202.024048 
L 326.986981 160.098176 
L 328.960189 233.955352 
L 330.602178 201.354765 
L 332.251361 217.628037 
L 333.918046 212.868078 
L 337.711578 230.294818 
L 339.354726 86.199623 
L 340.994284 185.867135 
L 342.654656 185.420356 
L 344.405053 135.869279 
L 346.043536 222.43187 
L 348.104201 192.065562 
L 349.74436 339.838125 
L 351.411576 266.615987 
L 353.156526 239.637883 
L 354.896 240.302079 
L 356.856819 198.761342 
L 358.497536 172.4513 
L 360.137262 203.331211 
L 361.858117 140.985572 
L 363.609912 185.789883 
L 365.059513 180.300598 
L 366.697479 194.323351 
L 368.337498 217.089383 
L 369.982197 209.248197 
L 371.623348 252.158829 
L 373.265071 190.659287 
L 374.970728 265.636022 
L 376.580827 212.241064 
L 378.134103 254.82203 
L 379.828082 199.035398 
L 381.470029 208.45842 
L 383.110858 260.713795 
L 384.747483 183.660232 
L 386.389626 226.899839 
L 388.067458 256.222145 
L 389.789667 165.217076 
L 391.310885 218.626095 
L 392.98746 140.072876 
L 394.623736 253.25187 
L 396.264244 172.669525 
L 397.900059 211.212192 
L 401.180265 153.58955 
L 402.908369 197.666674 
L 404.586899 277.843706 
L 406.095839 185.29268 
L 407.741236 221.596679 
L 409.388784 284.972972 
L 411.021275 209.565419 
L 412.651139 314.222944 
L 414.289594 252.867862 
L 415.981729 224.869911 
L 417.746207 191.358295 
L 419.209624 152.095602 
L 420.844922 198.163003 
L 422.48265 232.830414 
L 424.127153 145.356205 
L 425.768751 164.193279 
L 427.40993 66.187588 
L 429.080023 219.301263 
L 430.859671 239.558932 
L 432.335519 242.438345 
L 433.971306 182.105818 
L 435.610669 155.3955 
L 437.252825 202.055516 
L 438.894535 200.5154 
L 440.543606 247.374942 
L 442.176222 213.585773 
L 443.920124 238.271749 
L 445.56284 229.750495 
L 447.096755 223.267062 
L 448.685817 285.064841 
L 450.38016 224.018947 
L 452.022232 206.181521 
L 453.659709 219.679199 
L 455.30783 166.446394 
L 457.017063 196.063528 
L 458.784796 169.880953 
L 460.225793 221.432624 
L 461.809729 216.487151 
L 463.504463 199.485158 
L 465.145572 112.69458 
L 466.785898 237.112698 
L 468.427999 123.287921 
L 470.110524 218.496775 
L 471.85715 206.516066 
L 473.352764 180.991631 
L 474.988705 189.148593 
L 476.631182 80.788728 
L 478.270028 254.477195 
L 478.270028 254.477195 
" clip-path="url(#p2ad78eef35)" style="fill: none; stroke: #1f77b4; stroke-width: 1.5; stroke-linecap: square"/>
   </g>
   <g id="line2d_32">
    <path d="M 72.451847 194.32648 
L 76.381291 193.002313 
L 78.126437 194.007917 
L 79.566359 194.363124 
L 82.499268 194.401411 
L 84.516574 193.954819 
L 86.127651 192.499791 
L 87.77038 194.810793 
L 89.489712 193.856054 
L 91.215582 194.843746 
L 92.634593 195.380607 
L 94.328446 196.175195 
L 95.617914 193.694765 
L 97.069681 194.20498 
L 98.710817 193.195972 
L 100.34951 196.703823 
L 101.991554 193.871909 
L 103.642721 193.364553 
L 106.930134 194.237911 
L 108.668994 196.261504 
L 110.299445 193.417876 
L 111.841015 193.921085 
L 113.473757 193.965675 
L 115.112086 198.073675 
L 116.753949 194.598161 
L 118.394639 193.937991 
L 120.037689 195.937469 
L 121.757273 197.601417 
L 124.960597 193.586931 
L 126.597236 193.238565 
L 128.237339 197.925705 
L 129.88194 195.050159 
L 131.521498 193.409814 
L 133.164716 192.438356 
L 134.876394 196.064001 
L 136.552675 195.452826 
L 138.087722 193.392518 
L 139.672021 190.754846 
L 141.365092 196.290635 
L 143.008534 196.696091 
L 144.647813 193.73941 
L 146.294621 192.193717 
L 147.994844 195.021737 
L 149.704817 198.844379 
L 151.211606 195.633539 
L 152.890513 194.311978 
L 154.524261 192.810655 
L 156.173723 197.27665 
L 157.802078 193.655944 
L 159.440952 193.471876 
L 161.119175 194.644379 
L 162.804187 196.336649 
L 164.435029 196.216639 
L 165.992495 195.364295 
L 167.630991 195.076782 
L 169.269195 193.114029 
L 170.910164 197.072696 
L 172.551622 191.82964 
L 174.190468 193.982064 
L 175.911728 194.540851 
L 177.631912 196.25045 
L 179.108179 195.218834 
L 180.742737 192.59639 
L 182.389419 193.601455 
L 184.027162 197.928406 
L 185.668745 195.127729 
L 187.307871 194.068604 
L 188.98499 192.438477 
L 190.741702 195.391903 
L 192.233167 197.648053 
L 193.869484 186.555148 
L 195.510146 151.519629 
L 197.152051 196.592733 
L 198.792546 181.053413 
L 200.438236 199.886626 
L 202.079582 189.380881 
L 203.845946 173.330113 
L 205.416039 169.708483 
L 207.001386 181.276335 
L 208.638877 205.783561 
L 210.291384 115.801853 
L 211.920229 170.202695 
L 213.570292 169.162697 
L 215.19943 163.874589 
L 216.939365 157.172315 
L 218.64572 168.703858 
L 220.126891 141.189037 
L 221.764843 194.794795 
L 223.402194 145.52857 
L 225.043848 168.459208 
L 226.68328 197.395147 
L 228.328119 121.332324 
L 230.029348 184.735972 
L 231.794468 161.20573 
L 233.250007 210.304644 
L 234.833971 174.759376 
L 236.52788 117.462386 
L 238.171978 159.718513 
L 239.811578 170.14527 
L 241.453944 163.96972 
L 243.122599 211.554057 
L 244.873556 158.05077 
L 246.375399 134.165559 
L 248.014399 172.251641 
L 249.653678 154.575812 
L 251.296966 158.538806 
L 252.884883 152.047173 
L 254.580482 185.236667 
L 256.241105 190.311829 
L 257.95383 124.844651 
L 259.63982 177.605671 
L 261.691028 166.779036 
L 263.348843 121.656387 
L 264.974894 207.898506 
L 266.707887 168.252443 
L 268.43729 140.094314 
L 269.892228 205.368322 
L 271.534175 153.731046 
L 272.805413 237.343979 
L 274.814967 131.045323 
L 276.401921 141.762716 
L 278.097842 205.232418 
L 279.780283 168.246455 
L 281.53652 203.10758 
L 282.962864 146.098428 
L 284.659902 148.93897 
L 286.300494 188.881879 
L 287.940989 192.380205 
L 289.582503 147.95064 
L 291.222717 186.941636 
L 292.883983 152.591738 
L 294.656744 146.837691 
L 296.14603 198.980101 
L 297.784275 207.406032 
L 299.372346 174.441253 
L 301.066745 180.165272 
L 302.711122 160.091527 
L 304.352985 155.637643 
L 305.995449 153.42484 
L 307.755457 147.364207 
L 309.4259 178.436507 
L 310.915283 163.45803 
L 312.551084 133.261415 
L 314.192486 210.902598 
L 315.836431 184.843575 
L 317.476171 164.618627 
L 319.117838 129.222478 
L 320.836346 190.030514 
L 322.58043 201.427694 
L 324.051013 146.149953 
L 325.678656 189.685586 
L 326.986981 159.886946 
L 328.960189 211.258795 
L 330.602178 170.926192 
L 332.251361 144.791793 
L 333.918046 175.713219 
L 337.711578 121.325851 
L 339.354726 166.02097 
L 340.994284 171.660864 
L 342.654656 181.981161 
L 344.405053 154.372078 
L 346.043536 147.07698 
L 348.104201 180.537362 
L 349.74436 163.373586 
L 351.411576 169.039943 
L 353.156526 162.048351 
L 354.896 166.998796 
L 356.856819 143.834886 
L 358.497536 198.625378 
L 360.137262 186.358135 
L 361.858117 127.96354 
L 365.059513 188.737644 
L 366.697479 170.77324 
L 368.337498 165.972074 
L 369.982197 132.892223 
L 371.623348 184.447221 
L 373.265071 193.744788 
L 374.970728 129.888103 
L 376.580827 229.648408 
L 378.134103 157.074539 
L 379.828082 141.710328 
L 381.470029 154.076546 
L 383.110858 151.721257 
L 384.747483 203.487419 
L 386.389626 139.313886 
L 388.067458 182.501687 
L 389.789667 177.281234 
L 391.310885 134.804853 
L 392.98746 127.216549 
L 394.623736 213.900734 
L 396.264244 157.60348 
L 397.900059 186.828336 
L 399.539016 132.256592 
L 401.180265 155.501498 
L 402.908369 160.716435 
L 404.586899 164.732384 
L 406.095839 192.420808 
L 407.741236 180.416159 
L 409.388784 153.963097 
L 411.021275 204.429256 
L 412.651139 181.858324 
L 414.289594 162.564028 
L 415.981729 180.224408 
L 417.746207 112.881013 
L 420.844922 181.359547 
L 422.48265 175.706774 
L 424.127153 151.841619 
L 425.768751 125.583673 
L 427.40993 190.041161 
L 429.080023 135.969244 
L 430.859671 172.63836 
L 432.335519 197.983302 
L 433.971306 167.674144 
L 435.610669 172.481355 
L 437.252825 117.499338 
L 438.894535 170.296808 
L 440.543606 168.149625 
L 442.176222 161.849374 
L 443.920124 192.943534 
L 445.56284 154.158445 
L 447.096755 146.851468 
L 448.685817 173.53784 
L 450.38016 175.276598 
L 452.022232 167.680133 
L 453.659709 162.178541 
L 455.30783 127.294389 
L 457.017063 173.599786 
L 458.784796 151.789346 
L 460.225793 157.624747 
L 461.809729 200.414132 
L 463.504463 139.437361 
L 465.145572 162.327175 
L 466.785898 165.42681 
L 468.427999 150.68799 
L 470.110524 151.484916 
L 471.85715 182.858176 
L 473.352764 171.349026 
L 474.988705 131.251197 
L 476.631182 166.81822 
L 478.270028 182.058648 
L 478.270028 182.058648 
" clip-path="url(#p2ad78eef35)" style="fill: none; stroke: #ff7f0e; stroke-width: 1.5; stroke-linecap: square"/>
   </g>
   <g id="patch_3">
    <path d="M 52.160938 354.958125 
L 52.160938 22.318125 
" style="fill: none; stroke: #000000; stroke-width: 0.8; stroke-linejoin: miter; stroke-linecap: square"/>
   </g>
   <g id="patch_4">
    <path d="M 498.560938 354.958125 
L 498.560938 22.318125 
" style="fill: none; stroke: #000000; stroke-width: 0.8; stroke-linejoin: miter; stroke-linecap: square"/>
   </g>
   <g id="patch_5">
    <path d="M 52.160938 354.958125 
L 498.560937 354.958125 
" style="fill: none; stroke: #000000; stroke-width: 0.8; stroke-linejoin: miter; stroke-linecap: square"/>
   </g>
   <g id="patch_6">
    <path d="M 52.160938 22.318125 
L 498.560937 22.318125 
" style="fill: none; stroke: #000000; stroke-width: 0.8; stroke-linejoin: miter; stroke-linecap: square"/>
   </g>
   <g id="legend_1">
    <g id="patch_7">
     <path d="M 59.160938 59.674375 
L 163.329688 59.674375 
Q 165.329688 59.674375 165.329688 57.674375 
L 165.329688 29.318125 
Q 165.329688 27.318125 163.329688 27.318125 
L 59.160938 27.318125 
Q 57.160938 27.318125 57.160938 29.318125 
L 57.160938 57.674375 
Q 57.160938 59.674375 59.160938 59.674375 
z
" style="fill: #ffffff; opacity: 0.8; stroke: #cccccc; stroke-linejoin: miter"/>
    </g>
    <g id="line2d_33">
     <path d="M 61.160938 35.416562 
L 71.160938 35.416562 
L 81.160938 35.416562 
" style="fill: none; stroke: #1f77b4; stroke-width: 1.5; stroke-linecap: square"/>
    </g>
    <g id="text_18">
     <!-- X Acceleration -->
     <g transform="translate(89.160938 38.916562) scale(0.1 -0.1)">
      <defs>
       <path id="DejaVuSans-58" d="M 403 4666 
L 1081 4666 
L 2241 2931 
L 3406 4666 
L 4084 4666 
L 2584 2425 
L 4184 0 
L 3506 0 
L 2194 1984 
L 872 0 
L 191 0 
L 1856 2491 
L 403 4666 
z
" transform="scale(0.015625)"/>
      </defs>
      <use xlink:href="#DejaVuSans-58"/>
      <use xlink:href="#DejaVuSans-20" transform="translate(68.505859 0)"/>
      <use xlink:href="#DejaVuSans-41" transform="translate(100.292969 0)"/>
      <use xlink:href="#DejaVuSans-63" transform="translate(166.951172 0)"/>
      <use xlink:href="#DejaVuSans-63" transform="translate(221.931641 0)"/>
      <use xlink:href="#DejaVuSans-65" transform="translate(276.912109 0)"/>
      <use xlink:href="#DejaVuSans-6c" transform="translate(338.435547 0)"/>
      <use xlink:href="#DejaVuSans-65" transform="translate(366.21875 0)"/>
      <use xlink:href="#DejaVuSans-72" transform="translate(427.742188 0)"/>
      <use xlink:href="#DejaVuSans-61" transform="translate(468.855469 0)"/>
      <use xlink:href="#DejaVuSans-74" transform="translate(530.134766 0)"/>
      <use xlink:href="#DejaVuSans-69" transform="translate(569.34375 0)"/>
      <use xlink:href="#DejaVuSans-6f" transform="translate(597.126953 0)"/>
      <use xlink:href="#DejaVuSans-6e" transform="translate(658.308594 0)"/>
     </g>
    </g>
    <g id="line2d_34">
     <path d="M 61.160938 50.094687 
L 71.160938 50.094687 
L 81.160938 50.094687 
" style="fill: none; stroke: #ff7f0e; stroke-width: 1.5; stroke-linecap: square"/>
    </g>
    <g id="text_19">
     <!-- Y Acceleration -->
     <g transform="translate(89.160938 53.594687) scale(0.1 -0.1)">
      <defs>
       <path id="DejaVuSans-59" d="M -13 4666 
L 666 4666 
L 1959 2747 
L 3244 4666 
L 3922 4666 
L 2272 2222 
L 2272 0 
L 1638 0 
L 1638 2222 
L -13 4666 
z
" transform="scale(0.015625)"/>
      </defs>
      <use xlink:href="#DejaVuSans-59"/>
      <use xlink:href="#DejaVuSans-20" transform="translate(61.083984 0)"/>
      <use xlink:href="#DejaVuSans-41" transform="translate(92.871094 0)"/>
      <use xlink:href="#DejaVuSans-63" transform="translate(159.529297 0)"/>
      <use xlink:href="#DejaVuSans-63" transform="translate(214.509766 0)"/>
      <use xlink:href="#DejaVuSans-65" transform="translate(269.490234 0)"/>
      <use xlink:href="#DejaVuSans-6c" transform="translate(331.013672 0)"/>
      <use xlink:href="#DejaVuSans-65" transform="translate(358.796875 0)"/>
      <use xlink:href="#DejaVuSans-72" transform="translate(420.320312 0)"/>
      <use xlink:href="#DejaVuSans-61" transform="translate(461.433594 0)"/>
      <use xlink:href="#DejaVuSans-74" transform="translate(522.712891 0)"/>
      <use xlink:href="#DejaVuSans-69" transform="translate(561.921875 0)"/>
      <use xlink:href="#DejaVuSans-6f" transform="translate(589.705078 0)"/>
      <use xlink:href="#DejaVuSans-6e" transform="translate(650.886719 0)"/>
     </g>
    </g>
   </g>
  </g>
  <g id="axes_2">
   <g id="matplotlib.axis_3">
    <g id="ytick_8">
     <g id="line2d_35">
      <defs>
       <path id="mefb8e170bc" d="M 0 0 
L 3.5 0 
" style="stroke: #000000; stroke-width: 0.8"/>
      </defs>
      <g>
       <use xlink:href="#mefb8e170bc" x="498.560938" y="339.791588" style="stroke: #000000; stroke-width: 0.8"/>
      </g>
     </g>
     <g id="text_20">
      <!-- 0.0 -->
      <g transform="translate(505.560938 343.590807) scale(0.1 -0.1)">
       <use xlink:href="#DejaVuSans-30"/>
       <use xlink:href="#DejaVuSans-2e" transform="translate(63.623047 0)"/>
       <use xlink:href="#DejaVuSans-30" transform="translate(95.410156 0)"/>
      </g>
     </g>
    </g>
    <g id="ytick_9">
     <g id="line2d_36">
      <g>
       <use xlink:href="#mefb8e170bc" x="498.560938" y="297.946322" style="stroke: #000000; stroke-width: 0.8"/>
      </g>
     </g>
     <g id="text_21">
      <!-- 0.2 -->
      <g transform="translate(505.560938 301.745541) scale(0.1 -0.1)">
       <use xlink:href="#DejaVuSans-30"/>
       <use xlink:href="#DejaVuSans-2e" transform="translate(63.623047 0)"/>
       <use xlink:href="#DejaVuSans-32" transform="translate(95.410156 0)"/>
      </g>
     </g>
    </g>
    <g id="ytick_10">
     <g id="line2d_37">
      <g>
       <use xlink:href="#mefb8e170bc" x="498.560938" y="256.101056" style="stroke: #000000; stroke-width: 0.8"/>
      </g>
     </g>
     <g id="text_22">
      <!-- 0.4 -->
      <g transform="translate(505.560938 259.900274) scale(0.1 -0.1)">
       <use xlink:href="#DejaVuSans-30"/>
       <use xlink:href="#DejaVuSans-2e" transform="translate(63.623047 0)"/>
       <use xlink:href="#DejaVuSans-34" transform="translate(95.410156 0)"/>
      </g>
     </g>
    </g>
    <g id="ytick_11">
     <g id="line2d_38">
      <g>
       <use xlink:href="#mefb8e170bc" x="498.560938" y="214.255789" style="stroke: #000000; stroke-width: 0.8"/>
      </g>
     </g>
     <g id="text_23">
      <!-- 0.6 -->
      <g transform="translate(505.560938 218.055008) scale(0.1 -0.1)">
       <use xlink:href="#DejaVuSans-30"/>
       <use xlink:href="#DejaVuSans-2e" transform="translate(63.623047 0)"/>
       <use xlink:href="#DejaVuSans-36" transform="translate(95.410156 0)"/>
      </g>
     </g>
    </g>
    <g id="ytick_12">
     <g id="line2d_39">
      <g>
       <use xlink:href="#mefb8e170bc" x="498.560938" y="172.410523" style="stroke: #000000; stroke-width: 0.8"/>
      </g>
     </g>
     <g id="text_24">
      <!-- 0.8 -->
      <g transform="translate(505.560938 176.209742) scale(0.1 -0.1)">
       <defs>
        <path id="DejaVuSans-38" d="M 2034 2216 
Q 1584 2216 1326 1975 
Q 1069 1734 1069 1313 
Q 1069 891 1326 650 
Q 1584 409 2034 409 
Q 2484 409 2743 651 
Q 3003 894 3003 1313 
Q 3003 1734 2745 1975 
Q 2488 2216 2034 2216 
z
M 1403 2484 
Q 997 2584 770 2862 
Q 544 3141 544 3541 
Q 544 4100 942 4425 
Q 1341 4750 2034 4750 
Q 2731 4750 3128 4425 
Q 3525 4100 3525 3541 
Q 3525 3141 3298 2862 
Q 3072 2584 2669 2484 
Q 3125 2378 3379 2068 
Q 3634 1759 3634 1313 
Q 3634 634 3220 271 
Q 2806 -91 2034 -91 
Q 1263 -91 848 271 
Q 434 634 434 1313 
Q 434 1759 690 2068 
Q 947 2378 1403 2484 
z
M 1172 3481 
Q 1172 3119 1398 2916 
Q 1625 2713 2034 2713 
Q 2441 2713 2670 2916 
Q 2900 3119 2900 3481 
Q 2900 3844 2670 4047 
Q 2441 4250 2034 4250 
Q 1625 4250 1398 4047 
Q 1172 3844 1172 3481 
z
" transform="scale(0.015625)"/>
       </defs>
       <use xlink:href="#DejaVuSans-30"/>
       <use xlink:href="#DejaVuSans-2e" transform="translate(63.623047 0)"/>
       <use xlink:href="#DejaVuSans-38" transform="translate(95.410156 0)"/>
      </g>
     </g>
    </g>
    <g id="ytick_13">
     <g id="line2d_40">
      <g>
       <use xlink:href="#mefb8e170bc" x="498.560938" y="130.565257" style="stroke: #000000; stroke-width: 0.8"/>
      </g>
     </g>
     <g id="text_25">
      <!-- 1.0 -->
      <g transform="translate(505.560938 134.364475) scale(0.1 -0.1)">
       <use xlink:href="#DejaVuSans-31"/>
       <use xlink:href="#DejaVuSans-2e" transform="translate(63.623047 0)"/>
       <use xlink:href="#DejaVuSans-30" transform="translate(95.410156 0)"/>
      </g>
     </g>
    </g>
    <g id="ytick_14">
     <g id="line2d_41">
      <g>
       <use xlink:href="#mefb8e170bc" x="498.560938" y="88.71999" style="stroke: #000000; stroke-width: 0.8"/>
      </g>
     </g>
     <g id="text_26">
      <!-- 1.2 -->
      <g transform="translate(505.560938 92.519209) scale(0.1 -0.1)">
       <use xlink:href="#DejaVuSans-31"/>
       <use xlink:href="#DejaVuSans-2e" transform="translate(63.623047 0)"/>
       <use xlink:href="#DejaVuSans-32" transform="translate(95.410156 0)"/>
      </g>
     </g>
    </g>
    <g id="ytick_15">
     <g id="line2d_42">
      <g>
       <use xlink:href="#mefb8e170bc" x="498.560938" y="46.874724" style="stroke: #000000; stroke-width: 0.8"/>
      </g>
     </g>
     <g id="text_27">
      <!-- 1.4 -->
      <g transform="translate(505.560938 50.673943) scale(0.1 -0.1)">
       <use xlink:href="#DejaVuSans-31"/>
       <use xlink:href="#DejaVuSans-2e" transform="translate(63.623047 0)"/>
       <use xlink:href="#DejaVuSans-34" transform="translate(95.410156 0)"/>
      </g>
     </g>
    </g>
    <g id="text_28">
     <!-- Angular Velocity (Rad/s) -->
     <g transform="translate(533.0625 248.663125) rotate(-90) scale(0.1 -0.1)">
      <defs>
       <path id="DejaVuSans-67" d="M 2906 1791 
Q 2906 2416 2648 2759 
Q 2391 3103 1925 3103 
Q 1463 3103 1205 2759 
Q 947 2416 947 1791 
Q 947 1169 1205 825 
Q 1463 481 1925 481 
Q 2391 481 2648 825 
Q 2906 1169 2906 1791 
z
M 3481 434 
Q 3481 -459 3084 -895 
Q 2688 -1331 1869 -1331 
Q 1566 -1331 1297 -1286 
Q 1028 -1241 775 -1147 
L 775 -588 
Q 1028 -725 1275 -790 
Q 1522 -856 1778 -856 
Q 2344 -856 2625 -561 
Q 2906 -266 2906 331 
L 2906 616 
Q 2728 306 2450 153 
Q 2172 0 1784 0 
Q 1141 0 747 490 
Q 353 981 353 1791 
Q 353 2603 747 3093 
Q 1141 3584 1784 3584 
Q 2172 3584 2450 3431 
Q 2728 3278 2906 2969 
L 2906 3500 
L 3481 3500 
L 3481 434 
z
" transform="scale(0.015625)"/>
       <path id="DejaVuSans-75" d="M 544 1381 
L 544 3500 
L 1119 3500 
L 1119 1403 
Q 1119 906 1312 657 
Q 1506 409 1894 409 
Q 2359 409 2629 706 
Q 2900 1003 2900 1516 
L 2900 3500 
L 3475 3500 
L 3475 0 
L 2900 0 
L 2900 538 
Q 2691 219 2414 64 
Q 2138 -91 1772 -91 
Q 1169 -91 856 284 
Q 544 659 544 1381 
z
M 1991 3584 
L 1991 3584 
z
" transform="scale(0.015625)"/>
       <path id="DejaVuSans-56" d="M 1831 0 
L 50 4666 
L 709 4666 
L 2188 738 
L 3669 4666 
L 4325 4666 
L 2547 0 
L 1831 0 
z
" transform="scale(0.015625)"/>
       <path id="DejaVuSans-79" d="M 2059 -325 
Q 1816 -950 1584 -1140 
Q 1353 -1331 966 -1331 
L 506 -1331 
L 506 -850 
L 844 -850 
Q 1081 -850 1212 -737 
Q 1344 -625 1503 -206 
L 1606 56 
L 191 3500 
L 800 3500 
L 1894 763 
L 2988 3500 
L 3597 3500 
L 2059 -325 
z
" transform="scale(0.015625)"/>
       <path id="DejaVuSans-52" d="M 2841 2188 
Q 3044 2119 3236 1894 
Q 3428 1669 3622 1275 
L 4263 0 
L 3584 0 
L 2988 1197 
Q 2756 1666 2539 1819 
Q 2322 1972 1947 1972 
L 1259 1972 
L 1259 0 
L 628 0 
L 628 4666 
L 2053 4666 
Q 2853 4666 3247 4331 
Q 3641 3997 3641 3322 
Q 3641 2881 3436 2590 
Q 3231 2300 2841 2188 
z
M 1259 4147 
L 1259 2491 
L 2053 2491 
Q 2509 2491 2742 2702 
Q 2975 2913 2975 3322 
Q 2975 3731 2742 3939 
Q 2509 4147 2053 4147 
L 1259 4147 
z
" transform="scale(0.015625)"/>
       <path id="DejaVuSans-64" d="M 2906 2969 
L 2906 4863 
L 3481 4863 
L 3481 0 
L 2906 0 
L 2906 525 
Q 2725 213 2448 61 
Q 2172 -91 1784 -91 
Q 1150 -91 751 415 
Q 353 922 353 1747 
Q 353 2572 751 3078 
Q 1150 3584 1784 3584 
Q 2172 3584 2448 3432 
Q 2725 3281 2906 2969 
z
M 947 1747 
Q 947 1113 1208 752 
Q 1469 391 1925 391 
Q 2381 391 2643 752 
Q 2906 1113 2906 1747 
Q 2906 2381 2643 2742 
Q 2381 3103 1925 3103 
Q 1469 3103 1208 2742 
Q 947 2381 947 1747 
z
" transform="scale(0.015625)"/>
      </defs>
      <use xlink:href="#DejaVuSans-41"/>
      <use xlink:href="#DejaVuSans-6e" transform="translate(68.408203 0)"/>
      <use xlink:href="#DejaVuSans-67" transform="translate(131.787109 0)"/>
      <use xlink:href="#DejaVuSans-75" transform="translate(195.263672 0)"/>
      <use xlink:href="#DejaVuSans-6c" transform="translate(258.642578 0)"/>
      <use xlink:href="#DejaVuSans-61" transform="translate(286.425781 0)"/>
      <use xlink:href="#DejaVuSans-72" transform="translate(347.705078 0)"/>
      <use xlink:href="#DejaVuSans-20" transform="translate(388.818359 0)"/>
      <use xlink:href="#DejaVuSans-56" transform="translate(420.605469 0)"/>
      <use xlink:href="#DejaVuSans-65" transform="translate(481.263672 0)"/>
      <use xlink:href="#DejaVuSans-6c" transform="translate(542.787109 0)"/>
      <use xlink:href="#DejaVuSans-6f" transform="translate(570.570312 0)"/>
      <use xlink:href="#DejaVuSans-63" transform="translate(631.751953 0)"/>
      <use xlink:href="#DejaVuSans-69" transform="translate(686.732422 0)"/>
      <use xlink:href="#DejaVuSans-74" transform="translate(714.515625 0)"/>
      <use xlink:href="#DejaVuSans-79" transform="translate(753.724609 0)"/>
      <use xlink:href="#DejaVuSans-20" transform="translate(812.904297 0)"/>
      <use xlink:href="#DejaVuSans-28" transform="translate(844.691406 0)"/>
      <use xlink:href="#DejaVuSans-52" transform="translate(883.705078 0)"/>
      <use xlink:href="#DejaVuSans-61" transform="translate(950.9375 0)"/>
      <use xlink:href="#DejaVuSans-64" transform="translate(1012.216797 0)"/>
      <use xlink:href="#DejaVuSans-2f" transform="translate(1075.693359 0)"/>
      <use xlink:href="#DejaVuSans-73" transform="translate(1109.384766 0)"/>
      <use xlink:href="#DejaVuSans-29" transform="translate(1161.484375 0)"/>
     </g>
    </g>
   </g>
   <g id="line2d_43">
    <path d="M 72.451847 339.792005 
L 192.233167 339.838125 
L 193.869484 335.72495 
L 195.510146 293.933521 
L 197.152051 274.768635 
L 198.792546 275.33782 
L 200.438236 260.278956 
L 202.079582 244.080598 
L 203.845946 233.037693 
L 205.416039 195.731582 
L 207.001386 186.892975 
L 208.638877 183.955396 
L 211.920229 141.431246 
L 213.570292 134.62585 
L 215.19943 116.766918 
L 216.939365 119.446798 
L 218.64572 101.870194 
L 220.126891 56.294664 
L 221.764843 82.062971 
L 223.402194 74.925736 
L 225.043848 82.672106 
L 226.68328 74.185708 
L 228.328119 75.194608 
L 230.029348 79.429819 
L 231.794468 88.588735 
L 233.250007 37.926945 
L 234.833971 68.50453 
L 236.52788 91.064563 
L 238.171978 78.9493 
L 239.811578 77.316903 
L 241.453944 80.109884 
L 243.122599 79.661074 
L 244.873556 87.379846 
L 246.375399 50.32875 
L 248.014399 81.460912 
L 249.653678 93.112563 
L 251.296966 88.899483 
L 252.884883 55.101986 
L 254.580482 68.200219 
L 256.241105 65.6991 
L 257.95383 82.307803 
L 259.63982 81.448986 
L 261.691028 63.077368 
L 263.348843 89.523214 
L 264.974894 84.446941 
L 266.707887 94.007169 
L 268.43729 96.46557 
L 269.892228 49.44886 
L 271.534175 81.426062 
L 272.805413 116.244647 
L 274.814967 67.037769 
L 276.401921 75.824318 
L 278.097842 90.130662 
L 281.53652 91.646441 
L 282.962864 37.438125 
L 284.659902 73.721981 
L 286.300494 63.497085 
L 287.940989 75.788527 
L 291.222717 74.982927 
L 292.883983 72.096037 
L 294.656744 88.224732 
L 296.14603 42.868226 
L 297.784275 85.384486 
L 299.372346 87.254606 
L 301.066745 99.430192 
L 302.711122 86.304402 
L 305.995449 75.255257 
L 307.755457 93.20368 
L 309.4259 84.366393 
L 310.915283 41.421021 
L 312.551084 82.164697 
L 314.192486 84.168494 
L 317.476171 64.252997 
L 319.117838 64.590837 
L 320.836346 85.592568 
L 322.58043 92.948787 
L 324.051013 51.064189 
L 325.678656 80.824809 
L 326.986981 121.807764 
L 328.960189 40.918235 
L 330.602178 75.663826 
L 332.251361 90.237938 
L 333.918046 88.502687 
L 337.711578 52.256638 
L 339.354726 70.527794 
L 340.994284 75.431278 
L 342.654656 86.838132 
L 344.405053 96.784083 
L 346.043536 78.148038 
L 348.104201 62.300399 
L 349.74436 84.350988 
L 353.156526 95.786956 
L 354.896 94.008878 
L 356.856819 48.272362 
L 358.497536 72.549382 
L 360.137262 77.682595 
L 361.858117 95.863373 
L 363.609912 100.187972 
L 365.059513 42.548391 
L 366.697479 73.321074 
L 368.337498 72.308399 
L 369.982197 70.826767 
L 371.623348 73.128357 
L 373.265071 74.933851 
L 374.970728 95.228332 
L 376.580827 78.657948 
L 378.134103 64.958696 
L 379.828082 87.565484 
L 381.470029 75.725148 
L 383.110858 79.454201 
L 384.747483 77.733316 
L 386.389626 78.541085 
L 388.067458 83.692594 
L 389.789667 84.939206 
L 391.310885 46.114964 
L 392.98746 76.430973 
L 394.623736 75.479129 
L 396.264244 77.655121 
L 397.900059 79.258712 
L 399.539016 81.647551 
L 401.180265 81.894669 
L 402.908369 88.998989 
L 404.586899 84.178705 
L 406.095839 54.477849 
L 407.741236 78.736737 
L 409.388784 79.554458 
L 411.021275 79.341241 
L 412.651139 75.352478 
L 414.289594 73.070895 
L 415.981729 77.042149 
L 417.746207 90.240214 
L 419.209624 47.944826 
L 420.844922 75.273904 
L 422.48265 79.266993 
L 424.127153 84.819643 
L 425.768751 84.789372 
L 427.40993 74.821828 
L 429.080023 84.286322 
L 430.859671 100.280307 
L 432.335519 49.806192 
L 433.971306 81.822458 
L 435.610669 80.990481 
L 437.252825 86.404854 
L 438.894535 80.499038 
L 440.543606 75.07192 
L 442.176222 71.975959 
L 443.920124 85.104598 
L 445.56284 72.525005 
L 447.096755 54.184463 
L 448.685817 69.146719 
L 450.38016 86.580141 
L 452.022232 79.350865 
L 453.659709 78.62201 
L 455.30783 82.379841 
L 457.017063 88.970788 
L 458.784796 96.56219 
L 460.225793 43.679823 
L 461.809729 69.799898 
L 463.504463 87.816739 
L 465.145572 71.647662 
L 466.785898 80.102679 
L 468.427999 81.045626 
L 470.110524 80.216069 
L 471.85715 88.28914 
L 473.352764 45.166033 
L 474.988705 71.65132 
L 476.631182 75.46853 
L 478.270028 83.935732 
L 478.270028 83.935732 
" clip-path="url(#p2ad78eef35)" style="fill: none; stroke: #008000; stroke-width: 1.5; stroke-linecap: square"/>
   </g>
   <g id="patch_8">
    <path d="M 52.160938 354.958125 
L 52.160938 22.318125 
" style="fill: none; stroke: #000000; stroke-width: 0.8; stroke-linejoin: miter; stroke-linecap: square"/>
   </g>
   <g id="patch_9">
    <path d="M 498.560938 354.958125 
L 498.560938 22.318125 
" style="fill: none; stroke: #000000; stroke-width: 0.8; stroke-linejoin: miter; stroke-linecap: square"/>
   </g>
   <g id="patch_10">
    <path d="M 52.160938 354.958125 
L 498.560937 354.958125 
" style="fill: none; stroke: #000000; stroke-width: 0.8; stroke-linejoin: miter; stroke-linecap: square"/>
   </g>
   <g id="patch_11">
    <path d="M 52.160938 22.318125 
L 498.560937 22.318125 
" style="fill: none; stroke: #000000; stroke-width: 0.8; stroke-linejoin: miter; stroke-linecap: square"/>
   </g>
   <g id="text_29">
    <!-- Imu Data Log (Circle Motion) -->
    <g transform="translate(189.403437 16.318125) scale(0.12 -0.12)">
     <defs>
      <path id="DejaVuSans-49" d="M 628 4666 
L 1259 4666 
L 1259 0 
L 628 0 
L 628 4666 
z
" transform="scale(0.015625)"/>
      <path id="DejaVuSans-44" d="M 1259 4147 
L 1259 519 
L 2022 519 
Q 2988 519 3436 956 
Q 3884 1394 3884 2338 
Q 3884 3275 3436 3711 
Q 2988 4147 2022 4147 
L 1259 4147 
z
M 628 4666 
L 1925 4666 
Q 3281 4666 3915 4102 
Q 4550 3538 4550 2338 
Q 4550 1131 3912 565 
Q 3275 0 1925 0 
L 628 0 
L 628 4666 
z
" transform="scale(0.015625)"/>
      <path id="DejaVuSans-43" d="M 4122 4306 
L 4122 3641 
Q 3803 3938 3442 4084 
Q 3081 4231 2675 4231 
Q 1875 4231 1450 3742 
Q 1025 3253 1025 2328 
Q 1025 1406 1450 917 
Q 1875 428 2675 428 
Q 3081 428 3442 575 
Q 3803 722 4122 1019 
L 4122 359 
Q 3791 134 3420 21 
Q 3050 -91 2638 -91 
Q 1578 -91 968 557 
Q 359 1206 359 2328 
Q 359 3453 968 4101 
Q 1578 4750 2638 4750 
Q 3056 4750 3426 4639 
Q 3797 4528 4122 4306 
z
" transform="scale(0.015625)"/>
      <path id="DejaVuSans-4d" d="M 628 4666 
L 1569 4666 
L 2759 1491 
L 3956 4666 
L 4897 4666 
L 4897 0 
L 4281 0 
L 4281 4097 
L 3078 897 
L 2444 897 
L 1241 4097 
L 1241 0 
L 628 0 
L 628 4666 
z
" transform="scale(0.015625)"/>
     </defs>
     <use xlink:href="#DejaVuSans-49"/>
     <use xlink:href="#DejaVuSans-6d" transform="translate(29.492188 0)"/>
     <use xlink:href="#DejaVuSans-75" transform="translate(126.904297 0)"/>
     <use xlink:href="#DejaVuSans-20" transform="translate(190.283203 0)"/>
     <use xlink:href="#DejaVuSans-44" transform="translate(222.070312 0)"/>
     <use xlink:href="#DejaVuSans-61" transform="translate(299.072266 0)"/>
     <use xlink:href="#DejaVuSans-74" transform="translate(360.351562 0)"/>
     <use xlink:href="#DejaVuSans-61" transform="translate(399.560547 0)"/>
     <use xlink:href="#DejaVuSans-20" transform="translate(460.839844 0)"/>
     <use xlink:href="#DejaVuSans-4c" transform="translate(492.626953 0)"/>
     <use xlink:href="#DejaVuSans-6f" transform="translate(546.589844 0)"/>
     <use xlink:href="#DejaVuSans-67" transform="translate(607.771484 0)"/>
     <use xlink:href="#DejaVuSans-20" transform="translate(671.248047 0)"/>
     <use xlink:href="#DejaVuSans-28" transform="translate(703.035156 0)"/>
     <use xlink:href="#DejaVuSans-43" transform="translate(742.048828 0)"/>
     <use xlink:href="#DejaVuSans-69" transform="translate(811.873047 0)"/>
     <use xlink:href="#DejaVuSans-72" transform="translate(839.65625 0)"/>
     <use xlink:href="#DejaVuSans-63" transform="translate(878.519531 0)"/>
     <use xlink:href="#DejaVuSans-6c" transform="translate(933.5 0)"/>
     <use xlink:href="#DejaVuSans-65" transform="translate(961.283203 0)"/>
     <use xlink:href="#DejaVuSans-20" transform="translate(1022.806641 0)"/>
     <use xlink:href="#DejaVuSans-4d" transform="translate(1054.59375 0)"/>
     <use xlink:href="#DejaVuSans-6f" transform="translate(1140.873047 0)"/>
     <use xlink:href="#DejaVuSans-74" transform="translate(1202.054688 0)"/>
     <use xlink:href="#DejaVuSans-69" transform="translate(1241.263672 0)"/>
     <use xlink:href="#DejaVuSans-6f" transform="translate(1269.046875 0)"/>
     <use xlink:href="#DejaVuSans-6e" transform="translate(1330.228516 0)"/>
     <use xlink:href="#DejaVuSans-29" transform="translate(1393.607422 0)"/>
    </g>
   </g>
   <g id="legend_2">
    <g id="patch_12">
     <path d="M 378.270313 44.99625 
L 491.560938 44.99625 
Q 493.560938 44.99625 493.560938 42.99625 
L 493.560938 29.318125 
Q 493.560938 27.318125 491.560938 27.318125 
L 378.270313 27.318125 
Q 376.270313 27.318125 376.270313 29.318125 
L 376.270313 42.99625 
Q 376.270313 44.99625 378.270313 44.99625 
z
" style="fill: #ffffff; opacity: 0.8; stroke: #cccccc; stroke-linejoin: miter"/>
    </g>
    <g id="line2d_44">
     <path d="M 380.270313 35.416563 
L 390.270313 35.416563 
L 400.270313 35.416563 
" style="fill: none; stroke: #008000; stroke-width: 1.5; stroke-linecap: square"/>
    </g>
    <g id="text_30">
     <!-- Angular Velocity -->
     <g transform="translate(408.270313 38.916563) scale(0.1 -0.1)">
      <use xlink:href="#DejaVuSans-41"/>
      <use xlink:href="#DejaVuSans-6e" transform="translate(68.408203 0)"/>
      <use xlink:href="#DejaVuSans-67" transform="translate(131.787109 0)"/>
      <use xlink:href="#DejaVuSans-75" transform="translate(195.263672 0)"/>
      <use xlink:href="#DejaVuSans-6c" transform="translate(258.642578 0)"/>
      <use xlink:href="#DejaVuSans-61" transform="translate(286.425781 0)"/>
      <use xlink:href="#DejaVuSans-72" transform="translate(347.705078 0)"/>
      <use xlink:href="#DejaVuSans-20" transform="translate(388.818359 0)"/>
      <use xlink:href="#DejaVuSans-56" transform="translate(420.605469 0)"/>
      <use xlink:href="#DejaVuSans-65" transform="translate(481.263672 0)"/>
      <use xlink:href="#DejaVuSans-6c" transform="translate(542.787109 0)"/>
      <use xlink:href="#DejaVuSans-6f" transform="translate(570.570312 0)"/>
      <use xlink:href="#DejaVuSans-63" transform="translate(631.751953 0)"/>
      <use xlink:href="#DejaVuSans-69" transform="translate(686.732422 0)"/>
      <use xlink:href="#DejaVuSans-74" transform="translate(714.515625 0)"/>
      <use xlink:href="#DejaVuSans-79" transform="translate(753.724609 0)"/>
     </g>
    </g>
   </g>
  </g>
 </g>
 <defs>
  <clipPath id="p2ad78eef35">
   <rect x="52.160938" y="22.318125" width="446.4" height="332.64"/>
  </clipPath>
 </defs>
</svg>
