<?xml version="1.0" encoding="utf-8" standalone="no"?>
<!DOCTYPE svg PUBLIC "-//W3C//DTD SVG 1.1//EN"
  "http://www.w3.org/Graphics/SVG/1.1/DTD/svg11.dtd">
<svg xmlns:xlink="http://www.w3.org/1999/xlink" width="542.342188pt" height="392.514375pt" viewBox="0 0 542.342188 392.514375" xmlns="http://www.w3.org/2000/svg" version="1.1">
 <metadata>
  <rdf:RDF xmlns:dc="http://purl.org/dc/elements/1.1/" xmlns:cc="http://creativecommons.org/ns#" xmlns:rdf="http://www.w3.org/1999/02/22-rdf-syntax-ns#">
   <cc:Work>
    <dc:type rdf:resource="http://purl.org/dc/dcmitype/StillImage"/>
    <dc:date>2025-10-09T09:39:39.538343</dc:date>
    <dc:format>image/svg+xml</dc:format>
    <dc:creator>
     <cc:Agent>
      <dc:title>Matplotlib v3.10.6, https://matplotlib.org/</dc:title>
     </cc:Agent>
    </dc:creator>
   </cc:Work>
  </rdf:RDF>
 </metadata>
 <defs>
  <style type="text/css">*{stroke-linejoin: round; stroke-linecap: butt}</style>
 </defs>
 <g id="figure_1">
  <g id="patch_1">
   <path d="M 0 392.514375 
L 542.342188 392.514375 
L 542.342188 0 
L 0 0 
z
" style="fill: #ffffff"/>
  </g>
  <g id="axes_1">
   <g id="patch_2">
    <path d="M 52.160938 354.958125 
L 498.560938 354.958125 
L 498.560938 22.318125 
L 52.160938 22.318125 
z
" style="fill: #ffffff"/>
   </g>
   <g id="matplotlib.axis_1">
    <g id="xtick_1">
     <g id="line2d_1">
      <path d="M 72.451847 354.958125 
L 72.451847 22.318125 
" clip-path="url(#p8c1b3896c3)" style="fill: none; stroke: #b0b0b0; stroke-width: 0.8; stroke-linecap: square"/>
     </g>
     <g id="line2d_2">
      <defs>
       <path id="mbe79401895" d="M 0 0 
L 0 3.5 
" style="stroke: #000000; stroke-width: 0.8"/>
      </defs>
      <g>
       <use xlink:href="#mbe79401895" x="72.451847" y="354.958125" style="stroke: #000000; stroke-width: 0.8"/>
      </g>
     </g>
     <g id="text_1">
      <!-- 0 -->
      <g transform="translate(69.270597 369.556562) scale(0.1 -0.1)">
       <defs>
        <path id="DejaVuSans-30" d="M 2034 4250 
Q 1547 4250 1301 3770 
Q 1056 3291 1056 2328 
Q 1056 1369 1301 889 
Q 1547 409 2034 409 
Q 2525 409 2770 889 
Q 3016 1369 3016 2328 
Q 3016 3291 2770 3770 
Q 2525 4250 2034 4250 
z
M 2034 4750 
Q 2819 4750 3233 4129 
Q 3647 3509 3647 2328 
Q 3647 1150 3233 529 
Q 2819 -91 2034 -91 
Q 1250 -91 836 529 
Q 422 1150 422 2328 
Q 422 3509 836 4129 
Q 1250 4750 2034 4750 
z
" transform="scale(0.015625)"/>
       </defs>
       <use xlink:href="#DejaVuSans-30"/>
      </g>
     </g>
    </g>
    <g id="xtick_2">
     <g id="line2d_3">
      <path d="M 133.717597 354.958125 
L 133.717597 22.318125 
" clip-path="url(#p8c1b3896c3)" style="fill: none; stroke: #b0b0b0; stroke-width: 0.8; stroke-linecap: square"/>
     </g>
     <g id="line2d_4">
      <g>
       <use xlink:href="#mbe79401895" x="133.717597" y="354.958125" style="stroke: #000000; stroke-width: 0.8"/>
      </g>
     </g>
     <g id="text_2">
      <!-- 2 -->
      <g transform="translate(130.536347 369.556562) scale(0.1 -0.1)">
       <defs>
        <path id="DejaVuSans-32" d="M 1228 531 
L 3431 531 
L 3431 0 
L 469 0 
L 469 531 
Q 828 903 1448 1529 
Q 2069 2156 2228 2338 
Q 2531 2678 2651 2914 
Q 2772 3150 2772 3378 
Q 2772 3750 2511 3984 
Q 2250 4219 1831 4219 
Q 1534 4219 1204 4116 
Q 875 4013 500 3803 
L 500 4441 
Q 881 4594 1212 4672 
Q 1544 4750 1819 4750 
Q 2544 4750 2975 4387 
Q 3406 4025 3406 3419 
Q 3406 3131 3298 2873 
Q 3191 2616 2906 2266 
Q 2828 2175 2409 1742 
Q 1991 1309 1228 531 
z
" transform="scale(0.015625)"/>
       </defs>
       <use xlink:href="#DejaVuSans-32"/>
      </g>
     </g>
    </g>
    <g id="xtick_3">
     <g id="line2d_5">
      <path d="M 194.983347 354.958125 
L 194.983347 22.318125 
" clip-path="url(#p8c1b3896c3)" style="fill: none; stroke: #b0b0b0; stroke-width: 0.8; stroke-linecap: square"/>
     </g>
     <g id="line2d_6">
      <g>
       <use xlink:href="#mbe79401895" x="194.983347" y="354.958125" style="stroke: #000000; stroke-width: 0.8"/>
      </g>
     </g>
     <g id="text_3">
      <!-- 4 -->
      <g transform="translate(191.802097 369.556562) scale(0.1 -0.1)">
       <defs>
        <path id="DejaVuSans-34" d="M 2419 4116 
L 825 1625 
L 2419 1625 
L 2419 4116 
z
M 2253 4666 
L 3047 4666 
L 3047 1625 
L 3713 1625 
L 3713 1100 
L 3047 1100 
L 3047 0 
L 2419 0 
L 2419 1100 
L 313 1100 
L 313 1709 
L 2253 4666 
z
" transform="scale(0.015625)"/>
       </defs>
       <use xlink:href="#DejaVuSans-34"/>
      </g>
     </g>
    </g>
    <g id="xtick_4">
     <g id="line2d_7">
      <path d="M 256.249097 354.958125 
L 256.249097 22.318125 
" clip-path="url(#p8c1b3896c3)" style="fill: none; stroke: #b0b0b0; stroke-width: 0.8; stroke-linecap: square"/>
     </g>
     <g id="line2d_8">
      <g>
       <use xlink:href="#mbe79401895" x="256.249097" y="354.958125" style="stroke: #000000; stroke-width: 0.8"/>
      </g>
     </g>
     <g id="text_4">
      <!-- 6 -->
      <g transform="translate(253.067847 369.556562) scale(0.1 -0.1)">
       <defs>
        <path id="DejaVuSans-36" d="M 2113 2584 
Q 1688 2584 1439 2293 
Q 1191 2003 1191 1497 
Q 1191 994 1439 701 
Q 1688 409 2113 409 
Q 2538 409 2786 701 
Q 3034 994 3034 1497 
Q 3034 2003 2786 2293 
Q 2538 2584 2113 2584 
z
M 3366 4563 
L 3366 3988 
Q 3128 4100 2886 4159 
Q 2644 4219 2406 4219 
Q 1781 4219 1451 3797 
Q 1122 3375 1075 2522 
Q 1259 2794 1537 2939 
Q 1816 3084 2150 3084 
Q 2853 3084 3261 2657 
Q 3669 2231 3669 1497 
Q 3669 778 3244 343 
Q 2819 -91 2113 -91 
Q 1303 -91 875 529 
Q 447 1150 447 2328 
Q 447 3434 972 4092 
Q 1497 4750 2381 4750 
Q 2619 4750 2861 4703 
Q 3103 4656 3366 4563 
z
" transform="scale(0.015625)"/>
       </defs>
       <use xlink:href="#DejaVuSans-36"/>
      </g>
     </g>
    </g>
    <g id="xtick_5">
     <g id="line2d_9">
      <path d="M 317.514848 354.958125 
L 317.514848 22.318125 
" clip-path="url(#p8c1b3896c3)" style="fill: none; stroke: #b0b0b0; stroke-width: 0.8; stroke-linecap: square"/>
     </g>
     <g id="line2d_10">
      <g>
       <use xlink:href="#mbe79401895" x="317.514848" y="354.958125" style="stroke: #000000; stroke-width: 0.8"/>
      </g>
     </g>
     <g id="text_5">
      <!-- 8 -->
      <g transform="translate(314.333598 369.556562) scale(0.1 -0.1)">
       <defs>
        <path id="DejaVuSans-38" d="M 2034 2216 
Q 1584 2216 1326 1975 
Q 1069 1734 1069 1313 
Q 1069 891 1326 650 
Q 1584 409 2034 409 
Q 2484 409 2743 651 
Q 3003 894 3003 1313 
Q 3003 1734 2745 1975 
Q 2488 2216 2034 2216 
z
M 1403 2484 
Q 997 2584 770 2862 
Q 544 3141 544 3541 
Q 544 4100 942 4425 
Q 1341 4750 2034 4750 
Q 2731 4750 3128 4425 
Q 3525 4100 3525 3541 
Q 3525 3141 3298 2862 
Q 3072 2584 2669 2484 
Q 3125 2378 3379 2068 
Q 3634 1759 3634 1313 
Q 3634 634 3220 271 
Q 2806 -91 2034 -91 
Q 1263 -91 848 271 
Q 434 634 434 1313 
Q 434 1759 690 2068 
Q 947 2378 1403 2484 
z
M 1172 3481 
Q 1172 3119 1398 2916 
Q 1625 2713 2034 2713 
Q 2441 2713 2670 2916 
Q 2900 3119 2900 3481 
Q 2900 3844 2670 4047 
Q 2441 4250 2034 4250 
Q 1625 4250 1398 4047 
Q 1172 3844 1172 3481 
z
" transform="scale(0.015625)"/>
       </defs>
       <use xlink:href="#DejaVuSans-38"/>
      </g>
     </g>
    </g>
    <g id="xtick_6">
     <g id="line2d_11">
      <path d="M 378.780598 354.958125 
L 378.780598 22.318125 
" clip-path="url(#p8c1b3896c3)" style="fill: none; stroke: #b0b0b0; stroke-width: 0.8; stroke-linecap: square"/>
     </g>
     <g id="line2d_12">
      <g>
       <use xlink:href="#mbe79401895" x="378.780598" y="354.958125" style="stroke: #000000; stroke-width: 0.8"/>
      </g>
     </g>
     <g id="text_6">
      <!-- 10 -->
      <g transform="translate(372.418098 369.556562) scale(0.1 -0.1)">
       <defs>
        <path id="DejaVuSans-31" d="M 794 531 
L 1825 531 
L 1825 4091 
L 703 3866 
L 703 4441 
L 1819 4666 
L 2450 4666 
L 2450 531 
L 3481 531 
L 3481 0 
L 794 0 
L 794 531 
z
" transform="scale(0.015625)"/>
       </defs>
       <use xlink:href="#DejaVuSans-31"/>
       <use xlink:href="#DejaVuSans-30" transform="translate(63.623047 0)"/>
      </g>
     </g>
    </g>
    <g id="xtick_7">
     <g id="line2d_13">
      <path d="M 440.046348 354.958125 
L 440.046348 22.318125 
" clip-path="url(#p8c1b3896c3)" style="fill: none; stroke: #b0b0b0; stroke-width: 0.8; stroke-linecap: square"/>
     </g>
     <g id="line2d_14">
      <g>
       <use xlink:href="#mbe79401895" x="440.046348" y="354.958125" style="stroke: #000000; stroke-width: 0.8"/>
      </g>
     </g>
     <g id="text_7">
      <!-- 12 -->
      <g transform="translate(433.683848 369.556562) scale(0.1 -0.1)">
       <use xlink:href="#DejaVuSans-31"/>
       <use xlink:href="#DejaVuSans-32" transform="translate(63.623047 0)"/>
      </g>
     </g>
    </g>
    <g id="text_8">
     <!-- Timestamp (sec) -->
     <g transform="translate(233.532812 383.234687) scale(0.1 -0.1)">
      <defs>
       <path id="DejaVuSans-54" d="M -19 4666 
L 3928 4666 
L 3928 4134 
L 2272 4134 
L 2272 0 
L 1638 0 
L 1638 4134 
L -19 4134 
L -19 4666 
z
" transform="scale(0.015625)"/>
       <path id="DejaVuSans-69" d="M 603 3500 
L 1178 3500 
L 1178 0 
L 603 0 
L 603 3500 
z
M 603 4863 
L 1178 4863 
L 1178 4134 
L 603 4134 
L 603 4863 
z
" transform="scale(0.015625)"/>
       <path id="DejaVuSans-6d" d="M 3328 2828 
Q 3544 3216 3844 3400 
Q 4144 3584 4550 3584 
Q 5097 3584 5394 3201 
Q 5691 2819 5691 2113 
L 5691 0 
L 5113 0 
L 5113 2094 
Q 5113 2597 4934 2840 
Q 4756 3084 4391 3084 
Q 3944 3084 3684 2787 
Q 3425 2491 3425 1978 
L 3425 0 
L 2847 0 
L 2847 2094 
Q 2847 2600 2669 2842 
Q 2491 3084 2119 3084 
Q 1678 3084 1418 2786 
Q 1159 2488 1159 1978 
L 1159 0 
L 581 0 
L 581 3500 
L 1159 3500 
L 1159 2956 
Q 1356 3278 1631 3431 
Q 1906 3584 2284 3584 
Q 2666 3584 2933 3390 
Q 3200 3197 3328 2828 
z
" transform="scale(0.015625)"/>
       <path id="DejaVuSans-65" d="M 3597 1894 
L 3597 1613 
L 953 1613 
Q 991 1019 1311 708 
Q 1631 397 2203 397 
Q 2534 397 2845 478 
Q 3156 559 3463 722 
L 3463 178 
Q 3153 47 2828 -22 
Q 2503 -91 2169 -91 
Q 1331 -91 842 396 
Q 353 884 353 1716 
Q 353 2575 817 3079 
Q 1281 3584 2069 3584 
Q 2775 3584 3186 3129 
Q 3597 2675 3597 1894 
z
M 3022 2063 
Q 3016 2534 2758 2815 
Q 2500 3097 2075 3097 
Q 1594 3097 1305 2825 
Q 1016 2553 972 2059 
L 3022 2063 
z
" transform="scale(0.015625)"/>
       <path id="DejaVuSans-73" d="M 2834 3397 
L 2834 2853 
Q 2591 2978 2328 3040 
Q 2066 3103 1784 3103 
Q 1356 3103 1142 2972 
Q 928 2841 928 2578 
Q 928 2378 1081 2264 
Q 1234 2150 1697 2047 
L 1894 2003 
Q 2506 1872 2764 1633 
Q 3022 1394 3022 966 
Q 3022 478 2636 193 
Q 2250 -91 1575 -91 
Q 1294 -91 989 -36 
Q 684 19 347 128 
L 347 722 
Q 666 556 975 473 
Q 1284 391 1588 391 
Q 1994 391 2212 530 
Q 2431 669 2431 922 
Q 2431 1156 2273 1281 
Q 2116 1406 1581 1522 
L 1381 1569 
Q 847 1681 609 1914 
Q 372 2147 372 2553 
Q 372 3047 722 3315 
Q 1072 3584 1716 3584 
Q 2034 3584 2315 3537 
Q 2597 3491 2834 3397 
z
" transform="scale(0.015625)"/>
       <path id="DejaVuSans-74" d="M 1172 4494 
L 1172 3500 
L 2356 3500 
L 2356 3053 
L 1172 3053 
L 1172 1153 
Q 1172 725 1289 603 
Q 1406 481 1766 481 
L 2356 481 
L 2356 0 
L 1766 0 
Q 1100 0 847 248 
Q 594 497 594 1153 
L 594 3053 
L 172 3053 
L 172 3500 
L 594 3500 
L 594 4494 
L 1172 4494 
z
" transform="scale(0.015625)"/>
       <path id="DejaVuSans-61" d="M 2194 1759 
Q 1497 1759 1228 1600 
Q 959 1441 959 1056 
Q 959 750 1161 570 
Q 1363 391 1709 391 
Q 2188 391 2477 730 
Q 2766 1069 2766 1631 
L 2766 1759 
L 2194 1759 
z
M 3341 1997 
L 3341 0 
L 2766 0 
L 2766 531 
Q 2569 213 2275 61 
Q 1981 -91 1556 -91 
Q 1019 -91 701 211 
Q 384 513 384 1019 
Q 384 1609 779 1909 
Q 1175 2209 1959 2209 
L 2766 2209 
L 2766 2266 
Q 2766 2663 2505 2880 
Q 2244 3097 1772 3097 
Q 1472 3097 1187 3025 
Q 903 2953 641 2809 
L 641 3341 
Q 956 3463 1253 3523 
Q 1550 3584 1831 3584 
Q 2591 3584 2966 3190 
Q 3341 2797 3341 1997 
z
" transform="scale(0.015625)"/>
       <path id="DejaVuSans-70" d="M 1159 525 
L 1159 -1331 
L 581 -1331 
L 581 3500 
L 1159 3500 
L 1159 2969 
Q 1341 3281 1617 3432 
Q 1894 3584 2278 3584 
Q 2916 3584 3314 3078 
Q 3713 2572 3713 1747 
Q 3713 922 3314 415 
Q 2916 -91 2278 -91 
Q 1894 -91 1617 61 
Q 1341 213 1159 525 
z
M 3116 1747 
Q 3116 2381 2855 2742 
Q 2594 3103 2138 3103 
Q 1681 3103 1420 2742 
Q 1159 2381 1159 1747 
Q 1159 1113 1420 752 
Q 1681 391 2138 391 
Q 2594 391 2855 752 
Q 3116 1113 3116 1747 
z
" transform="scale(0.015625)"/>
       <path id="DejaVuSans-20" transform="scale(0.015625)"/>
       <path id="DejaVuSans-28" d="M 1984 4856 
Q 1566 4138 1362 3434 
Q 1159 2731 1159 2009 
Q 1159 1288 1364 580 
Q 1569 -128 1984 -844 
L 1484 -844 
Q 1016 -109 783 600 
Q 550 1309 550 2009 
Q 550 2706 781 3412 
Q 1013 4119 1484 4856 
L 1984 4856 
z
" transform="scale(0.015625)"/>
       <path id="DejaVuSans-63" d="M 3122 3366 
L 3122 2828 
Q 2878 2963 2633 3030 
Q 2388 3097 2138 3097 
Q 1578 3097 1268 2742 
Q 959 2388 959 1747 
Q 959 1106 1268 751 
Q 1578 397 2138 397 
Q 2388 397 2633 464 
Q 2878 531 3122 666 
L 3122 134 
Q 2881 22 2623 -34 
Q 2366 -91 2075 -91 
Q 1284 -91 818 406 
Q 353 903 353 1747 
Q 353 2603 823 3093 
Q 1294 3584 2113 3584 
Q 2378 3584 2631 3529 
Q 2884 3475 3122 3366 
z
" transform="scale(0.015625)"/>
       <path id="DejaVuSans-29" d="M 513 4856 
L 1013 4856 
Q 1481 4119 1714 3412 
Q 1947 2706 1947 2009 
Q 1947 1309 1714 600 
Q 1481 -109 1013 -844 
L 513 -844 
Q 928 -128 1133 580 
Q 1338 1288 1338 2009 
Q 1338 2731 1133 3434 
Q 928 4138 513 4856 
z
" transform="scale(0.015625)"/>
      </defs>
      <use xlink:href="#DejaVuSans-54"/>
      <use xlink:href="#DejaVuSans-69" transform="translate(57.958984 0)"/>
      <use xlink:href="#DejaVuSans-6d" transform="translate(85.742188 0)"/>
      <use xlink:href="#DejaVuSans-65" transform="translate(183.154297 0)"/>
      <use xlink:href="#DejaVuSans-73" transform="translate(244.677734 0)"/>
      <use xlink:href="#DejaVuSans-74" transform="translate(296.777344 0)"/>
      <use xlink:href="#DejaVuSans-61" transform="translate(335.986328 0)"/>
      <use xlink:href="#DejaVuSans-6d" transform="translate(397.265625 0)"/>
      <use xlink:href="#DejaVuSans-70" transform="translate(494.677734 0)"/>
      <use xlink:href="#DejaVuSans-20" transform="translate(558.154297 0)"/>
      <use xlink:href="#DejaVuSans-28" transform="translate(589.941406 0)"/>
      <use xlink:href="#DejaVuSans-73" transform="translate(628.955078 0)"/>
      <use xlink:href="#DejaVuSans-65" transform="translate(681.054688 0)"/>
      <use xlink:href="#DejaVuSans-63" transform="translate(742.578125 0)"/>
      <use xlink:href="#DejaVuSans-29" transform="translate(797.558594 0)"/>
     </g>
    </g>
   </g>
   <g id="matplotlib.axis_2">
    <g id="ytick_1">
     <g id="line2d_15">
      <path d="M 52.160938 299.103991 
L 498.560938 299.103991 
" clip-path="url(#p8c1b3896c3)" style="fill: none; stroke: #b0b0b0; stroke-width: 0.8; stroke-linecap: square"/>
     </g>
     <g id="line2d_16">
      <defs>
       <path id="m245531f453" d="M 0 0 
L -3.5 0 
" style="stroke: #000000; stroke-width: 0.8"/>
      </defs>
      <g>
       <use xlink:href="#m245531f453" x="52.160938" y="299.103991" style="stroke: #000000; stroke-width: 0.8"/>
      </g>
     </g>
     <g id="text_9">
      <!-- −1.0 -->
      <g transform="translate(20.878125 302.90321) scale(0.1 -0.1)">
       <defs>
        <path id="DejaVuSans-2212" d="M 678 2272 
L 4684 2272 
L 4684 1741 
L 678 1741 
L 678 2272 
z
" transform="scale(0.015625)"/>
        <path id="DejaVuSans-2e" d="M 684 794 
L 1344 794 
L 1344 0 
L 684 0 
L 684 794 
z
" transform="scale(0.015625)"/>
       </defs>
       <use xlink:href="#DejaVuSans-2212"/>
       <use xlink:href="#DejaVuSans-31" transform="translate(83.789062 0)"/>
       <use xlink:href="#DejaVuSans-2e" transform="translate(147.412109 0)"/>
       <use xlink:href="#DejaVuSans-30" transform="translate(179.199219 0)"/>
      </g>
     </g>
    </g>
    <g id="ytick_2">
     <g id="line2d_17">
      <path d="M 52.160938 242.042846 
L 498.560938 242.042846 
" clip-path="url(#p8c1b3896c3)" style="fill: none; stroke: #b0b0b0; stroke-width: 0.8; stroke-linecap: square"/>
     </g>
     <g id="line2d_18">
      <g>
       <use xlink:href="#m245531f453" x="52.160938" y="242.042846" style="stroke: #000000; stroke-width: 0.8"/>
      </g>
     </g>
     <g id="text_10">
      <!-- −0.5 -->
      <g transform="translate(20.878125 245.842065) scale(0.1 -0.1)">
       <defs>
        <path id="DejaVuSans-35" d="M 691 4666 
L 3169 4666 
L 3169 4134 
L 1269 4134 
L 1269 2991 
Q 1406 3038 1543 3061 
Q 1681 3084 1819 3084 
Q 2600 3084 3056 2656 
Q 3513 2228 3513 1497 
Q 3513 744 3044 326 
Q 2575 -91 1722 -91 
Q 1428 -91 1123 -41 
Q 819 9 494 109 
L 494 744 
Q 775 591 1075 516 
Q 1375 441 1709 441 
Q 2250 441 2565 725 
Q 2881 1009 2881 1497 
Q 2881 1984 2565 2268 
Q 2250 2553 1709 2553 
Q 1456 2553 1204 2497 
Q 953 2441 691 2322 
L 691 4666 
z
" transform="scale(0.015625)"/>
       </defs>
       <use xlink:href="#DejaVuSans-2212"/>
       <use xlink:href="#DejaVuSans-30" transform="translate(83.789062 0)"/>
       <use xlink:href="#DejaVuSans-2e" transform="translate(147.412109 0)"/>
       <use xlink:href="#DejaVuSans-35" transform="translate(179.199219 0)"/>
      </g>
     </g>
    </g>
    <g id="ytick_3">
     <g id="line2d_19">
      <path d="M 52.160938 184.981701 
L 498.560938 184.981701 
" clip-path="url(#p8c1b3896c3)" style="fill: none; stroke: #b0b0b0; stroke-width: 0.8; stroke-linecap: square"/>
     </g>
     <g id="line2d_20">
      <g>
       <use xlink:href="#m245531f453" x="52.160938" y="184.981701" style="stroke: #000000; stroke-width: 0.8"/>
      </g>
     </g>
     <g id="text_11">
      <!-- 0.0 -->
      <g transform="translate(29.257813 188.78092) scale(0.1 -0.1)">
       <use xlink:href="#DejaVuSans-30"/>
       <use xlink:href="#DejaVuSans-2e" transform="translate(63.623047 0)"/>
       <use xlink:href="#DejaVuSans-30" transform="translate(95.410156 0)"/>
      </g>
     </g>
    </g>
    <g id="ytick_4">
     <g id="line2d_21">
      <path d="M 52.160938 127.920556 
L 498.560938 127.920556 
" clip-path="url(#p8c1b3896c3)" style="fill: none; stroke: #b0b0b0; stroke-width: 0.8; stroke-linecap: square"/>
     </g>
     <g id="line2d_22">
      <g>
       <use xlink:href="#m245531f453" x="52.160938" y="127.920556" style="stroke: #000000; stroke-width: 0.8"/>
      </g>
     </g>
     <g id="text_12">
      <!-- 0.5 -->
      <g transform="translate(29.257813 131.719775) scale(0.1 -0.1)">
       <use xlink:href="#DejaVuSans-30"/>
       <use xlink:href="#DejaVuSans-2e" transform="translate(63.623047 0)"/>
       <use xlink:href="#DejaVuSans-35" transform="translate(95.410156 0)"/>
      </g>
     </g>
    </g>
    <g id="ytick_5">
     <g id="line2d_23">
      <path d="M 52.160938 70.859411 
L 498.560938 70.859411 
" clip-path="url(#p8c1b3896c3)" style="fill: none; stroke: #b0b0b0; stroke-width: 0.8; stroke-linecap: square"/>
     </g>
     <g id="line2d_24">
      <g>
       <use xlink:href="#m245531f453" x="52.160938" y="70.859411" style="stroke: #000000; stroke-width: 0.8"/>
      </g>
     </g>
     <g id="text_13">
      <!-- 1.0 -->
      <g transform="translate(29.257813 74.65863) scale(0.1 -0.1)">
       <use xlink:href="#DejaVuSans-31"/>
       <use xlink:href="#DejaVuSans-2e" transform="translate(63.623047 0)"/>
       <use xlink:href="#DejaVuSans-30" transform="translate(95.410156 0)"/>
      </g>
     </g>
    </g>
    <g id="text_14">
     <!-- Linear Acceleration (m/s²) -->
     <g transform="translate(14.798438 253.492031) rotate(-90) scale(0.1 -0.1)">
      <defs>
       <path id="DejaVuSans-4c" d="M 628 4666 
L 1259 4666 
L 1259 531 
L 3531 531 
L 3531 0 
L 628 0 
L 628 4666 
z
" transform="scale(0.015625)"/>
       <path id="DejaVuSans-6e" d="M 3513 2113 
L 3513 0 
L 2938 0 
L 2938 2094 
Q 2938 2591 2744 2837 
Q 2550 3084 2163 3084 
Q 1697 3084 1428 2787 
Q 1159 2491 1159 1978 
L 1159 0 
L 581 0 
L 581 3500 
L 1159 3500 
L 1159 2956 
Q 1366 3272 1645 3428 
Q 1925 3584 2291 3584 
Q 2894 3584 3203 3211 
Q 3513 2838 3513 2113 
z
" transform="scale(0.015625)"/>
       <path id="DejaVuSans-72" d="M 2631 2963 
Q 2534 3019 2420 3045 
Q 2306 3072 2169 3072 
Q 1681 3072 1420 2755 
Q 1159 2438 1159 1844 
L 1159 0 
L 581 0 
L 581 3500 
L 1159 3500 
L 1159 2956 
Q 1341 3275 1631 3429 
Q 1922 3584 2338 3584 
Q 2397 3584 2469 3576 
Q 2541 3569 2628 3553 
L 2631 2963 
z
" transform="scale(0.015625)"/>
       <path id="DejaVuSans-41" d="M 2188 4044 
L 1331 1722 
L 3047 1722 
L 2188 4044 
z
M 1831 4666 
L 2547 4666 
L 4325 0 
L 3669 0 
L 3244 1197 
L 1141 1197 
L 716 0 
L 50 0 
L 1831 4666 
z
" transform="scale(0.015625)"/>
       <path id="DejaVuSans-6c" d="M 603 4863 
L 1178 4863 
L 1178 0 
L 603 0 
L 603 4863 
z
" transform="scale(0.015625)"/>
       <path id="DejaVuSans-6f" d="M 1959 3097 
Q 1497 3097 1228 2736 
Q 959 2375 959 1747 
Q 959 1119 1226 758 
Q 1494 397 1959 397 
Q 2419 397 2687 759 
Q 2956 1122 2956 1747 
Q 2956 2369 2687 2733 
Q 2419 3097 1959 3097 
z
M 1959 3584 
Q 2709 3584 3137 3096 
Q 3566 2609 3566 1747 
Q 3566 888 3137 398 
Q 2709 -91 1959 -91 
Q 1206 -91 779 398 
Q 353 888 353 1747 
Q 353 2609 779 3096 
Q 1206 3584 1959 3584 
z
" transform="scale(0.015625)"/>
       <path id="DejaVuSans-2f" d="M 1625 4666 
L 2156 4666 
L 531 -594 
L 0 -594 
L 1625 4666 
z
" transform="scale(0.015625)"/>
       <path id="DejaVuSans-b2" d="M 838 2444 
L 2163 2444 
L 2163 2088 
L 294 2088 
L 294 2431 
Q 400 2528 597 2703 
Q 1672 3656 1672 3950 
Q 1672 4156 1509 4282 
Q 1347 4409 1081 4409 
Q 919 4409 728 4354 
Q 538 4300 313 4191 
L 313 4575 
Q 553 4663 761 4706 
Q 969 4750 1147 4750 
Q 1600 4750 1872 4544 
Q 2144 4338 2144 4000 
Q 2144 3566 1109 2678 
Q 934 2528 838 2444 
z
" transform="scale(0.015625)"/>
      </defs>
      <use xlink:href="#DejaVuSans-4c"/>
      <use xlink:href="#DejaVuSans-69" transform="translate(55.712891 0)"/>
      <use xlink:href="#DejaVuSans-6e" transform="translate(83.496094 0)"/>
      <use xlink:href="#DejaVuSans-65" transform="translate(146.875 0)"/>
      <use xlink:href="#DejaVuSans-61" transform="translate(208.398438 0)"/>
      <use xlink:href="#DejaVuSans-72" transform="translate(269.677734 0)"/>
      <use xlink:href="#DejaVuSans-20" transform="translate(310.791016 0)"/>
      <use xlink:href="#DejaVuSans-41" transform="translate(342.578125 0)"/>
      <use xlink:href="#DejaVuSans-63" transform="translate(409.236328 0)"/>
      <use xlink:href="#DejaVuSans-63" transform="translate(464.216797 0)"/>
      <use xlink:href="#DejaVuSans-65" transform="translate(519.197266 0)"/>
      <use xlink:href="#DejaVuSans-6c" transform="translate(580.720703 0)"/>
      <use xlink:href="#DejaVuSans-65" transform="translate(608.503906 0)"/>
      <use xlink:href="#DejaVuSans-72" transform="translate(670.027344 0)"/>
      <use xlink:href="#DejaVuSans-61" transform="translate(711.140625 0)"/>
      <use xlink:href="#DejaVuSans-74" transform="translate(772.419922 0)"/>
      <use xlink:href="#DejaVuSans-69" transform="translate(811.628906 0)"/>
      <use xlink:href="#DejaVuSans-6f" transform="translate(839.412109 0)"/>
      <use xlink:href="#DejaVuSans-6e" transform="translate(900.59375 0)"/>
      <use xlink:href="#DejaVuSans-20" transform="translate(963.972656 0)"/>
      <use xlink:href="#DejaVuSans-28" transform="translate(995.759766 0)"/>
      <use xlink:href="#DejaVuSans-6d" transform="translate(1034.773438 0)"/>
      <use xlink:href="#DejaVuSans-2f" transform="translate(1132.185547 0)"/>
      <use xlink:href="#DejaVuSans-73" transform="translate(1165.876953 0)"/>
      <use xlink:href="#DejaVuSans-b2" transform="translate(1217.976562 0)"/>
      <use xlink:href="#DejaVuSans-29" transform="translate(1258.064453 0)"/>
     </g>
    </g>
   </g>
   <g id="line2d_25">
    <path d="M 72.451847 186.715764 
L 73.302909 184.444387 
L 75.143524 186.475196 
L 76.986704 185.01961 
L 77.876357 186.029222 
L 78.829107 183.166856 
L 79.804889 183.591702 
L 80.753099 186.05588 
L 81.592712 186.057805 
L 82.513969 186.664543 
L 83.433406 185.229159 
L 86.197622 187.647185 
L 87.177333 184.133777 
L 88.130805 183.698238 
L 88.962584 186.148241 
L 89.882539 184.683138 
L 90.803129 184.044077 
L 91.724119 182.818188 
L 92.645571 181.199947 
L 93.575901 184.694484 
L 94.515994 184.925331 
L 95.490858 184.533204 
L 96.337859 183.730318 
L 97.259272 183.949573 
L 99.097919 182.939954 
L 100.016407 184.996605 
L 102.169284 187.068486 
L 103.085631 183.587961 
L 105.287536 183.595851 
L 106.223402 186.857352 
L 107.090486 181.311993 
L 108.727978 186.871997 
L 109.841458 185.859269 
L 110.762416 185.452694 
L 111.683751 182.188656 
L 112.657424 186.10119 
L 113.626038 186.724273 
L 114.457927 186.703214 
L 115.369459 182.389321 
L 116.596123 182.416265 
L 117.552238 184.45857 
L 118.521738 184.437891 
L 119.366927 183.188466 
L 120.289799 185.890818 
L 122.125521 187.145847 
L 123.965838 182.581328 
L 124.912236 187.540859 
L 125.883007 187.325787 
L 126.833373 185.281325 
L 127.668799 184.041995 
L 128.588762 183.031199 
L 129.282576 187.344989 
L 130.12237 186.324786 
L 131.041274 185.882349 
L 131.959142 184.879375 
L 132.877921 187.950652 
L 133.798715 187.338738 
L 134.720018 186.295529 
L 135.683316 184.235294 
L 136.655796 185.491439 
L 137.481968 188.766333 
L 138.399735 182.828268 
L 139.322247 181.823472 
L 140.239182 182.872551 
L 141.15956 185.381855 
L 142.082417 184.54106 
L 144.027911 182.126273 
L 144.846759 187.253084 
L 145.768878 185.843059 
L 146.655308 185.198032 
L 147.607172 183.969783 
L 148.52922 185.441382 
L 149.458946 186.242329 
L 150.379591 185.633333 
L 151.359718 184.586091 
L 152.217124 181.959863 
L 153.136224 187.511099 
L 154.034669 184.223689 
L 154.981459 186.477006 
L 155.8737 181.555022 
L 156.821533 186.283088 
L 157.723208 185.838788 
L 158.687737 181.52427 
L 159.675352 184.611388 
L 160.504951 182.563744 
L 161.425925 187.095899 
L 162.346351 186.263613 
L 163.270085 180.919307 
L 164.188182 196.067624 
L 165.10972 220.275325 
L 166.081628 204.294526 
L 167.046455 241.234124 
L 167.873482 227.737012 
L 168.794299 168.265351 
L 169.715438 297.881184 
L 170.635605 160.460812 
L 171.529642 127.389609 
L 172.447503 147.441903 
L 173.437408 220.86303 
L 174.396777 184.139539 
L 175.243895 267.891515 
L 176.163042 164.478447 
L 177.083201 213.522491 
L 178.005014 237.091491 
L 178.925196 133.300601 
L 179.847903 185.983614 
L 180.768729 164.917945 
L 181.749631 160.415856 
L 182.674354 254.625658 
L 183.837968 216.68004 
L 184.759185 239.594741 
L 186.651558 157.394923 
L 187.607225 222.546062 
L 188.446039 190.712189 
L 189.365201 138.915669 
L 190.287219 273.585999 
L 191.208428 116.950469 
L 192.130085 262.425123 
L 193.051451 175.687884 
L 194.01089 221.481046 
L 195.001368 239.060169 
L 196.119914 142.710606 
L 197.049303 233.425633 
L 197.972645 161.652193 
L 198.923678 197.019771 
L 199.889665 196.518597 
L 200.728549 86.609152 
L 201.647892 256.351225 
L 202.568867 174.9888 
L 203.490782 294.543886 
L 204.413309 194.979636 
L 205.333146 126.215152 
L 206.257155 187.030856 
L 207.242042 164.814688 
L 208.098288 265.511099 
L 209.017615 123.404434 
L 209.93953 179.79235 
L 210.800137 204.047313 
L 211.787282 216.925253 
L 212.703669 199.270952 
L 213.626791 170.660188 
L 214.613748 281.710719 
L 215.521611 208.825906 
L 216.3886 322.148697 
L 217.307755 255.011596 
L 218.006604 104.88587 
L 218.846155 218.64382 
L 219.764086 187.86004 
L 220.489449 254.503654 
L 221.299953 212.961219 
L 222.21892 177.038513 
L 223.141376 186.165396 
L 224.062852 164.804035 
L 224.953776 180.277926 
L 225.906228 143.908191 
L 226.846831 160.766871 
L 227.828863 242.454381 
L 228.669394 235.484528 
L 229.590666 159.504753 
L 230.511021 217.499027 
L 231.431438 243.706519 
L 232.352051 339.838125 
L 233.273041 207.735469 
L 234.220255 261.488281 
L 235.186093 165.716812 
L 236.102449 226.247734 
L 236.962537 223.189171 
L 237.849469 239.90912 
L 238.769205 141.389616 
L 239.722284 272.877351 
L 240.64354 203.719487 
L 241.56642 298.524191 
L 242.531467 216.65983 
L 243.517482 216.561817 
L 244.330292 237.319052 
L 245.249407 221.029773 
L 246.169394 275.533127 
L 247.093058 273.480565 
L 248.013302 119.531224 
L 248.91046 240.367127 
L 249.897339 127.122391 
L 250.875348 235.227465 
L 251.669462 201.39236 
L 252.621271 207.284441 
L 253.540677 244.906805 
L 254.462341 215.291231 
L 255.382578 107.050642 
L 256.305505 236.00032 
L 257.233145 153.640173 
L 258.218933 250.688153 
L 259.068075 221.151723 
L 260.006905 223.110123 
L 260.927017 226.074597 
L 261.85181 272.216474 
L 262.766009 81.252119 
L 263.686332 196.541983 
L 264.607691 37.438125 
L 265.578446 254.676008 
L 266.520774 197.895067 
L 267.368214 231.257922 
L 268.286137 213.461849 
L 269.21395 164.373142 
L 270.13294 189.170691 
L 271.049452 277.114786 
L 271.966874 126.961777 
L 272.926729 247.831636 
L 273.907428 174.513332 
L 274.729569 140.743942 
L 275.64754 231.547064 
L 276.570255 158.619581 
L 277.490751 208.810927 
L 278.380247 202.111116 
L 279.334126 184.949826 
L 280.271812 276.657412 
L 281.26407 210.913867 
L 282.096625 208.520677 
L 283.019937 294.595325 
L 283.939256 193.553048 
L 284.860301 220.214371 
L 285.783094 156.73572 
L 286.702657 221.995157 
L 287.623553 171.442246 
L 288.578114 239.098207 
L 289.496469 230.675809 
L 290.38646 207.785445 
L 291.308634 148.096059 
L 292.228298 195.657382 
L 293.149782 205.125669 
L 294.070835 212.658453 
L 294.992288 123.777094 
L 295.963741 195.83428 
L 296.942448 195.182941 
L 297.75692 176.128872 
L 298.677118 146.771436 
L 299.596727 219.655493 
L 300.517168 146.271411 
L 301.438809 210.156678 
L 302.330972 72.88722 
L 303.306558 196.104784 
L 304.296095 192.67748 
L 305.126109 127.164102 
L 306.965964 239.488103 
L 307.888263 214.286761 
L 308.809104 306.718068 
L 309.730847 105.19848 
L 310.679872 224.355405 
L 311.64575 214.663665 
L 312.494483 167.576463 
L 313.415991 218.492627 
L 314.335796 119.494492 
L 315.256637 205.589845 
L 316.178419 251.248697 
L 317.100609 256.408975 
L 318.992801 226.307635 
L 319.947198 91.786273 
L 320.785666 218.419122 
L 321.706735 191.961648 
L 322.410242 192.319479 
L 323.551389 135.872935 
L 324.47139 195.057562 
L 325.413875 232.089561 
L 326.345146 142.323349 
L 327.32688 231.350283 
L 328.153209 234.995979 
L 329.075171 156.132989 
L 329.793759 189.475975 
L 330.622135 161.875429 
L 332.463009 237.509678 
L 333.382305 157.687663 
L 334.30066 258.14684 
L 335.223492 174.05625 
L 336.147274 198.678581 
L 337.139313 194.205666 
L 337.984235 298.951839 
L 338.902245 203.838954 
L 339.821086 201.620805 
L 340.741903 101.733049 
L 341.671394 235.579399 
L 342.586291 111.778443 
L 343.512182 211.53963 
L 344.484686 163.215398 
L 346.271058 213.661787 
L 347.190252 85.084353 
L 348.113406 248.395935 
L 349.031134 259.809568 
L 349.953394 218.497021 
L 350.874996 240.558425 
L 351.847766 169.230647 
L 352.778167 232.977094 
L 353.640263 332.112546 
L 354.559198 78.173102 
L 355.246982 313.818768 
L 356.094328 298.622666 
L 357.014965 187.516915 
L 357.937249 245.923675 
L 358.857407 192.60692 
L 359.780366 187.516453 
L 360.701222 168.849458 
L 361.642797 146.9232 
L 362.638718 241.749439 
L 363.464984 104.934363 
L 364.385284 254.841384 
L 365.307552 115.791581 
L 366.228103 239.282492 
L 367.148787 237.496101 
L 368.039491 164.649924 
L 369.016112 292.217248 
L 369.970681 135.724218 
L 370.913888 215.263968 
L 371.757461 169.798789 
L 372.676232 213.247511 
L 373.37196 219.43923 
L 374.213314 312.574316 
L 375.132069 141.047335 
L 376.976119 115.809152 
L 377.897022 214.230656 
L 378.820122 166.436479 
L 379.776573 183.878932 
L 380.76564 207.181422 
L 381.58524 139.653295 
L 382.526753 227.299548 
L 384.315626 159.800636 
L 385.237314 156.726217 
L 386.186418 159.406448 
L 387.130236 141.868383 
L 388.072438 121.414703 
L 388.952007 161.520332 
L 389.871044 295.280444 
L 390.79259 232.901481 
L 391.713031 188.236658 
L 392.655116 290.540678 
L 393.574169 190.857879 
L 394.494994 163.312914 
L 395.468659 159.678605 
L 396.387743 229.56036 
L 397.251824 130.816886 
L 398.174719 201.099306 
L 399.090863 135.123249 
L 400.012096 288.065031 
L 400.930059 292.724449 
L 401.85635 130.50676 
L 402.809116 263.482079 
L 403.796449 163.167197 
L 404.583583 129.224195 
L 405.53242 203.539623 
L 406.421626 172.966283 
L 407.373843 190.250278 
L 408.300699 138.941517 
L 409.216458 218.436352 
L 410.158543 201.404549 
L 411.14023 218.266154 
L 411.98142 248.855336 
L 412.899696 203.72952 
L 414.742413 152.774189 
L 415.664972 160.500034 
L 416.585373 256.524307 
L 417.512707 157.67414 
L 418.493446 228.556271 
L 419.349707 195.144365 
L 420.269435 237.552559 
L 421.190025 258.093967 
L 422.111368 57.291189 
L 423.03086 196.69887 
L 423.952838 137.498801 
L 424.874533 192.478134 
L 425.859004 173.024462 
L 426.799638 204.106241 
L 427.639754 290.725005 
L 428.558524 168.148435 
L 429.479836 204.938968 
L 430.400308 151.571496 
L 431.322466 121.218038 
L 433.198261 181.184036 
L 434.185516 246.240917 
L 435.007218 101.626444 
L 435.927353 230.373001 
L 436.84959 161.270031 
L 437.741384 221.592616 
L 439.621727 237.734627 
L 440.55535 322.310182 
L 441.543381 63.245865 
L 442.375835 223.731492 
L 443.296284 187.790399 
L 444.218779 142.684431 
L 445.140099 143.959637 
L 446.030826 130.947428 
L 446.991003 249.065219 
L 447.909836 116.877889 
L 448.882426 219.616054 
L 449.748161 187.794133 
L 450.669151 190.43823 
L 451.556797 109.805656 
L 452.26686 193.92149 
L 453.428937 237.232936 
L 454.351495 127.582642 
L 455.274304 212.671302 
L 456.238002 221.221657 
L 457.207361 154.590219 
L 458.036153 162.670622 
L 458.926637 87.937428 
L 459.846247 255.094406 
L 460.797938 173.195538 
L 461.721783 180.729376 
L 462.655986 239.68347 
L 463.586551 183.749241 
L 464.576912 164.693908 
L 465.374649 208.519976 
L 466.325822 171.967411 
L 467.04012 206.165232 
L 468.168908 171.905205 
L 469.090925 240.926364 
L 470.01088 197.074175 
L 470.959921 176.72155 
L 471.936408 167.539003 
L 472.776688 199.777275 
L 474.616504 125.170093 
L 475.289051 210.522563 
L 476.458609 186.025461 
L 477.385002 231.985596 
L 478.270028 181.934913 
L 478.270028 181.934913 
" clip-path="url(#p8c1b3896c3)" style="fill: none; stroke: #1f77b4; stroke-width: 1.5; stroke-linecap: square"/>
   </g>
   <g id="line2d_26">
    <path d="M 72.451847 183.493287 
L 73.302909 184.689083 
L 75.143524 186.882146 
L 76.986704 185.418778 
L 77.876357 183.97234 
L 78.829107 186.226317 
L 79.804889 183.748786 
L 80.753099 187.00296 
L 81.592712 186.380829 
L 82.513969 184.724659 
L 83.433406 186.361395 
L 86.197622 185.124697 
L 87.177333 185.133765 
L 88.130805 186.593262 
L 88.962584 187.458369 
L 89.882539 186.230697 
L 90.803129 185.212453 
L 91.724119 186.236677 
L 92.645571 183.985856 
L 93.575901 184.397153 
L 94.515994 183.188181 
L 95.490858 185.434069 
L 96.337859 185.452517 
L 97.259272 184.44387 
L 99.097919 185.052825 
L 100.016407 186.277299 
L 102.169284 185.886492 
L 103.085631 184.665704 
L 105.287536 185.755045 
L 106.223402 182.877551 
L 107.090486 183.329578 
L 107.999674 184.182685 
L 108.727978 186.266899 
L 109.841458 185.464618 
L 110.762416 186.102686 
L 111.683751 181.820152 
L 112.657424 186.517486 
L 113.626038 185.705525 
L 114.457927 183.029587 
L 115.369459 186.559245 
L 116.596123 186.584977 
L 117.552238 185.9431 
L 118.521738 183.478254 
L 119.366927 185.325322 
L 120.289799 188.68636 
L 121.203904 186.350723 
L 122.125521 184.755942 
L 123.965838 182.05289 
L 124.912236 187.054922 
L 125.883007 187.206884 
L 126.833373 184.166074 
L 127.668799 183.52704 
L 128.588762 187.807492 
L 130.12237 183.677879 
L 131.041274 183.421259 
L 131.959142 183.65618 
L 132.877921 185.849936 
L 133.798715 185.010944 
L 134.720018 182.919636 
L 135.683316 183.944798 
L 136.655796 186.638273 
L 137.481968 185.781343 
L 138.399735 183.15419 
L 139.322247 181.123633 
L 140.239182 185.628232 
L 141.15956 187.546899 
L 142.082417 182.574614 
L 143.027725 180.595032 
L 144.027911 187.001504 
L 144.846759 185.719701 
L 145.768878 183.319205 
L 146.655308 184.716524 
L 147.607172 185.371421 
L 148.52922 186.459946 
L 149.458946 187.007096 
L 150.379591 182.368459 
L 151.359718 184.817985 
L 152.217124 185.065831 
L 153.136224 187.320746 
L 154.034669 184.21303 
L 154.981459 186.082205 
L 155.8737 185.660413 
L 156.821533 187.713772 
L 157.723208 182.11879 
L 158.687737 180.716091 
L 159.675352 186.933741 
L 160.504951 185.868609 
L 161.425925 183.239687 
L 162.346351 183.442046 
L 164.188182 185.634204 
L 165.10972 114.467992 
L 166.081628 147.72997 
L 167.046455 77.120853 
L 167.873482 138.625684 
L 168.794299 189.716025 
L 169.715438 172.05888 
L 170.635605 109.014375 
L 171.529642 192.361972 
L 172.447503 175.91078 
L 173.437408 164.723348 
L 174.396777 274.453949 
L 175.243895 186.382965 
L 176.163042 183.245687 
L 177.083201 235.814028 
L 178.925196 174.314918 
L 179.847903 213.234539 
L 180.768729 194.137379 
L 181.749631 176.276671 
L 182.674354 171.270639 
L 183.837968 211.459412 
L 184.759185 180.269668 
L 185.682646 217.758736 
L 186.651558 161.828697 
L 187.607225 213.700634 
L 188.446039 156.246749 
L 189.365201 196.802025 
L 190.287219 191.598777 
L 191.208428 230.803139 
L 192.130085 167.75043 
L 193.051451 169.054436 
L 194.01089 159.644621 
L 195.001368 176.849479 
L 196.119914 146.46571 
L 197.972645 211.797992 
L 198.923678 176.588893 
L 199.889665 214.891043 
L 200.728549 196.532066 
L 201.647892 190.65771 
L 202.568867 158.34135 
L 203.490782 121.596765 
L 204.413309 223.999601 
L 205.333146 175.766266 
L 206.257155 155.844119 
L 207.242042 186.755618 
L 208.098288 155.358849 
L 209.017615 148.010045 
L 209.93953 197.356222 
L 210.800137 114.009618 
L 211.787282 124.662409 
L 212.703669 208.165084 
L 213.626791 154.858246 
L 214.613748 195.815486 
L 215.521611 163.641353 
L 216.3886 158.842646 
L 217.307755 239.045517 
L 218.006604 102.892657 
L 218.846155 211.804931 
L 219.764086 162.487615 
L 220.489449 207.608315 
L 221.299953 144.699616 
L 222.21892 158.250003 
L 223.141376 183.216111 
L 224.062852 136.984839 
L 224.953776 200.799914 
L 225.906228 153.34999 
L 226.846831 117.992351 
L 227.828863 183.300179 
L 228.669394 196.55503 
L 229.590666 103.596272 
L 230.511021 156.670942 
L 231.431438 180.280742 
L 232.352051 183.800149 
L 233.273041 212.903809 
L 234.220255 124.759824 
L 235.186093 134.759173 
L 236.102449 110.859436 
L 236.962537 144.541743 
L 237.849469 160.639003 
L 238.769205 182.802699 
L 239.722284 189.562254 
L 240.64354 160.391729 
L 241.56642 137.089423 
L 242.531467 120.362598 
L 243.517482 128.840883 
L 244.330292 167.60942 
L 245.249407 120.061518 
L 246.169394 177.397983 
L 247.093058 143.03831 
L 248.013302 142.768167 
L 248.91046 176.820018 
L 249.897339 137.717479 
L 250.875348 154.926894 
L 251.669462 149.509832 
L 252.621271 99.714524 
L 253.540677 183.08997 
L 254.462341 150.413139 
L 255.382578 172.32514 
L 256.305505 172.14552 
L 257.233145 70.458488 
L 258.218933 167.473675 
L 259.068075 193.652231 
L 260.006905 74.808092 
L 260.927017 161.901787 
L 261.85181 153.414054 
L 262.766009 166.807881 
L 263.686332 143.733578 
L 264.607691 115.48472 
L 265.578446 160.274316 
L 266.520774 161.53844 
L 267.368214 128.636224 
L 268.286137 186.277748 
L 269.21395 157.742401 
L 270.13294 98.019119 
L 271.049452 176.597321 
L 271.966874 143.858664 
L 272.926729 185.996075 
L 273.907428 150.943481 
L 274.729569 83.680899 
L 275.64754 172.259811 
L 276.570255 207.772018 
L 277.490751 128.025167 
L 278.380247 146.950327 
L 279.334126 107.40933 
L 280.271812 171.771657 
L 281.26407 170.540802 
L 282.096625 120.991946 
L 283.019937 168.758757 
L 283.939256 164.939182 
L 284.860301 129.160859 
L 285.783094 145.163242 
L 286.702657 131.272866 
L 287.623553 179.731722 
L 288.578114 143.112652 
L 289.496469 135.13986 
L 290.38646 190.702748 
L 291.308634 124.482865 
L 292.228298 117.529603 
L 293.149782 193.619757 
L 294.070835 135.13337 
L 294.992288 171.32822 
L 295.963741 132.313633 
L 296.942448 133.117941 
L 297.75692 186.918463 
L 298.677118 141.179318 
L 299.596727 167.841818 
L 300.517168 184.769166 
L 301.438809 134.856282 
L 302.330972 159.053018 
L 303.306558 159.148086 
L 305.126109 129.436084 
L 306.044354 170.458563 
L 306.965964 145.160228 
L 307.888263 139.496456 
L 308.809104 206.817959 
L 309.730847 156.707409 
L 310.679872 136.97601 
L 311.64575 176.6498 
L 312.494483 127.048736 
L 313.415991 178.675385 
L 314.335796 158.137229 
L 315.256637 148.573221 
L 316.178419 163.24211 
L 317.100609 116.564885 
L 317.991446 184.258952 
L 318.992801 161.866749 
L 319.947198 158.959222 
L 320.785666 182.44314 
L 321.706735 144.134073 
L 322.410242 138.251854 
L 323.551389 150.222827 
L 324.47139 112.496022 
L 325.413875 204.137565 
L 326.345146 178.804858 
L 327.32688 109.291429 
L 328.153209 176.198364 
L 329.075171 157.986587 
L 329.793759 130.877576 
L 330.622135 157.371469 
L 331.541987 143.584004 
L 332.463009 192.818238 
L 333.382305 155.555154 
L 334.30066 157.14837 
L 335.223492 175.781966 
L 336.147274 116.167628 
L 337.139313 147.128266 
L 337.984235 161.762015 
L 338.902245 152.557927 
L 339.821086 176.209669 
L 340.741903 113.78005 
L 341.671394 187.082961 
L 342.586291 151.812158 
L 343.512182 143.064975 
L 344.484686 177.373365 
L 345.318527 170.925114 
L 346.271058 125.841349 
L 347.190252 185.526198 
L 348.113406 101.767407 
L 349.031134 178.878751 
L 349.953394 173.055956 
L 350.874996 174.471689 
L 351.847766 129.217052 
L 352.778167 128.241179 
L 353.640263 194.18898 
L 354.559198 141.293126 
L 355.246982 177.777172 
L 356.094328 180.627975 
L 357.014965 130.084355 
L 357.937249 175.049496 
L 358.857407 130.038087 
L 359.780366 125.217395 
L 360.701222 161.190241 
L 361.642797 129.269484 
L 362.638718 188.425386 
L 363.464984 175.876741 
L 364.385284 137.464389 
L 365.307552 166.541458 
L 366.228103 138.539085 
L 367.148787 124.578191 
L 368.039491 214.459864 
L 369.016112 151.182327 
L 369.970681 142.427063 
L 370.913888 130.029428 
L 371.757461 135.48833 
L 372.676232 157.949086 
L 373.37196 120.040159 
L 374.213314 176.319328 
L 375.132069 162.169312 
L 376.976119 121.896314 
L 377.897022 133.285133 
L 378.820122 192.742856 
L 379.776573 101.060262 
L 380.76564 137.647327 
L 381.58524 198.685342 
L 382.526753 125.084133 
L 383.398032 151.836089 
L 384.315626 170.849473 
L 385.237314 112.620142 
L 386.186418 153.285084 
L 387.130236 164.512717 
L 388.072438 139.08818 
L 388.952007 131.226441 
L 389.871044 170.990218 
L 390.79259 163.651712 
L 391.713031 135.63851 
L 392.655116 187.300782 
L 393.574169 147.998644 
L 394.494994 121.767344 
L 395.468659 129.780174 
L 396.387743 163.315234 
L 397.251824 181.97574 
L 398.174719 121.608927 
L 399.090863 99.756997 
L 400.012096 212.993033 
L 400.930059 154.324048 
L 401.85635 153.159202 
L 402.809116 199.16598 
L 403.796449 75.760253 
L 404.583583 142.562298 
L 405.53242 135.454578 
L 406.421626 124.419822 
L 407.373843 199.093591 
L 408.300699 174.936192 
L 409.216458 127.049226 
L 410.158543 168.352161 
L 411.14023 121.504323 
L 411.98142 152.93281 
L 412.899696 171.474509 
L 413.820553 131.68538 
L 414.742413 157.24892 
L 415.664972 116.411583 
L 416.585373 187.454702 
L 417.512707 143.635654 
L 418.493446 138.257201 
L 419.349707 181.274499 
L 420.269435 179.872392 
L 421.190025 120.918346 
L 422.111368 145.469185 
L 423.03086 137.439173 
L 423.952838 140.692449 
L 424.874533 156.092597 
L 425.859004 197.713591 
L 426.799638 133.464514 
L 427.639754 115.276858 
L 428.558524 235.433056 
L 429.479836 139.049795 
L 430.400308 120.986245 
L 431.322466 161.304695 
L 432.243519 113.651984 
L 433.198261 155.963382 
L 434.185516 165.119033 
L 435.007218 187.034965 
L 435.927353 161.341849 
L 436.84959 111.188677 
L 437.741384 171.617512 
L 438.694549 227.748419 
L 439.621727 172.330119 
L 440.55535 149.398214 
L 441.543381 168.633929 
L 442.375835 125.779946 
L 443.296284 183.565316 
L 444.218779 130.98633 
L 445.140099 127.493275 
L 446.030826 207.606792 
L 446.991003 97.792176 
L 447.909836 185.290604 
L 448.882426 161.551249 
L 449.748161 182.077834 
L 450.669151 187.650388 
L 451.556797 74.721466 
L 452.26686 199.824312 
L 453.428937 176.470636 
L 454.351495 137.059554 
L 455.274304 175.716461 
L 456.238002 193.297461 
L 457.207361 164.572957 
L 458.036153 117.627643 
L 458.926637 92.393052 
L 459.846247 215.593283 
L 460.797938 187.424113 
L 461.721783 118.760961 
L 462.655986 186.514615 
L 463.586551 184.78875 
L 464.576912 119.447624 
L 465.374649 146.076208 
L 466.325822 138.352411 
L 467.04012 167.013709 
L 468.168908 162.391404 
L 469.090925 150.521893 
L 470.01088 158.424446 
L 470.959921 169.00563 
L 471.936408 162.17089 
L 472.776688 150.327023 
L 473.694251 125.656873 
L 474.616504 184.257251 
L 475.289051 140.406899 
L 476.458609 156.814272 
L 477.385002 162.946084 
L 478.270028 151.340071 
L 478.270028 151.340071 
" clip-path="url(#p8c1b3896c3)" style="fill: none; stroke: #ff7f0e; stroke-width: 1.5; stroke-linecap: square"/>
   </g>
   <g id="patch_3">
    <path d="M 52.160938 354.958125 
L 52.160938 22.318125 
" style="fill: none; stroke: #000000; stroke-width: 0.8; stroke-linejoin: miter; stroke-linecap: square"/>
   </g>
   <g id="patch_4">
    <path d="M 498.560938 354.958125 
L 498.560938 22.318125 
" style="fill: none; stroke: #000000; stroke-width: 0.8; stroke-linejoin: miter; stroke-linecap: square"/>
   </g>
   <g id="patch_5">
    <path d="M 52.160938 354.958125 
L 498.560938 354.958125 
" style="fill: none; stroke: #000000; stroke-width: 0.8; stroke-linejoin: miter; stroke-linecap: square"/>
   </g>
   <g id="patch_6">
    <path d="M 52.160938 22.318125 
L 498.560938 22.318125 
" style="fill: none; stroke: #000000; stroke-width: 0.8; stroke-linejoin: miter; stroke-linecap: square"/>
   </g>
   <g id="legend_1">
    <g id="patch_7">
     <path d="M 59.160938 59.674375 
L 163.329688 59.674375 
Q 165.329688 59.674375 165.329688 57.674375 
L 165.329688 29.318125 
Q 165.329688 27.318125 163.329688 27.318125 
L 59.160938 27.318125 
Q 57.160938 27.318125 57.160938 29.318125 
L 57.160938 57.674375 
Q 57.160938 59.674375 59.160938 59.674375 
z
" style="fill: #ffffff; opacity: 0.8; stroke: #cccccc; stroke-linejoin: miter"/>
    </g>
    <g id="line2d_27">
     <path d="M 61.160938 35.416562 
L 71.160938 35.416562 
L 81.160938 35.416562 
" style="fill: none; stroke: #1f77b4; stroke-width: 1.5; stroke-linecap: square"/>
    </g>
    <g id="text_15">
     <!-- X Acceleration -->
     <g transform="translate(89.160938 38.916562) scale(0.1 -0.1)">
      <defs>
       <path id="DejaVuSans-58" d="M 403 4666 
L 1081 4666 
L 2241 2931 
L 3406 4666 
L 4084 4666 
L 2584 2425 
L 4184 0 
L 3506 0 
L 2194 1984 
L 872 0 
L 191 0 
L 1856 2491 
L 403 4666 
z
" transform="scale(0.015625)"/>
      </defs>
      <use xlink:href="#DejaVuSans-58"/>
      <use xlink:href="#DejaVuSans-20" transform="translate(68.505859 0)"/>
      <use xlink:href="#DejaVuSans-41" transform="translate(100.292969 0)"/>
      <use xlink:href="#DejaVuSans-63" transform="translate(166.951172 0)"/>
      <use xlink:href="#DejaVuSans-63" transform="translate(221.931641 0)"/>
      <use xlink:href="#DejaVuSans-65" transform="translate(276.912109 0)"/>
      <use xlink:href="#DejaVuSans-6c" transform="translate(338.435547 0)"/>
      <use xlink:href="#DejaVuSans-65" transform="translate(366.21875 0)"/>
      <use xlink:href="#DejaVuSans-72" transform="translate(427.742188 0)"/>
      <use xlink:href="#DejaVuSans-61" transform="translate(468.855469 0)"/>
      <use xlink:href="#DejaVuSans-74" transform="translate(530.134766 0)"/>
      <use xlink:href="#DejaVuSans-69" transform="translate(569.34375 0)"/>
      <use xlink:href="#DejaVuSans-6f" transform="translate(597.126953 0)"/>
      <use xlink:href="#DejaVuSans-6e" transform="translate(658.308594 0)"/>
     </g>
    </g>
    <g id="line2d_28">
     <path d="M 61.160938 50.094687 
L 71.160938 50.094687 
L 81.160938 50.094687 
" style="fill: none; stroke: #ff7f0e; stroke-width: 1.5; stroke-linecap: square"/>
    </g>
    <g id="text_16">
     <!-- Y Acceleration -->
     <g transform="translate(89.160938 53.594687) scale(0.1 -0.1)">
      <defs>
       <path id="DejaVuSans-59" d="M -13 4666 
L 666 4666 
L 1959 2747 
L 3244 4666 
L 3922 4666 
L 2272 2222 
L 2272 0 
L 1638 0 
L 1638 2222 
L -13 4666 
z
" transform="scale(0.015625)"/>
      </defs>
      <use xlink:href="#DejaVuSans-59"/>
      <use xlink:href="#DejaVuSans-20" transform="translate(61.083984 0)"/>
      <use xlink:href="#DejaVuSans-41" transform="translate(92.871094 0)"/>
      <use xlink:href="#DejaVuSans-63" transform="translate(159.529297 0)"/>
      <use xlink:href="#DejaVuSans-63" transform="translate(214.509766 0)"/>
      <use xlink:href="#DejaVuSans-65" transform="translate(269.490234 0)"/>
      <use xlink:href="#DejaVuSans-6c" transform="translate(331.013672 0)"/>
      <use xlink:href="#DejaVuSans-65" transform="translate(358.796875 0)"/>
      <use xlink:href="#DejaVuSans-72" transform="translate(420.320312 0)"/>
      <use xlink:href="#DejaVuSans-61" transform="translate(461.433594 0)"/>
      <use xlink:href="#DejaVuSans-74" transform="translate(522.712891 0)"/>
      <use xlink:href="#DejaVuSans-69" transform="translate(561.921875 0)"/>
      <use xlink:href="#DejaVuSans-6f" transform="translate(589.705078 0)"/>
      <use xlink:href="#DejaVuSans-6e" transform="translate(650.886719 0)"/>
     </g>
    </g>
   </g>
  </g>
  <g id="axes_2">
   <g id="matplotlib.axis_3">
    <g id="ytick_6">
     <g id="line2d_29">
      <defs>
       <path id="mf220e1ee0c" d="M 0 0 
L 3.5 0 
" style="stroke: #000000; stroke-width: 0.8"/>
      </defs>
      <g>
       <use xlink:href="#mf220e1ee0c" x="498.560938" y="339.837315" style="stroke: #000000; stroke-width: 0.8"/>
      </g>
     </g>
     <g id="text_17">
      <!-- 0.0 -->
      <g transform="translate(505.560938 343.636534) scale(0.1 -0.1)">
       <use xlink:href="#DejaVuSans-30"/>
       <use xlink:href="#DejaVuSans-2e" transform="translate(63.623047 0)"/>
       <use xlink:href="#DejaVuSans-30" transform="translate(95.410156 0)"/>
      </g>
     </g>
    </g>
    <g id="ytick_7">
     <g id="line2d_30">
      <g>
       <use xlink:href="#mf220e1ee0c" x="498.560938" y="271.727005" style="stroke: #000000; stroke-width: 0.8"/>
      </g>
     </g>
     <g id="text_18">
      <!-- 0.5 -->
      <g transform="translate(505.560938 275.526224) scale(0.1 -0.1)">
       <use xlink:href="#DejaVuSans-30"/>
       <use xlink:href="#DejaVuSans-2e" transform="translate(63.623047 0)"/>
       <use xlink:href="#DejaVuSans-35" transform="translate(95.410156 0)"/>
      </g>
     </g>
    </g>
    <g id="ytick_8">
     <g id="line2d_31">
      <g>
       <use xlink:href="#mf220e1ee0c" x="498.560938" y="203.616695" style="stroke: #000000; stroke-width: 0.8"/>
      </g>
     </g>
     <g id="text_19">
      <!-- 1.0 -->
      <g transform="translate(505.560938 207.415914) scale(0.1 -0.1)">
       <use xlink:href="#DejaVuSans-31"/>
       <use xlink:href="#DejaVuSans-2e" transform="translate(63.623047 0)"/>
       <use xlink:href="#DejaVuSans-30" transform="translate(95.410156 0)"/>
      </g>
     </g>
    </g>
    <g id="ytick_9">
     <g id="line2d_32">
      <g>
       <use xlink:href="#mf220e1ee0c" x="498.560938" y="135.506385" style="stroke: #000000; stroke-width: 0.8"/>
      </g>
     </g>
     <g id="text_20">
      <!-- 1.5 -->
      <g transform="translate(505.560938 139.305603) scale(0.1 -0.1)">
       <use xlink:href="#DejaVuSans-31"/>
       <use xlink:href="#DejaVuSans-2e" transform="translate(63.623047 0)"/>
       <use xlink:href="#DejaVuSans-35" transform="translate(95.410156 0)"/>
      </g>
     </g>
    </g>
    <g id="ytick_10">
     <g id="line2d_33">
      <g>
       <use xlink:href="#mf220e1ee0c" x="498.560938" y="67.396075" style="stroke: #000000; stroke-width: 0.8"/>
      </g>
     </g>
     <g id="text_21">
      <!-- 2.0 -->
      <g transform="translate(505.560938 71.195293) scale(0.1 -0.1)">
       <use xlink:href="#DejaVuSans-32"/>
       <use xlink:href="#DejaVuSans-2e" transform="translate(63.623047 0)"/>
       <use xlink:href="#DejaVuSans-30" transform="translate(95.410156 0)"/>
      </g>
     </g>
    </g>
    <g id="text_22">
     <!-- Angular Velocity (Rad/s) -->
     <g transform="translate(533.0625 248.663125) rotate(-90) scale(0.1 -0.1)">
      <defs>
       <path id="DejaVuSans-67" d="M 2906 1791 
Q 2906 2416 2648 2759 
Q 2391 3103 1925 3103 
Q 1463 3103 1205 2759 
Q 947 2416 947 1791 
Q 947 1169 1205 825 
Q 1463 481 1925 481 
Q 2391 481 2648 825 
Q 2906 1169 2906 1791 
z
M 3481 434 
Q 3481 -459 3084 -895 
Q 2688 -1331 1869 -1331 
Q 1566 -1331 1297 -1286 
Q 1028 -1241 775 -1147 
L 775 -588 
Q 1028 -725 1275 -790 
Q 1522 -856 1778 -856 
Q 2344 -856 2625 -561 
Q 2906 -266 2906 331 
L 2906 616 
Q 2728 306 2450 153 
Q 2172 0 1784 0 
Q 1141 0 747 490 
Q 353 981 353 1791 
Q 353 2603 747 3093 
Q 1141 3584 1784 3584 
Q 2172 3584 2450 3431 
Q 2728 3278 2906 2969 
L 2906 3500 
L 3481 3500 
L 3481 434 
z
" transform="scale(0.015625)"/>
       <path id="DejaVuSans-75" d="M 544 1381 
L 544 3500 
L 1119 3500 
L 1119 1403 
Q 1119 906 1312 657 
Q 1506 409 1894 409 
Q 2359 409 2629 706 
Q 2900 1003 2900 1516 
L 2900 3500 
L 3475 3500 
L 3475 0 
L 2900 0 
L 2900 538 
Q 2691 219 2414 64 
Q 2138 -91 1772 -91 
Q 1169 -91 856 284 
Q 544 659 544 1381 
z
M 1991 3584 
L 1991 3584 
z
" transform="scale(0.015625)"/>
       <path id="DejaVuSans-56" d="M 1831 0 
L 50 4666 
L 709 4666 
L 2188 738 
L 3669 4666 
L 4325 4666 
L 2547 0 
L 1831 0 
z
" transform="scale(0.015625)"/>
       <path id="DejaVuSans-79" d="M 2059 -325 
Q 1816 -950 1584 -1140 
Q 1353 -1331 966 -1331 
L 506 -1331 
L 506 -850 
L 844 -850 
Q 1081 -850 1212 -737 
Q 1344 -625 1503 -206 
L 1606 56 
L 191 3500 
L 800 3500 
L 1894 763 
L 2988 3500 
L 3597 3500 
L 2059 -325 
z
" transform="scale(0.015625)"/>
       <path id="DejaVuSans-52" d="M 2841 2188 
Q 3044 2119 3236 1894 
Q 3428 1669 3622 1275 
L 4263 0 
L 3584 0 
L 2988 1197 
Q 2756 1666 2539 1819 
Q 2322 1972 1947 1972 
L 1259 1972 
L 1259 0 
L 628 0 
L 628 4666 
L 2053 4666 
Q 2853 4666 3247 4331 
Q 3641 3997 3641 3322 
Q 3641 2881 3436 2590 
Q 3231 2300 2841 2188 
z
M 1259 4147 
L 1259 2491 
L 2053 2491 
Q 2509 2491 2742 2702 
Q 2975 2913 2975 3322 
Q 2975 3731 2742 3939 
Q 2509 4147 2053 4147 
L 1259 4147 
z
" transform="scale(0.015625)"/>
       <path id="DejaVuSans-64" d="M 2906 2969 
L 2906 4863 
L 3481 4863 
L 3481 0 
L 2906 0 
L 2906 525 
Q 2725 213 2448 61 
Q 2172 -91 1784 -91 
Q 1150 -91 751 415 
Q 353 922 353 1747 
Q 353 2572 751 3078 
Q 1150 3584 1784 3584 
Q 2172 3584 2448 3432 
Q 2725 3281 2906 2969 
z
M 947 1747 
Q 947 1113 1208 752 
Q 1469 391 1925 391 
Q 2381 391 2643 752 
Q 2906 1113 2906 1747 
Q 2906 2381 2643 2742 
Q 2381 3103 1925 3103 
Q 1469 3103 1208 2742 
Q 947 2381 947 1747 
z
" transform="scale(0.015625)"/>
      </defs>
      <use xlink:href="#DejaVuSans-41"/>
      <use xlink:href="#DejaVuSans-6e" transform="translate(68.408203 0)"/>
      <use xlink:href="#DejaVuSans-67" transform="translate(131.787109 0)"/>
      <use xlink:href="#DejaVuSans-75" transform="translate(195.263672 0)"/>
      <use xlink:href="#DejaVuSans-6c" transform="translate(258.642578 0)"/>
      <use xlink:href="#DejaVuSans-61" transform="translate(286.425781 0)"/>
      <use xlink:href="#DejaVuSans-72" transform="translate(347.705078 0)"/>
      <use xlink:href="#DejaVuSans-20" transform="translate(388.818359 0)"/>
      <use xlink:href="#DejaVuSans-56" transform="translate(420.605469 0)"/>
      <use xlink:href="#DejaVuSans-65" transform="translate(481.263672 0)"/>
      <use xlink:href="#DejaVuSans-6c" transform="translate(542.787109 0)"/>
      <use xlink:href="#DejaVuSans-6f" transform="translate(570.570312 0)"/>
      <use xlink:href="#DejaVuSans-63" transform="translate(631.751953 0)"/>
      <use xlink:href="#DejaVuSans-69" transform="translate(686.732422 0)"/>
      <use xlink:href="#DejaVuSans-74" transform="translate(714.515625 0)"/>
      <use xlink:href="#DejaVuSans-79" transform="translate(753.724609 0)"/>
      <use xlink:href="#DejaVuSans-20" transform="translate(812.904297 0)"/>
      <use xlink:href="#DejaVuSans-28" transform="translate(844.691406 0)"/>
      <use xlink:href="#DejaVuSans-52" transform="translate(883.705078 0)"/>
      <use xlink:href="#DejaVuSans-61" transform="translate(950.9375 0)"/>
      <use xlink:href="#DejaVuSans-64" transform="translate(1012.216797 0)"/>
      <use xlink:href="#DejaVuSans-2f" transform="translate(1075.693359 0)"/>
      <use xlink:href="#DejaVuSans-73" transform="translate(1109.384766 0)"/>
      <use xlink:href="#DejaVuSans-29" transform="translate(1161.484375 0)"/>
     </g>
    </g>
   </g>
   <g id="line2d_34">
    <path d="M 72.451847 339.837812 
L 164.188182 339.76932 
L 165.10972 330.762265 
L 166.081628 282.485525 
L 167.046455 240.697939 
L 167.873482 188.248964 
L 168.794299 170.626825 
L 170.635605 118.91531 
L 171.529642 86.578897 
L 172.447503 68.270827 
L 173.437408 75.216052 
L 174.396777 67.486078 
L 175.243895 37.438125 
L 176.163042 68.130098 
L 177.083201 73.056662 
L 178.005014 79.403707 
L 178.925196 83.725793 
L 179.847903 91.457039 
L 180.768729 93.859457 
L 181.749631 100.496142 
L 182.674354 81.918545 
L 183.837968 68.434304 
L 184.759185 84.854181 
L 185.682646 84.828081 
L 186.651558 93.159462 
L 187.607225 87.114419 
L 188.446039 59.294774 
L 189.365201 83.849085 
L 190.287219 83.328541 
L 191.208428 80.274436 
L 192.130085 79.557365 
L 193.051451 79.304556 
L 194.01089 90.449506 
L 195.001368 92.21406 
L 196.119914 49.327346 
L 197.049303 82.3295 
L 197.972645 84.210845 
L 198.923678 91.841122 
L 199.889665 98.195603 
L 200.728549 55.929942 
L 201.647892 83.161248 
L 202.568867 84.430278 
L 203.490782 86.344203 
L 204.413309 78.419873 
L 205.333146 79.21764 
L 206.257155 89.785641 
L 207.242042 105.817622 
L 208.098288 70.077837 
L 209.017615 86.909956 
L 209.93953 88.925481 
L 210.800137 66.69955 
L 211.787282 96.433339 
L 212.703669 73.449248 
L 213.626791 72.254691 
L 214.613748 95.836918 
L 216.3886 74.188425 
L 217.307755 84.253244 
L 218.006604 111.016108 
L 218.846155 55.28028 
L 219.764086 82.541941 
L 220.489449 124.138477 
L 221.299953 50.154499 
L 222.21892 85.171393 
L 223.141376 87.907344 
L 224.062852 91.105118 
L 224.953776 82.852053 
L 225.906228 93.892935 
L 226.846831 85.711281 
L 227.828863 94.330947 
L 228.669394 51.168756 
L 229.590666 77.689066 
L 230.511021 77.837228 
L 231.431438 83.56346 
L 232.352051 84.336721 
L 233.273041 79.285384 
L 234.220255 90.244005 
L 235.186093 96.150614 
L 236.102449 79.081189 
L 236.962537 60.693385 
L 237.849469 70.143048 
L 238.769205 82.403188 
L 239.722284 104.12797 
L 240.64354 97.817583 
L 241.56642 95.246721 
L 242.531467 106.139219 
L 243.517482 108.215445 
L 244.330292 58.043216 
L 245.249407 92.067162 
L 246.169394 88.920541 
L 247.093058 87.370011 
L 248.013302 83.421771 
L 248.91046 85.537351 
L 249.897339 117.167828 
L 250.875348 119.619983 
L 251.669462 67.440523 
L 252.621271 110.799003 
L 253.540677 100.596057 
L 254.462341 103.697821 
L 255.382578 109.70708 
L 256.305505 113.804617 
L 257.233145 116.174721 
L 258.218933 130.224657 
L 259.068075 94.444496 
L 260.006905 115.851131 
L 260.927017 110.221643 
L 261.85181 110.439699 
L 262.766009 106.861673 
L 263.686332 111.142194 
L 264.607691 112.908199 
L 265.578446 129.689288 
L 266.520774 128.283931 
L 267.368214 110.988851 
L 268.286137 129.259431 
L 269.21395 128.447465 
L 270.13294 123.496722 
L 271.049452 121.729546 
L 271.966874 121.619846 
L 272.926729 134.400171 
L 273.907428 139.997741 
L 274.729569 102.441764 
L 275.64754 127.108583 
L 276.570255 130.911855 
L 277.490751 138.879844 
L 278.380247 130.297416 
L 279.334126 143.302894 
L 280.271812 140.715788 
L 281.26407 150.724598 
L 282.096625 116.944204 
L 283.019937 142.242386 
L 283.939256 139.85893 
L 284.860301 139.224961 
L 285.783094 143.042413 
L 286.702657 143.557684 
L 287.623553 142.650127 
L 288.578114 148.642085 
L 289.496469 140.353619 
L 290.38646 135.137793 
L 291.308634 147.298099 
L 292.228298 150.357103 
L 294.070835 145.099623 
L 294.992288 149.275392 
L 295.963741 162.959939 
L 296.942448 164.665235 
L 297.75692 130.497525 
L 298.677118 161.951088 
L 299.596727 165.47579 
L 301.438809 161.055751 
L 302.330972 156.636912 
L 303.306558 170.574928 
L 304.296095 174.350223 
L 305.126109 138.872604 
L 306.044354 158.547664 
L 306.965964 164.229745 
L 307.888263 165.160456 
L 308.809104 165.789463 
L 309.730847 165.084224 
L 310.679872 171.161057 
L 311.64575 172.992841 
L 312.494483 148.306738 
L 313.415991 165.202247 
L 314.335796 169.032494 
L 315.256637 176.125426 
L 316.178419 176.353396 
L 317.100609 168.774571 
L 317.991446 152.649856 
L 318.992801 174.690111 
L 319.947198 177.394129 
L 320.785666 160.427498 
L 321.706735 173.16179 
L 322.410242 192.319921 
L 323.551389 157.663677 
L 324.47139 175.416114 
L 325.413875 178.867852 
L 326.345146 177.598649 
L 327.32688 194.388438 
L 328.153209 169.471996 
L 329.075171 183.379652 
L 329.793759 202.15322 
L 330.622135 159.832314 
L 331.541987 180.011217 
L 332.463009 184.488471 
L 333.382305 179.842531 
L 334.30066 182.836178 
L 335.223492 183.757799 
L 336.147274 179.561574 
L 337.139313 190.987374 
L 337.984235 166.613968 
L 338.902245 179.342675 
L 339.821086 184.817574 
L 340.741903 192.46857 
L 341.671394 196.125162 
L 342.586291 189.2355 
L 343.512182 190.137104 
L 344.484686 199.304199 
L 345.318527 177.276144 
L 346.271058 196.727445 
L 347.190252 189.897932 
L 348.113406 188.133725 
L 349.031134 185.754814 
L 349.953394 188.805552 
L 350.874996 189.893529 
L 351.847766 200.020367 
L 352.778167 192.732681 
L 353.640263 175.67058 
L 354.559198 189.992378 
L 355.246982 211.201811 
L 356.094328 181.807879 
L 357.014965 193.80947 
L 357.937249 198.974252 
L 358.857407 199.97152 
L 359.780366 198.412852 
L 360.701222 196.587576 
L 362.638718 208.281434 
L 363.464984 177.660989 
L 364.385284 199.712596 
L 366.228103 199.738228 
L 367.148787 201.602786 
L 368.039491 196.727701 
L 369.016112 209.848732 
L 369.970681 206.464911 
L 370.913888 206.178469 
L 371.757461 192.883204 
L 372.676232 207.311293 
L 373.37196 223.1802 
L 374.213314 194.651073 
L 375.132069 206.099643 
L 376.976119 208.804265 
L 377.897022 207.857531 
L 378.820122 204.852994 
L 379.776573 208.198994 
L 380.76564 212.303777 
L 381.58524 187.276872 
L 382.526753 212.211388 
L 383.398032 204.241754 
L 384.315626 208.12299 
L 385.237314 201.245452 
L 386.186418 208.352001 
L 387.130236 213.53283 
L 388.072438 213.127269 
L 388.952007 206.518432 
L 389.871044 212.612045 
L 390.79259 209.202328 
L 391.713031 213.231745 
L 392.655116 218.611068 
L 393.574169 210.395166 
L 394.494994 209.450067 
L 395.468659 217.41818 
L 397.251824 208.057656 
L 398.174719 214.265977 
L 399.090863 213.23936 
L 400.012096 217.855453 
L 400.930059 215.653909 
L 401.85635 220.934669 
L 402.809116 227.016133 
L 403.796449 226.768016 
L 404.583583 195.437209 
L 405.53242 221.812188 
L 406.421626 216.818341 
L 407.373843 225.89936 
L 408.300699 216.427118 
L 409.216458 216.454186 
L 410.158543 221.01522 
L 411.14023 224.928041 
L 411.98142 205.005407 
L 412.899696 212.184523 
L 413.820553 215.495453 
L 414.742413 220.223677 
L 415.664972 223.332355 
L 416.585373 225.490831 
L 417.512707 225.738101 
L 418.493446 231.378295 
L 419.349707 217.931354 
L 420.269435 224.17189 
L 421.190025 222.100432 
L 422.111368 226.842494 
L 423.03086 226.491016 
L 423.952838 225.825702 
L 424.874533 224.212288 
L 425.859004 229.195414 
L 426.799638 225.543745 
L 427.639754 212.825443 
L 428.558524 227.154661 
L 429.479836 231.349765 
L 430.400308 228.15289 
L 431.322466 225.77362 
L 432.243519 229.96538 
L 433.198261 234.87577 
L 434.185516 235.92936 
L 435.007218 214.630028 
L 435.927353 228.52501 
L 436.84959 229.110971 
L 437.741384 226.549575 
L 438.694549 231.905724 
L 439.621727 226.552614 
L 440.55535 227.338671 
L 441.543381 233.141625 
L 442.375835 217.677451 
L 443.296284 228.320936 
L 444.218779 229.525176 
L 445.140099 232.432291 
L 446.030826 227.221534 
L 446.991003 235.083956 
L 447.909836 233.045144 
L 448.882426 244.713505 
L 449.748161 236.229411 
L 450.669151 238.612722 
L 451.556797 230.977123 
L 452.26686 246.816908 
L 453.428937 223.573835 
L 454.351495 231.414953 
L 455.274304 238.007376 
L 456.238002 240.51877 
L 457.207361 239.429074 
L 458.036153 220.52331 
L 458.926637 229.229724 
L 459.846247 231.991082 
L 460.797938 233.385839 
L 462.655986 242.833112 
L 463.586551 238.711149 
L 464.576912 243.893438 
L 465.374649 222.257875 
L 466.325822 240.582521 
L 467.04012 251.838829 
L 468.168908 226.154269 
L 469.090925 234.533261 
L 470.01088 235.499393 
L 470.959921 238.571691 
L 471.936408 242.956445 
L 472.776688 227.442612 
L 473.694251 236.267937 
L 474.616504 241.608073 
L 475.289051 252.380629 
L 476.458609 238.171225 
L 477.385002 244.995793 
L 478.270028 241.864442 
L 478.270028 241.864442 
" clip-path="url(#p8c1b3896c3)" style="fill: none; stroke: #008000; stroke-width: 1.5; stroke-linecap: square"/>
   </g>
   <g id="patch_8">
    <path d="M 52.160938 354.958125 
L 52.160938 22.318125 
" style="fill: none; stroke: #000000; stroke-width: 0.8; stroke-linejoin: miter; stroke-linecap: square"/>
   </g>
   <g id="patch_9">
    <path d="M 498.560938 354.958125 
L 498.560938 22.318125 
" style="fill: none; stroke: #000000; stroke-width: 0.8; stroke-linejoin: miter; stroke-linecap: square"/>
   </g>
   <g id="patch_10">
    <path d="M 52.160938 354.958125 
L 498.560938 354.958125 
" style="fill: none; stroke: #000000; stroke-width: 0.8; stroke-linejoin: miter; stroke-linecap: square"/>
   </g>
   <g id="patch_11">
    <path d="M 52.160938 22.318125 
L 498.560938 22.318125 
" style="fill: none; stroke: #000000; stroke-width: 0.8; stroke-linejoin: miter; stroke-linecap: square"/>
   </g>
   <g id="text_23">
    <!-- Imu Data Log (Spiral Motion) -->
    <g transform="translate(189.154062 16.318125) scale(0.12 -0.12)">
     <defs>
      <path id="DejaVuSans-49" d="M 628 4666 
L 1259 4666 
L 1259 0 
L 628 0 
L 628 4666 
z
" transform="scale(0.015625)"/>
      <path id="DejaVuSans-44" d="M 1259 4147 
L 1259 519 
L 2022 519 
Q 2988 519 3436 956 
Q 3884 1394 3884 2338 
Q 3884 3275 3436 3711 
Q 2988 4147 2022 4147 
L 1259 4147 
z
M 628 4666 
L 1925 4666 
Q 3281 4666 3915 4102 
Q 4550 3538 4550 2338 
Q 4550 1131 3912 565 
Q 3275 0 1925 0 
L 628 0 
L 628 4666 
z
" transform="scale(0.015625)"/>
      <path id="DejaVuSans-53" d="M 3425 4513 
L 3425 3897 
Q 3066 4069 2747 4153 
Q 2428 4238 2131 4238 
Q 1616 4238 1336 4038 
Q 1056 3838 1056 3469 
Q 1056 3159 1242 3001 
Q 1428 2844 1947 2747 
L 2328 2669 
Q 3034 2534 3370 2195 
Q 3706 1856 3706 1288 
Q 3706 609 3251 259 
Q 2797 -91 1919 -91 
Q 1588 -91 1214 -16 
Q 841 59 441 206 
L 441 856 
Q 825 641 1194 531 
Q 1563 422 1919 422 
Q 2459 422 2753 634 
Q 3047 847 3047 1241 
Q 3047 1584 2836 1778 
Q 2625 1972 2144 2069 
L 1759 2144 
Q 1053 2284 737 2584 
Q 422 2884 422 3419 
Q 422 4038 858 4394 
Q 1294 4750 2059 4750 
Q 2388 4750 2728 4690 
Q 3069 4631 3425 4513 
z
" transform="scale(0.015625)"/>
      <path id="DejaVuSans-4d" d="M 628 4666 
L 1569 4666 
L 2759 1491 
L 3956 4666 
L 4897 4666 
L 4897 0 
L 4281 0 
L 4281 4097 
L 3078 897 
L 2444 897 
L 1241 4097 
L 1241 0 
L 628 0 
L 628 4666 
z
" transform="scale(0.015625)"/>
     </defs>
     <use xlink:href="#DejaVuSans-49"/>
     <use xlink:href="#DejaVuSans-6d" transform="translate(29.492188 0)"/>
     <use xlink:href="#DejaVuSans-75" transform="translate(126.904297 0)"/>
     <use xlink:href="#DejaVuSans-20" transform="translate(190.283203 0)"/>
     <use xlink:href="#DejaVuSans-44" transform="translate(222.070312 0)"/>
     <use xlink:href="#DejaVuSans-61" transform="translate(299.072266 0)"/>
     <use xlink:href="#DejaVuSans-74" transform="translate(360.351562 0)"/>
     <use xlink:href="#DejaVuSans-61" transform="translate(399.560547 0)"/>
     <use xlink:href="#DejaVuSans-20" transform="translate(460.839844 0)"/>
     <use xlink:href="#DejaVuSans-4c" transform="translate(492.626953 0)"/>
     <use xlink:href="#DejaVuSans-6f" transform="translate(546.589844 0)"/>
     <use xlink:href="#DejaVuSans-67" transform="translate(607.771484 0)"/>
     <use xlink:href="#DejaVuSans-20" transform="translate(671.248047 0)"/>
     <use xlink:href="#DejaVuSans-28" transform="translate(703.035156 0)"/>
     <use xlink:href="#DejaVuSans-53" transform="translate(742.048828 0)"/>
     <use xlink:href="#DejaVuSans-70" transform="translate(805.525391 0)"/>
     <use xlink:href="#DejaVuSans-69" transform="translate(869.001953 0)"/>
     <use xlink:href="#DejaVuSans-72" transform="translate(896.785156 0)"/>
     <use xlink:href="#DejaVuSans-61" transform="translate(937.898438 0)"/>
     <use xlink:href="#DejaVuSans-6c" transform="translate(999.177734 0)"/>
     <use xlink:href="#DejaVuSans-20" transform="translate(1026.960938 0)"/>
     <use xlink:href="#DejaVuSans-4d" transform="translate(1058.748047 0)"/>
     <use xlink:href="#DejaVuSans-6f" transform="translate(1145.027344 0)"/>
     <use xlink:href="#DejaVuSans-74" transform="translate(1206.208984 0)"/>
     <use xlink:href="#DejaVuSans-69" transform="translate(1245.417969 0)"/>
     <use xlink:href="#DejaVuSans-6f" transform="translate(1273.201172 0)"/>
     <use xlink:href="#DejaVuSans-6e" transform="translate(1334.382812 0)"/>
     <use xlink:href="#DejaVuSans-29" transform="translate(1397.761719 0)"/>
    </g>
   </g>
   <g id="legend_2">
    <g id="patch_12">
     <path d="M 378.270313 44.99625 
L 491.560938 44.99625 
Q 493.560938 44.99625 493.560938 42.99625 
L 493.560938 29.318125 
Q 493.560938 27.318125 491.560938 27.318125 
L 378.270313 27.318125 
Q 376.270313 27.318125 376.270313 29.318125 
L 376.270313 42.99625 
Q 376.270313 44.99625 378.270313 44.99625 
z
" style="fill: #ffffff; opacity: 0.8; stroke: #cccccc; stroke-linejoin: miter"/>
    </g>
    <g id="line2d_35">
     <path d="M 380.270313 35.416563 
L 390.270313 35.416563 
L 400.270313 35.416563 
" style="fill: none; stroke: #008000; stroke-width: 1.5; stroke-linecap: square"/>
    </g>
    <g id="text_24">
     <!-- Angular Velocity -->
     <g transform="translate(408.270313 38.916563) scale(0.1 -0.1)">
      <use xlink:href="#DejaVuSans-41"/>
      <use xlink:href="#DejaVuSans-6e" transform="translate(68.408203 0)"/>
      <use xlink:href="#DejaVuSans-67" transform="translate(131.787109 0)"/>
      <use xlink:href="#DejaVuSans-75" transform="translate(195.263672 0)"/>
      <use xlink:href="#DejaVuSans-6c" transform="translate(258.642578 0)"/>
      <use xlink:href="#DejaVuSans-61" transform="translate(286.425781 0)"/>
      <use xlink:href="#DejaVuSans-72" transform="translate(347.705078 0)"/>
      <use xlink:href="#DejaVuSans-20" transform="translate(388.818359 0)"/>
      <use xlink:href="#DejaVuSans-56" transform="translate(420.605469 0)"/>
      <use xlink:href="#DejaVuSans-65" transform="translate(481.263672 0)"/>
      <use xlink:href="#DejaVuSans-6c" transform="translate(542.787109 0)"/>
      <use xlink:href="#DejaVuSans-6f" transform="translate(570.570312 0)"/>
      <use xlink:href="#DejaVuSans-63" transform="translate(631.751953 0)"/>
      <use xlink:href="#DejaVuSans-69" transform="translate(686.732422 0)"/>
      <use xlink:href="#DejaVuSans-74" transform="translate(714.515625 0)"/>
      <use xlink:href="#DejaVuSans-79" transform="translate(753.724609 0)"/>
     </g>
    </g>
   </g>
  </g>
 </g>
 <defs>
  <clipPath id="p8c1b3896c3">
   <rect x="52.160938" y="22.318125" width="446.4" height="332.64"/>
  </clipPath>
 </defs>
</svg>
