<?xml version="1.0" encoding="utf-8" standalone="no"?>
<!DOCTYPE svg PUBLIC "-//W3C//DTD SVG 1.1//EN"
  "http://www.w3.org/Graphics/SVG/1.1/DTD/svg11.dtd">
<svg xmlns:xlink="http://www.w3.org/1999/xlink" width="856.470937pt" height="423.034375pt" viewBox="0 0 856.470937 423.034375" xmlns="http://www.w3.org/2000/svg" version="1.1">
 <metadata>
  <rdf:RDF xmlns:dc="http://purl.org/dc/elements/1.1/" xmlns:cc="http://creativecommons.org/ns#" xmlns:rdf="http://www.w3.org/1999/02/22-rdf-syntax-ns#">
   <cc:Work>
    <dc:type rdf:resource="http://purl.org/dc/dcmitype/StillImage"/>
    <dc:date>2025-10-09T14:28:08.323332</dc:date>
    <dc:format>image/svg+xml</dc:format>
    <dc:creator>
     <cc:Agent>
      <dc:title>Matplotlib v3.10.6, https://matplotlib.org/</dc:title>
     </cc:Agent>
    </dc:creator>
   </cc:Work>
  </rdf:RDF>
 </metadata>
 <defs>
  <style type="text/css">*{stroke-linejoin: round; stroke-linecap: butt}</style>
 </defs>
 <g id="figure_1">
  <g id="patch_1">
   <path d="M 0 423.034375 
L 856.470937 423.034375 
L 856.470937 0 
L 0 0 
z
" style="fill: #ffffff"/>
  </g>
  <g id="axes_1">
   <g id="patch_2">
    <path d="M 52.160938 385.478125 
L 405.785938 385.478125 
L 405.785938 22.318125 
L 52.160938 22.318125 
z
" style="fill: #ffffff"/>
   </g>
   <g id="matplotlib.axis_1">
    <g id="xtick_1">
     <g id="line2d_1">
      <path d="M 68.234801 385.478125 
L 68.234801 22.318125 
" clip-path="url(#pb00ef9baa3)" style="fill: none; stroke: #b0b0b0; stroke-width: 0.8; stroke-linecap: square"/>
     </g>
     <g id="line2d_2">
      <defs>
       <path id="mcf52e2ae46" d="M 0 0 
L 0 3.5 
" style="stroke: #000000; stroke-width: 0.8"/>
      </defs>
      <g>
       <use xlink:href="#mcf52e2ae46" x="68.234801" y="385.478125" style="stroke: #000000; stroke-width: 0.8"/>
      </g>
     </g>
     <g id="text_1">
      <!-- 0 -->
      <g transform="translate(65.053551 400.076562) scale(0.1 -0.1)">
       <defs>
        <path id="DejaVuSans-30" d="M 2034 4250 
Q 1547 4250 1301 3770 
Q 1056 3291 1056 2328 
Q 1056 1369 1301 889 
Q 1547 409 2034 409 
Q 2525 409 2770 889 
Q 3016 1369 3016 2328 
Q 3016 3291 2770 3770 
Q 2525 4250 2034 4250 
z
M 2034 4750 
Q 2819 4750 3233 4129 
Q 3647 3509 3647 2328 
Q 3647 1150 3233 529 
Q 2819 -91 2034 -91 
Q 1250 -91 836 529 
Q 422 1150 422 2328 
Q 422 3509 836 4129 
Q 1250 4750 2034 4750 
z
" transform="scale(0.015625)"/>
       </defs>
       <use xlink:href="#DejaVuSans-30"/>
      </g>
     </g>
    </g>
    <g id="xtick_2">
     <g id="line2d_3">
      <path d="M 120.698347 385.478125 
L 120.698347 22.318125 
" clip-path="url(#pb00ef9baa3)" style="fill: none; stroke: #b0b0b0; stroke-width: 0.8; stroke-linecap: square"/>
     </g>
     <g id="line2d_4">
      <g>
       <use xlink:href="#mcf52e2ae46" x="120.698347" y="385.478125" style="stroke: #000000; stroke-width: 0.8"/>
      </g>
     </g>
     <g id="text_2">
      <!-- 2 -->
      <g transform="translate(117.517097 400.076562) scale(0.1 -0.1)">
       <defs>
        <path id="DejaVuSans-32" d="M 1228 531 
L 3431 531 
L 3431 0 
L 469 0 
L 469 531 
Q 828 903 1448 1529 
Q 2069 2156 2228 2338 
Q 2531 2678 2651 2914 
Q 2772 3150 2772 3378 
Q 2772 3750 2511 3984 
Q 2250 4219 1831 4219 
Q 1534 4219 1204 4116 
Q 875 4013 500 3803 
L 500 4441 
Q 881 4594 1212 4672 
Q 1544 4750 1819 4750 
Q 2544 4750 2975 4387 
Q 3406 4025 3406 3419 
Q 3406 3131 3298 2873 
Q 3191 2616 2906 2266 
Q 2828 2175 2409 1742 
Q 1991 1309 1228 531 
z
" transform="scale(0.015625)"/>
       </defs>
       <use xlink:href="#DejaVuSans-32"/>
      </g>
     </g>
    </g>
    <g id="xtick_3">
     <g id="line2d_5">
      <path d="M 173.161892 385.478125 
L 173.161892 22.318125 
" clip-path="url(#pb00ef9baa3)" style="fill: none; stroke: #b0b0b0; stroke-width: 0.8; stroke-linecap: square"/>
     </g>
     <g id="line2d_6">
      <g>
       <use xlink:href="#mcf52e2ae46" x="173.161892" y="385.478125" style="stroke: #000000; stroke-width: 0.8"/>
      </g>
     </g>
     <g id="text_3">
      <!-- 4 -->
      <g transform="translate(169.980642 400.076562) scale(0.1 -0.1)">
       <defs>
        <path id="DejaVuSans-34" d="M 2419 4116 
L 825 1625 
L 2419 1625 
L 2419 4116 
z
M 2253 4666 
L 3047 4666 
L 3047 1625 
L 3713 1625 
L 3713 1100 
L 3047 1100 
L 3047 0 
L 2419 0 
L 2419 1100 
L 313 1100 
L 313 1709 
L 2253 4666 
z
" transform="scale(0.015625)"/>
       </defs>
       <use xlink:href="#DejaVuSans-34"/>
      </g>
     </g>
    </g>
    <g id="xtick_4">
     <g id="line2d_7">
      <path d="M 225.625437 385.478125 
L 225.625437 22.318125 
" clip-path="url(#pb00ef9baa3)" style="fill: none; stroke: #b0b0b0; stroke-width: 0.8; stroke-linecap: square"/>
     </g>
     <g id="line2d_8">
      <g>
       <use xlink:href="#mcf52e2ae46" x="225.625437" y="385.478125" style="stroke: #000000; stroke-width: 0.8"/>
      </g>
     </g>
     <g id="text_4">
      <!-- 6 -->
      <g transform="translate(222.444187 400.076562) scale(0.1 -0.1)">
       <defs>
        <path id="DejaVuSans-36" d="M 2113 2584 
Q 1688 2584 1439 2293 
Q 1191 2003 1191 1497 
Q 1191 994 1439 701 
Q 1688 409 2113 409 
Q 2538 409 2786 701 
Q 3034 994 3034 1497 
Q 3034 2003 2786 2293 
Q 2538 2584 2113 2584 
z
M 3366 4563 
L 3366 3988 
Q 3128 4100 2886 4159 
Q 2644 4219 2406 4219 
Q 1781 4219 1451 3797 
Q 1122 3375 1075 2522 
Q 1259 2794 1537 2939 
Q 1816 3084 2150 3084 
Q 2853 3084 3261 2657 
Q 3669 2231 3669 1497 
Q 3669 778 3244 343 
Q 2819 -91 2113 -91 
Q 1303 -91 875 529 
Q 447 1150 447 2328 
Q 447 3434 972 4092 
Q 1497 4750 2381 4750 
Q 2619 4750 2861 4703 
Q 3103 4656 3366 4563 
z
" transform="scale(0.015625)"/>
       </defs>
       <use xlink:href="#DejaVuSans-36"/>
      </g>
     </g>
    </g>
    <g id="xtick_5">
     <g id="line2d_9">
      <path d="M 278.088983 385.478125 
L 278.088983 22.318125 
" clip-path="url(#pb00ef9baa3)" style="fill: none; stroke: #b0b0b0; stroke-width: 0.8; stroke-linecap: square"/>
     </g>
     <g id="line2d_10">
      <g>
       <use xlink:href="#mcf52e2ae46" x="278.088983" y="385.478125" style="stroke: #000000; stroke-width: 0.8"/>
      </g>
     </g>
     <g id="text_5">
      <!-- 8 -->
      <g transform="translate(274.907733 400.076562) scale(0.1 -0.1)">
       <defs>
        <path id="DejaVuSans-38" d="M 2034 2216 
Q 1584 2216 1326 1975 
Q 1069 1734 1069 1313 
Q 1069 891 1326 650 
Q 1584 409 2034 409 
Q 2484 409 2743 651 
Q 3003 894 3003 1313 
Q 3003 1734 2745 1975 
Q 2488 2216 2034 2216 
z
M 1403 2484 
Q 997 2584 770 2862 
Q 544 3141 544 3541 
Q 544 4100 942 4425 
Q 1341 4750 2034 4750 
Q 2731 4750 3128 4425 
Q 3525 4100 3525 3541 
Q 3525 3141 3298 2862 
Q 3072 2584 2669 2484 
Q 3125 2378 3379 2068 
Q 3634 1759 3634 1313 
Q 3634 634 3220 271 
Q 2806 -91 2034 -91 
Q 1263 -91 848 271 
Q 434 634 434 1313 
Q 434 1759 690 2068 
Q 947 2378 1403 2484 
z
M 1172 3481 
Q 1172 3119 1398 2916 
Q 1625 2713 2034 2713 
Q 2441 2713 2670 2916 
Q 2900 3119 2900 3481 
Q 2900 3844 2670 4047 
Q 2441 4250 2034 4250 
Q 1625 4250 1398 4047 
Q 1172 3844 1172 3481 
z
" transform="scale(0.015625)"/>
       </defs>
       <use xlink:href="#DejaVuSans-38"/>
      </g>
     </g>
    </g>
    <g id="xtick_6">
     <g id="line2d_11">
      <path d="M 330.552528 385.478125 
L 330.552528 22.318125 
" clip-path="url(#pb00ef9baa3)" style="fill: none; stroke: #b0b0b0; stroke-width: 0.8; stroke-linecap: square"/>
     </g>
     <g id="line2d_12">
      <g>
       <use xlink:href="#mcf52e2ae46" x="330.552528" y="385.478125" style="stroke: #000000; stroke-width: 0.8"/>
      </g>
     </g>
     <g id="text_6">
      <!-- 10 -->
      <g transform="translate(324.190028 400.076562) scale(0.1 -0.1)">
       <defs>
        <path id="DejaVuSans-31" d="M 794 531 
L 1825 531 
L 1825 4091 
L 703 3866 
L 703 4441 
L 1819 4666 
L 2450 4666 
L 2450 531 
L 3481 531 
L 3481 0 
L 794 0 
L 794 531 
z
" transform="scale(0.015625)"/>
       </defs>
       <use xlink:href="#DejaVuSans-31"/>
       <use xlink:href="#DejaVuSans-30" transform="translate(63.623047 0)"/>
      </g>
     </g>
    </g>
    <g id="xtick_7">
     <g id="line2d_13">
      <path d="M 383.016073 385.478125 
L 383.016073 22.318125 
" clip-path="url(#pb00ef9baa3)" style="fill: none; stroke: #b0b0b0; stroke-width: 0.8; stroke-linecap: square"/>
     </g>
     <g id="line2d_14">
      <g>
       <use xlink:href="#mcf52e2ae46" x="383.016073" y="385.478125" style="stroke: #000000; stroke-width: 0.8"/>
      </g>
     </g>
     <g id="text_7">
      <!-- 12 -->
      <g transform="translate(376.653573 400.076562) scale(0.1 -0.1)">
       <use xlink:href="#DejaVuSans-31"/>
       <use xlink:href="#DejaVuSans-32" transform="translate(63.623047 0)"/>
      </g>
     </g>
    </g>
    <g id="text_8">
     <!-- Timestamp (sec) -->
     <g transform="translate(187.145313 413.754687) scale(0.1 -0.1)">
      <defs>
       <path id="DejaVuSans-54" d="M -19 4666 
L 3928 4666 
L 3928 4134 
L 2272 4134 
L 2272 0 
L 1638 0 
L 1638 4134 
L -19 4134 
L -19 4666 
z
" transform="scale(0.015625)"/>
       <path id="DejaVuSans-69" d="M 603 3500 
L 1178 3500 
L 1178 0 
L 603 0 
L 603 3500 
z
M 603 4863 
L 1178 4863 
L 1178 4134 
L 603 4134 
L 603 4863 
z
" transform="scale(0.015625)"/>
       <path id="DejaVuSans-6d" d="M 3328 2828 
Q 3544 3216 3844 3400 
Q 4144 3584 4550 3584 
Q 5097 3584 5394 3201 
Q 5691 2819 5691 2113 
L 5691 0 
L 5113 0 
L 5113 2094 
Q 5113 2597 4934 2840 
Q 4756 3084 4391 3084 
Q 3944 3084 3684 2787 
Q 3425 2491 3425 1978 
L 3425 0 
L 2847 0 
L 2847 2094 
Q 2847 2600 2669 2842 
Q 2491 3084 2119 3084 
Q 1678 3084 1418 2786 
Q 1159 2488 1159 1978 
L 1159 0 
L 581 0 
L 581 3500 
L 1159 3500 
L 1159 2956 
Q 1356 3278 1631 3431 
Q 1906 3584 2284 3584 
Q 2666 3584 2933 3390 
Q 3200 3197 3328 2828 
z
" transform="scale(0.015625)"/>
       <path id="DejaVuSans-65" d="M 3597 1894 
L 3597 1613 
L 953 1613 
Q 991 1019 1311 708 
Q 1631 397 2203 397 
Q 2534 397 2845 478 
Q 3156 559 3463 722 
L 3463 178 
Q 3153 47 2828 -22 
Q 2503 -91 2169 -91 
Q 1331 -91 842 396 
Q 353 884 353 1716 
Q 353 2575 817 3079 
Q 1281 3584 2069 3584 
Q 2775 3584 3186 3129 
Q 3597 2675 3597 1894 
z
M 3022 2063 
Q 3016 2534 2758 2815 
Q 2500 3097 2075 3097 
Q 1594 3097 1305 2825 
Q 1016 2553 972 2059 
L 3022 2063 
z
" transform="scale(0.015625)"/>
       <path id="DejaVuSans-73" d="M 2834 3397 
L 2834 2853 
Q 2591 2978 2328 3040 
Q 2066 3103 1784 3103 
Q 1356 3103 1142 2972 
Q 928 2841 928 2578 
Q 928 2378 1081 2264 
Q 1234 2150 1697 2047 
L 1894 2003 
Q 2506 1872 2764 1633 
Q 3022 1394 3022 966 
Q 3022 478 2636 193 
Q 2250 -91 1575 -91 
Q 1294 -91 989 -36 
Q 684 19 347 128 
L 347 722 
Q 666 556 975 473 
Q 1284 391 1588 391 
Q 1994 391 2212 530 
Q 2431 669 2431 922 
Q 2431 1156 2273 1281 
Q 2116 1406 1581 1522 
L 1381 1569 
Q 847 1681 609 1914 
Q 372 2147 372 2553 
Q 372 3047 722 3315 
Q 1072 3584 1716 3584 
Q 2034 3584 2315 3537 
Q 2597 3491 2834 3397 
z
" transform="scale(0.015625)"/>
       <path id="DejaVuSans-74" d="M 1172 4494 
L 1172 3500 
L 2356 3500 
L 2356 3053 
L 1172 3053 
L 1172 1153 
Q 1172 725 1289 603 
Q 1406 481 1766 481 
L 2356 481 
L 2356 0 
L 1766 0 
Q 1100 0 847 248 
Q 594 497 594 1153 
L 594 3053 
L 172 3053 
L 172 3500 
L 594 3500 
L 594 4494 
L 1172 4494 
z
" transform="scale(0.015625)"/>
       <path id="DejaVuSans-61" d="M 2194 1759 
Q 1497 1759 1228 1600 
Q 959 1441 959 1056 
Q 959 750 1161 570 
Q 1363 391 1709 391 
Q 2188 391 2477 730 
Q 2766 1069 2766 1631 
L 2766 1759 
L 2194 1759 
z
M 3341 1997 
L 3341 0 
L 2766 0 
L 2766 531 
Q 2569 213 2275 61 
Q 1981 -91 1556 -91 
Q 1019 -91 701 211 
Q 384 513 384 1019 
Q 384 1609 779 1909 
Q 1175 2209 1959 2209 
L 2766 2209 
L 2766 2266 
Q 2766 2663 2505 2880 
Q 2244 3097 1772 3097 
Q 1472 3097 1187 3025 
Q 903 2953 641 2809 
L 641 3341 
Q 956 3463 1253 3523 
Q 1550 3584 1831 3584 
Q 2591 3584 2966 3190 
Q 3341 2797 3341 1997 
z
" transform="scale(0.015625)"/>
       <path id="DejaVuSans-70" d="M 1159 525 
L 1159 -1331 
L 581 -1331 
L 581 3500 
L 1159 3500 
L 1159 2969 
Q 1341 3281 1617 3432 
Q 1894 3584 2278 3584 
Q 2916 3584 3314 3078 
Q 3713 2572 3713 1747 
Q 3713 922 3314 415 
Q 2916 -91 2278 -91 
Q 1894 -91 1617 61 
Q 1341 213 1159 525 
z
M 3116 1747 
Q 3116 2381 2855 2742 
Q 2594 3103 2138 3103 
Q 1681 3103 1420 2742 
Q 1159 2381 1159 1747 
Q 1159 1113 1420 752 
Q 1681 391 2138 391 
Q 2594 391 2855 752 
Q 3116 1113 3116 1747 
z
" transform="scale(0.015625)"/>
       <path id="DejaVuSans-20" transform="scale(0.015625)"/>
       <path id="DejaVuSans-28" d="M 1984 4856 
Q 1566 4138 1362 3434 
Q 1159 2731 1159 2009 
Q 1159 1288 1364 580 
Q 1569 -128 1984 -844 
L 1484 -844 
Q 1016 -109 783 600 
Q 550 1309 550 2009 
Q 550 2706 781 3412 
Q 1013 4119 1484 4856 
L 1984 4856 
z
" transform="scale(0.015625)"/>
       <path id="DejaVuSans-63" d="M 3122 3366 
L 3122 2828 
Q 2878 2963 2633 3030 
Q 2388 3097 2138 3097 
Q 1578 3097 1268 2742 
Q 959 2388 959 1747 
Q 959 1106 1268 751 
Q 1578 397 2138 397 
Q 2388 397 2633 464 
Q 2878 531 3122 666 
L 3122 134 
Q 2881 22 2623 -34 
Q 2366 -91 2075 -91 
Q 1284 -91 818 406 
Q 353 903 353 1747 
Q 353 2603 823 3093 
Q 1294 3584 2113 3584 
Q 2378 3584 2631 3529 
Q 2884 3475 3122 3366 
z
" transform="scale(0.015625)"/>
       <path id="DejaVuSans-29" d="M 513 4856 
L 1013 4856 
Q 1481 4119 1714 3412 
Q 1947 2706 1947 2009 
Q 1947 1309 1714 600 
Q 1481 -109 1013 -844 
L 513 -844 
Q 928 -128 1133 580 
Q 1338 1288 1338 2009 
Q 1338 2731 1133 3434 
Q 928 4138 513 4856 
z
" transform="scale(0.015625)"/>
      </defs>
      <use xlink:href="#DejaVuSans-54"/>
      <use xlink:href="#DejaVuSans-69" transform="translate(57.958984 0)"/>
      <use xlink:href="#DejaVuSans-6d" transform="translate(85.742188 0)"/>
      <use xlink:href="#DejaVuSans-65" transform="translate(183.154297 0)"/>
      <use xlink:href="#DejaVuSans-73" transform="translate(244.677734 0)"/>
      <use xlink:href="#DejaVuSans-74" transform="translate(296.777344 0)"/>
      <use xlink:href="#DejaVuSans-61" transform="translate(335.986328 0)"/>
      <use xlink:href="#DejaVuSans-6d" transform="translate(397.265625 0)"/>
      <use xlink:href="#DejaVuSans-70" transform="translate(494.677734 0)"/>
      <use xlink:href="#DejaVuSans-20" transform="translate(558.154297 0)"/>
      <use xlink:href="#DejaVuSans-28" transform="translate(589.941406 0)"/>
      <use xlink:href="#DejaVuSans-73" transform="translate(628.955078 0)"/>
      <use xlink:href="#DejaVuSans-65" transform="translate(681.054688 0)"/>
      <use xlink:href="#DejaVuSans-63" transform="translate(742.578125 0)"/>
      <use xlink:href="#DejaVuSans-29" transform="translate(797.558594 0)"/>
     </g>
    </g>
   </g>
   <g id="matplotlib.axis_2">
    <g id="ytick_1">
     <g id="line2d_15">
      <path d="M 52.160938 377.328626 
L 405.785938 377.328626 
" clip-path="url(#pb00ef9baa3)" style="fill: none; stroke: #b0b0b0; stroke-width: 0.8; stroke-linecap: square"/>
     </g>
     <g id="line2d_16">
      <defs>
       <path id="m72f7d982f7" d="M 0 0 
L -3.5 0 
" style="stroke: #000000; stroke-width: 0.8"/>
      </defs>
      <g>
       <use xlink:href="#m72f7d982f7" x="52.160938" y="377.328626" style="stroke: #000000; stroke-width: 0.8"/>
      </g>
     </g>
     <g id="text_9">
      <!-- −0.5 -->
      <g transform="translate(20.878125 381.127845) scale(0.1 -0.1)">
       <defs>
        <path id="DejaVuSans-2212" d="M 678 2272 
L 4684 2272 
L 4684 1741 
L 678 1741 
L 678 2272 
z
" transform="scale(0.015625)"/>
        <path id="DejaVuSans-2e" d="M 684 794 
L 1344 794 
L 1344 0 
L 684 0 
L 684 794 
z
" transform="scale(0.015625)"/>
        <path id="DejaVuSans-35" d="M 691 4666 
L 3169 4666 
L 3169 4134 
L 1269 4134 
L 1269 2991 
Q 1406 3038 1543 3061 
Q 1681 3084 1819 3084 
Q 2600 3084 3056 2656 
Q 3513 2228 3513 1497 
Q 3513 744 3044 326 
Q 2575 -91 1722 -91 
Q 1428 -91 1123 -41 
Q 819 9 494 109 
L 494 744 
Q 775 591 1075 516 
Q 1375 441 1709 441 
Q 2250 441 2565 725 
Q 2881 1009 2881 1497 
Q 2881 1984 2565 2268 
Q 2250 2553 1709 2553 
Q 1456 2553 1204 2497 
Q 953 2441 691 2322 
L 691 4666 
z
" transform="scale(0.015625)"/>
       </defs>
       <use xlink:href="#DejaVuSans-2212"/>
       <use xlink:href="#DejaVuSans-30" transform="translate(83.789062 0)"/>
       <use xlink:href="#DejaVuSans-2e" transform="translate(147.412109 0)"/>
       <use xlink:href="#DejaVuSans-35" transform="translate(179.199219 0)"/>
      </g>
     </g>
    </g>
    <g id="ytick_2">
     <g id="line2d_17">
      <path d="M 52.160938 335.699982 
L 405.785938 335.699982 
" clip-path="url(#pb00ef9baa3)" style="fill: none; stroke: #b0b0b0; stroke-width: 0.8; stroke-linecap: square"/>
     </g>
     <g id="line2d_18">
      <g>
       <use xlink:href="#m72f7d982f7" x="52.160938" y="335.699982" style="stroke: #000000; stroke-width: 0.8"/>
      </g>
     </g>
     <g id="text_10">
      <!-- −0.4 -->
      <g transform="translate(20.878125 339.499201) scale(0.1 -0.1)">
       <use xlink:href="#DejaVuSans-2212"/>
       <use xlink:href="#DejaVuSans-30" transform="translate(83.789062 0)"/>
       <use xlink:href="#DejaVuSans-2e" transform="translate(147.412109 0)"/>
       <use xlink:href="#DejaVuSans-34" transform="translate(179.199219 0)"/>
      </g>
     </g>
    </g>
    <g id="ytick_3">
     <g id="line2d_19">
      <path d="M 52.160938 294.071338 
L 405.785938 294.071338 
" clip-path="url(#pb00ef9baa3)" style="fill: none; stroke: #b0b0b0; stroke-width: 0.8; stroke-linecap: square"/>
     </g>
     <g id="line2d_20">
      <g>
       <use xlink:href="#m72f7d982f7" x="52.160938" y="294.071338" style="stroke: #000000; stroke-width: 0.8"/>
      </g>
     </g>
     <g id="text_11">
      <!-- −0.3 -->
      <g transform="translate(20.878125 297.870557) scale(0.1 -0.1)">
       <defs>
        <path id="DejaVuSans-33" d="M 2597 2516 
Q 3050 2419 3304 2112 
Q 3559 1806 3559 1356 
Q 3559 666 3084 287 
Q 2609 -91 1734 -91 
Q 1441 -91 1130 -33 
Q 819 25 488 141 
L 488 750 
Q 750 597 1062 519 
Q 1375 441 1716 441 
Q 2309 441 2620 675 
Q 2931 909 2931 1356 
Q 2931 1769 2642 2001 
Q 2353 2234 1838 2234 
L 1294 2234 
L 1294 2753 
L 1863 2753 
Q 2328 2753 2575 2939 
Q 2822 3125 2822 3475 
Q 2822 3834 2567 4026 
Q 2313 4219 1838 4219 
Q 1578 4219 1281 4162 
Q 984 4106 628 3988 
L 628 4550 
Q 988 4650 1302 4700 
Q 1616 4750 1894 4750 
Q 2613 4750 3031 4423 
Q 3450 4097 3450 3541 
Q 3450 3153 3228 2886 
Q 3006 2619 2597 2516 
z
" transform="scale(0.015625)"/>
       </defs>
       <use xlink:href="#DejaVuSans-2212"/>
       <use xlink:href="#DejaVuSans-30" transform="translate(83.789062 0)"/>
       <use xlink:href="#DejaVuSans-2e" transform="translate(147.412109 0)"/>
       <use xlink:href="#DejaVuSans-33" transform="translate(179.199219 0)"/>
      </g>
     </g>
    </g>
    <g id="ytick_4">
     <g id="line2d_21">
      <path d="M 52.160938 252.442694 
L 405.785938 252.442694 
" clip-path="url(#pb00ef9baa3)" style="fill: none; stroke: #b0b0b0; stroke-width: 0.8; stroke-linecap: square"/>
     </g>
     <g id="line2d_22">
      <g>
       <use xlink:href="#m72f7d982f7" x="52.160938" y="252.442694" style="stroke: #000000; stroke-width: 0.8"/>
      </g>
     </g>
     <g id="text_12">
      <!-- −0.2 -->
      <g transform="translate(20.878125 256.241913) scale(0.1 -0.1)">
       <use xlink:href="#DejaVuSans-2212"/>
       <use xlink:href="#DejaVuSans-30" transform="translate(83.789062 0)"/>
       <use xlink:href="#DejaVuSans-2e" transform="translate(147.412109 0)"/>
       <use xlink:href="#DejaVuSans-32" transform="translate(179.199219 0)"/>
      </g>
     </g>
    </g>
    <g id="ytick_5">
     <g id="line2d_23">
      <path d="M 52.160938 210.81405 
L 405.785938 210.81405 
" clip-path="url(#pb00ef9baa3)" style="fill: none; stroke: #b0b0b0; stroke-width: 0.8; stroke-linecap: square"/>
     </g>
     <g id="line2d_24">
      <g>
       <use xlink:href="#m72f7d982f7" x="52.160938" y="210.81405" style="stroke: #000000; stroke-width: 0.8"/>
      </g>
     </g>
     <g id="text_13">
      <!-- −0.1 -->
      <g transform="translate(20.878125 214.613269) scale(0.1 -0.1)">
       <use xlink:href="#DejaVuSans-2212"/>
       <use xlink:href="#DejaVuSans-30" transform="translate(83.789062 0)"/>
       <use xlink:href="#DejaVuSans-2e" transform="translate(147.412109 0)"/>
       <use xlink:href="#DejaVuSans-31" transform="translate(179.199219 0)"/>
      </g>
     </g>
    </g>
    <g id="ytick_6">
     <g id="line2d_25">
      <path d="M 52.160938 169.185406 
L 405.785938 169.185406 
" clip-path="url(#pb00ef9baa3)" style="fill: none; stroke: #b0b0b0; stroke-width: 0.8; stroke-linecap: square"/>
     </g>
     <g id="line2d_26">
      <g>
       <use xlink:href="#m72f7d982f7" x="52.160938" y="169.185406" style="stroke: #000000; stroke-width: 0.8"/>
      </g>
     </g>
     <g id="text_14">
      <!-- 0.0 -->
      <g transform="translate(29.257813 172.984625) scale(0.1 -0.1)">
       <use xlink:href="#DejaVuSans-30"/>
       <use xlink:href="#DejaVuSans-2e" transform="translate(63.623047 0)"/>
       <use xlink:href="#DejaVuSans-30" transform="translate(95.410156 0)"/>
      </g>
     </g>
    </g>
    <g id="ytick_7">
     <g id="line2d_27">
      <path d="M 52.160938 127.556762 
L 405.785938 127.556762 
" clip-path="url(#pb00ef9baa3)" style="fill: none; stroke: #b0b0b0; stroke-width: 0.8; stroke-linecap: square"/>
     </g>
     <g id="line2d_28">
      <g>
       <use xlink:href="#m72f7d982f7" x="52.160938" y="127.556762" style="stroke: #000000; stroke-width: 0.8"/>
      </g>
     </g>
     <g id="text_15">
      <!-- 0.1 -->
      <g transform="translate(29.257813 131.355981) scale(0.1 -0.1)">
       <use xlink:href="#DejaVuSans-30"/>
       <use xlink:href="#DejaVuSans-2e" transform="translate(63.623047 0)"/>
       <use xlink:href="#DejaVuSans-31" transform="translate(95.410156 0)"/>
      </g>
     </g>
    </g>
    <g id="ytick_8">
     <g id="line2d_29">
      <path d="M 52.160938 85.928118 
L 405.785938 85.928118 
" clip-path="url(#pb00ef9baa3)" style="fill: none; stroke: #b0b0b0; stroke-width: 0.8; stroke-linecap: square"/>
     </g>
     <g id="line2d_30">
      <g>
       <use xlink:href="#m72f7d982f7" x="52.160938" y="85.928118" style="stroke: #000000; stroke-width: 0.8"/>
      </g>
     </g>
     <g id="text_16">
      <!-- 0.2 -->
      <g transform="translate(29.257813 89.727337) scale(0.1 -0.1)">
       <use xlink:href="#DejaVuSans-30"/>
       <use xlink:href="#DejaVuSans-2e" transform="translate(63.623047 0)"/>
       <use xlink:href="#DejaVuSans-32" transform="translate(95.410156 0)"/>
      </g>
     </g>
    </g>
    <g id="ytick_9">
     <g id="line2d_31">
      <path d="M 52.160938 44.299474 
L 405.785938 44.299474 
" clip-path="url(#pb00ef9baa3)" style="fill: none; stroke: #b0b0b0; stroke-width: 0.8; stroke-linecap: square"/>
     </g>
     <g id="line2d_32">
      <g>
       <use xlink:href="#m72f7d982f7" x="52.160938" y="44.299474" style="stroke: #000000; stroke-width: 0.8"/>
      </g>
     </g>
     <g id="text_17">
      <!-- 0.3 -->
      <g transform="translate(29.257813 48.098693) scale(0.1 -0.1)">
       <use xlink:href="#DejaVuSans-30"/>
       <use xlink:href="#DejaVuSans-2e" transform="translate(63.623047 0)"/>
       <use xlink:href="#DejaVuSans-33" transform="translate(95.410156 0)"/>
      </g>
     </g>
    </g>
    <g id="text_18">
     <!-- Linear Position (m) -->
     <g transform="translate(14.798438 250.852031) rotate(-90) scale(0.1 -0.1)">
      <defs>
       <path id="DejaVuSans-4c" d="M 628 4666 
L 1259 4666 
L 1259 531 
L 3531 531 
L 3531 0 
L 628 0 
L 628 4666 
z
" transform="scale(0.015625)"/>
       <path id="DejaVuSans-6e" d="M 3513 2113 
L 3513 0 
L 2938 0 
L 2938 2094 
Q 2938 2591 2744 2837 
Q 2550 3084 2163 3084 
Q 1697 3084 1428 2787 
Q 1159 2491 1159 1978 
L 1159 0 
L 581 0 
L 581 3500 
L 1159 3500 
L 1159 2956 
Q 1366 3272 1645 3428 
Q 1925 3584 2291 3584 
Q 2894 3584 3203 3211 
Q 3513 2838 3513 2113 
z
" transform="scale(0.015625)"/>
       <path id="DejaVuSans-72" d="M 2631 2963 
Q 2534 3019 2420 3045 
Q 2306 3072 2169 3072 
Q 1681 3072 1420 2755 
Q 1159 2438 1159 1844 
L 1159 0 
L 581 0 
L 581 3500 
L 1159 3500 
L 1159 2956 
Q 1341 3275 1631 3429 
Q 1922 3584 2338 3584 
Q 2397 3584 2469 3576 
Q 2541 3569 2628 3553 
L 2631 2963 
z
" transform="scale(0.015625)"/>
       <path id="DejaVuSans-50" d="M 1259 4147 
L 1259 2394 
L 2053 2394 
Q 2494 2394 2734 2622 
Q 2975 2850 2975 3272 
Q 2975 3691 2734 3919 
Q 2494 4147 2053 4147 
L 1259 4147 
z
M 628 4666 
L 2053 4666 
Q 2838 4666 3239 4311 
Q 3641 3956 3641 3272 
Q 3641 2581 3239 2228 
Q 2838 1875 2053 1875 
L 1259 1875 
L 1259 0 
L 628 0 
L 628 4666 
z
" transform="scale(0.015625)"/>
       <path id="DejaVuSans-6f" d="M 1959 3097 
Q 1497 3097 1228 2736 
Q 959 2375 959 1747 
Q 959 1119 1226 758 
Q 1494 397 1959 397 
Q 2419 397 2687 759 
Q 2956 1122 2956 1747 
Q 2956 2369 2687 2733 
Q 2419 3097 1959 3097 
z
M 1959 3584 
Q 2709 3584 3137 3096 
Q 3566 2609 3566 1747 
Q 3566 888 3137 398 
Q 2709 -91 1959 -91 
Q 1206 -91 779 398 
Q 353 888 353 1747 
Q 353 2609 779 3096 
Q 1206 3584 1959 3584 
z
" transform="scale(0.015625)"/>
      </defs>
      <use xlink:href="#DejaVuSans-4c"/>
      <use xlink:href="#DejaVuSans-69" transform="translate(55.712891 0)"/>
      <use xlink:href="#DejaVuSans-6e" transform="translate(83.496094 0)"/>
      <use xlink:href="#DejaVuSans-65" transform="translate(146.875 0)"/>
      <use xlink:href="#DejaVuSans-61" transform="translate(208.398438 0)"/>
      <use xlink:href="#DejaVuSans-72" transform="translate(269.677734 0)"/>
      <use xlink:href="#DejaVuSans-20" transform="translate(310.791016 0)"/>
      <use xlink:href="#DejaVuSans-50" transform="translate(342.578125 0)"/>
      <use xlink:href="#DejaVuSans-6f" transform="translate(399.255859 0)"/>
      <use xlink:href="#DejaVuSans-73" transform="translate(460.4375 0)"/>
      <use xlink:href="#DejaVuSans-69" transform="translate(512.537109 0)"/>
      <use xlink:href="#DejaVuSans-74" transform="translate(540.320312 0)"/>
      <use xlink:href="#DejaVuSans-69" transform="translate(579.529297 0)"/>
      <use xlink:href="#DejaVuSans-6f" transform="translate(607.3125 0)"/>
      <use xlink:href="#DejaVuSans-6e" transform="translate(668.494141 0)"/>
      <use xlink:href="#DejaVuSans-20" transform="translate(731.873047 0)"/>
      <use xlink:href="#DejaVuSans-28" transform="translate(763.660156 0)"/>
      <use xlink:href="#DejaVuSans-6d" transform="translate(802.673828 0)"/>
      <use xlink:href="#DejaVuSans-29" transform="translate(900.085938 0)"/>
     </g>
    </g>
   </g>
   <g id="line2d_33">
    <path d="M 68.234801 169.185406 
L 124.359681 169.134965 
L 126.986384 168.739458 
L 128.59431 168.336755 
L 129.865999 167.811338 
L 131.176725 167.112844 
L 132.492978 166.004273 
L 134.875961 164.401967 
L 136.681452 162.940005 
L 137.480986 162.494432 
L 138.798548 161.432236 
L 141.670166 159.745764 
L 144.318835 158.388931 
L 145.342581 157.916651 
L 147.967766 157.334189 
L 149.269245 157.304801 
L 150.851485 157.482452 
L 152.16209 157.921454 
L 153.47387 158.727139 
L 155.835317 160.853285 
L 157.144854 162.373603 
L 159.025221 164.91579 
L 161.344214 168.810005 
L 165.181255 177.21242 
L 166.328308 180.142241 
L 171.836957 195.47355 
L 176.827 209.534306 
L 179.892436 217.589265 
L 182.329598 223.407106 
L 183.651687 225.979266 
L 184.904197 228.091544 
L 186.203319 230.022123 
L 187.315539 231.418255 
L 188.629569 232.734764 
L 190.410898 233.927987 
L 191.51956 234.125452 
L 192.82214 233.985564 
L 194.155187 233.457588 
L 195.424385 232.425416 
L 197.841462 229.11417 
L 199.610342 225.90734 
L 202.030004 220.327516 
L 204.630235 212.652668 
L 207.263895 203.911755 
L 208.299238 200.211296 
L 212.497047 183.64272 
L 215.118754 172.751989 
L 218.793881 157.216464 
L 222.998191 139.704664 
L 225.61938 129.901009 
L 228.234566 120.641473 
L 230.604522 113.157456 
L 231.904523 109.505395 
L 233.485816 105.544134 
L 236.104259 99.81823 
L 237.416677 97.54174 
L 238.727356 95.501475 
L 239.805039 94.161566 
L 241.604903 92.282314 
L 242.396856 91.856495 
L 244.008764 91.125119 
L 245.288976 90.999418 
L 246.601085 91.311165 
L 247.90946 91.903289 
L 249.246315 92.874165 
L 250.324643 93.916644 
L 252.116717 96.048203 
L 254.474585 100.473775 
L 255.779059 103.21118 
L 258.297222 109.754208 
L 260.896452 117.674338 
L 263.306398 125.963459 
L 264.55547 130.412099 
L 267.477553 142.135569 
L 270.100509 153.809981 
L 272.960301 168.024117 
L 279.256699 200.198915 
L 285.582919 233.177843 
L 289.774684 253.799787 
L 296.445643 284.570768 
L 300.328013 299.674276 
L 301.627477 304.363337 
L 304.528655 313.382423 
L 306.949184 320.019947 
L 308.249239 323.193529 
L 310.827001 328.382748 
L 312.154434 330.591811 
L 313.25086 332.098555 
L 314.582632 333.714006 
L 315.896923 334.965757 
L 317.429557 336.026566 
L 320.045878 336.606932 
L 321.358766 336.440589 
L 322.669673 335.904664 
L 323.719622 335.262368 
L 325.560913 333.754009 
L 327.923106 330.730357 
L 330.539138 326.164845 
L 333.181991 320.20797 
L 334.23836 317.503382 
L 336.054052 312.534988 
L 338.419877 305.002595 
L 341.031618 295.915087 
L 346.028801 275.046986 
L 348.940556 261.768533 
L 351.527155 249.168797 
L 357.038476 220.62827 
L 363.329737 185.277792 
L 376.20972 110.495172 
L 383.002744 73.120257 
L 385.678408 58.891879 
L 389.712074 38.825398 
L 389.712074 38.825398 
" clip-path="url(#pb00ef9baa3)" style="fill: none; stroke: #1f77b4; stroke-width: 1.5; stroke-linecap: square"/>
   </g>
   <g id="line2d_34">
    <path d="M 68.234801 169.185406 
L 124.359681 169.13366 
L 126.986384 168.851212 
L 128.59431 168.861824 
L 129.865999 168.653279 
L 134.875961 167.436199 
L 136.681452 166.736589 
L 137.480986 166.257306 
L 141.670166 162.827839 
L 144.318835 159.588003 
L 145.342581 158.149558 
L 147.967766 153.992977 
L 149.269245 151.939098 
L 159.025221 135.382659 
L 160.045831 133.853147 
L 162.654819 130.489621 
L 166.328308 127.156261 
L 168.168155 126.169217 
L 170.26534 126.035927 
L 171.836957 126.50294 
L 173.152208 127.311802 
L 174.485598 128.54451 
L 175.692176 129.846872 
L 178.142595 133.579684 
L 179.892436 136.911724 
L 182.329598 143.059707 
L 184.904197 150.373585 
L 186.203319 154.460037 
L 190.410898 170.21032 
L 197.841462 198.898277 
L 202.030004 213.217185 
L 203.316796 217.189172 
L 205.941646 224.247135 
L 208.299238 229.322256 
L 210.13752 232.767233 
L 212.497047 235.512859 
L 213.808108 236.560693 
L 215.118754 237.24447 
L 216.438243 237.468411 
L 217.74179 237.120088 
L 218.793881 236.505692 
L 220.634836 234.98459 
L 221.930231 233.258535 
L 222.998191 231.585654 
L 225.61938 226.775126 
L 226.923975 223.596352 
L 229.28602 217.0301 
L 231.904523 208.631545 
L 234.793386 198.247904 
L 237.416677 187.849797 
L 242.396856 166.123927 
L 253.449181 117.521965 
L 256.98469 103.071887 
L 259.608136 93.149958 
L 260.896452 88.559195 
L 263.306398 80.699857 
L 264.55547 76.90999 
L 266.402972 71.723351 
L 268.76315 66.086735 
L 270.100509 63.320737 
L 271.389208 60.924755 
L 272.960301 58.483415 
L 273.749252 57.567236 
L 275.596405 55.706508 
L 276.895701 54.970026 
L 277.944026 54.585706 
L 279.256699 54.354067 
L 280.620489 54.582428 
L 281.881904 55.014419 
L 283.198727 56.040608 
L 285.582919 58.82298 
L 287.388458 61.593996 
L 289.774684 66.453093 
L 291.086666 69.4823 
L 292.375647 72.912512 
L 294.727881 79.897989 
L 300.328013 101.029974 
L 305.379421 122.93792 
L 308.249239 136.736779 
L 312.154434 156.797906 
L 315.896923 176.677388 
L 321.358766 206.957575 
L 326.346184 234.479322 
L 329.254488 250.296018 
L 336.054052 284.788075 
L 339.773554 301.775697 
L 343.681026 318.121591 
L 346.028801 327.125378 
L 348.940556 337.156191 
L 351.527155 344.940156 
L 352.836887 348.47313 
L 355.224107 354.16043 
L 357.038476 358.16591 
L 359.142511 361.856894 
L 360.706472 364.119547 
L 362.02764 365.678981 
L 363.329737 366.919271 
L 364.640395 367.862777 
L 367.000728 368.85297 
L 368.867832 368.970852 
L 371.190572 368.384856 
L 372.51078 367.573511 
L 373.821781 366.488158 
L 375.159395 365.112716 
L 377.615656 361.795776 
L 381.718268 353.919066 
L 383.002744 350.905879 
L 385.678408 343.693743 
L 388.041117 336.550954 
L 389.712074 331.034917 
L 389.712074 331.034917 
" clip-path="url(#pb00ef9baa3)" style="fill: none; stroke: #ff7f0e; stroke-width: 1.5; stroke-linecap: square"/>
   </g>
   <g id="patch_3">
    <path d="M 52.160938 385.478125 
L 52.160938 22.318125 
" style="fill: none; stroke: #000000; stroke-width: 0.8; stroke-linejoin: miter; stroke-linecap: square"/>
   </g>
   <g id="patch_4">
    <path d="M 405.785938 385.478125 
L 405.785938 22.318125 
" style="fill: none; stroke: #000000; stroke-width: 0.8; stroke-linejoin: miter; stroke-linecap: square"/>
   </g>
   <g id="patch_5">
    <path d="M 52.160938 385.478125 
L 405.785938 385.478125 
" style="fill: none; stroke: #000000; stroke-width: 0.8; stroke-linejoin: miter; stroke-linecap: square"/>
   </g>
   <g id="patch_6">
    <path d="M 52.160938 22.318125 
L 405.785938 22.318125 
" style="fill: none; stroke: #000000; stroke-width: 0.8; stroke-linejoin: miter; stroke-linecap: square"/>
   </g>
   <g id="text_19">
    <!-- Odometry Data Log (Spiral Motion) -->
    <g transform="translate(124.07375 16.318125) scale(0.12 -0.12)">
     <defs>
      <path id="DejaVuSans-4f" d="M 2522 4238 
Q 1834 4238 1429 3725 
Q 1025 3213 1025 2328 
Q 1025 1447 1429 934 
Q 1834 422 2522 422 
Q 3209 422 3611 934 
Q 4013 1447 4013 2328 
Q 4013 3213 3611 3725 
Q 3209 4238 2522 4238 
z
M 2522 4750 
Q 3503 4750 4090 4092 
Q 4678 3434 4678 2328 
Q 4678 1225 4090 567 
Q 3503 -91 2522 -91 
Q 1538 -91 948 565 
Q 359 1222 359 2328 
Q 359 3434 948 4092 
Q 1538 4750 2522 4750 
z
" transform="scale(0.015625)"/>
      <path id="DejaVuSans-64" d="M 2906 2969 
L 2906 4863 
L 3481 4863 
L 3481 0 
L 2906 0 
L 2906 525 
Q 2725 213 2448 61 
Q 2172 -91 1784 -91 
Q 1150 -91 751 415 
Q 353 922 353 1747 
Q 353 2572 751 3078 
Q 1150 3584 1784 3584 
Q 2172 3584 2448 3432 
Q 2725 3281 2906 2969 
z
M 947 1747 
Q 947 1113 1208 752 
Q 1469 391 1925 391 
Q 2381 391 2643 752 
Q 2906 1113 2906 1747 
Q 2906 2381 2643 2742 
Q 2381 3103 1925 3103 
Q 1469 3103 1208 2742 
Q 947 2381 947 1747 
z
" transform="scale(0.015625)"/>
      <path id="DejaVuSans-79" d="M 2059 -325 
Q 1816 -950 1584 -1140 
Q 1353 -1331 966 -1331 
L 506 -1331 
L 506 -850 
L 844 -850 
Q 1081 -850 1212 -737 
Q 1344 -625 1503 -206 
L 1606 56 
L 191 3500 
L 800 3500 
L 1894 763 
L 2988 3500 
L 3597 3500 
L 2059 -325 
z
" transform="scale(0.015625)"/>
      <path id="DejaVuSans-44" d="M 1259 4147 
L 1259 519 
L 2022 519 
Q 2988 519 3436 956 
Q 3884 1394 3884 2338 
Q 3884 3275 3436 3711 
Q 2988 4147 2022 4147 
L 1259 4147 
z
M 628 4666 
L 1925 4666 
Q 3281 4666 3915 4102 
Q 4550 3538 4550 2338 
Q 4550 1131 3912 565 
Q 3275 0 1925 0 
L 628 0 
L 628 4666 
z
" transform="scale(0.015625)"/>
      <path id="DejaVuSans-67" d="M 2906 1791 
Q 2906 2416 2648 2759 
Q 2391 3103 1925 3103 
Q 1463 3103 1205 2759 
Q 947 2416 947 1791 
Q 947 1169 1205 825 
Q 1463 481 1925 481 
Q 2391 481 2648 825 
Q 2906 1169 2906 1791 
z
M 3481 434 
Q 3481 -459 3084 -895 
Q 2688 -1331 1869 -1331 
Q 1566 -1331 1297 -1286 
Q 1028 -1241 775 -1147 
L 775 -588 
Q 1028 -725 1275 -790 
Q 1522 -856 1778 -856 
Q 2344 -856 2625 -561 
Q 2906 -266 2906 331 
L 2906 616 
Q 2728 306 2450 153 
Q 2172 0 1784 0 
Q 1141 0 747 490 
Q 353 981 353 1791 
Q 353 2603 747 3093 
Q 1141 3584 1784 3584 
Q 2172 3584 2450 3431 
Q 2728 3278 2906 2969 
L 2906 3500 
L 3481 3500 
L 3481 434 
z
" transform="scale(0.015625)"/>
      <path id="DejaVuSans-53" d="M 3425 4513 
L 3425 3897 
Q 3066 4069 2747 4153 
Q 2428 4238 2131 4238 
Q 1616 4238 1336 4038 
Q 1056 3838 1056 3469 
Q 1056 3159 1242 3001 
Q 1428 2844 1947 2747 
L 2328 2669 
Q 3034 2534 3370 2195 
Q 3706 1856 3706 1288 
Q 3706 609 3251 259 
Q 2797 -91 1919 -91 
Q 1588 -91 1214 -16 
Q 841 59 441 206 
L 441 856 
Q 825 641 1194 531 
Q 1563 422 1919 422 
Q 2459 422 2753 634 
Q 3047 847 3047 1241 
Q 3047 1584 2836 1778 
Q 2625 1972 2144 2069 
L 1759 2144 
Q 1053 2284 737 2584 
Q 422 2884 422 3419 
Q 422 4038 858 4394 
Q 1294 4750 2059 4750 
Q 2388 4750 2728 4690 
Q 3069 4631 3425 4513 
z
" transform="scale(0.015625)"/>
      <path id="DejaVuSans-6c" d="M 603 4863 
L 1178 4863 
L 1178 0 
L 603 0 
L 603 4863 
z
" transform="scale(0.015625)"/>
      <path id="DejaVuSans-4d" d="M 628 4666 
L 1569 4666 
L 2759 1491 
L 3956 4666 
L 4897 4666 
L 4897 0 
L 4281 0 
L 4281 4097 
L 3078 897 
L 2444 897 
L 1241 4097 
L 1241 0 
L 628 0 
L 628 4666 
z
" transform="scale(0.015625)"/>
     </defs>
     <use xlink:href="#DejaVuSans-4f"/>
     <use xlink:href="#DejaVuSans-64" transform="translate(78.710938 0)"/>
     <use xlink:href="#DejaVuSans-6f" transform="translate(142.1875 0)"/>
     <use xlink:href="#DejaVuSans-6d" transform="translate(203.369141 0)"/>
     <use xlink:href="#DejaVuSans-65" transform="translate(300.78125 0)"/>
     <use xlink:href="#DejaVuSans-74" transform="translate(362.304688 0)"/>
     <use xlink:href="#DejaVuSans-72" transform="translate(401.513672 0)"/>
     <use xlink:href="#DejaVuSans-79" transform="translate(442.626953 0)"/>
     <use xlink:href="#DejaVuSans-20" transform="translate(501.806641 0)"/>
     <use xlink:href="#DejaVuSans-44" transform="translate(533.59375 0)"/>
     <use xlink:href="#DejaVuSans-61" transform="translate(610.595703 0)"/>
     <use xlink:href="#DejaVuSans-74" transform="translate(671.875 0)"/>
     <use xlink:href="#DejaVuSans-61" transform="translate(711.083984 0)"/>
     <use xlink:href="#DejaVuSans-20" transform="translate(772.363281 0)"/>
     <use xlink:href="#DejaVuSans-4c" transform="translate(804.150391 0)"/>
     <use xlink:href="#DejaVuSans-6f" transform="translate(858.113281 0)"/>
     <use xlink:href="#DejaVuSans-67" transform="translate(919.294922 0)"/>
     <use xlink:href="#DejaVuSans-20" transform="translate(982.771484 0)"/>
     <use xlink:href="#DejaVuSans-28" transform="translate(1014.558594 0)"/>
     <use xlink:href="#DejaVuSans-53" transform="translate(1053.572266 0)"/>
     <use xlink:href="#DejaVuSans-70" transform="translate(1117.048828 0)"/>
     <use xlink:href="#DejaVuSans-69" transform="translate(1180.525391 0)"/>
     <use xlink:href="#DejaVuSans-72" transform="translate(1208.308594 0)"/>
     <use xlink:href="#DejaVuSans-61" transform="translate(1249.421875 0)"/>
     <use xlink:href="#DejaVuSans-6c" transform="translate(1310.701172 0)"/>
     <use xlink:href="#DejaVuSans-20" transform="translate(1338.484375 0)"/>
     <use xlink:href="#DejaVuSans-4d" transform="translate(1370.271484 0)"/>
     <use xlink:href="#DejaVuSans-6f" transform="translate(1456.550781 0)"/>
     <use xlink:href="#DejaVuSans-74" transform="translate(1517.732422 0)"/>
     <use xlink:href="#DejaVuSans-69" transform="translate(1556.941406 0)"/>
     <use xlink:href="#DejaVuSans-6f" transform="translate(1584.724609 0)"/>
     <use xlink:href="#DejaVuSans-6e" transform="translate(1645.90625 0)"/>
     <use xlink:href="#DejaVuSans-29" transform="translate(1709.285156 0)"/>
    </g>
   </g>
   <g id="legend_1">
    <g id="patch_7">
     <path d="M 59.160938 59.674375 
L 140.117188 59.674375 
Q 142.117188 59.674375 142.117188 57.674375 
L 142.117188 29.318125 
Q 142.117188 27.318125 140.117188 27.318125 
L 59.160938 27.318125 
Q 57.160938 27.318125 57.160938 29.318125 
L 57.160938 57.674375 
Q 57.160938 59.674375 59.160938 59.674375 
z
" style="fill: #ffffff; opacity: 0.8; stroke: #cccccc; stroke-linejoin: miter"/>
    </g>
    <g id="line2d_35">
     <path d="M 61.160938 35.416562 
L 71.160938 35.416562 
L 81.160938 35.416562 
" style="fill: none; stroke: #1f77b4; stroke-width: 1.5; stroke-linecap: square"/>
    </g>
    <g id="text_20">
     <!-- X Position -->
     <g transform="translate(89.160938 38.916562) scale(0.1 -0.1)">
      <defs>
       <path id="DejaVuSans-58" d="M 403 4666 
L 1081 4666 
L 2241 2931 
L 3406 4666 
L 4084 4666 
L 2584 2425 
L 4184 0 
L 3506 0 
L 2194 1984 
L 872 0 
L 191 0 
L 1856 2491 
L 403 4666 
z
" transform="scale(0.015625)"/>
      </defs>
      <use xlink:href="#DejaVuSans-58"/>
      <use xlink:href="#DejaVuSans-20" transform="translate(68.505859 0)"/>
      <use xlink:href="#DejaVuSans-50" transform="translate(100.292969 0)"/>
      <use xlink:href="#DejaVuSans-6f" transform="translate(156.970703 0)"/>
      <use xlink:href="#DejaVuSans-73" transform="translate(218.152344 0)"/>
      <use xlink:href="#DejaVuSans-69" transform="translate(270.251953 0)"/>
      <use xlink:href="#DejaVuSans-74" transform="translate(298.035156 0)"/>
      <use xlink:href="#DejaVuSans-69" transform="translate(337.244141 0)"/>
      <use xlink:href="#DejaVuSans-6f" transform="translate(365.027344 0)"/>
      <use xlink:href="#DejaVuSans-6e" transform="translate(426.208984 0)"/>
     </g>
    </g>
    <g id="line2d_36">
     <path d="M 61.160938 50.094687 
L 71.160938 50.094687 
L 81.160938 50.094687 
" style="fill: none; stroke: #ff7f0e; stroke-width: 1.5; stroke-linecap: square"/>
    </g>
    <g id="text_21">
     <!-- Y Position -->
     <g transform="translate(89.160938 53.594687) scale(0.1 -0.1)">
      <defs>
       <path id="DejaVuSans-59" d="M -13 4666 
L 666 4666 
L 1959 2747 
L 3244 4666 
L 3922 4666 
L 2272 2222 
L 2272 0 
L 1638 0 
L 1638 2222 
L -13 4666 
z
" transform="scale(0.015625)"/>
      </defs>
      <use xlink:href="#DejaVuSans-59"/>
      <use xlink:href="#DejaVuSans-20" transform="translate(61.083984 0)"/>
      <use xlink:href="#DejaVuSans-50" transform="translate(92.871094 0)"/>
      <use xlink:href="#DejaVuSans-6f" transform="translate(149.548828 0)"/>
      <use xlink:href="#DejaVuSans-73" transform="translate(210.730469 0)"/>
      <use xlink:href="#DejaVuSans-69" transform="translate(262.830078 0)"/>
      <use xlink:href="#DejaVuSans-74" transform="translate(290.613281 0)"/>
      <use xlink:href="#DejaVuSans-69" transform="translate(329.822266 0)"/>
      <use xlink:href="#DejaVuSans-6f" transform="translate(357.605469 0)"/>
      <use xlink:href="#DejaVuSans-6e" transform="translate(418.787109 0)"/>
     </g>
    </g>
   </g>
  </g>
  <g id="axes_2">
   <g id="patch_8">
    <path d="M 495.645937 385.478125 
L 849.270937 385.478125 
L 849.270937 22.318125 
L 495.645937 22.318125 
z
" style="fill: #ffffff"/>
   </g>
   <g id="matplotlib.axis_3">
    <g id="xtick_8">
     <g id="line2d_37">
      <path d="M 512.698921 385.478125 
L 512.698921 22.318125 
" clip-path="url(#pf2953531f2)" style="fill: none; stroke: #b0b0b0; stroke-width: 0.8; stroke-linecap: square"/>
     </g>
     <g id="line2d_38">
      <g>
       <use xlink:href="#mcf52e2ae46" x="512.698921" y="385.478125" style="stroke: #000000; stroke-width: 0.8"/>
      </g>
     </g>
     <g id="text_22">
      <!-- −0.4 -->
      <g transform="translate(500.557515 400.076562) scale(0.1 -0.1)">
       <use xlink:href="#DejaVuSans-2212"/>
       <use xlink:href="#DejaVuSans-30" transform="translate(83.789062 0)"/>
       <use xlink:href="#DejaVuSans-2e" transform="translate(147.412109 0)"/>
       <use xlink:href="#DejaVuSans-34" transform="translate(179.199219 0)"/>
      </g>
     </g>
    </g>
    <g id="xtick_9">
     <g id="line2d_39">
      <path d="M 557.640132 385.478125 
L 557.640132 22.318125 
" clip-path="url(#pf2953531f2)" style="fill: none; stroke: #b0b0b0; stroke-width: 0.8; stroke-linecap: square"/>
     </g>
     <g id="line2d_40">
      <g>
       <use xlink:href="#mcf52e2ae46" x="557.640132" y="385.478125" style="stroke: #000000; stroke-width: 0.8"/>
      </g>
     </g>
     <g id="text_23">
      <!-- −0.3 -->
      <g transform="translate(545.498726 400.076562) scale(0.1 -0.1)">
       <use xlink:href="#DejaVuSans-2212"/>
       <use xlink:href="#DejaVuSans-30" transform="translate(83.789062 0)"/>
       <use xlink:href="#DejaVuSans-2e" transform="translate(147.412109 0)"/>
       <use xlink:href="#DejaVuSans-33" transform="translate(179.199219 0)"/>
      </g>
     </g>
    </g>
    <g id="xtick_10">
     <g id="line2d_41">
      <path d="M 602.581344 385.478125 
L 602.581344 22.318125 
" clip-path="url(#pf2953531f2)" style="fill: none; stroke: #b0b0b0; stroke-width: 0.8; stroke-linecap: square"/>
     </g>
     <g id="line2d_42">
      <g>
       <use xlink:href="#mcf52e2ae46" x="602.581344" y="385.478125" style="stroke: #000000; stroke-width: 0.8"/>
      </g>
     </g>
     <g id="text_24">
      <!-- −0.2 -->
      <g transform="translate(590.439938 400.076562) scale(0.1 -0.1)">
       <use xlink:href="#DejaVuSans-2212"/>
       <use xlink:href="#DejaVuSans-30" transform="translate(83.789062 0)"/>
       <use xlink:href="#DejaVuSans-2e" transform="translate(147.412109 0)"/>
       <use xlink:href="#DejaVuSans-32" transform="translate(179.199219 0)"/>
      </g>
     </g>
    </g>
    <g id="xtick_11">
     <g id="line2d_43">
      <path d="M 647.522556 385.478125 
L 647.522556 22.318125 
" clip-path="url(#pf2953531f2)" style="fill: none; stroke: #b0b0b0; stroke-width: 0.8; stroke-linecap: square"/>
     </g>
     <g id="line2d_44">
      <g>
       <use xlink:href="#mcf52e2ae46" x="647.522556" y="385.478125" style="stroke: #000000; stroke-width: 0.8"/>
      </g>
     </g>
     <g id="text_25">
      <!-- −0.1 -->
      <g transform="translate(635.381149 400.076562) scale(0.1 -0.1)">
       <use xlink:href="#DejaVuSans-2212"/>
       <use xlink:href="#DejaVuSans-30" transform="translate(83.789062 0)"/>
       <use xlink:href="#DejaVuSans-2e" transform="translate(147.412109 0)"/>
       <use xlink:href="#DejaVuSans-31" transform="translate(179.199219 0)"/>
      </g>
     </g>
    </g>
    <g id="xtick_12">
     <g id="line2d_45">
      <path d="M 692.463767 385.478125 
L 692.463767 22.318125 
" clip-path="url(#pf2953531f2)" style="fill: none; stroke: #b0b0b0; stroke-width: 0.8; stroke-linecap: square"/>
     </g>
     <g id="line2d_46">
      <g>
       <use xlink:href="#mcf52e2ae46" x="692.463767" y="385.478125" style="stroke: #000000; stroke-width: 0.8"/>
      </g>
     </g>
     <g id="text_26">
      <!-- 0.0 -->
      <g transform="translate(684.512205 400.076562) scale(0.1 -0.1)">
       <use xlink:href="#DejaVuSans-30"/>
       <use xlink:href="#DejaVuSans-2e" transform="translate(63.623047 0)"/>
       <use xlink:href="#DejaVuSans-30" transform="translate(95.410156 0)"/>
      </g>
     </g>
    </g>
    <g id="xtick_13">
     <g id="line2d_47">
      <path d="M 737.404979 385.478125 
L 737.404979 22.318125 
" clip-path="url(#pf2953531f2)" style="fill: none; stroke: #b0b0b0; stroke-width: 0.8; stroke-linecap: square"/>
     </g>
     <g id="line2d_48">
      <g>
       <use xlink:href="#mcf52e2ae46" x="737.404979" y="385.478125" style="stroke: #000000; stroke-width: 0.8"/>
      </g>
     </g>
     <g id="text_27">
      <!-- 0.1 -->
      <g transform="translate(729.453416 400.076562) scale(0.1 -0.1)">
       <use xlink:href="#DejaVuSans-30"/>
       <use xlink:href="#DejaVuSans-2e" transform="translate(63.623047 0)"/>
       <use xlink:href="#DejaVuSans-31" transform="translate(95.410156 0)"/>
      </g>
     </g>
    </g>
    <g id="xtick_14">
     <g id="line2d_49">
      <path d="M 782.34619 385.478125 
L 782.34619 22.318125 
" clip-path="url(#pf2953531f2)" style="fill: none; stroke: #b0b0b0; stroke-width: 0.8; stroke-linecap: square"/>
     </g>
     <g id="line2d_50">
      <g>
       <use xlink:href="#mcf52e2ae46" x="782.34619" y="385.478125" style="stroke: #000000; stroke-width: 0.8"/>
      </g>
     </g>
     <g id="text_28">
      <!-- 0.2 -->
      <g transform="translate(774.394628 400.076562) scale(0.1 -0.1)">
       <use xlink:href="#DejaVuSans-30"/>
       <use xlink:href="#DejaVuSans-2e" transform="translate(63.623047 0)"/>
       <use xlink:href="#DejaVuSans-32" transform="translate(95.410156 0)"/>
      </g>
     </g>
    </g>
    <g id="xtick_15">
     <g id="line2d_51">
      <path d="M 827.287402 385.478125 
L 827.287402 22.318125 
" clip-path="url(#pf2953531f2)" style="fill: none; stroke: #b0b0b0; stroke-width: 0.8; stroke-linecap: square"/>
     </g>
     <g id="line2d_52">
      <g>
       <use xlink:href="#mcf52e2ae46" x="827.287402" y="385.478125" style="stroke: #000000; stroke-width: 0.8"/>
      </g>
     </g>
     <g id="text_29">
      <!-- 0.3 -->
      <g transform="translate(819.33584 400.076562) scale(0.1 -0.1)">
       <use xlink:href="#DejaVuSans-30"/>
       <use xlink:href="#DejaVuSans-2e" transform="translate(63.623047 0)"/>
       <use xlink:href="#DejaVuSans-33" transform="translate(95.410156 0)"/>
      </g>
     </g>
    </g>
    <g id="text_30">
     <!-- X Position (m) -->
     <g transform="translate(637.619375 413.754687) scale(0.1 -0.1)">
      <use xlink:href="#DejaVuSans-58"/>
      <use xlink:href="#DejaVuSans-20" transform="translate(68.505859 0)"/>
      <use xlink:href="#DejaVuSans-50" transform="translate(100.292969 0)"/>
      <use xlink:href="#DejaVuSans-6f" transform="translate(156.970703 0)"/>
      <use xlink:href="#DejaVuSans-73" transform="translate(218.152344 0)"/>
      <use xlink:href="#DejaVuSans-69" transform="translate(270.251953 0)"/>
      <use xlink:href="#DejaVuSans-74" transform="translate(298.035156 0)"/>
      <use xlink:href="#DejaVuSans-69" transform="translate(337.244141 0)"/>
      <use xlink:href="#DejaVuSans-6f" transform="translate(365.027344 0)"/>
      <use xlink:href="#DejaVuSans-6e" transform="translate(426.208984 0)"/>
      <use xlink:href="#DejaVuSans-20" transform="translate(489.587891 0)"/>
      <use xlink:href="#DejaVuSans-28" transform="translate(521.375 0)"/>
      <use xlink:href="#DejaVuSans-6d" transform="translate(560.388672 0)"/>
      <use xlink:href="#DejaVuSans-29" transform="translate(657.800781 0)"/>
     </g>
    </g>
   </g>
   <g id="matplotlib.axis_4">
    <g id="ytick_10">
     <g id="line2d_53">
      <path d="M 495.645937 377.741145 
L 849.270937 377.741145 
" clip-path="url(#pf2953531f2)" style="fill: none; stroke: #b0b0b0; stroke-width: 0.8; stroke-linecap: square"/>
     </g>
     <g id="line2d_54">
      <g>
       <use xlink:href="#m72f7d982f7" x="495.645937" y="377.741145" style="stroke: #000000; stroke-width: 0.8"/>
      </g>
     </g>
     <g id="text_31">
      <!-- −0.5 -->
      <g transform="translate(464.363125 381.540363) scale(0.1 -0.1)">
       <use xlink:href="#DejaVuSans-2212"/>
       <use xlink:href="#DejaVuSans-30" transform="translate(83.789062 0)"/>
       <use xlink:href="#DejaVuSans-2e" transform="translate(147.412109 0)"/>
       <use xlink:href="#DejaVuSans-35" transform="translate(179.199219 0)"/>
      </g>
     </g>
    </g>
    <g id="ytick_11">
     <g id="line2d_55">
      <path d="M 495.645937 334.057819 
L 849.270937 334.057819 
" clip-path="url(#pf2953531f2)" style="fill: none; stroke: #b0b0b0; stroke-width: 0.8; stroke-linecap: square"/>
     </g>
     <g id="line2d_56">
      <g>
       <use xlink:href="#m72f7d982f7" x="495.645937" y="334.057819" style="stroke: #000000; stroke-width: 0.8"/>
      </g>
     </g>
     <g id="text_32">
      <!-- −0.4 -->
      <g transform="translate(464.363125 337.857037) scale(0.1 -0.1)">
       <use xlink:href="#DejaVuSans-2212"/>
       <use xlink:href="#DejaVuSans-30" transform="translate(83.789062 0)"/>
       <use xlink:href="#DejaVuSans-2e" transform="translate(147.412109 0)"/>
       <use xlink:href="#DejaVuSans-34" transform="translate(179.199219 0)"/>
      </g>
     </g>
    </g>
    <g id="ytick_12">
     <g id="line2d_57">
      <path d="M 495.645937 290.374492 
L 849.270937 290.374492 
" clip-path="url(#pf2953531f2)" style="fill: none; stroke: #b0b0b0; stroke-width: 0.8; stroke-linecap: square"/>
     </g>
     <g id="line2d_58">
      <g>
       <use xlink:href="#m72f7d982f7" x="495.645937" y="290.374492" style="stroke: #000000; stroke-width: 0.8"/>
      </g>
     </g>
     <g id="text_33">
      <!-- −0.3 -->
      <g transform="translate(464.363125 294.173711) scale(0.1 -0.1)">
       <use xlink:href="#DejaVuSans-2212"/>
       <use xlink:href="#DejaVuSans-30" transform="translate(83.789062 0)"/>
       <use xlink:href="#DejaVuSans-2e" transform="translate(147.412109 0)"/>
       <use xlink:href="#DejaVuSans-33" transform="translate(179.199219 0)"/>
      </g>
     </g>
    </g>
    <g id="ytick_13">
     <g id="line2d_59">
      <path d="M 495.645937 246.691166 
L 849.270937 246.691166 
" clip-path="url(#pf2953531f2)" style="fill: none; stroke: #b0b0b0; stroke-width: 0.8; stroke-linecap: square"/>
     </g>
     <g id="line2d_60">
      <g>
       <use xlink:href="#m72f7d982f7" x="495.645937" y="246.691166" style="stroke: #000000; stroke-width: 0.8"/>
      </g>
     </g>
     <g id="text_34">
      <!-- −0.2 -->
      <g transform="translate(464.363125 250.490385) scale(0.1 -0.1)">
       <use xlink:href="#DejaVuSans-2212"/>
       <use xlink:href="#DejaVuSans-30" transform="translate(83.789062 0)"/>
       <use xlink:href="#DejaVuSans-2e" transform="translate(147.412109 0)"/>
       <use xlink:href="#DejaVuSans-32" transform="translate(179.199219 0)"/>
      </g>
     </g>
    </g>
    <g id="ytick_14">
     <g id="line2d_61">
      <path d="M 495.645937 203.00784 
L 849.270937 203.00784 
" clip-path="url(#pf2953531f2)" style="fill: none; stroke: #b0b0b0; stroke-width: 0.8; stroke-linecap: square"/>
     </g>
     <g id="line2d_62">
      <g>
       <use xlink:href="#m72f7d982f7" x="495.645937" y="203.00784" style="stroke: #000000; stroke-width: 0.8"/>
      </g>
     </g>
     <g id="text_35">
      <!-- −0.1 -->
      <g transform="translate(464.363125 206.807059) scale(0.1 -0.1)">
       <use xlink:href="#DejaVuSans-2212"/>
       <use xlink:href="#DejaVuSans-30" transform="translate(83.789062 0)"/>
       <use xlink:href="#DejaVuSans-2e" transform="translate(147.412109 0)"/>
       <use xlink:href="#DejaVuSans-31" transform="translate(179.199219 0)"/>
      </g>
     </g>
    </g>
    <g id="ytick_15">
     <g id="line2d_63">
      <path d="M 495.645937 159.324514 
L 849.270937 159.324514 
" clip-path="url(#pf2953531f2)" style="fill: none; stroke: #b0b0b0; stroke-width: 0.8; stroke-linecap: square"/>
     </g>
     <g id="line2d_64">
      <g>
       <use xlink:href="#m72f7d982f7" x="495.645937" y="159.324514" style="stroke: #000000; stroke-width: 0.8"/>
      </g>
     </g>
     <g id="text_36">
      <!-- 0.0 -->
      <g transform="translate(472.742812 163.123733) scale(0.1 -0.1)">
       <use xlink:href="#DejaVuSans-30"/>
       <use xlink:href="#DejaVuSans-2e" transform="translate(63.623047 0)"/>
       <use xlink:href="#DejaVuSans-30" transform="translate(95.410156 0)"/>
      </g>
     </g>
    </g>
    <g id="ytick_16">
     <g id="line2d_65">
      <path d="M 495.645937 115.641188 
L 849.270937 115.641188 
" clip-path="url(#pf2953531f2)" style="fill: none; stroke: #b0b0b0; stroke-width: 0.8; stroke-linecap: square"/>
     </g>
     <g id="line2d_66">
      <g>
       <use xlink:href="#m72f7d982f7" x="495.645937" y="115.641188" style="stroke: #000000; stroke-width: 0.8"/>
      </g>
     </g>
     <g id="text_37">
      <!-- 0.1 -->
      <g transform="translate(472.742812 119.440407) scale(0.1 -0.1)">
       <use xlink:href="#DejaVuSans-30"/>
       <use xlink:href="#DejaVuSans-2e" transform="translate(63.623047 0)"/>
       <use xlink:href="#DejaVuSans-31" transform="translate(95.410156 0)"/>
      </g>
     </g>
    </g>
    <g id="ytick_17">
     <g id="line2d_67">
      <path d="M 495.645937 71.957862 
L 849.270937 71.957862 
" clip-path="url(#pf2953531f2)" style="fill: none; stroke: #b0b0b0; stroke-width: 0.8; stroke-linecap: square"/>
     </g>
     <g id="line2d_68">
      <g>
       <use xlink:href="#m72f7d982f7" x="495.645937" y="71.957862" style="stroke: #000000; stroke-width: 0.8"/>
      </g>
     </g>
     <g id="text_38">
      <!-- 0.2 -->
      <g transform="translate(472.742812 75.757081) scale(0.1 -0.1)">
       <use xlink:href="#DejaVuSans-30"/>
       <use xlink:href="#DejaVuSans-2e" transform="translate(63.623047 0)"/>
       <use xlink:href="#DejaVuSans-32" transform="translate(95.410156 0)"/>
      </g>
     </g>
    </g>
    <g id="ytick_18">
     <g id="line2d_69">
      <path d="M 495.645937 28.274536 
L 849.270937 28.274536 
" clip-path="url(#pf2953531f2)" style="fill: none; stroke: #b0b0b0; stroke-width: 0.8; stroke-linecap: square"/>
     </g>
     <g id="line2d_70">
      <g>
       <use xlink:href="#m72f7d982f7" x="495.645937" y="28.274536" style="stroke: #000000; stroke-width: 0.8"/>
      </g>
     </g>
     <g id="text_39">
      <!-- 0.3 -->
      <g transform="translate(472.742812 32.073755) scale(0.1 -0.1)">
       <use xlink:href="#DejaVuSans-30"/>
       <use xlink:href="#DejaVuSans-2e" transform="translate(63.623047 0)"/>
       <use xlink:href="#DejaVuSans-33" transform="translate(95.410156 0)"/>
      </g>
     </g>
    </g>
    <g id="text_40">
     <!-- Y Position (m) -->
     <g transform="translate(458.283437 238.366094) rotate(-90) scale(0.1 -0.1)">
      <use xlink:href="#DejaVuSans-59"/>
      <use xlink:href="#DejaVuSans-20" transform="translate(61.083984 0)"/>
      <use xlink:href="#DejaVuSans-50" transform="translate(92.871094 0)"/>
      <use xlink:href="#DejaVuSans-6f" transform="translate(149.548828 0)"/>
      <use xlink:href="#DejaVuSans-73" transform="translate(210.730469 0)"/>
      <use xlink:href="#DejaVuSans-69" transform="translate(262.830078 0)"/>
      <use xlink:href="#DejaVuSans-74" transform="translate(290.613281 0)"/>
      <use xlink:href="#DejaVuSans-69" transform="translate(329.822266 0)"/>
      <use xlink:href="#DejaVuSans-6f" transform="translate(357.605469 0)"/>
      <use xlink:href="#DejaVuSans-6e" transform="translate(418.787109 0)"/>
      <use xlink:href="#DejaVuSans-20" transform="translate(482.166016 0)"/>
      <use xlink:href="#DejaVuSans-28" transform="translate(513.953125 0)"/>
      <use xlink:href="#DejaVuSans-6d" transform="translate(552.966797 0)"/>
      <use xlink:href="#DejaVuSans-29" transform="translate(650.378906 0)"/>
     </g>
    </g>
   </g>
   <g id="line2d_71">
    <path d="M 692.463767 159.324514 
L 692.463787 159.324552 
L 692.731827 159.020471 
L 693.947176 158.766123 
L 694.701252 158.420934 
L 695.898037 158.185679 
L 697.627845 157.488971 
L 699.206142 156.75483 
L 701.855398 153.878461 
L 702.654562 152.653154 
L 704.119364 149.253408 
L 704.629225 147.743965 
L 705.258036 143.382226 
L 705.289763 141.226973 
L 705.097975 138.379748 
L 704.62404 136.026065 
L 703.754243 133.795467 
L 701.458911 129.186542 
L 699.817615 127.117172 
L 697.073135 123.853351 
L 695.162142 122.248346 
L 692.869041 120.550319 
L 689.729747 118.718805 
L 683.79801 116.27734 
L 680.635051 115.22092 
L 675.204007 114.185157 
L 672.901933 114.091794 
L 668.895408 114.045288 
L 664.083765 114.535352 
L 660.013905 115.384137 
L 655.846614 116.677689 
L 652.225643 118.044332 
L 648.904135 119.767769 
L 645.05595 121.961386 
L 640.208208 125.457887 
L 637.264466 128.315034 
L 633.927417 131.909318 
L 631.15058 135.778214 
L 628.870219 139.584191 
L 626.786015 143.872339 
L 625.278787 148.137774 
L 623.857517 153.216822 
L 622.569345 160.400015 
L 622.356167 164.943619 
L 622.507186 170.403107 
L 623.077176 175.596757 
L 624.191482 180.922343 
L 626.001615 186.076502 
L 627.766217 190.503935 
L 631.228229 196.950452 
L 637.252063 205.529587 
L 641.254463 209.697622 
L 645.537631 213.487388 
L 650.112208 217.103947 
L 654.974096 220.243815 
L 658.969016 222.429563 
L 666.709073 226.044575 
L 676.856024 228.925719 
L 682.661172 230.02527 
L 688.613376 230.742797 
L 694.82273 230.977791 
L 700.756743 230.612276 
L 705.385129 229.967555 
L 713.828724 228.371375 
L 719.522815 226.560127 
L 724.290417 224.804677 
L 729.897697 222.235038 
L 734.87419 219.756714 
L 739.983523 216.421044 
L 744.870547 212.735306 
L 748.585346 209.530698 
L 752.950099 205.24275 
L 756.892769 200.717612 
L 761.169245 194.869926 
L 764.352169 189.821462 
L 767.350783 184.390776 
L 769.808423 178.910131 
L 772.011041 173.022385 
L 773.457572 168.088657 
L 775.486364 159.999779 
L 776.735642 148.600847 
L 776.871346 142.54082 
L 776.534792 136.15459 
L 775.89555 129.917062 
L 774.847417 123.856697 
L 773.721984 118.935044 
L 771.420807 111.013763 
L 766.643074 100.650084 
L 763.687842 95.15966 
L 760.414489 89.947803 
L 756.624158 84.581489 
L 752.445531 79.536154 
L 748.073789 74.718802 
L 741.971586 68.789777 
L 734.32243 62.494623 
L 726.50782 57.051985 
L 715.730669 51.13716 
L 709.06268 48.234639 
L 702.377867 45.720398 
L 693.717465 43.15856 
L 689.430611 42.197161 
L 679.433012 40.244592 
L 672.270678 39.471758 
L 666.252586 39.06847 
L 658.982382 38.825398 
L 651.192062 39.06503 
L 644.307068 39.518343 
L 636.700473 40.595183 
L 627.691872 42.444088 
L 623.379181 43.514884 
L 613.612266 46.422671 
L 608.022714 48.617913 
L 601.116261 51.5216 
L 594.471405 54.700321 
L 587.953027 58.299839 
L 579.879371 63.329058 
L 576.592171 65.630102 
L 567.896703 72.295742 
L 562.297646 77.177982 
L 556.750912 82.448741 
L 551.591345 87.805106 
L 546.529156 93.595569 
L 542.528742 98.805241 
L 536.792383 106.485264 
L 534.165743 110.794372 
L 529.626683 118.504729 
L 526.200566 125.274306 
L 523.131199 132.43155 
L 520.598418 138.873132 
L 518.213571 146.325599 
L 516.586929 152.311122 
L 514.84293 159.715174 
L 513.491572 167.186281 
L 512.34635 175.957524 
L 511.719801 191.088438 
L 511.899381 198.96102 
L 512.477952 206.681287 
L 513.171358 212.749632 
L 514.799743 223.429379 
L 518.064 236.940833 
L 520.478245 244.438536 
L 522.99281 251.381542 
L 526.052336 258.541187 
L 529.423698 265.759402 
L 532.343502 271.321738 
L 537.707252 280.633032 
L 542.213871 287.154953 
L 545.83903 292.189811 
L 550.832139 298.459118 
L 555.649669 304.071939 
L 561.489717 310.025911 
L 567.162868 315.611803 
L 571.737762 319.74318 
L 578.178333 325.059994 
L 586.945123 331.857343 
L 592.513409 335.585901 
L 598.993233 339.707448 
L 606.11576 343.754063 
L 613.295468 347.461415 
L 620.533396 350.859942 
L 626.598822 353.429426 
L 636.927377 357.632606 
L 641.648986 359.116193 
L 649.681209 361.505768 
L 658.824433 363.880099 
L 666.971201 365.516503 
L 675.090842 366.81801 
L 683.348809 367.808085 
L 697.828295 368.847151 
L 709.764272 368.970852 
L 724.817273 368.355932 
L 733.125789 367.504541 
L 741.199987 366.365618 
L 749.432007 364.922289 
L 764.299612 361.441633 
L 781.260052 356.092363 
L 788.726442 353.176149 
L 796.173227 350.014238 
L 803.874516 346.387987 
L 811.533818 342.446131 
L 817.196689 339.274913 
L 824.316322 334.950791 
L 833.197074 329.162497 
L 833.197074 329.162497 
" clip-path="url(#pf2953531f2)" style="fill: none; stroke: #0000ff; stroke-width: 1.5; stroke-linecap: square"/>
   </g>
   <g id="patch_9">
    <path d="M 495.645937 385.478125 
L 495.645937 22.318125 
" style="fill: none; stroke: #000000; stroke-width: 0.8; stroke-linejoin: miter; stroke-linecap: square"/>
   </g>
   <g id="patch_10">
    <path d="M 849.270937 385.478125 
L 849.270937 22.318125 
" style="fill: none; stroke: #000000; stroke-width: 0.8; stroke-linejoin: miter; stroke-linecap: square"/>
   </g>
   <g id="patch_11">
    <path d="M 495.645937 385.478125 
L 849.270937 385.478125 
" style="fill: none; stroke: #000000; stroke-width: 0.8; stroke-linejoin: miter; stroke-linecap: square"/>
   </g>
   <g id="patch_12">
    <path d="M 495.645937 22.318125 
L 849.270937 22.318125 
" style="fill: none; stroke: #000000; stroke-width: 0.8; stroke-linejoin: miter; stroke-linecap: square"/>
   </g>
   <g id="text_41">
    <!-- Odometry X/Y Position Plot -->
    <g transform="translate(592.167187 16.318125) scale(0.12 -0.12)">
     <defs>
      <path id="DejaVuSans-2f" d="M 1625 4666 
L 2156 4666 
L 531 -594 
L 0 -594 
L 1625 4666 
z
" transform="scale(0.015625)"/>
     </defs>
     <use xlink:href="#DejaVuSans-4f"/>
     <use xlink:href="#DejaVuSans-64" transform="translate(78.710938 0)"/>
     <use xlink:href="#DejaVuSans-6f" transform="translate(142.1875 0)"/>
     <use xlink:href="#DejaVuSans-6d" transform="translate(203.369141 0)"/>
     <use xlink:href="#DejaVuSans-65" transform="translate(300.78125 0)"/>
     <use xlink:href="#DejaVuSans-74" transform="translate(362.304688 0)"/>
     <use xlink:href="#DejaVuSans-72" transform="translate(401.513672 0)"/>
     <use xlink:href="#DejaVuSans-79" transform="translate(442.626953 0)"/>
     <use xlink:href="#DejaVuSans-20" transform="translate(501.806641 0)"/>
     <use xlink:href="#DejaVuSans-58" transform="translate(533.59375 0)"/>
     <use xlink:href="#DejaVuSans-2f" transform="translate(602.099609 0)"/>
     <use xlink:href="#DejaVuSans-59" transform="translate(635.791016 0)"/>
     <use xlink:href="#DejaVuSans-20" transform="translate(696.875 0)"/>
     <use xlink:href="#DejaVuSans-50" transform="translate(728.662109 0)"/>
     <use xlink:href="#DejaVuSans-6f" transform="translate(785.339844 0)"/>
     <use xlink:href="#DejaVuSans-73" transform="translate(846.521484 0)"/>
     <use xlink:href="#DejaVuSans-69" transform="translate(898.621094 0)"/>
     <use xlink:href="#DejaVuSans-74" transform="translate(926.404297 0)"/>
     <use xlink:href="#DejaVuSans-69" transform="translate(965.613281 0)"/>
     <use xlink:href="#DejaVuSans-6f" transform="translate(993.396484 0)"/>
     <use xlink:href="#DejaVuSans-6e" transform="translate(1054.578125 0)"/>
     <use xlink:href="#DejaVuSans-20" transform="translate(1117.957031 0)"/>
     <use xlink:href="#DejaVuSans-50" transform="translate(1149.744141 0)"/>
     <use xlink:href="#DejaVuSans-6c" transform="translate(1210.046875 0)"/>
     <use xlink:href="#DejaVuSans-6f" transform="translate(1237.830078 0)"/>
     <use xlink:href="#DejaVuSans-74" transform="translate(1299.011719 0)"/>
    </g>
   </g>
  </g>
  <g id="axes_3">
   <g id="matplotlib.axis_5">
    <g id="ytick_19">
     <g id="line2d_72">
      <defs>
       <path id="m540435b47a" d="M 0 0 
L 3.5 0 
" style="stroke: #000000; stroke-width: 0.8"/>
      </defs>
      <g>
       <use xlink:href="#m540435b47a" x="405.785938" y="368.970815" style="stroke: #000000; stroke-width: 0.8"/>
      </g>
     </g>
     <g id="text_42">
      <!-- 0 -->
      <g transform="translate(412.785938 372.770034) scale(0.1 -0.1)">
       <use xlink:href="#DejaVuSans-30"/>
      </g>
     </g>
    </g>
    <g id="ytick_20">
     <g id="line2d_73">
      <g>
       <use xlink:href="#m540435b47a" x="405.785938" y="318.937753" style="stroke: #000000; stroke-width: 0.8"/>
      </g>
     </g>
     <g id="text_43">
      <!-- 2 -->
      <g transform="translate(412.785938 322.736971) scale(0.1 -0.1)">
       <use xlink:href="#DejaVuSans-32"/>
      </g>
     </g>
    </g>
    <g id="ytick_21">
     <g id="line2d_74">
      <g>
       <use xlink:href="#m540435b47a" x="405.785938" y="268.90469" style="stroke: #000000; stroke-width: 0.8"/>
      </g>
     </g>
     <g id="text_44">
      <!-- 4 -->
      <g transform="translate(412.785938 272.703909) scale(0.1 -0.1)">
       <use xlink:href="#DejaVuSans-34"/>
      </g>
     </g>
    </g>
    <g id="ytick_22">
     <g id="line2d_75">
      <g>
       <use xlink:href="#m540435b47a" x="405.785938" y="218.871628" style="stroke: #000000; stroke-width: 0.8"/>
      </g>
     </g>
     <g id="text_45">
      <!-- 6 -->
      <g transform="translate(412.785938 222.670846) scale(0.1 -0.1)">
       <use xlink:href="#DejaVuSans-36"/>
      </g>
     </g>
    </g>
    <g id="ytick_23">
     <g id="line2d_76">
      <g>
       <use xlink:href="#m540435b47a" x="405.785938" y="168.838565" style="stroke: #000000; stroke-width: 0.8"/>
      </g>
     </g>
     <g id="text_46">
      <!-- 8 -->
      <g transform="translate(412.785938 172.637784) scale(0.1 -0.1)">
       <use xlink:href="#DejaVuSans-38"/>
      </g>
     </g>
    </g>
    <g id="ytick_24">
     <g id="line2d_77">
      <g>
       <use xlink:href="#m540435b47a" x="405.785938" y="118.805503" style="stroke: #000000; stroke-width: 0.8"/>
      </g>
     </g>
     <g id="text_47">
      <!-- 10 -->
      <g transform="translate(412.785938 122.604721) scale(0.1 -0.1)">
       <use xlink:href="#DejaVuSans-31"/>
       <use xlink:href="#DejaVuSans-30" transform="translate(63.623047 0)"/>
      </g>
     </g>
    </g>
    <g id="ytick_25">
     <g id="line2d_78">
      <g>
       <use xlink:href="#m540435b47a" x="405.785938" y="68.77244" style="stroke: #000000; stroke-width: 0.8"/>
      </g>
     </g>
     <g id="text_48">
      <!-- 12 -->
      <g transform="translate(412.785938 72.571659) scale(0.1 -0.1)">
       <use xlink:href="#DejaVuSans-31"/>
       <use xlink:href="#DejaVuSans-32" transform="translate(63.623047 0)"/>
      </g>
     </g>
    </g>
    <g id="text_49">
     <!-- Angular Position (Rad) -->
     <g transform="translate(437.109375 259.4825) rotate(-90) scale(0.1 -0.1)">
      <defs>
       <path id="DejaVuSans-41" d="M 2188 4044 
L 1331 1722 
L 3047 1722 
L 2188 4044 
z
M 1831 4666 
L 2547 4666 
L 4325 0 
L 3669 0 
L 3244 1197 
L 1141 1197 
L 716 0 
L 50 0 
L 1831 4666 
z
" transform="scale(0.015625)"/>
       <path id="DejaVuSans-75" d="M 544 1381 
L 544 3500 
L 1119 3500 
L 1119 1403 
Q 1119 906 1312 657 
Q 1506 409 1894 409 
Q 2359 409 2629 706 
Q 2900 1003 2900 1516 
L 2900 3500 
L 3475 3500 
L 3475 0 
L 2900 0 
L 2900 538 
Q 2691 219 2414 64 
Q 2138 -91 1772 -91 
Q 1169 -91 856 284 
Q 544 659 544 1381 
z
M 1991 3584 
L 1991 3584 
z
" transform="scale(0.015625)"/>
       <path id="DejaVuSans-52" d="M 2841 2188 
Q 3044 2119 3236 1894 
Q 3428 1669 3622 1275 
L 4263 0 
L 3584 0 
L 2988 1197 
Q 2756 1666 2539 1819 
Q 2322 1972 1947 1972 
L 1259 1972 
L 1259 0 
L 628 0 
L 628 4666 
L 2053 4666 
Q 2853 4666 3247 4331 
Q 3641 3997 3641 3322 
Q 3641 2881 3436 2590 
Q 3231 2300 2841 2188 
z
M 1259 4147 
L 1259 2491 
L 2053 2491 
Q 2509 2491 2742 2702 
Q 2975 2913 2975 3322 
Q 2975 3731 2742 3939 
Q 2509 4147 2053 4147 
L 1259 4147 
z
" transform="scale(0.015625)"/>
      </defs>
      <use xlink:href="#DejaVuSans-41"/>
      <use xlink:href="#DejaVuSans-6e" transform="translate(68.408203 0)"/>
      <use xlink:href="#DejaVuSans-67" transform="translate(131.787109 0)"/>
      <use xlink:href="#DejaVuSans-75" transform="translate(195.263672 0)"/>
      <use xlink:href="#DejaVuSans-6c" transform="translate(258.642578 0)"/>
      <use xlink:href="#DejaVuSans-61" transform="translate(286.425781 0)"/>
      <use xlink:href="#DejaVuSans-72" transform="translate(347.705078 0)"/>
      <use xlink:href="#DejaVuSans-20" transform="translate(388.818359 0)"/>
      <use xlink:href="#DejaVuSans-50" transform="translate(420.605469 0)"/>
      <use xlink:href="#DejaVuSans-6f" transform="translate(477.283203 0)"/>
      <use xlink:href="#DejaVuSans-73" transform="translate(538.464844 0)"/>
      <use xlink:href="#DejaVuSans-69" transform="translate(590.564453 0)"/>
      <use xlink:href="#DejaVuSans-74" transform="translate(618.347656 0)"/>
      <use xlink:href="#DejaVuSans-69" transform="translate(657.556641 0)"/>
      <use xlink:href="#DejaVuSans-6f" transform="translate(685.339844 0)"/>
      <use xlink:href="#DejaVuSans-6e" transform="translate(746.521484 0)"/>
      <use xlink:href="#DejaVuSans-20" transform="translate(809.900391 0)"/>
      <use xlink:href="#DejaVuSans-28" transform="translate(841.6875 0)"/>
      <use xlink:href="#DejaVuSans-52" transform="translate(880.701172 0)"/>
      <use xlink:href="#DejaVuSans-61" transform="translate(947.933594 0)"/>
      <use xlink:href="#DejaVuSans-64" transform="translate(1009.212891 0)"/>
      <use xlink:href="#DejaVuSans-29" transform="translate(1072.689453 0)"/>
     </g>
    </g>
   </g>
   <g id="line2d_79">
    <path d="M 68.234801 368.970815 
L 123.309342 368.970852 
L 124.359681 368.548488 
L 126.185896 367.029627 
L 126.986384 366.04663 
L 128.59431 363.616689 
L 129.865999 361.333705 
L 133.799761 353.726846 
L 137.480986 347.176712 
L 147.967766 328.24123 
L 154.815734 315.83464 
L 170.26534 288.118157 
L 188.629569 255.250657 
L 200.47529 235.108864 
L 210.926747 218.59568 
L 222.998191 200.883655 
L 236.104259 182.994313 
L 239.805039 178.342681 
L 255.779059 158.80735 
L 264.55547 148.781606 
L 271.389208 141.148439 
L 273.749252 138.573552 
L 279.256699 132.895752 
L 285.582919 126.22003 
L 302.795623 109.399551 
L 320.045878 93.517317 
L 325.560913 88.678636 
L 336.054052 79.739478 
L 339.773554 76.673713 
L 355.224107 64.416165 
L 364.640395 57.040261 
L 388.041117 39.962994 
L 389.712074 38.825398 
L 389.712074 38.825398 
" clip-path="url(#pb00ef9baa3)" style="fill: none; stroke: #008000; stroke-width: 1.5; stroke-linecap: square"/>
   </g>
   <g id="patch_13">
    <path d="M 52.160938 385.478125 
L 52.160938 22.318125 
" style="fill: none; stroke: #000000; stroke-width: 0.8; stroke-linejoin: miter; stroke-linecap: square"/>
   </g>
   <g id="patch_14">
    <path d="M 405.785938 385.478125 
L 405.785938 22.318125 
" style="fill: none; stroke: #000000; stroke-width: 0.8; stroke-linejoin: miter; stroke-linecap: square"/>
   </g>
   <g id="patch_15">
    <path d="M 52.160938 385.478125 
L 405.785938 385.478125 
" style="fill: none; stroke: #000000; stroke-width: 0.8; stroke-linejoin: miter; stroke-linecap: square"/>
   </g>
   <g id="patch_16">
    <path d="M 52.160938 22.318125 
L 405.785938 22.318125 
" style="fill: none; stroke: #000000; stroke-width: 0.8; stroke-linejoin: miter; stroke-linecap: square"/>
   </g>
   <g id="legend_2">
    <g id="patch_17">
     <path d="M 338.139063 44.99625 
L 398.785938 44.99625 
Q 400.785938 44.99625 400.785938 42.99625 
L 400.785938 29.318125 
Q 400.785938 27.318125 398.785938 27.318125 
L 338.139063 27.318125 
Q 336.139063 27.318125 336.139063 29.318125 
L 336.139063 42.99625 
Q 336.139063 44.99625 338.139063 44.99625 
z
" style="fill: #ffffff; opacity: 0.8; stroke: #cccccc; stroke-linejoin: miter"/>
    </g>
    <g id="line2d_80">
     <path d="M 340.139063 35.416563 
L 350.139063 35.416563 
L 360.139063 35.416563 
" style="fill: none; stroke: #008000; stroke-width: 1.5; stroke-linecap: square"/>
    </g>
    <g id="text_50">
     <!-- Theta -->
     <g transform="translate(368.139063 38.916563) scale(0.1 -0.1)">
      <defs>
       <path id="DejaVuSans-68" d="M 3513 2113 
L 3513 0 
L 2938 0 
L 2938 2094 
Q 2938 2591 2744 2837 
Q 2550 3084 2163 3084 
Q 1697 3084 1428 2787 
Q 1159 2491 1159 1978 
L 1159 0 
L 581 0 
L 581 4863 
L 1159 4863 
L 1159 2956 
Q 1366 3272 1645 3428 
Q 1925 3584 2291 3584 
Q 2894 3584 3203 3211 
Q 3513 2838 3513 2113 
z
" transform="scale(0.015625)"/>
      </defs>
      <use xlink:href="#DejaVuSans-54"/>
      <use xlink:href="#DejaVuSans-68" transform="translate(61.083984 0)"/>
      <use xlink:href="#DejaVuSans-65" transform="translate(124.462891 0)"/>
      <use xlink:href="#DejaVuSans-74" transform="translate(185.986328 0)"/>
      <use xlink:href="#DejaVuSans-61" transform="translate(225.195312 0)"/>
     </g>
    </g>
   </g>
  </g>
 </g>
 <defs>
  <clipPath id="pb00ef9baa3">
   <rect x="52.160938" y="22.318125" width="353.625" height="363.16"/>
  </clipPath>
  <clipPath id="pf2953531f2">
   <rect x="495.645937" y="22.318125" width="353.625" height="363.16"/>
  </clipPath>
 </defs>
</svg>
