<?xml version="1.0" encoding="utf-8" standalone="no"?>
<!DOCTYPE svg PUBLIC "-//W3C//DTD SVG 1.1//EN"
  "http://www.w3.org/Graphics/SVG/1.1/DTD/svg11.dtd">
<svg xmlns:xlink="http://www.w3.org/1999/xlink" width="856.470937pt" height="423.034375pt" viewBox="0 0 856.470937 423.034375" xmlns="http://www.w3.org/2000/svg" version="1.1">
 <metadata>
  <rdf:RDF xmlns:dc="http://purl.org/dc/elements/1.1/" xmlns:cc="http://creativecommons.org/ns#" xmlns:rdf="http://www.w3.org/1999/02/22-rdf-syntax-ns#">
   <cc:Work>
    <dc:type rdf:resource="http://purl.org/dc/dcmitype/StillImage"/>
    <dc:date>2025-10-09T11:00:31.637052</dc:date>
    <dc:format>image/svg+xml</dc:format>
    <dc:creator>
     <cc:Agent>
      <dc:title>Matplotlib v3.10.6, https://matplotlib.org/</dc:title>
     </cc:Agent>
    </dc:creator>
   </cc:Work>
  </rdf:RDF>
 </metadata>
 <defs>
  <style type="text/css">*{stroke-linejoin: round; stroke-linecap: butt}</style>
 </defs>
 <g id="figure_1">
  <g id="patch_1">
   <path d="M 0 423.034375 
L 856.470937 423.034375 
L 856.470937 0 
L 0 0 
z
" style="fill: #ffffff"/>
  </g>
  <g id="axes_1">
   <g id="patch_2">
    <path d="M 52.160938 385.478125 
L 413.120938 385.478125 
L 413.120938 22.318125 
L 52.160938 22.318125 
z
" style="fill: #ffffff"/>
   </g>
   <g id="matplotlib.axis_1">
    <g id="xtick_1">
     <g id="line2d_1">
      <path d="M 68.56821 385.478125 
L 68.56821 22.318125 
" clip-path="url(#p63b95afdab)" style="fill: none; stroke: #b0b0b0; stroke-width: 0.8; stroke-linecap: square"/>
     </g>
     <g id="line2d_2">
      <defs>
       <path id="m67c652abba" d="M 0 0 
L 0 3.5 
" style="stroke: #000000; stroke-width: 0.8"/>
      </defs>
      <g>
       <use xlink:href="#m67c652abba" x="68.56821" y="385.478125" style="stroke: #000000; stroke-width: 0.8"/>
      </g>
     </g>
     <g id="text_1">
      <!-- 0 -->
      <g transform="translate(65.38696 400.076562) scale(0.1 -0.1)">
       <defs>
        <path id="DejaVuSans-30" d="M 2034 4250 
Q 1547 4250 1301 3770 
Q 1056 3291 1056 2328 
Q 1056 1369 1301 889 
Q 1547 409 2034 409 
Q 2525 409 2770 889 
Q 3016 1369 3016 2328 
Q 3016 3291 2770 3770 
Q 2525 4250 2034 4250 
z
M 2034 4750 
Q 2819 4750 3233 4129 
Q 3647 3509 3647 2328 
Q 3647 1150 3233 529 
Q 2819 -91 2034 -91 
Q 1250 -91 836 529 
Q 422 1150 422 2328 
Q 422 3509 836 4129 
Q 1250 4750 2034 4750 
z
" transform="scale(0.015625)"/>
       </defs>
       <use xlink:href="#DejaVuSans-30"/>
      </g>
     </g>
    </g>
    <g id="xtick_2">
     <g id="line2d_3">
      <path d="M 113.217291 385.478125 
L 113.217291 22.318125 
" clip-path="url(#p63b95afdab)" style="fill: none; stroke: #b0b0b0; stroke-width: 0.8; stroke-linecap: square"/>
     </g>
     <g id="line2d_4">
      <g>
       <use xlink:href="#m67c652abba" x="113.217291" y="385.478125" style="stroke: #000000; stroke-width: 0.8"/>
      </g>
     </g>
     <g id="text_2">
      <!-- 1 -->
      <g transform="translate(110.036041 400.076562) scale(0.1 -0.1)">
       <defs>
        <path id="DejaVuSans-31" d="M 794 531 
L 1825 531 
L 1825 4091 
L 703 3866 
L 703 4441 
L 1819 4666 
L 2450 4666 
L 2450 531 
L 3481 531 
L 3481 0 
L 794 0 
L 794 531 
z
" transform="scale(0.015625)"/>
       </defs>
       <use xlink:href="#DejaVuSans-31"/>
      </g>
     </g>
    </g>
    <g id="xtick_3">
     <g id="line2d_5">
      <path d="M 157.866372 385.478125 
L 157.866372 22.318125 
" clip-path="url(#p63b95afdab)" style="fill: none; stroke: #b0b0b0; stroke-width: 0.8; stroke-linecap: square"/>
     </g>
     <g id="line2d_6">
      <g>
       <use xlink:href="#m67c652abba" x="157.866372" y="385.478125" style="stroke: #000000; stroke-width: 0.8"/>
      </g>
     </g>
     <g id="text_3">
      <!-- 2 -->
      <g transform="translate(154.685122 400.076562) scale(0.1 -0.1)">
       <defs>
        <path id="DejaVuSans-32" d="M 1228 531 
L 3431 531 
L 3431 0 
L 469 0 
L 469 531 
Q 828 903 1448 1529 
Q 2069 2156 2228 2338 
Q 2531 2678 2651 2914 
Q 2772 3150 2772 3378 
Q 2772 3750 2511 3984 
Q 2250 4219 1831 4219 
Q 1534 4219 1204 4116 
Q 875 4013 500 3803 
L 500 4441 
Q 881 4594 1212 4672 
Q 1544 4750 1819 4750 
Q 2544 4750 2975 4387 
Q 3406 4025 3406 3419 
Q 3406 3131 3298 2873 
Q 3191 2616 2906 2266 
Q 2828 2175 2409 1742 
Q 1991 1309 1228 531 
z
" transform="scale(0.015625)"/>
       </defs>
       <use xlink:href="#DejaVuSans-32"/>
      </g>
     </g>
    </g>
    <g id="xtick_4">
     <g id="line2d_7">
      <path d="M 202.515453 385.478125 
L 202.515453 22.318125 
" clip-path="url(#p63b95afdab)" style="fill: none; stroke: #b0b0b0; stroke-width: 0.8; stroke-linecap: square"/>
     </g>
     <g id="line2d_8">
      <g>
       <use xlink:href="#m67c652abba" x="202.515453" y="385.478125" style="stroke: #000000; stroke-width: 0.8"/>
      </g>
     </g>
     <g id="text_4">
      <!-- 3 -->
      <g transform="translate(199.334203 400.076562) scale(0.1 -0.1)">
       <defs>
        <path id="DejaVuSans-33" d="M 2597 2516 
Q 3050 2419 3304 2112 
Q 3559 1806 3559 1356 
Q 3559 666 3084 287 
Q 2609 -91 1734 -91 
Q 1441 -91 1130 -33 
Q 819 25 488 141 
L 488 750 
Q 750 597 1062 519 
Q 1375 441 1716 441 
Q 2309 441 2620 675 
Q 2931 909 2931 1356 
Q 2931 1769 2642 2001 
Q 2353 2234 1838 2234 
L 1294 2234 
L 1294 2753 
L 1863 2753 
Q 2328 2753 2575 2939 
Q 2822 3125 2822 3475 
Q 2822 3834 2567 4026 
Q 2313 4219 1838 4219 
Q 1578 4219 1281 4162 
Q 984 4106 628 3988 
L 628 4550 
Q 988 4650 1302 4700 
Q 1616 4750 1894 4750 
Q 2613 4750 3031 4423 
Q 3450 4097 3450 3541 
Q 3450 3153 3228 2886 
Q 3006 2619 2597 2516 
z
" transform="scale(0.015625)"/>
       </defs>
       <use xlink:href="#DejaVuSans-33"/>
      </g>
     </g>
    </g>
    <g id="xtick_5">
     <g id="line2d_9">
      <path d="M 247.164533 385.478125 
L 247.164533 22.318125 
" clip-path="url(#p63b95afdab)" style="fill: none; stroke: #b0b0b0; stroke-width: 0.8; stroke-linecap: square"/>
     </g>
     <g id="line2d_10">
      <g>
       <use xlink:href="#m67c652abba" x="247.164533" y="385.478125" style="stroke: #000000; stroke-width: 0.8"/>
      </g>
     </g>
     <g id="text_5">
      <!-- 4 -->
      <g transform="translate(243.983283 400.076562) scale(0.1 -0.1)">
       <defs>
        <path id="DejaVuSans-34" d="M 2419 4116 
L 825 1625 
L 2419 1625 
L 2419 4116 
z
M 2253 4666 
L 3047 4666 
L 3047 1625 
L 3713 1625 
L 3713 1100 
L 3047 1100 
L 3047 0 
L 2419 0 
L 2419 1100 
L 313 1100 
L 313 1709 
L 2253 4666 
z
" transform="scale(0.015625)"/>
       </defs>
       <use xlink:href="#DejaVuSans-34"/>
      </g>
     </g>
    </g>
    <g id="xtick_6">
     <g id="line2d_11">
      <path d="M 291.813614 385.478125 
L 291.813614 22.318125 
" clip-path="url(#p63b95afdab)" style="fill: none; stroke: #b0b0b0; stroke-width: 0.8; stroke-linecap: square"/>
     </g>
     <g id="line2d_12">
      <g>
       <use xlink:href="#m67c652abba" x="291.813614" y="385.478125" style="stroke: #000000; stroke-width: 0.8"/>
      </g>
     </g>
     <g id="text_6">
      <!-- 5 -->
      <g transform="translate(288.632364 400.076562) scale(0.1 -0.1)">
       <defs>
        <path id="DejaVuSans-35" d="M 691 4666 
L 3169 4666 
L 3169 4134 
L 1269 4134 
L 1269 2991 
Q 1406 3038 1543 3061 
Q 1681 3084 1819 3084 
Q 2600 3084 3056 2656 
Q 3513 2228 3513 1497 
Q 3513 744 3044 326 
Q 2575 -91 1722 -91 
Q 1428 -91 1123 -41 
Q 819 9 494 109 
L 494 744 
Q 775 591 1075 516 
Q 1375 441 1709 441 
Q 2250 441 2565 725 
Q 2881 1009 2881 1497 
Q 2881 1984 2565 2268 
Q 2250 2553 1709 2553 
Q 1456 2553 1204 2497 
Q 953 2441 691 2322 
L 691 4666 
z
" transform="scale(0.015625)"/>
       </defs>
       <use xlink:href="#DejaVuSans-35"/>
      </g>
     </g>
    </g>
    <g id="xtick_7">
     <g id="line2d_13">
      <path d="M 336.462695 385.478125 
L 336.462695 22.318125 
" clip-path="url(#p63b95afdab)" style="fill: none; stroke: #b0b0b0; stroke-width: 0.8; stroke-linecap: square"/>
     </g>
     <g id="line2d_14">
      <g>
       <use xlink:href="#m67c652abba" x="336.462695" y="385.478125" style="stroke: #000000; stroke-width: 0.8"/>
      </g>
     </g>
     <g id="text_7">
      <!-- 6 -->
      <g transform="translate(333.281445 400.076562) scale(0.1 -0.1)">
       <defs>
        <path id="DejaVuSans-36" d="M 2113 2584 
Q 1688 2584 1439 2293 
Q 1191 2003 1191 1497 
Q 1191 994 1439 701 
Q 1688 409 2113 409 
Q 2538 409 2786 701 
Q 3034 994 3034 1497 
Q 3034 2003 2786 2293 
Q 2538 2584 2113 2584 
z
M 3366 4563 
L 3366 3988 
Q 3128 4100 2886 4159 
Q 2644 4219 2406 4219 
Q 1781 4219 1451 3797 
Q 1122 3375 1075 2522 
Q 1259 2794 1537 2939 
Q 1816 3084 2150 3084 
Q 2853 3084 3261 2657 
Q 3669 2231 3669 1497 
Q 3669 778 3244 343 
Q 2819 -91 2113 -91 
Q 1303 -91 875 529 
Q 447 1150 447 2328 
Q 447 3434 972 4092 
Q 1497 4750 2381 4750 
Q 2619 4750 2861 4703 
Q 3103 4656 3366 4563 
z
" transform="scale(0.015625)"/>
       </defs>
       <use xlink:href="#DejaVuSans-36"/>
      </g>
     </g>
    </g>
    <g id="xtick_8">
     <g id="line2d_15">
      <path d="M 381.111776 385.478125 
L 381.111776 22.318125 
" clip-path="url(#p63b95afdab)" style="fill: none; stroke: #b0b0b0; stroke-width: 0.8; stroke-linecap: square"/>
     </g>
     <g id="line2d_16">
      <g>
       <use xlink:href="#m67c652abba" x="381.111776" y="385.478125" style="stroke: #000000; stroke-width: 0.8"/>
      </g>
     </g>
     <g id="text_8">
      <!-- 7 -->
      <g transform="translate(377.930526 400.076562) scale(0.1 -0.1)">
       <defs>
        <path id="DejaVuSans-37" d="M 525 4666 
L 3525 4666 
L 3525 4397 
L 1831 0 
L 1172 0 
L 2766 4134 
L 525 4134 
L 525 4666 
z
" transform="scale(0.015625)"/>
       </defs>
       <use xlink:href="#DejaVuSans-37"/>
      </g>
     </g>
    </g>
    <g id="text_9">
     <!-- Timestamp (sec) -->
     <g transform="translate(190.812813 413.754687) scale(0.1 -0.1)">
      <defs>
       <path id="DejaVuSans-54" d="M -19 4666 
L 3928 4666 
L 3928 4134 
L 2272 4134 
L 2272 0 
L 1638 0 
L 1638 4134 
L -19 4134 
L -19 4666 
z
" transform="scale(0.015625)"/>
       <path id="DejaVuSans-69" d="M 603 3500 
L 1178 3500 
L 1178 0 
L 603 0 
L 603 3500 
z
M 603 4863 
L 1178 4863 
L 1178 4134 
L 603 4134 
L 603 4863 
z
" transform="scale(0.015625)"/>
       <path id="DejaVuSans-6d" d="M 3328 2828 
Q 3544 3216 3844 3400 
Q 4144 3584 4550 3584 
Q 5097 3584 5394 3201 
Q 5691 2819 5691 2113 
L 5691 0 
L 5113 0 
L 5113 2094 
Q 5113 2597 4934 2840 
Q 4756 3084 4391 3084 
Q 3944 3084 3684 2787 
Q 3425 2491 3425 1978 
L 3425 0 
L 2847 0 
L 2847 2094 
Q 2847 2600 2669 2842 
Q 2491 3084 2119 3084 
Q 1678 3084 1418 2786 
Q 1159 2488 1159 1978 
L 1159 0 
L 581 0 
L 581 3500 
L 1159 3500 
L 1159 2956 
Q 1356 3278 1631 3431 
Q 1906 3584 2284 3584 
Q 2666 3584 2933 3390 
Q 3200 3197 3328 2828 
z
" transform="scale(0.015625)"/>
       <path id="DejaVuSans-65" d="M 3597 1894 
L 3597 1613 
L 953 1613 
Q 991 1019 1311 708 
Q 1631 397 2203 397 
Q 2534 397 2845 478 
Q 3156 559 3463 722 
L 3463 178 
Q 3153 47 2828 -22 
Q 2503 -91 2169 -91 
Q 1331 -91 842 396 
Q 353 884 353 1716 
Q 353 2575 817 3079 
Q 1281 3584 2069 3584 
Q 2775 3584 3186 3129 
Q 3597 2675 3597 1894 
z
M 3022 2063 
Q 3016 2534 2758 2815 
Q 2500 3097 2075 3097 
Q 1594 3097 1305 2825 
Q 1016 2553 972 2059 
L 3022 2063 
z
" transform="scale(0.015625)"/>
       <path id="DejaVuSans-73" d="M 2834 3397 
L 2834 2853 
Q 2591 2978 2328 3040 
Q 2066 3103 1784 3103 
Q 1356 3103 1142 2972 
Q 928 2841 928 2578 
Q 928 2378 1081 2264 
Q 1234 2150 1697 2047 
L 1894 2003 
Q 2506 1872 2764 1633 
Q 3022 1394 3022 966 
Q 3022 478 2636 193 
Q 2250 -91 1575 -91 
Q 1294 -91 989 -36 
Q 684 19 347 128 
L 347 722 
Q 666 556 975 473 
Q 1284 391 1588 391 
Q 1994 391 2212 530 
Q 2431 669 2431 922 
Q 2431 1156 2273 1281 
Q 2116 1406 1581 1522 
L 1381 1569 
Q 847 1681 609 1914 
Q 372 2147 372 2553 
Q 372 3047 722 3315 
Q 1072 3584 1716 3584 
Q 2034 3584 2315 3537 
Q 2597 3491 2834 3397 
z
" transform="scale(0.015625)"/>
       <path id="DejaVuSans-74" d="M 1172 4494 
L 1172 3500 
L 2356 3500 
L 2356 3053 
L 1172 3053 
L 1172 1153 
Q 1172 725 1289 603 
Q 1406 481 1766 481 
L 2356 481 
L 2356 0 
L 1766 0 
Q 1100 0 847 248 
Q 594 497 594 1153 
L 594 3053 
L 172 3053 
L 172 3500 
L 594 3500 
L 594 4494 
L 1172 4494 
z
" transform="scale(0.015625)"/>
       <path id="DejaVuSans-61" d="M 2194 1759 
Q 1497 1759 1228 1600 
Q 959 1441 959 1056 
Q 959 750 1161 570 
Q 1363 391 1709 391 
Q 2188 391 2477 730 
Q 2766 1069 2766 1631 
L 2766 1759 
L 2194 1759 
z
M 3341 1997 
L 3341 0 
L 2766 0 
L 2766 531 
Q 2569 213 2275 61 
Q 1981 -91 1556 -91 
Q 1019 -91 701 211 
Q 384 513 384 1019 
Q 384 1609 779 1909 
Q 1175 2209 1959 2209 
L 2766 2209 
L 2766 2266 
Q 2766 2663 2505 2880 
Q 2244 3097 1772 3097 
Q 1472 3097 1187 3025 
Q 903 2953 641 2809 
L 641 3341 
Q 956 3463 1253 3523 
Q 1550 3584 1831 3584 
Q 2591 3584 2966 3190 
Q 3341 2797 3341 1997 
z
" transform="scale(0.015625)"/>
       <path id="DejaVuSans-70" d="M 1159 525 
L 1159 -1331 
L 581 -1331 
L 581 3500 
L 1159 3500 
L 1159 2969 
Q 1341 3281 1617 3432 
Q 1894 3584 2278 3584 
Q 2916 3584 3314 3078 
Q 3713 2572 3713 1747 
Q 3713 922 3314 415 
Q 2916 -91 2278 -91 
Q 1894 -91 1617 61 
Q 1341 213 1159 525 
z
M 3116 1747 
Q 3116 2381 2855 2742 
Q 2594 3103 2138 3103 
Q 1681 3103 1420 2742 
Q 1159 2381 1159 1747 
Q 1159 1113 1420 752 
Q 1681 391 2138 391 
Q 2594 391 2855 752 
Q 3116 1113 3116 1747 
z
" transform="scale(0.015625)"/>
       <path id="DejaVuSans-20" transform="scale(0.015625)"/>
       <path id="DejaVuSans-28" d="M 1984 4856 
Q 1566 4138 1362 3434 
Q 1159 2731 1159 2009 
Q 1159 1288 1364 580 
Q 1569 -128 1984 -844 
L 1484 -844 
Q 1016 -109 783 600 
Q 550 1309 550 2009 
Q 550 2706 781 3412 
Q 1013 4119 1484 4856 
L 1984 4856 
z
" transform="scale(0.015625)"/>
       <path id="DejaVuSans-63" d="M 3122 3366 
L 3122 2828 
Q 2878 2963 2633 3030 
Q 2388 3097 2138 3097 
Q 1578 3097 1268 2742 
Q 959 2388 959 1747 
Q 959 1106 1268 751 
Q 1578 397 2138 397 
Q 2388 397 2633 464 
Q 2878 531 3122 666 
L 3122 134 
Q 2881 22 2623 -34 
Q 2366 -91 2075 -91 
Q 1284 -91 818 406 
Q 353 903 353 1747 
Q 353 2603 823 3093 
Q 1294 3584 2113 3584 
Q 2378 3584 2631 3529 
Q 2884 3475 3122 3366 
z
" transform="scale(0.015625)"/>
       <path id="DejaVuSans-29" d="M 513 4856 
L 1013 4856 
Q 1481 4119 1714 3412 
Q 1947 2706 1947 2009 
Q 1947 1309 1714 600 
Q 1481 -109 1013 -844 
L 513 -844 
Q 928 -128 1133 580 
Q 1338 1288 1338 2009 
Q 1338 2731 1133 3434 
Q 928 4138 513 4856 
z
" transform="scale(0.015625)"/>
      </defs>
      <use xlink:href="#DejaVuSans-54"/>
      <use xlink:href="#DejaVuSans-69" transform="translate(57.958984 0)"/>
      <use xlink:href="#DejaVuSans-6d" transform="translate(85.742188 0)"/>
      <use xlink:href="#DejaVuSans-65" transform="translate(183.154297 0)"/>
      <use xlink:href="#DejaVuSans-73" transform="translate(244.677734 0)"/>
      <use xlink:href="#DejaVuSans-74" transform="translate(296.777344 0)"/>
      <use xlink:href="#DejaVuSans-61" transform="translate(335.986328 0)"/>
      <use xlink:href="#DejaVuSans-6d" transform="translate(397.265625 0)"/>
      <use xlink:href="#DejaVuSans-70" transform="translate(494.677734 0)"/>
      <use xlink:href="#DejaVuSans-20" transform="translate(558.154297 0)"/>
      <use xlink:href="#DejaVuSans-28" transform="translate(589.941406 0)"/>
      <use xlink:href="#DejaVuSans-73" transform="translate(628.955078 0)"/>
      <use xlink:href="#DejaVuSans-65" transform="translate(681.054688 0)"/>
      <use xlink:href="#DejaVuSans-63" transform="translate(742.578125 0)"/>
      <use xlink:href="#DejaVuSans-29" transform="translate(797.558594 0)"/>
     </g>
    </g>
   </g>
   <g id="matplotlib.axis_2">
    <g id="ytick_1">
     <g id="line2d_17">
      <path d="M 52.160938 349.725902 
L 413.120938 349.725902 
" clip-path="url(#p63b95afdab)" style="fill: none; stroke: #b0b0b0; stroke-width: 0.8; stroke-linecap: square"/>
     </g>
     <g id="line2d_18">
      <defs>
       <path id="mb88b96b9f0" d="M 0 0 
L -3.5 0 
" style="stroke: #000000; stroke-width: 0.8"/>
      </defs>
      <g>
       <use xlink:href="#mb88b96b9f0" x="52.160938" y="349.725902" style="stroke: #000000; stroke-width: 0.8"/>
      </g>
     </g>
     <g id="text_10">
      <!-- −0.2 -->
      <g transform="translate(20.878125 353.525121) scale(0.1 -0.1)">
       <defs>
        <path id="DejaVuSans-2212" d="M 678 2272 
L 4684 2272 
L 4684 1741 
L 678 1741 
L 678 2272 
z
" transform="scale(0.015625)"/>
        <path id="DejaVuSans-2e" d="M 684 794 
L 1344 794 
L 1344 0 
L 684 0 
L 684 794 
z
" transform="scale(0.015625)"/>
       </defs>
       <use xlink:href="#DejaVuSans-2212"/>
       <use xlink:href="#DejaVuSans-30" transform="translate(83.789062 0)"/>
       <use xlink:href="#DejaVuSans-2e" transform="translate(147.412109 0)"/>
       <use xlink:href="#DejaVuSans-32" transform="translate(179.199219 0)"/>
      </g>
     </g>
    </g>
    <g id="ytick_2">
     <g id="line2d_19">
      <path d="M 52.160938 305.255163 
L 413.120938 305.255163 
" clip-path="url(#p63b95afdab)" style="fill: none; stroke: #b0b0b0; stroke-width: 0.8; stroke-linecap: square"/>
     </g>
     <g id="line2d_20">
      <g>
       <use xlink:href="#mb88b96b9f0" x="52.160938" y="305.255163" style="stroke: #000000; stroke-width: 0.8"/>
      </g>
     </g>
     <g id="text_11">
      <!-- −0.1 -->
      <g transform="translate(20.878125 309.054381) scale(0.1 -0.1)">
       <use xlink:href="#DejaVuSans-2212"/>
       <use xlink:href="#DejaVuSans-30" transform="translate(83.789062 0)"/>
       <use xlink:href="#DejaVuSans-2e" transform="translate(147.412109 0)"/>
       <use xlink:href="#DejaVuSans-31" transform="translate(179.199219 0)"/>
      </g>
     </g>
    </g>
    <g id="ytick_3">
     <g id="line2d_21">
      <path d="M 52.160938 260.784423 
L 413.120938 260.784423 
" clip-path="url(#p63b95afdab)" style="fill: none; stroke: #b0b0b0; stroke-width: 0.8; stroke-linecap: square"/>
     </g>
     <g id="line2d_22">
      <g>
       <use xlink:href="#mb88b96b9f0" x="52.160938" y="260.784423" style="stroke: #000000; stroke-width: 0.8"/>
      </g>
     </g>
     <g id="text_12">
      <!-- 0.0 -->
      <g transform="translate(29.257813 264.583642) scale(0.1 -0.1)">
       <use xlink:href="#DejaVuSans-30"/>
       <use xlink:href="#DejaVuSans-2e" transform="translate(63.623047 0)"/>
       <use xlink:href="#DejaVuSans-30" transform="translate(95.410156 0)"/>
      </g>
     </g>
    </g>
    <g id="ytick_4">
     <g id="line2d_23">
      <path d="M 52.160938 216.313683 
L 413.120938 216.313683 
" clip-path="url(#p63b95afdab)" style="fill: none; stroke: #b0b0b0; stroke-width: 0.8; stroke-linecap: square"/>
     </g>
     <g id="line2d_24">
      <g>
       <use xlink:href="#mb88b96b9f0" x="52.160938" y="216.313683" style="stroke: #000000; stroke-width: 0.8"/>
      </g>
     </g>
     <g id="text_13">
      <!-- 0.1 -->
      <g transform="translate(29.257813 220.112902) scale(0.1 -0.1)">
       <use xlink:href="#DejaVuSans-30"/>
       <use xlink:href="#DejaVuSans-2e" transform="translate(63.623047 0)"/>
       <use xlink:href="#DejaVuSans-31" transform="translate(95.410156 0)"/>
      </g>
     </g>
    </g>
    <g id="ytick_5">
     <g id="line2d_25">
      <path d="M 52.160938 171.842943 
L 413.120938 171.842943 
" clip-path="url(#p63b95afdab)" style="fill: none; stroke: #b0b0b0; stroke-width: 0.8; stroke-linecap: square"/>
     </g>
     <g id="line2d_26">
      <g>
       <use xlink:href="#mb88b96b9f0" x="52.160938" y="171.842943" style="stroke: #000000; stroke-width: 0.8"/>
      </g>
     </g>
     <g id="text_14">
      <!-- 0.2 -->
      <g transform="translate(29.257813 175.642162) scale(0.1 -0.1)">
       <use xlink:href="#DejaVuSans-30"/>
       <use xlink:href="#DejaVuSans-2e" transform="translate(63.623047 0)"/>
       <use xlink:href="#DejaVuSans-32" transform="translate(95.410156 0)"/>
      </g>
     </g>
    </g>
    <g id="ytick_6">
     <g id="line2d_27">
      <path d="M 52.160938 127.372204 
L 413.120938 127.372204 
" clip-path="url(#p63b95afdab)" style="fill: none; stroke: #b0b0b0; stroke-width: 0.8; stroke-linecap: square"/>
     </g>
     <g id="line2d_28">
      <g>
       <use xlink:href="#mb88b96b9f0" x="52.160938" y="127.372204" style="stroke: #000000; stroke-width: 0.8"/>
      </g>
     </g>
     <g id="text_15">
      <!-- 0.3 -->
      <g transform="translate(29.257813 131.171422) scale(0.1 -0.1)">
       <use xlink:href="#DejaVuSans-30"/>
       <use xlink:href="#DejaVuSans-2e" transform="translate(63.623047 0)"/>
       <use xlink:href="#DejaVuSans-33" transform="translate(95.410156 0)"/>
      </g>
     </g>
    </g>
    <g id="ytick_7">
     <g id="line2d_29">
      <path d="M 52.160938 82.901464 
L 413.120938 82.901464 
" clip-path="url(#p63b95afdab)" style="fill: none; stroke: #b0b0b0; stroke-width: 0.8; stroke-linecap: square"/>
     </g>
     <g id="line2d_30">
      <g>
       <use xlink:href="#mb88b96b9f0" x="52.160938" y="82.901464" style="stroke: #000000; stroke-width: 0.8"/>
      </g>
     </g>
     <g id="text_16">
      <!-- 0.4 -->
      <g transform="translate(29.257813 86.700683) scale(0.1 -0.1)">
       <use xlink:href="#DejaVuSans-30"/>
       <use xlink:href="#DejaVuSans-2e" transform="translate(63.623047 0)"/>
       <use xlink:href="#DejaVuSans-34" transform="translate(95.410156 0)"/>
      </g>
     </g>
    </g>
    <g id="ytick_8">
     <g id="line2d_31">
      <path d="M 52.160938 38.430724 
L 413.120938 38.430724 
" clip-path="url(#p63b95afdab)" style="fill: none; stroke: #b0b0b0; stroke-width: 0.8; stroke-linecap: square"/>
     </g>
     <g id="line2d_32">
      <g>
       <use xlink:href="#mb88b96b9f0" x="52.160938" y="38.430724" style="stroke: #000000; stroke-width: 0.8"/>
      </g>
     </g>
     <g id="text_17">
      <!-- 0.5 -->
      <g transform="translate(29.257813 42.229943) scale(0.1 -0.1)">
       <use xlink:href="#DejaVuSans-30"/>
       <use xlink:href="#DejaVuSans-2e" transform="translate(63.623047 0)"/>
       <use xlink:href="#DejaVuSans-35" transform="translate(95.410156 0)"/>
      </g>
     </g>
    </g>
    <g id="text_18">
     <!-- Linear Position (m) -->
     <g transform="translate(14.798438 250.852031) rotate(-90) scale(0.1 -0.1)">
      <defs>
       <path id="DejaVuSans-4c" d="M 628 4666 
L 1259 4666 
L 1259 531 
L 3531 531 
L 3531 0 
L 628 0 
L 628 4666 
z
" transform="scale(0.015625)"/>
       <path id="DejaVuSans-6e" d="M 3513 2113 
L 3513 0 
L 2938 0 
L 2938 2094 
Q 2938 2591 2744 2837 
Q 2550 3084 2163 3084 
Q 1697 3084 1428 2787 
Q 1159 2491 1159 1978 
L 1159 0 
L 581 0 
L 581 3500 
L 1159 3500 
L 1159 2956 
Q 1366 3272 1645 3428 
Q 1925 3584 2291 3584 
Q 2894 3584 3203 3211 
Q 3513 2838 3513 2113 
z
" transform="scale(0.015625)"/>
       <path id="DejaVuSans-72" d="M 2631 2963 
Q 2534 3019 2420 3045 
Q 2306 3072 2169 3072 
Q 1681 3072 1420 2755 
Q 1159 2438 1159 1844 
L 1159 0 
L 581 0 
L 581 3500 
L 1159 3500 
L 1159 2956 
Q 1341 3275 1631 3429 
Q 1922 3584 2338 3584 
Q 2397 3584 2469 3576 
Q 2541 3569 2628 3553 
L 2631 2963 
z
" transform="scale(0.015625)"/>
       <path id="DejaVuSans-50" d="M 1259 4147 
L 1259 2394 
L 2053 2394 
Q 2494 2394 2734 2622 
Q 2975 2850 2975 3272 
Q 2975 3691 2734 3919 
Q 2494 4147 2053 4147 
L 1259 4147 
z
M 628 4666 
L 2053 4666 
Q 2838 4666 3239 4311 
Q 3641 3956 3641 3272 
Q 3641 2581 3239 2228 
Q 2838 1875 2053 1875 
L 1259 1875 
L 1259 0 
L 628 0 
L 628 4666 
z
" transform="scale(0.015625)"/>
       <path id="DejaVuSans-6f" d="M 1959 3097 
Q 1497 3097 1228 2736 
Q 959 2375 959 1747 
Q 959 1119 1226 758 
Q 1494 397 1959 397 
Q 2419 397 2687 759 
Q 2956 1122 2956 1747 
Q 2956 2369 2687 2733 
Q 2419 3097 1959 3097 
z
M 1959 3584 
Q 2709 3584 3137 3096 
Q 3566 2609 3566 1747 
Q 3566 888 3137 398 
Q 2709 -91 1959 -91 
Q 1206 -91 779 398 
Q 353 888 353 1747 
Q 353 2609 779 3096 
Q 1206 3584 1959 3584 
z
" transform="scale(0.015625)"/>
      </defs>
      <use xlink:href="#DejaVuSans-4c"/>
      <use xlink:href="#DejaVuSans-69" transform="translate(55.712891 0)"/>
      <use xlink:href="#DejaVuSans-6e" transform="translate(83.496094 0)"/>
      <use xlink:href="#DejaVuSans-65" transform="translate(146.875 0)"/>
      <use xlink:href="#DejaVuSans-61" transform="translate(208.398438 0)"/>
      <use xlink:href="#DejaVuSans-72" transform="translate(269.677734 0)"/>
      <use xlink:href="#DejaVuSans-20" transform="translate(310.791016 0)"/>
      <use xlink:href="#DejaVuSans-50" transform="translate(342.578125 0)"/>
      <use xlink:href="#DejaVuSans-6f" transform="translate(399.255859 0)"/>
      <use xlink:href="#DejaVuSans-73" transform="translate(460.4375 0)"/>
      <use xlink:href="#DejaVuSans-69" transform="translate(512.537109 0)"/>
      <use xlink:href="#DejaVuSans-74" transform="translate(540.320312 0)"/>
      <use xlink:href="#DejaVuSans-69" transform="translate(579.529297 0)"/>
      <use xlink:href="#DejaVuSans-6f" transform="translate(607.3125 0)"/>
      <use xlink:href="#DejaVuSans-6e" transform="translate(668.494141 0)"/>
      <use xlink:href="#DejaVuSans-20" transform="translate(731.873047 0)"/>
      <use xlink:href="#DejaVuSans-28" transform="translate(763.660156 0)"/>
      <use xlink:href="#DejaVuSans-6d" transform="translate(802.673828 0)"/>
      <use xlink:href="#DejaVuSans-29" transform="translate(900.085938 0)"/>
     </g>
    </g>
   </g>
   <g id="line2d_33">
    <path d="M 68.56821 260.784423 
L 166.769556 260.784423 
L 168.557062 260.536646 
L 170.84202 259.037021 
L 173.911168 255.74819 
L 175.700675 253.422413 
L 177.932975 250.144425 
L 180.170384 245.947713 
L 182.398386 241.047679 
L 184.629131 235.496651 
L 189.54577 221.450321 
L 193.607834 209.913011 
L 198.023867 198.117844 
L 202.496033 187.210103 
L 206.501002 178.468856 
L 209.653316 172.131216 
L 213.651759 165.013508 
L 215.883659 161.774354 
L 218.117547 158.758476 
L 220.400631 156.061813 
L 222.135696 154.476729 
L 224.352999 152.73117 
L 226.600021 151.469093 
L 229.283938 150.327356 
L 231.512603 149.946337 
L 233.753327 149.94392 
L 235.977008 150.420655 
L 238.208279 151.268525 
L 239.995866 152.243327 
L 242.253723 153.734442 
L 245.467737 156.616837 
L 246.693176 158.050723 
L 249.372167 161.621486 
L 251.613073 164.926536 
L 253.837486 168.530936 
L 255.889498 172.26895 
L 260.086632 180.66353 
L 262.334648 185.549122 
L 265.001808 191.875858 
L 273.792931 214.758188 
L 277.931805 226.723547 
L 285.094472 248.079228 
L 295.819544 281.094989 
L 302.949944 301.931899 
L 307.329868 314.079938 
L 309.615993 320.177724 
L 313.691624 330.227583 
L 316.77299 337.185302 
L 320.899406 345.474886 
L 323.151342 349.590815 
L 325.219471 353.100176 
L 327.519483 356.625954 
L 329.297376 358.98902 
L 332.406872 362.753601 
L 336.443892 366.274228 
L 338.691417 367.541943 
L 340.90344 368.459094 
L 343.158668 368.935228 
L 345.390534 368.970852 
L 347.157569 368.7164 
L 350.290737 367.892574 
L 354.329014 365.229253 
L 356.575076 363.103354 
L 358.778971 360.811411 
L 360.995235 357.875963 
L 363.27098 354.523878 
L 365.016195 351.734736 
L 367.244391 347.722058 
L 370.367009 341.708499 
L 374.389844 333.121977 
L 381.086149 316.546006 
L 385.11207 305.803299 
L 396.713665 271.755142 
L 396.713665 271.755142 
" clip-path="url(#p63b95afdab)" style="fill: none; stroke: #1f77b4; stroke-width: 1.5; stroke-linecap: square"/>
   </g>
   <g id="line2d_34">
    <path d="M 68.56821 260.784423 
L 173.911168 260.683667 
L 175.700675 260.522077 
L 177.932975 260.165155 
L 180.170384 259.603429 
L 182.398386 258.800707 
L 184.629131 257.585865 
L 186.416454 256.224203 
L 189.54577 253.36294 
L 191.794004 250.604233 
L 195.793178 244.920026 
L 200.258087 237.226611 
L 204.324653 228.968199 
L 206.501002 224.203982 
L 210.968962 213.200525 
L 215.883659 199.773773 
L 226.600021 168.153472 
L 231.512603 153.261985 
L 233.753327 145.949398 
L 235.977008 139.222834 
L 239.995866 126.393066 
L 242.253723 119.942477 
L 246.693176 106.88262 
L 249.372167 99.002615 
L 253.837486 87.20821 
L 257.855189 77.377228 
L 260.086632 72.255371 
L 265.001808 61.947296 
L 267.232291 57.847605 
L 269.471071 54.104939 
L 271.754795 50.688377 
L 273.792931 48.151821 
L 275.719668 45.982893 
L 277.931805 43.791363 
L 280.960524 41.176419 
L 282.928147 40.193829 
L 285.094472 39.299405 
L 287.330406 38.825398 
L 289.424984 38.876643 
L 291.725602 39.259588 
L 293.628256 39.951809 
L 295.819544 41.037595 
L 298.03687 42.564728 
L 300.707505 44.846491 
L 302.949944 47.391227 
L 305.227278 50.344897 
L 307.329868 53.383544 
L 311.434601 60.40726 
L 313.691624 64.769026 
L 316.77299 71.04568 
L 320.899406 80.400639 
L 323.151342 85.887003 
L 329.297376 102.522465 
L 333.750294 115.299021 
L 340.90344 136.308068 
L 343.158668 143.52342 
L 347.157569 155.601316 
L 354.329014 177.596974 
L 358.778971 190.292792 
L 363.27098 202.759283 
L 367.244391 212.898282 
L 370.367009 220.45935 
L 372.203448 224.58433 
L 376.621001 233.735693 
L 378.855118 237.769472 
L 381.086149 241.477673 
L 382.920668 244.21699 
L 385.11207 247.256556 
L 387.353091 249.884613 
L 390.088193 252.636863 
L 392.249991 254.342045 
L 394.480874 255.715346 
L 396.713665 256.734261 
L 396.713665 256.734261 
" clip-path="url(#p63b95afdab)" style="fill: none; stroke: #ff7f0e; stroke-width: 1.5; stroke-linecap: square"/>
   </g>
   <g id="patch_3">
    <path d="M 52.160938 385.478125 
L 52.160938 22.318125 
" style="fill: none; stroke: #000000; stroke-width: 0.8; stroke-linejoin: miter; stroke-linecap: square"/>
   </g>
   <g id="patch_4">
    <path d="M 413.120938 385.478125 
L 413.120938 22.318125 
" style="fill: none; stroke: #000000; stroke-width: 0.8; stroke-linejoin: miter; stroke-linecap: square"/>
   </g>
   <g id="patch_5">
    <path d="M 52.160938 385.478125 
L 413.120938 385.478125 
" style="fill: none; stroke: #000000; stroke-width: 0.8; stroke-linejoin: miter; stroke-linecap: square"/>
   </g>
   <g id="patch_6">
    <path d="M 52.160938 22.318125 
L 413.120938 22.318125 
" style="fill: none; stroke: #000000; stroke-width: 0.8; stroke-linejoin: miter; stroke-linecap: square"/>
   </g>
   <g id="text_19">
    <!-- Odometry Data Log (Circle Motion) -->
    <g transform="translate(127.990625 16.318125) scale(0.12 -0.12)">
     <defs>
      <path id="DejaVuSans-4f" d="M 2522 4238 
Q 1834 4238 1429 3725 
Q 1025 3213 1025 2328 
Q 1025 1447 1429 934 
Q 1834 422 2522 422 
Q 3209 422 3611 934 
Q 4013 1447 4013 2328 
Q 4013 3213 3611 3725 
Q 3209 4238 2522 4238 
z
M 2522 4750 
Q 3503 4750 4090 4092 
Q 4678 3434 4678 2328 
Q 4678 1225 4090 567 
Q 3503 -91 2522 -91 
Q 1538 -91 948 565 
Q 359 1222 359 2328 
Q 359 3434 948 4092 
Q 1538 4750 2522 4750 
z
" transform="scale(0.015625)"/>
      <path id="DejaVuSans-64" d="M 2906 2969 
L 2906 4863 
L 3481 4863 
L 3481 0 
L 2906 0 
L 2906 525 
Q 2725 213 2448 61 
Q 2172 -91 1784 -91 
Q 1150 -91 751 415 
Q 353 922 353 1747 
Q 353 2572 751 3078 
Q 1150 3584 1784 3584 
Q 2172 3584 2448 3432 
Q 2725 3281 2906 2969 
z
M 947 1747 
Q 947 1113 1208 752 
Q 1469 391 1925 391 
Q 2381 391 2643 752 
Q 2906 1113 2906 1747 
Q 2906 2381 2643 2742 
Q 2381 3103 1925 3103 
Q 1469 3103 1208 2742 
Q 947 2381 947 1747 
z
" transform="scale(0.015625)"/>
      <path id="DejaVuSans-79" d="M 2059 -325 
Q 1816 -950 1584 -1140 
Q 1353 -1331 966 -1331 
L 506 -1331 
L 506 -850 
L 844 -850 
Q 1081 -850 1212 -737 
Q 1344 -625 1503 -206 
L 1606 56 
L 191 3500 
L 800 3500 
L 1894 763 
L 2988 3500 
L 3597 3500 
L 2059 -325 
z
" transform="scale(0.015625)"/>
      <path id="DejaVuSans-44" d="M 1259 4147 
L 1259 519 
L 2022 519 
Q 2988 519 3436 956 
Q 3884 1394 3884 2338 
Q 3884 3275 3436 3711 
Q 2988 4147 2022 4147 
L 1259 4147 
z
M 628 4666 
L 1925 4666 
Q 3281 4666 3915 4102 
Q 4550 3538 4550 2338 
Q 4550 1131 3912 565 
Q 3275 0 1925 0 
L 628 0 
L 628 4666 
z
" transform="scale(0.015625)"/>
      <path id="DejaVuSans-67" d="M 2906 1791 
Q 2906 2416 2648 2759 
Q 2391 3103 1925 3103 
Q 1463 3103 1205 2759 
Q 947 2416 947 1791 
Q 947 1169 1205 825 
Q 1463 481 1925 481 
Q 2391 481 2648 825 
Q 2906 1169 2906 1791 
z
M 3481 434 
Q 3481 -459 3084 -895 
Q 2688 -1331 1869 -1331 
Q 1566 -1331 1297 -1286 
Q 1028 -1241 775 -1147 
L 775 -588 
Q 1028 -725 1275 -790 
Q 1522 -856 1778 -856 
Q 2344 -856 2625 -561 
Q 2906 -266 2906 331 
L 2906 616 
Q 2728 306 2450 153 
Q 2172 0 1784 0 
Q 1141 0 747 490 
Q 353 981 353 1791 
Q 353 2603 747 3093 
Q 1141 3584 1784 3584 
Q 2172 3584 2450 3431 
Q 2728 3278 2906 2969 
L 2906 3500 
L 3481 3500 
L 3481 434 
z
" transform="scale(0.015625)"/>
      <path id="DejaVuSans-43" d="M 4122 4306 
L 4122 3641 
Q 3803 3938 3442 4084 
Q 3081 4231 2675 4231 
Q 1875 4231 1450 3742 
Q 1025 3253 1025 2328 
Q 1025 1406 1450 917 
Q 1875 428 2675 428 
Q 3081 428 3442 575 
Q 3803 722 4122 1019 
L 4122 359 
Q 3791 134 3420 21 
Q 3050 -91 2638 -91 
Q 1578 -91 968 557 
Q 359 1206 359 2328 
Q 359 3453 968 4101 
Q 1578 4750 2638 4750 
Q 3056 4750 3426 4639 
Q 3797 4528 4122 4306 
z
" transform="scale(0.015625)"/>
      <path id="DejaVuSans-6c" d="M 603 4863 
L 1178 4863 
L 1178 0 
L 603 0 
L 603 4863 
z
" transform="scale(0.015625)"/>
      <path id="DejaVuSans-4d" d="M 628 4666 
L 1569 4666 
L 2759 1491 
L 3956 4666 
L 4897 4666 
L 4897 0 
L 4281 0 
L 4281 4097 
L 3078 897 
L 2444 897 
L 1241 4097 
L 1241 0 
L 628 0 
L 628 4666 
z
" transform="scale(0.015625)"/>
     </defs>
     <use xlink:href="#DejaVuSans-4f"/>
     <use xlink:href="#DejaVuSans-64" transform="translate(78.710938 0)"/>
     <use xlink:href="#DejaVuSans-6f" transform="translate(142.1875 0)"/>
     <use xlink:href="#DejaVuSans-6d" transform="translate(203.369141 0)"/>
     <use xlink:href="#DejaVuSans-65" transform="translate(300.78125 0)"/>
     <use xlink:href="#DejaVuSans-74" transform="translate(362.304688 0)"/>
     <use xlink:href="#DejaVuSans-72" transform="translate(401.513672 0)"/>
     <use xlink:href="#DejaVuSans-79" transform="translate(442.626953 0)"/>
     <use xlink:href="#DejaVuSans-20" transform="translate(501.806641 0)"/>
     <use xlink:href="#DejaVuSans-44" transform="translate(533.59375 0)"/>
     <use xlink:href="#DejaVuSans-61" transform="translate(610.595703 0)"/>
     <use xlink:href="#DejaVuSans-74" transform="translate(671.875 0)"/>
     <use xlink:href="#DejaVuSans-61" transform="translate(711.083984 0)"/>
     <use xlink:href="#DejaVuSans-20" transform="translate(772.363281 0)"/>
     <use xlink:href="#DejaVuSans-4c" transform="translate(804.150391 0)"/>
     <use xlink:href="#DejaVuSans-6f" transform="translate(858.113281 0)"/>
     <use xlink:href="#DejaVuSans-67" transform="translate(919.294922 0)"/>
     <use xlink:href="#DejaVuSans-20" transform="translate(982.771484 0)"/>
     <use xlink:href="#DejaVuSans-28" transform="translate(1014.558594 0)"/>
     <use xlink:href="#DejaVuSans-43" transform="translate(1053.572266 0)"/>
     <use xlink:href="#DejaVuSans-69" transform="translate(1123.396484 0)"/>
     <use xlink:href="#DejaVuSans-72" transform="translate(1151.179688 0)"/>
     <use xlink:href="#DejaVuSans-63" transform="translate(1190.042969 0)"/>
     <use xlink:href="#DejaVuSans-6c" transform="translate(1245.023438 0)"/>
     <use xlink:href="#DejaVuSans-65" transform="translate(1272.806641 0)"/>
     <use xlink:href="#DejaVuSans-20" transform="translate(1334.330078 0)"/>
     <use xlink:href="#DejaVuSans-4d" transform="translate(1366.117188 0)"/>
     <use xlink:href="#DejaVuSans-6f" transform="translate(1452.396484 0)"/>
     <use xlink:href="#DejaVuSans-74" transform="translate(1513.578125 0)"/>
     <use xlink:href="#DejaVuSans-69" transform="translate(1552.787109 0)"/>
     <use xlink:href="#DejaVuSans-6f" transform="translate(1580.570312 0)"/>
     <use xlink:href="#DejaVuSans-6e" transform="translate(1641.751953 0)"/>
     <use xlink:href="#DejaVuSans-29" transform="translate(1705.130859 0)"/>
    </g>
   </g>
   <g id="legend_1">
    <g id="patch_7">
     <path d="M 59.160938 59.674375 
L 140.117188 59.674375 
Q 142.117188 59.674375 142.117188 57.674375 
L 142.117188 29.318125 
Q 142.117188 27.318125 140.117188 27.318125 
L 59.160938 27.318125 
Q 57.160938 27.318125 57.160938 29.318125 
L 57.160938 57.674375 
Q 57.160938 59.674375 59.160938 59.674375 
z
" style="fill: #ffffff; opacity: 0.8; stroke: #cccccc; stroke-linejoin: miter"/>
    </g>
    <g id="line2d_35">
     <path d="M 61.160938 35.416562 
L 71.160938 35.416562 
L 81.160938 35.416562 
" style="fill: none; stroke: #1f77b4; stroke-width: 1.5; stroke-linecap: square"/>
    </g>
    <g id="text_20">
     <!-- X Position -->
     <g transform="translate(89.160938 38.916562) scale(0.1 -0.1)">
      <defs>
       <path id="DejaVuSans-58" d="M 403 4666 
L 1081 4666 
L 2241 2931 
L 3406 4666 
L 4084 4666 
L 2584 2425 
L 4184 0 
L 3506 0 
L 2194 1984 
L 872 0 
L 191 0 
L 1856 2491 
L 403 4666 
z
" transform="scale(0.015625)"/>
      </defs>
      <use xlink:href="#DejaVuSans-58"/>
      <use xlink:href="#DejaVuSans-20" transform="translate(68.505859 0)"/>
      <use xlink:href="#DejaVuSans-50" transform="translate(100.292969 0)"/>
      <use xlink:href="#DejaVuSans-6f" transform="translate(156.970703 0)"/>
      <use xlink:href="#DejaVuSans-73" transform="translate(218.152344 0)"/>
      <use xlink:href="#DejaVuSans-69" transform="translate(270.251953 0)"/>
      <use xlink:href="#DejaVuSans-74" transform="translate(298.035156 0)"/>
      <use xlink:href="#DejaVuSans-69" transform="translate(337.244141 0)"/>
      <use xlink:href="#DejaVuSans-6f" transform="translate(365.027344 0)"/>
      <use xlink:href="#DejaVuSans-6e" transform="translate(426.208984 0)"/>
     </g>
    </g>
    <g id="line2d_36">
     <path d="M 61.160938 50.094687 
L 71.160938 50.094687 
L 81.160938 50.094687 
" style="fill: none; stroke: #ff7f0e; stroke-width: 1.5; stroke-linecap: square"/>
    </g>
    <g id="text_21">
     <!-- Y Position -->
     <g transform="translate(89.160938 53.594687) scale(0.1 -0.1)">
      <defs>
       <path id="DejaVuSans-59" d="M -13 4666 
L 666 4666 
L 1959 2747 
L 3244 4666 
L 3922 4666 
L 2272 2222 
L 2272 0 
L 1638 0 
L 1638 2222 
L -13 4666 
z
" transform="scale(0.015625)"/>
      </defs>
      <use xlink:href="#DejaVuSans-59"/>
      <use xlink:href="#DejaVuSans-20" transform="translate(61.083984 0)"/>
      <use xlink:href="#DejaVuSans-50" transform="translate(92.871094 0)"/>
      <use xlink:href="#DejaVuSans-6f" transform="translate(149.548828 0)"/>
      <use xlink:href="#DejaVuSans-73" transform="translate(210.730469 0)"/>
      <use xlink:href="#DejaVuSans-69" transform="translate(262.830078 0)"/>
      <use xlink:href="#DejaVuSans-74" transform="translate(290.613281 0)"/>
      <use xlink:href="#DejaVuSans-69" transform="translate(329.822266 0)"/>
      <use xlink:href="#DejaVuSans-6f" transform="translate(357.605469 0)"/>
      <use xlink:href="#DejaVuSans-6e" transform="translate(418.787109 0)"/>
     </g>
    </g>
   </g>
  </g>
  <g id="axes_2">
   <g id="patch_8">
    <path d="M 488.310938 385.478125 
L 849.270938 385.478125 
L 849.270938 22.318125 
L 488.310938 22.318125 
z
" style="fill: #ffffff"/>
   </g>
   <g id="matplotlib.axis_3">
    <g id="xtick_9">
     <g id="line2d_37">
      <path d="M 533.550933 385.478125 
L 533.550933 22.318125 
" clip-path="url(#p9769708ddf)" style="fill: none; stroke: #b0b0b0; stroke-width: 0.8; stroke-linecap: square"/>
     </g>
     <g id="line2d_38">
      <g>
       <use xlink:href="#m67c652abba" x="533.550933" y="385.478125" style="stroke: #000000; stroke-width: 0.8"/>
      </g>
     </g>
     <g id="text_22">
      <!-- −0.2 -->
      <g transform="translate(521.409527 400.076562) scale(0.1 -0.1)">
       <use xlink:href="#DejaVuSans-2212"/>
       <use xlink:href="#DejaVuSans-30" transform="translate(83.789062 0)"/>
       <use xlink:href="#DejaVuSans-2e" transform="translate(147.412109 0)"/>
       <use xlink:href="#DejaVuSans-32" transform="translate(179.199219 0)"/>
      </g>
     </g>
    </g>
    <g id="xtick_10">
     <g id="line2d_39">
      <path d="M 600.176854 385.478125 
L 600.176854 22.318125 
" clip-path="url(#p9769708ddf)" style="fill: none; stroke: #b0b0b0; stroke-width: 0.8; stroke-linecap: square"/>
     </g>
     <g id="line2d_40">
      <g>
       <use xlink:href="#m67c652abba" x="600.176854" y="385.478125" style="stroke: #000000; stroke-width: 0.8"/>
      </g>
     </g>
     <g id="text_23">
      <!-- −0.1 -->
      <g transform="translate(588.035448 400.076562) scale(0.1 -0.1)">
       <use xlink:href="#DejaVuSans-2212"/>
       <use xlink:href="#DejaVuSans-30" transform="translate(83.789062 0)"/>
       <use xlink:href="#DejaVuSans-2e" transform="translate(147.412109 0)"/>
       <use xlink:href="#DejaVuSans-31" transform="translate(179.199219 0)"/>
      </g>
     </g>
    </g>
    <g id="xtick_11">
     <g id="line2d_41">
      <path d="M 666.802775 385.478125 
L 666.802775 22.318125 
" clip-path="url(#p9769708ddf)" style="fill: none; stroke: #b0b0b0; stroke-width: 0.8; stroke-linecap: square"/>
     </g>
     <g id="line2d_42">
      <g>
       <use xlink:href="#m67c652abba" x="666.802775" y="385.478125" style="stroke: #000000; stroke-width: 0.8"/>
      </g>
     </g>
     <g id="text_24">
      <!-- 0.0 -->
      <g transform="translate(658.851213 400.076562) scale(0.1 -0.1)">
       <use xlink:href="#DejaVuSans-30"/>
       <use xlink:href="#DejaVuSans-2e" transform="translate(63.623047 0)"/>
       <use xlink:href="#DejaVuSans-30" transform="translate(95.410156 0)"/>
      </g>
     </g>
    </g>
    <g id="xtick_12">
     <g id="line2d_43">
      <path d="M 733.428696 385.478125 
L 733.428696 22.318125 
" clip-path="url(#p9769708ddf)" style="fill: none; stroke: #b0b0b0; stroke-width: 0.8; stroke-linecap: square"/>
     </g>
     <g id="line2d_44">
      <g>
       <use xlink:href="#m67c652abba" x="733.428696" y="385.478125" style="stroke: #000000; stroke-width: 0.8"/>
      </g>
     </g>
     <g id="text_25">
      <!-- 0.1 -->
      <g transform="translate(725.477134 400.076562) scale(0.1 -0.1)">
       <use xlink:href="#DejaVuSans-30"/>
       <use xlink:href="#DejaVuSans-2e" transform="translate(63.623047 0)"/>
       <use xlink:href="#DejaVuSans-31" transform="translate(95.410156 0)"/>
      </g>
     </g>
    </g>
    <g id="xtick_13">
     <g id="line2d_45">
      <path d="M 800.054617 385.478125 
L 800.054617 22.318125 
" clip-path="url(#p9769708ddf)" style="fill: none; stroke: #b0b0b0; stroke-width: 0.8; stroke-linecap: square"/>
     </g>
     <g id="line2d_46">
      <g>
       <use xlink:href="#m67c652abba" x="800.054617" y="385.478125" style="stroke: #000000; stroke-width: 0.8"/>
      </g>
     </g>
     <g id="text_26">
      <!-- 0.2 -->
      <g transform="translate(792.103055 400.076562) scale(0.1 -0.1)">
       <use xlink:href="#DejaVuSans-30"/>
       <use xlink:href="#DejaVuSans-2e" transform="translate(63.623047 0)"/>
       <use xlink:href="#DejaVuSans-32" transform="translate(95.410156 0)"/>
      </g>
     </g>
    </g>
    <g id="text_27">
     <!-- X Position (m) -->
     <g transform="translate(633.951875 413.754687) scale(0.1 -0.1)">
      <use xlink:href="#DejaVuSans-58"/>
      <use xlink:href="#DejaVuSans-20" transform="translate(68.505859 0)"/>
      <use xlink:href="#DejaVuSans-50" transform="translate(100.292969 0)"/>
      <use xlink:href="#DejaVuSans-6f" transform="translate(156.970703 0)"/>
      <use xlink:href="#DejaVuSans-73" transform="translate(218.152344 0)"/>
      <use xlink:href="#DejaVuSans-69" transform="translate(270.251953 0)"/>
      <use xlink:href="#DejaVuSans-74" transform="translate(298.035156 0)"/>
      <use xlink:href="#DejaVuSans-69" transform="translate(337.244141 0)"/>
      <use xlink:href="#DejaVuSans-6f" transform="translate(365.027344 0)"/>
      <use xlink:href="#DejaVuSans-6e" transform="translate(426.208984 0)"/>
      <use xlink:href="#DejaVuSans-20" transform="translate(489.587891 0)"/>
      <use xlink:href="#DejaVuSans-28" transform="translate(521.375 0)"/>
      <use xlink:href="#DejaVuSans-6d" transform="translate(560.388672 0)"/>
      <use xlink:href="#DejaVuSans-29" transform="translate(657.800781 0)"/>
     </g>
    </g>
   </g>
   <g id="matplotlib.axis_4">
    <g id="ytick_9">
     <g id="line2d_47">
      <path d="M 488.310938 368.935039 
L 849.270938 368.935039 
" clip-path="url(#p9769708ddf)" style="fill: none; stroke: #b0b0b0; stroke-width: 0.8; stroke-linecap: square"/>
     </g>
     <g id="line2d_48">
      <g>
       <use xlink:href="#mb88b96b9f0" x="488.310938" y="368.935039" style="stroke: #000000; stroke-width: 0.8"/>
      </g>
     </g>
     <g id="text_28">
      <!-- 0.0 -->
      <g transform="translate(465.407813 372.734258) scale(0.1 -0.1)">
       <use xlink:href="#DejaVuSans-30"/>
       <use xlink:href="#DejaVuSans-2e" transform="translate(63.623047 0)"/>
       <use xlink:href="#DejaVuSans-30" transform="translate(95.410156 0)"/>
      </g>
     </g>
    </g>
    <g id="ytick_10">
     <g id="line2d_49">
      <path d="M 488.310938 302.795715 
L 849.270938 302.795715 
" clip-path="url(#p9769708ddf)" style="fill: none; stroke: #b0b0b0; stroke-width: 0.8; stroke-linecap: square"/>
     </g>
     <g id="line2d_50">
      <g>
       <use xlink:href="#mb88b96b9f0" x="488.310938" y="302.795715" style="stroke: #000000; stroke-width: 0.8"/>
      </g>
     </g>
     <g id="text_29">
      <!-- 0.1 -->
      <g transform="translate(465.407813 306.594934) scale(0.1 -0.1)">
       <use xlink:href="#DejaVuSans-30"/>
       <use xlink:href="#DejaVuSans-2e" transform="translate(63.623047 0)"/>
       <use xlink:href="#DejaVuSans-31" transform="translate(95.410156 0)"/>
      </g>
     </g>
    </g>
    <g id="ytick_11">
     <g id="line2d_51">
      <path d="M 488.310938 236.656391 
L 849.270938 236.656391 
" clip-path="url(#p9769708ddf)" style="fill: none; stroke: #b0b0b0; stroke-width: 0.8; stroke-linecap: square"/>
     </g>
     <g id="line2d_52">
      <g>
       <use xlink:href="#mb88b96b9f0" x="488.310938" y="236.656391" style="stroke: #000000; stroke-width: 0.8"/>
      </g>
     </g>
     <g id="text_30">
      <!-- 0.2 -->
      <g transform="translate(465.407813 240.455609) scale(0.1 -0.1)">
       <use xlink:href="#DejaVuSans-30"/>
       <use xlink:href="#DejaVuSans-2e" transform="translate(63.623047 0)"/>
       <use xlink:href="#DejaVuSans-32" transform="translate(95.410156 0)"/>
      </g>
     </g>
    </g>
    <g id="ytick_12">
     <g id="line2d_53">
      <path d="M 488.310938 170.517066 
L 849.270938 170.517066 
" clip-path="url(#p9769708ddf)" style="fill: none; stroke: #b0b0b0; stroke-width: 0.8; stroke-linecap: square"/>
     </g>
     <g id="line2d_54">
      <g>
       <use xlink:href="#mb88b96b9f0" x="488.310938" y="170.517066" style="stroke: #000000; stroke-width: 0.8"/>
      </g>
     </g>
     <g id="text_31">
      <!-- 0.3 -->
      <g transform="translate(465.407813 174.316285) scale(0.1 -0.1)">
       <use xlink:href="#DejaVuSans-30"/>
       <use xlink:href="#DejaVuSans-2e" transform="translate(63.623047 0)"/>
       <use xlink:href="#DejaVuSans-33" transform="translate(95.410156 0)"/>
      </g>
     </g>
    </g>
    <g id="ytick_13">
     <g id="line2d_55">
      <path d="M 488.310938 104.377742 
L 849.270938 104.377742 
" clip-path="url(#p9769708ddf)" style="fill: none; stroke: #b0b0b0; stroke-width: 0.8; stroke-linecap: square"/>
     </g>
     <g id="line2d_56">
      <g>
       <use xlink:href="#mb88b96b9f0" x="488.310938" y="104.377742" style="stroke: #000000; stroke-width: 0.8"/>
      </g>
     </g>
     <g id="text_32">
      <!-- 0.4 -->
      <g transform="translate(465.407813 108.176961) scale(0.1 -0.1)">
       <use xlink:href="#DejaVuSans-30"/>
       <use xlink:href="#DejaVuSans-2e" transform="translate(63.623047 0)"/>
       <use xlink:href="#DejaVuSans-34" transform="translate(95.410156 0)"/>
      </g>
     </g>
    </g>
    <g id="ytick_14">
     <g id="line2d_57">
      <path d="M 488.310938 38.238418 
L 849.270938 38.238418 
" clip-path="url(#p9769708ddf)" style="fill: none; stroke: #b0b0b0; stroke-width: 0.8; stroke-linecap: square"/>
     </g>
     <g id="line2d_58">
      <g>
       <use xlink:href="#mb88b96b9f0" x="488.310938" y="38.238418" style="stroke: #000000; stroke-width: 0.8"/>
      </g>
     </g>
     <g id="text_33">
      <!-- 0.5 -->
      <g transform="translate(465.407813 42.037636) scale(0.1 -0.1)">
       <use xlink:href="#DejaVuSans-30"/>
       <use xlink:href="#DejaVuSans-2e" transform="translate(63.623047 0)"/>
       <use xlink:href="#DejaVuSans-35" transform="translate(95.410156 0)"/>
      </g>
     </g>
    </g>
    <g id="text_34">
     <!-- Y Position (m) -->
     <g transform="translate(459.328125 238.366094) rotate(-90) scale(0.1 -0.1)">
      <use xlink:href="#DejaVuSans-59"/>
      <use xlink:href="#DejaVuSans-20" transform="translate(61.083984 0)"/>
      <use xlink:href="#DejaVuSans-50" transform="translate(92.871094 0)"/>
      <use xlink:href="#DejaVuSans-6f" transform="translate(149.548828 0)"/>
      <use xlink:href="#DejaVuSans-73" transform="translate(210.730469 0)"/>
      <use xlink:href="#DejaVuSans-69" transform="translate(262.830078 0)"/>
      <use xlink:href="#DejaVuSans-74" transform="translate(290.613281 0)"/>
      <use xlink:href="#DejaVuSans-69" transform="translate(329.822266 0)"/>
      <use xlink:href="#DejaVuSans-6f" transform="translate(357.605469 0)"/>
      <use xlink:href="#DejaVuSans-6e" transform="translate(418.787109 0)"/>
      <use xlink:href="#DejaVuSans-20" transform="translate(482.166016 0)"/>
      <use xlink:href="#DejaVuSans-28" transform="translate(513.953125 0)"/>
      <use xlink:href="#DejaVuSans-6d" transform="translate(552.966797 0)"/>
      <use xlink:href="#DejaVuSans-29" transform="translate(650.378906 0)"/>
     </g>
    </g>
   </g>
   <g id="line2d_59">
    <path d="M 666.802775 368.935039 
L 666.802775 368.935039 
L 666.802775 368.935039 
L 667.173994 368.970852 
L 677.832516 368.544864 
L 682.743586 368.01403 
L 689.031087 367.1786 
L 696.372302 365.984748 
L 704.688835 364.177968 
L 712.215917 362.152831 
L 725.733002 357.897404 
L 735.415315 353.794503 
L 743.018163 350.055786 
L 751.971186 345.340637 
L 760.689644 339.717505 
L 768.925433 333.89857 
L 777.031588 327.289233 
L 783.140666 321.616205 
L 790.127696 314.530601 
L 799.622729 303.18638 
L 803.049936 298.165656 
L 810.286455 287.293543 
L 815.139345 278.196654 
L 819.657726 268.483104 
L 823.697858 258.45518 
L 826.072625 251.114031 
L 828.687816 241.128416 
L 830.578655 231.169207 
L 832.289203 219.113416 
L 832.860044 209.02177 
L 832.863665 198.146089 
L 832.149422 188.141974 
L 830.879146 177.42552 
L 829.418701 169.06084 
L 827.184717 159.467169 
L 822.866322 145.124068 
L 820.718078 140.043833 
L 815.368372 128.324257 
L 810.416757 119.469785 
L 805.016656 110.78297 
L 799.416376 103.235417 
L 793.64104 96.161795 
L 786.839642 88.544288 
L 779.520064 81.371227 
L 770.041369 73.213553 
L 761.432267 67.116268 
L 752.879237 61.54997 
L 743.637853 56.468672 
L 735.759134 52.696166 
L 727.631853 49.470417 
L 717.832672 46.211054 
L 704.444858 42.321966 
L 695.789536 40.860604 
L 685.837658 39.530368 
L 675.438436 38.825398 
L 665.525894 38.901612 
L 654.629503 39.471149 
L 646.225232 40.500659 
L 636.37355 42.115499 
L 626.560255 44.386735 
L 614.837465 47.780298 
L 605.155757 51.564969 
L 595.48623 55.957829 
L 586.955603 60.477072 
L 577.819919 66.144632 
L 571.128839 70.923128 
L 562.763253 77.410186 
L 552.339221 86.745169 
L 546.505543 93.008616 
L 539.919792 100.658377 
L 533.75332 108.818 
L 528.495608 117.043968 
L 523.213297 126.328586 
L 519.67296 133.559171 
L 514.032876 146.708903 
L 508.758284 164.315286 
L 506.858998 174.157976 
L 505.484924 183.806975 
L 504.771582 194.538041 
L 504.71821 204.33087 
L 505.099429 212.500951 
L 506.333683 226.822888 
L 510.323863 245.214101 
L 513.508877 254.938178 
L 516.94266 264.096019 
L 521.340539 273.464239 
L 526.362621 282.636867 
L 530.541306 289.380165 
L 536.553086 297.716144 
L 545.562581 308.961378 
L 551.46329 315.096275 
L 558.426881 321.955084 
L 566.559919 328.706685 
L 574.687202 334.705941 
L 583.260949 340.220981 
L 590.588978 344.295045 
L 599.355638 348.815653 
L 609.119397 352.724245 
L 620.639283 356.817542 
L 630.12018 359.353582 
L 640.605119 361.396031 
L 650.366479 362.911417 
L 650.366479 362.911417 
" clip-path="url(#p9769708ddf)" style="fill: none; stroke: #0000ff; stroke-width: 1.5; stroke-linecap: square"/>
   </g>
   <g id="patch_9">
    <path d="M 488.310938 385.478125 
L 488.310938 22.318125 
" style="fill: none; stroke: #000000; stroke-width: 0.8; stroke-linejoin: miter; stroke-linecap: square"/>
   </g>
   <g id="patch_10">
    <path d="M 849.270938 385.478125 
L 849.270938 22.318125 
" style="fill: none; stroke: #000000; stroke-width: 0.8; stroke-linejoin: miter; stroke-linecap: square"/>
   </g>
   <g id="patch_11">
    <path d="M 488.310938 385.478125 
L 849.270938 385.478125 
" style="fill: none; stroke: #000000; stroke-width: 0.8; stroke-linejoin: miter; stroke-linecap: square"/>
   </g>
   <g id="patch_12">
    <path d="M 488.310938 22.318125 
L 849.270938 22.318125 
" style="fill: none; stroke: #000000; stroke-width: 0.8; stroke-linejoin: miter; stroke-linecap: square"/>
   </g>
   <g id="text_35">
    <!-- Odometry X/Y Position Plot -->
    <g transform="translate(588.499688 16.318125) scale(0.12 -0.12)">
     <defs>
      <path id="DejaVuSans-2f" d="M 1625 4666 
L 2156 4666 
L 531 -594 
L 0 -594 
L 1625 4666 
z
" transform="scale(0.015625)"/>
     </defs>
     <use xlink:href="#DejaVuSans-4f"/>
     <use xlink:href="#DejaVuSans-64" transform="translate(78.710938 0)"/>
     <use xlink:href="#DejaVuSans-6f" transform="translate(142.1875 0)"/>
     <use xlink:href="#DejaVuSans-6d" transform="translate(203.369141 0)"/>
     <use xlink:href="#DejaVuSans-65" transform="translate(300.78125 0)"/>
     <use xlink:href="#DejaVuSans-74" transform="translate(362.304688 0)"/>
     <use xlink:href="#DejaVuSans-72" transform="translate(401.513672 0)"/>
     <use xlink:href="#DejaVuSans-79" transform="translate(442.626953 0)"/>
     <use xlink:href="#DejaVuSans-20" transform="translate(501.806641 0)"/>
     <use xlink:href="#DejaVuSans-58" transform="translate(533.59375 0)"/>
     <use xlink:href="#DejaVuSans-2f" transform="translate(602.099609 0)"/>
     <use xlink:href="#DejaVuSans-59" transform="translate(635.791016 0)"/>
     <use xlink:href="#DejaVuSans-20" transform="translate(696.875 0)"/>
     <use xlink:href="#DejaVuSans-50" transform="translate(728.662109 0)"/>
     <use xlink:href="#DejaVuSans-6f" transform="translate(785.339844 0)"/>
     <use xlink:href="#DejaVuSans-73" transform="translate(846.521484 0)"/>
     <use xlink:href="#DejaVuSans-69" transform="translate(898.621094 0)"/>
     <use xlink:href="#DejaVuSans-74" transform="translate(926.404297 0)"/>
     <use xlink:href="#DejaVuSans-69" transform="translate(965.613281 0)"/>
     <use xlink:href="#DejaVuSans-6f" transform="translate(993.396484 0)"/>
     <use xlink:href="#DejaVuSans-6e" transform="translate(1054.578125 0)"/>
     <use xlink:href="#DejaVuSans-20" transform="translate(1117.957031 0)"/>
     <use xlink:href="#DejaVuSans-50" transform="translate(1149.744141 0)"/>
     <use xlink:href="#DejaVuSans-6c" transform="translate(1210.046875 0)"/>
     <use xlink:href="#DejaVuSans-6f" transform="translate(1237.830078 0)"/>
     <use xlink:href="#DejaVuSans-74" transform="translate(1299.011719 0)"/>
    </g>
   </g>
  </g>
  <g id="axes_3">
   <g id="matplotlib.axis_5">
    <g id="ytick_15">
     <g id="line2d_60">
      <defs>
       <path id="m3ca42b07b8" d="M 0 0 
L 3.5 0 
" style="stroke: #000000; stroke-width: 0.8"/>
      </defs>
      <g>
       <use xlink:href="#m3ca42b07b8" x="413.120938" y="368.970794" style="stroke: #000000; stroke-width: 0.8"/>
      </g>
     </g>
     <g id="text_36">
      <!-- 0 -->
      <g transform="translate(420.120938 372.770013) scale(0.1 -0.1)">
       <use xlink:href="#DejaVuSans-30"/>
      </g>
     </g>
    </g>
    <g id="ytick_16">
     <g id="line2d_61">
      <g>
       <use xlink:href="#m3ca42b07b8" x="413.120938" y="315.569499" style="stroke: #000000; stroke-width: 0.8"/>
      </g>
     </g>
     <g id="text_37">
      <!-- 1 -->
      <g transform="translate(420.120938 319.368718) scale(0.1 -0.1)">
       <use xlink:href="#DejaVuSans-31"/>
      </g>
     </g>
    </g>
    <g id="ytick_17">
     <g id="line2d_62">
      <g>
       <use xlink:href="#m3ca42b07b8" x="413.120938" y="262.168205" style="stroke: #000000; stroke-width: 0.8"/>
      </g>
     </g>
     <g id="text_38">
      <!-- 2 -->
      <g transform="translate(420.120938 265.967424) scale(0.1 -0.1)">
       <use xlink:href="#DejaVuSans-32"/>
      </g>
     </g>
    </g>
    <g id="ytick_18">
     <g id="line2d_63">
      <g>
       <use xlink:href="#m3ca42b07b8" x="413.120938" y="208.76691" style="stroke: #000000; stroke-width: 0.8"/>
      </g>
     </g>
     <g id="text_39">
      <!-- 3 -->
      <g transform="translate(420.120938 212.566129) scale(0.1 -0.1)">
       <use xlink:href="#DejaVuSans-33"/>
      </g>
     </g>
    </g>
    <g id="ytick_19">
     <g id="line2d_64">
      <g>
       <use xlink:href="#m3ca42b07b8" x="413.120938" y="155.365616" style="stroke: #000000; stroke-width: 0.8"/>
      </g>
     </g>
     <g id="text_40">
      <!-- 4 -->
      <g transform="translate(420.120938 159.164834) scale(0.1 -0.1)">
       <use xlink:href="#DejaVuSans-34"/>
      </g>
     </g>
    </g>
    <g id="ytick_20">
     <g id="line2d_65">
      <g>
       <use xlink:href="#m3ca42b07b8" x="413.120938" y="101.964321" style="stroke: #000000; stroke-width: 0.8"/>
      </g>
     </g>
     <g id="text_41">
      <!-- 5 -->
      <g transform="translate(420.120938 105.76354) scale(0.1 -0.1)">
       <use xlink:href="#DejaVuSans-35"/>
      </g>
     </g>
    </g>
    <g id="ytick_21">
     <g id="line2d_66">
      <g>
       <use xlink:href="#m3ca42b07b8" x="413.120938" y="48.563027" style="stroke: #000000; stroke-width: 0.8"/>
      </g>
     </g>
     <g id="text_42">
      <!-- 6 -->
      <g transform="translate(420.120938 52.362245) scale(0.1 -0.1)">
       <use xlink:href="#DejaVuSans-36"/>
      </g>
     </g>
    </g>
    <g id="text_43">
     <!-- Angular Position (Rad) -->
     <g transform="translate(438.081875 259.4825) rotate(-90) scale(0.1 -0.1)">
      <defs>
       <path id="DejaVuSans-41" d="M 2188 4044 
L 1331 1722 
L 3047 1722 
L 2188 4044 
z
M 1831 4666 
L 2547 4666 
L 4325 0 
L 3669 0 
L 3244 1197 
L 1141 1197 
L 716 0 
L 50 0 
L 1831 4666 
z
" transform="scale(0.015625)"/>
       <path id="DejaVuSans-75" d="M 544 1381 
L 544 3500 
L 1119 3500 
L 1119 1403 
Q 1119 906 1312 657 
Q 1506 409 1894 409 
Q 2359 409 2629 706 
Q 2900 1003 2900 1516 
L 2900 3500 
L 3475 3500 
L 3475 0 
L 2900 0 
L 2900 538 
Q 2691 219 2414 64 
Q 2138 -91 1772 -91 
Q 1169 -91 856 284 
Q 544 659 544 1381 
z
M 1991 3584 
L 1991 3584 
z
" transform="scale(0.015625)"/>
       <path id="DejaVuSans-52" d="M 2841 2188 
Q 3044 2119 3236 1894 
Q 3428 1669 3622 1275 
L 4263 0 
L 3584 0 
L 2988 1197 
Q 2756 1666 2539 1819 
Q 2322 1972 1947 1972 
L 1259 1972 
L 1259 0 
L 628 0 
L 628 4666 
L 2053 4666 
Q 2853 4666 3247 4331 
Q 3641 3997 3641 3322 
Q 3641 2881 3436 2590 
Q 3231 2300 2841 2188 
z
M 1259 4147 
L 1259 2491 
L 2053 2491 
Q 2509 2491 2742 2702 
Q 2975 2913 2975 3322 
Q 2975 3731 2742 3939 
Q 2509 4147 2053 4147 
L 1259 4147 
z
" transform="scale(0.015625)"/>
      </defs>
      <use xlink:href="#DejaVuSans-41"/>
      <use xlink:href="#DejaVuSans-6e" transform="translate(68.408203 0)"/>
      <use xlink:href="#DejaVuSans-67" transform="translate(131.787109 0)"/>
      <use xlink:href="#DejaVuSans-75" transform="translate(195.263672 0)"/>
      <use xlink:href="#DejaVuSans-6c" transform="translate(258.642578 0)"/>
      <use xlink:href="#DejaVuSans-61" transform="translate(286.425781 0)"/>
      <use xlink:href="#DejaVuSans-72" transform="translate(347.705078 0)"/>
      <use xlink:href="#DejaVuSans-20" transform="translate(388.818359 0)"/>
      <use xlink:href="#DejaVuSans-50" transform="translate(420.605469 0)"/>
      <use xlink:href="#DejaVuSans-6f" transform="translate(477.283203 0)"/>
      <use xlink:href="#DejaVuSans-73" transform="translate(538.464844 0)"/>
      <use xlink:href="#DejaVuSans-69" transform="translate(590.564453 0)"/>
      <use xlink:href="#DejaVuSans-74" transform="translate(618.347656 0)"/>
      <use xlink:href="#DejaVuSans-69" transform="translate(657.556641 0)"/>
      <use xlink:href="#DejaVuSans-6f" transform="translate(685.339844 0)"/>
      <use xlink:href="#DejaVuSans-6e" transform="translate(746.521484 0)"/>
      <use xlink:href="#DejaVuSans-20" transform="translate(809.900391 0)"/>
      <use xlink:href="#DejaVuSans-28" transform="translate(841.6875 0)"/>
      <use xlink:href="#DejaVuSans-52" transform="translate(880.701172 0)"/>
      <use xlink:href="#DejaVuSans-61" transform="translate(947.933594 0)"/>
      <use xlink:href="#DejaVuSans-64" transform="translate(1009.212891 0)"/>
      <use xlink:href="#DejaVuSans-29" transform="translate(1072.689453 0)"/>
     </g>
    </g>
   </g>
   <g id="line2d_67">
    <path d="M 68.56821 368.970794 
L 166.769556 368.970849 
L 168.557062 368.674578 
L 170.84202 367.840832 
L 173.911168 366.531328 
L 175.700675 365.435066 
L 180.170384 361.602398 
L 182.398386 359.182409 
L 184.629131 356.4923 
L 186.416454 354.10265 
L 193.607834 343.55732 
L 202.496033 330.060779 
L 215.883659 310.06993 
L 222.135696 300.41814 
L 239.995866 274.155761 
L 251.613073 256.197464 
L 257.855189 247.251439 
L 273.792931 223.133991 
L 282.928147 209.452732 
L 293.628256 193.395069 
L 300.707505 182.881415 
L 309.615993 169.536335 
L 365.016195 86.38198 
L 370.367009 78.509171 
L 378.855118 65.638891 
L 394.480874 42.266294 
L 396.713665 38.825398 
L 396.713665 38.825398 
" clip-path="url(#p63b95afdab)" style="fill: none; stroke: #008000; stroke-width: 1.5; stroke-linecap: square"/>
   </g>
   <g id="patch_13">
    <path d="M 52.160938 385.478125 
L 52.160938 22.318125 
" style="fill: none; stroke: #000000; stroke-width: 0.8; stroke-linejoin: miter; stroke-linecap: square"/>
   </g>
   <g id="patch_14">
    <path d="M 413.120938 385.478125 
L 413.120938 22.318125 
" style="fill: none; stroke: #000000; stroke-width: 0.8; stroke-linejoin: miter; stroke-linecap: square"/>
   </g>
   <g id="patch_15">
    <path d="M 52.160938 385.478125 
L 413.120938 385.478125 
" style="fill: none; stroke: #000000; stroke-width: 0.8; stroke-linejoin: miter; stroke-linecap: square"/>
   </g>
   <g id="patch_16">
    <path d="M 52.160938 22.318125 
L 413.120938 22.318125 
" style="fill: none; stroke: #000000; stroke-width: 0.8; stroke-linejoin: miter; stroke-linecap: square"/>
   </g>
   <g id="legend_2">
    <g id="patch_17">
     <path d="M 345.474063 44.99625 
L 406.120937 44.99625 
Q 408.120937 44.99625 408.120937 42.99625 
L 408.120937 29.318125 
Q 408.120937 27.318125 406.120937 27.318125 
L 345.474063 27.318125 
Q 343.474063 27.318125 343.474063 29.318125 
L 343.474063 42.99625 
Q 343.474063 44.99625 345.474063 44.99625 
z
" style="fill: #ffffff; opacity: 0.8; stroke: #cccccc; stroke-linejoin: miter"/>
    </g>
    <g id="line2d_68">
     <path d="M 347.474063 35.416563 
L 357.474063 35.416563 
L 367.474063 35.416563 
" style="fill: none; stroke: #008000; stroke-width: 1.5; stroke-linecap: square"/>
    </g>
    <g id="text_44">
     <!-- Theta -->
     <g transform="translate(375.474063 38.916563) scale(0.1 -0.1)">
      <defs>
       <path id="DejaVuSans-68" d="M 3513 2113 
L 3513 0 
L 2938 0 
L 2938 2094 
Q 2938 2591 2744 2837 
Q 2550 3084 2163 3084 
Q 1697 3084 1428 2787 
Q 1159 2491 1159 1978 
L 1159 0 
L 581 0 
L 581 4863 
L 1159 4863 
L 1159 2956 
Q 1366 3272 1645 3428 
Q 1925 3584 2291 3584 
Q 2894 3584 3203 3211 
Q 3513 2838 3513 2113 
z
" transform="scale(0.015625)"/>
      </defs>
      <use xlink:href="#DejaVuSans-54"/>
      <use xlink:href="#DejaVuSans-68" transform="translate(61.083984 0)"/>
      <use xlink:href="#DejaVuSans-65" transform="translate(124.462891 0)"/>
      <use xlink:href="#DejaVuSans-74" transform="translate(185.986328 0)"/>
      <use xlink:href="#DejaVuSans-61" transform="translate(225.195312 0)"/>
     </g>
    </g>
   </g>
  </g>
 </g>
 <defs>
  <clipPath id="p63b95afdab">
   <rect x="52.160938" y="22.318125" width="360.96" height="363.16"/>
  </clipPath>
  <clipPath id="p9769708ddf">
   <rect x="488.310938" y="22.318125" width="360.96" height="363.16"/>
  </clipPath>
 </defs>
</svg>
