<?xml version="1.0" encoding="utf-8" standalone="no"?>
<!DOCTYPE svg PUBLIC "-//W3C//DTD SVG 1.1//EN"
  "http://www.w3.org/Graphics/SVG/1.1/DTD/svg11.dtd">
<svg xmlns:xlink="http://www.w3.org/1999/xlink" width="662.321875pt" height="378.83625pt" viewBox="0 0 662.321875 378.83625" xmlns="http://www.w3.org/2000/svg" version="1.1">
 <metadata>
  <rdf:RDF xmlns:dc="http://purl.org/dc/elements/1.1/" xmlns:cc="http://creativecommons.org/ns#" xmlns:rdf="http://www.w3.org/1999/02/22-rdf-syntax-ns#">
   <cc:Work>
    <dc:type rdf:resource="http://purl.org/dc/dcmitype/StillImage"/>
    <dc:date>2025-10-31T18:59:19.085301</dc:date>
    <dc:format>image/svg+xml</dc:format>
    <dc:creator>
     <cc:Agent>
      <dc:title>Matplotlib v3.10.6, https://matplotlib.org/</dc:title>
     </cc:Agent>
    </dc:creator>
   </cc:Work>
  </rdf:RDF>
 </metadata>
 <defs>
  <style type="text/css">*{stroke-linejoin: round; stroke-linecap: butt}</style>
 </defs>
 <g id="figure_1">
  <g id="patch_1">
   <path d="M 0 378.83625 
L 662.321875 378.83625 
L 662.321875 0 
L 0 0 
z
" style="fill: #ffffff"/>
  </g>
  <g id="axes_1">
   <g id="patch_2">
    <path d="M 52.160938 354.958125 
L 610.160938 354.958125 
L 610.160938 22.318125 
L 52.160938 22.318125 
z
" style="fill: #ffffff"/>
   </g>
   <g id="matplotlib.axis_1">
    <g id="xtick_1">
     <g id="line2d_1">
      <defs>
       <path id="m49beb62a2d" d="M 0 0 
L 0 3.5 
" style="stroke: #000000; stroke-width: 0.8"/>
      </defs>
      <g>
       <use xlink:href="#m49beb62a2d" x="77.524574" y="354.958125" style="stroke: #000000; stroke-width: 0.8"/>
      </g>
     </g>
     <g id="text_1">
      <!-- 0 -->
      <g transform="translate(74.343324 369.556562) scale(0.1 -0.1)">
       <defs>
        <path id="DejaVuSans-30" d="M 2034 4250 
Q 1547 4250 1301 3770 
Q 1056 3291 1056 2328 
Q 1056 1369 1301 889 
Q 1547 409 2034 409 
Q 2525 409 2770 889 
Q 3016 1369 3016 2328 
Q 3016 3291 2770 3770 
Q 2525 4250 2034 4250 
z
M 2034 4750 
Q 2819 4750 3233 4129 
Q 3647 3509 3647 2328 
Q 3647 1150 3233 529 
Q 2819 -91 2034 -91 
Q 1250 -91 836 529 
Q 422 1150 422 2328 
Q 422 3509 836 4129 
Q 1250 4750 2034 4750 
z
" transform="scale(0.015625)"/>
       </defs>
       <use xlink:href="#DejaVuSans-30"/>
      </g>
     </g>
    </g>
    <g id="xtick_2">
     <g id="line2d_2">
      <g>
       <use xlink:href="#m49beb62a2d" x="145.143275" y="354.958125" style="stroke: #000000; stroke-width: 0.8"/>
      </g>
     </g>
     <g id="text_2">
      <!-- 1 -->
      <g transform="translate(141.962025 369.556562) scale(0.1 -0.1)">
       <defs>
        <path id="DejaVuSans-31" d="M 794 531 
L 1825 531 
L 1825 4091 
L 703 3866 
L 703 4441 
L 1819 4666 
L 2450 4666 
L 2450 531 
L 3481 531 
L 3481 0 
L 794 0 
L 794 531 
z
" transform="scale(0.015625)"/>
       </defs>
       <use xlink:href="#DejaVuSans-31"/>
      </g>
     </g>
    </g>
    <g id="xtick_3">
     <g id="line2d_3">
      <g>
       <use xlink:href="#m49beb62a2d" x="212.761976" y="354.958125" style="stroke: #000000; stroke-width: 0.8"/>
      </g>
     </g>
     <g id="text_3">
      <!-- 2 -->
      <g transform="translate(209.580726 369.556562) scale(0.1 -0.1)">
       <defs>
        <path id="DejaVuSans-32" d="M 1228 531 
L 3431 531 
L 3431 0 
L 469 0 
L 469 531 
Q 828 903 1448 1529 
Q 2069 2156 2228 2338 
Q 2531 2678 2651 2914 
Q 2772 3150 2772 3378 
Q 2772 3750 2511 3984 
Q 2250 4219 1831 4219 
Q 1534 4219 1204 4116 
Q 875 4013 500 3803 
L 500 4441 
Q 881 4594 1212 4672 
Q 1544 4750 1819 4750 
Q 2544 4750 2975 4387 
Q 3406 4025 3406 3419 
Q 3406 3131 3298 2873 
Q 3191 2616 2906 2266 
Q 2828 2175 2409 1742 
Q 1991 1309 1228 531 
z
" transform="scale(0.015625)"/>
       </defs>
       <use xlink:href="#DejaVuSans-32"/>
      </g>
     </g>
    </g>
    <g id="xtick_4">
     <g id="line2d_4">
      <g>
       <use xlink:href="#m49beb62a2d" x="280.380676" y="354.958125" style="stroke: #000000; stroke-width: 0.8"/>
      </g>
     </g>
     <g id="text_4">
      <!-- 3 -->
      <g transform="translate(277.199426 369.556562) scale(0.1 -0.1)">
       <defs>
        <path id="DejaVuSans-33" d="M 2597 2516 
Q 3050 2419 3304 2112 
Q 3559 1806 3559 1356 
Q 3559 666 3084 287 
Q 2609 -91 1734 -91 
Q 1441 -91 1130 -33 
Q 819 25 488 141 
L 488 750 
Q 750 597 1062 519 
Q 1375 441 1716 441 
Q 2309 441 2620 675 
Q 2931 909 2931 1356 
Q 2931 1769 2642 2001 
Q 2353 2234 1838 2234 
L 1294 2234 
L 1294 2753 
L 1863 2753 
Q 2328 2753 2575 2939 
Q 2822 3125 2822 3475 
Q 2822 3834 2567 4026 
Q 2313 4219 1838 4219 
Q 1578 4219 1281 4162 
Q 984 4106 628 3988 
L 628 4550 
Q 988 4650 1302 4700 
Q 1616 4750 1894 4750 
Q 2613 4750 3031 4423 
Q 3450 4097 3450 3541 
Q 3450 3153 3228 2886 
Q 3006 2619 2597 2516 
z
" transform="scale(0.015625)"/>
       </defs>
       <use xlink:href="#DejaVuSans-33"/>
      </g>
     </g>
    </g>
    <g id="xtick_5">
     <g id="line2d_5">
      <g>
       <use xlink:href="#m49beb62a2d" x="347.999377" y="354.958125" style="stroke: #000000; stroke-width: 0.8"/>
      </g>
     </g>
     <g id="text_5">
      <!-- 4 -->
      <g transform="translate(344.818127 369.556562) scale(0.1 -0.1)">
       <defs>
        <path id="DejaVuSans-34" d="M 2419 4116 
L 825 1625 
L 2419 1625 
L 2419 4116 
z
M 2253 4666 
L 3047 4666 
L 3047 1625 
L 3713 1625 
L 3713 1100 
L 3047 1100 
L 3047 0 
L 2419 0 
L 2419 1100 
L 313 1100 
L 313 1709 
L 2253 4666 
z
" transform="scale(0.015625)"/>
       </defs>
       <use xlink:href="#DejaVuSans-34"/>
      </g>
     </g>
    </g>
    <g id="xtick_6">
     <g id="line2d_6">
      <g>
       <use xlink:href="#m49beb62a2d" x="415.618078" y="354.958125" style="stroke: #000000; stroke-width: 0.8"/>
      </g>
     </g>
     <g id="text_6">
      <!-- 5 -->
      <g transform="translate(412.436828 369.556562) scale(0.1 -0.1)">
       <defs>
        <path id="DejaVuSans-35" d="M 691 4666 
L 3169 4666 
L 3169 4134 
L 1269 4134 
L 1269 2991 
Q 1406 3038 1543 3061 
Q 1681 3084 1819 3084 
Q 2600 3084 3056 2656 
Q 3513 2228 3513 1497 
Q 3513 744 3044 326 
Q 2575 -91 1722 -91 
Q 1428 -91 1123 -41 
Q 819 9 494 109 
L 494 744 
Q 775 591 1075 516 
Q 1375 441 1709 441 
Q 2250 441 2565 725 
Q 2881 1009 2881 1497 
Q 2881 1984 2565 2268 
Q 2250 2553 1709 2553 
Q 1456 2553 1204 2497 
Q 953 2441 691 2322 
L 691 4666 
z
" transform="scale(0.015625)"/>
       </defs>
       <use xlink:href="#DejaVuSans-35"/>
      </g>
     </g>
    </g>
    <g id="xtick_7">
     <g id="line2d_7">
      <g>
       <use xlink:href="#m49beb62a2d" x="483.236779" y="354.958125" style="stroke: #000000; stroke-width: 0.8"/>
      </g>
     </g>
     <g id="text_7">
      <!-- 6 -->
      <g transform="translate(480.055529 369.556562) scale(0.1 -0.1)">
       <defs>
        <path id="DejaVuSans-36" d="M 2113 2584 
Q 1688 2584 1439 2293 
Q 1191 2003 1191 1497 
Q 1191 994 1439 701 
Q 1688 409 2113 409 
Q 2538 409 2786 701 
Q 3034 994 3034 1497 
Q 3034 2003 2786 2293 
Q 2538 2584 2113 2584 
z
M 3366 4563 
L 3366 3988 
Q 3128 4100 2886 4159 
Q 2644 4219 2406 4219 
Q 1781 4219 1451 3797 
Q 1122 3375 1075 2522 
Q 1259 2794 1537 2939 
Q 1816 3084 2150 3084 
Q 2853 3084 3261 2657 
Q 3669 2231 3669 1497 
Q 3669 778 3244 343 
Q 2819 -91 2113 -91 
Q 1303 -91 875 529 
Q 447 1150 447 2328 
Q 447 3434 972 4092 
Q 1497 4750 2381 4750 
Q 2619 4750 2861 4703 
Q 3103 4656 3366 4563 
z
" transform="scale(0.015625)"/>
       </defs>
       <use xlink:href="#DejaVuSans-36"/>
      </g>
     </g>
    </g>
    <g id="xtick_8">
     <g id="line2d_8">
      <g>
       <use xlink:href="#m49beb62a2d" x="550.85548" y="354.958125" style="stroke: #000000; stroke-width: 0.8"/>
      </g>
     </g>
     <g id="text_8">
      <!-- 7 -->
      <g transform="translate(547.67423 369.556562) scale(0.1 -0.1)">
       <defs>
        <path id="DejaVuSans-37" d="M 525 4666 
L 3525 4666 
L 3525 4397 
L 1831 0 
L 1172 0 
L 2766 4134 
L 525 4134 
L 525 4666 
z
" transform="scale(0.015625)"/>
       </defs>
       <use xlink:href="#DejaVuSans-37"/>
      </g>
     </g>
    </g>
   </g>
   <g id="matplotlib.axis_2">
    <g id="ytick_1">
     <g id="line2d_9">
      <defs>
       <path id="m7c2cb6c742" d="M 0 0 
L -3.5 0 
" style="stroke: #000000; stroke-width: 0.8"/>
      </defs>
      <g>
       <use xlink:href="#m7c2cb6c742" x="52.160938" y="289.198667" style="stroke: #000000; stroke-width: 0.8"/>
      </g>
     </g>
     <g id="text_9">
      <!-- −2.0 -->
      <g transform="translate(20.878125 292.997886) scale(0.1 -0.1)">
       <defs>
        <path id="DejaVuSans-2212" d="M 678 2272 
L 4684 2272 
L 4684 1741 
L 678 1741 
L 678 2272 
z
" transform="scale(0.015625)"/>
        <path id="DejaVuSans-2e" d="M 684 794 
L 1344 794 
L 1344 0 
L 684 0 
L 684 794 
z
" transform="scale(0.015625)"/>
       </defs>
       <use xlink:href="#DejaVuSans-2212"/>
       <use xlink:href="#DejaVuSans-32" transform="translate(83.789062 0)"/>
       <use xlink:href="#DejaVuSans-2e" transform="translate(147.412109 0)"/>
       <use xlink:href="#DejaVuSans-30" transform="translate(179.199219 0)"/>
      </g>
     </g>
    </g>
    <g id="ytick_2">
     <g id="line2d_10">
      <g>
       <use xlink:href="#m7c2cb6c742" x="52.160938" y="218.114564" style="stroke: #000000; stroke-width: 0.8"/>
      </g>
     </g>
     <g id="text_10">
      <!-- −1.5 -->
      <g transform="translate(20.878125 221.913783) scale(0.1 -0.1)">
       <use xlink:href="#DejaVuSans-2212"/>
       <use xlink:href="#DejaVuSans-31" transform="translate(83.789062 0)"/>
       <use xlink:href="#DejaVuSans-2e" transform="translate(147.412109 0)"/>
       <use xlink:href="#DejaVuSans-35" transform="translate(179.199219 0)"/>
      </g>
     </g>
    </g>
    <g id="ytick_3">
     <g id="line2d_11">
      <g>
       <use xlink:href="#m7c2cb6c742" x="52.160938" y="147.030461" style="stroke: #000000; stroke-width: 0.8"/>
      </g>
     </g>
     <g id="text_11">
      <!-- −1.0 -->
      <g transform="translate(20.878125 150.82968) scale(0.1 -0.1)">
       <use xlink:href="#DejaVuSans-2212"/>
       <use xlink:href="#DejaVuSans-31" transform="translate(83.789062 0)"/>
       <use xlink:href="#DejaVuSans-2e" transform="translate(147.412109 0)"/>
       <use xlink:href="#DejaVuSans-30" transform="translate(179.199219 0)"/>
      </g>
     </g>
    </g>
    <g id="ytick_4">
     <g id="line2d_12">
      <g>
       <use xlink:href="#m7c2cb6c742" x="52.160938" y="75.946358" style="stroke: #000000; stroke-width: 0.8"/>
      </g>
     </g>
     <g id="text_12">
      <!-- −0.5 -->
      <g transform="translate(20.878125 79.745577) scale(0.1 -0.1)">
       <use xlink:href="#DejaVuSans-2212"/>
       <use xlink:href="#DejaVuSans-30" transform="translate(83.789062 0)"/>
       <use xlink:href="#DejaVuSans-2e" transform="translate(147.412109 0)"/>
       <use xlink:href="#DejaVuSans-35" transform="translate(179.199219 0)"/>
      </g>
     </g>
    </g>
    <g id="text_13">
     <!-- Error(rad) -->
     <g transform="translate(14.798438 213.018594) rotate(-90) scale(0.1 -0.1)">
      <defs>
       <path id="DejaVuSans-45" d="M 628 4666 
L 3578 4666 
L 3578 4134 
L 1259 4134 
L 1259 2753 
L 3481 2753 
L 3481 2222 
L 1259 2222 
L 1259 531 
L 3634 531 
L 3634 0 
L 628 0 
L 628 4666 
z
" transform="scale(0.015625)"/>
       <path id="DejaVuSans-72" d="M 2631 2963 
Q 2534 3019 2420 3045 
Q 2306 3072 2169 3072 
Q 1681 3072 1420 2755 
Q 1159 2438 1159 1844 
L 1159 0 
L 581 0 
L 581 3500 
L 1159 3500 
L 1159 2956 
Q 1341 3275 1631 3429 
Q 1922 3584 2338 3584 
Q 2397 3584 2469 3576 
Q 2541 3569 2628 3553 
L 2631 2963 
z
" transform="scale(0.015625)"/>
       <path id="DejaVuSans-6f" d="M 1959 3097 
Q 1497 3097 1228 2736 
Q 959 2375 959 1747 
Q 959 1119 1226 758 
Q 1494 397 1959 397 
Q 2419 397 2687 759 
Q 2956 1122 2956 1747 
Q 2956 2369 2687 2733 
Q 2419 3097 1959 3097 
z
M 1959 3584 
Q 2709 3584 3137 3096 
Q 3566 2609 3566 1747 
Q 3566 888 3137 398 
Q 2709 -91 1959 -91 
Q 1206 -91 779 398 
Q 353 888 353 1747 
Q 353 2609 779 3096 
Q 1206 3584 1959 3584 
z
" transform="scale(0.015625)"/>
       <path id="DejaVuSans-28" d="M 1984 4856 
Q 1566 4138 1362 3434 
Q 1159 2731 1159 2009 
Q 1159 1288 1364 580 
Q 1569 -128 1984 -844 
L 1484 -844 
Q 1016 -109 783 600 
Q 550 1309 550 2009 
Q 550 2706 781 3412 
Q 1013 4119 1484 4856 
L 1984 4856 
z
" transform="scale(0.015625)"/>
       <path id="DejaVuSans-61" d="M 2194 1759 
Q 1497 1759 1228 1600 
Q 959 1441 959 1056 
Q 959 750 1161 570 
Q 1363 391 1709 391 
Q 2188 391 2477 730 
Q 2766 1069 2766 1631 
L 2766 1759 
L 2194 1759 
z
M 3341 1997 
L 3341 0 
L 2766 0 
L 2766 531 
Q 2569 213 2275 61 
Q 1981 -91 1556 -91 
Q 1019 -91 701 211 
Q 384 513 384 1019 
Q 384 1609 779 1909 
Q 1175 2209 1959 2209 
L 2766 2209 
L 2766 2266 
Q 2766 2663 2505 2880 
Q 2244 3097 1772 3097 
Q 1472 3097 1187 3025 
Q 903 2953 641 2809 
L 641 3341 
Q 956 3463 1253 3523 
Q 1550 3584 1831 3584 
Q 2591 3584 2966 3190 
Q 3341 2797 3341 1997 
z
" transform="scale(0.015625)"/>
       <path id="DejaVuSans-64" d="M 2906 2969 
L 2906 4863 
L 3481 4863 
L 3481 0 
L 2906 0 
L 2906 525 
Q 2725 213 2448 61 
Q 2172 -91 1784 -91 
Q 1150 -91 751 415 
Q 353 922 353 1747 
Q 353 2572 751 3078 
Q 1150 3584 1784 3584 
Q 2172 3584 2448 3432 
Q 2725 3281 2906 2969 
z
M 947 1747 
Q 947 1113 1208 752 
Q 1469 391 1925 391 
Q 2381 391 2643 752 
Q 2906 1113 2906 1747 
Q 2906 2381 2643 2742 
Q 2381 3103 1925 3103 
Q 1469 3103 1208 2742 
Q 947 2381 947 1747 
z
" transform="scale(0.015625)"/>
       <path id="DejaVuSans-29" d="M 513 4856 
L 1013 4856 
Q 1481 4119 1714 3412 
Q 1947 2706 1947 2009 
Q 1947 1309 1714 600 
Q 1481 -109 1013 -844 
L 513 -844 
Q 928 -128 1133 580 
Q 1338 1288 1338 2009 
Q 1338 2731 1133 3434 
Q 928 4138 513 4856 
z
" transform="scale(0.015625)"/>
      </defs>
      <use xlink:href="#DejaVuSans-45"/>
      <use xlink:href="#DejaVuSans-72" transform="translate(63.183594 0)"/>
      <use xlink:href="#DejaVuSans-72" transform="translate(102.546875 0)"/>
      <use xlink:href="#DejaVuSans-6f" transform="translate(141.410156 0)"/>
      <use xlink:href="#DejaVuSans-72" transform="translate(202.591797 0)"/>
      <use xlink:href="#DejaVuSans-28" transform="translate(243.705078 0)"/>
      <use xlink:href="#DejaVuSans-72" transform="translate(282.71875 0)"/>
      <use xlink:href="#DejaVuSans-61" transform="translate(323.832031 0)"/>
      <use xlink:href="#DejaVuSans-64" transform="translate(385.111328 0)"/>
      <use xlink:href="#DejaVuSans-29" transform="translate(448.587891 0)"/>
     </g>
    </g>
   </g>
   <g id="line2d_13">
    <path d="M 77.524574 339.838125 
L 80.35252 339.831713 
L 84.935588 337.795414 
L 87.109048 335.691771 
L 91.161233 331.131868 
L 94.532733 326.582589 
L 97.915277 320.981349 
L 101.156387 314.338907 
L 104.528226 306.302509 
L 107.397589 299.171212 
L 111.97258 287.265546 
L 118.230016 271.561785 
L 125.027669 254.634486 
L 131.584999 238.834603 
L 139.044088 223.515627 
L 145.292238 212.314798 
L 152.074286 201.093893 
L 158.625537 191.509989 
L 164.851311 183.002421 
L 171.469241 174.817378 
L 179.054062 166.832029 
L 185.679892 160.287292 
L 193.130356 152.231393 
L 199.350761 145.670744 
L 206.099453 138.628497 
L 212.729168 131.688697 
L 218.960214 125.19748 
L 225.624381 118.558872 
L 233.146553 110.702771 
L 239.772157 104.463051 
L 246.001993 99.376079 
L 252.624825 94.559468 
L 260.192589 89.609952 
L 266.822997 85.757995 
L 274.275669 81.981322 
L 280.515952 79.119418 
L 287.239318 76.520151 
L 293.868098 73.921777 
L 300.09737 71.627153 
L 307.637937 68.836966 
L 314.287691 66.066457 
L 320.911845 63.394408 
L 328.39805 60.669992 
L 333.768494 58.499922 
L 341.330454 55.513525 
L 347.958832 52.933642 
L 354.201291 50.617341 
L 360.800456 48.703509 
L 368.378554 46.370499 
L 375.009446 44.67557 
L 381.264383 43.735719 
L 388.783847 42.904963 
L 395.427153 42.17152 
L 402.062946 41.470477 
L 409.516634 40.796283 
L 415.828207 40.45262 
L 422.492261 39.891695 
L 429.099922 39.365159 
L 435.357971 38.664204 
L 441.955362 37.996315 
L 449.579552 37.61523 
L 456.165045 37.439906 
L 463.615251 37.438125 
L 469.908784 37.517925 
L 476.586154 38.242457 
L 483.196588 39.382122 
L 489.443771 41.26031 
L 496.918772 43.923198 
L 503.615327 47.354977 
L 510.244172 51.183548 
L 517.685156 56.667433 
L 524.009948 62.482287 
L 530.662878 69.27826 
L 537.306619 77.332286 
L 544.786263 88.600797 
L 550.197704 98.326355 
L 557.884574 114.875206 
L 564.338339 128.984468 
L 570.966571 140.20213 
L 578.485777 155.152566 
L 584.797301 167.674014 
" clip-path="url(#pf10c1c4150)" style="fill: none; stroke: #0000ff; stroke-width: 1.5; stroke-linecap: square"/>
    <defs>
     <path id="m0e79855d32" d="M 0 1 
C 0.265203 1 0.51958 0.894634 0.707107 0.707107 
C 0.894634 0.51958 1 0.265203 1 0 
C 1 -0.265203 0.894634 -0.51958 0.707107 -0.707107 
C 0.51958 -0.894634 0.265203 -1 0 -1 
C -0.265203 -1 -0.51958 -0.894634 -0.707107 -0.707107 
C -0.894634 -0.51958 -1 -0.265203 -1 0 
C -1 0.265203 -0.894634 0.51958 -0.707107 0.707107 
C -0.51958 0.894634 -0.265203 1 0 1 
z
" style="stroke: #0000ff"/>
    </defs>
    <g clip-path="url(#pf10c1c4150)">
     <use xlink:href="#m0e79855d32" x="77.524574" y="339.838125" style="fill: #0000ff; stroke: #0000ff"/>
     <use xlink:href="#m0e79855d32" x="80.35252" y="339.831713" style="fill: #0000ff; stroke: #0000ff"/>
     <use xlink:href="#m0e79855d32" x="84.935588" y="337.795414" style="fill: #0000ff; stroke: #0000ff"/>
     <use xlink:href="#m0e79855d32" x="87.109048" y="335.691771" style="fill: #0000ff; stroke: #0000ff"/>
     <use xlink:href="#m0e79855d32" x="91.161233" y="331.131868" style="fill: #0000ff; stroke: #0000ff"/>
     <use xlink:href="#m0e79855d32" x="94.532733" y="326.582589" style="fill: #0000ff; stroke: #0000ff"/>
     <use xlink:href="#m0e79855d32" x="97.915277" y="320.981349" style="fill: #0000ff; stroke: #0000ff"/>
     <use xlink:href="#m0e79855d32" x="101.156387" y="314.338907" style="fill: #0000ff; stroke: #0000ff"/>
     <use xlink:href="#m0e79855d32" x="104.528226" y="306.302509" style="fill: #0000ff; stroke: #0000ff"/>
     <use xlink:href="#m0e79855d32" x="107.397589" y="299.171212" style="fill: #0000ff; stroke: #0000ff"/>
     <use xlink:href="#m0e79855d32" x="111.97258" y="287.265546" style="fill: #0000ff; stroke: #0000ff"/>
     <use xlink:href="#m0e79855d32" x="118.230016" y="271.561785" style="fill: #0000ff; stroke: #0000ff"/>
     <use xlink:href="#m0e79855d32" x="125.027669" y="254.634486" style="fill: #0000ff; stroke: #0000ff"/>
     <use xlink:href="#m0e79855d32" x="131.584999" y="238.834603" style="fill: #0000ff; stroke: #0000ff"/>
     <use xlink:href="#m0e79855d32" x="139.044088" y="223.515627" style="fill: #0000ff; stroke: #0000ff"/>
     <use xlink:href="#m0e79855d32" x="145.292238" y="212.314798" style="fill: #0000ff; stroke: #0000ff"/>
     <use xlink:href="#m0e79855d32" x="152.074286" y="201.093893" style="fill: #0000ff; stroke: #0000ff"/>
     <use xlink:href="#m0e79855d32" x="158.625537" y="191.509989" style="fill: #0000ff; stroke: #0000ff"/>
     <use xlink:href="#m0e79855d32" x="164.851311" y="183.002421" style="fill: #0000ff; stroke: #0000ff"/>
     <use xlink:href="#m0e79855d32" x="171.469241" y="174.817378" style="fill: #0000ff; stroke: #0000ff"/>
     <use xlink:href="#m0e79855d32" x="179.054062" y="166.832029" style="fill: #0000ff; stroke: #0000ff"/>
     <use xlink:href="#m0e79855d32" x="185.679892" y="160.287292" style="fill: #0000ff; stroke: #0000ff"/>
     <use xlink:href="#m0e79855d32" x="193.130356" y="152.231393" style="fill: #0000ff; stroke: #0000ff"/>
     <use xlink:href="#m0e79855d32" x="199.350761" y="145.670744" style="fill: #0000ff; stroke: #0000ff"/>
     <use xlink:href="#m0e79855d32" x="206.099453" y="138.628497" style="fill: #0000ff; stroke: #0000ff"/>
     <use xlink:href="#m0e79855d32" x="212.729168" y="131.688697" style="fill: #0000ff; stroke: #0000ff"/>
     <use xlink:href="#m0e79855d32" x="218.960214" y="125.19748" style="fill: #0000ff; stroke: #0000ff"/>
     <use xlink:href="#m0e79855d32" x="225.624381" y="118.558872" style="fill: #0000ff; stroke: #0000ff"/>
     <use xlink:href="#m0e79855d32" x="233.146553" y="110.702771" style="fill: #0000ff; stroke: #0000ff"/>
     <use xlink:href="#m0e79855d32" x="239.772157" y="104.463051" style="fill: #0000ff; stroke: #0000ff"/>
     <use xlink:href="#m0e79855d32" x="246.001993" y="99.376079" style="fill: #0000ff; stroke: #0000ff"/>
     <use xlink:href="#m0e79855d32" x="252.624825" y="94.559468" style="fill: #0000ff; stroke: #0000ff"/>
     <use xlink:href="#m0e79855d32" x="260.192589" y="89.609952" style="fill: #0000ff; stroke: #0000ff"/>
     <use xlink:href="#m0e79855d32" x="266.822997" y="85.757995" style="fill: #0000ff; stroke: #0000ff"/>
     <use xlink:href="#m0e79855d32" x="274.275669" y="81.981322" style="fill: #0000ff; stroke: #0000ff"/>
     <use xlink:href="#m0e79855d32" x="280.515952" y="79.119418" style="fill: #0000ff; stroke: #0000ff"/>
     <use xlink:href="#m0e79855d32" x="287.239318" y="76.520151" style="fill: #0000ff; stroke: #0000ff"/>
     <use xlink:href="#m0e79855d32" x="293.868098" y="73.921777" style="fill: #0000ff; stroke: #0000ff"/>
     <use xlink:href="#m0e79855d32" x="300.09737" y="71.627153" style="fill: #0000ff; stroke: #0000ff"/>
     <use xlink:href="#m0e79855d32" x="307.637937" y="68.836966" style="fill: #0000ff; stroke: #0000ff"/>
     <use xlink:href="#m0e79855d32" x="314.287691" y="66.066457" style="fill: #0000ff; stroke: #0000ff"/>
     <use xlink:href="#m0e79855d32" x="320.911845" y="63.394408" style="fill: #0000ff; stroke: #0000ff"/>
     <use xlink:href="#m0e79855d32" x="328.39805" y="60.669992" style="fill: #0000ff; stroke: #0000ff"/>
     <use xlink:href="#m0e79855d32" x="333.768494" y="58.499922" style="fill: #0000ff; stroke: #0000ff"/>
     <use xlink:href="#m0e79855d32" x="341.330454" y="55.513525" style="fill: #0000ff; stroke: #0000ff"/>
     <use xlink:href="#m0e79855d32" x="347.958832" y="52.933642" style="fill: #0000ff; stroke: #0000ff"/>
     <use xlink:href="#m0e79855d32" x="354.201291" y="50.617341" style="fill: #0000ff; stroke: #0000ff"/>
     <use xlink:href="#m0e79855d32" x="360.800456" y="48.703509" style="fill: #0000ff; stroke: #0000ff"/>
     <use xlink:href="#m0e79855d32" x="368.378554" y="46.370499" style="fill: #0000ff; stroke: #0000ff"/>
     <use xlink:href="#m0e79855d32" x="375.009446" y="44.67557" style="fill: #0000ff; stroke: #0000ff"/>
     <use xlink:href="#m0e79855d32" x="381.264383" y="43.735719" style="fill: #0000ff; stroke: #0000ff"/>
     <use xlink:href="#m0e79855d32" x="388.783847" y="42.904963" style="fill: #0000ff; stroke: #0000ff"/>
     <use xlink:href="#m0e79855d32" x="395.427153" y="42.17152" style="fill: #0000ff; stroke: #0000ff"/>
     <use xlink:href="#m0e79855d32" x="402.062946" y="41.470477" style="fill: #0000ff; stroke: #0000ff"/>
     <use xlink:href="#m0e79855d32" x="409.516634" y="40.796283" style="fill: #0000ff; stroke: #0000ff"/>
     <use xlink:href="#m0e79855d32" x="415.828207" y="40.45262" style="fill: #0000ff; stroke: #0000ff"/>
     <use xlink:href="#m0e79855d32" x="422.492261" y="39.891695" style="fill: #0000ff; stroke: #0000ff"/>
     <use xlink:href="#m0e79855d32" x="429.099922" y="39.365159" style="fill: #0000ff; stroke: #0000ff"/>
     <use xlink:href="#m0e79855d32" x="435.357971" y="38.664204" style="fill: #0000ff; stroke: #0000ff"/>
     <use xlink:href="#m0e79855d32" x="441.955362" y="37.996315" style="fill: #0000ff; stroke: #0000ff"/>
     <use xlink:href="#m0e79855d32" x="449.579552" y="37.61523" style="fill: #0000ff; stroke: #0000ff"/>
     <use xlink:href="#m0e79855d32" x="456.165045" y="37.439906" style="fill: #0000ff; stroke: #0000ff"/>
     <use xlink:href="#m0e79855d32" x="463.615251" y="37.438125" style="fill: #0000ff; stroke: #0000ff"/>
     <use xlink:href="#m0e79855d32" x="469.908784" y="37.517925" style="fill: #0000ff; stroke: #0000ff"/>
     <use xlink:href="#m0e79855d32" x="476.586154" y="38.242457" style="fill: #0000ff; stroke: #0000ff"/>
     <use xlink:href="#m0e79855d32" x="483.196588" y="39.382122" style="fill: #0000ff; stroke: #0000ff"/>
     <use xlink:href="#m0e79855d32" x="489.443771" y="41.26031" style="fill: #0000ff; stroke: #0000ff"/>
     <use xlink:href="#m0e79855d32" x="496.918772" y="43.923198" style="fill: #0000ff; stroke: #0000ff"/>
     <use xlink:href="#m0e79855d32" x="503.615327" y="47.354977" style="fill: #0000ff; stroke: #0000ff"/>
     <use xlink:href="#m0e79855d32" x="510.244172" y="51.183548" style="fill: #0000ff; stroke: #0000ff"/>
     <use xlink:href="#m0e79855d32" x="517.685156" y="56.667433" style="fill: #0000ff; stroke: #0000ff"/>
     <use xlink:href="#m0e79855d32" x="524.009948" y="62.482287" style="fill: #0000ff; stroke: #0000ff"/>
     <use xlink:href="#m0e79855d32" x="530.662878" y="69.27826" style="fill: #0000ff; stroke: #0000ff"/>
     <use xlink:href="#m0e79855d32" x="537.306619" y="77.332286" style="fill: #0000ff; stroke: #0000ff"/>
     <use xlink:href="#m0e79855d32" x="544.786263" y="88.600797" style="fill: #0000ff; stroke: #0000ff"/>
     <use xlink:href="#m0e79855d32" x="550.197704" y="98.326355" style="fill: #0000ff; stroke: #0000ff"/>
     <use xlink:href="#m0e79855d32" x="557.884574" y="114.875206" style="fill: #0000ff; stroke: #0000ff"/>
     <use xlink:href="#m0e79855d32" x="564.338339" y="128.984468" style="fill: #0000ff; stroke: #0000ff"/>
     <use xlink:href="#m0e79855d32" x="570.966571" y="140.20213" style="fill: #0000ff; stroke: #0000ff"/>
     <use xlink:href="#m0e79855d32" x="578.485777" y="155.152566" style="fill: #0000ff; stroke: #0000ff"/>
     <use xlink:href="#m0e79855d32" x="584.797301" y="167.674014" style="fill: #0000ff; stroke: #0000ff"/>
    </g>
   </g>
   <g id="patch_3">
    <path d="M 52.160938 354.958125 
L 52.160938 22.318125 
" style="fill: none; stroke: #000000; stroke-width: 0.8; stroke-linejoin: miter; stroke-linecap: square"/>
   </g>
   <g id="patch_4">
    <path d="M 610.160938 354.958125 
L 610.160938 22.318125 
" style="fill: none; stroke: #000000; stroke-width: 0.8; stroke-linejoin: miter; stroke-linecap: square"/>
   </g>
   <g id="patch_5">
    <path d="M 52.160938 354.958125 
L 610.160938 354.958125 
" style="fill: none; stroke: #000000; stroke-width: 0.8; stroke-linejoin: miter; stroke-linecap: square"/>
   </g>
   <g id="patch_6">
    <path d="M 52.160938 22.318125 
L 610.160938 22.318125 
" style="fill: none; stroke: #000000; stroke-width: 0.8; stroke-linejoin: miter; stroke-linecap: square"/>
   </g>
   <g id="legend_1">
    <g id="patch_7">
     <path d="M 59.160938 44.99625 
L 115.53125 44.99625 
Q 117.53125 44.99625 117.53125 42.99625 
L 117.53125 29.318125 
Q 117.53125 27.318125 115.53125 27.318125 
L 59.160938 27.318125 
Q 57.160938 27.318125 57.160938 29.318125 
L 57.160938 42.99625 
Q 57.160938 44.99625 59.160938 44.99625 
z
" style="fill: #ffffff; opacity: 0.8; stroke: #cccccc; stroke-linejoin: miter"/>
    </g>
    <g id="line2d_14">
     <path d="M 61.160938 35.416562 
L 71.160938 35.416562 
L 81.160938 35.416562 
" style="fill: none; stroke: #0000ff; stroke-width: 1.5; stroke-linecap: square"/>
     <g>
      <use xlink:href="#m0e79855d32" x="71.160938" y="35.416562" style="fill: #0000ff; stroke: #0000ff"/>
     </g>
    </g>
    <g id="text_14">
     <!-- Error -->
     <g transform="translate(89.160938 38.916562) scale(0.1 -0.1)">
      <use xlink:href="#DejaVuSans-45"/>
      <use xlink:href="#DejaVuSans-72" transform="translate(63.183594 0)"/>
      <use xlink:href="#DejaVuSans-72" transform="translate(102.546875 0)"/>
      <use xlink:href="#DejaVuSans-6f" transform="translate(141.410156 0)"/>
      <use xlink:href="#DejaVuSans-72" transform="translate(202.591797 0)"/>
     </g>
    </g>
   </g>
  </g>
  <g id="axes_2">
   <g id="matplotlib.axis_3">
    <g id="ytick_5">
     <g id="line2d_15">
      <path d="M 52.160938 304.755992 
L 610.160938 304.755992 
" clip-path="url(#pf10c1c4150)" style="fill: none; stroke: #b0b0b0; stroke-width: 0.8; stroke-linecap: square"/>
     </g>
     <g id="line2d_16">
      <defs>
       <path id="m08d7ea728c" d="M 0 0 
L 3.5 0 
" style="stroke: #000000; stroke-width: 0.8"/>
      </defs>
      <g>
       <use xlink:href="#m08d7ea728c" x="610.160938" y="304.755992" style="stroke: #000000; stroke-width: 0.8"/>
      </g>
     </g>
     <g id="text_15">
      <!-- −1.0 -->
      <g transform="translate(617.160938 308.555211) scale(0.1 -0.1)">
       <use xlink:href="#DejaVuSans-2212"/>
       <use xlink:href="#DejaVuSans-31" transform="translate(83.789062 0)"/>
       <use xlink:href="#DejaVuSans-2e" transform="translate(147.412109 0)"/>
       <use xlink:href="#DejaVuSans-30" transform="translate(179.199219 0)"/>
      </g>
     </g>
    </g>
    <g id="ytick_6">
     <g id="line2d_17">
      <path d="M 52.160938 244.432036 
L 610.160938 244.432036 
" clip-path="url(#pf10c1c4150)" style="fill: none; stroke: #b0b0b0; stroke-width: 0.8; stroke-linecap: square"/>
     </g>
     <g id="line2d_18">
      <g>
       <use xlink:href="#m08d7ea728c" x="610.160938" y="244.432036" style="stroke: #000000; stroke-width: 0.8"/>
      </g>
     </g>
     <g id="text_16">
      <!-- −0.5 -->
      <g transform="translate(617.160938 248.231255) scale(0.1 -0.1)">
       <use xlink:href="#DejaVuSans-2212"/>
       <use xlink:href="#DejaVuSans-30" transform="translate(83.789062 0)"/>
       <use xlink:href="#DejaVuSans-2e" transform="translate(147.412109 0)"/>
       <use xlink:href="#DejaVuSans-35" transform="translate(179.199219 0)"/>
      </g>
     </g>
    </g>
    <g id="ytick_7">
     <g id="line2d_19">
      <path d="M 52.160938 184.108081 
L 610.160938 184.108081 
" clip-path="url(#pf10c1c4150)" style="fill: none; stroke: #b0b0b0; stroke-width: 0.8; stroke-linecap: square"/>
     </g>
     <g id="line2d_20">
      <g>
       <use xlink:href="#m08d7ea728c" x="610.160938" y="184.108081" style="stroke: #000000; stroke-width: 0.8"/>
      </g>
     </g>
     <g id="text_17">
      <!-- 0.0 -->
      <g transform="translate(617.160938 187.907299) scale(0.1 -0.1)">
       <use xlink:href="#DejaVuSans-30"/>
       <use xlink:href="#DejaVuSans-2e" transform="translate(63.623047 0)"/>
       <use xlink:href="#DejaVuSans-30" transform="translate(95.410156 0)"/>
      </g>
     </g>
    </g>
    <g id="ytick_8">
     <g id="line2d_21">
      <path d="M 52.160938 123.784125 
L 610.160938 123.784125 
" clip-path="url(#pf10c1c4150)" style="fill: none; stroke: #b0b0b0; stroke-width: 0.8; stroke-linecap: square"/>
     </g>
     <g id="line2d_22">
      <g>
       <use xlink:href="#m08d7ea728c" x="610.160938" y="123.784125" style="stroke: #000000; stroke-width: 0.8"/>
      </g>
     </g>
     <g id="text_18">
      <!-- 0.5 -->
      <g transform="translate(617.160938 127.583344) scale(0.1 -0.1)">
       <use xlink:href="#DejaVuSans-30"/>
       <use xlink:href="#DejaVuSans-2e" transform="translate(63.623047 0)"/>
       <use xlink:href="#DejaVuSans-35" transform="translate(95.410156 0)"/>
      </g>
     </g>
    </g>
    <g id="ytick_9">
     <g id="line2d_23">
      <path d="M 52.160938 63.460169 
L 610.160938 63.460169 
" clip-path="url(#pf10c1c4150)" style="fill: none; stroke: #b0b0b0; stroke-width: 0.8; stroke-linecap: square"/>
     </g>
     <g id="line2d_24">
      <g>
       <use xlink:href="#m08d7ea728c" x="610.160938" y="63.460169" style="stroke: #000000; stroke-width: 0.8"/>
      </g>
     </g>
     <g id="text_19">
      <!-- 1.0 -->
      <g transform="translate(617.160938 67.259388) scale(0.1 -0.1)">
       <use xlink:href="#DejaVuSans-31"/>
       <use xlink:href="#DejaVuSans-2e" transform="translate(63.623047 0)"/>
       <use xlink:href="#DejaVuSans-30" transform="translate(95.410156 0)"/>
      </g>
     </g>
    </g>
    <g id="text_20">
     <!-- Error Dot (m/s) -->
     <g transform="translate(653.042188 225.931875) rotate(-90) scale(0.1 -0.1)">
      <defs>
       <path id="DejaVuSans-20" transform="scale(0.015625)"/>
       <path id="DejaVuSans-44" d="M 1259 4147 
L 1259 519 
L 2022 519 
Q 2988 519 3436 956 
Q 3884 1394 3884 2338 
Q 3884 3275 3436 3711 
Q 2988 4147 2022 4147 
L 1259 4147 
z
M 628 4666 
L 1925 4666 
Q 3281 4666 3915 4102 
Q 4550 3538 4550 2338 
Q 4550 1131 3912 565 
Q 3275 0 1925 0 
L 628 0 
L 628 4666 
z
" transform="scale(0.015625)"/>
       <path id="DejaVuSans-74" d="M 1172 4494 
L 1172 3500 
L 2356 3500 
L 2356 3053 
L 1172 3053 
L 1172 1153 
Q 1172 725 1289 603 
Q 1406 481 1766 481 
L 2356 481 
L 2356 0 
L 1766 0 
Q 1100 0 847 248 
Q 594 497 594 1153 
L 594 3053 
L 172 3053 
L 172 3500 
L 594 3500 
L 594 4494 
L 1172 4494 
z
" transform="scale(0.015625)"/>
       <path id="DejaVuSans-6d" d="M 3328 2828 
Q 3544 3216 3844 3400 
Q 4144 3584 4550 3584 
Q 5097 3584 5394 3201 
Q 5691 2819 5691 2113 
L 5691 0 
L 5113 0 
L 5113 2094 
Q 5113 2597 4934 2840 
Q 4756 3084 4391 3084 
Q 3944 3084 3684 2787 
Q 3425 2491 3425 1978 
L 3425 0 
L 2847 0 
L 2847 2094 
Q 2847 2600 2669 2842 
Q 2491 3084 2119 3084 
Q 1678 3084 1418 2786 
Q 1159 2488 1159 1978 
L 1159 0 
L 581 0 
L 581 3500 
L 1159 3500 
L 1159 2956 
Q 1356 3278 1631 3431 
Q 1906 3584 2284 3584 
Q 2666 3584 2933 3390 
Q 3200 3197 3328 2828 
z
" transform="scale(0.015625)"/>
       <path id="DejaVuSans-2f" d="M 1625 4666 
L 2156 4666 
L 531 -594 
L 0 -594 
L 1625 4666 
z
" transform="scale(0.015625)"/>
       <path id="DejaVuSans-73" d="M 2834 3397 
L 2834 2853 
Q 2591 2978 2328 3040 
Q 2066 3103 1784 3103 
Q 1356 3103 1142 2972 
Q 928 2841 928 2578 
Q 928 2378 1081 2264 
Q 1234 2150 1697 2047 
L 1894 2003 
Q 2506 1872 2764 1633 
Q 3022 1394 3022 966 
Q 3022 478 2636 193 
Q 2250 -91 1575 -91 
Q 1294 -91 989 -36 
Q 684 19 347 128 
L 347 722 
Q 666 556 975 473 
Q 1284 391 1588 391 
Q 1994 391 2212 530 
Q 2431 669 2431 922 
Q 2431 1156 2273 1281 
Q 2116 1406 1581 1522 
L 1381 1569 
Q 847 1681 609 1914 
Q 372 2147 372 2553 
Q 372 3047 722 3315 
Q 1072 3584 1716 3584 
Q 2034 3584 2315 3537 
Q 2597 3491 2834 3397 
z
" transform="scale(0.015625)"/>
      </defs>
      <use xlink:href="#DejaVuSans-45"/>
      <use xlink:href="#DejaVuSans-72" transform="translate(63.183594 0)"/>
      <use xlink:href="#DejaVuSans-72" transform="translate(102.546875 0)"/>
      <use xlink:href="#DejaVuSans-6f" transform="translate(141.410156 0)"/>
      <use xlink:href="#DejaVuSans-72" transform="translate(202.591797 0)"/>
      <use xlink:href="#DejaVuSans-20" transform="translate(243.705078 0)"/>
      <use xlink:href="#DejaVuSans-44" transform="translate(275.492188 0)"/>
      <use xlink:href="#DejaVuSans-6f" transform="translate(352.494141 0)"/>
      <use xlink:href="#DejaVuSans-74" transform="translate(413.675781 0)"/>
      <use xlink:href="#DejaVuSans-20" transform="translate(452.884766 0)"/>
      <use xlink:href="#DejaVuSans-28" transform="translate(484.671875 0)"/>
      <use xlink:href="#DejaVuSans-6d" transform="translate(523.685547 0)"/>
      <use xlink:href="#DejaVuSans-2f" transform="translate(621.097656 0)"/>
      <use xlink:href="#DejaVuSans-73" transform="translate(654.789062 0)"/>
      <use xlink:href="#DejaVuSans-29" transform="translate(706.888672 0)"/>
     </g>
    </g>
   </g>
   <g id="line2d_25">
    <path d="M 77.524574 184.108081 
L 80.35252 184.043029 
L 84.935588 171.295115 
L 87.109048 143.590197 
L 91.161233 124.051668 
L 94.532733 113.107243 
L 97.915277 97.882454 
L 101.156387 77.79554 
L 104.528226 56.923565 
L 107.397589 44.417277 
L 111.97258 38.13523 
L 118.230016 37.438125 
L 125.027669 40.656558 
L 131.584999 43.528993 
L 139.044088 56.050912 
L 145.292238 73.748828 
L 152.074286 85.203618 
L 158.625537 94.664693 
L 164.851311 102.927609 
L 171.469241 109.415229 
L 179.054062 118.415777 
L 185.679892 125.560973 
L 193.130356 124.744591 
L 199.350761 122.824047 
L 206.099453 123.907537 
L 212.729168 124.135068 
L 218.960214 124.185008 
L 225.624381 125.636898 
L 233.146553 125.561261 
L 239.772157 127.122322 
L 246.001993 133.659501 
L 252.624825 139.813401 
L 260.192589 144.476471 
L 266.822997 148.674609 
L 274.275669 152.900035 
L 280.515952 156.410061 
L 287.239318 159.857387 
L 293.868098 161.769224 
L 300.09737 162.292605 
L 307.637937 162.92269 
L 314.287691 161.537656 
L 320.911845 160.580595 
L 328.39805 162.092923 
L 333.768494 162.072945 
L 341.330454 161.183517 
L 347.958832 161.609835 
L 354.201291 162.294648 
L 360.800456 165.141044 
L 368.378554 166.95416 
L 375.009446 167.941137 
L 381.264383 172.463081 
L 388.783847 176.6271 
L 395.427153 177.770571 
L 402.062946 177.909291 
L 409.516634 178.481758 
L 415.828207 179.950658 
L 422.492261 180.130813 
L 429.099922 179.406754 
L 435.357971 178.60807 
L 441.955362 177.989783 
L 449.579552 179.769383 
L 456.165045 181.910122 
L 463.615251 183.337372 
L 469.908784 184.465018 
L 476.586154 187.585078 
L 483.196588 192.167817 
L 489.443771 197.680621 
L 496.918772 202.955134 
L 503.615327 209.032638 
L 510.244172 215.38279 
L 517.685156 221.824457 
L 524.009948 231.63157 
L 530.662878 239.79486 
L 537.306619 248.198511 
L 544.786263 262.115567 
L 550.197704 278.898696 
L 557.884574 297.44241 
L 564.338339 308.603081 
L 570.966571 318.411945 
L 578.485777 330.847374 
L 584.797301 339.838125 
" clip-path="url(#pf10c1c4150)" style="fill: none; stroke-dasharray: 5.55,2.4; stroke-dashoffset: 0; stroke: #ff0000; stroke-width: 1.5"/>
    <defs>
     <path id="mcfd2d62833" d="M -1 1 
L 1 1 
L 1 -1 
L -1 -1 
z
" style="stroke: #ff0000; stroke-linejoin: miter"/>
    </defs>
    <g clip-path="url(#pf10c1c4150)">
     <use xlink:href="#mcfd2d62833" x="77.524574" y="184.108081" style="fill: #ff0000; stroke: #ff0000; stroke-linejoin: miter"/>
     <use xlink:href="#mcfd2d62833" x="80.35252" y="184.043029" style="fill: #ff0000; stroke: #ff0000; stroke-linejoin: miter"/>
     <use xlink:href="#mcfd2d62833" x="84.935588" y="171.295115" style="fill: #ff0000; stroke: #ff0000; stroke-linejoin: miter"/>
     <use xlink:href="#mcfd2d62833" x="87.109048" y="143.590197" style="fill: #ff0000; stroke: #ff0000; stroke-linejoin: miter"/>
     <use xlink:href="#mcfd2d62833" x="91.161233" y="124.051668" style="fill: #ff0000; stroke: #ff0000; stroke-linejoin: miter"/>
     <use xlink:href="#mcfd2d62833" x="94.532733" y="113.107243" style="fill: #ff0000; stroke: #ff0000; stroke-linejoin: miter"/>
     <use xlink:href="#mcfd2d62833" x="97.915277" y="97.882454" style="fill: #ff0000; stroke: #ff0000; stroke-linejoin: miter"/>
     <use xlink:href="#mcfd2d62833" x="101.156387" y="77.79554" style="fill: #ff0000; stroke: #ff0000; stroke-linejoin: miter"/>
     <use xlink:href="#mcfd2d62833" x="104.528226" y="56.923565" style="fill: #ff0000; stroke: #ff0000; stroke-linejoin: miter"/>
     <use xlink:href="#mcfd2d62833" x="107.397589" y="44.417277" style="fill: #ff0000; stroke: #ff0000; stroke-linejoin: miter"/>
     <use xlink:href="#mcfd2d62833" x="111.97258" y="38.13523" style="fill: #ff0000; stroke: #ff0000; stroke-linejoin: miter"/>
     <use xlink:href="#mcfd2d62833" x="118.230016" y="37.438125" style="fill: #ff0000; stroke: #ff0000; stroke-linejoin: miter"/>
     <use xlink:href="#mcfd2d62833" x="125.027669" y="40.656558" style="fill: #ff0000; stroke: #ff0000; stroke-linejoin: miter"/>
     <use xlink:href="#mcfd2d62833" x="131.584999" y="43.528993" style="fill: #ff0000; stroke: #ff0000; stroke-linejoin: miter"/>
     <use xlink:href="#mcfd2d62833" x="139.044088" y="56.050912" style="fill: #ff0000; stroke: #ff0000; stroke-linejoin: miter"/>
     <use xlink:href="#mcfd2d62833" x="145.292238" y="73.748828" style="fill: #ff0000; stroke: #ff0000; stroke-linejoin: miter"/>
     <use xlink:href="#mcfd2d62833" x="152.074286" y="85.203618" style="fill: #ff0000; stroke: #ff0000; stroke-linejoin: miter"/>
     <use xlink:href="#mcfd2d62833" x="158.625537" y="94.664693" style="fill: #ff0000; stroke: #ff0000; stroke-linejoin: miter"/>
     <use xlink:href="#mcfd2d62833" x="164.851311" y="102.927609" style="fill: #ff0000; stroke: #ff0000; stroke-linejoin: miter"/>
     <use xlink:href="#mcfd2d62833" x="171.469241" y="109.415229" style="fill: #ff0000; stroke: #ff0000; stroke-linejoin: miter"/>
     <use xlink:href="#mcfd2d62833" x="179.054062" y="118.415777" style="fill: #ff0000; stroke: #ff0000; stroke-linejoin: miter"/>
     <use xlink:href="#mcfd2d62833" x="185.679892" y="125.560973" style="fill: #ff0000; stroke: #ff0000; stroke-linejoin: miter"/>
     <use xlink:href="#mcfd2d62833" x="193.130356" y="124.744591" style="fill: #ff0000; stroke: #ff0000; stroke-linejoin: miter"/>
     <use xlink:href="#mcfd2d62833" x="199.350761" y="122.824047" style="fill: #ff0000; stroke: #ff0000; stroke-linejoin: miter"/>
     <use xlink:href="#mcfd2d62833" x="206.099453" y="123.907537" style="fill: #ff0000; stroke: #ff0000; stroke-linejoin: miter"/>
     <use xlink:href="#mcfd2d62833" x="212.729168" y="124.135068" style="fill: #ff0000; stroke: #ff0000; stroke-linejoin: miter"/>
     <use xlink:href="#mcfd2d62833" x="218.960214" y="124.185008" style="fill: #ff0000; stroke: #ff0000; stroke-linejoin: miter"/>
     <use xlink:href="#mcfd2d62833" x="225.624381" y="125.636898" style="fill: #ff0000; stroke: #ff0000; stroke-linejoin: miter"/>
     <use xlink:href="#mcfd2d62833" x="233.146553" y="125.561261" style="fill: #ff0000; stroke: #ff0000; stroke-linejoin: miter"/>
     <use xlink:href="#mcfd2d62833" x="239.772157" y="127.122322" style="fill: #ff0000; stroke: #ff0000; stroke-linejoin: miter"/>
     <use xlink:href="#mcfd2d62833" x="246.001993" y="133.659501" style="fill: #ff0000; stroke: #ff0000; stroke-linejoin: miter"/>
     <use xlink:href="#mcfd2d62833" x="252.624825" y="139.813401" style="fill: #ff0000; stroke: #ff0000; stroke-linejoin: miter"/>
     <use xlink:href="#mcfd2d62833" x="260.192589" y="144.476471" style="fill: #ff0000; stroke: #ff0000; stroke-linejoin: miter"/>
     <use xlink:href="#mcfd2d62833" x="266.822997" y="148.674609" style="fill: #ff0000; stroke: #ff0000; stroke-linejoin: miter"/>
     <use xlink:href="#mcfd2d62833" x="274.275669" y="152.900035" style="fill: #ff0000; stroke: #ff0000; stroke-linejoin: miter"/>
     <use xlink:href="#mcfd2d62833" x="280.515952" y="156.410061" style="fill: #ff0000; stroke: #ff0000; stroke-linejoin: miter"/>
     <use xlink:href="#mcfd2d62833" x="287.239318" y="159.857387" style="fill: #ff0000; stroke: #ff0000; stroke-linejoin: miter"/>
     <use xlink:href="#mcfd2d62833" x="293.868098" y="161.769224" style="fill: #ff0000; stroke: #ff0000; stroke-linejoin: miter"/>
     <use xlink:href="#mcfd2d62833" x="300.09737" y="162.292605" style="fill: #ff0000; stroke: #ff0000; stroke-linejoin: miter"/>
     <use xlink:href="#mcfd2d62833" x="307.637937" y="162.92269" style="fill: #ff0000; stroke: #ff0000; stroke-linejoin: miter"/>
     <use xlink:href="#mcfd2d62833" x="314.287691" y="161.537656" style="fill: #ff0000; stroke: #ff0000; stroke-linejoin: miter"/>
     <use xlink:href="#mcfd2d62833" x="320.911845" y="160.580595" style="fill: #ff0000; stroke: #ff0000; stroke-linejoin: miter"/>
     <use xlink:href="#mcfd2d62833" x="328.39805" y="162.092923" style="fill: #ff0000; stroke: #ff0000; stroke-linejoin: miter"/>
     <use xlink:href="#mcfd2d62833" x="333.768494" y="162.072945" style="fill: #ff0000; stroke: #ff0000; stroke-linejoin: miter"/>
     <use xlink:href="#mcfd2d62833" x="341.330454" y="161.183517" style="fill: #ff0000; stroke: #ff0000; stroke-linejoin: miter"/>
     <use xlink:href="#mcfd2d62833" x="347.958832" y="161.609835" style="fill: #ff0000; stroke: #ff0000; stroke-linejoin: miter"/>
     <use xlink:href="#mcfd2d62833" x="354.201291" y="162.294648" style="fill: #ff0000; stroke: #ff0000; stroke-linejoin: miter"/>
     <use xlink:href="#mcfd2d62833" x="360.800456" y="165.141044" style="fill: #ff0000; stroke: #ff0000; stroke-linejoin: miter"/>
     <use xlink:href="#mcfd2d62833" x="368.378554" y="166.95416" style="fill: #ff0000; stroke: #ff0000; stroke-linejoin: miter"/>
     <use xlink:href="#mcfd2d62833" x="375.009446" y="167.941137" style="fill: #ff0000; stroke: #ff0000; stroke-linejoin: miter"/>
     <use xlink:href="#mcfd2d62833" x="381.264383" y="172.463081" style="fill: #ff0000; stroke: #ff0000; stroke-linejoin: miter"/>
     <use xlink:href="#mcfd2d62833" x="388.783847" y="176.6271" style="fill: #ff0000; stroke: #ff0000; stroke-linejoin: miter"/>
     <use xlink:href="#mcfd2d62833" x="395.427153" y="177.770571" style="fill: #ff0000; stroke: #ff0000; stroke-linejoin: miter"/>
     <use xlink:href="#mcfd2d62833" x="402.062946" y="177.909291" style="fill: #ff0000; stroke: #ff0000; stroke-linejoin: miter"/>
     <use xlink:href="#mcfd2d62833" x="409.516634" y="178.481758" style="fill: #ff0000; stroke: #ff0000; stroke-linejoin: miter"/>
     <use xlink:href="#mcfd2d62833" x="415.828207" y="179.950658" style="fill: #ff0000; stroke: #ff0000; stroke-linejoin: miter"/>
     <use xlink:href="#mcfd2d62833" x="422.492261" y="180.130813" style="fill: #ff0000; stroke: #ff0000; stroke-linejoin: miter"/>
     <use xlink:href="#mcfd2d62833" x="429.099922" y="179.406754" style="fill: #ff0000; stroke: #ff0000; stroke-linejoin: miter"/>
     <use xlink:href="#mcfd2d62833" x="435.357971" y="178.60807" style="fill: #ff0000; stroke: #ff0000; stroke-linejoin: miter"/>
     <use xlink:href="#mcfd2d62833" x="441.955362" y="177.989783" style="fill: #ff0000; stroke: #ff0000; stroke-linejoin: miter"/>
     <use xlink:href="#mcfd2d62833" x="449.579552" y="179.769383" style="fill: #ff0000; stroke: #ff0000; stroke-linejoin: miter"/>
     <use xlink:href="#mcfd2d62833" x="456.165045" y="181.910122" style="fill: #ff0000; stroke: #ff0000; stroke-linejoin: miter"/>
     <use xlink:href="#mcfd2d62833" x="463.615251" y="183.337372" style="fill: #ff0000; stroke: #ff0000; stroke-linejoin: miter"/>
     <use xlink:href="#mcfd2d62833" x="469.908784" y="184.465018" style="fill: #ff0000; stroke: #ff0000; stroke-linejoin: miter"/>
     <use xlink:href="#mcfd2d62833" x="476.586154" y="187.585078" style="fill: #ff0000; stroke: #ff0000; stroke-linejoin: miter"/>
     <use xlink:href="#mcfd2d62833" x="483.196588" y="192.167817" style="fill: #ff0000; stroke: #ff0000; stroke-linejoin: miter"/>
     <use xlink:href="#mcfd2d62833" x="489.443771" y="197.680621" style="fill: #ff0000; stroke: #ff0000; stroke-linejoin: miter"/>
     <use xlink:href="#mcfd2d62833" x="496.918772" y="202.955134" style="fill: #ff0000; stroke: #ff0000; stroke-linejoin: miter"/>
     <use xlink:href="#mcfd2d62833" x="503.615327" y="209.032638" style="fill: #ff0000; stroke: #ff0000; stroke-linejoin: miter"/>
     <use xlink:href="#mcfd2d62833" x="510.244172" y="215.38279" style="fill: #ff0000; stroke: #ff0000; stroke-linejoin: miter"/>
     <use xlink:href="#mcfd2d62833" x="517.685156" y="221.824457" style="fill: #ff0000; stroke: #ff0000; stroke-linejoin: miter"/>
     <use xlink:href="#mcfd2d62833" x="524.009948" y="231.63157" style="fill: #ff0000; stroke: #ff0000; stroke-linejoin: miter"/>
     <use xlink:href="#mcfd2d62833" x="530.662878" y="239.79486" style="fill: #ff0000; stroke: #ff0000; stroke-linejoin: miter"/>
     <use xlink:href="#mcfd2d62833" x="537.306619" y="248.198511" style="fill: #ff0000; stroke: #ff0000; stroke-linejoin: miter"/>
     <use xlink:href="#mcfd2d62833" x="544.786263" y="262.115567" style="fill: #ff0000; stroke: #ff0000; stroke-linejoin: miter"/>
     <use xlink:href="#mcfd2d62833" x="550.197704" y="278.898696" style="fill: #ff0000; stroke: #ff0000; stroke-linejoin: miter"/>
     <use xlink:href="#mcfd2d62833" x="557.884574" y="297.44241" style="fill: #ff0000; stroke: #ff0000; stroke-linejoin: miter"/>
     <use xlink:href="#mcfd2d62833" x="564.338339" y="308.603081" style="fill: #ff0000; stroke: #ff0000; stroke-linejoin: miter"/>
     <use xlink:href="#mcfd2d62833" x="570.966571" y="318.411945" style="fill: #ff0000; stroke: #ff0000; stroke-linejoin: miter"/>
     <use xlink:href="#mcfd2d62833" x="578.485777" y="330.847374" style="fill: #ff0000; stroke: #ff0000; stroke-linejoin: miter"/>
     <use xlink:href="#mcfd2d62833" x="584.797301" y="339.838125" style="fill: #ff0000; stroke: #ff0000; stroke-linejoin: miter"/>
    </g>
   </g>
   <g id="patch_8">
    <path d="M 52.160938 354.958125 
L 52.160938 22.318125 
" style="fill: none; stroke: #000000; stroke-width: 0.8; stroke-linejoin: miter; stroke-linecap: square"/>
   </g>
   <g id="patch_9">
    <path d="M 610.160938 354.958125 
L 610.160938 22.318125 
" style="fill: none; stroke: #000000; stroke-width: 0.8; stroke-linejoin: miter; stroke-linecap: square"/>
   </g>
   <g id="patch_10">
    <path d="M 52.160938 354.958125 
L 610.160938 354.958125 
" style="fill: none; stroke: #000000; stroke-width: 0.8; stroke-linejoin: miter; stroke-linecap: square"/>
   </g>
   <g id="patch_11">
    <path d="M 52.160938 22.318125 
L 610.160938 22.318125 
" style="fill: none; stroke: #000000; stroke-width: 0.8; stroke-linejoin: miter; stroke-linecap: square"/>
   </g>
   <g id="text_21">
    <!-- Heading Error and Error Dot over Time -->
    <g transform="translate(215.51375 16.318125) scale(0.12 -0.12)">
     <defs>
      <path id="DejaVuSans-48" d="M 628 4666 
L 1259 4666 
L 1259 2753 
L 3553 2753 
L 3553 4666 
L 4184 4666 
L 4184 0 
L 3553 0 
L 3553 2222 
L 1259 2222 
L 1259 0 
L 628 0 
L 628 4666 
z
" transform="scale(0.015625)"/>
      <path id="DejaVuSans-65" d="M 3597 1894 
L 3597 1613 
L 953 1613 
Q 991 1019 1311 708 
Q 1631 397 2203 397 
Q 2534 397 2845 478 
Q 3156 559 3463 722 
L 3463 178 
Q 3153 47 2828 -22 
Q 2503 -91 2169 -91 
Q 1331 -91 842 396 
Q 353 884 353 1716 
Q 353 2575 817 3079 
Q 1281 3584 2069 3584 
Q 2775 3584 3186 3129 
Q 3597 2675 3597 1894 
z
M 3022 2063 
Q 3016 2534 2758 2815 
Q 2500 3097 2075 3097 
Q 1594 3097 1305 2825 
Q 1016 2553 972 2059 
L 3022 2063 
z
" transform="scale(0.015625)"/>
      <path id="DejaVuSans-69" d="M 603 3500 
L 1178 3500 
L 1178 0 
L 603 0 
L 603 3500 
z
M 603 4863 
L 1178 4863 
L 1178 4134 
L 603 4134 
L 603 4863 
z
" transform="scale(0.015625)"/>
      <path id="DejaVuSans-6e" d="M 3513 2113 
L 3513 0 
L 2938 0 
L 2938 2094 
Q 2938 2591 2744 2837 
Q 2550 3084 2163 3084 
Q 1697 3084 1428 2787 
Q 1159 2491 1159 1978 
L 1159 0 
L 581 0 
L 581 3500 
L 1159 3500 
L 1159 2956 
Q 1366 3272 1645 3428 
Q 1925 3584 2291 3584 
Q 2894 3584 3203 3211 
Q 3513 2838 3513 2113 
z
" transform="scale(0.015625)"/>
      <path id="DejaVuSans-67" d="M 2906 1791 
Q 2906 2416 2648 2759 
Q 2391 3103 1925 3103 
Q 1463 3103 1205 2759 
Q 947 2416 947 1791 
Q 947 1169 1205 825 
Q 1463 481 1925 481 
Q 2391 481 2648 825 
Q 2906 1169 2906 1791 
z
M 3481 434 
Q 3481 -459 3084 -895 
Q 2688 -1331 1869 -1331 
Q 1566 -1331 1297 -1286 
Q 1028 -1241 775 -1147 
L 775 -588 
Q 1028 -725 1275 -790 
Q 1522 -856 1778 -856 
Q 2344 -856 2625 -561 
Q 2906 -266 2906 331 
L 2906 616 
Q 2728 306 2450 153 
Q 2172 0 1784 0 
Q 1141 0 747 490 
Q 353 981 353 1791 
Q 353 2603 747 3093 
Q 1141 3584 1784 3584 
Q 2172 3584 2450 3431 
Q 2728 3278 2906 2969 
L 2906 3500 
L 3481 3500 
L 3481 434 
z
" transform="scale(0.015625)"/>
      <path id="DejaVuSans-76" d="M 191 3500 
L 800 3500 
L 1894 563 
L 2988 3500 
L 3597 3500 
L 2284 0 
L 1503 0 
L 191 3500 
z
" transform="scale(0.015625)"/>
      <path id="DejaVuSans-54" d="M -19 4666 
L 3928 4666 
L 3928 4134 
L 2272 4134 
L 2272 0 
L 1638 0 
L 1638 4134 
L -19 4134 
L -19 4666 
z
" transform="scale(0.015625)"/>
     </defs>
     <use xlink:href="#DejaVuSans-48"/>
     <use xlink:href="#DejaVuSans-65" transform="translate(75.195312 0)"/>
     <use xlink:href="#DejaVuSans-61" transform="translate(136.71875 0)"/>
     <use xlink:href="#DejaVuSans-64" transform="translate(197.998047 0)"/>
     <use xlink:href="#DejaVuSans-69" transform="translate(261.474609 0)"/>
     <use xlink:href="#DejaVuSans-6e" transform="translate(289.257812 0)"/>
     <use xlink:href="#DejaVuSans-67" transform="translate(352.636719 0)"/>
     <use xlink:href="#DejaVuSans-20" transform="translate(416.113281 0)"/>
     <use xlink:href="#DejaVuSans-45" transform="translate(447.900391 0)"/>
     <use xlink:href="#DejaVuSans-72" transform="translate(511.083984 0)"/>
     <use xlink:href="#DejaVuSans-72" transform="translate(550.447266 0)"/>
     <use xlink:href="#DejaVuSans-6f" transform="translate(589.310547 0)"/>
     <use xlink:href="#DejaVuSans-72" transform="translate(650.492188 0)"/>
     <use xlink:href="#DejaVuSans-20" transform="translate(691.605469 0)"/>
     <use xlink:href="#DejaVuSans-61" transform="translate(723.392578 0)"/>
     <use xlink:href="#DejaVuSans-6e" transform="translate(784.671875 0)"/>
     <use xlink:href="#DejaVuSans-64" transform="translate(848.050781 0)"/>
     <use xlink:href="#DejaVuSans-20" transform="translate(911.527344 0)"/>
     <use xlink:href="#DejaVuSans-45" transform="translate(943.314453 0)"/>
     <use xlink:href="#DejaVuSans-72" transform="translate(1006.498047 0)"/>
     <use xlink:href="#DejaVuSans-72" transform="translate(1045.861328 0)"/>
     <use xlink:href="#DejaVuSans-6f" transform="translate(1084.724609 0)"/>
     <use xlink:href="#DejaVuSans-72" transform="translate(1145.90625 0)"/>
     <use xlink:href="#DejaVuSans-20" transform="translate(1187.019531 0)"/>
     <use xlink:href="#DejaVuSans-44" transform="translate(1218.806641 0)"/>
     <use xlink:href="#DejaVuSans-6f" transform="translate(1295.808594 0)"/>
     <use xlink:href="#DejaVuSans-74" transform="translate(1356.990234 0)"/>
     <use xlink:href="#DejaVuSans-20" transform="translate(1396.199219 0)"/>
     <use xlink:href="#DejaVuSans-6f" transform="translate(1427.986328 0)"/>
     <use xlink:href="#DejaVuSans-76" transform="translate(1489.167969 0)"/>
     <use xlink:href="#DejaVuSans-65" transform="translate(1548.347656 0)"/>
     <use xlink:href="#DejaVuSans-72" transform="translate(1609.871094 0)"/>
     <use xlink:href="#DejaVuSans-20" transform="translate(1650.984375 0)"/>
     <use xlink:href="#DejaVuSans-54" transform="translate(1682.771484 0)"/>
     <use xlink:href="#DejaVuSans-69" transform="translate(1740.730469 0)"/>
     <use xlink:href="#DejaVuSans-6d" transform="translate(1768.513672 0)"/>
     <use xlink:href="#DejaVuSans-65" transform="translate(1865.925781 0)"/>
    </g>
   </g>
   <g id="legend_2">
    <g id="patch_12">
     <path d="M 525.873438 44.99625 
L 603.160938 44.99625 
Q 605.160938 44.99625 605.160938 42.99625 
L 605.160938 29.318125 
Q 605.160938 27.318125 603.160938 27.318125 
L 525.873438 27.318125 
Q 523.873438 27.318125 523.873438 29.318125 
L 523.873438 42.99625 
Q 523.873438 44.99625 525.873438 44.99625 
z
" style="fill: #ffffff; opacity: 0.8; stroke: #cccccc; stroke-linejoin: miter"/>
    </g>
    <g id="line2d_26">
     <path d="M 527.873438 35.416562 
L 537.873438 35.416562 
L 547.873438 35.416562 
" style="fill: none; stroke-dasharray: 5.55,2.4; stroke-dashoffset: 0; stroke: #ff0000; stroke-width: 1.5"/>
     <g>
      <use xlink:href="#mcfd2d62833" x="537.873438" y="35.416562" style="fill: #ff0000; stroke: #ff0000; stroke-linejoin: miter"/>
     </g>
    </g>
    <g id="text_22">
     <!-- Error Dot -->
     <g transform="translate(555.873438 38.916562) scale(0.1 -0.1)">
      <use xlink:href="#DejaVuSans-45"/>
      <use xlink:href="#DejaVuSans-72" transform="translate(63.183594 0)"/>
      <use xlink:href="#DejaVuSans-72" transform="translate(102.546875 0)"/>
      <use xlink:href="#DejaVuSans-6f" transform="translate(141.410156 0)"/>
      <use xlink:href="#DejaVuSans-72" transform="translate(202.591797 0)"/>
      <use xlink:href="#DejaVuSans-20" transform="translate(243.705078 0)"/>
      <use xlink:href="#DejaVuSans-44" transform="translate(275.492188 0)"/>
      <use xlink:href="#DejaVuSans-6f" transform="translate(352.494141 0)"/>
      <use xlink:href="#DejaVuSans-74" transform="translate(413.675781 0)"/>
     </g>
    </g>
   </g>
  </g>
 </g>
 <defs>
  <clipPath id="pf10c1c4150">
   <rect x="52.160938" y="22.318125" width="558" height="332.64"/>
  </clipPath>
 </defs>
</svg>
