<?xml version="1.0" encoding="utf-8" standalone="no"?>
<!DOCTYPE svg PUBLIC "-//W3C//DTD SVG 1.1//EN"
  "http://www.w3.org/Graphics/SVG/1.1/DTD/svg11.dtd">
<svg xmlns:xlink="http://www.w3.org/1999/xlink" width="505.760937pt" height="392.514375pt" viewBox="0 0 505.760937 392.514375" xmlns="http://www.w3.org/2000/svg" version="1.1">
 <metadata>
  <rdf:RDF xmlns:dc="http://purl.org/dc/elements/1.1/" xmlns:cc="http://creativecommons.org/ns#" xmlns:rdf="http://www.w3.org/1999/02/22-rdf-syntax-ns#">
   <cc:Work>
    <dc:type rdf:resource="http://purl.org/dc/dcmitype/StillImage"/>
    <dc:date>2025-10-31T18:53:24.262529</dc:date>
    <dc:format>image/svg+xml</dc:format>
    <dc:creator>
     <cc:Agent>
      <dc:title>Matplotlib v3.10.6, https://matplotlib.org/</dc:title>
     </cc:Agent>
    </dc:creator>
   </cc:Work>
  </rdf:RDF>
 </metadata>
 <defs>
  <style type="text/css">*{stroke-linejoin: round; stroke-linecap: butt}</style>
 </defs>
 <g id="figure_1">
  <g id="patch_1">
   <path d="M 0 392.514375 
L 505.760937 392.514375 
L 505.760937 0 
L 0 0 
z
" style="fill: #ffffff"/>
  </g>
  <g id="axes_1">
   <g id="patch_2">
    <path d="M 52.160938 354.958125 
L 498.560937 354.958125 
L 498.560937 22.318125 
L 52.160938 22.318125 
z
" style="fill: #ffffff"/>
   </g>
   <g id="matplotlib.axis_1">
    <g id="xtick_1">
     <g id="line2d_1">
      <path d="M 70.526412 354.958125 
L 70.526412 22.318125 
" clip-path="url(#pa9c57d7916)" style="fill: none; stroke: #b0b0b0; stroke-width: 0.8; stroke-linecap: square"/>
     </g>
     <g id="line2d_2">
      <defs>
       <path id="m02bb3e7e87" d="M 0 0 
L 0 3.5 
" style="stroke: #000000; stroke-width: 0.8"/>
      </defs>
      <g>
       <use xlink:href="#m02bb3e7e87" x="70.526412" y="354.958125" style="stroke: #000000; stroke-width: 0.8"/>
      </g>
     </g>
     <g id="text_1">
      <!-- −1.0 -->
      <g transform="translate(58.385006 369.556562) scale(0.1 -0.1)">
       <defs>
        <path id="DejaVuSans-2212" d="M 678 2272 
L 4684 2272 
L 4684 1741 
L 678 1741 
L 678 2272 
z
" transform="scale(0.015625)"/>
        <path id="DejaVuSans-31" d="M 794 531 
L 1825 531 
L 1825 4091 
L 703 3866 
L 703 4441 
L 1819 4666 
L 2450 4666 
L 2450 531 
L 3481 531 
L 3481 0 
L 794 0 
L 794 531 
z
" transform="scale(0.015625)"/>
        <path id="DejaVuSans-2e" d="M 684 794 
L 1344 794 
L 1344 0 
L 684 0 
L 684 794 
z
" transform="scale(0.015625)"/>
        <path id="DejaVuSans-30" d="M 2034 4250 
Q 1547 4250 1301 3770 
Q 1056 3291 1056 2328 
Q 1056 1369 1301 889 
Q 1547 409 2034 409 
Q 2525 409 2770 889 
Q 3016 1369 3016 2328 
Q 3016 3291 2770 3770 
Q 2525 4250 2034 4250 
z
M 2034 4750 
Q 2819 4750 3233 4129 
Q 3647 3509 3647 2328 
Q 3647 1150 3233 529 
Q 2819 -91 2034 -91 
Q 1250 -91 836 529 
Q 422 1150 422 2328 
Q 422 3509 836 4129 
Q 1250 4750 2034 4750 
z
" transform="scale(0.015625)"/>
       </defs>
       <use xlink:href="#DejaVuSans-2212"/>
       <use xlink:href="#DejaVuSans-31" transform="translate(83.789062 0)"/>
       <use xlink:href="#DejaVuSans-2e" transform="translate(147.412109 0)"/>
       <use xlink:href="#DejaVuSans-30" transform="translate(179.199219 0)"/>
      </g>
     </g>
    </g>
    <g id="xtick_2">
     <g id="line2d_3">
      <path d="M 137.314933 354.958125 
L 137.314933 22.318125 
" clip-path="url(#pa9c57d7916)" style="fill: none; stroke: #b0b0b0; stroke-width: 0.8; stroke-linecap: square"/>
     </g>
     <g id="line2d_4">
      <g>
       <use xlink:href="#m02bb3e7e87" x="137.314933" y="354.958125" style="stroke: #000000; stroke-width: 0.8"/>
      </g>
     </g>
     <g id="text_2">
      <!-- −0.8 -->
      <g transform="translate(125.173527 369.556562) scale(0.1 -0.1)">
       <defs>
        <path id="DejaVuSans-38" d="M 2034 2216 
Q 1584 2216 1326 1975 
Q 1069 1734 1069 1313 
Q 1069 891 1326 650 
Q 1584 409 2034 409 
Q 2484 409 2743 651 
Q 3003 894 3003 1313 
Q 3003 1734 2745 1975 
Q 2488 2216 2034 2216 
z
M 1403 2484 
Q 997 2584 770 2862 
Q 544 3141 544 3541 
Q 544 4100 942 4425 
Q 1341 4750 2034 4750 
Q 2731 4750 3128 4425 
Q 3525 4100 3525 3541 
Q 3525 3141 3298 2862 
Q 3072 2584 2669 2484 
Q 3125 2378 3379 2068 
Q 3634 1759 3634 1313 
Q 3634 634 3220 271 
Q 2806 -91 2034 -91 
Q 1263 -91 848 271 
Q 434 634 434 1313 
Q 434 1759 690 2068 
Q 947 2378 1403 2484 
z
M 1172 3481 
Q 1172 3119 1398 2916 
Q 1625 2713 2034 2713 
Q 2441 2713 2670 2916 
Q 2900 3119 2900 3481 
Q 2900 3844 2670 4047 
Q 2441 4250 2034 4250 
Q 1625 4250 1398 4047 
Q 1172 3844 1172 3481 
z
" transform="scale(0.015625)"/>
       </defs>
       <use xlink:href="#DejaVuSans-2212"/>
       <use xlink:href="#DejaVuSans-30" transform="translate(83.789062 0)"/>
       <use xlink:href="#DejaVuSans-2e" transform="translate(147.412109 0)"/>
       <use xlink:href="#DejaVuSans-38" transform="translate(179.199219 0)"/>
      </g>
     </g>
    </g>
    <g id="xtick_3">
     <g id="line2d_5">
      <path d="M 204.103454 354.958125 
L 204.103454 22.318125 
" clip-path="url(#pa9c57d7916)" style="fill: none; stroke: #b0b0b0; stroke-width: 0.8; stroke-linecap: square"/>
     </g>
     <g id="line2d_6">
      <g>
       <use xlink:href="#m02bb3e7e87" x="204.103454" y="354.958125" style="stroke: #000000; stroke-width: 0.8"/>
      </g>
     </g>
     <g id="text_3">
      <!-- −0.6 -->
      <g transform="translate(191.962047 369.556562) scale(0.1 -0.1)">
       <defs>
        <path id="DejaVuSans-36" d="M 2113 2584 
Q 1688 2584 1439 2293 
Q 1191 2003 1191 1497 
Q 1191 994 1439 701 
Q 1688 409 2113 409 
Q 2538 409 2786 701 
Q 3034 994 3034 1497 
Q 3034 2003 2786 2293 
Q 2538 2584 2113 2584 
z
M 3366 4563 
L 3366 3988 
Q 3128 4100 2886 4159 
Q 2644 4219 2406 4219 
Q 1781 4219 1451 3797 
Q 1122 3375 1075 2522 
Q 1259 2794 1537 2939 
Q 1816 3084 2150 3084 
Q 2853 3084 3261 2657 
Q 3669 2231 3669 1497 
Q 3669 778 3244 343 
Q 2819 -91 2113 -91 
Q 1303 -91 875 529 
Q 447 1150 447 2328 
Q 447 3434 972 4092 
Q 1497 4750 2381 4750 
Q 2619 4750 2861 4703 
Q 3103 4656 3366 4563 
z
" transform="scale(0.015625)"/>
       </defs>
       <use xlink:href="#DejaVuSans-2212"/>
       <use xlink:href="#DejaVuSans-30" transform="translate(83.789062 0)"/>
       <use xlink:href="#DejaVuSans-2e" transform="translate(147.412109 0)"/>
       <use xlink:href="#DejaVuSans-36" transform="translate(179.199219 0)"/>
      </g>
     </g>
    </g>
    <g id="xtick_4">
     <g id="line2d_7">
      <path d="M 270.891975 354.958125 
L 270.891975 22.318125 
" clip-path="url(#pa9c57d7916)" style="fill: none; stroke: #b0b0b0; stroke-width: 0.8; stroke-linecap: square"/>
     </g>
     <g id="line2d_8">
      <g>
       <use xlink:href="#m02bb3e7e87" x="270.891975" y="354.958125" style="stroke: #000000; stroke-width: 0.8"/>
      </g>
     </g>
     <g id="text_4">
      <!-- −0.4 -->
      <g transform="translate(258.750568 369.556562) scale(0.1 -0.1)">
       <defs>
        <path id="DejaVuSans-34" d="M 2419 4116 
L 825 1625 
L 2419 1625 
L 2419 4116 
z
M 2253 4666 
L 3047 4666 
L 3047 1625 
L 3713 1625 
L 3713 1100 
L 3047 1100 
L 3047 0 
L 2419 0 
L 2419 1100 
L 313 1100 
L 313 1709 
L 2253 4666 
z
" transform="scale(0.015625)"/>
       </defs>
       <use xlink:href="#DejaVuSans-2212"/>
       <use xlink:href="#DejaVuSans-30" transform="translate(83.789062 0)"/>
       <use xlink:href="#DejaVuSans-2e" transform="translate(147.412109 0)"/>
       <use xlink:href="#DejaVuSans-34" transform="translate(179.199219 0)"/>
      </g>
     </g>
    </g>
    <g id="xtick_5">
     <g id="line2d_9">
      <path d="M 337.680495 354.958125 
L 337.680495 22.318125 
" clip-path="url(#pa9c57d7916)" style="fill: none; stroke: #b0b0b0; stroke-width: 0.8; stroke-linecap: square"/>
     </g>
     <g id="line2d_10">
      <g>
       <use xlink:href="#m02bb3e7e87" x="337.680495" y="354.958125" style="stroke: #000000; stroke-width: 0.8"/>
      </g>
     </g>
     <g id="text_5">
      <!-- −0.2 -->
      <g transform="translate(325.539089 369.556562) scale(0.1 -0.1)">
       <defs>
        <path id="DejaVuSans-32" d="M 1228 531 
L 3431 531 
L 3431 0 
L 469 0 
L 469 531 
Q 828 903 1448 1529 
Q 2069 2156 2228 2338 
Q 2531 2678 2651 2914 
Q 2772 3150 2772 3378 
Q 2772 3750 2511 3984 
Q 2250 4219 1831 4219 
Q 1534 4219 1204 4116 
Q 875 4013 500 3803 
L 500 4441 
Q 881 4594 1212 4672 
Q 1544 4750 1819 4750 
Q 2544 4750 2975 4387 
Q 3406 4025 3406 3419 
Q 3406 3131 3298 2873 
Q 3191 2616 2906 2266 
Q 2828 2175 2409 1742 
Q 1991 1309 1228 531 
z
" transform="scale(0.015625)"/>
       </defs>
       <use xlink:href="#DejaVuSans-2212"/>
       <use xlink:href="#DejaVuSans-30" transform="translate(83.789062 0)"/>
       <use xlink:href="#DejaVuSans-2e" transform="translate(147.412109 0)"/>
       <use xlink:href="#DejaVuSans-32" transform="translate(179.199219 0)"/>
      </g>
     </g>
    </g>
    <g id="xtick_6">
     <g id="line2d_11">
      <path d="M 404.469016 354.958125 
L 404.469016 22.318125 
" clip-path="url(#pa9c57d7916)" style="fill: none; stroke: #b0b0b0; stroke-width: 0.8; stroke-linecap: square"/>
     </g>
     <g id="line2d_12">
      <g>
       <use xlink:href="#m02bb3e7e87" x="404.469016" y="354.958125" style="stroke: #000000; stroke-width: 0.8"/>
      </g>
     </g>
     <g id="text_6">
      <!-- 0.0 -->
      <g transform="translate(396.517454 369.556562) scale(0.1 -0.1)">
       <use xlink:href="#DejaVuSans-30"/>
       <use xlink:href="#DejaVuSans-2e" transform="translate(63.623047 0)"/>
       <use xlink:href="#DejaVuSans-30" transform="translate(95.410156 0)"/>
      </g>
     </g>
    </g>
    <g id="xtick_7">
     <g id="line2d_13">
      <path d="M 471.257537 354.958125 
L 471.257537 22.318125 
" clip-path="url(#pa9c57d7916)" style="fill: none; stroke: #b0b0b0; stroke-width: 0.8; stroke-linecap: square"/>
     </g>
     <g id="line2d_14">
      <g>
       <use xlink:href="#m02bb3e7e87" x="471.257537" y="354.958125" style="stroke: #000000; stroke-width: 0.8"/>
      </g>
     </g>
     <g id="text_7">
      <!-- 0.2 -->
      <g transform="translate(463.305974 369.556562) scale(0.1 -0.1)">
       <use xlink:href="#DejaVuSans-30"/>
       <use xlink:href="#DejaVuSans-2e" transform="translate(63.623047 0)"/>
       <use xlink:href="#DejaVuSans-32" transform="translate(95.410156 0)"/>
      </g>
     </g>
    </g>
    <g id="text_8">
     <!-- X (m) -->
     <g transform="translate(261.575 383.234687) scale(0.1 -0.1)">
      <defs>
       <path id="DejaVuSans-58" d="M 403 4666 
L 1081 4666 
L 2241 2931 
L 3406 4666 
L 4084 4666 
L 2584 2425 
L 4184 0 
L 3506 0 
L 2194 1984 
L 872 0 
L 191 0 
L 1856 2491 
L 403 4666 
z
" transform="scale(0.015625)"/>
       <path id="DejaVuSans-20" transform="scale(0.015625)"/>
       <path id="DejaVuSans-28" d="M 1984 4856 
Q 1566 4138 1362 3434 
Q 1159 2731 1159 2009 
Q 1159 1288 1364 580 
Q 1569 -128 1984 -844 
L 1484 -844 
Q 1016 -109 783 600 
Q 550 1309 550 2009 
Q 550 2706 781 3412 
Q 1013 4119 1484 4856 
L 1984 4856 
z
" transform="scale(0.015625)"/>
       <path id="DejaVuSans-6d" d="M 3328 2828 
Q 3544 3216 3844 3400 
Q 4144 3584 4550 3584 
Q 5097 3584 5394 3201 
Q 5691 2819 5691 2113 
L 5691 0 
L 5113 0 
L 5113 2094 
Q 5113 2597 4934 2840 
Q 4756 3084 4391 3084 
Q 3944 3084 3684 2787 
Q 3425 2491 3425 1978 
L 3425 0 
L 2847 0 
L 2847 2094 
Q 2847 2600 2669 2842 
Q 2491 3084 2119 3084 
Q 1678 3084 1418 2786 
Q 1159 2488 1159 1978 
L 1159 0 
L 581 0 
L 581 3500 
L 1159 3500 
L 1159 2956 
Q 1356 3278 1631 3431 
Q 1906 3584 2284 3584 
Q 2666 3584 2933 3390 
Q 3200 3197 3328 2828 
z
" transform="scale(0.015625)"/>
       <path id="DejaVuSans-29" d="M 513 4856 
L 1013 4856 
Q 1481 4119 1714 3412 
Q 1947 2706 1947 2009 
Q 1947 1309 1714 600 
Q 1481 -109 1013 -844 
L 513 -844 
Q 928 -128 1133 580 
Q 1338 1288 1338 2009 
Q 1338 2731 1133 3434 
Q 928 4138 513 4856 
z
" transform="scale(0.015625)"/>
      </defs>
      <use xlink:href="#DejaVuSans-58"/>
      <use xlink:href="#DejaVuSans-20" transform="translate(68.505859 0)"/>
      <use xlink:href="#DejaVuSans-28" transform="translate(100.292969 0)"/>
      <use xlink:href="#DejaVuSans-6d" transform="translate(139.306641 0)"/>
      <use xlink:href="#DejaVuSans-29" transform="translate(236.71875 0)"/>
     </g>
    </g>
   </g>
   <g id="matplotlib.axis_2">
    <g id="ytick_1">
     <g id="line2d_15">
      <path d="M 52.160938 328.840642 
L 498.560937 328.840642 
" clip-path="url(#pa9c57d7916)" style="fill: none; stroke: #b0b0b0; stroke-width: 0.8; stroke-linecap: square"/>
     </g>
     <g id="line2d_16">
      <defs>
       <path id="me42ba425cc" d="M 0 0 
L -3.5 0 
" style="stroke: #000000; stroke-width: 0.8"/>
      </defs>
      <g>
       <use xlink:href="#me42ba425cc" x="52.160938" y="328.840642" style="stroke: #000000; stroke-width: 0.8"/>
      </g>
     </g>
     <g id="text_9">
      <!-- −1.0 -->
      <g transform="translate(20.878125 332.639861) scale(0.1 -0.1)">
       <use xlink:href="#DejaVuSans-2212"/>
       <use xlink:href="#DejaVuSans-31" transform="translate(83.789062 0)"/>
       <use xlink:href="#DejaVuSans-2e" transform="translate(147.412109 0)"/>
       <use xlink:href="#DejaVuSans-30" transform="translate(179.199219 0)"/>
      </g>
     </g>
    </g>
    <g id="ytick_2">
     <g id="line2d_17">
      <path d="M 52.160938 270.560382 
L 498.560937 270.560382 
" clip-path="url(#pa9c57d7916)" style="fill: none; stroke: #b0b0b0; stroke-width: 0.8; stroke-linecap: square"/>
     </g>
     <g id="line2d_18">
      <g>
       <use xlink:href="#me42ba425cc" x="52.160938" y="270.560382" style="stroke: #000000; stroke-width: 0.8"/>
      </g>
     </g>
     <g id="text_10">
      <!-- −0.8 -->
      <g transform="translate(20.878125 274.359601) scale(0.1 -0.1)">
       <use xlink:href="#DejaVuSans-2212"/>
       <use xlink:href="#DejaVuSans-30" transform="translate(83.789062 0)"/>
       <use xlink:href="#DejaVuSans-2e" transform="translate(147.412109 0)"/>
       <use xlink:href="#DejaVuSans-38" transform="translate(179.199219 0)"/>
      </g>
     </g>
    </g>
    <g id="ytick_3">
     <g id="line2d_19">
      <path d="M 52.160938 212.280122 
L 498.560937 212.280122 
" clip-path="url(#pa9c57d7916)" style="fill: none; stroke: #b0b0b0; stroke-width: 0.8; stroke-linecap: square"/>
     </g>
     <g id="line2d_20">
      <g>
       <use xlink:href="#me42ba425cc" x="52.160938" y="212.280122" style="stroke: #000000; stroke-width: 0.8"/>
      </g>
     </g>
     <g id="text_11">
      <!-- −0.6 -->
      <g transform="translate(20.878125 216.07934) scale(0.1 -0.1)">
       <use xlink:href="#DejaVuSans-2212"/>
       <use xlink:href="#DejaVuSans-30" transform="translate(83.789062 0)"/>
       <use xlink:href="#DejaVuSans-2e" transform="translate(147.412109 0)"/>
       <use xlink:href="#DejaVuSans-36" transform="translate(179.199219 0)"/>
      </g>
     </g>
    </g>
    <g id="ytick_4">
     <g id="line2d_21">
      <path d="M 52.160938 153.999861 
L 498.560937 153.999861 
" clip-path="url(#pa9c57d7916)" style="fill: none; stroke: #b0b0b0; stroke-width: 0.8; stroke-linecap: square"/>
     </g>
     <g id="line2d_22">
      <g>
       <use xlink:href="#me42ba425cc" x="52.160938" y="153.999861" style="stroke: #000000; stroke-width: 0.8"/>
      </g>
     </g>
     <g id="text_12">
      <!-- −0.4 -->
      <g transform="translate(20.878125 157.79908) scale(0.1 -0.1)">
       <use xlink:href="#DejaVuSans-2212"/>
       <use xlink:href="#DejaVuSans-30" transform="translate(83.789062 0)"/>
       <use xlink:href="#DejaVuSans-2e" transform="translate(147.412109 0)"/>
       <use xlink:href="#DejaVuSans-34" transform="translate(179.199219 0)"/>
      </g>
     </g>
    </g>
    <g id="ytick_5">
     <g id="line2d_23">
      <path d="M 52.160938 95.719601 
L 498.560937 95.719601 
" clip-path="url(#pa9c57d7916)" style="fill: none; stroke: #b0b0b0; stroke-width: 0.8; stroke-linecap: square"/>
     </g>
     <g id="line2d_24">
      <g>
       <use xlink:href="#me42ba425cc" x="52.160938" y="95.719601" style="stroke: #000000; stroke-width: 0.8"/>
      </g>
     </g>
     <g id="text_13">
      <!-- −0.2 -->
      <g transform="translate(20.878125 99.51882) scale(0.1 -0.1)">
       <use xlink:href="#DejaVuSans-2212"/>
       <use xlink:href="#DejaVuSans-30" transform="translate(83.789062 0)"/>
       <use xlink:href="#DejaVuSans-2e" transform="translate(147.412109 0)"/>
       <use xlink:href="#DejaVuSans-32" transform="translate(179.199219 0)"/>
      </g>
     </g>
    </g>
    <g id="ytick_6">
     <g id="line2d_25">
      <path d="M 52.160938 37.439341 
L 498.560937 37.439341 
" clip-path="url(#pa9c57d7916)" style="fill: none; stroke: #b0b0b0; stroke-width: 0.8; stroke-linecap: square"/>
     </g>
     <g id="line2d_26">
      <g>
       <use xlink:href="#me42ba425cc" x="52.160938" y="37.439341" style="stroke: #000000; stroke-width: 0.8"/>
      </g>
     </g>
     <g id="text_14">
      <!-- 0.0 -->
      <g transform="translate(29.257812 41.23856) scale(0.1 -0.1)">
       <use xlink:href="#DejaVuSans-30"/>
       <use xlink:href="#DejaVuSans-2e" transform="translate(63.623047 0)"/>
       <use xlink:href="#DejaVuSans-30" transform="translate(95.410156 0)"/>
      </g>
     </g>
    </g>
    <g id="text_15">
     <!-- Y (m) -->
     <g transform="translate(14.798438 202.052969) rotate(-90) scale(0.1 -0.1)">
      <defs>
       <path id="DejaVuSans-59" d="M -13 4666 
L 666 4666 
L 1959 2747 
L 3244 4666 
L 3922 4666 
L 2272 2222 
L 2272 0 
L 1638 0 
L 1638 2222 
L -13 4666 
z
" transform="scale(0.015625)"/>
      </defs>
      <use xlink:href="#DejaVuSans-59"/>
      <use xlink:href="#DejaVuSans-20" transform="translate(61.083984 0)"/>
      <use xlink:href="#DejaVuSans-28" transform="translate(92.871094 0)"/>
      <use xlink:href="#DejaVuSans-6d" transform="translate(131.884766 0)"/>
      <use xlink:href="#DejaVuSans-29" transform="translate(229.296875 0)"/>
     </g>
    </g>
   </g>
   <g id="line2d_27">
    <path d="M 404.469002 37.439327 
L 404.469002 37.439327 
L 404.469002 37.439327 
L 404.467807 37.438125 
L 405.154778 37.454843 
L 405.727728 37.523687 
L 407.545683 37.617822 
L 409.538027 37.753401 
L 411.868194 38.044364 
L 414.593761 38.565923 
L 417.761979 39.288812 
L 420.755269 40.023835 
L 426.132674 41.78087 
L 433.711844 45.098543 
L 441.771129 49.716229 
L 448.43061 55.204884 
L 455.696365 62.444312 
L 461.072325 69.12131 
L 466.099463 76.944178 
L 470.045367 85.085259 
L 473.079225 92.915854 
L 475.466396 101.376187 
L 477.251543 111.118969 
L 478.081732 119.670654 
L 478.270028 129.585535 
L 477.769594 137.838493 
L 476.549332 146.659969 
L 474.681754 155.16884 
L 472.324461 163.031259 
L 469.160461 171.287969 
L 464.805544 180.59632 
L 460.497119 188.247551 
L 455.850078 195.275743 
L 450.589913 202.53581 
L 444.04706 210.575287 
L 437.907871 217.432952 
L 430.671158 224.844006 
L 424.520352 230.79802 
L 417.424574 237.092377 
L 410.273244 243.125246 
L 403.313755 248.658847 
L 394.881374 255.022819 
L 387.0145 260.417138 
L 379.104531 265.566053 
L 369.881546 271.215192 
L 363.139018 275.085966 
L 353.612076 280.150538 
L 345.01409 284.394535 
L 336.890334 288.218778 
L 328.018681 292.055405 
L 317.739603 296.277448 
L 308.611406 299.824102 
L 300.078523 302.907268 
L 289.552291 306.583719 
L 280.061263 309.66362 
L 270.764514 312.571898 
L 260.209669 315.707657 
L 251.303029 318.208131 
L 241.66833 320.700495 
L 232.132985 323.057138 
L 223.025508 325.120213 
L 213.352325 327.16993 
L 202.130728 329.414857 
L 192.373826 331.154245 
L 181.372193 332.998264 
L 172.151997 334.290264 
L 162.121089 335.540337 
L 152.303319 336.679561 
L 143.0544 337.660103 
L 132.332745 338.506558 
L 123.395989 339.122528 
L 115.785094 339.484599 
L 107.870635 339.749787 
L 101.897604 339.838125 
L 96.115099 339.792549 
L 91.10698 339.646755 
L 86.134868 339.381845 
L 82.925979 339.147851 
L 79.060778 338.783835 
L 76.232503 338.160188 
L 74.202819 337.687268 
L 73.416529 336.765983 
L 72.82282 335.63997 
L 72.451847 334.857055 
" clip-path="url(#pa9c57d7916)" style="fill: none; stroke: #008000; stroke-width: 1.5; stroke-linecap: square"/>
    <defs>
     <path id="mde25ab8a6f" d="M 0 -1 
L -1 1 
L 1 1 
z
" style="stroke: #008000; stroke-linejoin: miter"/>
    </defs>
    <g clip-path="url(#pa9c57d7916)">
     <use xlink:href="#mde25ab8a6f" x="404.469002" y="37.439327" style="fill: #008000; stroke: #008000; stroke-linejoin: miter"/>
     <use xlink:href="#mde25ab8a6f" x="404.469002" y="37.439327" style="fill: #008000; stroke: #008000; stroke-linejoin: miter"/>
     <use xlink:href="#mde25ab8a6f" x="404.469002" y="37.439327" style="fill: #008000; stroke: #008000; stroke-linejoin: miter"/>
     <use xlink:href="#mde25ab8a6f" x="404.467807" y="37.438125" style="fill: #008000; stroke: #008000; stroke-linejoin: miter"/>
     <use xlink:href="#mde25ab8a6f" x="405.154778" y="37.454843" style="fill: #008000; stroke: #008000; stroke-linejoin: miter"/>
     <use xlink:href="#mde25ab8a6f" x="405.727728" y="37.523687" style="fill: #008000; stroke: #008000; stroke-linejoin: miter"/>
     <use xlink:href="#mde25ab8a6f" x="407.545683" y="37.617822" style="fill: #008000; stroke: #008000; stroke-linejoin: miter"/>
     <use xlink:href="#mde25ab8a6f" x="409.538027" y="37.753401" style="fill: #008000; stroke: #008000; stroke-linejoin: miter"/>
     <use xlink:href="#mde25ab8a6f" x="411.868194" y="38.044364" style="fill: #008000; stroke: #008000; stroke-linejoin: miter"/>
     <use xlink:href="#mde25ab8a6f" x="414.593761" y="38.565923" style="fill: #008000; stroke: #008000; stroke-linejoin: miter"/>
     <use xlink:href="#mde25ab8a6f" x="417.761979" y="39.288812" style="fill: #008000; stroke: #008000; stroke-linejoin: miter"/>
     <use xlink:href="#mde25ab8a6f" x="420.755269" y="40.023835" style="fill: #008000; stroke: #008000; stroke-linejoin: miter"/>
     <use xlink:href="#mde25ab8a6f" x="426.132674" y="41.78087" style="fill: #008000; stroke: #008000; stroke-linejoin: miter"/>
     <use xlink:href="#mde25ab8a6f" x="433.711844" y="45.098543" style="fill: #008000; stroke: #008000; stroke-linejoin: miter"/>
     <use xlink:href="#mde25ab8a6f" x="441.771129" y="49.716229" style="fill: #008000; stroke: #008000; stroke-linejoin: miter"/>
     <use xlink:href="#mde25ab8a6f" x="448.43061" y="55.204884" style="fill: #008000; stroke: #008000; stroke-linejoin: miter"/>
     <use xlink:href="#mde25ab8a6f" x="455.696365" y="62.444312" style="fill: #008000; stroke: #008000; stroke-linejoin: miter"/>
     <use xlink:href="#mde25ab8a6f" x="461.072325" y="69.12131" style="fill: #008000; stroke: #008000; stroke-linejoin: miter"/>
     <use xlink:href="#mde25ab8a6f" x="466.099463" y="76.944178" style="fill: #008000; stroke: #008000; stroke-linejoin: miter"/>
     <use xlink:href="#mde25ab8a6f" x="470.045367" y="85.085259" style="fill: #008000; stroke: #008000; stroke-linejoin: miter"/>
     <use xlink:href="#mde25ab8a6f" x="473.079225" y="92.915854" style="fill: #008000; stroke: #008000; stroke-linejoin: miter"/>
     <use xlink:href="#mde25ab8a6f" x="475.466396" y="101.376187" style="fill: #008000; stroke: #008000; stroke-linejoin: miter"/>
     <use xlink:href="#mde25ab8a6f" x="477.251543" y="111.118969" style="fill: #008000; stroke: #008000; stroke-linejoin: miter"/>
     <use xlink:href="#mde25ab8a6f" x="478.081732" y="119.670654" style="fill: #008000; stroke: #008000; stroke-linejoin: miter"/>
     <use xlink:href="#mde25ab8a6f" x="478.270028" y="129.585535" style="fill: #008000; stroke: #008000; stroke-linejoin: miter"/>
     <use xlink:href="#mde25ab8a6f" x="477.769594" y="137.838493" style="fill: #008000; stroke: #008000; stroke-linejoin: miter"/>
     <use xlink:href="#mde25ab8a6f" x="476.549332" y="146.659969" style="fill: #008000; stroke: #008000; stroke-linejoin: miter"/>
     <use xlink:href="#mde25ab8a6f" x="474.681754" y="155.16884" style="fill: #008000; stroke: #008000; stroke-linejoin: miter"/>
     <use xlink:href="#mde25ab8a6f" x="472.324461" y="163.031259" style="fill: #008000; stroke: #008000; stroke-linejoin: miter"/>
     <use xlink:href="#mde25ab8a6f" x="469.160461" y="171.287969" style="fill: #008000; stroke: #008000; stroke-linejoin: miter"/>
     <use xlink:href="#mde25ab8a6f" x="464.805544" y="180.59632" style="fill: #008000; stroke: #008000; stroke-linejoin: miter"/>
     <use xlink:href="#mde25ab8a6f" x="460.497119" y="188.247551" style="fill: #008000; stroke: #008000; stroke-linejoin: miter"/>
     <use xlink:href="#mde25ab8a6f" x="455.850078" y="195.275743" style="fill: #008000; stroke: #008000; stroke-linejoin: miter"/>
     <use xlink:href="#mde25ab8a6f" x="450.589913" y="202.53581" style="fill: #008000; stroke: #008000; stroke-linejoin: miter"/>
     <use xlink:href="#mde25ab8a6f" x="444.04706" y="210.575287" style="fill: #008000; stroke: #008000; stroke-linejoin: miter"/>
     <use xlink:href="#mde25ab8a6f" x="437.907871" y="217.432952" style="fill: #008000; stroke: #008000; stroke-linejoin: miter"/>
     <use xlink:href="#mde25ab8a6f" x="430.671158" y="224.844006" style="fill: #008000; stroke: #008000; stroke-linejoin: miter"/>
     <use xlink:href="#mde25ab8a6f" x="424.520352" y="230.79802" style="fill: #008000; stroke: #008000; stroke-linejoin: miter"/>
     <use xlink:href="#mde25ab8a6f" x="417.424574" y="237.092377" style="fill: #008000; stroke: #008000; stroke-linejoin: miter"/>
     <use xlink:href="#mde25ab8a6f" x="410.273244" y="243.125246" style="fill: #008000; stroke: #008000; stroke-linejoin: miter"/>
     <use xlink:href="#mde25ab8a6f" x="403.313755" y="248.658847" style="fill: #008000; stroke: #008000; stroke-linejoin: miter"/>
     <use xlink:href="#mde25ab8a6f" x="394.881374" y="255.022819" style="fill: #008000; stroke: #008000; stroke-linejoin: miter"/>
     <use xlink:href="#mde25ab8a6f" x="387.0145" y="260.417138" style="fill: #008000; stroke: #008000; stroke-linejoin: miter"/>
     <use xlink:href="#mde25ab8a6f" x="379.104531" y="265.566053" style="fill: #008000; stroke: #008000; stroke-linejoin: miter"/>
     <use xlink:href="#mde25ab8a6f" x="369.881546" y="271.215192" style="fill: #008000; stroke: #008000; stroke-linejoin: miter"/>
     <use xlink:href="#mde25ab8a6f" x="363.139018" y="275.085966" style="fill: #008000; stroke: #008000; stroke-linejoin: miter"/>
     <use xlink:href="#mde25ab8a6f" x="353.612076" y="280.150538" style="fill: #008000; stroke: #008000; stroke-linejoin: miter"/>
     <use xlink:href="#mde25ab8a6f" x="345.01409" y="284.394535" style="fill: #008000; stroke: #008000; stroke-linejoin: miter"/>
     <use xlink:href="#mde25ab8a6f" x="336.890334" y="288.218778" style="fill: #008000; stroke: #008000; stroke-linejoin: miter"/>
     <use xlink:href="#mde25ab8a6f" x="328.018681" y="292.055405" style="fill: #008000; stroke: #008000; stroke-linejoin: miter"/>
     <use xlink:href="#mde25ab8a6f" x="317.739603" y="296.277448" style="fill: #008000; stroke: #008000; stroke-linejoin: miter"/>
     <use xlink:href="#mde25ab8a6f" x="308.611406" y="299.824102" style="fill: #008000; stroke: #008000; stroke-linejoin: miter"/>
     <use xlink:href="#mde25ab8a6f" x="300.078523" y="302.907268" style="fill: #008000; stroke: #008000; stroke-linejoin: miter"/>
     <use xlink:href="#mde25ab8a6f" x="289.552291" y="306.583719" style="fill: #008000; stroke: #008000; stroke-linejoin: miter"/>
     <use xlink:href="#mde25ab8a6f" x="280.061263" y="309.66362" style="fill: #008000; stroke: #008000; stroke-linejoin: miter"/>
     <use xlink:href="#mde25ab8a6f" x="270.764514" y="312.571898" style="fill: #008000; stroke: #008000; stroke-linejoin: miter"/>
     <use xlink:href="#mde25ab8a6f" x="260.209669" y="315.707657" style="fill: #008000; stroke: #008000; stroke-linejoin: miter"/>
     <use xlink:href="#mde25ab8a6f" x="251.303029" y="318.208131" style="fill: #008000; stroke: #008000; stroke-linejoin: miter"/>
     <use xlink:href="#mde25ab8a6f" x="241.66833" y="320.700495" style="fill: #008000; stroke: #008000; stroke-linejoin: miter"/>
     <use xlink:href="#mde25ab8a6f" x="232.132985" y="323.057138" style="fill: #008000; stroke: #008000; stroke-linejoin: miter"/>
     <use xlink:href="#mde25ab8a6f" x="223.025508" y="325.120213" style="fill: #008000; stroke: #008000; stroke-linejoin: miter"/>
     <use xlink:href="#mde25ab8a6f" x="213.352325" y="327.16993" style="fill: #008000; stroke: #008000; stroke-linejoin: miter"/>
     <use xlink:href="#mde25ab8a6f" x="202.130728" y="329.414857" style="fill: #008000; stroke: #008000; stroke-linejoin: miter"/>
     <use xlink:href="#mde25ab8a6f" x="192.373826" y="331.154245" style="fill: #008000; stroke: #008000; stroke-linejoin: miter"/>
     <use xlink:href="#mde25ab8a6f" x="181.372193" y="332.998264" style="fill: #008000; stroke: #008000; stroke-linejoin: miter"/>
     <use xlink:href="#mde25ab8a6f" x="172.151997" y="334.290264" style="fill: #008000; stroke: #008000; stroke-linejoin: miter"/>
     <use xlink:href="#mde25ab8a6f" x="162.121089" y="335.540337" style="fill: #008000; stroke: #008000; stroke-linejoin: miter"/>
     <use xlink:href="#mde25ab8a6f" x="152.303319" y="336.679561" style="fill: #008000; stroke: #008000; stroke-linejoin: miter"/>
     <use xlink:href="#mde25ab8a6f" x="143.0544" y="337.660103" style="fill: #008000; stroke: #008000; stroke-linejoin: miter"/>
     <use xlink:href="#mde25ab8a6f" x="132.332745" y="338.506558" style="fill: #008000; stroke: #008000; stroke-linejoin: miter"/>
     <use xlink:href="#mde25ab8a6f" x="123.395989" y="339.122528" style="fill: #008000; stroke: #008000; stroke-linejoin: miter"/>
     <use xlink:href="#mde25ab8a6f" x="115.785094" y="339.484599" style="fill: #008000; stroke: #008000; stroke-linejoin: miter"/>
     <use xlink:href="#mde25ab8a6f" x="107.870635" y="339.749787" style="fill: #008000; stroke: #008000; stroke-linejoin: miter"/>
     <use xlink:href="#mde25ab8a6f" x="101.897604" y="339.838125" style="fill: #008000; stroke: #008000; stroke-linejoin: miter"/>
     <use xlink:href="#mde25ab8a6f" x="96.115099" y="339.792549" style="fill: #008000; stroke: #008000; stroke-linejoin: miter"/>
     <use xlink:href="#mde25ab8a6f" x="91.10698" y="339.646755" style="fill: #008000; stroke: #008000; stroke-linejoin: miter"/>
     <use xlink:href="#mde25ab8a6f" x="86.134868" y="339.381845" style="fill: #008000; stroke: #008000; stroke-linejoin: miter"/>
     <use xlink:href="#mde25ab8a6f" x="82.925979" y="339.147851" style="fill: #008000; stroke: #008000; stroke-linejoin: miter"/>
     <use xlink:href="#mde25ab8a6f" x="79.060778" y="338.783835" style="fill: #008000; stroke: #008000; stroke-linejoin: miter"/>
     <use xlink:href="#mde25ab8a6f" x="76.232503" y="338.160188" style="fill: #008000; stroke: #008000; stroke-linejoin: miter"/>
     <use xlink:href="#mde25ab8a6f" x="74.202819" y="337.687268" style="fill: #008000; stroke: #008000; stroke-linejoin: miter"/>
     <use xlink:href="#mde25ab8a6f" x="73.416529" y="336.765983" style="fill: #008000; stroke: #008000; stroke-linejoin: miter"/>
     <use xlink:href="#mde25ab8a6f" x="72.82282" y="335.63997" style="fill: #008000; stroke: #008000; stroke-linejoin: miter"/>
     <use xlink:href="#mde25ab8a6f" x="72.451847" y="334.857055" style="fill: #008000; stroke: #008000; stroke-linejoin: miter"/>
    </g>
   </g>
   <g id="patch_3">
    <path d="M 52.160938 354.958125 
L 52.160938 22.318125 
" style="fill: none; stroke: #000000; stroke-width: 0.8; stroke-linejoin: miter; stroke-linecap: square"/>
   </g>
   <g id="patch_4">
    <path d="M 498.560937 354.958125 
L 498.560937 22.318125 
" style="fill: none; stroke: #000000; stroke-width: 0.8; stroke-linejoin: miter; stroke-linecap: square"/>
   </g>
   <g id="patch_5">
    <path d="M 52.160937 354.958125 
L 498.560937 354.958125 
" style="fill: none; stroke: #000000; stroke-width: 0.8; stroke-linejoin: miter; stroke-linecap: square"/>
   </g>
   <g id="patch_6">
    <path d="M 52.160937 22.318125 
L 498.560937 22.318125 
" style="fill: none; stroke: #000000; stroke-width: 0.8; stroke-linejoin: miter; stroke-linecap: square"/>
   </g>
   <g id="text_16">
    <!-- Trajectory X vs Y (State Space) -->
    <g transform="translate(182.902812 16.318125) scale(0.12 -0.12)">
     <defs>
      <path id="DejaVuSans-54" d="M -19 4666 
L 3928 4666 
L 3928 4134 
L 2272 4134 
L 2272 0 
L 1638 0 
L 1638 4134 
L -19 4134 
L -19 4666 
z
" transform="scale(0.015625)"/>
      <path id="DejaVuSans-72" d="M 2631 2963 
Q 2534 3019 2420 3045 
Q 2306 3072 2169 3072 
Q 1681 3072 1420 2755 
Q 1159 2438 1159 1844 
L 1159 0 
L 581 0 
L 581 3500 
L 1159 3500 
L 1159 2956 
Q 1341 3275 1631 3429 
Q 1922 3584 2338 3584 
Q 2397 3584 2469 3576 
Q 2541 3569 2628 3553 
L 2631 2963 
z
" transform="scale(0.015625)"/>
      <path id="DejaVuSans-61" d="M 2194 1759 
Q 1497 1759 1228 1600 
Q 959 1441 959 1056 
Q 959 750 1161 570 
Q 1363 391 1709 391 
Q 2188 391 2477 730 
Q 2766 1069 2766 1631 
L 2766 1759 
L 2194 1759 
z
M 3341 1997 
L 3341 0 
L 2766 0 
L 2766 531 
Q 2569 213 2275 61 
Q 1981 -91 1556 -91 
Q 1019 -91 701 211 
Q 384 513 384 1019 
Q 384 1609 779 1909 
Q 1175 2209 1959 2209 
L 2766 2209 
L 2766 2266 
Q 2766 2663 2505 2880 
Q 2244 3097 1772 3097 
Q 1472 3097 1187 3025 
Q 903 2953 641 2809 
L 641 3341 
Q 956 3463 1253 3523 
Q 1550 3584 1831 3584 
Q 2591 3584 2966 3190 
Q 3341 2797 3341 1997 
z
" transform="scale(0.015625)"/>
      <path id="DejaVuSans-6a" d="M 603 3500 
L 1178 3500 
L 1178 -63 
Q 1178 -731 923 -1031 
Q 669 -1331 103 -1331 
L -116 -1331 
L -116 -844 
L 38 -844 
Q 366 -844 484 -692 
Q 603 -541 603 -63 
L 603 3500 
z
M 603 4863 
L 1178 4863 
L 1178 4134 
L 603 4134 
L 603 4863 
z
" transform="scale(0.015625)"/>
      <path id="DejaVuSans-65" d="M 3597 1894 
L 3597 1613 
L 953 1613 
Q 991 1019 1311 708 
Q 1631 397 2203 397 
Q 2534 397 2845 478 
Q 3156 559 3463 722 
L 3463 178 
Q 3153 47 2828 -22 
Q 2503 -91 2169 -91 
Q 1331 -91 842 396 
Q 353 884 353 1716 
Q 353 2575 817 3079 
Q 1281 3584 2069 3584 
Q 2775 3584 3186 3129 
Q 3597 2675 3597 1894 
z
M 3022 2063 
Q 3016 2534 2758 2815 
Q 2500 3097 2075 3097 
Q 1594 3097 1305 2825 
Q 1016 2553 972 2059 
L 3022 2063 
z
" transform="scale(0.015625)"/>
      <path id="DejaVuSans-63" d="M 3122 3366 
L 3122 2828 
Q 2878 2963 2633 3030 
Q 2388 3097 2138 3097 
Q 1578 3097 1268 2742 
Q 959 2388 959 1747 
Q 959 1106 1268 751 
Q 1578 397 2138 397 
Q 2388 397 2633 464 
Q 2878 531 3122 666 
L 3122 134 
Q 2881 22 2623 -34 
Q 2366 -91 2075 -91 
Q 1284 -91 818 406 
Q 353 903 353 1747 
Q 353 2603 823 3093 
Q 1294 3584 2113 3584 
Q 2378 3584 2631 3529 
Q 2884 3475 3122 3366 
z
" transform="scale(0.015625)"/>
      <path id="DejaVuSans-74" d="M 1172 4494 
L 1172 3500 
L 2356 3500 
L 2356 3053 
L 1172 3053 
L 1172 1153 
Q 1172 725 1289 603 
Q 1406 481 1766 481 
L 2356 481 
L 2356 0 
L 1766 0 
Q 1100 0 847 248 
Q 594 497 594 1153 
L 594 3053 
L 172 3053 
L 172 3500 
L 594 3500 
L 594 4494 
L 1172 4494 
z
" transform="scale(0.015625)"/>
      <path id="DejaVuSans-6f" d="M 1959 3097 
Q 1497 3097 1228 2736 
Q 959 2375 959 1747 
Q 959 1119 1226 758 
Q 1494 397 1959 397 
Q 2419 397 2687 759 
Q 2956 1122 2956 1747 
Q 2956 2369 2687 2733 
Q 2419 3097 1959 3097 
z
M 1959 3584 
Q 2709 3584 3137 3096 
Q 3566 2609 3566 1747 
Q 3566 888 3137 398 
Q 2709 -91 1959 -91 
Q 1206 -91 779 398 
Q 353 888 353 1747 
Q 353 2609 779 3096 
Q 1206 3584 1959 3584 
z
" transform="scale(0.015625)"/>
      <path id="DejaVuSans-79" d="M 2059 -325 
Q 1816 -950 1584 -1140 
Q 1353 -1331 966 -1331 
L 506 -1331 
L 506 -850 
L 844 -850 
Q 1081 -850 1212 -737 
Q 1344 -625 1503 -206 
L 1606 56 
L 191 3500 
L 800 3500 
L 1894 763 
L 2988 3500 
L 3597 3500 
L 2059 -325 
z
" transform="scale(0.015625)"/>
      <path id="DejaVuSans-76" d="M 191 3500 
L 800 3500 
L 1894 563 
L 2988 3500 
L 3597 3500 
L 2284 0 
L 1503 0 
L 191 3500 
z
" transform="scale(0.015625)"/>
      <path id="DejaVuSans-73" d="M 2834 3397 
L 2834 2853 
Q 2591 2978 2328 3040 
Q 2066 3103 1784 3103 
Q 1356 3103 1142 2972 
Q 928 2841 928 2578 
Q 928 2378 1081 2264 
Q 1234 2150 1697 2047 
L 1894 2003 
Q 2506 1872 2764 1633 
Q 3022 1394 3022 966 
Q 3022 478 2636 193 
Q 2250 -91 1575 -91 
Q 1294 -91 989 -36 
Q 684 19 347 128 
L 347 722 
Q 666 556 975 473 
Q 1284 391 1588 391 
Q 1994 391 2212 530 
Q 2431 669 2431 922 
Q 2431 1156 2273 1281 
Q 2116 1406 1581 1522 
L 1381 1569 
Q 847 1681 609 1914 
Q 372 2147 372 2553 
Q 372 3047 722 3315 
Q 1072 3584 1716 3584 
Q 2034 3584 2315 3537 
Q 2597 3491 2834 3397 
z
" transform="scale(0.015625)"/>
      <path id="DejaVuSans-53" d="M 3425 4513 
L 3425 3897 
Q 3066 4069 2747 4153 
Q 2428 4238 2131 4238 
Q 1616 4238 1336 4038 
Q 1056 3838 1056 3469 
Q 1056 3159 1242 3001 
Q 1428 2844 1947 2747 
L 2328 2669 
Q 3034 2534 3370 2195 
Q 3706 1856 3706 1288 
Q 3706 609 3251 259 
Q 2797 -91 1919 -91 
Q 1588 -91 1214 -16 
Q 841 59 441 206 
L 441 856 
Q 825 641 1194 531 
Q 1563 422 1919 422 
Q 2459 422 2753 634 
Q 3047 847 3047 1241 
Q 3047 1584 2836 1778 
Q 2625 1972 2144 2069 
L 1759 2144 
Q 1053 2284 737 2584 
Q 422 2884 422 3419 
Q 422 4038 858 4394 
Q 1294 4750 2059 4750 
Q 2388 4750 2728 4690 
Q 3069 4631 3425 4513 
z
" transform="scale(0.015625)"/>
      <path id="DejaVuSans-70" d="M 1159 525 
L 1159 -1331 
L 581 -1331 
L 581 3500 
L 1159 3500 
L 1159 2969 
Q 1341 3281 1617 3432 
Q 1894 3584 2278 3584 
Q 2916 3584 3314 3078 
Q 3713 2572 3713 1747 
Q 3713 922 3314 415 
Q 2916 -91 2278 -91 
Q 1894 -91 1617 61 
Q 1341 213 1159 525 
z
M 3116 1747 
Q 3116 2381 2855 2742 
Q 2594 3103 2138 3103 
Q 1681 3103 1420 2742 
Q 1159 2381 1159 1747 
Q 1159 1113 1420 752 
Q 1681 391 2138 391 
Q 2594 391 2855 752 
Q 3116 1113 3116 1747 
z
" transform="scale(0.015625)"/>
     </defs>
     <use xlink:href="#DejaVuSans-54"/>
     <use xlink:href="#DejaVuSans-72" transform="translate(46.333984 0)"/>
     <use xlink:href="#DejaVuSans-61" transform="translate(87.447266 0)"/>
     <use xlink:href="#DejaVuSans-6a" transform="translate(148.726562 0)"/>
     <use xlink:href="#DejaVuSans-65" transform="translate(176.509766 0)"/>
     <use xlink:href="#DejaVuSans-63" transform="translate(238.033203 0)"/>
     <use xlink:href="#DejaVuSans-74" transform="translate(293.013672 0)"/>
     <use xlink:href="#DejaVuSans-6f" transform="translate(332.222656 0)"/>
     <use xlink:href="#DejaVuSans-72" transform="translate(393.404297 0)"/>
     <use xlink:href="#DejaVuSans-79" transform="translate(434.517578 0)"/>
     <use xlink:href="#DejaVuSans-20" transform="translate(493.697266 0)"/>
     <use xlink:href="#DejaVuSans-58" transform="translate(525.484375 0)"/>
     <use xlink:href="#DejaVuSans-20" transform="translate(593.990234 0)"/>
     <use xlink:href="#DejaVuSans-76" transform="translate(625.777344 0)"/>
     <use xlink:href="#DejaVuSans-73" transform="translate(684.957031 0)"/>
     <use xlink:href="#DejaVuSans-20" transform="translate(737.056641 0)"/>
     <use xlink:href="#DejaVuSans-59" transform="translate(768.84375 0)"/>
     <use xlink:href="#DejaVuSans-20" transform="translate(829.927734 0)"/>
     <use xlink:href="#DejaVuSans-28" transform="translate(861.714844 0)"/>
     <use xlink:href="#DejaVuSans-53" transform="translate(900.728516 0)"/>
     <use xlink:href="#DejaVuSans-74" transform="translate(964.205078 0)"/>
     <use xlink:href="#DejaVuSans-61" transform="translate(1003.414062 0)"/>
     <use xlink:href="#DejaVuSans-74" transform="translate(1064.693359 0)"/>
     <use xlink:href="#DejaVuSans-65" transform="translate(1103.902344 0)"/>
     <use xlink:href="#DejaVuSans-20" transform="translate(1165.425781 0)"/>
     <use xlink:href="#DejaVuSans-53" transform="translate(1197.212891 0)"/>
     <use xlink:href="#DejaVuSans-70" transform="translate(1260.689453 0)"/>
     <use xlink:href="#DejaVuSans-61" transform="translate(1324.166016 0)"/>
     <use xlink:href="#DejaVuSans-63" transform="translate(1385.445312 0)"/>
     <use xlink:href="#DejaVuSans-65" transform="translate(1440.425781 0)"/>
     <use xlink:href="#DejaVuSans-29" transform="translate(1501.949219 0)"/>
    </g>
   </g>
  </g>
 </g>
 <defs>
  <clipPath id="pa9c57d7916">
   <rect x="52.160938" y="22.318125" width="446.4" height="332.64"/>
  </clipPath>
 </defs>
</svg>
