<?xml version="1.0" encoding="utf-8" standalone="no"?>
<!DOCTYPE svg PUBLIC "-//W3C//DTD SVG 1.1//EN"
  "http://www.w3.org/Graphics/SVG/1.1/DTD/svg11.dtd">
<svg xmlns:xlink="http://www.w3.org/1999/xlink" width="497.38125pt" height="392.514375pt" viewBox="0 0 497.38125 392.514375" xmlns="http://www.w3.org/2000/svg" version="1.1">
 <metadata>
  <rdf:RDF xmlns:dc="http://purl.org/dc/elements/1.1/" xmlns:cc="http://creativecommons.org/ns#" xmlns:rdf="http://www.w3.org/1999/02/22-rdf-syntax-ns#">
   <cc:Work>
    <dc:type rdf:resource="http://purl.org/dc/dcmitype/StillImage"/>
    <dc:date>2025-10-31T14:53:52.065321</dc:date>
    <dc:format>image/svg+xml</dc:format>
    <dc:creator>
     <cc:Agent>
      <dc:title>Matplotlib v3.10.6, https://matplotlib.org/</dc:title>
     </cc:Agent>
    </dc:creator>
   </cc:Work>
  </rdf:RDF>
 </metadata>
 <defs>
  <style type="text/css">*{stroke-linejoin: round; stroke-linecap: butt}</style>
 </defs>
 <g id="figure_1">
  <g id="patch_1">
   <path d="M 0 392.514375 
L 497.38125 392.514375 
L 497.38125 0 
L 0 0 
z
" style="fill: #ffffff"/>
  </g>
  <g id="axes_1">
   <g id="patch_2">
    <path d="M 43.78125 354.958125 
L 490.18125 354.958125 
L 490.18125 22.318125 
L 43.78125 22.318125 
z
" style="fill: #ffffff"/>
   </g>
   <g id="matplotlib.axis_1">
    <g id="xtick_1">
     <g id="line2d_1">
      <path d="M 64.072159 354.958125 
L 64.072159 22.318125 
" clip-path="url(#pb581e514de)" style="fill: none; stroke: #b0b0b0; stroke-width: 0.8; stroke-linecap: square"/>
     </g>
     <g id="line2d_2">
      <defs>
       <path id="me6fcf8f000" d="M 0 0 
L 0 3.5 
" style="stroke: #000000; stroke-width: 0.8"/>
      </defs>
      <g>
       <use xlink:href="#me6fcf8f000" x="64.072159" y="354.958125" style="stroke: #000000; stroke-width: 0.8"/>
      </g>
     </g>
     <g id="text_1">
      <!-- 0.0 -->
      <g transform="translate(56.120597 369.556562) scale(0.1 -0.1)">
       <defs>
        <path id="DejaVuSans-30" d="M 2034 4250 
Q 1547 4250 1301 3770 
Q 1056 3291 1056 2328 
Q 1056 1369 1301 889 
Q 1547 409 2034 409 
Q 2525 409 2770 889 
Q 3016 1369 3016 2328 
Q 3016 3291 2770 3770 
Q 2525 4250 2034 4250 
z
M 2034 4750 
Q 2819 4750 3233 4129 
Q 3647 3509 3647 2328 
Q 3647 1150 3233 529 
Q 2819 -91 2034 -91 
Q 1250 -91 836 529 
Q 422 1150 422 2328 
Q 422 3509 836 4129 
Q 1250 4750 2034 4750 
z
" transform="scale(0.015625)"/>
        <path id="DejaVuSans-2e" d="M 684 794 
L 1344 794 
L 1344 0 
L 684 0 
L 684 794 
z
" transform="scale(0.015625)"/>
       </defs>
       <use xlink:href="#DejaVuSans-30"/>
       <use xlink:href="#DejaVuSans-2e" transform="translate(63.623047 0)"/>
       <use xlink:href="#DejaVuSans-30" transform="translate(95.410156 0)"/>
      </g>
     </g>
    </g>
    <g id="xtick_2">
     <g id="line2d_3">
      <path d="M 118.363083 354.958125 
L 118.363083 22.318125 
" clip-path="url(#pb581e514de)" style="fill: none; stroke: #b0b0b0; stroke-width: 0.8; stroke-linecap: square"/>
     </g>
     <g id="line2d_4">
      <g>
       <use xlink:href="#me6fcf8f000" x="118.363083" y="354.958125" style="stroke: #000000; stroke-width: 0.8"/>
      </g>
     </g>
     <g id="text_2">
      <!-- 0.2 -->
      <g transform="translate(110.41152 369.556562) scale(0.1 -0.1)">
       <defs>
        <path id="DejaVuSans-32" d="M 1228 531 
L 3431 531 
L 3431 0 
L 469 0 
L 469 531 
Q 828 903 1448 1529 
Q 2069 2156 2228 2338 
Q 2531 2678 2651 2914 
Q 2772 3150 2772 3378 
Q 2772 3750 2511 3984 
Q 2250 4219 1831 4219 
Q 1534 4219 1204 4116 
Q 875 4013 500 3803 
L 500 4441 
Q 881 4594 1212 4672 
Q 1544 4750 1819 4750 
Q 2544 4750 2975 4387 
Q 3406 4025 3406 3419 
Q 3406 3131 3298 2873 
Q 3191 2616 2906 2266 
Q 2828 2175 2409 1742 
Q 1991 1309 1228 531 
z
" transform="scale(0.015625)"/>
       </defs>
       <use xlink:href="#DejaVuSans-30"/>
       <use xlink:href="#DejaVuSans-2e" transform="translate(63.623047 0)"/>
       <use xlink:href="#DejaVuSans-32" transform="translate(95.410156 0)"/>
      </g>
     </g>
    </g>
    <g id="xtick_3">
     <g id="line2d_5">
      <path d="M 172.654006 354.958125 
L 172.654006 22.318125 
" clip-path="url(#pb581e514de)" style="fill: none; stroke: #b0b0b0; stroke-width: 0.8; stroke-linecap: square"/>
     </g>
     <g id="line2d_6">
      <g>
       <use xlink:href="#me6fcf8f000" x="172.654006" y="354.958125" style="stroke: #000000; stroke-width: 0.8"/>
      </g>
     </g>
     <g id="text_3">
      <!-- 0.4 -->
      <g transform="translate(164.702443 369.556562) scale(0.1 -0.1)">
       <defs>
        <path id="DejaVuSans-34" d="M 2419 4116 
L 825 1625 
L 2419 1625 
L 2419 4116 
z
M 2253 4666 
L 3047 4666 
L 3047 1625 
L 3713 1625 
L 3713 1100 
L 3047 1100 
L 3047 0 
L 2419 0 
L 2419 1100 
L 313 1100 
L 313 1709 
L 2253 4666 
z
" transform="scale(0.015625)"/>
       </defs>
       <use xlink:href="#DejaVuSans-30"/>
       <use xlink:href="#DejaVuSans-2e" transform="translate(63.623047 0)"/>
       <use xlink:href="#DejaVuSans-34" transform="translate(95.410156 0)"/>
      </g>
     </g>
    </g>
    <g id="xtick_4">
     <g id="line2d_7">
      <path d="M 226.944929 354.958125 
L 226.944929 22.318125 
" clip-path="url(#pb581e514de)" style="fill: none; stroke: #b0b0b0; stroke-width: 0.8; stroke-linecap: square"/>
     </g>
     <g id="line2d_8">
      <g>
       <use xlink:href="#me6fcf8f000" x="226.944929" y="354.958125" style="stroke: #000000; stroke-width: 0.8"/>
      </g>
     </g>
     <g id="text_4">
      <!-- 0.6 -->
      <g transform="translate(218.993367 369.556562) scale(0.1 -0.1)">
       <defs>
        <path id="DejaVuSans-36" d="M 2113 2584 
Q 1688 2584 1439 2293 
Q 1191 2003 1191 1497 
Q 1191 994 1439 701 
Q 1688 409 2113 409 
Q 2538 409 2786 701 
Q 3034 994 3034 1497 
Q 3034 2003 2786 2293 
Q 2538 2584 2113 2584 
z
M 3366 4563 
L 3366 3988 
Q 3128 4100 2886 4159 
Q 2644 4219 2406 4219 
Q 1781 4219 1451 3797 
Q 1122 3375 1075 2522 
Q 1259 2794 1537 2939 
Q 1816 3084 2150 3084 
Q 2853 3084 3261 2657 
Q 3669 2231 3669 1497 
Q 3669 778 3244 343 
Q 2819 -91 2113 -91 
Q 1303 -91 875 529 
Q 447 1150 447 2328 
Q 447 3434 972 4092 
Q 1497 4750 2381 4750 
Q 2619 4750 2861 4703 
Q 3103 4656 3366 4563 
z
" transform="scale(0.015625)"/>
       </defs>
       <use xlink:href="#DejaVuSans-30"/>
       <use xlink:href="#DejaVuSans-2e" transform="translate(63.623047 0)"/>
       <use xlink:href="#DejaVuSans-36" transform="translate(95.410156 0)"/>
      </g>
     </g>
    </g>
    <g id="xtick_5">
     <g id="line2d_9">
      <path d="M 281.235853 354.958125 
L 281.235853 22.318125 
" clip-path="url(#pb581e514de)" style="fill: none; stroke: #b0b0b0; stroke-width: 0.8; stroke-linecap: square"/>
     </g>
     <g id="line2d_10">
      <g>
       <use xlink:href="#me6fcf8f000" x="281.235853" y="354.958125" style="stroke: #000000; stroke-width: 0.8"/>
      </g>
     </g>
     <g id="text_5">
      <!-- 0.8 -->
      <g transform="translate(273.28429 369.556562) scale(0.1 -0.1)">
       <defs>
        <path id="DejaVuSans-38" d="M 2034 2216 
Q 1584 2216 1326 1975 
Q 1069 1734 1069 1313 
Q 1069 891 1326 650 
Q 1584 409 2034 409 
Q 2484 409 2743 651 
Q 3003 894 3003 1313 
Q 3003 1734 2745 1975 
Q 2488 2216 2034 2216 
z
M 1403 2484 
Q 997 2584 770 2862 
Q 544 3141 544 3541 
Q 544 4100 942 4425 
Q 1341 4750 2034 4750 
Q 2731 4750 3128 4425 
Q 3525 4100 3525 3541 
Q 3525 3141 3298 2862 
Q 3072 2584 2669 2484 
Q 3125 2378 3379 2068 
Q 3634 1759 3634 1313 
Q 3634 634 3220 271 
Q 2806 -91 2034 -91 
Q 1263 -91 848 271 
Q 434 634 434 1313 
Q 434 1759 690 2068 
Q 947 2378 1403 2484 
z
M 1172 3481 
Q 1172 3119 1398 2916 
Q 1625 2713 2034 2713 
Q 2441 2713 2670 2916 
Q 2900 3119 2900 3481 
Q 2900 3844 2670 4047 
Q 2441 4250 2034 4250 
Q 1625 4250 1398 4047 
Q 1172 3844 1172 3481 
z
" transform="scale(0.015625)"/>
       </defs>
       <use xlink:href="#DejaVuSans-30"/>
       <use xlink:href="#DejaVuSans-2e" transform="translate(63.623047 0)"/>
       <use xlink:href="#DejaVuSans-38" transform="translate(95.410156 0)"/>
      </g>
     </g>
    </g>
    <g id="xtick_6">
     <g id="line2d_11">
      <path d="M 335.526776 354.958125 
L 335.526776 22.318125 
" clip-path="url(#pb581e514de)" style="fill: none; stroke: #b0b0b0; stroke-width: 0.8; stroke-linecap: square"/>
     </g>
     <g id="line2d_12">
      <g>
       <use xlink:href="#me6fcf8f000" x="335.526776" y="354.958125" style="stroke: #000000; stroke-width: 0.8"/>
      </g>
     </g>
     <g id="text_6">
      <!-- 1.0 -->
      <g transform="translate(327.575214 369.556562) scale(0.1 -0.1)">
       <defs>
        <path id="DejaVuSans-31" d="M 794 531 
L 1825 531 
L 1825 4091 
L 703 3866 
L 703 4441 
L 1819 4666 
L 2450 4666 
L 2450 531 
L 3481 531 
L 3481 0 
L 794 0 
L 794 531 
z
" transform="scale(0.015625)"/>
       </defs>
       <use xlink:href="#DejaVuSans-31"/>
       <use xlink:href="#DejaVuSans-2e" transform="translate(63.623047 0)"/>
       <use xlink:href="#DejaVuSans-30" transform="translate(95.410156 0)"/>
      </g>
     </g>
    </g>
    <g id="xtick_7">
     <g id="line2d_13">
      <path d="M 389.8177 354.958125 
L 389.8177 22.318125 
" clip-path="url(#pb581e514de)" style="fill: none; stroke: #b0b0b0; stroke-width: 0.8; stroke-linecap: square"/>
     </g>
     <g id="line2d_14">
      <g>
       <use xlink:href="#me6fcf8f000" x="389.8177" y="354.958125" style="stroke: #000000; stroke-width: 0.8"/>
      </g>
     </g>
     <g id="text_7">
      <!-- 1.2 -->
      <g transform="translate(381.866137 369.556562) scale(0.1 -0.1)">
       <use xlink:href="#DejaVuSans-31"/>
       <use xlink:href="#DejaVuSans-2e" transform="translate(63.623047 0)"/>
       <use xlink:href="#DejaVuSans-32" transform="translate(95.410156 0)"/>
      </g>
     </g>
    </g>
    <g id="xtick_8">
     <g id="line2d_15">
      <path d="M 444.108623 354.958125 
L 444.108623 22.318125 
" clip-path="url(#pb581e514de)" style="fill: none; stroke: #b0b0b0; stroke-width: 0.8; stroke-linecap: square"/>
     </g>
     <g id="line2d_16">
      <g>
       <use xlink:href="#me6fcf8f000" x="444.108623" y="354.958125" style="stroke: #000000; stroke-width: 0.8"/>
      </g>
     </g>
     <g id="text_8">
      <!-- 1.4 -->
      <g transform="translate(436.15706 369.556562) scale(0.1 -0.1)">
       <use xlink:href="#DejaVuSans-31"/>
       <use xlink:href="#DejaVuSans-2e" transform="translate(63.623047 0)"/>
       <use xlink:href="#DejaVuSans-34" transform="translate(95.410156 0)"/>
      </g>
     </g>
    </g>
    <g id="text_9">
     <!-- X (m) -->
     <g transform="translate(253.195312 383.234687) scale(0.1 -0.1)">
      <defs>
       <path id="DejaVuSans-58" d="M 403 4666 
L 1081 4666 
L 2241 2931 
L 3406 4666 
L 4084 4666 
L 2584 2425 
L 4184 0 
L 3506 0 
L 2194 1984 
L 872 0 
L 191 0 
L 1856 2491 
L 403 4666 
z
" transform="scale(0.015625)"/>
       <path id="DejaVuSans-20" transform="scale(0.015625)"/>
       <path id="DejaVuSans-28" d="M 1984 4856 
Q 1566 4138 1362 3434 
Q 1159 2731 1159 2009 
Q 1159 1288 1364 580 
Q 1569 -128 1984 -844 
L 1484 -844 
Q 1016 -109 783 600 
Q 550 1309 550 2009 
Q 550 2706 781 3412 
Q 1013 4119 1484 4856 
L 1984 4856 
z
" transform="scale(0.015625)"/>
       <path id="DejaVuSans-6d" d="M 3328 2828 
Q 3544 3216 3844 3400 
Q 4144 3584 4550 3584 
Q 5097 3584 5394 3201 
Q 5691 2819 5691 2113 
L 5691 0 
L 5113 0 
L 5113 2094 
Q 5113 2597 4934 2840 
Q 4756 3084 4391 3084 
Q 3944 3084 3684 2787 
Q 3425 2491 3425 1978 
L 3425 0 
L 2847 0 
L 2847 2094 
Q 2847 2600 2669 2842 
Q 2491 3084 2119 3084 
Q 1678 3084 1418 2786 
Q 1159 2488 1159 1978 
L 1159 0 
L 581 0 
L 581 3500 
L 1159 3500 
L 1159 2956 
Q 1356 3278 1631 3431 
Q 1906 3584 2284 3584 
Q 2666 3584 2933 3390 
Q 3200 3197 3328 2828 
z
" transform="scale(0.015625)"/>
       <path id="DejaVuSans-29" d="M 513 4856 
L 1013 4856 
Q 1481 4119 1714 3412 
Q 1947 2706 1947 2009 
Q 1947 1309 1714 600 
Q 1481 -109 1013 -844 
L 513 -844 
Q 928 -128 1133 580 
Q 1338 1288 1338 2009 
Q 1338 2731 1133 3434 
Q 928 4138 513 4856 
z
" transform="scale(0.015625)"/>
      </defs>
      <use xlink:href="#DejaVuSans-58"/>
      <use xlink:href="#DejaVuSans-20" transform="translate(68.505859 0)"/>
      <use xlink:href="#DejaVuSans-28" transform="translate(100.292969 0)"/>
      <use xlink:href="#DejaVuSans-6d" transform="translate(139.306641 0)"/>
      <use xlink:href="#DejaVuSans-29" transform="translate(236.71875 0)"/>
     </g>
    </g>
   </g>
   <g id="matplotlib.axis_2">
    <g id="ytick_1">
     <g id="line2d_17">
      <path d="M 43.78125 339.834928 
L 490.18125 339.834928 
" clip-path="url(#pb581e514de)" style="fill: none; stroke: #b0b0b0; stroke-width: 0.8; stroke-linecap: square"/>
     </g>
     <g id="line2d_18">
      <defs>
       <path id="m65acad71d6" d="M 0 0 
L -3.5 0 
" style="stroke: #000000; stroke-width: 0.8"/>
      </defs>
      <g>
       <use xlink:href="#m65acad71d6" x="43.78125" y="339.834928" style="stroke: #000000; stroke-width: 0.8"/>
      </g>
     </g>
     <g id="text_10">
      <!-- 0.0 -->
      <g transform="translate(20.878125 343.634147) scale(0.1 -0.1)">
       <use xlink:href="#DejaVuSans-30"/>
       <use xlink:href="#DejaVuSans-2e" transform="translate(63.623047 0)"/>
       <use xlink:href="#DejaVuSans-30" transform="translate(95.410156 0)"/>
      </g>
     </g>
    </g>
    <g id="ytick_2">
     <g id="line2d_19">
      <path d="M 43.78125 271.698 
L 490.18125 271.698 
" clip-path="url(#pb581e514de)" style="fill: none; stroke: #b0b0b0; stroke-width: 0.8; stroke-linecap: square"/>
     </g>
     <g id="line2d_20">
      <g>
       <use xlink:href="#m65acad71d6" x="43.78125" y="271.698" style="stroke: #000000; stroke-width: 0.8"/>
      </g>
     </g>
     <g id="text_11">
      <!-- 0.5 -->
      <g transform="translate(20.878125 275.497218) scale(0.1 -0.1)">
       <defs>
        <path id="DejaVuSans-35" d="M 691 4666 
L 3169 4666 
L 3169 4134 
L 1269 4134 
L 1269 2991 
Q 1406 3038 1543 3061 
Q 1681 3084 1819 3084 
Q 2600 3084 3056 2656 
Q 3513 2228 3513 1497 
Q 3513 744 3044 326 
Q 2575 -91 1722 -91 
Q 1428 -91 1123 -41 
Q 819 9 494 109 
L 494 744 
Q 775 591 1075 516 
Q 1375 441 1709 441 
Q 2250 441 2565 725 
Q 2881 1009 2881 1497 
Q 2881 1984 2565 2268 
Q 2250 2553 1709 2553 
Q 1456 2553 1204 2497 
Q 953 2441 691 2322 
L 691 4666 
z
" transform="scale(0.015625)"/>
       </defs>
       <use xlink:href="#DejaVuSans-30"/>
       <use xlink:href="#DejaVuSans-2e" transform="translate(63.623047 0)"/>
       <use xlink:href="#DejaVuSans-35" transform="translate(95.410156 0)"/>
      </g>
     </g>
    </g>
    <g id="ytick_3">
     <g id="line2d_21">
      <path d="M 43.78125 203.561071 
L 490.18125 203.561071 
" clip-path="url(#pb581e514de)" style="fill: none; stroke: #b0b0b0; stroke-width: 0.8; stroke-linecap: square"/>
     </g>
     <g id="line2d_22">
      <g>
       <use xlink:href="#m65acad71d6" x="43.78125" y="203.561071" style="stroke: #000000; stroke-width: 0.8"/>
      </g>
     </g>
     <g id="text_12">
      <!-- 1.0 -->
      <g transform="translate(20.878125 207.36029) scale(0.1 -0.1)">
       <use xlink:href="#DejaVuSans-31"/>
       <use xlink:href="#DejaVuSans-2e" transform="translate(63.623047 0)"/>
       <use xlink:href="#DejaVuSans-30" transform="translate(95.410156 0)"/>
      </g>
     </g>
    </g>
    <g id="ytick_4">
     <g id="line2d_23">
      <path d="M 43.78125 135.424143 
L 490.18125 135.424143 
" clip-path="url(#pb581e514de)" style="fill: none; stroke: #b0b0b0; stroke-width: 0.8; stroke-linecap: square"/>
     </g>
     <g id="line2d_24">
      <g>
       <use xlink:href="#m65acad71d6" x="43.78125" y="135.424143" style="stroke: #000000; stroke-width: 0.8"/>
      </g>
     </g>
     <g id="text_13">
      <!-- 1.5 -->
      <g transform="translate(20.878125 139.223362) scale(0.1 -0.1)">
       <use xlink:href="#DejaVuSans-31"/>
       <use xlink:href="#DejaVuSans-2e" transform="translate(63.623047 0)"/>
       <use xlink:href="#DejaVuSans-35" transform="translate(95.410156 0)"/>
      </g>
     </g>
    </g>
    <g id="ytick_5">
     <g id="line2d_25">
      <path d="M 43.78125 67.287214 
L 490.18125 67.287214 
" clip-path="url(#pb581e514de)" style="fill: none; stroke: #b0b0b0; stroke-width: 0.8; stroke-linecap: square"/>
     </g>
     <g id="line2d_26">
      <g>
       <use xlink:href="#m65acad71d6" x="43.78125" y="67.287214" style="stroke: #000000; stroke-width: 0.8"/>
      </g>
     </g>
     <g id="text_14">
      <!-- 2.0 -->
      <g transform="translate(20.878125 71.086433) scale(0.1 -0.1)">
       <use xlink:href="#DejaVuSans-32"/>
       <use xlink:href="#DejaVuSans-2e" transform="translate(63.623047 0)"/>
       <use xlink:href="#DejaVuSans-30" transform="translate(95.410156 0)"/>
      </g>
     </g>
    </g>
    <g id="text_15">
     <!-- Y (m) -->
     <g transform="translate(14.798438 202.052969) rotate(-90) scale(0.1 -0.1)">
      <defs>
       <path id="DejaVuSans-59" d="M -13 4666 
L 666 4666 
L 1959 2747 
L 3244 4666 
L 3922 4666 
L 2272 2222 
L 2272 0 
L 1638 0 
L 1638 2222 
L -13 4666 
z
" transform="scale(0.015625)"/>
      </defs>
      <use xlink:href="#DejaVuSans-59"/>
      <use xlink:href="#DejaVuSans-20" transform="translate(61.083984 0)"/>
      <use xlink:href="#DejaVuSans-28" transform="translate(92.871094 0)"/>
      <use xlink:href="#DejaVuSans-6d" transform="translate(131.884766 0)"/>
      <use xlink:href="#DejaVuSans-29" transform="translate(229.296875 0)"/>
     </g>
    </g>
   </g>
   <g id="line2d_27">
    <path d="M 64.072159 339.834928 
L 64.072159 339.834928 
L 64.083053 339.834915 
L 64.985404 339.838125 
L 66.777672 339.784756 
L 69.11264 339.731358 
L 71.982874 339.668097 
L 74.621539 339.639695 
L 78.426849 339.521953 
L 82.731578 339.4093 
L 87.164566 339.259778 
L 91.552374 339.047858 
L 100.714768 338.595617 
L 108.077522 338.136098 
L 116.450981 337.47044 
L 124.190634 336.647865 
L 132.849932 335.358996 
L 139.975755 333.991881 
L 147.673709 332.365882 
L 155.300398 330.599477 
L 163.236521 328.538594 
L 169.692469 326.524399 
L 176.760294 324.109784 
L 183.523386 321.781401 
L 189.625487 319.554858 
L 196.882011 316.701173 
L 203.22237 313.998864 
L 209.461409 311.313966 
L 216.401996 308.327761 
L 221.973029 305.81206 
L 228.024317 302.904388 
L 233.791597 299.892049 
L 239.957876 296.500079 
L 244.870418 293.661234 
L 250.22299 290.489709 
L 255.408682 287.193828 
L 260.778615 283.427416 
L 265.131299 280.349938 
L 269.961193 276.907831 
L 274.506984 273.532418 
L 279.214963 269.713619 
L 283.06178 266.479112 
L 287.487209 262.910086 
L 291.846072 259.489215 
L 296.634741 255.573323 
L 300.561648 252.333691 
L 304.555671 248.781064 
L 309.033279 244.797926 
L 313.117667 241.173495 
L 316.7229 237.891277 
L 320.515272 234.269608 
L 324.548013 230.233949 
L 328.217513 226.498719 
L 331.461934 223.114611 
L 335.024324 219.337331 
L 338.553787 215.554698 
L 341.602285 212.137872 
L 345.3882 207.935368 
L 348.842427 204.133671 
L 352.269892 200.283344 
L 355.887277 196.096638 
L 358.827272 192.662861 
L 362.115621 188.845292 
L 365.461054 184.971597 
L 369.128467 180.699393 
L 371.976981 177.243084 
L 375.119193 173.421211 
L 378.231343 169.527534 
L 381.552862 165.23863 
L 384.278634 161.74676 
L 387.29571 157.886467 
L 390.28321 153.941781 
L 393.416232 149.655541 
L 396.051947 146.142991 
L 398.978642 142.243824 
L 401.892652 138.255617 
L 405.018166 133.946293 
L 407.583919 130.440517 
L 410.394669 126.511198 
L 413.268294 122.561639 
L 416.427074 118.202865 
L 419.00603 114.681168 
L 421.864931 110.811632 
L 424.694481 106.831613 
L 427.707739 102.479662 
L 430.185408 98.938195 
L 432.87099 94.971204 
L 435.538353 91.010257 
L 438.472135 86.678157 
L 440.787842 83.129803 
L 443.456435 79.141157 
L 446.039727 75.139662 
L 448.972344 70.764464 
L 451.299118 67.224508 
L 453.84209 63.312848 
L 456.395481 59.334194 
L 458.855611 55.501485 
L 460.564926 52.719282 
L 462.397597 49.777813 
L 464.180661 46.950481 
L 465.796747 44.331282 
L 466.927176 42.460073 
L 468.02531 40.600593 
L 469.00054 38.970429 
L 469.890341 37.438125 
" clip-path="url(#pb581e514de)" style="fill: none; stroke: #0000ff; stroke-width: 1.5; stroke-linecap: square"/>
    <defs>
     <path id="m706f4a0f6f" d="M 0 1 
C 0.265203 1 0.51958 0.894634 0.707107 0.707107 
C 0.894634 0.51958 1 0.265203 1 0 
C 1 -0.265203 0.894634 -0.51958 0.707107 -0.707107 
C 0.51958 -0.894634 0.265203 -1 0 -1 
C -0.265203 -1 -0.51958 -0.894634 -0.707107 -0.707107 
C -0.894634 -0.51958 -1 -0.265203 -1 0 
C -1 0.265203 -0.894634 0.51958 -0.707107 0.707107 
C -0.51958 0.894634 -0.265203 1 0 1 
z
" style="stroke: #0000ff"/>
    </defs>
    <g clip-path="url(#pb581e514de)">
     <use xlink:href="#m706f4a0f6f" x="64.072159" y="339.834928" style="fill: #0000ff; stroke: #0000ff"/>
     <use xlink:href="#m706f4a0f6f" x="64.072159" y="339.834928" style="fill: #0000ff; stroke: #0000ff"/>
     <use xlink:href="#m706f4a0f6f" x="64.083053" y="339.834915" style="fill: #0000ff; stroke: #0000ff"/>
     <use xlink:href="#m706f4a0f6f" x="64.985404" y="339.838125" style="fill: #0000ff; stroke: #0000ff"/>
     <use xlink:href="#m706f4a0f6f" x="66.777672" y="339.784756" style="fill: #0000ff; stroke: #0000ff"/>
     <use xlink:href="#m706f4a0f6f" x="69.11264" y="339.731358" style="fill: #0000ff; stroke: #0000ff"/>
     <use xlink:href="#m706f4a0f6f" x="71.982874" y="339.668097" style="fill: #0000ff; stroke: #0000ff"/>
     <use xlink:href="#m706f4a0f6f" x="74.621539" y="339.639695" style="fill: #0000ff; stroke: #0000ff"/>
     <use xlink:href="#m706f4a0f6f" x="78.426849" y="339.521953" style="fill: #0000ff; stroke: #0000ff"/>
     <use xlink:href="#m706f4a0f6f" x="82.731578" y="339.4093" style="fill: #0000ff; stroke: #0000ff"/>
     <use xlink:href="#m706f4a0f6f" x="87.164566" y="339.259778" style="fill: #0000ff; stroke: #0000ff"/>
     <use xlink:href="#m706f4a0f6f" x="91.552374" y="339.047858" style="fill: #0000ff; stroke: #0000ff"/>
     <use xlink:href="#m706f4a0f6f" x="100.714768" y="338.595617" style="fill: #0000ff; stroke: #0000ff"/>
     <use xlink:href="#m706f4a0f6f" x="108.077522" y="338.136098" style="fill: #0000ff; stroke: #0000ff"/>
     <use xlink:href="#m706f4a0f6f" x="116.450981" y="337.47044" style="fill: #0000ff; stroke: #0000ff"/>
     <use xlink:href="#m706f4a0f6f" x="124.190634" y="336.647865" style="fill: #0000ff; stroke: #0000ff"/>
     <use xlink:href="#m706f4a0f6f" x="132.849932" y="335.358996" style="fill: #0000ff; stroke: #0000ff"/>
     <use xlink:href="#m706f4a0f6f" x="139.975755" y="333.991881" style="fill: #0000ff; stroke: #0000ff"/>
     <use xlink:href="#m706f4a0f6f" x="147.673709" y="332.365882" style="fill: #0000ff; stroke: #0000ff"/>
     <use xlink:href="#m706f4a0f6f" x="155.300398" y="330.599477" style="fill: #0000ff; stroke: #0000ff"/>
     <use xlink:href="#m706f4a0f6f" x="163.236521" y="328.538594" style="fill: #0000ff; stroke: #0000ff"/>
     <use xlink:href="#m706f4a0f6f" x="169.692469" y="326.524399" style="fill: #0000ff; stroke: #0000ff"/>
     <use xlink:href="#m706f4a0f6f" x="176.760294" y="324.109784" style="fill: #0000ff; stroke: #0000ff"/>
     <use xlink:href="#m706f4a0f6f" x="183.523386" y="321.781401" style="fill: #0000ff; stroke: #0000ff"/>
     <use xlink:href="#m706f4a0f6f" x="189.625487" y="319.554858" style="fill: #0000ff; stroke: #0000ff"/>
     <use xlink:href="#m706f4a0f6f" x="196.882011" y="316.701173" style="fill: #0000ff; stroke: #0000ff"/>
     <use xlink:href="#m706f4a0f6f" x="203.22237" y="313.998864" style="fill: #0000ff; stroke: #0000ff"/>
     <use xlink:href="#m706f4a0f6f" x="209.461409" y="311.313966" style="fill: #0000ff; stroke: #0000ff"/>
     <use xlink:href="#m706f4a0f6f" x="216.401996" y="308.327761" style="fill: #0000ff; stroke: #0000ff"/>
     <use xlink:href="#m706f4a0f6f" x="221.973029" y="305.81206" style="fill: #0000ff; stroke: #0000ff"/>
     <use xlink:href="#m706f4a0f6f" x="228.024317" y="302.904388" style="fill: #0000ff; stroke: #0000ff"/>
     <use xlink:href="#m706f4a0f6f" x="233.791597" y="299.892049" style="fill: #0000ff; stroke: #0000ff"/>
     <use xlink:href="#m706f4a0f6f" x="239.957876" y="296.500079" style="fill: #0000ff; stroke: #0000ff"/>
     <use xlink:href="#m706f4a0f6f" x="244.870418" y="293.661234" style="fill: #0000ff; stroke: #0000ff"/>
     <use xlink:href="#m706f4a0f6f" x="250.22299" y="290.489709" style="fill: #0000ff; stroke: #0000ff"/>
     <use xlink:href="#m706f4a0f6f" x="255.408682" y="287.193828" style="fill: #0000ff; stroke: #0000ff"/>
     <use xlink:href="#m706f4a0f6f" x="260.778615" y="283.427416" style="fill: #0000ff; stroke: #0000ff"/>
     <use xlink:href="#m706f4a0f6f" x="265.131299" y="280.349938" style="fill: #0000ff; stroke: #0000ff"/>
     <use xlink:href="#m706f4a0f6f" x="269.961193" y="276.907831" style="fill: #0000ff; stroke: #0000ff"/>
     <use xlink:href="#m706f4a0f6f" x="274.506984" y="273.532418" style="fill: #0000ff; stroke: #0000ff"/>
     <use xlink:href="#m706f4a0f6f" x="279.214963" y="269.713619" style="fill: #0000ff; stroke: #0000ff"/>
     <use xlink:href="#m706f4a0f6f" x="283.06178" y="266.479112" style="fill: #0000ff; stroke: #0000ff"/>
     <use xlink:href="#m706f4a0f6f" x="287.487209" y="262.910086" style="fill: #0000ff; stroke: #0000ff"/>
     <use xlink:href="#m706f4a0f6f" x="291.846072" y="259.489215" style="fill: #0000ff; stroke: #0000ff"/>
     <use xlink:href="#m706f4a0f6f" x="296.634741" y="255.573323" style="fill: #0000ff; stroke: #0000ff"/>
     <use xlink:href="#m706f4a0f6f" x="300.561648" y="252.333691" style="fill: #0000ff; stroke: #0000ff"/>
     <use xlink:href="#m706f4a0f6f" x="304.555671" y="248.781064" style="fill: #0000ff; stroke: #0000ff"/>
     <use xlink:href="#m706f4a0f6f" x="309.033279" y="244.797926" style="fill: #0000ff; stroke: #0000ff"/>
     <use xlink:href="#m706f4a0f6f" x="313.117667" y="241.173495" style="fill: #0000ff; stroke: #0000ff"/>
     <use xlink:href="#m706f4a0f6f" x="316.7229" y="237.891277" style="fill: #0000ff; stroke: #0000ff"/>
     <use xlink:href="#m706f4a0f6f" x="320.515272" y="234.269608" style="fill: #0000ff; stroke: #0000ff"/>
     <use xlink:href="#m706f4a0f6f" x="324.548013" y="230.233949" style="fill: #0000ff; stroke: #0000ff"/>
     <use xlink:href="#m706f4a0f6f" x="328.217513" y="226.498719" style="fill: #0000ff; stroke: #0000ff"/>
     <use xlink:href="#m706f4a0f6f" x="331.461934" y="223.114611" style="fill: #0000ff; stroke: #0000ff"/>
     <use xlink:href="#m706f4a0f6f" x="335.024324" y="219.337331" style="fill: #0000ff; stroke: #0000ff"/>
     <use xlink:href="#m706f4a0f6f" x="338.553787" y="215.554698" style="fill: #0000ff; stroke: #0000ff"/>
     <use xlink:href="#m706f4a0f6f" x="341.602285" y="212.137872" style="fill: #0000ff; stroke: #0000ff"/>
     <use xlink:href="#m706f4a0f6f" x="345.3882" y="207.935368" style="fill: #0000ff; stroke: #0000ff"/>
     <use xlink:href="#m706f4a0f6f" x="348.842427" y="204.133671" style="fill: #0000ff; stroke: #0000ff"/>
     <use xlink:href="#m706f4a0f6f" x="352.269892" y="200.283344" style="fill: #0000ff; stroke: #0000ff"/>
     <use xlink:href="#m706f4a0f6f" x="355.887277" y="196.096638" style="fill: #0000ff; stroke: #0000ff"/>
     <use xlink:href="#m706f4a0f6f" x="358.827272" y="192.662861" style="fill: #0000ff; stroke: #0000ff"/>
     <use xlink:href="#m706f4a0f6f" x="362.115621" y="188.845292" style="fill: #0000ff; stroke: #0000ff"/>
     <use xlink:href="#m706f4a0f6f" x="365.461054" y="184.971597" style="fill: #0000ff; stroke: #0000ff"/>
     <use xlink:href="#m706f4a0f6f" x="369.128467" y="180.699393" style="fill: #0000ff; stroke: #0000ff"/>
     <use xlink:href="#m706f4a0f6f" x="371.976981" y="177.243084" style="fill: #0000ff; stroke: #0000ff"/>
     <use xlink:href="#m706f4a0f6f" x="375.119193" y="173.421211" style="fill: #0000ff; stroke: #0000ff"/>
     <use xlink:href="#m706f4a0f6f" x="378.231343" y="169.527534" style="fill: #0000ff; stroke: #0000ff"/>
     <use xlink:href="#m706f4a0f6f" x="381.552862" y="165.23863" style="fill: #0000ff; stroke: #0000ff"/>
     <use xlink:href="#m706f4a0f6f" x="384.278634" y="161.74676" style="fill: #0000ff; stroke: #0000ff"/>
     <use xlink:href="#m706f4a0f6f" x="387.29571" y="157.886467" style="fill: #0000ff; stroke: #0000ff"/>
     <use xlink:href="#m706f4a0f6f" x="390.28321" y="153.941781" style="fill: #0000ff; stroke: #0000ff"/>
     <use xlink:href="#m706f4a0f6f" x="393.416232" y="149.655541" style="fill: #0000ff; stroke: #0000ff"/>
     <use xlink:href="#m706f4a0f6f" x="396.051947" y="146.142991" style="fill: #0000ff; stroke: #0000ff"/>
     <use xlink:href="#m706f4a0f6f" x="398.978642" y="142.243824" style="fill: #0000ff; stroke: #0000ff"/>
     <use xlink:href="#m706f4a0f6f" x="401.892652" y="138.255617" style="fill: #0000ff; stroke: #0000ff"/>
     <use xlink:href="#m706f4a0f6f" x="405.018166" y="133.946293" style="fill: #0000ff; stroke: #0000ff"/>
     <use xlink:href="#m706f4a0f6f" x="407.583919" y="130.440517" style="fill: #0000ff; stroke: #0000ff"/>
     <use xlink:href="#m706f4a0f6f" x="410.394669" y="126.511198" style="fill: #0000ff; stroke: #0000ff"/>
     <use xlink:href="#m706f4a0f6f" x="413.268294" y="122.561639" style="fill: #0000ff; stroke: #0000ff"/>
     <use xlink:href="#m706f4a0f6f" x="416.427074" y="118.202865" style="fill: #0000ff; stroke: #0000ff"/>
     <use xlink:href="#m706f4a0f6f" x="419.00603" y="114.681168" style="fill: #0000ff; stroke: #0000ff"/>
     <use xlink:href="#m706f4a0f6f" x="421.864931" y="110.811632" style="fill: #0000ff; stroke: #0000ff"/>
     <use xlink:href="#m706f4a0f6f" x="424.694481" y="106.831613" style="fill: #0000ff; stroke: #0000ff"/>
     <use xlink:href="#m706f4a0f6f" x="427.707739" y="102.479662" style="fill: #0000ff; stroke: #0000ff"/>
     <use xlink:href="#m706f4a0f6f" x="430.185408" y="98.938195" style="fill: #0000ff; stroke: #0000ff"/>
     <use xlink:href="#m706f4a0f6f" x="432.87099" y="94.971204" style="fill: #0000ff; stroke: #0000ff"/>
     <use xlink:href="#m706f4a0f6f" x="435.538353" y="91.010257" style="fill: #0000ff; stroke: #0000ff"/>
     <use xlink:href="#m706f4a0f6f" x="438.472135" y="86.678157" style="fill: #0000ff; stroke: #0000ff"/>
     <use xlink:href="#m706f4a0f6f" x="440.787842" y="83.129803" style="fill: #0000ff; stroke: #0000ff"/>
     <use xlink:href="#m706f4a0f6f" x="443.456435" y="79.141157" style="fill: #0000ff; stroke: #0000ff"/>
     <use xlink:href="#m706f4a0f6f" x="446.039727" y="75.139662" style="fill: #0000ff; stroke: #0000ff"/>
     <use xlink:href="#m706f4a0f6f" x="448.972344" y="70.764464" style="fill: #0000ff; stroke: #0000ff"/>
     <use xlink:href="#m706f4a0f6f" x="451.299118" y="67.224508" style="fill: #0000ff; stroke: #0000ff"/>
     <use xlink:href="#m706f4a0f6f" x="453.84209" y="63.312848" style="fill: #0000ff; stroke: #0000ff"/>
     <use xlink:href="#m706f4a0f6f" x="456.395481" y="59.334194" style="fill: #0000ff; stroke: #0000ff"/>
     <use xlink:href="#m706f4a0f6f" x="458.855611" y="55.501485" style="fill: #0000ff; stroke: #0000ff"/>
     <use xlink:href="#m706f4a0f6f" x="460.564926" y="52.719282" style="fill: #0000ff; stroke: #0000ff"/>
     <use xlink:href="#m706f4a0f6f" x="462.397597" y="49.777813" style="fill: #0000ff; stroke: #0000ff"/>
     <use xlink:href="#m706f4a0f6f" x="464.180661" y="46.950481" style="fill: #0000ff; stroke: #0000ff"/>
     <use xlink:href="#m706f4a0f6f" x="465.796747" y="44.331282" style="fill: #0000ff; stroke: #0000ff"/>
     <use xlink:href="#m706f4a0f6f" x="466.927176" y="42.460073" style="fill: #0000ff; stroke: #0000ff"/>
     <use xlink:href="#m706f4a0f6f" x="468.02531" y="40.600593" style="fill: #0000ff; stroke: #0000ff"/>
     <use xlink:href="#m706f4a0f6f" x="469.00054" y="38.970429" style="fill: #0000ff; stroke: #0000ff"/>
     <use xlink:href="#m706f4a0f6f" x="469.890341" y="37.438125" style="fill: #0000ff; stroke: #0000ff"/>
    </g>
   </g>
   <g id="patch_3">
    <path d="M 43.78125 354.958125 
L 43.78125 22.318125 
" style="fill: none; stroke: #000000; stroke-width: 0.8; stroke-linejoin: miter; stroke-linecap: square"/>
   </g>
   <g id="patch_4">
    <path d="M 490.18125 354.958125 
L 490.18125 22.318125 
" style="fill: none; stroke: #000000; stroke-width: 0.8; stroke-linejoin: miter; stroke-linecap: square"/>
   </g>
   <g id="patch_5">
    <path d="M 43.78125 354.958125 
L 490.18125 354.958125 
" style="fill: none; stroke: #000000; stroke-width: 0.8; stroke-linejoin: miter; stroke-linecap: square"/>
   </g>
   <g id="patch_6">
    <path d="M 43.78125 22.318125 
L 490.18125 22.318125 
" style="fill: none; stroke: #000000; stroke-width: 0.8; stroke-linejoin: miter; stroke-linecap: square"/>
   </g>
   <g id="text_16">
    <!-- Parabolla Trajectory X vs Y (State Space) -->
    <g transform="translate(144.957187 16.318125) scale(0.12 -0.12)">
     <defs>
      <path id="DejaVuSans-50" d="M 1259 4147 
L 1259 2394 
L 2053 2394 
Q 2494 2394 2734 2622 
Q 2975 2850 2975 3272 
Q 2975 3691 2734 3919 
Q 2494 4147 2053 4147 
L 1259 4147 
z
M 628 4666 
L 2053 4666 
Q 2838 4666 3239 4311 
Q 3641 3956 3641 3272 
Q 3641 2581 3239 2228 
Q 2838 1875 2053 1875 
L 1259 1875 
L 1259 0 
L 628 0 
L 628 4666 
z
" transform="scale(0.015625)"/>
      <path id="DejaVuSans-61" d="M 2194 1759 
Q 1497 1759 1228 1600 
Q 959 1441 959 1056 
Q 959 750 1161 570 
Q 1363 391 1709 391 
Q 2188 391 2477 730 
Q 2766 1069 2766 1631 
L 2766 1759 
L 2194 1759 
z
M 3341 1997 
L 3341 0 
L 2766 0 
L 2766 531 
Q 2569 213 2275 61 
Q 1981 -91 1556 -91 
Q 1019 -91 701 211 
Q 384 513 384 1019 
Q 384 1609 779 1909 
Q 1175 2209 1959 2209 
L 2766 2209 
L 2766 2266 
Q 2766 2663 2505 2880 
Q 2244 3097 1772 3097 
Q 1472 3097 1187 3025 
Q 903 2953 641 2809 
L 641 3341 
Q 956 3463 1253 3523 
Q 1550 3584 1831 3584 
Q 2591 3584 2966 3190 
Q 3341 2797 3341 1997 
z
" transform="scale(0.015625)"/>
      <path id="DejaVuSans-72" d="M 2631 2963 
Q 2534 3019 2420 3045 
Q 2306 3072 2169 3072 
Q 1681 3072 1420 2755 
Q 1159 2438 1159 1844 
L 1159 0 
L 581 0 
L 581 3500 
L 1159 3500 
L 1159 2956 
Q 1341 3275 1631 3429 
Q 1922 3584 2338 3584 
Q 2397 3584 2469 3576 
Q 2541 3569 2628 3553 
L 2631 2963 
z
" transform="scale(0.015625)"/>
      <path id="DejaVuSans-62" d="M 3116 1747 
Q 3116 2381 2855 2742 
Q 2594 3103 2138 3103 
Q 1681 3103 1420 2742 
Q 1159 2381 1159 1747 
Q 1159 1113 1420 752 
Q 1681 391 2138 391 
Q 2594 391 2855 752 
Q 3116 1113 3116 1747 
z
M 1159 2969 
Q 1341 3281 1617 3432 
Q 1894 3584 2278 3584 
Q 2916 3584 3314 3078 
Q 3713 2572 3713 1747 
Q 3713 922 3314 415 
Q 2916 -91 2278 -91 
Q 1894 -91 1617 61 
Q 1341 213 1159 525 
L 1159 0 
L 581 0 
L 581 4863 
L 1159 4863 
L 1159 2969 
z
" transform="scale(0.015625)"/>
      <path id="DejaVuSans-6f" d="M 1959 3097 
Q 1497 3097 1228 2736 
Q 959 2375 959 1747 
Q 959 1119 1226 758 
Q 1494 397 1959 397 
Q 2419 397 2687 759 
Q 2956 1122 2956 1747 
Q 2956 2369 2687 2733 
Q 2419 3097 1959 3097 
z
M 1959 3584 
Q 2709 3584 3137 3096 
Q 3566 2609 3566 1747 
Q 3566 888 3137 398 
Q 2709 -91 1959 -91 
Q 1206 -91 779 398 
Q 353 888 353 1747 
Q 353 2609 779 3096 
Q 1206 3584 1959 3584 
z
" transform="scale(0.015625)"/>
      <path id="DejaVuSans-6c" d="M 603 4863 
L 1178 4863 
L 1178 0 
L 603 0 
L 603 4863 
z
" transform="scale(0.015625)"/>
      <path id="DejaVuSans-54" d="M -19 4666 
L 3928 4666 
L 3928 4134 
L 2272 4134 
L 2272 0 
L 1638 0 
L 1638 4134 
L -19 4134 
L -19 4666 
z
" transform="scale(0.015625)"/>
      <path id="DejaVuSans-6a" d="M 603 3500 
L 1178 3500 
L 1178 -63 
Q 1178 -731 923 -1031 
Q 669 -1331 103 -1331 
L -116 -1331 
L -116 -844 
L 38 -844 
Q 366 -844 484 -692 
Q 603 -541 603 -63 
L 603 3500 
z
M 603 4863 
L 1178 4863 
L 1178 4134 
L 603 4134 
L 603 4863 
z
" transform="scale(0.015625)"/>
      <path id="DejaVuSans-65" d="M 3597 1894 
L 3597 1613 
L 953 1613 
Q 991 1019 1311 708 
Q 1631 397 2203 397 
Q 2534 397 2845 478 
Q 3156 559 3463 722 
L 3463 178 
Q 3153 47 2828 -22 
Q 2503 -91 2169 -91 
Q 1331 -91 842 396 
Q 353 884 353 1716 
Q 353 2575 817 3079 
Q 1281 3584 2069 3584 
Q 2775 3584 3186 3129 
Q 3597 2675 3597 1894 
z
M 3022 2063 
Q 3016 2534 2758 2815 
Q 2500 3097 2075 3097 
Q 1594 3097 1305 2825 
Q 1016 2553 972 2059 
L 3022 2063 
z
" transform="scale(0.015625)"/>
      <path id="DejaVuSans-63" d="M 3122 3366 
L 3122 2828 
Q 2878 2963 2633 3030 
Q 2388 3097 2138 3097 
Q 1578 3097 1268 2742 
Q 959 2388 959 1747 
Q 959 1106 1268 751 
Q 1578 397 2138 397 
Q 2388 397 2633 464 
Q 2878 531 3122 666 
L 3122 134 
Q 2881 22 2623 -34 
Q 2366 -91 2075 -91 
Q 1284 -91 818 406 
Q 353 903 353 1747 
Q 353 2603 823 3093 
Q 1294 3584 2113 3584 
Q 2378 3584 2631 3529 
Q 2884 3475 3122 3366 
z
" transform="scale(0.015625)"/>
      <path id="DejaVuSans-74" d="M 1172 4494 
L 1172 3500 
L 2356 3500 
L 2356 3053 
L 1172 3053 
L 1172 1153 
Q 1172 725 1289 603 
Q 1406 481 1766 481 
L 2356 481 
L 2356 0 
L 1766 0 
Q 1100 0 847 248 
Q 594 497 594 1153 
L 594 3053 
L 172 3053 
L 172 3500 
L 594 3500 
L 594 4494 
L 1172 4494 
z
" transform="scale(0.015625)"/>
      <path id="DejaVuSans-79" d="M 2059 -325 
Q 1816 -950 1584 -1140 
Q 1353 -1331 966 -1331 
L 506 -1331 
L 506 -850 
L 844 -850 
Q 1081 -850 1212 -737 
Q 1344 -625 1503 -206 
L 1606 56 
L 191 3500 
L 800 3500 
L 1894 763 
L 2988 3500 
L 3597 3500 
L 2059 -325 
z
" transform="scale(0.015625)"/>
      <path id="DejaVuSans-76" d="M 191 3500 
L 800 3500 
L 1894 563 
L 2988 3500 
L 3597 3500 
L 2284 0 
L 1503 0 
L 191 3500 
z
" transform="scale(0.015625)"/>
      <path id="DejaVuSans-73" d="M 2834 3397 
L 2834 2853 
Q 2591 2978 2328 3040 
Q 2066 3103 1784 3103 
Q 1356 3103 1142 2972 
Q 928 2841 928 2578 
Q 928 2378 1081 2264 
Q 1234 2150 1697 2047 
L 1894 2003 
Q 2506 1872 2764 1633 
Q 3022 1394 3022 966 
Q 3022 478 2636 193 
Q 2250 -91 1575 -91 
Q 1294 -91 989 -36 
Q 684 19 347 128 
L 347 722 
Q 666 556 975 473 
Q 1284 391 1588 391 
Q 1994 391 2212 530 
Q 2431 669 2431 922 
Q 2431 1156 2273 1281 
Q 2116 1406 1581 1522 
L 1381 1569 
Q 847 1681 609 1914 
Q 372 2147 372 2553 
Q 372 3047 722 3315 
Q 1072 3584 1716 3584 
Q 2034 3584 2315 3537 
Q 2597 3491 2834 3397 
z
" transform="scale(0.015625)"/>
      <path id="DejaVuSans-53" d="M 3425 4513 
L 3425 3897 
Q 3066 4069 2747 4153 
Q 2428 4238 2131 4238 
Q 1616 4238 1336 4038 
Q 1056 3838 1056 3469 
Q 1056 3159 1242 3001 
Q 1428 2844 1947 2747 
L 2328 2669 
Q 3034 2534 3370 2195 
Q 3706 1856 3706 1288 
Q 3706 609 3251 259 
Q 2797 -91 1919 -91 
Q 1588 -91 1214 -16 
Q 841 59 441 206 
L 441 856 
Q 825 641 1194 531 
Q 1563 422 1919 422 
Q 2459 422 2753 634 
Q 3047 847 3047 1241 
Q 3047 1584 2836 1778 
Q 2625 1972 2144 2069 
L 1759 2144 
Q 1053 2284 737 2584 
Q 422 2884 422 3419 
Q 422 4038 858 4394 
Q 1294 4750 2059 4750 
Q 2388 4750 2728 4690 
Q 3069 4631 3425 4513 
z
" transform="scale(0.015625)"/>
      <path id="DejaVuSans-70" d="M 1159 525 
L 1159 -1331 
L 581 -1331 
L 581 3500 
L 1159 3500 
L 1159 2969 
Q 1341 3281 1617 3432 
Q 1894 3584 2278 3584 
Q 2916 3584 3314 3078 
Q 3713 2572 3713 1747 
Q 3713 922 3314 415 
Q 2916 -91 2278 -91 
Q 1894 -91 1617 61 
Q 1341 213 1159 525 
z
M 3116 1747 
Q 3116 2381 2855 2742 
Q 2594 3103 2138 3103 
Q 1681 3103 1420 2742 
Q 1159 2381 1159 1747 
Q 1159 1113 1420 752 
Q 1681 391 2138 391 
Q 2594 391 2855 752 
Q 3116 1113 3116 1747 
z
" transform="scale(0.015625)"/>
     </defs>
     <use xlink:href="#DejaVuSans-50"/>
     <use xlink:href="#DejaVuSans-61" transform="translate(55.802734 0)"/>
     <use xlink:href="#DejaVuSans-72" transform="translate(117.082031 0)"/>
     <use xlink:href="#DejaVuSans-61" transform="translate(158.195312 0)"/>
     <use xlink:href="#DejaVuSans-62" transform="translate(219.474609 0)"/>
     <use xlink:href="#DejaVuSans-6f" transform="translate(282.951172 0)"/>
     <use xlink:href="#DejaVuSans-6c" transform="translate(344.132812 0)"/>
     <use xlink:href="#DejaVuSans-6c" transform="translate(371.916016 0)"/>
     <use xlink:href="#DejaVuSans-61" transform="translate(399.699219 0)"/>
     <use xlink:href="#DejaVuSans-20" transform="translate(460.978516 0)"/>
     <use xlink:href="#DejaVuSans-54" transform="translate(492.765625 0)"/>
     <use xlink:href="#DejaVuSans-72" transform="translate(539.099609 0)"/>
     <use xlink:href="#DejaVuSans-61" transform="translate(580.212891 0)"/>
     <use xlink:href="#DejaVuSans-6a" transform="translate(641.492188 0)"/>
     <use xlink:href="#DejaVuSans-65" transform="translate(669.275391 0)"/>
     <use xlink:href="#DejaVuSans-63" transform="translate(730.798828 0)"/>
     <use xlink:href="#DejaVuSans-74" transform="translate(785.779297 0)"/>
     <use xlink:href="#DejaVuSans-6f" transform="translate(824.988281 0)"/>
     <use xlink:href="#DejaVuSans-72" transform="translate(886.169922 0)"/>
     <use xlink:href="#DejaVuSans-79" transform="translate(927.283203 0)"/>
     <use xlink:href="#DejaVuSans-20" transform="translate(986.462891 0)"/>
     <use xlink:href="#DejaVuSans-58" transform="translate(1018.25 0)"/>
     <use xlink:href="#DejaVuSans-20" transform="translate(1086.755859 0)"/>
     <use xlink:href="#DejaVuSans-76" transform="translate(1118.542969 0)"/>
     <use xlink:href="#DejaVuSans-73" transform="translate(1177.722656 0)"/>
     <use xlink:href="#DejaVuSans-20" transform="translate(1229.822266 0)"/>
     <use xlink:href="#DejaVuSans-59" transform="translate(1261.609375 0)"/>
     <use xlink:href="#DejaVuSans-20" transform="translate(1322.693359 0)"/>
     <use xlink:href="#DejaVuSans-28" transform="translate(1354.480469 0)"/>
     <use xlink:href="#DejaVuSans-53" transform="translate(1393.494141 0)"/>
     <use xlink:href="#DejaVuSans-74" transform="translate(1456.970703 0)"/>
     <use xlink:href="#DejaVuSans-61" transform="translate(1496.179688 0)"/>
     <use xlink:href="#DejaVuSans-74" transform="translate(1557.458984 0)"/>
     <use xlink:href="#DejaVuSans-65" transform="translate(1596.667969 0)"/>
     <use xlink:href="#DejaVuSans-20" transform="translate(1658.191406 0)"/>
     <use xlink:href="#DejaVuSans-53" transform="translate(1689.978516 0)"/>
     <use xlink:href="#DejaVuSans-70" transform="translate(1753.455078 0)"/>
     <use xlink:href="#DejaVuSans-61" transform="translate(1816.931641 0)"/>
     <use xlink:href="#DejaVuSans-63" transform="translate(1878.210938 0)"/>
     <use xlink:href="#DejaVuSans-65" transform="translate(1933.191406 0)"/>
     <use xlink:href="#DejaVuSans-29" transform="translate(1994.714844 0)"/>
    </g>
   </g>
  </g>
 </g>
 <defs>
  <clipPath id="pb581e514de">
   <rect x="43.78125" y="22.318125" width="446.4" height="332.64"/>
  </clipPath>
 </defs>
</svg>
