<?xml version="1.0" encoding="utf-8" standalone="no"?>
<!DOCTYPE svg PUBLIC "-//W3C//DTD SVG 1.1//EN"
  "http://www.w3.org/Graphics/SVG/1.1/DTD/svg11.dtd">
<svg xmlns:xlink="http://www.w3.org/1999/xlink" width="626.737293pt" height="392.514375pt" viewBox="0 0 626.737293 392.514375" xmlns="http://www.w3.org/2000/svg" version="1.1">
 <metadata>
  <rdf:RDF xmlns:dc="http://purl.org/dc/elements/1.1/" xmlns:cc="http://creativecommons.org/ns#" xmlns:rdf="http://www.w3.org/1999/02/22-rdf-syntax-ns#">
   <cc:Work>
    <dc:type rdf:resource="http://purl.org/dc/dcmitype/StillImage"/>
    <dc:date>2025-11-21T11:22:47.224710</dc:date>
    <dc:format>image/svg+xml</dc:format>
    <dc:creator>
     <cc:Agent>
      <dc:title>Matplotlib v3.10.6, https://matplotlib.org/</dc:title>
     </cc:Agent>
    </dc:creator>
   </cc:Work>
  </rdf:RDF>
 </metadata>
 <defs>
  <style type="text/css">*{stroke-linejoin: round; stroke-linecap: butt}</style>
 </defs>
 <g id="figure_1">
  <g id="patch_1">
   <path d="M -0 392.514375 
L 626.737293 392.514375 
L 626.737293 0 
L -0 0 
z
" style="fill: #ffffff"/>
  </g>
  <g id="axes_1">
   <g id="patch_2">
    <path d="M 58.523438 354.958125 
L 616.523438 354.958125 
L 616.523438 22.318125 
L 58.523438 22.318125 
z
" style="fill: #ffffff"/>
   </g>
   <g id="matplotlib.axis_1">
    <g id="xtick_1">
     <g id="line2d_1">
      <path d="M 83.887074 354.958125 
L 83.887074 22.318125 
" clip-path="url(#pbd886953c2)" style="fill: none; stroke: #b0b0b0; stroke-width: 0.8; stroke-linecap: square"/>
     </g>
     <g id="line2d_2">
      <defs>
       <path id="m4209943bdf" d="M 0 0 
L 0 3.5 
" style="stroke: #000000; stroke-width: 0.8"/>
      </defs>
      <g>
       <use xlink:href="#m4209943bdf" x="83.887074" y="354.958125" style="stroke: #000000; stroke-width: 0.8"/>
      </g>
     </g>
     <g id="text_1">
      <!-- 0 -->
      <g transform="translate(80.705824 369.556562) scale(0.1 -0.1)">
       <defs>
        <path id="DejaVuSans-30" d="M 2034 4250 
Q 1547 4250 1301 3770 
Q 1056 3291 1056 2328 
Q 1056 1369 1301 889 
Q 1547 409 2034 409 
Q 2525 409 2770 889 
Q 3016 1369 3016 2328 
Q 3016 3291 2770 3770 
Q 2525 4250 2034 4250 
z
M 2034 4750 
Q 2819 4750 3233 4129 
Q 3647 3509 3647 2328 
Q 3647 1150 3233 529 
Q 2819 -91 2034 -91 
Q 1250 -91 836 529 
Q 422 1150 422 2328 
Q 422 3509 836 4129 
Q 1250 4750 2034 4750 
z
" transform="scale(0.015625)"/>
       </defs>
       <use xlink:href="#DejaVuSans-30"/>
      </g>
     </g>
    </g>
    <g id="xtick_2">
     <g id="line2d_3">
      <path d="M 189.744618 354.958125 
L 189.744618 22.318125 
" clip-path="url(#pbd886953c2)" style="fill: none; stroke: #b0b0b0; stroke-width: 0.8; stroke-linecap: square"/>
     </g>
     <g id="line2d_4">
      <g>
       <use xlink:href="#m4209943bdf" x="189.744618" y="354.958125" style="stroke: #000000; stroke-width: 0.8"/>
      </g>
     </g>
     <g id="text_2">
      <!-- 5 -->
      <g transform="translate(186.563368 369.556562) scale(0.1 -0.1)">
       <defs>
        <path id="DejaVuSans-35" d="M 691 4666 
L 3169 4666 
L 3169 4134 
L 1269 4134 
L 1269 2991 
Q 1406 3038 1543 3061 
Q 1681 3084 1819 3084 
Q 2600 3084 3056 2656 
Q 3513 2228 3513 1497 
Q 3513 744 3044 326 
Q 2575 -91 1722 -91 
Q 1428 -91 1123 -41 
Q 819 9 494 109 
L 494 744 
Q 775 591 1075 516 
Q 1375 441 1709 441 
Q 2250 441 2565 725 
Q 2881 1009 2881 1497 
Q 2881 1984 2565 2268 
Q 2250 2553 1709 2553 
Q 1456 2553 1204 2497 
Q 953 2441 691 2322 
L 691 4666 
z
" transform="scale(0.015625)"/>
       </defs>
       <use xlink:href="#DejaVuSans-35"/>
      </g>
     </g>
    </g>
    <g id="xtick_3">
     <g id="line2d_5">
      <path d="M 295.602161 354.958125 
L 295.602161 22.318125 
" clip-path="url(#pbd886953c2)" style="fill: none; stroke: #b0b0b0; stroke-width: 0.8; stroke-linecap: square"/>
     </g>
     <g id="line2d_6">
      <g>
       <use xlink:href="#m4209943bdf" x="295.602161" y="354.958125" style="stroke: #000000; stroke-width: 0.8"/>
      </g>
     </g>
     <g id="text_3">
      <!-- 10 -->
      <g transform="translate(289.239661 369.556562) scale(0.1 -0.1)">
       <defs>
        <path id="DejaVuSans-31" d="M 794 531 
L 1825 531 
L 1825 4091 
L 703 3866 
L 703 4441 
L 1819 4666 
L 2450 4666 
L 2450 531 
L 3481 531 
L 3481 0 
L 794 0 
L 794 531 
z
" transform="scale(0.015625)"/>
       </defs>
       <use xlink:href="#DejaVuSans-31"/>
       <use xlink:href="#DejaVuSans-30" transform="translate(63.623047 0)"/>
      </g>
     </g>
    </g>
    <g id="xtick_4">
     <g id="line2d_7">
      <path d="M 401.459705 354.958125 
L 401.459705 22.318125 
" clip-path="url(#pbd886953c2)" style="fill: none; stroke: #b0b0b0; stroke-width: 0.8; stroke-linecap: square"/>
     </g>
     <g id="line2d_8">
      <g>
       <use xlink:href="#m4209943bdf" x="401.459705" y="354.958125" style="stroke: #000000; stroke-width: 0.8"/>
      </g>
     </g>
     <g id="text_4">
      <!-- 15 -->
      <g transform="translate(395.097205 369.556562) scale(0.1 -0.1)">
       <use xlink:href="#DejaVuSans-31"/>
       <use xlink:href="#DejaVuSans-35" transform="translate(63.623047 0)"/>
      </g>
     </g>
    </g>
    <g id="xtick_5">
     <g id="line2d_9">
      <path d="M 507.317249 354.958125 
L 507.317249 22.318125 
" clip-path="url(#pbd886953c2)" style="fill: none; stroke: #b0b0b0; stroke-width: 0.8; stroke-linecap: square"/>
     </g>
     <g id="line2d_10">
      <g>
       <use xlink:href="#m4209943bdf" x="507.317249" y="354.958125" style="stroke: #000000; stroke-width: 0.8"/>
      </g>
     </g>
     <g id="text_5">
      <!-- 20 -->
      <g transform="translate(500.954749 369.556562) scale(0.1 -0.1)">
       <defs>
        <path id="DejaVuSans-32" d="M 1228 531 
L 3431 531 
L 3431 0 
L 469 0 
L 469 531 
Q 828 903 1448 1529 
Q 2069 2156 2228 2338 
Q 2531 2678 2651 2914 
Q 2772 3150 2772 3378 
Q 2772 3750 2511 3984 
Q 2250 4219 1831 4219 
Q 1534 4219 1204 4116 
Q 875 4013 500 3803 
L 500 4441 
Q 881 4594 1212 4672 
Q 1544 4750 1819 4750 
Q 2544 4750 2975 4387 
Q 3406 4025 3406 3419 
Q 3406 3131 3298 2873 
Q 3191 2616 2906 2266 
Q 2828 2175 2409 1742 
Q 1991 1309 1228 531 
z
" transform="scale(0.015625)"/>
       </defs>
       <use xlink:href="#DejaVuSans-32"/>
       <use xlink:href="#DejaVuSans-30" transform="translate(63.623047 0)"/>
      </g>
     </g>
    </g>
    <g id="xtick_6">
     <g id="line2d_11">
      <path d="M 613.174793 354.958125 
L 613.174793 22.318125 
" clip-path="url(#pbd886953c2)" style="fill: none; stroke: #b0b0b0; stroke-width: 0.8; stroke-linecap: square"/>
     </g>
     <g id="line2d_12">
      <g>
       <use xlink:href="#m4209943bdf" x="613.174793" y="354.958125" style="stroke: #000000; stroke-width: 0.8"/>
      </g>
     </g>
     <g id="text_6">
      <!-- 25 -->
      <g transform="translate(606.812293 369.556562) scale(0.1 -0.1)">
       <use xlink:href="#DejaVuSans-32"/>
       <use xlink:href="#DejaVuSans-35" transform="translate(63.623047 0)"/>
      </g>
     </g>
    </g>
    <g id="text_7">
     <!-- Time (s) -->
     <g transform="translate(317.194531 383.234687) scale(0.1 -0.1)">
      <defs>
       <path id="DejaVuSans-54" d="M -19 4666 
L 3928 4666 
L 3928 4134 
L 2272 4134 
L 2272 0 
L 1638 0 
L 1638 4134 
L -19 4134 
L -19 4666 
z
" transform="scale(0.015625)"/>
       <path id="DejaVuSans-69" d="M 603 3500 
L 1178 3500 
L 1178 0 
L 603 0 
L 603 3500 
z
M 603 4863 
L 1178 4863 
L 1178 4134 
L 603 4134 
L 603 4863 
z
" transform="scale(0.015625)"/>
       <path id="DejaVuSans-6d" d="M 3328 2828 
Q 3544 3216 3844 3400 
Q 4144 3584 4550 3584 
Q 5097 3584 5394 3201 
Q 5691 2819 5691 2113 
L 5691 0 
L 5113 0 
L 5113 2094 
Q 5113 2597 4934 2840 
Q 4756 3084 4391 3084 
Q 3944 3084 3684 2787 
Q 3425 2491 3425 1978 
L 3425 0 
L 2847 0 
L 2847 2094 
Q 2847 2600 2669 2842 
Q 2491 3084 2119 3084 
Q 1678 3084 1418 2786 
Q 1159 2488 1159 1978 
L 1159 0 
L 581 0 
L 581 3500 
L 1159 3500 
L 1159 2956 
Q 1356 3278 1631 3431 
Q 1906 3584 2284 3584 
Q 2666 3584 2933 3390 
Q 3200 3197 3328 2828 
z
" transform="scale(0.015625)"/>
       <path id="DejaVuSans-65" d="M 3597 1894 
L 3597 1613 
L 953 1613 
Q 991 1019 1311 708 
Q 1631 397 2203 397 
Q 2534 397 2845 478 
Q 3156 559 3463 722 
L 3463 178 
Q 3153 47 2828 -22 
Q 2503 -91 2169 -91 
Q 1331 -91 842 396 
Q 353 884 353 1716 
Q 353 2575 817 3079 
Q 1281 3584 2069 3584 
Q 2775 3584 3186 3129 
Q 3597 2675 3597 1894 
z
M 3022 2063 
Q 3016 2534 2758 2815 
Q 2500 3097 2075 3097 
Q 1594 3097 1305 2825 
Q 1016 2553 972 2059 
L 3022 2063 
z
" transform="scale(0.015625)"/>
       <path id="DejaVuSans-20" transform="scale(0.015625)"/>
       <path id="DejaVuSans-28" d="M 1984 4856 
Q 1566 4138 1362 3434 
Q 1159 2731 1159 2009 
Q 1159 1288 1364 580 
Q 1569 -128 1984 -844 
L 1484 -844 
Q 1016 -109 783 600 
Q 550 1309 550 2009 
Q 550 2706 781 3412 
Q 1013 4119 1484 4856 
L 1984 4856 
z
" transform="scale(0.015625)"/>
       <path id="DejaVuSans-73" d="M 2834 3397 
L 2834 2853 
Q 2591 2978 2328 3040 
Q 2066 3103 1784 3103 
Q 1356 3103 1142 2972 
Q 928 2841 928 2578 
Q 928 2378 1081 2264 
Q 1234 2150 1697 2047 
L 1894 2003 
Q 2506 1872 2764 1633 
Q 3022 1394 3022 966 
Q 3022 478 2636 193 
Q 2250 -91 1575 -91 
Q 1294 -91 989 -36 
Q 684 19 347 128 
L 347 722 
Q 666 556 975 473 
Q 1284 391 1588 391 
Q 1994 391 2212 530 
Q 2431 669 2431 922 
Q 2431 1156 2273 1281 
Q 2116 1406 1581 1522 
L 1381 1569 
Q 847 1681 609 1914 
Q 372 2147 372 2553 
Q 372 3047 722 3315 
Q 1072 3584 1716 3584 
Q 2034 3584 2315 3537 
Q 2597 3491 2834 3397 
z
" transform="scale(0.015625)"/>
       <path id="DejaVuSans-29" d="M 513 4856 
L 1013 4856 
Q 1481 4119 1714 3412 
Q 1947 2706 1947 2009 
Q 1947 1309 1714 600 
Q 1481 -109 1013 -844 
L 513 -844 
Q 928 -128 1133 580 
Q 1338 1288 1338 2009 
Q 1338 2731 1133 3434 
Q 928 4138 513 4856 
z
" transform="scale(0.015625)"/>
      </defs>
      <use xlink:href="#DejaVuSans-54"/>
      <use xlink:href="#DejaVuSans-69" transform="translate(57.958984 0)"/>
      <use xlink:href="#DejaVuSans-6d" transform="translate(85.742188 0)"/>
      <use xlink:href="#DejaVuSans-65" transform="translate(183.154297 0)"/>
      <use xlink:href="#DejaVuSans-20" transform="translate(244.677734 0)"/>
      <use xlink:href="#DejaVuSans-28" transform="translate(276.464844 0)"/>
      <use xlink:href="#DejaVuSans-73" transform="translate(315.478516 0)"/>
      <use xlink:href="#DejaVuSans-29" transform="translate(367.578125 0)"/>
     </g>
    </g>
   </g>
   <g id="matplotlib.axis_2">
    <g id="ytick_1">
     <g id="line2d_13">
      <path d="M 58.523438 345.688512 
L 616.523438 345.688512 
" clip-path="url(#pbd886953c2)" style="fill: none; stroke: #b0b0b0; stroke-width: 0.8; stroke-linecap: square"/>
     </g>
     <g id="line2d_14">
      <defs>
       <path id="m9221e3dfbb" d="M 0 0 
L -3.5 0 
" style="stroke: #000000; stroke-width: 0.8"/>
      </defs>
      <g>
       <use xlink:href="#m9221e3dfbb" x="58.523438" y="345.688512" style="stroke: #000000; stroke-width: 0.8"/>
      </g>
     </g>
     <g id="text_8">
      <!-- −1.75 -->
      <g transform="translate(20.878125 349.48773) scale(0.1 -0.1)">
       <defs>
        <path id="DejaVuSans-2212" d="M 678 2272 
L 4684 2272 
L 4684 1741 
L 678 1741 
L 678 2272 
z
" transform="scale(0.015625)"/>
        <path id="DejaVuSans-2e" d="M 684 794 
L 1344 794 
L 1344 0 
L 684 0 
L 684 794 
z
" transform="scale(0.015625)"/>
        <path id="DejaVuSans-37" d="M 525 4666 
L 3525 4666 
L 3525 4397 
L 1831 0 
L 1172 0 
L 2766 4134 
L 525 4134 
L 525 4666 
z
" transform="scale(0.015625)"/>
       </defs>
       <use xlink:href="#DejaVuSans-2212"/>
       <use xlink:href="#DejaVuSans-31" transform="translate(83.789062 0)"/>
       <use xlink:href="#DejaVuSans-2e" transform="translate(147.412109 0)"/>
       <use xlink:href="#DejaVuSans-37" transform="translate(179.199219 0)"/>
       <use xlink:href="#DejaVuSans-35" transform="translate(242.822266 0)"/>
      </g>
     </g>
    </g>
    <g id="ytick_2">
     <g id="line2d_15">
      <path d="M 58.523438 304.116869 
L 616.523438 304.116869 
" clip-path="url(#pbd886953c2)" style="fill: none; stroke: #b0b0b0; stroke-width: 0.8; stroke-linecap: square"/>
     </g>
     <g id="line2d_16">
      <g>
       <use xlink:href="#m9221e3dfbb" x="58.523438" y="304.116869" style="stroke: #000000; stroke-width: 0.8"/>
      </g>
     </g>
     <g id="text_9">
      <!-- −1.50 -->
      <g transform="translate(20.878125 307.916088) scale(0.1 -0.1)">
       <use xlink:href="#DejaVuSans-2212"/>
       <use xlink:href="#DejaVuSans-31" transform="translate(83.789062 0)"/>
       <use xlink:href="#DejaVuSans-2e" transform="translate(147.412109 0)"/>
       <use xlink:href="#DejaVuSans-35" transform="translate(179.199219 0)"/>
       <use xlink:href="#DejaVuSans-30" transform="translate(242.822266 0)"/>
      </g>
     </g>
    </g>
    <g id="ytick_3">
     <g id="line2d_17">
      <path d="M 58.523438 262.545227 
L 616.523438 262.545227 
" clip-path="url(#pbd886953c2)" style="fill: none; stroke: #b0b0b0; stroke-width: 0.8; stroke-linecap: square"/>
     </g>
     <g id="line2d_18">
      <g>
       <use xlink:href="#m9221e3dfbb" x="58.523438" y="262.545227" style="stroke: #000000; stroke-width: 0.8"/>
      </g>
     </g>
     <g id="text_10">
      <!-- −1.25 -->
      <g transform="translate(20.878125 266.344445) scale(0.1 -0.1)">
       <use xlink:href="#DejaVuSans-2212"/>
       <use xlink:href="#DejaVuSans-31" transform="translate(83.789062 0)"/>
       <use xlink:href="#DejaVuSans-2e" transform="translate(147.412109 0)"/>
       <use xlink:href="#DejaVuSans-32" transform="translate(179.199219 0)"/>
       <use xlink:href="#DejaVuSans-35" transform="translate(242.822266 0)"/>
      </g>
     </g>
    </g>
    <g id="ytick_4">
     <g id="line2d_19">
      <path d="M 58.523438 220.973584 
L 616.523438 220.973584 
" clip-path="url(#pbd886953c2)" style="fill: none; stroke: #b0b0b0; stroke-width: 0.8; stroke-linecap: square"/>
     </g>
     <g id="line2d_20">
      <g>
       <use xlink:href="#m9221e3dfbb" x="58.523438" y="220.973584" style="stroke: #000000; stroke-width: 0.8"/>
      </g>
     </g>
     <g id="text_11">
      <!-- −1.00 -->
      <g transform="translate(20.878125 224.772803) scale(0.1 -0.1)">
       <use xlink:href="#DejaVuSans-2212"/>
       <use xlink:href="#DejaVuSans-31" transform="translate(83.789062 0)"/>
       <use xlink:href="#DejaVuSans-2e" transform="translate(147.412109 0)"/>
       <use xlink:href="#DejaVuSans-30" transform="translate(179.199219 0)"/>
       <use xlink:href="#DejaVuSans-30" transform="translate(242.822266 0)"/>
      </g>
     </g>
    </g>
    <g id="ytick_5">
     <g id="line2d_21">
      <path d="M 58.523438 179.401942 
L 616.523438 179.401942 
" clip-path="url(#pbd886953c2)" style="fill: none; stroke: #b0b0b0; stroke-width: 0.8; stroke-linecap: square"/>
     </g>
     <g id="line2d_22">
      <g>
       <use xlink:href="#m9221e3dfbb" x="58.523438" y="179.401942" style="stroke: #000000; stroke-width: 0.8"/>
      </g>
     </g>
     <g id="text_12">
      <!-- −0.75 -->
      <g transform="translate(20.878125 183.20116) scale(0.1 -0.1)">
       <use xlink:href="#DejaVuSans-2212"/>
       <use xlink:href="#DejaVuSans-30" transform="translate(83.789062 0)"/>
       <use xlink:href="#DejaVuSans-2e" transform="translate(147.412109 0)"/>
       <use xlink:href="#DejaVuSans-37" transform="translate(179.199219 0)"/>
       <use xlink:href="#DejaVuSans-35" transform="translate(242.822266 0)"/>
      </g>
     </g>
    </g>
    <g id="ytick_6">
     <g id="line2d_23">
      <path d="M 58.523438 137.830299 
L 616.523438 137.830299 
" clip-path="url(#pbd886953c2)" style="fill: none; stroke: #b0b0b0; stroke-width: 0.8; stroke-linecap: square"/>
     </g>
     <g id="line2d_24">
      <g>
       <use xlink:href="#m9221e3dfbb" x="58.523438" y="137.830299" style="stroke: #000000; stroke-width: 0.8"/>
      </g>
     </g>
     <g id="text_13">
      <!-- −0.50 -->
      <g transform="translate(20.878125 141.629518) scale(0.1 -0.1)">
       <use xlink:href="#DejaVuSans-2212"/>
       <use xlink:href="#DejaVuSans-30" transform="translate(83.789062 0)"/>
       <use xlink:href="#DejaVuSans-2e" transform="translate(147.412109 0)"/>
       <use xlink:href="#DejaVuSans-35" transform="translate(179.199219 0)"/>
       <use xlink:href="#DejaVuSans-30" transform="translate(242.822266 0)"/>
      </g>
     </g>
    </g>
    <g id="ytick_7">
     <g id="line2d_25">
      <path d="M 58.523438 96.258657 
L 616.523438 96.258657 
" clip-path="url(#pbd886953c2)" style="fill: none; stroke: #b0b0b0; stroke-width: 0.8; stroke-linecap: square"/>
     </g>
     <g id="line2d_26">
      <g>
       <use xlink:href="#m9221e3dfbb" x="58.523438" y="96.258657" style="stroke: #000000; stroke-width: 0.8"/>
      </g>
     </g>
     <g id="text_14">
      <!-- −0.25 -->
      <g transform="translate(20.878125 100.057876) scale(0.1 -0.1)">
       <use xlink:href="#DejaVuSans-2212"/>
       <use xlink:href="#DejaVuSans-30" transform="translate(83.789062 0)"/>
       <use xlink:href="#DejaVuSans-2e" transform="translate(147.412109 0)"/>
       <use xlink:href="#DejaVuSans-32" transform="translate(179.199219 0)"/>
       <use xlink:href="#DejaVuSans-35" transform="translate(242.822266 0)"/>
      </g>
     </g>
    </g>
    <g id="ytick_8">
     <g id="line2d_27">
      <path d="M 58.523438 54.687014 
L 616.523438 54.687014 
" clip-path="url(#pbd886953c2)" style="fill: none; stroke: #b0b0b0; stroke-width: 0.8; stroke-linecap: square"/>
     </g>
     <g id="line2d_28">
      <g>
       <use xlink:href="#m9221e3dfbb" x="58.523438" y="54.687014" style="stroke: #000000; stroke-width: 0.8"/>
      </g>
     </g>
     <g id="text_15">
      <!-- 0.00 -->
      <g transform="translate(29.257812 58.486233) scale(0.1 -0.1)">
       <use xlink:href="#DejaVuSans-30"/>
       <use xlink:href="#DejaVuSans-2e" transform="translate(63.623047 0)"/>
       <use xlink:href="#DejaVuSans-30" transform="translate(95.410156 0)"/>
       <use xlink:href="#DejaVuSans-30" transform="translate(159.033203 0)"/>
      </g>
     </g>
    </g>
    <g id="text_16">
     <!-- θ (rad) -->
     <g transform="translate(14.798437 205.481875) rotate(-90) scale(0.1 -0.1)">
      <defs>
       <path id="DejaVuSans-3b8" d="M 2953 2219 
L 963 2219 
Q 1009 1284 1225 888 
Q 1494 400 1959 400 
Q 2428 400 2688 891 
Q 2916 1322 2953 2219 
z
M 2944 2750 
Q 2856 3638 2688 3950 
Q 2419 4444 1959 4444 
Q 1481 4444 1228 3956 
Q 1028 3563 969 2750 
L 2944 2750 
z
M 1959 4913 
Q 2709 4913 3138 4250 
Q 3566 3591 3566 2422 
Q 3566 1256 3138 594 
Q 2709 -72 1959 -72 
Q 1206 -72 781 594 
Q 353 1256 353 2422 
Q 353 3591 781 4250 
Q 1206 4913 1959 4913 
z
" transform="scale(0.015625)"/>
       <path id="DejaVuSans-72" d="M 2631 2963 
Q 2534 3019 2420 3045 
Q 2306 3072 2169 3072 
Q 1681 3072 1420 2755 
Q 1159 2438 1159 1844 
L 1159 0 
L 581 0 
L 581 3500 
L 1159 3500 
L 1159 2956 
Q 1341 3275 1631 3429 
Q 1922 3584 2338 3584 
Q 2397 3584 2469 3576 
Q 2541 3569 2628 3553 
L 2631 2963 
z
" transform="scale(0.015625)"/>
       <path id="DejaVuSans-61" d="M 2194 1759 
Q 1497 1759 1228 1600 
Q 959 1441 959 1056 
Q 959 750 1161 570 
Q 1363 391 1709 391 
Q 2188 391 2477 730 
Q 2766 1069 2766 1631 
L 2766 1759 
L 2194 1759 
z
M 3341 1997 
L 3341 0 
L 2766 0 
L 2766 531 
Q 2569 213 2275 61 
Q 1981 -91 1556 -91 
Q 1019 -91 701 211 
Q 384 513 384 1019 
Q 384 1609 779 1909 
Q 1175 2209 1959 2209 
L 2766 2209 
L 2766 2266 
Q 2766 2663 2505 2880 
Q 2244 3097 1772 3097 
Q 1472 3097 1187 3025 
Q 903 2953 641 2809 
L 641 3341 
Q 956 3463 1253 3523 
Q 1550 3584 1831 3584 
Q 2591 3584 2966 3190 
Q 3341 2797 3341 1997 
z
" transform="scale(0.015625)"/>
       <path id="DejaVuSans-64" d="M 2906 2969 
L 2906 4863 
L 3481 4863 
L 3481 0 
L 2906 0 
L 2906 525 
Q 2725 213 2448 61 
Q 2172 -91 1784 -91 
Q 1150 -91 751 415 
Q 353 922 353 1747 
Q 353 2572 751 3078 
Q 1150 3584 1784 3584 
Q 2172 3584 2448 3432 
Q 2725 3281 2906 2969 
z
M 947 1747 
Q 947 1113 1208 752 
Q 1469 391 1925 391 
Q 2381 391 2643 752 
Q 2906 1113 2906 1747 
Q 2906 2381 2643 2742 
Q 2381 3103 1925 3103 
Q 1469 3103 1208 2742 
Q 947 2381 947 1747 
z
" transform="scale(0.015625)"/>
      </defs>
      <use xlink:href="#DejaVuSans-3b8"/>
      <use xlink:href="#DejaVuSans-20" transform="translate(61.181641 0)"/>
      <use xlink:href="#DejaVuSans-28" transform="translate(92.96875 0)"/>
      <use xlink:href="#DejaVuSans-72" transform="translate(131.982422 0)"/>
      <use xlink:href="#DejaVuSans-61" transform="translate(173.095703 0)"/>
      <use xlink:href="#DejaVuSans-64" transform="translate(234.375 0)"/>
      <use xlink:href="#DejaVuSans-29" transform="translate(297.851562 0)"/>
     </g>
    </g>
   </g>
   <g id="line2d_29">
    <path d="M 83.887074 54.677815 
L 111.420231 54.677657 
L 114.804166 56.215092 
L 121.150292 71.602766 
L 123.247447 75.451806 
L 127.302537 84.502106 
L 129.628271 89.367848 
L 131.719571 94.104318 
L 133.8537 98.54219 
L 139.167343 110.401349 
L 142.32115 116.256622 
L 146.558637 122.505425 
L 148.655091 124.579453 
L 150.790674 126.360421 
L 154.802293 128.996203 
L 157.121051 129.58386 
L 160.125961 130.112028 
L 163.271161 129.67329 
L 164.530779 128.764887 
L 167.728299 127.578064 
L 169.633243 126.505336 
L 176.217231 122.068004 
L 178.113181 120.920584 
L 184.581133 117.859075 
L 186.582705 117.155313 
L 191.029626 115.082191 
L 193.077152 113.802991 
L 195.038555 113.218715 
L 199.495995 112.790013 
L 201.561461 112.143364 
L 203.507317 111.727711 
L 207.974641 111.297681 
L 210.049293 111.333813 
L 214.08081 111.822231 
L 216.422722 111.959277 
L 218.539669 112.286941 
L 222.568627 112.688788 
L 224.891368 112.584147 
L 227.007689 112.641516 
L 231.038808 112.902428 
L 233.360034 113.206633 
L 235.47682 113.353894 
L 239.505778 113.759294 
L 241.827979 114.299003 
L 250.297387 114.240368 
L 252.414207 114.156774 
L 256.439319 114.144419 
L 258.765033 113.974292 
L 260.883631 113.980408 
L 262.790922 114.151981 
L 269.372841 114.089753 
L 271.256772 113.76882 
L 277.736662 114.079189 
L 279.72994 113.833034 
L 286.231162 113.740175 
L 290.249419 114.357467 
L 294.714814 114.370454 
L 301.151945 114.302023 
L 303.204777 114.721456 
L 305.154368 114.845931 
L 309.576999 114.788371 
L 311.694153 115.266526 
L 315.934473 114.925839 
L 318.046413 115.432202 
L 320.163314 115.748481 
L 324.403523 115.669655 
L 326.515084 116.54257 
L 328.631299 116.366962 
L 330.536869 116.511858 
L 334.983684 117.652674 
L 337.09995 117.936628 
L 339.00604 117.936628 
L 345.484718 118.339743 
L 349.487009 118.965466 
L 351.838189 118.408418 
L 353.95342 118.945087 
L 357.967053 118.491172 
L 362.421384 118.618133 
L 366.430596 118.344621 
L 368.758818 117.209418 
L 372.98608 116.325688 
L 377.334672 114.713847 
L 379.380204 114.535587 
L 383.687709 114.922625 
L 387.891301 113.972345 
L 389.817527 114.174638 
L 394.306162 113.280772 
L 396.380537 113.448688 
L 398.308392 113.062179 
L 402.732816 112.997142 
L 404.849672 113.652933 
L 406.7772 113.073491 
L 411.200871 116.505861 
L 413.339382 117.632661 
L 415.224787 119.231836 
L 417.347175 122.376948 
L 419.670229 125.073874 
L 421.786823 128.302263 
L 425.812232 135.354227 
L 428.138527 139.195682 
L 430.282918 143.356655 
L 436.607647 154.927437 
L 438.748257 158.672089 
L 442.758024 164.732568 
L 445.075339 167.73524 
L 447.234792 169.390528 
L 449.104388 169.867272 
L 453.547034 166.612914 
L 455.580583 165.848185 
L 459.708526 161.340064 
L 472.535445 153.58126 
L 474.503748 152.558931 
L 478.971022 151.719462 
L 483.015471 150.446034 
L 485.07965 150.17695 
L 487.419911 150.28459 
L 493.559875 147.521406 
L 495.887875 149.485838 
L 498.004156 151.622897 
L 502.028561 153.447559 
L 506.494431 158.035899 
L 510.495612 161.926476 
L 514.963133 176.806276 
L 518.967902 185.113269 
L 521.316523 193.377385 
L 523.431107 200.134832 
L 527.434085 203.014958 
L 531.900672 209.847579 
L 535.907279 220.52097 
L 538.231882 223.798662 
L 540.368707 230.670188 
L 542.261204 232.510762 
L 546.701891 236.564683 
L 548.734966 238.785177 
L 550.719234 241.383667 
L 554.113315 245.589371 
L 558.154711 251.34814 
L 561.279877 260.001671 
L 563.639708 267.25696 
L 565.712568 274.084448 
L 569.75991 283.362236 
L 572.147938 287.086486 
L 574.200779 289.683572 
L 578.259629 295.514853 
L 586.74204 322.43403 
L 589.066508 331.970757 
L 591.159801 339.838125 
L 591.159801 339.838125 
" clip-path="url(#pbd886953c2)" style="fill: none; stroke-dasharray: 5.55,2.4; stroke-dashoffset: 0; stroke: #1f77b4; stroke-width: 1.5"/>
   </g>
   <g id="line2d_30">
    <path d="M 83.887074 37.990057 
L 88.315763 38.408778 
L 92.355846 37.897528 
L 96.782773 38.260422 
L 100.827107 37.438125 
L 101.877817 37.477678 
L 102.927967 37.93763 
L 106.310241 38.399744 
L 108.391183 38.001931 
L 111.420231 37.654259 
L 114.804166 39.613672 
L 116.855629 46.794567 
L 121.150292 54.249132 
L 123.247447 59.031671 
L 127.302537 65.197555 
L 129.628271 69.86115 
L 131.719571 78.102025 
L 133.8537 81.529406 
L 138.090375 87.94845 
L 139.167343 95.28367 
L 142.32115 99.626744 
L 146.558637 102.63356 
L 148.655091 104.663981 
L 150.790674 109.174625 
L 152.676326 111.529293 
L 160.125961 113.429572 
L 163.271161 112.661964 
L 164.530779 110.931186 
L 167.728299 108.374938 
L 169.633243 108.081586 
L 174.080391 105.006385 
L 176.217231 105.115749 
L 178.113181 102.657041 
L 182.548315 101.401129 
L 184.581133 100.174019 
L 186.582705 100.943456 
L 191.029626 99.23263 
L 193.077152 97.719567 
L 195.038555 97.657346 
L 199.495995 97.117245 
L 201.561461 95.353839 
L 203.507317 96.785864 
L 207.974641 95.265229 
L 210.049293 95.0568 
L 211.997042 95.670154 
L 214.08081 95.209703 
L 216.422722 95.563803 
L 218.539669 95.628887 
L 222.568627 95.922314 
L 224.891368 94.594986 
L 227.007689 95.069094 
L 231.038808 96.285052 
L 233.360034 97.346924 
L 239.505778 97.805459 
L 241.827979 97.835942 
L 243.94483 97.620279 
L 247.9724 98.307334 
L 250.297387 98.343641 
L 252.414207 98.003104 
L 256.439319 99.332519 
L 258.765033 98.181054 
L 260.883631 98.694525 
L 262.790922 98.887312 
L 267.234552 97.317871 
L 269.372841 96.28747 
L 271.256772 96.792838 
L 275.704566 97.159438 
L 277.736662 96.540162 
L 279.72994 96.341247 
L 281.869203 97.113156 
L 284.172112 95.975067 
L 286.231162 96.906882 
L 290.249419 96.958506 
L 292.643079 94.748305 
L 294.714814 98.947703 
L 298.749133 98.336488 
L 301.151945 98.524273 
L 303.204777 98.108986 
L 305.154368 98.300715 
L 309.576999 97.91602 
L 311.694153 97.617784 
L 315.934473 96.50391 
L 318.046413 96.444464 
L 320.163314 94.427507 
L 324.403523 94.521147 
L 326.515084 96.351936 
L 328.631299 96.702276 
L 330.536869 98.305059 
L 334.983684 99.020927 
L 337.09995 100.296913 
L 339.00604 98.850579 
L 343.367044 97.999549 
L 345.484718 99.258998 
L 347.558886 101.553712 
L 349.487009 100.765419 
L 351.838189 100.720692 
L 353.95342 102.073048 
L 357.967053 101.772157 
L 362.421384 103.298109 
L 364.517227 103.256971 
L 366.430596 101.651941 
L 368.758818 101.356367 
L 370.895295 104.489329 
L 372.98608 100.682402 
L 377.334672 102.232251 
L 379.380204 101.205725 
L 383.687709 102.767341 
L 385.795479 98.463129 
L 387.891301 97.372953 
L 389.817527 95.840094 
L 394.306162 92.978866 
L 396.380537 90.923807 
L 398.308392 89.400813 
L 402.732816 88.816397 
L 404.849672 86.985895 
L 406.7772 84.195578 
L 411.200871 85.499469 
L 413.339382 84.973657 
L 415.224787 86.969434 
L 419.670229 90.691336 
L 421.786823 95.357501 
L 425.812232 100.124288 
L 428.138527 106.536456 
L 430.282918 105.816574 
L 434.284492 108.732089 
L 436.607647 113.212755 
L 438.748257 116.439406 
L 442.758024 117.507373 
L 445.075339 125.002433 
L 447.234792 128.718865 
L 449.104388 129.968428 
L 453.547034 129.867304 
L 455.580583 126.059621 
L 459.708526 124.819211 
L 462.012817 125.204061 
L 464.069672 120.880596 
L 466.042376 119.928308 
L 470.484835 116.459349 
L 472.535445 119.674673 
L 474.503748 119.828139 
L 481.045871 117.585894 
L 483.015471 114.899234 
L 485.07965 115.566665 
L 487.419911 113.356737 
L 491.469262 110.580989 
L 493.559875 112.889683 
L 495.887875 116.228866 
L 498.004156 117.289192 
L 502.028561 122.265782 
L 504.35746 126.743113 
L 506.494431 127.756176 
L 510.495612 137.997323 
L 512.845757 147.837948 
L 514.963133 148.961607 
L 518.967902 156.570926 
L 521.316523 168.604065 
L 523.431107 171.137819 
L 527.434085 170.225743 
L 529.762343 177.714273 
L 531.900672 185.204864 
L 535.907279 189.785564 
L 538.231882 194.878377 
L 540.368707 203.168984 
L 542.261204 201.764112 
L 546.701891 206.790156 
L 548.734966 208.7107 
L 550.719234 211.059317 
L 554.113315 221.556869 
L 557.254942 224.382361 
L 558.154711 222.291252 
L 561.279877 231.818643 
L 563.639708 241.081776 
L 565.712568 246.780617 
L 569.75991 254.338013 
L 572.147938 259.938954 
L 574.200779 262.341999 
L 578.259629 275.479166 
L 580.595 282.033034 
L 582.711699 284.740697 
L 586.74204 293.678473 
L 589.066508 302.844098 
L 591.159801 310.612591 
L 591.159801 310.612591 
" clip-path="url(#pbd886953c2)" style="fill: none; stroke: #ff7f0e; stroke-width: 1.5; stroke-linecap: square"/>
   </g>
   <g id="patch_3">
    <path d="M 58.523438 354.958125 
L 58.523438 22.318125 
" style="fill: none; stroke: #000000; stroke-width: 0.8; stroke-linejoin: miter; stroke-linecap: square"/>
   </g>
   <g id="patch_4">
    <path d="M 616.523438 354.958125 
L 616.523438 22.318125 
" style="fill: none; stroke: #000000; stroke-width: 0.8; stroke-linejoin: miter; stroke-linecap: square"/>
   </g>
   <g id="patch_5">
    <path d="M 58.523438 354.958125 
L 616.523437 354.958125 
" style="fill: none; stroke: #000000; stroke-width: 0.8; stroke-linejoin: miter; stroke-linecap: square"/>
   </g>
   <g id="patch_6">
    <path d="M 58.523438 22.318125 
L 616.523437 22.318125 
" style="fill: none; stroke: #000000; stroke-width: 0.8; stroke-linejoin: miter; stroke-linecap: square"/>
   </g>
   <g id="text_17">
    <!-- SECTION 2: Theta over Time — PF vs Odom -->
    <g transform="translate(206.950312 16.318125) scale(0.12 -0.12)">
     <defs>
      <path id="DejaVuSans-53" d="M 3425 4513 
L 3425 3897 
Q 3066 4069 2747 4153 
Q 2428 4238 2131 4238 
Q 1616 4238 1336 4038 
Q 1056 3838 1056 3469 
Q 1056 3159 1242 3001 
Q 1428 2844 1947 2747 
L 2328 2669 
Q 3034 2534 3370 2195 
Q 3706 1856 3706 1288 
Q 3706 609 3251 259 
Q 2797 -91 1919 -91 
Q 1588 -91 1214 -16 
Q 841 59 441 206 
L 441 856 
Q 825 641 1194 531 
Q 1563 422 1919 422 
Q 2459 422 2753 634 
Q 3047 847 3047 1241 
Q 3047 1584 2836 1778 
Q 2625 1972 2144 2069 
L 1759 2144 
Q 1053 2284 737 2584 
Q 422 2884 422 3419 
Q 422 4038 858 4394 
Q 1294 4750 2059 4750 
Q 2388 4750 2728 4690 
Q 3069 4631 3425 4513 
z
" transform="scale(0.015625)"/>
      <path id="DejaVuSans-45" d="M 628 4666 
L 3578 4666 
L 3578 4134 
L 1259 4134 
L 1259 2753 
L 3481 2753 
L 3481 2222 
L 1259 2222 
L 1259 531 
L 3634 531 
L 3634 0 
L 628 0 
L 628 4666 
z
" transform="scale(0.015625)"/>
      <path id="DejaVuSans-43" d="M 4122 4306 
L 4122 3641 
Q 3803 3938 3442 4084 
Q 3081 4231 2675 4231 
Q 1875 4231 1450 3742 
Q 1025 3253 1025 2328 
Q 1025 1406 1450 917 
Q 1875 428 2675 428 
Q 3081 428 3442 575 
Q 3803 722 4122 1019 
L 4122 359 
Q 3791 134 3420 21 
Q 3050 -91 2638 -91 
Q 1578 -91 968 557 
Q 359 1206 359 2328 
Q 359 3453 968 4101 
Q 1578 4750 2638 4750 
Q 3056 4750 3426 4639 
Q 3797 4528 4122 4306 
z
" transform="scale(0.015625)"/>
      <path id="DejaVuSans-49" d="M 628 4666 
L 1259 4666 
L 1259 0 
L 628 0 
L 628 4666 
z
" transform="scale(0.015625)"/>
      <path id="DejaVuSans-4f" d="M 2522 4238 
Q 1834 4238 1429 3725 
Q 1025 3213 1025 2328 
Q 1025 1447 1429 934 
Q 1834 422 2522 422 
Q 3209 422 3611 934 
Q 4013 1447 4013 2328 
Q 4013 3213 3611 3725 
Q 3209 4238 2522 4238 
z
M 2522 4750 
Q 3503 4750 4090 4092 
Q 4678 3434 4678 2328 
Q 4678 1225 4090 567 
Q 3503 -91 2522 -91 
Q 1538 -91 948 565 
Q 359 1222 359 2328 
Q 359 3434 948 4092 
Q 1538 4750 2522 4750 
z
" transform="scale(0.015625)"/>
      <path id="DejaVuSans-4e" d="M 628 4666 
L 1478 4666 
L 3547 763 
L 3547 4666 
L 4159 4666 
L 4159 0 
L 3309 0 
L 1241 3903 
L 1241 0 
L 628 0 
L 628 4666 
z
" transform="scale(0.015625)"/>
      <path id="DejaVuSans-3a" d="M 750 794 
L 1409 794 
L 1409 0 
L 750 0 
L 750 794 
z
M 750 3309 
L 1409 3309 
L 1409 2516 
L 750 2516 
L 750 3309 
z
" transform="scale(0.015625)"/>
      <path id="DejaVuSans-68" d="M 3513 2113 
L 3513 0 
L 2938 0 
L 2938 2094 
Q 2938 2591 2744 2837 
Q 2550 3084 2163 3084 
Q 1697 3084 1428 2787 
Q 1159 2491 1159 1978 
L 1159 0 
L 581 0 
L 581 4863 
L 1159 4863 
L 1159 2956 
Q 1366 3272 1645 3428 
Q 1925 3584 2291 3584 
Q 2894 3584 3203 3211 
Q 3513 2838 3513 2113 
z
" transform="scale(0.015625)"/>
      <path id="DejaVuSans-74" d="M 1172 4494 
L 1172 3500 
L 2356 3500 
L 2356 3053 
L 1172 3053 
L 1172 1153 
Q 1172 725 1289 603 
Q 1406 481 1766 481 
L 2356 481 
L 2356 0 
L 1766 0 
Q 1100 0 847 248 
Q 594 497 594 1153 
L 594 3053 
L 172 3053 
L 172 3500 
L 594 3500 
L 594 4494 
L 1172 4494 
z
" transform="scale(0.015625)"/>
      <path id="DejaVuSans-6f" d="M 1959 3097 
Q 1497 3097 1228 2736 
Q 959 2375 959 1747 
Q 959 1119 1226 758 
Q 1494 397 1959 397 
Q 2419 397 2687 759 
Q 2956 1122 2956 1747 
Q 2956 2369 2687 2733 
Q 2419 3097 1959 3097 
z
M 1959 3584 
Q 2709 3584 3137 3096 
Q 3566 2609 3566 1747 
Q 3566 888 3137 398 
Q 2709 -91 1959 -91 
Q 1206 -91 779 398 
Q 353 888 353 1747 
Q 353 2609 779 3096 
Q 1206 3584 1959 3584 
z
" transform="scale(0.015625)"/>
      <path id="DejaVuSans-76" d="M 191 3500 
L 800 3500 
L 1894 563 
L 2988 3500 
L 3597 3500 
L 2284 0 
L 1503 0 
L 191 3500 
z
" transform="scale(0.015625)"/>
      <path id="DejaVuSans-2014" d="M 313 1978 
L 6088 1978 
L 6088 1528 
L 313 1528 
L 313 1978 
z
" transform="scale(0.015625)"/>
      <path id="DejaVuSans-50" d="M 1259 4147 
L 1259 2394 
L 2053 2394 
Q 2494 2394 2734 2622 
Q 2975 2850 2975 3272 
Q 2975 3691 2734 3919 
Q 2494 4147 2053 4147 
L 1259 4147 
z
M 628 4666 
L 2053 4666 
Q 2838 4666 3239 4311 
Q 3641 3956 3641 3272 
Q 3641 2581 3239 2228 
Q 2838 1875 2053 1875 
L 1259 1875 
L 1259 0 
L 628 0 
L 628 4666 
z
" transform="scale(0.015625)"/>
      <path id="DejaVuSans-46" d="M 628 4666 
L 3309 4666 
L 3309 4134 
L 1259 4134 
L 1259 2759 
L 3109 2759 
L 3109 2228 
L 1259 2228 
L 1259 0 
L 628 0 
L 628 4666 
z
" transform="scale(0.015625)"/>
     </defs>
     <use xlink:href="#DejaVuSans-53"/>
     <use xlink:href="#DejaVuSans-45" transform="translate(63.476562 0)"/>
     <use xlink:href="#DejaVuSans-43" transform="translate(126.660156 0)"/>
     <use xlink:href="#DejaVuSans-54" transform="translate(196.484375 0)"/>
     <use xlink:href="#DejaVuSans-49" transform="translate(257.568359 0)"/>
     <use xlink:href="#DejaVuSans-4f" transform="translate(287.060547 0)"/>
     <use xlink:href="#DejaVuSans-4e" transform="translate(365.771484 0)"/>
     <use xlink:href="#DejaVuSans-20" transform="translate(440.576172 0)"/>
     <use xlink:href="#DejaVuSans-32" transform="translate(472.363281 0)"/>
     <use xlink:href="#DejaVuSans-3a" transform="translate(535.986328 0)"/>
     <use xlink:href="#DejaVuSans-20" transform="translate(569.677734 0)"/>
     <use xlink:href="#DejaVuSans-54" transform="translate(601.464844 0)"/>
     <use xlink:href="#DejaVuSans-68" transform="translate(662.548828 0)"/>
     <use xlink:href="#DejaVuSans-65" transform="translate(725.927734 0)"/>
     <use xlink:href="#DejaVuSans-74" transform="translate(787.451172 0)"/>
     <use xlink:href="#DejaVuSans-61" transform="translate(826.660156 0)"/>
     <use xlink:href="#DejaVuSans-20" transform="translate(887.939453 0)"/>
     <use xlink:href="#DejaVuSans-6f" transform="translate(919.726562 0)"/>
     <use xlink:href="#DejaVuSans-76" transform="translate(980.908203 0)"/>
     <use xlink:href="#DejaVuSans-65" transform="translate(1040.087891 0)"/>
     <use xlink:href="#DejaVuSans-72" transform="translate(1101.611328 0)"/>
     <use xlink:href="#DejaVuSans-20" transform="translate(1142.724609 0)"/>
     <use xlink:href="#DejaVuSans-54" transform="translate(1174.511719 0)"/>
     <use xlink:href="#DejaVuSans-69" transform="translate(1232.470703 0)"/>
     <use xlink:href="#DejaVuSans-6d" transform="translate(1260.253906 0)"/>
     <use xlink:href="#DejaVuSans-65" transform="translate(1357.666016 0)"/>
     <use xlink:href="#DejaVuSans-20" transform="translate(1419.189453 0)"/>
     <use xlink:href="#DejaVuSans-2014" transform="translate(1450.976562 0)"/>
     <use xlink:href="#DejaVuSans-20" transform="translate(1550.976562 0)"/>
     <use xlink:href="#DejaVuSans-50" transform="translate(1582.763672 0)"/>
     <use xlink:href="#DejaVuSans-46" transform="translate(1643.066406 0)"/>
     <use xlink:href="#DejaVuSans-20" transform="translate(1700.585938 0)"/>
     <use xlink:href="#DejaVuSans-76" transform="translate(1732.373047 0)"/>
     <use xlink:href="#DejaVuSans-73" transform="translate(1791.552734 0)"/>
     <use xlink:href="#DejaVuSans-20" transform="translate(1843.652344 0)"/>
     <use xlink:href="#DejaVuSans-4f" transform="translate(1875.439453 0)"/>
     <use xlink:href="#DejaVuSans-64" transform="translate(1954.150391 0)"/>
     <use xlink:href="#DejaVuSans-6f" transform="translate(2017.626953 0)"/>
     <use xlink:href="#DejaVuSans-6d" transform="translate(2078.808594 0)"/>
    </g>
   </g>
   <g id="legend_1">
    <g id="patch_7">
     <path d="M 538.146875 59.674375 
L 609.523438 59.674375 
Q 611.523438 59.674375 611.523438 57.674375 
L 611.523438 29.318125 
Q 611.523438 27.318125 609.523438 27.318125 
L 538.146875 27.318125 
Q 536.146875 27.318125 536.146875 29.318125 
L 536.146875 57.674375 
Q 536.146875 59.674375 538.146875 59.674375 
z
" style="fill: #ffffff; opacity: 0.8; stroke: #cccccc; stroke-linejoin: miter"/>
    </g>
    <g id="line2d_31">
     <path d="M 540.146875 35.416562 
L 550.146875 35.416562 
L 560.146875 35.416562 
" style="fill: none; stroke-dasharray: 5.55,2.4; stroke-dashoffset: 0; stroke: #1f77b4; stroke-width: 1.5"/>
    </g>
    <g id="text_18">
     <!-- Odom θ -->
     <g transform="translate(568.146875 38.916562) scale(0.1 -0.1)">
      <use xlink:href="#DejaVuSans-4f"/>
      <use xlink:href="#DejaVuSans-64" transform="translate(78.710938 0)"/>
      <use xlink:href="#DejaVuSans-6f" transform="translate(142.1875 0)"/>
      <use xlink:href="#DejaVuSans-6d" transform="translate(203.369141 0)"/>
      <use xlink:href="#DejaVuSans-20" transform="translate(300.78125 0)"/>
      <use xlink:href="#DejaVuSans-3b8" transform="translate(332.568359 0)"/>
     </g>
    </g>
    <g id="line2d_32">
     <path d="M 540.146875 50.094687 
L 550.146875 50.094687 
L 560.146875 50.094687 
" style="fill: none; stroke: #ff7f0e; stroke-width: 1.5; stroke-linecap: square"/>
    </g>
    <g id="text_19">
     <!-- PF θ -->
     <g transform="translate(568.146875 53.594687) scale(0.1 -0.1)">
      <use xlink:href="#DejaVuSans-50"/>
      <use xlink:href="#DejaVuSans-46" transform="translate(60.302734 0)"/>
      <use xlink:href="#DejaVuSans-20" transform="translate(117.822266 0)"/>
      <use xlink:href="#DejaVuSans-3b8" transform="translate(149.609375 0)"/>
     </g>
    </g>
   </g>
  </g>
 </g>
 <defs>
  <clipPath id="pbd886953c2">
   <rect x="58.523438" y="22.318125" width="558" height="332.64"/>
  </clipPath>
 </defs>
</svg>
