<?xml version="1.0" encoding="utf-8" standalone="no"?>
<!DOCTYPE svg PUBLIC "-//W3C//DTD SVG 1.1//EN"
  "http://www.w3.org/Graphics/SVG/1.1/DTD/svg11.dtd">
<svg xmlns:xlink="http://www.w3.org/1999/xlink" width="505.760937pt" height="392.514375pt" viewBox="0 0 505.760937 392.514375" xmlns="http://www.w3.org/2000/svg" version="1.1">
 <metadata>
  <rdf:RDF xmlns:dc="http://purl.org/dc/elements/1.1/" xmlns:cc="http://creativecommons.org/ns#" xmlns:rdf="http://www.w3.org/1999/02/22-rdf-syntax-ns#">
   <cc:Work>
    <dc:type rdf:resource="http://purl.org/dc/dcmitype/StillImage"/>
    <dc:date>2025-10-31T18:53:27.927212</dc:date>
    <dc:format>image/svg+xml</dc:format>
    <dc:creator>
     <cc:Agent>
      <dc:title>Matplotlib v3.10.6, https://matplotlib.org/</dc:title>
     </cc:Agent>
    </dc:creator>
   </cc:Work>
  </rdf:RDF>
 </metadata>
 <defs>
  <style type="text/css">*{stroke-linejoin: round; stroke-linecap: butt}</style>
 </defs>
 <g id="figure_1">
  <g id="patch_1">
   <path d="M 0 392.514375 
L 505.760937 392.514375 
L 505.760937 0 
L 0 0 
z
" style="fill: #ffffff"/>
  </g>
  <g id="axes_1">
   <g id="patch_2">
    <path d="M 52.160938 354.958125 
L 498.560937 354.958125 
L 498.560937 22.318125 
L 52.160938 22.318125 
z
" style="fill: #ffffff"/>
   </g>
   <g id="matplotlib.axis_1">
    <g id="xtick_1">
     <g id="line2d_1">
      <path d="M 63.392327 354.958125 
L 63.392327 22.318125 
" clip-path="url(#pd4cb1bd61c)" style="fill: none; stroke: #b0b0b0; stroke-width: 0.8; stroke-linecap: square"/>
     </g>
     <g id="line2d_2">
      <defs>
       <path id="m21389caadd" d="M 0 0 
L 0 3.5 
" style="stroke: #000000; stroke-width: 0.8"/>
      </defs>
      <g>
       <use xlink:href="#m21389caadd" x="63.392327" y="354.958125" style="stroke: #000000; stroke-width: 0.8"/>
      </g>
     </g>
     <g id="text_1">
      <!-- 0.0 -->
      <g transform="translate(55.440765 369.556562) scale(0.1 -0.1)">
       <defs>
        <path id="DejaVuSans-30" d="M 2034 4250 
Q 1547 4250 1301 3770 
Q 1056 3291 1056 2328 
Q 1056 1369 1301 889 
Q 1547 409 2034 409 
Q 2525 409 2770 889 
Q 3016 1369 3016 2328 
Q 3016 3291 2770 3770 
Q 2525 4250 2034 4250 
z
M 2034 4750 
Q 2819 4750 3233 4129 
Q 3647 3509 3647 2328 
Q 3647 1150 3233 529 
Q 2819 -91 2034 -91 
Q 1250 -91 836 529 
Q 422 1150 422 2328 
Q 422 3509 836 4129 
Q 1250 4750 2034 4750 
z
" transform="scale(0.015625)"/>
        <path id="DejaVuSans-2e" d="M 684 794 
L 1344 794 
L 1344 0 
L 684 0 
L 684 794 
z
" transform="scale(0.015625)"/>
       </defs>
       <use xlink:href="#DejaVuSans-30"/>
       <use xlink:href="#DejaVuSans-2e" transform="translate(63.623047 0)"/>
       <use xlink:href="#DejaVuSans-30" transform="translate(95.410156 0)"/>
      </g>
     </g>
    </g>
    <g id="xtick_2">
     <g id="line2d_3">
      <path d="M 119.83403 354.958125 
L 119.83403 22.318125 
" clip-path="url(#pd4cb1bd61c)" style="fill: none; stroke: #b0b0b0; stroke-width: 0.8; stroke-linecap: square"/>
     </g>
     <g id="line2d_4">
      <g>
       <use xlink:href="#m21389caadd" x="119.83403" y="354.958125" style="stroke: #000000; stroke-width: 0.8"/>
      </g>
     </g>
     <g id="text_2">
      <!-- 0.2 -->
      <g transform="translate(111.882468 369.556562) scale(0.1 -0.1)">
       <defs>
        <path id="DejaVuSans-32" d="M 1228 531 
L 3431 531 
L 3431 0 
L 469 0 
L 469 531 
Q 828 903 1448 1529 
Q 2069 2156 2228 2338 
Q 2531 2678 2651 2914 
Q 2772 3150 2772 3378 
Q 2772 3750 2511 3984 
Q 2250 4219 1831 4219 
Q 1534 4219 1204 4116 
Q 875 4013 500 3803 
L 500 4441 
Q 881 4594 1212 4672 
Q 1544 4750 1819 4750 
Q 2544 4750 2975 4387 
Q 3406 4025 3406 3419 
Q 3406 3131 3298 2873 
Q 3191 2616 2906 2266 
Q 2828 2175 2409 1742 
Q 1991 1309 1228 531 
z
" transform="scale(0.015625)"/>
       </defs>
       <use xlink:href="#DejaVuSans-30"/>
       <use xlink:href="#DejaVuSans-2e" transform="translate(63.623047 0)"/>
       <use xlink:href="#DejaVuSans-32" transform="translate(95.410156 0)"/>
      </g>
     </g>
    </g>
    <g id="xtick_3">
     <g id="line2d_5">
      <path d="M 176.275733 354.958125 
L 176.275733 22.318125 
" clip-path="url(#pd4cb1bd61c)" style="fill: none; stroke: #b0b0b0; stroke-width: 0.8; stroke-linecap: square"/>
     </g>
     <g id="line2d_6">
      <g>
       <use xlink:href="#m21389caadd" x="176.275733" y="354.958125" style="stroke: #000000; stroke-width: 0.8"/>
      </g>
     </g>
     <g id="text_3">
      <!-- 0.4 -->
      <g transform="translate(168.324171 369.556562) scale(0.1 -0.1)">
       <defs>
        <path id="DejaVuSans-34" d="M 2419 4116 
L 825 1625 
L 2419 1625 
L 2419 4116 
z
M 2253 4666 
L 3047 4666 
L 3047 1625 
L 3713 1625 
L 3713 1100 
L 3047 1100 
L 3047 0 
L 2419 0 
L 2419 1100 
L 313 1100 
L 313 1709 
L 2253 4666 
z
" transform="scale(0.015625)"/>
       </defs>
       <use xlink:href="#DejaVuSans-30"/>
       <use xlink:href="#DejaVuSans-2e" transform="translate(63.623047 0)"/>
       <use xlink:href="#DejaVuSans-34" transform="translate(95.410156 0)"/>
      </g>
     </g>
    </g>
    <g id="xtick_4">
     <g id="line2d_7">
      <path d="M 232.717436 354.958125 
L 232.717436 22.318125 
" clip-path="url(#pd4cb1bd61c)" style="fill: none; stroke: #b0b0b0; stroke-width: 0.8; stroke-linecap: square"/>
     </g>
     <g id="line2d_8">
      <g>
       <use xlink:href="#m21389caadd" x="232.717436" y="354.958125" style="stroke: #000000; stroke-width: 0.8"/>
      </g>
     </g>
     <g id="text_4">
      <!-- 0.6 -->
      <g transform="translate(224.765874 369.556562) scale(0.1 -0.1)">
       <defs>
        <path id="DejaVuSans-36" d="M 2113 2584 
Q 1688 2584 1439 2293 
Q 1191 2003 1191 1497 
Q 1191 994 1439 701 
Q 1688 409 2113 409 
Q 2538 409 2786 701 
Q 3034 994 3034 1497 
Q 3034 2003 2786 2293 
Q 2538 2584 2113 2584 
z
M 3366 4563 
L 3366 3988 
Q 3128 4100 2886 4159 
Q 2644 4219 2406 4219 
Q 1781 4219 1451 3797 
Q 1122 3375 1075 2522 
Q 1259 2794 1537 2939 
Q 1816 3084 2150 3084 
Q 2853 3084 3261 2657 
Q 3669 2231 3669 1497 
Q 3669 778 3244 343 
Q 2819 -91 2113 -91 
Q 1303 -91 875 529 
Q 447 1150 447 2328 
Q 447 3434 972 4092 
Q 1497 4750 2381 4750 
Q 2619 4750 2861 4703 
Q 3103 4656 3366 4563 
z
" transform="scale(0.015625)"/>
       </defs>
       <use xlink:href="#DejaVuSans-30"/>
       <use xlink:href="#DejaVuSans-2e" transform="translate(63.623047 0)"/>
       <use xlink:href="#DejaVuSans-36" transform="translate(95.410156 0)"/>
      </g>
     </g>
    </g>
    <g id="xtick_5">
     <g id="line2d_9">
      <path d="M 289.159139 354.958125 
L 289.159139 22.318125 
" clip-path="url(#pd4cb1bd61c)" style="fill: none; stroke: #b0b0b0; stroke-width: 0.8; stroke-linecap: square"/>
     </g>
     <g id="line2d_10">
      <g>
       <use xlink:href="#m21389caadd" x="289.159139" y="354.958125" style="stroke: #000000; stroke-width: 0.8"/>
      </g>
     </g>
     <g id="text_5">
      <!-- 0.8 -->
      <g transform="translate(281.207577 369.556562) scale(0.1 -0.1)">
       <defs>
        <path id="DejaVuSans-38" d="M 2034 2216 
Q 1584 2216 1326 1975 
Q 1069 1734 1069 1313 
Q 1069 891 1326 650 
Q 1584 409 2034 409 
Q 2484 409 2743 651 
Q 3003 894 3003 1313 
Q 3003 1734 2745 1975 
Q 2488 2216 2034 2216 
z
M 1403 2484 
Q 997 2584 770 2862 
Q 544 3141 544 3541 
Q 544 4100 942 4425 
Q 1341 4750 2034 4750 
Q 2731 4750 3128 4425 
Q 3525 4100 3525 3541 
Q 3525 3141 3298 2862 
Q 3072 2584 2669 2484 
Q 3125 2378 3379 2068 
Q 3634 1759 3634 1313 
Q 3634 634 3220 271 
Q 2806 -91 2034 -91 
Q 1263 -91 848 271 
Q 434 634 434 1313 
Q 434 1759 690 2068 
Q 947 2378 1403 2484 
z
M 1172 3481 
Q 1172 3119 1398 2916 
Q 1625 2713 2034 2713 
Q 2441 2713 2670 2916 
Q 2900 3119 2900 3481 
Q 2900 3844 2670 4047 
Q 2441 4250 2034 4250 
Q 1625 4250 1398 4047 
Q 1172 3844 1172 3481 
z
" transform="scale(0.015625)"/>
       </defs>
       <use xlink:href="#DejaVuSans-30"/>
       <use xlink:href="#DejaVuSans-2e" transform="translate(63.623047 0)"/>
       <use xlink:href="#DejaVuSans-38" transform="translate(95.410156 0)"/>
      </g>
     </g>
    </g>
    <g id="xtick_6">
     <g id="line2d_11">
      <path d="M 345.600842 354.958125 
L 345.600842 22.318125 
" clip-path="url(#pd4cb1bd61c)" style="fill: none; stroke: #b0b0b0; stroke-width: 0.8; stroke-linecap: square"/>
     </g>
     <g id="line2d_12">
      <g>
       <use xlink:href="#m21389caadd" x="345.600842" y="354.958125" style="stroke: #000000; stroke-width: 0.8"/>
      </g>
     </g>
     <g id="text_6">
      <!-- 1.0 -->
      <g transform="translate(337.64928 369.556562) scale(0.1 -0.1)">
       <defs>
        <path id="DejaVuSans-31" d="M 794 531 
L 1825 531 
L 1825 4091 
L 703 3866 
L 703 4441 
L 1819 4666 
L 2450 4666 
L 2450 531 
L 3481 531 
L 3481 0 
L 794 0 
L 794 531 
z
" transform="scale(0.015625)"/>
       </defs>
       <use xlink:href="#DejaVuSans-31"/>
       <use xlink:href="#DejaVuSans-2e" transform="translate(63.623047 0)"/>
       <use xlink:href="#DejaVuSans-30" transform="translate(95.410156 0)"/>
      </g>
     </g>
    </g>
    <g id="xtick_7">
     <g id="line2d_13">
      <path d="M 402.042545 354.958125 
L 402.042545 22.318125 
" clip-path="url(#pd4cb1bd61c)" style="fill: none; stroke: #b0b0b0; stroke-width: 0.8; stroke-linecap: square"/>
     </g>
     <g id="line2d_14">
      <g>
       <use xlink:href="#m21389caadd" x="402.042545" y="354.958125" style="stroke: #000000; stroke-width: 0.8"/>
      </g>
     </g>
     <g id="text_7">
      <!-- 1.2 -->
      <g transform="translate(394.090983 369.556562) scale(0.1 -0.1)">
       <use xlink:href="#DejaVuSans-31"/>
       <use xlink:href="#DejaVuSans-2e" transform="translate(63.623047 0)"/>
       <use xlink:href="#DejaVuSans-32" transform="translate(95.410156 0)"/>
      </g>
     </g>
    </g>
    <g id="xtick_8">
     <g id="line2d_15">
      <path d="M 458.484248 354.958125 
L 458.484248 22.318125 
" clip-path="url(#pd4cb1bd61c)" style="fill: none; stroke: #b0b0b0; stroke-width: 0.8; stroke-linecap: square"/>
     </g>
     <g id="line2d_16">
      <g>
       <use xlink:href="#m21389caadd" x="458.484248" y="354.958125" style="stroke: #000000; stroke-width: 0.8"/>
      </g>
     </g>
     <g id="text_8">
      <!-- 1.4 -->
      <g transform="translate(450.532686 369.556562) scale(0.1 -0.1)">
       <use xlink:href="#DejaVuSans-31"/>
       <use xlink:href="#DejaVuSans-2e" transform="translate(63.623047 0)"/>
       <use xlink:href="#DejaVuSans-34" transform="translate(95.410156 0)"/>
      </g>
     </g>
    </g>
    <g id="text_9">
     <!-- Error (m) -->
     <g transform="translate(252.814844 383.234687) scale(0.1 -0.1)">
      <defs>
       <path id="DejaVuSans-45" d="M 628 4666 
L 3578 4666 
L 3578 4134 
L 1259 4134 
L 1259 2753 
L 3481 2753 
L 3481 2222 
L 1259 2222 
L 1259 531 
L 3634 531 
L 3634 0 
L 628 0 
L 628 4666 
z
" transform="scale(0.015625)"/>
       <path id="DejaVuSans-72" d="M 2631 2963 
Q 2534 3019 2420 3045 
Q 2306 3072 2169 3072 
Q 1681 3072 1420 2755 
Q 1159 2438 1159 1844 
L 1159 0 
L 581 0 
L 581 3500 
L 1159 3500 
L 1159 2956 
Q 1341 3275 1631 3429 
Q 1922 3584 2338 3584 
Q 2397 3584 2469 3576 
Q 2541 3569 2628 3553 
L 2631 2963 
z
" transform="scale(0.015625)"/>
       <path id="DejaVuSans-6f" d="M 1959 3097 
Q 1497 3097 1228 2736 
Q 959 2375 959 1747 
Q 959 1119 1226 758 
Q 1494 397 1959 397 
Q 2419 397 2687 759 
Q 2956 1122 2956 1747 
Q 2956 2369 2687 2733 
Q 2419 3097 1959 3097 
z
M 1959 3584 
Q 2709 3584 3137 3096 
Q 3566 2609 3566 1747 
Q 3566 888 3137 398 
Q 2709 -91 1959 -91 
Q 1206 -91 779 398 
Q 353 888 353 1747 
Q 353 2609 779 3096 
Q 1206 3584 1959 3584 
z
" transform="scale(0.015625)"/>
       <path id="DejaVuSans-20" transform="scale(0.015625)"/>
       <path id="DejaVuSans-28" d="M 1984 4856 
Q 1566 4138 1362 3434 
Q 1159 2731 1159 2009 
Q 1159 1288 1364 580 
Q 1569 -128 1984 -844 
L 1484 -844 
Q 1016 -109 783 600 
Q 550 1309 550 2009 
Q 550 2706 781 3412 
Q 1013 4119 1484 4856 
L 1984 4856 
z
" transform="scale(0.015625)"/>
       <path id="DejaVuSans-6d" d="M 3328 2828 
Q 3544 3216 3844 3400 
Q 4144 3584 4550 3584 
Q 5097 3584 5394 3201 
Q 5691 2819 5691 2113 
L 5691 0 
L 5113 0 
L 5113 2094 
Q 5113 2597 4934 2840 
Q 4756 3084 4391 3084 
Q 3944 3084 3684 2787 
Q 3425 2491 3425 1978 
L 3425 0 
L 2847 0 
L 2847 2094 
Q 2847 2600 2669 2842 
Q 2491 3084 2119 3084 
Q 1678 3084 1418 2786 
Q 1159 2488 1159 1978 
L 1159 0 
L 581 0 
L 581 3500 
L 1159 3500 
L 1159 2956 
Q 1356 3278 1631 3431 
Q 1906 3584 2284 3584 
Q 2666 3584 2933 3390 
Q 3200 3197 3328 2828 
z
" transform="scale(0.015625)"/>
       <path id="DejaVuSans-29" d="M 513 4856 
L 1013 4856 
Q 1481 4119 1714 3412 
Q 1947 2706 1947 2009 
Q 1947 1309 1714 600 
Q 1481 -109 1013 -844 
L 513 -844 
Q 928 -128 1133 580 
Q 1338 1288 1338 2009 
Q 1338 2731 1133 3434 
Q 928 4138 513 4856 
z
" transform="scale(0.015625)"/>
      </defs>
      <use xlink:href="#DejaVuSans-45"/>
      <use xlink:href="#DejaVuSans-72" transform="translate(63.183594 0)"/>
      <use xlink:href="#DejaVuSans-72" transform="translate(102.546875 0)"/>
      <use xlink:href="#DejaVuSans-6f" transform="translate(141.410156 0)"/>
      <use xlink:href="#DejaVuSans-72" transform="translate(202.591797 0)"/>
      <use xlink:href="#DejaVuSans-20" transform="translate(243.705078 0)"/>
      <use xlink:href="#DejaVuSans-28" transform="translate(275.492188 0)"/>
      <use xlink:href="#DejaVuSans-6d" transform="translate(314.505859 0)"/>
      <use xlink:href="#DejaVuSans-29" transform="translate(411.917969 0)"/>
     </g>
    </g>
   </g>
   <g id="matplotlib.axis_2">
    <g id="ytick_1">
     <g id="line2d_17">
      <path d="M 52.160938 331.003417 
L 498.560937 331.003417 
" clip-path="url(#pd4cb1bd61c)" style="fill: none; stroke: #b0b0b0; stroke-width: 0.8; stroke-linecap: square"/>
     </g>
     <g id="line2d_18">
      <defs>
       <path id="mbda6171e2d" d="M 0 0 
L -3.5 0 
" style="stroke: #000000; stroke-width: 0.8"/>
      </defs>
      <g>
       <use xlink:href="#mbda6171e2d" x="52.160938" y="331.003417" style="stroke: #000000; stroke-width: 0.8"/>
      </g>
     </g>
     <g id="text_10">
      <!-- −0.3 -->
      <g transform="translate(20.878125 334.802636) scale(0.1 -0.1)">
       <defs>
        <path id="DejaVuSans-2212" d="M 678 2272 
L 4684 2272 
L 4684 1741 
L 678 1741 
L 678 2272 
z
" transform="scale(0.015625)"/>
        <path id="DejaVuSans-33" d="M 2597 2516 
Q 3050 2419 3304 2112 
Q 3559 1806 3559 1356 
Q 3559 666 3084 287 
Q 2609 -91 1734 -91 
Q 1441 -91 1130 -33 
Q 819 25 488 141 
L 488 750 
Q 750 597 1062 519 
Q 1375 441 1716 441 
Q 2309 441 2620 675 
Q 2931 909 2931 1356 
Q 2931 1769 2642 2001 
Q 2353 2234 1838 2234 
L 1294 2234 
L 1294 2753 
L 1863 2753 
Q 2328 2753 2575 2939 
Q 2822 3125 2822 3475 
Q 2822 3834 2567 4026 
Q 2313 4219 1838 4219 
Q 1578 4219 1281 4162 
Q 984 4106 628 3988 
L 628 4550 
Q 988 4650 1302 4700 
Q 1616 4750 1894 4750 
Q 2613 4750 3031 4423 
Q 3450 4097 3450 3541 
Q 3450 3153 3228 2886 
Q 3006 2619 2597 2516 
z
" transform="scale(0.015625)"/>
       </defs>
       <use xlink:href="#DejaVuSans-2212"/>
       <use xlink:href="#DejaVuSans-30" transform="translate(83.789062 0)"/>
       <use xlink:href="#DejaVuSans-2e" transform="translate(147.412109 0)"/>
       <use xlink:href="#DejaVuSans-33" transform="translate(179.199219 0)"/>
      </g>
     </g>
    </g>
    <g id="ytick_2">
     <g id="line2d_19">
      <path d="M 52.160938 260.677428 
L 498.560937 260.677428 
" clip-path="url(#pd4cb1bd61c)" style="fill: none; stroke: #b0b0b0; stroke-width: 0.8; stroke-linecap: square"/>
     </g>
     <g id="line2d_20">
      <g>
       <use xlink:href="#mbda6171e2d" x="52.160938" y="260.677428" style="stroke: #000000; stroke-width: 0.8"/>
      </g>
     </g>
     <g id="text_11">
      <!-- −0.2 -->
      <g transform="translate(20.878125 264.476646) scale(0.1 -0.1)">
       <use xlink:href="#DejaVuSans-2212"/>
       <use xlink:href="#DejaVuSans-30" transform="translate(83.789062 0)"/>
       <use xlink:href="#DejaVuSans-2e" transform="translate(147.412109 0)"/>
       <use xlink:href="#DejaVuSans-32" transform="translate(179.199219 0)"/>
      </g>
     </g>
    </g>
    <g id="ytick_3">
     <g id="line2d_21">
      <path d="M 52.160938 190.351438 
L 498.560937 190.351438 
" clip-path="url(#pd4cb1bd61c)" style="fill: none; stroke: #b0b0b0; stroke-width: 0.8; stroke-linecap: square"/>
     </g>
     <g id="line2d_22">
      <g>
       <use xlink:href="#mbda6171e2d" x="52.160938" y="190.351438" style="stroke: #000000; stroke-width: 0.8"/>
      </g>
     </g>
     <g id="text_12">
      <!-- −0.1 -->
      <g transform="translate(20.878125 194.150657) scale(0.1 -0.1)">
       <use xlink:href="#DejaVuSans-2212"/>
       <use xlink:href="#DejaVuSans-30" transform="translate(83.789062 0)"/>
       <use xlink:href="#DejaVuSans-2e" transform="translate(147.412109 0)"/>
       <use xlink:href="#DejaVuSans-31" transform="translate(179.199219 0)"/>
      </g>
     </g>
    </g>
    <g id="ytick_4">
     <g id="line2d_23">
      <path d="M 52.160938 120.025449 
L 498.560937 120.025449 
" clip-path="url(#pd4cb1bd61c)" style="fill: none; stroke: #b0b0b0; stroke-width: 0.8; stroke-linecap: square"/>
     </g>
     <g id="line2d_24">
      <g>
       <use xlink:href="#mbda6171e2d" x="52.160938" y="120.025449" style="stroke: #000000; stroke-width: 0.8"/>
      </g>
     </g>
     <g id="text_13">
      <!-- 0.0 -->
      <g transform="translate(29.257812 123.824668) scale(0.1 -0.1)">
       <use xlink:href="#DejaVuSans-30"/>
       <use xlink:href="#DejaVuSans-2e" transform="translate(63.623047 0)"/>
       <use xlink:href="#DejaVuSans-30" transform="translate(95.410156 0)"/>
      </g>
     </g>
    </g>
    <g id="ytick_5">
     <g id="line2d_25">
      <path d="M 52.160938 49.69946 
L 498.560937 49.69946 
" clip-path="url(#pd4cb1bd61c)" style="fill: none; stroke: #b0b0b0; stroke-width: 0.8; stroke-linecap: square"/>
     </g>
     <g id="line2d_26">
      <g>
       <use xlink:href="#mbda6171e2d" x="52.160938" y="49.69946" style="stroke: #000000; stroke-width: 0.8"/>
      </g>
     </g>
     <g id="text_14">
      <!-- 0.1 -->
      <g transform="translate(29.257812 53.498678) scale(0.1 -0.1)">
       <use xlink:href="#DejaVuSans-30"/>
       <use xlink:href="#DejaVuSans-2e" transform="translate(63.623047 0)"/>
       <use xlink:href="#DejaVuSans-31" transform="translate(95.410156 0)"/>
      </g>
     </g>
    </g>
    <g id="text_15">
     <!-- Error Dot (m/s) -->
     <g transform="translate(14.798437 225.931875) rotate(-90) scale(0.1 -0.1)">
      <defs>
       <path id="DejaVuSans-44" d="M 1259 4147 
L 1259 519 
L 2022 519 
Q 2988 519 3436 956 
Q 3884 1394 3884 2338 
Q 3884 3275 3436 3711 
Q 2988 4147 2022 4147 
L 1259 4147 
z
M 628 4666 
L 1925 4666 
Q 3281 4666 3915 4102 
Q 4550 3538 4550 2338 
Q 4550 1131 3912 565 
Q 3275 0 1925 0 
L 628 0 
L 628 4666 
z
" transform="scale(0.015625)"/>
       <path id="DejaVuSans-74" d="M 1172 4494 
L 1172 3500 
L 2356 3500 
L 2356 3053 
L 1172 3053 
L 1172 1153 
Q 1172 725 1289 603 
Q 1406 481 1766 481 
L 2356 481 
L 2356 0 
L 1766 0 
Q 1100 0 847 248 
Q 594 497 594 1153 
L 594 3053 
L 172 3053 
L 172 3500 
L 594 3500 
L 594 4494 
L 1172 4494 
z
" transform="scale(0.015625)"/>
       <path id="DejaVuSans-2f" d="M 1625 4666 
L 2156 4666 
L 531 -594 
L 0 -594 
L 1625 4666 
z
" transform="scale(0.015625)"/>
       <path id="DejaVuSans-73" d="M 2834 3397 
L 2834 2853 
Q 2591 2978 2328 3040 
Q 2066 3103 1784 3103 
Q 1356 3103 1142 2972 
Q 928 2841 928 2578 
Q 928 2378 1081 2264 
Q 1234 2150 1697 2047 
L 1894 2003 
Q 2506 1872 2764 1633 
Q 3022 1394 3022 966 
Q 3022 478 2636 193 
Q 2250 -91 1575 -91 
Q 1294 -91 989 -36 
Q 684 19 347 128 
L 347 722 
Q 666 556 975 473 
Q 1284 391 1588 391 
Q 1994 391 2212 530 
Q 2431 669 2431 922 
Q 2431 1156 2273 1281 
Q 2116 1406 1581 1522 
L 1381 1569 
Q 847 1681 609 1914 
Q 372 2147 372 2553 
Q 372 3047 722 3315 
Q 1072 3584 1716 3584 
Q 2034 3584 2315 3537 
Q 2597 3491 2834 3397 
z
" transform="scale(0.015625)"/>
      </defs>
      <use xlink:href="#DejaVuSans-45"/>
      <use xlink:href="#DejaVuSans-72" transform="translate(63.183594 0)"/>
      <use xlink:href="#DejaVuSans-72" transform="translate(102.546875 0)"/>
      <use xlink:href="#DejaVuSans-6f" transform="translate(141.410156 0)"/>
      <use xlink:href="#DejaVuSans-72" transform="translate(202.591797 0)"/>
      <use xlink:href="#DejaVuSans-20" transform="translate(243.705078 0)"/>
      <use xlink:href="#DejaVuSans-44" transform="translate(275.492188 0)"/>
      <use xlink:href="#DejaVuSans-6f" transform="translate(352.494141 0)"/>
      <use xlink:href="#DejaVuSans-74" transform="translate(413.675781 0)"/>
      <use xlink:href="#DejaVuSans-20" transform="translate(452.884766 0)"/>
      <use xlink:href="#DejaVuSans-28" transform="translate(484.671875 0)"/>
      <use xlink:href="#DejaVuSans-6d" transform="translate(523.685547 0)"/>
      <use xlink:href="#DejaVuSans-2f" transform="translate(621.097656 0)"/>
      <use xlink:href="#DejaVuSans-73" transform="translate(654.789062 0)"/>
      <use xlink:href="#DejaVuSans-29" transform="translate(706.888672 0)"/>
     </g>
    </g>
   </g>
   <g id="line2d_27">
    <path d="M 462.495437 120.025449 
L 462.495584 120.020979 
L 462.787539 112.588325 
L 463.392886 97.517484 
L 464.305758 82.178539 
L 465.422214 69.995149 
L 466.378844 62.768386 
L 467.964912 52.960309 
L 469.922763 43.61259 
L 471.63564 37.995925 
L 473.13873 37.438125 
L 475.864415 45.104 
L 477.551321 61.950956 
L 478.270028 89.435485 
L 477.782965 119.236451 
L 476.162954 146.959014 
L 473.954776 170.59328 
L 469.624474 195.172858 
L 465.340669 224.812816 
L 459.74387 249.789735 
L 454.131305 266.684191 
L 445.791029 283.431358 
L 439.211233 298.689968 
L 431.859889 308.625786 
L 424.329747 313.2024 
L 414.579516 318.779954 
L 407.102829 325.610806 
L 398.695841 329.432229 
L 391.250033 326.149021 
L 380.961206 328.454946 
L 373.102501 338.219052 
L 364.617575 335.826262 
L 356.874097 331.629361 
L 346.559665 333.044499 
L 338.678333 337.585062 
L 330.084583 337.523977 
L 320.981957 333.708773 
L 311.94248 334.26291 
L 304.168931 336.519451 
L 295.592284 335.754911 
L 287.736206 333.044812 
L 277.263613 335.949808 
L 269.485628 337.567775 
L 260.885803 336.032485 
L 253.211252 331.842821 
L 242.73932 333.47216 
L 234.892177 339.838125 
L 226.297751 337.057977 
L 218.756506 329.651788 
L 209.242498 321.620558 
L 202.309227 316.469553 
L 194.977342 308.770551 
L 188.862737 293.765023 
L 181.032076 284.686272 
L 175.524292 278.606293 
L 169.566584 271.302932 
L 163.441468 264.57672 
L 158.173459 254.25233 
L 153.666859 247.172477 
L 148.893764 242.030454 
L 144.775343 236.498806 
L 139.635165 230.359232 
L 136.048081 223.10318 
L 132.298178 218.910771 
L 128.763126 213.257802 
L 124.842742 206.520266 
L 121.841103 204.058196 
L 118.716742 200.539546 
L 116.186833 193.522032 
L 112.834286 189.736824 
L 110.41527 188.67642 
L 107.965752 184.050806 
L 105.850817 179.530549 
L 103.135875 177.403508 
L 101.141474 176.044441 
L 99.175731 172.143322 
L 97.247312 166.465427 
L 95.403912 164.805801 
L 93.842587 164.491665 
L 92.235573 161.680474 
L 90.873159 158.784282 
L 89.154667 156.68304 
L 87.98276 154.185359 
L 86.722668 151.962945 
L 85.605141 151.025888 
L 84.24154 149.598366 
L 83.288756 147.494532 
L 82.23894 146.301838 
L 81.35498 145.241069 
L 80.174308 144.488481 
L 79.295113 144.520989 
L 78.493505 142.191826 
L 77.67003 139.386797 
L 76.790043 140.303355 
L 76.036527 141.378262 
L 75.183875 141.086266 
L 74.463445 140.565382 
L 73.297923 142.088613 
L 72.451847 143.894518 
" clip-path="url(#pd4cb1bd61c)" style="fill: none; stroke: #008000; stroke-width: 1.5; stroke-linecap: square"/>
    <defs>
     <path id="m748f7d950e" d="M 0 -1 
L -1 1 
L 1 1 
z
" style="stroke: #008000; stroke-linejoin: miter"/>
    </defs>
    <g clip-path="url(#pd4cb1bd61c)">
     <use xlink:href="#m748f7d950e" x="462.495437" y="120.025449" style="fill: #008000; stroke: #008000; stroke-linejoin: miter"/>
     <use xlink:href="#m748f7d950e" x="462.495584" y="120.020979" style="fill: #008000; stroke: #008000; stroke-linejoin: miter"/>
     <use xlink:href="#m748f7d950e" x="462.787539" y="112.588325" style="fill: #008000; stroke: #008000; stroke-linejoin: miter"/>
     <use xlink:href="#m748f7d950e" x="463.392886" y="97.517484" style="fill: #008000; stroke: #008000; stroke-linejoin: miter"/>
     <use xlink:href="#m748f7d950e" x="464.305758" y="82.178539" style="fill: #008000; stroke: #008000; stroke-linejoin: miter"/>
     <use xlink:href="#m748f7d950e" x="465.422214" y="69.995149" style="fill: #008000; stroke: #008000; stroke-linejoin: miter"/>
     <use xlink:href="#m748f7d950e" x="466.378844" y="62.768386" style="fill: #008000; stroke: #008000; stroke-linejoin: miter"/>
     <use xlink:href="#m748f7d950e" x="467.964912" y="52.960309" style="fill: #008000; stroke: #008000; stroke-linejoin: miter"/>
     <use xlink:href="#m748f7d950e" x="469.922763" y="43.61259" style="fill: #008000; stroke: #008000; stroke-linejoin: miter"/>
     <use xlink:href="#m748f7d950e" x="471.63564" y="37.995925" style="fill: #008000; stroke: #008000; stroke-linejoin: miter"/>
     <use xlink:href="#m748f7d950e" x="473.13873" y="37.438125" style="fill: #008000; stroke: #008000; stroke-linejoin: miter"/>
     <use xlink:href="#m748f7d950e" x="475.864415" y="45.104" style="fill: #008000; stroke: #008000; stroke-linejoin: miter"/>
     <use xlink:href="#m748f7d950e" x="477.551321" y="61.950956" style="fill: #008000; stroke: #008000; stroke-linejoin: miter"/>
     <use xlink:href="#m748f7d950e" x="478.270028" y="89.435485" style="fill: #008000; stroke: #008000; stroke-linejoin: miter"/>
     <use xlink:href="#m748f7d950e" x="477.782965" y="119.236451" style="fill: #008000; stroke: #008000; stroke-linejoin: miter"/>
     <use xlink:href="#m748f7d950e" x="476.162954" y="146.959014" style="fill: #008000; stroke: #008000; stroke-linejoin: miter"/>
     <use xlink:href="#m748f7d950e" x="473.954776" y="170.59328" style="fill: #008000; stroke: #008000; stroke-linejoin: miter"/>
     <use xlink:href="#m748f7d950e" x="469.624474" y="195.172858" style="fill: #008000; stroke: #008000; stroke-linejoin: miter"/>
     <use xlink:href="#m748f7d950e" x="465.340669" y="224.812816" style="fill: #008000; stroke: #008000; stroke-linejoin: miter"/>
     <use xlink:href="#m748f7d950e" x="459.74387" y="249.789735" style="fill: #008000; stroke: #008000; stroke-linejoin: miter"/>
     <use xlink:href="#m748f7d950e" x="454.131305" y="266.684191" style="fill: #008000; stroke: #008000; stroke-linejoin: miter"/>
     <use xlink:href="#m748f7d950e" x="445.791029" y="283.431358" style="fill: #008000; stroke: #008000; stroke-linejoin: miter"/>
     <use xlink:href="#m748f7d950e" x="439.211233" y="298.689968" style="fill: #008000; stroke: #008000; stroke-linejoin: miter"/>
     <use xlink:href="#m748f7d950e" x="431.859889" y="308.625786" style="fill: #008000; stroke: #008000; stroke-linejoin: miter"/>
     <use xlink:href="#m748f7d950e" x="424.329747" y="313.2024" style="fill: #008000; stroke: #008000; stroke-linejoin: miter"/>
     <use xlink:href="#m748f7d950e" x="414.579516" y="318.779954" style="fill: #008000; stroke: #008000; stroke-linejoin: miter"/>
     <use xlink:href="#m748f7d950e" x="407.102829" y="325.610806" style="fill: #008000; stroke: #008000; stroke-linejoin: miter"/>
     <use xlink:href="#m748f7d950e" x="398.695841" y="329.432229" style="fill: #008000; stroke: #008000; stroke-linejoin: miter"/>
     <use xlink:href="#m748f7d950e" x="391.250033" y="326.149021" style="fill: #008000; stroke: #008000; stroke-linejoin: miter"/>
     <use xlink:href="#m748f7d950e" x="380.961206" y="328.454946" style="fill: #008000; stroke: #008000; stroke-linejoin: miter"/>
     <use xlink:href="#m748f7d950e" x="373.102501" y="338.219052" style="fill: #008000; stroke: #008000; stroke-linejoin: miter"/>
     <use xlink:href="#m748f7d950e" x="364.617575" y="335.826262" style="fill: #008000; stroke: #008000; stroke-linejoin: miter"/>
     <use xlink:href="#m748f7d950e" x="356.874097" y="331.629361" style="fill: #008000; stroke: #008000; stroke-linejoin: miter"/>
     <use xlink:href="#m748f7d950e" x="346.559665" y="333.044499" style="fill: #008000; stroke: #008000; stroke-linejoin: miter"/>
     <use xlink:href="#m748f7d950e" x="338.678333" y="337.585062" style="fill: #008000; stroke: #008000; stroke-linejoin: miter"/>
     <use xlink:href="#m748f7d950e" x="330.084583" y="337.523977" style="fill: #008000; stroke: #008000; stroke-linejoin: miter"/>
     <use xlink:href="#m748f7d950e" x="320.981957" y="333.708773" style="fill: #008000; stroke: #008000; stroke-linejoin: miter"/>
     <use xlink:href="#m748f7d950e" x="311.94248" y="334.26291" style="fill: #008000; stroke: #008000; stroke-linejoin: miter"/>
     <use xlink:href="#m748f7d950e" x="304.168931" y="336.519451" style="fill: #008000; stroke: #008000; stroke-linejoin: miter"/>
     <use xlink:href="#m748f7d950e" x="295.592284" y="335.754911" style="fill: #008000; stroke: #008000; stroke-linejoin: miter"/>
     <use xlink:href="#m748f7d950e" x="287.736206" y="333.044812" style="fill: #008000; stroke: #008000; stroke-linejoin: miter"/>
     <use xlink:href="#m748f7d950e" x="277.263613" y="335.949808" style="fill: #008000; stroke: #008000; stroke-linejoin: miter"/>
     <use xlink:href="#m748f7d950e" x="269.485628" y="337.567775" style="fill: #008000; stroke: #008000; stroke-linejoin: miter"/>
     <use xlink:href="#m748f7d950e" x="260.885803" y="336.032485" style="fill: #008000; stroke: #008000; stroke-linejoin: miter"/>
     <use xlink:href="#m748f7d950e" x="253.211252" y="331.842821" style="fill: #008000; stroke: #008000; stroke-linejoin: miter"/>
     <use xlink:href="#m748f7d950e" x="242.73932" y="333.47216" style="fill: #008000; stroke: #008000; stroke-linejoin: miter"/>
     <use xlink:href="#m748f7d950e" x="234.892177" y="339.838125" style="fill: #008000; stroke: #008000; stroke-linejoin: miter"/>
     <use xlink:href="#m748f7d950e" x="226.297751" y="337.057977" style="fill: #008000; stroke: #008000; stroke-linejoin: miter"/>
     <use xlink:href="#m748f7d950e" x="218.756506" y="329.651788" style="fill: #008000; stroke: #008000; stroke-linejoin: miter"/>
     <use xlink:href="#m748f7d950e" x="209.242498" y="321.620558" style="fill: #008000; stroke: #008000; stroke-linejoin: miter"/>
     <use xlink:href="#m748f7d950e" x="202.309227" y="316.469553" style="fill: #008000; stroke: #008000; stroke-linejoin: miter"/>
     <use xlink:href="#m748f7d950e" x="194.977342" y="308.770551" style="fill: #008000; stroke: #008000; stroke-linejoin: miter"/>
     <use xlink:href="#m748f7d950e" x="188.862737" y="293.765023" style="fill: #008000; stroke: #008000; stroke-linejoin: miter"/>
     <use xlink:href="#m748f7d950e" x="181.032076" y="284.686272" style="fill: #008000; stroke: #008000; stroke-linejoin: miter"/>
     <use xlink:href="#m748f7d950e" x="175.524292" y="278.606293" style="fill: #008000; stroke: #008000; stroke-linejoin: miter"/>
     <use xlink:href="#m748f7d950e" x="169.566584" y="271.302932" style="fill: #008000; stroke: #008000; stroke-linejoin: miter"/>
     <use xlink:href="#m748f7d950e" x="163.441468" y="264.57672" style="fill: #008000; stroke: #008000; stroke-linejoin: miter"/>
     <use xlink:href="#m748f7d950e" x="158.173459" y="254.25233" style="fill: #008000; stroke: #008000; stroke-linejoin: miter"/>
     <use xlink:href="#m748f7d950e" x="153.666859" y="247.172477" style="fill: #008000; stroke: #008000; stroke-linejoin: miter"/>
     <use xlink:href="#m748f7d950e" x="148.893764" y="242.030454" style="fill: #008000; stroke: #008000; stroke-linejoin: miter"/>
     <use xlink:href="#m748f7d950e" x="144.775343" y="236.498806" style="fill: #008000; stroke: #008000; stroke-linejoin: miter"/>
     <use xlink:href="#m748f7d950e" x="139.635165" y="230.359232" style="fill: #008000; stroke: #008000; stroke-linejoin: miter"/>
     <use xlink:href="#m748f7d950e" x="136.048081" y="223.10318" style="fill: #008000; stroke: #008000; stroke-linejoin: miter"/>
     <use xlink:href="#m748f7d950e" x="132.298178" y="218.910771" style="fill: #008000; stroke: #008000; stroke-linejoin: miter"/>
     <use xlink:href="#m748f7d950e" x="128.763126" y="213.257802" style="fill: #008000; stroke: #008000; stroke-linejoin: miter"/>
     <use xlink:href="#m748f7d950e" x="124.842742" y="206.520266" style="fill: #008000; stroke: #008000; stroke-linejoin: miter"/>
     <use xlink:href="#m748f7d950e" x="121.841103" y="204.058196" style="fill: #008000; stroke: #008000; stroke-linejoin: miter"/>
     <use xlink:href="#m748f7d950e" x="118.716742" y="200.539546" style="fill: #008000; stroke: #008000; stroke-linejoin: miter"/>
     <use xlink:href="#m748f7d950e" x="116.186833" y="193.522032" style="fill: #008000; stroke: #008000; stroke-linejoin: miter"/>
     <use xlink:href="#m748f7d950e" x="112.834286" y="189.736824" style="fill: #008000; stroke: #008000; stroke-linejoin: miter"/>
     <use xlink:href="#m748f7d950e" x="110.41527" y="188.67642" style="fill: #008000; stroke: #008000; stroke-linejoin: miter"/>
     <use xlink:href="#m748f7d950e" x="107.965752" y="184.050806" style="fill: #008000; stroke: #008000; stroke-linejoin: miter"/>
     <use xlink:href="#m748f7d950e" x="105.850817" y="179.530549" style="fill: #008000; stroke: #008000; stroke-linejoin: miter"/>
     <use xlink:href="#m748f7d950e" x="103.135875" y="177.403508" style="fill: #008000; stroke: #008000; stroke-linejoin: miter"/>
     <use xlink:href="#m748f7d950e" x="101.141474" y="176.044441" style="fill: #008000; stroke: #008000; stroke-linejoin: miter"/>
     <use xlink:href="#m748f7d950e" x="99.175731" y="172.143322" style="fill: #008000; stroke: #008000; stroke-linejoin: miter"/>
     <use xlink:href="#m748f7d950e" x="97.247312" y="166.465427" style="fill: #008000; stroke: #008000; stroke-linejoin: miter"/>
     <use xlink:href="#m748f7d950e" x="95.403912" y="164.805801" style="fill: #008000; stroke: #008000; stroke-linejoin: miter"/>
     <use xlink:href="#m748f7d950e" x="93.842587" y="164.491665" style="fill: #008000; stroke: #008000; stroke-linejoin: miter"/>
     <use xlink:href="#m748f7d950e" x="92.235573" y="161.680474" style="fill: #008000; stroke: #008000; stroke-linejoin: miter"/>
     <use xlink:href="#m748f7d950e" x="90.873159" y="158.784282" style="fill: #008000; stroke: #008000; stroke-linejoin: miter"/>
     <use xlink:href="#m748f7d950e" x="89.154667" y="156.68304" style="fill: #008000; stroke: #008000; stroke-linejoin: miter"/>
     <use xlink:href="#m748f7d950e" x="87.98276" y="154.185359" style="fill: #008000; stroke: #008000; stroke-linejoin: miter"/>
     <use xlink:href="#m748f7d950e" x="86.722668" y="151.962945" style="fill: #008000; stroke: #008000; stroke-linejoin: miter"/>
     <use xlink:href="#m748f7d950e" x="85.605141" y="151.025888" style="fill: #008000; stroke: #008000; stroke-linejoin: miter"/>
     <use xlink:href="#m748f7d950e" x="84.24154" y="149.598366" style="fill: #008000; stroke: #008000; stroke-linejoin: miter"/>
     <use xlink:href="#m748f7d950e" x="83.288756" y="147.494532" style="fill: #008000; stroke: #008000; stroke-linejoin: miter"/>
     <use xlink:href="#m748f7d950e" x="82.23894" y="146.301838" style="fill: #008000; stroke: #008000; stroke-linejoin: miter"/>
     <use xlink:href="#m748f7d950e" x="81.35498" y="145.241069" style="fill: #008000; stroke: #008000; stroke-linejoin: miter"/>
     <use xlink:href="#m748f7d950e" x="80.174308" y="144.488481" style="fill: #008000; stroke: #008000; stroke-linejoin: miter"/>
     <use xlink:href="#m748f7d950e" x="79.295113" y="144.520989" style="fill: #008000; stroke: #008000; stroke-linejoin: miter"/>
     <use xlink:href="#m748f7d950e" x="78.493505" y="142.191826" style="fill: #008000; stroke: #008000; stroke-linejoin: miter"/>
     <use xlink:href="#m748f7d950e" x="77.67003" y="139.386797" style="fill: #008000; stroke: #008000; stroke-linejoin: miter"/>
     <use xlink:href="#m748f7d950e" x="76.790043" y="140.303355" style="fill: #008000; stroke: #008000; stroke-linejoin: miter"/>
     <use xlink:href="#m748f7d950e" x="76.036527" y="141.378262" style="fill: #008000; stroke: #008000; stroke-linejoin: miter"/>
     <use xlink:href="#m748f7d950e" x="75.183875" y="141.086266" style="fill: #008000; stroke: #008000; stroke-linejoin: miter"/>
     <use xlink:href="#m748f7d950e" x="74.463445" y="140.565382" style="fill: #008000; stroke: #008000; stroke-linejoin: miter"/>
     <use xlink:href="#m748f7d950e" x="73.297923" y="142.088613" style="fill: #008000; stroke: #008000; stroke-linejoin: miter"/>
     <use xlink:href="#m748f7d950e" x="72.451847" y="143.894518" style="fill: #008000; stroke: #008000; stroke-linejoin: miter"/>
    </g>
   </g>
   <g id="patch_3">
    <path d="M 52.160938 354.958125 
L 52.160938 22.318125 
" style="fill: none; stroke: #000000; stroke-width: 0.8; stroke-linejoin: miter; stroke-linecap: square"/>
   </g>
   <g id="patch_4">
    <path d="M 498.560937 354.958125 
L 498.560937 22.318125 
" style="fill: none; stroke: #000000; stroke-width: 0.8; stroke-linejoin: miter; stroke-linecap: square"/>
   </g>
   <g id="patch_5">
    <path d="M 52.160938 354.958125 
L 498.560938 354.958125 
" style="fill: none; stroke: #000000; stroke-width: 0.8; stroke-linejoin: miter; stroke-linecap: square"/>
   </g>
   <g id="patch_6">
    <path d="M 52.160938 22.318125 
L 498.560938 22.318125 
" style="fill: none; stroke: #000000; stroke-width: 0.8; stroke-linejoin: miter; stroke-linecap: square"/>
   </g>
   <g id="text_16">
    <!-- Position Error vs Error Dot -->
    <g transform="translate(197.811875 16.318125) scale(0.12 -0.12)">
     <defs>
      <path id="DejaVuSans-50" d="M 1259 4147 
L 1259 2394 
L 2053 2394 
Q 2494 2394 2734 2622 
Q 2975 2850 2975 3272 
Q 2975 3691 2734 3919 
Q 2494 4147 2053 4147 
L 1259 4147 
z
M 628 4666 
L 2053 4666 
Q 2838 4666 3239 4311 
Q 3641 3956 3641 3272 
Q 3641 2581 3239 2228 
Q 2838 1875 2053 1875 
L 1259 1875 
L 1259 0 
L 628 0 
L 628 4666 
z
" transform="scale(0.015625)"/>
      <path id="DejaVuSans-69" d="M 603 3500 
L 1178 3500 
L 1178 0 
L 603 0 
L 603 3500 
z
M 603 4863 
L 1178 4863 
L 1178 4134 
L 603 4134 
L 603 4863 
z
" transform="scale(0.015625)"/>
      <path id="DejaVuSans-6e" d="M 3513 2113 
L 3513 0 
L 2938 0 
L 2938 2094 
Q 2938 2591 2744 2837 
Q 2550 3084 2163 3084 
Q 1697 3084 1428 2787 
Q 1159 2491 1159 1978 
L 1159 0 
L 581 0 
L 581 3500 
L 1159 3500 
L 1159 2956 
Q 1366 3272 1645 3428 
Q 1925 3584 2291 3584 
Q 2894 3584 3203 3211 
Q 3513 2838 3513 2113 
z
" transform="scale(0.015625)"/>
      <path id="DejaVuSans-76" d="M 191 3500 
L 800 3500 
L 1894 563 
L 2988 3500 
L 3597 3500 
L 2284 0 
L 1503 0 
L 191 3500 
z
" transform="scale(0.015625)"/>
     </defs>
     <use xlink:href="#DejaVuSans-50"/>
     <use xlink:href="#DejaVuSans-6f" transform="translate(56.677734 0)"/>
     <use xlink:href="#DejaVuSans-73" transform="translate(117.859375 0)"/>
     <use xlink:href="#DejaVuSans-69" transform="translate(169.958984 0)"/>
     <use xlink:href="#DejaVuSans-74" transform="translate(197.742188 0)"/>
     <use xlink:href="#DejaVuSans-69" transform="translate(236.951172 0)"/>
     <use xlink:href="#DejaVuSans-6f" transform="translate(264.734375 0)"/>
     <use xlink:href="#DejaVuSans-6e" transform="translate(325.916016 0)"/>
     <use xlink:href="#DejaVuSans-20" transform="translate(389.294922 0)"/>
     <use xlink:href="#DejaVuSans-45" transform="translate(421.082031 0)"/>
     <use xlink:href="#DejaVuSans-72" transform="translate(484.265625 0)"/>
     <use xlink:href="#DejaVuSans-72" transform="translate(523.628906 0)"/>
     <use xlink:href="#DejaVuSans-6f" transform="translate(562.492188 0)"/>
     <use xlink:href="#DejaVuSans-72" transform="translate(623.673828 0)"/>
     <use xlink:href="#DejaVuSans-20" transform="translate(664.787109 0)"/>
     <use xlink:href="#DejaVuSans-76" transform="translate(696.574219 0)"/>
     <use xlink:href="#DejaVuSans-73" transform="translate(755.753906 0)"/>
     <use xlink:href="#DejaVuSans-20" transform="translate(807.853516 0)"/>
     <use xlink:href="#DejaVuSans-45" transform="translate(839.640625 0)"/>
     <use xlink:href="#DejaVuSans-72" transform="translate(902.824219 0)"/>
     <use xlink:href="#DejaVuSans-72" transform="translate(942.1875 0)"/>
     <use xlink:href="#DejaVuSans-6f" transform="translate(981.050781 0)"/>
     <use xlink:href="#DejaVuSans-72" transform="translate(1042.232422 0)"/>
     <use xlink:href="#DejaVuSans-20" transform="translate(1083.345703 0)"/>
     <use xlink:href="#DejaVuSans-44" transform="translate(1115.132812 0)"/>
     <use xlink:href="#DejaVuSans-6f" transform="translate(1192.134766 0)"/>
     <use xlink:href="#DejaVuSans-74" transform="translate(1253.316406 0)"/>
    </g>
   </g>
  </g>
 </g>
 <defs>
  <clipPath id="pd4cb1bd61c">
   <rect x="52.160938" y="22.318125" width="446.4" height="332.64"/>
  </clipPath>
 </defs>
</svg>
