<?xml version="1.0" encoding="utf-8" standalone="no"?>
<!DOCTYPE svg PUBLIC "-//W3C//DTD SVG 1.1//EN"
  "http://www.w3.org/Graphics/SVG/1.1/DTD/svg11.dtd">
<svg xmlns:xlink="http://www.w3.org/1999/xlink" width="505.760937pt" height="392.514375pt" viewBox="0 0 505.760937 392.514375" xmlns="http://www.w3.org/2000/svg" version="1.1">
 <metadata>
  <rdf:RDF xmlns:dc="http://purl.org/dc/elements/1.1/" xmlns:cc="http://creativecommons.org/ns#" xmlns:rdf="http://www.w3.org/1999/02/22-rdf-syntax-ns#">
   <cc:Work>
    <dc:type rdf:resource="http://purl.org/dc/dcmitype/StillImage"/>
    <dc:date>2025-10-31T18:53:28.527478</dc:date>
    <dc:format>image/svg+xml</dc:format>
    <dc:creator>
     <cc:Agent>
      <dc:title>Matplotlib v3.10.6, https://matplotlib.org/</dc:title>
     </cc:Agent>
    </dc:creator>
   </cc:Work>
  </rdf:RDF>
 </metadata>
 <defs>
  <style type="text/css">*{stroke-linejoin: round; stroke-linecap: butt}</style>
 </defs>
 <g id="figure_1">
  <g id="patch_1">
   <path d="M 0 392.514375 
L 505.760937 392.514375 
L 505.760937 0 
L 0 0 
z
" style="fill: #ffffff"/>
  </g>
  <g id="axes_1">
   <g id="patch_2">
    <path d="M 52.160938 354.958125 
L 498.560937 354.958125 
L 498.560937 22.318125 
L 52.160938 22.318125 
z
" style="fill: #ffffff"/>
   </g>
   <g id="matplotlib.axis_1">
    <g id="xtick_1">
     <g id="line2d_1">
      <path d="M 132.281994 354.958125 
L 132.281994 22.318125 
" clip-path="url(#pb684a04d5d)" style="fill: none; stroke: #b0b0b0; stroke-width: 0.8; stroke-linecap: square"/>
     </g>
     <g id="line2d_2">
      <defs>
       <path id="mff6618804d" d="M 0 0 
L 0 3.5 
" style="stroke: #000000; stroke-width: 0.8"/>
      </defs>
      <g>
       <use xlink:href="#mff6618804d" x="132.281994" y="354.958125" style="stroke: #000000; stroke-width: 0.8"/>
      </g>
     </g>
     <g id="text_1">
      <!-- −2.0 -->
      <g transform="translate(120.140588 369.556562) scale(0.1 -0.1)">
       <defs>
        <path id="DejaVuSans-2212" d="M 678 2272 
L 4684 2272 
L 4684 1741 
L 678 1741 
L 678 2272 
z
" transform="scale(0.015625)"/>
        <path id="DejaVuSans-32" d="M 1228 531 
L 3431 531 
L 3431 0 
L 469 0 
L 469 531 
Q 828 903 1448 1529 
Q 2069 2156 2228 2338 
Q 2531 2678 2651 2914 
Q 2772 3150 2772 3378 
Q 2772 3750 2511 3984 
Q 2250 4219 1831 4219 
Q 1534 4219 1204 4116 
Q 875 4013 500 3803 
L 500 4441 
Q 881 4594 1212 4672 
Q 1544 4750 1819 4750 
Q 2544 4750 2975 4387 
Q 3406 4025 3406 3419 
Q 3406 3131 3298 2873 
Q 3191 2616 2906 2266 
Q 2828 2175 2409 1742 
Q 1991 1309 1228 531 
z
" transform="scale(0.015625)"/>
        <path id="DejaVuSans-2e" d="M 684 794 
L 1344 794 
L 1344 0 
L 684 0 
L 684 794 
z
" transform="scale(0.015625)"/>
        <path id="DejaVuSans-30" d="M 2034 4250 
Q 1547 4250 1301 3770 
Q 1056 3291 1056 2328 
Q 1056 1369 1301 889 
Q 1547 409 2034 409 
Q 2525 409 2770 889 
Q 3016 1369 3016 2328 
Q 3016 3291 2770 3770 
Q 2525 4250 2034 4250 
z
M 2034 4750 
Q 2819 4750 3233 4129 
Q 3647 3509 3647 2328 
Q 3647 1150 3233 529 
Q 2819 -91 2034 -91 
Q 1250 -91 836 529 
Q 422 1150 422 2328 
Q 422 3509 836 4129 
Q 1250 4750 2034 4750 
z
" transform="scale(0.015625)"/>
       </defs>
       <use xlink:href="#DejaVuSans-2212"/>
       <use xlink:href="#DejaVuSans-32" transform="translate(83.789062 0)"/>
       <use xlink:href="#DejaVuSans-2e" transform="translate(147.412109 0)"/>
       <use xlink:href="#DejaVuSans-30" transform="translate(179.199219 0)"/>
      </g>
     </g>
    </g>
    <g id="xtick_2">
     <g id="line2d_3">
      <path d="M 216.25669 354.958125 
L 216.25669 22.318125 
" clip-path="url(#pb684a04d5d)" style="fill: none; stroke: #b0b0b0; stroke-width: 0.8; stroke-linecap: square"/>
     </g>
     <g id="line2d_4">
      <g>
       <use xlink:href="#mff6618804d" x="216.25669" y="354.958125" style="stroke: #000000; stroke-width: 0.8"/>
      </g>
     </g>
     <g id="text_2">
      <!-- −1.5 -->
      <g transform="translate(204.115284 369.556562) scale(0.1 -0.1)">
       <defs>
        <path id="DejaVuSans-31" d="M 794 531 
L 1825 531 
L 1825 4091 
L 703 3866 
L 703 4441 
L 1819 4666 
L 2450 4666 
L 2450 531 
L 3481 531 
L 3481 0 
L 794 0 
L 794 531 
z
" transform="scale(0.015625)"/>
        <path id="DejaVuSans-35" d="M 691 4666 
L 3169 4666 
L 3169 4134 
L 1269 4134 
L 1269 2991 
Q 1406 3038 1543 3061 
Q 1681 3084 1819 3084 
Q 2600 3084 3056 2656 
Q 3513 2228 3513 1497 
Q 3513 744 3044 326 
Q 2575 -91 1722 -91 
Q 1428 -91 1123 -41 
Q 819 9 494 109 
L 494 744 
Q 775 591 1075 516 
Q 1375 441 1709 441 
Q 2250 441 2565 725 
Q 2881 1009 2881 1497 
Q 2881 1984 2565 2268 
Q 2250 2553 1709 2553 
Q 1456 2553 1204 2497 
Q 953 2441 691 2322 
L 691 4666 
z
" transform="scale(0.015625)"/>
       </defs>
       <use xlink:href="#DejaVuSans-2212"/>
       <use xlink:href="#DejaVuSans-31" transform="translate(83.789062 0)"/>
       <use xlink:href="#DejaVuSans-2e" transform="translate(147.412109 0)"/>
       <use xlink:href="#DejaVuSans-35" transform="translate(179.199219 0)"/>
      </g>
     </g>
    </g>
    <g id="xtick_3">
     <g id="line2d_5">
      <path d="M 300.231386 354.958125 
L 300.231386 22.318125 
" clip-path="url(#pb684a04d5d)" style="fill: none; stroke: #b0b0b0; stroke-width: 0.8; stroke-linecap: square"/>
     </g>
     <g id="line2d_6">
      <g>
       <use xlink:href="#mff6618804d" x="300.231386" y="354.958125" style="stroke: #000000; stroke-width: 0.8"/>
      </g>
     </g>
     <g id="text_3">
      <!-- −1.0 -->
      <g transform="translate(288.089979 369.556562) scale(0.1 -0.1)">
       <use xlink:href="#DejaVuSans-2212"/>
       <use xlink:href="#DejaVuSans-31" transform="translate(83.789062 0)"/>
       <use xlink:href="#DejaVuSans-2e" transform="translate(147.412109 0)"/>
       <use xlink:href="#DejaVuSans-30" transform="translate(179.199219 0)"/>
      </g>
     </g>
    </g>
    <g id="xtick_4">
     <g id="line2d_7">
      <path d="M 384.206081 354.958125 
L 384.206081 22.318125 
" clip-path="url(#pb684a04d5d)" style="fill: none; stroke: #b0b0b0; stroke-width: 0.8; stroke-linecap: square"/>
     </g>
     <g id="line2d_8">
      <g>
       <use xlink:href="#mff6618804d" x="384.206081" y="354.958125" style="stroke: #000000; stroke-width: 0.8"/>
      </g>
     </g>
     <g id="text_4">
      <!-- −0.5 -->
      <g transform="translate(372.064675 369.556562) scale(0.1 -0.1)">
       <use xlink:href="#DejaVuSans-2212"/>
       <use xlink:href="#DejaVuSans-30" transform="translate(83.789062 0)"/>
       <use xlink:href="#DejaVuSans-2e" transform="translate(147.412109 0)"/>
       <use xlink:href="#DejaVuSans-35" transform="translate(179.199219 0)"/>
      </g>
     </g>
    </g>
    <g id="xtick_5">
     <g id="line2d_9">
      <path d="M 468.180777 354.958125 
L 468.180777 22.318125 
" clip-path="url(#pb684a04d5d)" style="fill: none; stroke: #b0b0b0; stroke-width: 0.8; stroke-linecap: square"/>
     </g>
     <g id="line2d_10">
      <g>
       <use xlink:href="#mff6618804d" x="468.180777" y="354.958125" style="stroke: #000000; stroke-width: 0.8"/>
      </g>
     </g>
     <g id="text_5">
      <!-- 0.0 -->
      <g transform="translate(460.229215 369.556562) scale(0.1 -0.1)">
       <use xlink:href="#DejaVuSans-30"/>
       <use xlink:href="#DejaVuSans-2e" transform="translate(63.623047 0)"/>
       <use xlink:href="#DejaVuSans-30" transform="translate(95.410156 0)"/>
      </g>
     </g>
    </g>
    <g id="text_6">
     <!-- Error (rad) -->
     <g transform="translate(249.391406 383.234687) scale(0.1 -0.1)">
      <defs>
       <path id="DejaVuSans-45" d="M 628 4666 
L 3578 4666 
L 3578 4134 
L 1259 4134 
L 1259 2753 
L 3481 2753 
L 3481 2222 
L 1259 2222 
L 1259 531 
L 3634 531 
L 3634 0 
L 628 0 
L 628 4666 
z
" transform="scale(0.015625)"/>
       <path id="DejaVuSans-72" d="M 2631 2963 
Q 2534 3019 2420 3045 
Q 2306 3072 2169 3072 
Q 1681 3072 1420 2755 
Q 1159 2438 1159 1844 
L 1159 0 
L 581 0 
L 581 3500 
L 1159 3500 
L 1159 2956 
Q 1341 3275 1631 3429 
Q 1922 3584 2338 3584 
Q 2397 3584 2469 3576 
Q 2541 3569 2628 3553 
L 2631 2963 
z
" transform="scale(0.015625)"/>
       <path id="DejaVuSans-6f" d="M 1959 3097 
Q 1497 3097 1228 2736 
Q 959 2375 959 1747 
Q 959 1119 1226 758 
Q 1494 397 1959 397 
Q 2419 397 2687 759 
Q 2956 1122 2956 1747 
Q 2956 2369 2687 2733 
Q 2419 3097 1959 3097 
z
M 1959 3584 
Q 2709 3584 3137 3096 
Q 3566 2609 3566 1747 
Q 3566 888 3137 398 
Q 2709 -91 1959 -91 
Q 1206 -91 779 398 
Q 353 888 353 1747 
Q 353 2609 779 3096 
Q 1206 3584 1959 3584 
z
" transform="scale(0.015625)"/>
       <path id="DejaVuSans-20" transform="scale(0.015625)"/>
       <path id="DejaVuSans-28" d="M 1984 4856 
Q 1566 4138 1362 3434 
Q 1159 2731 1159 2009 
Q 1159 1288 1364 580 
Q 1569 -128 1984 -844 
L 1484 -844 
Q 1016 -109 783 600 
Q 550 1309 550 2009 
Q 550 2706 781 3412 
Q 1013 4119 1484 4856 
L 1984 4856 
z
" transform="scale(0.015625)"/>
       <path id="DejaVuSans-61" d="M 2194 1759 
Q 1497 1759 1228 1600 
Q 959 1441 959 1056 
Q 959 750 1161 570 
Q 1363 391 1709 391 
Q 2188 391 2477 730 
Q 2766 1069 2766 1631 
L 2766 1759 
L 2194 1759 
z
M 3341 1997 
L 3341 0 
L 2766 0 
L 2766 531 
Q 2569 213 2275 61 
Q 1981 -91 1556 -91 
Q 1019 -91 701 211 
Q 384 513 384 1019 
Q 384 1609 779 1909 
Q 1175 2209 1959 2209 
L 2766 2209 
L 2766 2266 
Q 2766 2663 2505 2880 
Q 2244 3097 1772 3097 
Q 1472 3097 1187 3025 
Q 903 2953 641 2809 
L 641 3341 
Q 956 3463 1253 3523 
Q 1550 3584 1831 3584 
Q 2591 3584 2966 3190 
Q 3341 2797 3341 1997 
z
" transform="scale(0.015625)"/>
       <path id="DejaVuSans-64" d="M 2906 2969 
L 2906 4863 
L 3481 4863 
L 3481 0 
L 2906 0 
L 2906 525 
Q 2725 213 2448 61 
Q 2172 -91 1784 -91 
Q 1150 -91 751 415 
Q 353 922 353 1747 
Q 353 2572 751 3078 
Q 1150 3584 1784 3584 
Q 2172 3584 2448 3432 
Q 2725 3281 2906 2969 
z
M 947 1747 
Q 947 1113 1208 752 
Q 1469 391 1925 391 
Q 2381 391 2643 752 
Q 2906 1113 2906 1747 
Q 2906 2381 2643 2742 
Q 2381 3103 1925 3103 
Q 1469 3103 1208 2742 
Q 947 2381 947 1747 
z
" transform="scale(0.015625)"/>
       <path id="DejaVuSans-29" d="M 513 4856 
L 1013 4856 
Q 1481 4119 1714 3412 
Q 1947 2706 1947 2009 
Q 1947 1309 1714 600 
Q 1481 -109 1013 -844 
L 513 -844 
Q 928 -128 1133 580 
Q 1338 1288 1338 2009 
Q 1338 2731 1133 3434 
Q 928 4138 513 4856 
z
" transform="scale(0.015625)"/>
      </defs>
      <use xlink:href="#DejaVuSans-45"/>
      <use xlink:href="#DejaVuSans-72" transform="translate(63.183594 0)"/>
      <use xlink:href="#DejaVuSans-72" transform="translate(102.546875 0)"/>
      <use xlink:href="#DejaVuSans-6f" transform="translate(141.410156 0)"/>
      <use xlink:href="#DejaVuSans-72" transform="translate(202.591797 0)"/>
      <use xlink:href="#DejaVuSans-20" transform="translate(243.705078 0)"/>
      <use xlink:href="#DejaVuSans-28" transform="translate(275.492188 0)"/>
      <use xlink:href="#DejaVuSans-72" transform="translate(314.505859 0)"/>
      <use xlink:href="#DejaVuSans-61" transform="translate(355.619141 0)"/>
      <use xlink:href="#DejaVuSans-64" transform="translate(416.898438 0)"/>
      <use xlink:href="#DejaVuSans-29" transform="translate(480.375 0)"/>
     </g>
    </g>
   </g>
   <g id="matplotlib.axis_2">
    <g id="ytick_1">
     <g id="line2d_11">
      <path d="M 52.160938 336.302465 
L 498.560937 336.302465 
" clip-path="url(#pb684a04d5d)" style="fill: none; stroke: #b0b0b0; stroke-width: 0.8; stroke-linecap: square"/>
     </g>
     <g id="line2d_12">
      <defs>
       <path id="m7f41cf2be2" d="M 0 0 
L -3.5 0 
" style="stroke: #000000; stroke-width: 0.8"/>
      </defs>
      <g>
       <use xlink:href="#m7f41cf2be2" x="52.160938" y="336.302465" style="stroke: #000000; stroke-width: 0.8"/>
      </g>
     </g>
     <g id="text_7">
      <!-- −0.2 -->
      <g transform="translate(20.878125 340.101684) scale(0.1 -0.1)">
       <use xlink:href="#DejaVuSans-2212"/>
       <use xlink:href="#DejaVuSans-30" transform="translate(83.789062 0)"/>
       <use xlink:href="#DejaVuSans-2e" transform="translate(147.412109 0)"/>
       <use xlink:href="#DejaVuSans-32" transform="translate(179.199219 0)"/>
      </g>
     </g>
    </g>
    <g id="ytick_2">
     <g id="line2d_13">
      <path d="M 52.160938 295.059764 
L 498.560937 295.059764 
" clip-path="url(#pb684a04d5d)" style="fill: none; stroke: #b0b0b0; stroke-width: 0.8; stroke-linecap: square"/>
     </g>
     <g id="line2d_14">
      <g>
       <use xlink:href="#m7f41cf2be2" x="52.160938" y="295.059764" style="stroke: #000000; stroke-width: 0.8"/>
      </g>
     </g>
     <g id="text_8">
      <!-- 0.0 -->
      <g transform="translate(29.257812 298.858983) scale(0.1 -0.1)">
       <use xlink:href="#DejaVuSans-30"/>
       <use xlink:href="#DejaVuSans-2e" transform="translate(63.623047 0)"/>
       <use xlink:href="#DejaVuSans-30" transform="translate(95.410156 0)"/>
      </g>
     </g>
    </g>
    <g id="ytick_3">
     <g id="line2d_15">
      <path d="M 52.160938 253.817063 
L 498.560937 253.817063 
" clip-path="url(#pb684a04d5d)" style="fill: none; stroke: #b0b0b0; stroke-width: 0.8; stroke-linecap: square"/>
     </g>
     <g id="line2d_16">
      <g>
       <use xlink:href="#m7f41cf2be2" x="52.160938" y="253.817063" style="stroke: #000000; stroke-width: 0.8"/>
      </g>
     </g>
     <g id="text_9">
      <!-- 0.2 -->
      <g transform="translate(29.257812 257.616281) scale(0.1 -0.1)">
       <use xlink:href="#DejaVuSans-30"/>
       <use xlink:href="#DejaVuSans-2e" transform="translate(63.623047 0)"/>
       <use xlink:href="#DejaVuSans-32" transform="translate(95.410156 0)"/>
      </g>
     </g>
    </g>
    <g id="ytick_4">
     <g id="line2d_17">
      <path d="M 52.160938 212.574361 
L 498.560937 212.574361 
" clip-path="url(#pb684a04d5d)" style="fill: none; stroke: #b0b0b0; stroke-width: 0.8; stroke-linecap: square"/>
     </g>
     <g id="line2d_18">
      <g>
       <use xlink:href="#m7f41cf2be2" x="52.160938" y="212.574361" style="stroke: #000000; stroke-width: 0.8"/>
      </g>
     </g>
     <g id="text_10">
      <!-- 0.4 -->
      <g transform="translate(29.257812 216.37358) scale(0.1 -0.1)">
       <defs>
        <path id="DejaVuSans-34" d="M 2419 4116 
L 825 1625 
L 2419 1625 
L 2419 4116 
z
M 2253 4666 
L 3047 4666 
L 3047 1625 
L 3713 1625 
L 3713 1100 
L 3047 1100 
L 3047 0 
L 2419 0 
L 2419 1100 
L 313 1100 
L 313 1709 
L 2253 4666 
z
" transform="scale(0.015625)"/>
       </defs>
       <use xlink:href="#DejaVuSans-30"/>
       <use xlink:href="#DejaVuSans-2e" transform="translate(63.623047 0)"/>
       <use xlink:href="#DejaVuSans-34" transform="translate(95.410156 0)"/>
      </g>
     </g>
    </g>
    <g id="ytick_5">
     <g id="line2d_19">
      <path d="M 52.160938 171.33166 
L 498.560937 171.33166 
" clip-path="url(#pb684a04d5d)" style="fill: none; stroke: #b0b0b0; stroke-width: 0.8; stroke-linecap: square"/>
     </g>
     <g id="line2d_20">
      <g>
       <use xlink:href="#m7f41cf2be2" x="52.160938" y="171.33166" style="stroke: #000000; stroke-width: 0.8"/>
      </g>
     </g>
     <g id="text_11">
      <!-- 0.6 -->
      <g transform="translate(29.257812 175.130879) scale(0.1 -0.1)">
       <defs>
        <path id="DejaVuSans-36" d="M 2113 2584 
Q 1688 2584 1439 2293 
Q 1191 2003 1191 1497 
Q 1191 994 1439 701 
Q 1688 409 2113 409 
Q 2538 409 2786 701 
Q 3034 994 3034 1497 
Q 3034 2003 2786 2293 
Q 2538 2584 2113 2584 
z
M 3366 4563 
L 3366 3988 
Q 3128 4100 2886 4159 
Q 2644 4219 2406 4219 
Q 1781 4219 1451 3797 
Q 1122 3375 1075 2522 
Q 1259 2794 1537 2939 
Q 1816 3084 2150 3084 
Q 2853 3084 3261 2657 
Q 3669 2231 3669 1497 
Q 3669 778 3244 343 
Q 2819 -91 2113 -91 
Q 1303 -91 875 529 
Q 447 1150 447 2328 
Q 447 3434 972 4092 
Q 1497 4750 2381 4750 
Q 2619 4750 2861 4703 
Q 3103 4656 3366 4563 
z
" transform="scale(0.015625)"/>
       </defs>
       <use xlink:href="#DejaVuSans-30"/>
       <use xlink:href="#DejaVuSans-2e" transform="translate(63.623047 0)"/>
       <use xlink:href="#DejaVuSans-36" transform="translate(95.410156 0)"/>
      </g>
     </g>
    </g>
    <g id="ytick_6">
     <g id="line2d_21">
      <path d="M 52.160938 130.088959 
L 498.560937 130.088959 
" clip-path="url(#pb684a04d5d)" style="fill: none; stroke: #b0b0b0; stroke-width: 0.8; stroke-linecap: square"/>
     </g>
     <g id="line2d_22">
      <g>
       <use xlink:href="#m7f41cf2be2" x="52.160938" y="130.088959" style="stroke: #000000; stroke-width: 0.8"/>
      </g>
     </g>
     <g id="text_12">
      <!-- 0.8 -->
      <g transform="translate(29.257812 133.888178) scale(0.1 -0.1)">
       <defs>
        <path id="DejaVuSans-38" d="M 2034 2216 
Q 1584 2216 1326 1975 
Q 1069 1734 1069 1313 
Q 1069 891 1326 650 
Q 1584 409 2034 409 
Q 2484 409 2743 651 
Q 3003 894 3003 1313 
Q 3003 1734 2745 1975 
Q 2488 2216 2034 2216 
z
M 1403 2484 
Q 997 2584 770 2862 
Q 544 3141 544 3541 
Q 544 4100 942 4425 
Q 1341 4750 2034 4750 
Q 2731 4750 3128 4425 
Q 3525 4100 3525 3541 
Q 3525 3141 3298 2862 
Q 3072 2584 2669 2484 
Q 3125 2378 3379 2068 
Q 3634 1759 3634 1313 
Q 3634 634 3220 271 
Q 2806 -91 2034 -91 
Q 1263 -91 848 271 
Q 434 634 434 1313 
Q 434 1759 690 2068 
Q 947 2378 1403 2484 
z
M 1172 3481 
Q 1172 3119 1398 2916 
Q 1625 2713 2034 2713 
Q 2441 2713 2670 2916 
Q 2900 3119 2900 3481 
Q 2900 3844 2670 4047 
Q 2441 4250 2034 4250 
Q 1625 4250 1398 4047 
Q 1172 3844 1172 3481 
z
" transform="scale(0.015625)"/>
       </defs>
       <use xlink:href="#DejaVuSans-30"/>
       <use xlink:href="#DejaVuSans-2e" transform="translate(63.623047 0)"/>
       <use xlink:href="#DejaVuSans-38" transform="translate(95.410156 0)"/>
      </g>
     </g>
    </g>
    <g id="ytick_7">
     <g id="line2d_23">
      <path d="M 52.160938 88.846258 
L 498.560937 88.846258 
" clip-path="url(#pb684a04d5d)" style="fill: none; stroke: #b0b0b0; stroke-width: 0.8; stroke-linecap: square"/>
     </g>
     <g id="line2d_24">
      <g>
       <use xlink:href="#m7f41cf2be2" x="52.160938" y="88.846258" style="stroke: #000000; stroke-width: 0.8"/>
      </g>
     </g>
     <g id="text_13">
      <!-- 1.0 -->
      <g transform="translate(29.257812 92.645477) scale(0.1 -0.1)">
       <use xlink:href="#DejaVuSans-31"/>
       <use xlink:href="#DejaVuSans-2e" transform="translate(63.623047 0)"/>
       <use xlink:href="#DejaVuSans-30" transform="translate(95.410156 0)"/>
      </g>
     </g>
    </g>
    <g id="ytick_8">
     <g id="line2d_25">
      <path d="M 52.160938 47.603557 
L 498.560937 47.603557 
" clip-path="url(#pb684a04d5d)" style="fill: none; stroke: #b0b0b0; stroke-width: 0.8; stroke-linecap: square"/>
     </g>
     <g id="line2d_26">
      <g>
       <use xlink:href="#m7f41cf2be2" x="52.160938" y="47.603557" style="stroke: #000000; stroke-width: 0.8"/>
      </g>
     </g>
     <g id="text_14">
      <!-- 1.2 -->
      <g transform="translate(29.257812 51.402775) scale(0.1 -0.1)">
       <use xlink:href="#DejaVuSans-31"/>
       <use xlink:href="#DejaVuSans-2e" transform="translate(63.623047 0)"/>
       <use xlink:href="#DejaVuSans-32" transform="translate(95.410156 0)"/>
      </g>
     </g>
    </g>
    <g id="text_15">
     <!-- Error Dot (rad/s) -->
     <g transform="translate(14.798437 229.355312) rotate(-90) scale(0.1 -0.1)">
      <defs>
       <path id="DejaVuSans-44" d="M 1259 4147 
L 1259 519 
L 2022 519 
Q 2988 519 3436 956 
Q 3884 1394 3884 2338 
Q 3884 3275 3436 3711 
Q 2988 4147 2022 4147 
L 1259 4147 
z
M 628 4666 
L 1925 4666 
Q 3281 4666 3915 4102 
Q 4550 3538 4550 2338 
Q 4550 1131 3912 565 
Q 3275 0 1925 0 
L 628 0 
L 628 4666 
z
" transform="scale(0.015625)"/>
       <path id="DejaVuSans-74" d="M 1172 4494 
L 1172 3500 
L 2356 3500 
L 2356 3053 
L 1172 3053 
L 1172 1153 
Q 1172 725 1289 603 
Q 1406 481 1766 481 
L 2356 481 
L 2356 0 
L 1766 0 
Q 1100 0 847 248 
Q 594 497 594 1153 
L 594 3053 
L 172 3053 
L 172 3500 
L 594 3500 
L 594 4494 
L 1172 4494 
z
" transform="scale(0.015625)"/>
       <path id="DejaVuSans-2f" d="M 1625 4666 
L 2156 4666 
L 531 -594 
L 0 -594 
L 1625 4666 
z
" transform="scale(0.015625)"/>
       <path id="DejaVuSans-73" d="M 2834 3397 
L 2834 2853 
Q 2591 2978 2328 3040 
Q 2066 3103 1784 3103 
Q 1356 3103 1142 2972 
Q 928 2841 928 2578 
Q 928 2378 1081 2264 
Q 1234 2150 1697 2047 
L 1894 2003 
Q 2506 1872 2764 1633 
Q 3022 1394 3022 966 
Q 3022 478 2636 193 
Q 2250 -91 1575 -91 
Q 1294 -91 989 -36 
Q 684 19 347 128 
L 347 722 
Q 666 556 975 473 
Q 1284 391 1588 391 
Q 1994 391 2212 530 
Q 2431 669 2431 922 
Q 2431 1156 2273 1281 
Q 2116 1406 1581 1522 
L 1381 1569 
Q 847 1681 609 1914 
Q 372 2147 372 2553 
Q 372 3047 722 3315 
Q 1072 3584 1716 3584 
Q 2034 3584 2315 3537 
Q 2597 3491 2834 3397 
z
" transform="scale(0.015625)"/>
      </defs>
      <use xlink:href="#DejaVuSans-45"/>
      <use xlink:href="#DejaVuSans-72" transform="translate(63.183594 0)"/>
      <use xlink:href="#DejaVuSans-72" transform="translate(102.546875 0)"/>
      <use xlink:href="#DejaVuSans-6f" transform="translate(141.410156 0)"/>
      <use xlink:href="#DejaVuSans-72" transform="translate(202.591797 0)"/>
      <use xlink:href="#DejaVuSans-20" transform="translate(243.705078 0)"/>
      <use xlink:href="#DejaVuSans-44" transform="translate(275.492188 0)"/>
      <use xlink:href="#DejaVuSans-6f" transform="translate(352.494141 0)"/>
      <use xlink:href="#DejaVuSans-74" transform="translate(413.675781 0)"/>
      <use xlink:href="#DejaVuSans-20" transform="translate(452.884766 0)"/>
      <use xlink:href="#DejaVuSans-28" transform="translate(484.671875 0)"/>
      <use xlink:href="#DejaVuSans-72" transform="translate(523.685547 0)"/>
      <use xlink:href="#DejaVuSans-61" transform="translate(564.798828 0)"/>
      <use xlink:href="#DejaVuSans-64" transform="translate(626.078125 0)"/>
      <use xlink:href="#DejaVuSans-2f" transform="translate(689.554688 0)"/>
      <use xlink:href="#DejaVuSans-73" transform="translate(723.246094 0)"/>
      <use xlink:href="#DejaVuSans-29" transform="translate(775.345703 0)"/>
     </g>
    </g>
   </g>
   <g id="line2d_27">
    <path d="M 72.451847 295.169758 
L 73.825172 278.314353 
L 77.289237 235.604363 
L 81.485176 201.50013 
L 88.508016 173.036916 
L 95.498259 136.002716 
L 103.851753 105.35282 
L 113.074691 79.21378 
L 120.938491 60.150509 
L 131.556186 43.864305 
L 152.224359 37.438125 
L 170.067228 47.161148 
L 192.322023 60.087247 
L 207.175642 80.503909 
L 221.610507 105.768422 
L 233.649258 123.541341 
L 247.638499 140.959791 
L 257.234492 158.664584 
L 266.823403 170.804222 
L 274.837786 181.241566 
L 285.452237 186.184603 
L 293.090789 188.418546 
L 302.376629 191.204676 
L 309.313145 190.044504 
L 319.428248 190.028557 
L 327.1231 191.343074 
L 335.099673 193.942749 
L 341.932336 198.881193 
L 350.299078 205.308203 
L 356.103878 212.720866 
L 361.944172 219.736012 
L 367.484608 228.450307 
L 371.70752 238.129944 
L 375.322678 244.620052 
L 378.923202 248.339489 
L 382.091798 251.168067 
L 385.746363 254.767206 
L 388.36804 258.64785 
L 391.60019 257.326465 
L 394.683192 254.02978 
L 398.572146 254.157973 
L 401.271784 256.911515 
L 404.319271 257.934858 
L 407.105579 257.251155 
L 410.736078 257.498988 
L 413.314842 259.017566 
L 415.524233 263.971959 
L 417.493521 270.397388 
L 419.034745 274.604631 
L 420.352408 276.781449 
L 421.479759 279.203089 
L 422.550258 280.720083 
L 423.695229 281.909221 
L 425.102358 279.695968 
L 426.084593 279.475489 
L 427.658844 278.236623 
L 429.928778 272.711501 
L 432.479385 266.225094 
L 434.939098 262.59826 
L 437.565343 261.922304 
L 439.918316 265.112355 
L 441.49569 272.24605 
L 442.66052 277.150943 
L 443.416985 282.777976 
L 443.010991 292.010481 
L 442.059239 303.500633 
L 441.594304 304.325789 
L 440.992214 302.059648 
L 440.976681 299.229872 
L 441.990065 288.37565 
L 443.142316 281.042974 
L 444.711281 277.288818 
L 449.079858 261.803176 
L 451.726766 254.842786 
L 455.08339 256.355385 
L 457.946987 254.74607 
L 459.695751 266.862389 
L 460.66971 279.520126 
L 460.959562 286.795653 
L 460.228102 298.10373 
L 458.372611 309.595609 
L 455.916008 320.930397 
L 452.107862 335.365618 
L 449.019454 339.838125 
L 446.977132 326.349929 
L 447.137695 304.604483 
L 448.703519 284.09939 
L 451.709799 265.050064 
L 457.002823 247.453487 
L 462.146788 233.591848 
L 465.753598 238.292255 
L 468.744162 252.323716 
L 471.738081 259.517818 
L 473.932347 264.969669 
L 475.946534 267.841389 
L 477.27186 273.460996 
L 477.151279 286.81792 
L 476.616722 299.213472 
L 476.188562 301.296159 
L 476.188576 297.768634 
L 477.261265 289.462915 
L 478.270028 282.799174 
L 476.663691 298.548224 
" clip-path="url(#pb684a04d5d)" style="fill: none; stroke: #008000; stroke-width: 1.5; stroke-linecap: square"/>
    <defs>
     <path id="me66054d91d" d="M 0 -1 
L -1 1 
L 1 1 
z
" style="stroke: #008000; stroke-linejoin: miter"/>
    </defs>
    <g clip-path="url(#pb684a04d5d)">
     <use xlink:href="#me66054d91d" x="72.451847" y="295.169758" style="fill: #008000; stroke: #008000; stroke-linejoin: miter"/>
     <use xlink:href="#me66054d91d" x="73.825172" y="278.314353" style="fill: #008000; stroke: #008000; stroke-linejoin: miter"/>
     <use xlink:href="#me66054d91d" x="77.289237" y="235.604363" style="fill: #008000; stroke: #008000; stroke-linejoin: miter"/>
     <use xlink:href="#me66054d91d" x="81.485176" y="201.50013" style="fill: #008000; stroke: #008000; stroke-linejoin: miter"/>
     <use xlink:href="#me66054d91d" x="88.508016" y="173.036916" style="fill: #008000; stroke: #008000; stroke-linejoin: miter"/>
     <use xlink:href="#me66054d91d" x="95.498259" y="136.002716" style="fill: #008000; stroke: #008000; stroke-linejoin: miter"/>
     <use xlink:href="#me66054d91d" x="103.851753" y="105.35282" style="fill: #008000; stroke: #008000; stroke-linejoin: miter"/>
     <use xlink:href="#me66054d91d" x="113.074691" y="79.21378" style="fill: #008000; stroke: #008000; stroke-linejoin: miter"/>
     <use xlink:href="#me66054d91d" x="120.938491" y="60.150509" style="fill: #008000; stroke: #008000; stroke-linejoin: miter"/>
     <use xlink:href="#me66054d91d" x="131.556186" y="43.864305" style="fill: #008000; stroke: #008000; stroke-linejoin: miter"/>
     <use xlink:href="#me66054d91d" x="152.224359" y="37.438125" style="fill: #008000; stroke: #008000; stroke-linejoin: miter"/>
     <use xlink:href="#me66054d91d" x="170.067228" y="47.161148" style="fill: #008000; stroke: #008000; stroke-linejoin: miter"/>
     <use xlink:href="#me66054d91d" x="192.322023" y="60.087247" style="fill: #008000; stroke: #008000; stroke-linejoin: miter"/>
     <use xlink:href="#me66054d91d" x="207.175642" y="80.503909" style="fill: #008000; stroke: #008000; stroke-linejoin: miter"/>
     <use xlink:href="#me66054d91d" x="221.610507" y="105.768422" style="fill: #008000; stroke: #008000; stroke-linejoin: miter"/>
     <use xlink:href="#me66054d91d" x="233.649258" y="123.541341" style="fill: #008000; stroke: #008000; stroke-linejoin: miter"/>
     <use xlink:href="#me66054d91d" x="247.638499" y="140.959791" style="fill: #008000; stroke: #008000; stroke-linejoin: miter"/>
     <use xlink:href="#me66054d91d" x="257.234492" y="158.664584" style="fill: #008000; stroke: #008000; stroke-linejoin: miter"/>
     <use xlink:href="#me66054d91d" x="266.823403" y="170.804222" style="fill: #008000; stroke: #008000; stroke-linejoin: miter"/>
     <use xlink:href="#me66054d91d" x="274.837786" y="181.241566" style="fill: #008000; stroke: #008000; stroke-linejoin: miter"/>
     <use xlink:href="#me66054d91d" x="285.452237" y="186.184603" style="fill: #008000; stroke: #008000; stroke-linejoin: miter"/>
     <use xlink:href="#me66054d91d" x="293.090789" y="188.418546" style="fill: #008000; stroke: #008000; stroke-linejoin: miter"/>
     <use xlink:href="#me66054d91d" x="302.376629" y="191.204676" style="fill: #008000; stroke: #008000; stroke-linejoin: miter"/>
     <use xlink:href="#me66054d91d" x="309.313145" y="190.044504" style="fill: #008000; stroke: #008000; stroke-linejoin: miter"/>
     <use xlink:href="#me66054d91d" x="319.428248" y="190.028557" style="fill: #008000; stroke: #008000; stroke-linejoin: miter"/>
     <use xlink:href="#me66054d91d" x="327.1231" y="191.343074" style="fill: #008000; stroke: #008000; stroke-linejoin: miter"/>
     <use xlink:href="#me66054d91d" x="335.099673" y="193.942749" style="fill: #008000; stroke: #008000; stroke-linejoin: miter"/>
     <use xlink:href="#me66054d91d" x="341.932336" y="198.881193" style="fill: #008000; stroke: #008000; stroke-linejoin: miter"/>
     <use xlink:href="#me66054d91d" x="350.299078" y="205.308203" style="fill: #008000; stroke: #008000; stroke-linejoin: miter"/>
     <use xlink:href="#me66054d91d" x="356.103878" y="212.720866" style="fill: #008000; stroke: #008000; stroke-linejoin: miter"/>
     <use xlink:href="#me66054d91d" x="361.944172" y="219.736012" style="fill: #008000; stroke: #008000; stroke-linejoin: miter"/>
     <use xlink:href="#me66054d91d" x="367.484608" y="228.450307" style="fill: #008000; stroke: #008000; stroke-linejoin: miter"/>
     <use xlink:href="#me66054d91d" x="371.70752" y="238.129944" style="fill: #008000; stroke: #008000; stroke-linejoin: miter"/>
     <use xlink:href="#me66054d91d" x="375.322678" y="244.620052" style="fill: #008000; stroke: #008000; stroke-linejoin: miter"/>
     <use xlink:href="#me66054d91d" x="378.923202" y="248.339489" style="fill: #008000; stroke: #008000; stroke-linejoin: miter"/>
     <use xlink:href="#me66054d91d" x="382.091798" y="251.168067" style="fill: #008000; stroke: #008000; stroke-linejoin: miter"/>
     <use xlink:href="#me66054d91d" x="385.746363" y="254.767206" style="fill: #008000; stroke: #008000; stroke-linejoin: miter"/>
     <use xlink:href="#me66054d91d" x="388.36804" y="258.64785" style="fill: #008000; stroke: #008000; stroke-linejoin: miter"/>
     <use xlink:href="#me66054d91d" x="391.60019" y="257.326465" style="fill: #008000; stroke: #008000; stroke-linejoin: miter"/>
     <use xlink:href="#me66054d91d" x="394.683192" y="254.02978" style="fill: #008000; stroke: #008000; stroke-linejoin: miter"/>
     <use xlink:href="#me66054d91d" x="398.572146" y="254.157973" style="fill: #008000; stroke: #008000; stroke-linejoin: miter"/>
     <use xlink:href="#me66054d91d" x="401.271784" y="256.911515" style="fill: #008000; stroke: #008000; stroke-linejoin: miter"/>
     <use xlink:href="#me66054d91d" x="404.319271" y="257.934858" style="fill: #008000; stroke: #008000; stroke-linejoin: miter"/>
     <use xlink:href="#me66054d91d" x="407.105579" y="257.251155" style="fill: #008000; stroke: #008000; stroke-linejoin: miter"/>
     <use xlink:href="#me66054d91d" x="410.736078" y="257.498988" style="fill: #008000; stroke: #008000; stroke-linejoin: miter"/>
     <use xlink:href="#me66054d91d" x="413.314842" y="259.017566" style="fill: #008000; stroke: #008000; stroke-linejoin: miter"/>
     <use xlink:href="#me66054d91d" x="415.524233" y="263.971959" style="fill: #008000; stroke: #008000; stroke-linejoin: miter"/>
     <use xlink:href="#me66054d91d" x="417.493521" y="270.397388" style="fill: #008000; stroke: #008000; stroke-linejoin: miter"/>
     <use xlink:href="#me66054d91d" x="419.034745" y="274.604631" style="fill: #008000; stroke: #008000; stroke-linejoin: miter"/>
     <use xlink:href="#me66054d91d" x="420.352408" y="276.781449" style="fill: #008000; stroke: #008000; stroke-linejoin: miter"/>
     <use xlink:href="#me66054d91d" x="421.479759" y="279.203089" style="fill: #008000; stroke: #008000; stroke-linejoin: miter"/>
     <use xlink:href="#me66054d91d" x="422.550258" y="280.720083" style="fill: #008000; stroke: #008000; stroke-linejoin: miter"/>
     <use xlink:href="#me66054d91d" x="423.695229" y="281.909221" style="fill: #008000; stroke: #008000; stroke-linejoin: miter"/>
     <use xlink:href="#me66054d91d" x="425.102358" y="279.695968" style="fill: #008000; stroke: #008000; stroke-linejoin: miter"/>
     <use xlink:href="#me66054d91d" x="426.084593" y="279.475489" style="fill: #008000; stroke: #008000; stroke-linejoin: miter"/>
     <use xlink:href="#me66054d91d" x="427.658844" y="278.236623" style="fill: #008000; stroke: #008000; stroke-linejoin: miter"/>
     <use xlink:href="#me66054d91d" x="429.928778" y="272.711501" style="fill: #008000; stroke: #008000; stroke-linejoin: miter"/>
     <use xlink:href="#me66054d91d" x="432.479385" y="266.225094" style="fill: #008000; stroke: #008000; stroke-linejoin: miter"/>
     <use xlink:href="#me66054d91d" x="434.939098" y="262.59826" style="fill: #008000; stroke: #008000; stroke-linejoin: miter"/>
     <use xlink:href="#me66054d91d" x="437.565343" y="261.922304" style="fill: #008000; stroke: #008000; stroke-linejoin: miter"/>
     <use xlink:href="#me66054d91d" x="439.918316" y="265.112355" style="fill: #008000; stroke: #008000; stroke-linejoin: miter"/>
     <use xlink:href="#me66054d91d" x="441.49569" y="272.24605" style="fill: #008000; stroke: #008000; stroke-linejoin: miter"/>
     <use xlink:href="#me66054d91d" x="442.66052" y="277.150943" style="fill: #008000; stroke: #008000; stroke-linejoin: miter"/>
     <use xlink:href="#me66054d91d" x="443.416985" y="282.777976" style="fill: #008000; stroke: #008000; stroke-linejoin: miter"/>
     <use xlink:href="#me66054d91d" x="443.010991" y="292.010481" style="fill: #008000; stroke: #008000; stroke-linejoin: miter"/>
     <use xlink:href="#me66054d91d" x="442.059239" y="303.500633" style="fill: #008000; stroke: #008000; stroke-linejoin: miter"/>
     <use xlink:href="#me66054d91d" x="441.594304" y="304.325789" style="fill: #008000; stroke: #008000; stroke-linejoin: miter"/>
     <use xlink:href="#me66054d91d" x="440.992214" y="302.059648" style="fill: #008000; stroke: #008000; stroke-linejoin: miter"/>
     <use xlink:href="#me66054d91d" x="440.976681" y="299.229872" style="fill: #008000; stroke: #008000; stroke-linejoin: miter"/>
     <use xlink:href="#me66054d91d" x="441.990065" y="288.37565" style="fill: #008000; stroke: #008000; stroke-linejoin: miter"/>
     <use xlink:href="#me66054d91d" x="443.142316" y="281.042974" style="fill: #008000; stroke: #008000; stroke-linejoin: miter"/>
     <use xlink:href="#me66054d91d" x="444.711281" y="277.288818" style="fill: #008000; stroke: #008000; stroke-linejoin: miter"/>
     <use xlink:href="#me66054d91d" x="449.079858" y="261.803176" style="fill: #008000; stroke: #008000; stroke-linejoin: miter"/>
     <use xlink:href="#me66054d91d" x="451.726766" y="254.842786" style="fill: #008000; stroke: #008000; stroke-linejoin: miter"/>
     <use xlink:href="#me66054d91d" x="455.08339" y="256.355385" style="fill: #008000; stroke: #008000; stroke-linejoin: miter"/>
     <use xlink:href="#me66054d91d" x="457.946987" y="254.74607" style="fill: #008000; stroke: #008000; stroke-linejoin: miter"/>
     <use xlink:href="#me66054d91d" x="459.695751" y="266.862389" style="fill: #008000; stroke: #008000; stroke-linejoin: miter"/>
     <use xlink:href="#me66054d91d" x="460.66971" y="279.520126" style="fill: #008000; stroke: #008000; stroke-linejoin: miter"/>
     <use xlink:href="#me66054d91d" x="460.959562" y="286.795653" style="fill: #008000; stroke: #008000; stroke-linejoin: miter"/>
     <use xlink:href="#me66054d91d" x="460.228102" y="298.10373" style="fill: #008000; stroke: #008000; stroke-linejoin: miter"/>
     <use xlink:href="#me66054d91d" x="458.372611" y="309.595609" style="fill: #008000; stroke: #008000; stroke-linejoin: miter"/>
     <use xlink:href="#me66054d91d" x="455.916008" y="320.930397" style="fill: #008000; stroke: #008000; stroke-linejoin: miter"/>
     <use xlink:href="#me66054d91d" x="452.107862" y="335.365618" style="fill: #008000; stroke: #008000; stroke-linejoin: miter"/>
     <use xlink:href="#me66054d91d" x="449.019454" y="339.838125" style="fill: #008000; stroke: #008000; stroke-linejoin: miter"/>
     <use xlink:href="#me66054d91d" x="446.977132" y="326.349929" style="fill: #008000; stroke: #008000; stroke-linejoin: miter"/>
     <use xlink:href="#me66054d91d" x="447.137695" y="304.604483" style="fill: #008000; stroke: #008000; stroke-linejoin: miter"/>
     <use xlink:href="#me66054d91d" x="448.703519" y="284.09939" style="fill: #008000; stroke: #008000; stroke-linejoin: miter"/>
     <use xlink:href="#me66054d91d" x="451.709799" y="265.050064" style="fill: #008000; stroke: #008000; stroke-linejoin: miter"/>
     <use xlink:href="#me66054d91d" x="457.002823" y="247.453487" style="fill: #008000; stroke: #008000; stroke-linejoin: miter"/>
     <use xlink:href="#me66054d91d" x="462.146788" y="233.591848" style="fill: #008000; stroke: #008000; stroke-linejoin: miter"/>
     <use xlink:href="#me66054d91d" x="465.753598" y="238.292255" style="fill: #008000; stroke: #008000; stroke-linejoin: miter"/>
     <use xlink:href="#me66054d91d" x="468.744162" y="252.323716" style="fill: #008000; stroke: #008000; stroke-linejoin: miter"/>
     <use xlink:href="#me66054d91d" x="471.738081" y="259.517818" style="fill: #008000; stroke: #008000; stroke-linejoin: miter"/>
     <use xlink:href="#me66054d91d" x="473.932347" y="264.969669" style="fill: #008000; stroke: #008000; stroke-linejoin: miter"/>
     <use xlink:href="#me66054d91d" x="475.946534" y="267.841389" style="fill: #008000; stroke: #008000; stroke-linejoin: miter"/>
     <use xlink:href="#me66054d91d" x="477.27186" y="273.460996" style="fill: #008000; stroke: #008000; stroke-linejoin: miter"/>
     <use xlink:href="#me66054d91d" x="477.151279" y="286.81792" style="fill: #008000; stroke: #008000; stroke-linejoin: miter"/>
     <use xlink:href="#me66054d91d" x="476.616722" y="299.213472" style="fill: #008000; stroke: #008000; stroke-linejoin: miter"/>
     <use xlink:href="#me66054d91d" x="476.188562" y="301.296159" style="fill: #008000; stroke: #008000; stroke-linejoin: miter"/>
     <use xlink:href="#me66054d91d" x="476.188576" y="297.768634" style="fill: #008000; stroke: #008000; stroke-linejoin: miter"/>
     <use xlink:href="#me66054d91d" x="477.261265" y="289.462915" style="fill: #008000; stroke: #008000; stroke-linejoin: miter"/>
     <use xlink:href="#me66054d91d" x="478.270028" y="282.799174" style="fill: #008000; stroke: #008000; stroke-linejoin: miter"/>
     <use xlink:href="#me66054d91d" x="476.663691" y="298.548224" style="fill: #008000; stroke: #008000; stroke-linejoin: miter"/>
    </g>
   </g>
   <g id="patch_3">
    <path d="M 52.160938 354.958125 
L 52.160938 22.318125 
" style="fill: none; stroke: #000000; stroke-width: 0.8; stroke-linejoin: miter; stroke-linecap: square"/>
   </g>
   <g id="patch_4">
    <path d="M 498.560937 354.958125 
L 498.560937 22.318125 
" style="fill: none; stroke: #000000; stroke-width: 0.8; stroke-linejoin: miter; stroke-linecap: square"/>
   </g>
   <g id="patch_5">
    <path d="M 52.160937 354.958125 
L 498.560937 354.958125 
" style="fill: none; stroke: #000000; stroke-width: 0.8; stroke-linejoin: miter; stroke-linecap: square"/>
   </g>
   <g id="patch_6">
    <path d="M 52.160937 22.318125 
L 498.560937 22.318125 
" style="fill: none; stroke: #000000; stroke-width: 0.8; stroke-linejoin: miter; stroke-linecap: square"/>
   </g>
   <g id="text_16">
    <!-- Heading Error vs Error Dot -->
    <g transform="translate(196.200312 16.318125) scale(0.12 -0.12)">
     <defs>
      <path id="DejaVuSans-48" d="M 628 4666 
L 1259 4666 
L 1259 2753 
L 3553 2753 
L 3553 4666 
L 4184 4666 
L 4184 0 
L 3553 0 
L 3553 2222 
L 1259 2222 
L 1259 0 
L 628 0 
L 628 4666 
z
" transform="scale(0.015625)"/>
      <path id="DejaVuSans-65" d="M 3597 1894 
L 3597 1613 
L 953 1613 
Q 991 1019 1311 708 
Q 1631 397 2203 397 
Q 2534 397 2845 478 
Q 3156 559 3463 722 
L 3463 178 
Q 3153 47 2828 -22 
Q 2503 -91 2169 -91 
Q 1331 -91 842 396 
Q 353 884 353 1716 
Q 353 2575 817 3079 
Q 1281 3584 2069 3584 
Q 2775 3584 3186 3129 
Q 3597 2675 3597 1894 
z
M 3022 2063 
Q 3016 2534 2758 2815 
Q 2500 3097 2075 3097 
Q 1594 3097 1305 2825 
Q 1016 2553 972 2059 
L 3022 2063 
z
" transform="scale(0.015625)"/>
      <path id="DejaVuSans-69" d="M 603 3500 
L 1178 3500 
L 1178 0 
L 603 0 
L 603 3500 
z
M 603 4863 
L 1178 4863 
L 1178 4134 
L 603 4134 
L 603 4863 
z
" transform="scale(0.015625)"/>
      <path id="DejaVuSans-6e" d="M 3513 2113 
L 3513 0 
L 2938 0 
L 2938 2094 
Q 2938 2591 2744 2837 
Q 2550 3084 2163 3084 
Q 1697 3084 1428 2787 
Q 1159 2491 1159 1978 
L 1159 0 
L 581 0 
L 581 3500 
L 1159 3500 
L 1159 2956 
Q 1366 3272 1645 3428 
Q 1925 3584 2291 3584 
Q 2894 3584 3203 3211 
Q 3513 2838 3513 2113 
z
" transform="scale(0.015625)"/>
      <path id="DejaVuSans-67" d="M 2906 1791 
Q 2906 2416 2648 2759 
Q 2391 3103 1925 3103 
Q 1463 3103 1205 2759 
Q 947 2416 947 1791 
Q 947 1169 1205 825 
Q 1463 481 1925 481 
Q 2391 481 2648 825 
Q 2906 1169 2906 1791 
z
M 3481 434 
Q 3481 -459 3084 -895 
Q 2688 -1331 1869 -1331 
Q 1566 -1331 1297 -1286 
Q 1028 -1241 775 -1147 
L 775 -588 
Q 1028 -725 1275 -790 
Q 1522 -856 1778 -856 
Q 2344 -856 2625 -561 
Q 2906 -266 2906 331 
L 2906 616 
Q 2728 306 2450 153 
Q 2172 0 1784 0 
Q 1141 0 747 490 
Q 353 981 353 1791 
Q 353 2603 747 3093 
Q 1141 3584 1784 3584 
Q 2172 3584 2450 3431 
Q 2728 3278 2906 2969 
L 2906 3500 
L 3481 3500 
L 3481 434 
z
" transform="scale(0.015625)"/>
      <path id="DejaVuSans-76" d="M 191 3500 
L 800 3500 
L 1894 563 
L 2988 3500 
L 3597 3500 
L 2284 0 
L 1503 0 
L 191 3500 
z
" transform="scale(0.015625)"/>
     </defs>
     <use xlink:href="#DejaVuSans-48"/>
     <use xlink:href="#DejaVuSans-65" transform="translate(75.195312 0)"/>
     <use xlink:href="#DejaVuSans-61" transform="translate(136.71875 0)"/>
     <use xlink:href="#DejaVuSans-64" transform="translate(197.998047 0)"/>
     <use xlink:href="#DejaVuSans-69" transform="translate(261.474609 0)"/>
     <use xlink:href="#DejaVuSans-6e" transform="translate(289.257812 0)"/>
     <use xlink:href="#DejaVuSans-67" transform="translate(352.636719 0)"/>
     <use xlink:href="#DejaVuSans-20" transform="translate(416.113281 0)"/>
     <use xlink:href="#DejaVuSans-45" transform="translate(447.900391 0)"/>
     <use xlink:href="#DejaVuSans-72" transform="translate(511.083984 0)"/>
     <use xlink:href="#DejaVuSans-72" transform="translate(550.447266 0)"/>
     <use xlink:href="#DejaVuSans-6f" transform="translate(589.310547 0)"/>
     <use xlink:href="#DejaVuSans-72" transform="translate(650.492188 0)"/>
     <use xlink:href="#DejaVuSans-20" transform="translate(691.605469 0)"/>
     <use xlink:href="#DejaVuSans-76" transform="translate(723.392578 0)"/>
     <use xlink:href="#DejaVuSans-73" transform="translate(782.572266 0)"/>
     <use xlink:href="#DejaVuSans-20" transform="translate(834.671875 0)"/>
     <use xlink:href="#DejaVuSans-45" transform="translate(866.458984 0)"/>
     <use xlink:href="#DejaVuSans-72" transform="translate(929.642578 0)"/>
     <use xlink:href="#DejaVuSans-72" transform="translate(969.005859 0)"/>
     <use xlink:href="#DejaVuSans-6f" transform="translate(1007.869141 0)"/>
     <use xlink:href="#DejaVuSans-72" transform="translate(1069.050781 0)"/>
     <use xlink:href="#DejaVuSans-20" transform="translate(1110.164062 0)"/>
     <use xlink:href="#DejaVuSans-44" transform="translate(1141.951172 0)"/>
     <use xlink:href="#DejaVuSans-6f" transform="translate(1218.953125 0)"/>
     <use xlink:href="#DejaVuSans-74" transform="translate(1280.134766 0)"/>
    </g>
   </g>
  </g>
 </g>
 <defs>
  <clipPath id="pb684a04d5d">
   <rect x="52.160938" y="22.318125" width="446.4" height="332.64"/>
  </clipPath>
 </defs>
</svg>
