<?xml version="1.0" encoding="utf-8" standalone="no"?>
<!DOCTYPE svg PUBLIC "-//W3C//DTD SVG 1.1//EN"
  "http://www.w3.org/Graphics/SVG/1.1/DTD/svg11.dtd">
<svg xmlns:xlink="http://www.w3.org/1999/xlink" width="505.760937pt" height="392.514375pt" viewBox="0 0 505.760937 392.514375" xmlns="http://www.w3.org/2000/svg" version="1.1">
 <metadata>
  <rdf:RDF xmlns:dc="http://purl.org/dc/elements/1.1/" xmlns:cc="http://creativecommons.org/ns#" xmlns:rdf="http://www.w3.org/1999/02/22-rdf-syntax-ns#">
   <cc:Work>
    <dc:type rdf:resource="http://purl.org/dc/dcmitype/StillImage"/>
    <dc:date>2025-10-31T18:53:24.383982</dc:date>
    <dc:format>image/svg+xml</dc:format>
    <dc:creator>
     <cc:Agent>
      <dc:title>Matplotlib v3.10.6, https://matplotlib.org/</dc:title>
     </cc:Agent>
    </dc:creator>
   </cc:Work>
  </rdf:RDF>
 </metadata>
 <defs>
  <style type="text/css">*{stroke-linejoin: round; stroke-linecap: butt}</style>
 </defs>
 <g id="figure_1">
  <g id="patch_1">
   <path d="M 0 392.514375 
L 505.760937 392.514375 
L 505.760937 0 
L 0 0 
z
" style="fill: #ffffff"/>
  </g>
  <g id="axes_1">
   <g id="patch_2">
    <path d="M 52.160938 354.958125 
L 498.560937 354.958125 
L 498.560937 22.318125 
L 52.160938 22.318125 
z
" style="fill: #ffffff"/>
   </g>
   <g id="matplotlib.axis_1">
    <g id="xtick_1">
     <g id="line2d_1">
      <path d="M 58.366498 354.958125 
L 58.366498 22.318125 
" clip-path="url(#p155e7bbfd9)" style="fill: none; stroke: #b0b0b0; stroke-width: 0.8; stroke-linecap: square"/>
     </g>
     <g id="line2d_2">
      <defs>
       <path id="me9af169d89" d="M 0 0 
L 0 3.5 
" style="stroke: #000000; stroke-width: 0.8"/>
      </defs>
      <g>
       <use xlink:href="#me9af169d89" x="58.366498" y="354.958125" style="stroke: #000000; stroke-width: 0.8"/>
      </g>
     </g>
     <g id="text_1">
      <!-- −1.0 -->
      <g transform="translate(46.225092 369.556562) scale(0.1 -0.1)">
       <defs>
        <path id="DejaVuSans-2212" d="M 678 2272 
L 4684 2272 
L 4684 1741 
L 678 1741 
L 678 2272 
z
" transform="scale(0.015625)"/>
        <path id="DejaVuSans-31" d="M 794 531 
L 1825 531 
L 1825 4091 
L 703 3866 
L 703 4441 
L 1819 4666 
L 2450 4666 
L 2450 531 
L 3481 531 
L 3481 0 
L 794 0 
L 794 531 
z
" transform="scale(0.015625)"/>
        <path id="DejaVuSans-2e" d="M 684 794 
L 1344 794 
L 1344 0 
L 684 0 
L 684 794 
z
" transform="scale(0.015625)"/>
        <path id="DejaVuSans-30" d="M 2034 4250 
Q 1547 4250 1301 3770 
Q 1056 3291 1056 2328 
Q 1056 1369 1301 889 
Q 1547 409 2034 409 
Q 2525 409 2770 889 
Q 3016 1369 3016 2328 
Q 3016 3291 2770 3770 
Q 2525 4250 2034 4250 
z
M 2034 4750 
Q 2819 4750 3233 4129 
Q 3647 3509 3647 2328 
Q 3647 1150 3233 529 
Q 2819 -91 2034 -91 
Q 1250 -91 836 529 
Q 422 1150 422 2328 
Q 422 3509 836 4129 
Q 1250 4750 2034 4750 
z
" transform="scale(0.015625)"/>
       </defs>
       <use xlink:href="#DejaVuSans-2212"/>
       <use xlink:href="#DejaVuSans-31" transform="translate(83.789062 0)"/>
       <use xlink:href="#DejaVuSans-2e" transform="translate(147.412109 0)"/>
       <use xlink:href="#DejaVuSans-30" transform="translate(179.199219 0)"/>
      </g>
     </g>
    </g>
    <g id="xtick_2">
     <g id="line2d_3">
      <path d="M 126.969585 354.958125 
L 126.969585 22.318125 
" clip-path="url(#p155e7bbfd9)" style="fill: none; stroke: #b0b0b0; stroke-width: 0.8; stroke-linecap: square"/>
     </g>
     <g id="line2d_4">
      <g>
       <use xlink:href="#me9af169d89" x="126.969585" y="354.958125" style="stroke: #000000; stroke-width: 0.8"/>
      </g>
     </g>
     <g id="text_2">
      <!-- −0.8 -->
      <g transform="translate(114.828179 369.556562) scale(0.1 -0.1)">
       <defs>
        <path id="DejaVuSans-38" d="M 2034 2216 
Q 1584 2216 1326 1975 
Q 1069 1734 1069 1313 
Q 1069 891 1326 650 
Q 1584 409 2034 409 
Q 2484 409 2743 651 
Q 3003 894 3003 1313 
Q 3003 1734 2745 1975 
Q 2488 2216 2034 2216 
z
M 1403 2484 
Q 997 2584 770 2862 
Q 544 3141 544 3541 
Q 544 4100 942 4425 
Q 1341 4750 2034 4750 
Q 2731 4750 3128 4425 
Q 3525 4100 3525 3541 
Q 3525 3141 3298 2862 
Q 3072 2584 2669 2484 
Q 3125 2378 3379 2068 
Q 3634 1759 3634 1313 
Q 3634 634 3220 271 
Q 2806 -91 2034 -91 
Q 1263 -91 848 271 
Q 434 634 434 1313 
Q 434 1759 690 2068 
Q 947 2378 1403 2484 
z
M 1172 3481 
Q 1172 3119 1398 2916 
Q 1625 2713 2034 2713 
Q 2441 2713 2670 2916 
Q 2900 3119 2900 3481 
Q 2900 3844 2670 4047 
Q 2441 4250 2034 4250 
Q 1625 4250 1398 4047 
Q 1172 3844 1172 3481 
z
" transform="scale(0.015625)"/>
       </defs>
       <use xlink:href="#DejaVuSans-2212"/>
       <use xlink:href="#DejaVuSans-30" transform="translate(83.789062 0)"/>
       <use xlink:href="#DejaVuSans-2e" transform="translate(147.412109 0)"/>
       <use xlink:href="#DejaVuSans-38" transform="translate(179.199219 0)"/>
      </g>
     </g>
    </g>
    <g id="xtick_3">
     <g id="line2d_5">
      <path d="M 195.572672 354.958125 
L 195.572672 22.318125 
" clip-path="url(#p155e7bbfd9)" style="fill: none; stroke: #b0b0b0; stroke-width: 0.8; stroke-linecap: square"/>
     </g>
     <g id="line2d_6">
      <g>
       <use xlink:href="#me9af169d89" x="195.572672" y="354.958125" style="stroke: #000000; stroke-width: 0.8"/>
      </g>
     </g>
     <g id="text_3">
      <!-- −0.6 -->
      <g transform="translate(183.431265 369.556562) scale(0.1 -0.1)">
       <defs>
        <path id="DejaVuSans-36" d="M 2113 2584 
Q 1688 2584 1439 2293 
Q 1191 2003 1191 1497 
Q 1191 994 1439 701 
Q 1688 409 2113 409 
Q 2538 409 2786 701 
Q 3034 994 3034 1497 
Q 3034 2003 2786 2293 
Q 2538 2584 2113 2584 
z
M 3366 4563 
L 3366 3988 
Q 3128 4100 2886 4159 
Q 2644 4219 2406 4219 
Q 1781 4219 1451 3797 
Q 1122 3375 1075 2522 
Q 1259 2794 1537 2939 
Q 1816 3084 2150 3084 
Q 2853 3084 3261 2657 
Q 3669 2231 3669 1497 
Q 3669 778 3244 343 
Q 2819 -91 2113 -91 
Q 1303 -91 875 529 
Q 447 1150 447 2328 
Q 447 3434 972 4092 
Q 1497 4750 2381 4750 
Q 2619 4750 2861 4703 
Q 3103 4656 3366 4563 
z
" transform="scale(0.015625)"/>
       </defs>
       <use xlink:href="#DejaVuSans-2212"/>
       <use xlink:href="#DejaVuSans-30" transform="translate(83.789062 0)"/>
       <use xlink:href="#DejaVuSans-2e" transform="translate(147.412109 0)"/>
       <use xlink:href="#DejaVuSans-36" transform="translate(179.199219 0)"/>
      </g>
     </g>
    </g>
    <g id="xtick_4">
     <g id="line2d_7">
      <path d="M 264.175759 354.958125 
L 264.175759 22.318125 
" clip-path="url(#p155e7bbfd9)" style="fill: none; stroke: #b0b0b0; stroke-width: 0.8; stroke-linecap: square"/>
     </g>
     <g id="line2d_8">
      <g>
       <use xlink:href="#me9af169d89" x="264.175759" y="354.958125" style="stroke: #000000; stroke-width: 0.8"/>
      </g>
     </g>
     <g id="text_4">
      <!-- −0.4 -->
      <g transform="translate(252.034352 369.556562) scale(0.1 -0.1)">
       <defs>
        <path id="DejaVuSans-34" d="M 2419 4116 
L 825 1625 
L 2419 1625 
L 2419 4116 
z
M 2253 4666 
L 3047 4666 
L 3047 1625 
L 3713 1625 
L 3713 1100 
L 3047 1100 
L 3047 0 
L 2419 0 
L 2419 1100 
L 313 1100 
L 313 1709 
L 2253 4666 
z
" transform="scale(0.015625)"/>
       </defs>
       <use xlink:href="#DejaVuSans-2212"/>
       <use xlink:href="#DejaVuSans-30" transform="translate(83.789062 0)"/>
       <use xlink:href="#DejaVuSans-2e" transform="translate(147.412109 0)"/>
       <use xlink:href="#DejaVuSans-34" transform="translate(179.199219 0)"/>
      </g>
     </g>
    </g>
    <g id="xtick_5">
     <g id="line2d_9">
      <path d="M 332.778845 354.958125 
L 332.778845 22.318125 
" clip-path="url(#p155e7bbfd9)" style="fill: none; stroke: #b0b0b0; stroke-width: 0.8; stroke-linecap: square"/>
     </g>
     <g id="line2d_10">
      <g>
       <use xlink:href="#me9af169d89" x="332.778845" y="354.958125" style="stroke: #000000; stroke-width: 0.8"/>
      </g>
     </g>
     <g id="text_5">
      <!-- −0.2 -->
      <g transform="translate(320.637439 369.556562) scale(0.1 -0.1)">
       <defs>
        <path id="DejaVuSans-32" d="M 1228 531 
L 3431 531 
L 3431 0 
L 469 0 
L 469 531 
Q 828 903 1448 1529 
Q 2069 2156 2228 2338 
Q 2531 2678 2651 2914 
Q 2772 3150 2772 3378 
Q 2772 3750 2511 3984 
Q 2250 4219 1831 4219 
Q 1534 4219 1204 4116 
Q 875 4013 500 3803 
L 500 4441 
Q 881 4594 1212 4672 
Q 1544 4750 1819 4750 
Q 2544 4750 2975 4387 
Q 3406 4025 3406 3419 
Q 3406 3131 3298 2873 
Q 3191 2616 2906 2266 
Q 2828 2175 2409 1742 
Q 1991 1309 1228 531 
z
" transform="scale(0.015625)"/>
       </defs>
       <use xlink:href="#DejaVuSans-2212"/>
       <use xlink:href="#DejaVuSans-30" transform="translate(83.789062 0)"/>
       <use xlink:href="#DejaVuSans-2e" transform="translate(147.412109 0)"/>
       <use xlink:href="#DejaVuSans-32" transform="translate(179.199219 0)"/>
      </g>
     </g>
    </g>
    <g id="xtick_6">
     <g id="line2d_11">
      <path d="M 401.381932 354.958125 
L 401.381932 22.318125 
" clip-path="url(#p155e7bbfd9)" style="fill: none; stroke: #b0b0b0; stroke-width: 0.8; stroke-linecap: square"/>
     </g>
     <g id="line2d_12">
      <g>
       <use xlink:href="#me9af169d89" x="401.381932" y="354.958125" style="stroke: #000000; stroke-width: 0.8"/>
      </g>
     </g>
     <g id="text_6">
      <!-- 0.0 -->
      <g transform="translate(393.43037 369.556562) scale(0.1 -0.1)">
       <use xlink:href="#DejaVuSans-30"/>
       <use xlink:href="#DejaVuSans-2e" transform="translate(63.623047 0)"/>
       <use xlink:href="#DejaVuSans-30" transform="translate(95.410156 0)"/>
      </g>
     </g>
    </g>
    <g id="xtick_7">
     <g id="line2d_13">
      <path d="M 469.985019 354.958125 
L 469.985019 22.318125 
" clip-path="url(#p155e7bbfd9)" style="fill: none; stroke: #b0b0b0; stroke-width: 0.8; stroke-linecap: square"/>
     </g>
     <g id="line2d_14">
      <g>
       <use xlink:href="#me9af169d89" x="469.985019" y="354.958125" style="stroke: #000000; stroke-width: 0.8"/>
      </g>
     </g>
     <g id="text_7">
      <!-- 0.2 -->
      <g transform="translate(462.033457 369.556562) scale(0.1 -0.1)">
       <use xlink:href="#DejaVuSans-30"/>
       <use xlink:href="#DejaVuSans-2e" transform="translate(63.623047 0)"/>
       <use xlink:href="#DejaVuSans-32" transform="translate(95.410156 0)"/>
      </g>
     </g>
    </g>
    <g id="text_8">
     <!-- X (m) -->
     <g transform="translate(261.575 383.234687) scale(0.1 -0.1)">
      <defs>
       <path id="DejaVuSans-58" d="M 403 4666 
L 1081 4666 
L 2241 2931 
L 3406 4666 
L 4084 4666 
L 2584 2425 
L 4184 0 
L 3506 0 
L 2194 1984 
L 872 0 
L 191 0 
L 1856 2491 
L 403 4666 
z
" transform="scale(0.015625)"/>
       <path id="DejaVuSans-20" transform="scale(0.015625)"/>
       <path id="DejaVuSans-28" d="M 1984 4856 
Q 1566 4138 1362 3434 
Q 1159 2731 1159 2009 
Q 1159 1288 1364 580 
Q 1569 -128 1984 -844 
L 1484 -844 
Q 1016 -109 783 600 
Q 550 1309 550 2009 
Q 550 2706 781 3412 
Q 1013 4119 1484 4856 
L 1984 4856 
z
" transform="scale(0.015625)"/>
       <path id="DejaVuSans-6d" d="M 3328 2828 
Q 3544 3216 3844 3400 
Q 4144 3584 4550 3584 
Q 5097 3584 5394 3201 
Q 5691 2819 5691 2113 
L 5691 0 
L 5113 0 
L 5113 2094 
Q 5113 2597 4934 2840 
Q 4756 3084 4391 3084 
Q 3944 3084 3684 2787 
Q 3425 2491 3425 1978 
L 3425 0 
L 2847 0 
L 2847 2094 
Q 2847 2600 2669 2842 
Q 2491 3084 2119 3084 
Q 1678 3084 1418 2786 
Q 1159 2488 1159 1978 
L 1159 0 
L 581 0 
L 581 3500 
L 1159 3500 
L 1159 2956 
Q 1356 3278 1631 3431 
Q 1906 3584 2284 3584 
Q 2666 3584 2933 3390 
Q 3200 3197 3328 2828 
z
" transform="scale(0.015625)"/>
       <path id="DejaVuSans-29" d="M 513 4856 
L 1013 4856 
Q 1481 4119 1714 3412 
Q 1947 2706 1947 2009 
Q 1947 1309 1714 600 
Q 1481 -109 1013 -844 
L 513 -844 
Q 928 -128 1133 580 
Q 1338 1288 1338 2009 
Q 1338 2731 1133 3434 
Q 928 4138 513 4856 
z
" transform="scale(0.015625)"/>
      </defs>
      <use xlink:href="#DejaVuSans-58"/>
      <use xlink:href="#DejaVuSans-20" transform="translate(68.505859 0)"/>
      <use xlink:href="#DejaVuSans-28" transform="translate(100.292969 0)"/>
      <use xlink:href="#DejaVuSans-6d" transform="translate(139.306641 0)"/>
      <use xlink:href="#DejaVuSans-29" transform="translate(236.71875 0)"/>
     </g>
    </g>
   </g>
   <g id="matplotlib.axis_2">
    <g id="ytick_1">
     <g id="line2d_15">
      <path d="M 52.160938 334.8812 
L 498.560937 334.8812 
" clip-path="url(#p155e7bbfd9)" style="fill: none; stroke: #b0b0b0; stroke-width: 0.8; stroke-linecap: square"/>
     </g>
     <g id="line2d_16">
      <defs>
       <path id="m87b80e0ecc" d="M 0 0 
L -3.5 0 
" style="stroke: #000000; stroke-width: 0.8"/>
      </defs>
      <g>
       <use xlink:href="#m87b80e0ecc" x="52.160938" y="334.8812" style="stroke: #000000; stroke-width: 0.8"/>
      </g>
     </g>
     <g id="text_9">
      <!-- −1.0 -->
      <g transform="translate(20.878125 338.680419) scale(0.1 -0.1)">
       <use xlink:href="#DejaVuSans-2212"/>
       <use xlink:href="#DejaVuSans-31" transform="translate(83.789062 0)"/>
       <use xlink:href="#DejaVuSans-2e" transform="translate(147.412109 0)"/>
       <use xlink:href="#DejaVuSans-30" transform="translate(179.199219 0)"/>
      </g>
     </g>
    </g>
    <g id="ytick_2">
     <g id="line2d_17">
      <path d="M 52.160938 275.392941 
L 498.560937 275.392941 
" clip-path="url(#p155e7bbfd9)" style="fill: none; stroke: #b0b0b0; stroke-width: 0.8; stroke-linecap: square"/>
     </g>
     <g id="line2d_18">
      <g>
       <use xlink:href="#m87b80e0ecc" x="52.160938" y="275.392941" style="stroke: #000000; stroke-width: 0.8"/>
      </g>
     </g>
     <g id="text_10">
      <!-- −0.8 -->
      <g transform="translate(20.878125 279.192159) scale(0.1 -0.1)">
       <use xlink:href="#DejaVuSans-2212"/>
       <use xlink:href="#DejaVuSans-30" transform="translate(83.789062 0)"/>
       <use xlink:href="#DejaVuSans-2e" transform="translate(147.412109 0)"/>
       <use xlink:href="#DejaVuSans-38" transform="translate(179.199219 0)"/>
      </g>
     </g>
    </g>
    <g id="ytick_3">
     <g id="line2d_19">
      <path d="M 52.160938 215.904681 
L 498.560937 215.904681 
" clip-path="url(#p155e7bbfd9)" style="fill: none; stroke: #b0b0b0; stroke-width: 0.8; stroke-linecap: square"/>
     </g>
     <g id="line2d_20">
      <g>
       <use xlink:href="#m87b80e0ecc" x="52.160938" y="215.904681" style="stroke: #000000; stroke-width: 0.8"/>
      </g>
     </g>
     <g id="text_11">
      <!-- −0.6 -->
      <g transform="translate(20.878125 219.7039) scale(0.1 -0.1)">
       <use xlink:href="#DejaVuSans-2212"/>
       <use xlink:href="#DejaVuSans-30" transform="translate(83.789062 0)"/>
       <use xlink:href="#DejaVuSans-2e" transform="translate(147.412109 0)"/>
       <use xlink:href="#DejaVuSans-36" transform="translate(179.199219 0)"/>
      </g>
     </g>
    </g>
    <g id="ytick_4">
     <g id="line2d_21">
      <path d="M 52.160938 156.416422 
L 498.560937 156.416422 
" clip-path="url(#p155e7bbfd9)" style="fill: none; stroke: #b0b0b0; stroke-width: 0.8; stroke-linecap: square"/>
     </g>
     <g id="line2d_22">
      <g>
       <use xlink:href="#m87b80e0ecc" x="52.160938" y="156.416422" style="stroke: #000000; stroke-width: 0.8"/>
      </g>
     </g>
     <g id="text_12">
      <!-- −0.4 -->
      <g transform="translate(20.878125 160.21564) scale(0.1 -0.1)">
       <use xlink:href="#DejaVuSans-2212"/>
       <use xlink:href="#DejaVuSans-30" transform="translate(83.789062 0)"/>
       <use xlink:href="#DejaVuSans-2e" transform="translate(147.412109 0)"/>
       <use xlink:href="#DejaVuSans-34" transform="translate(179.199219 0)"/>
      </g>
     </g>
    </g>
    <g id="ytick_5">
     <g id="line2d_23">
      <path d="M 52.160938 96.928162 
L 498.560937 96.928162 
" clip-path="url(#p155e7bbfd9)" style="fill: none; stroke: #b0b0b0; stroke-width: 0.8; stroke-linecap: square"/>
     </g>
     <g id="line2d_24">
      <g>
       <use xlink:href="#m87b80e0ecc" x="52.160938" y="96.928162" style="stroke: #000000; stroke-width: 0.8"/>
      </g>
     </g>
     <g id="text_13">
      <!-- −0.2 -->
      <g transform="translate(20.878125 100.727381) scale(0.1 -0.1)">
       <use xlink:href="#DejaVuSans-2212"/>
       <use xlink:href="#DejaVuSans-30" transform="translate(83.789062 0)"/>
       <use xlink:href="#DejaVuSans-2e" transform="translate(147.412109 0)"/>
       <use xlink:href="#DejaVuSans-32" transform="translate(179.199219 0)"/>
      </g>
     </g>
    </g>
    <g id="ytick_6">
     <g id="line2d_25">
      <path d="M 52.160938 37.439903 
L 498.560937 37.439903 
" clip-path="url(#p155e7bbfd9)" style="fill: none; stroke: #b0b0b0; stroke-width: 0.8; stroke-linecap: square"/>
     </g>
     <g id="line2d_26">
      <g>
       <use xlink:href="#m87b80e0ecc" x="52.160938" y="37.439903" style="stroke: #000000; stroke-width: 0.8"/>
      </g>
     </g>
     <g id="text_14">
      <!-- 0.0 -->
      <g transform="translate(29.257812 41.239121) scale(0.1 -0.1)">
       <use xlink:href="#DejaVuSans-30"/>
       <use xlink:href="#DejaVuSans-2e" transform="translate(63.623047 0)"/>
       <use xlink:href="#DejaVuSans-30" transform="translate(95.410156 0)"/>
      </g>
     </g>
    </g>
    <g id="text_15">
     <!-- Y (m) -->
     <g transform="translate(14.798438 202.052969) rotate(-90) scale(0.1 -0.1)">
      <defs>
       <path id="DejaVuSans-59" d="M -13 4666 
L 666 4666 
L 1959 2747 
L 3244 4666 
L 3922 4666 
L 2272 2222 
L 2272 0 
L 1638 0 
L 1638 2222 
L -13 4666 
z
" transform="scale(0.015625)"/>
      </defs>
      <use xlink:href="#DejaVuSans-59"/>
      <use xlink:href="#DejaVuSans-20" transform="translate(61.083984 0)"/>
      <use xlink:href="#DejaVuSans-28" transform="translate(92.871094 0)"/>
      <use xlink:href="#DejaVuSans-6d" transform="translate(131.884766 0)"/>
      <use xlink:href="#DejaVuSans-29" transform="translate(229.296875 0)"/>
     </g>
    </g>
   </g>
   <g id="line2d_27">
    <path d="M 401.381932 37.439903 
L 401.382202 37.440172 
L 401.386484 37.438125 
L 401.843609 37.478051 
L 402.819844 37.609917 
L 404.347352 37.713022 
L 406.620981 37.943903 
L 408.912519 38.339777 
L 411.833419 38.815127 
L 415.331744 39.548087 
L 418.424292 40.302828 
L 422.502773 41.613269 
L 431.227441 45.164419 
L 438.793597 49.388854 
L 448.15214 56.363918 
L 454.361525 62.373602 
L 460.456538 69.953907 
L 465.062239 77.121513 
L 470.113519 87.240645 
L 473.020587 95.039549 
L 475.42012 103.828382 
L 477.052096 111.884581 
L 478.161469 122.764539 
L 478.270028 130.969431 
L 477.708012 141.066615 
L 476.757499 148.267892 
L 474.44538 159.085303 
L 472.085464 167.049729 
L 468.665117 175.73728 
L 465.072855 183.414135 
L 459.809163 193.244978 
L 455.238971 200.505647 
L 449.69455 208.399839 
L 443.12223 216.690876 
L 436.841946 224.004004 
L 430.966973 230.33006 
L 424.002642 237.244076 
L 417.532532 243.200679 
L 408.541488 250.963146 
L 401.569674 256.599531 
L 393.714437 262.587337 
L 386.38511 267.823633 
L 376.315628 274.511766 
L 368.63538 279.305088 
L 359.828926 284.347023 
L 351.821548 288.718061 
L 340.843048 294.2057 
L 332.498554 298.162946 
L 323.047085 302.269824 
L 312.607575 306.523976 
L 302.981462 310.217328 
L 294.257682 313.366953 
L 284.406118 316.716967 
L 276.144351 319.401474 
L 266.42425 322.376044 
L 260.026217 324.279718 
L 253.676352 326.020092 
L 248.66079 327.382734 
L 242.771364 328.858858 
L 239.371789 329.680025 
L 235.823086 330.407724 
L 231.454587 331.231302 
L 224.275879 332.495229 
L 218.311184 333.446118 
L 210.911433 334.484694 
L 203.629323 335.398139 
L 192.484419 336.740393 
L 183.726506 337.692505 
L 175.624315 338.563064 
L 170.254987 339.117836 
L 165.920887 339.555952 
L 164.012992 339.729802 
L 163.364385 339.838125 
L 163.841517 339.781924 
L 168.114342 339.46245 
L 171.080405 339.293884 
L 171.87444 339.244739 
L 170.372445 339.267503 
L 164.341241 339.28665 
L 157.427454 339.274488 
L 148.352434 339.161697 
L 138.443306 339.055608 
L 125.720127 338.941788 
L 116.161943 338.84006 
L 107.570618 338.864951 
L 101.827468 338.887609 
L 98.636139 338.895693 
L 98.96997 338.900161 
L 102.055454 338.866192 
L 107.531649 338.741026 
L 117.94825 338.624087 
L 127.543767 338.716312 
L 135.165943 338.963807 
L 139.22121 339.196729 
L 140.795867 339.269382 
L 139.212112 339.157761 
L 134.899377 338.8029 
L 128.475807 338.212776 
L 117.018581 337.215527 
L 106.923605 336.393403 
L 96.382329 335.731052 
L 86.866283 335.221808 
L 77.340423 334.76247 
L 73.584967 334.595162 
L 72.451847 334.584064 
L 74.403515 334.58222 
" clip-path="url(#p155e7bbfd9)" style="fill: none; stroke: #ffa500; stroke-width: 1.5; stroke-linecap: square"/>
    <defs>
     <path id="mfdb0682f81" d="M 0 1.414214 
L 1.414214 0 
L 0 -1.414214 
L -1.414214 0 
z
" style="stroke: #ffa500; stroke-linejoin: miter"/>
    </defs>
    <g clip-path="url(#p155e7bbfd9)">
     <use xlink:href="#mfdb0682f81" x="401.381932" y="37.439903" style="fill: #ffa500; stroke: #ffa500; stroke-linejoin: miter"/>
     <use xlink:href="#mfdb0682f81" x="401.382202" y="37.440172" style="fill: #ffa500; stroke: #ffa500; stroke-linejoin: miter"/>
     <use xlink:href="#mfdb0682f81" x="401.386484" y="37.438125" style="fill: #ffa500; stroke: #ffa500; stroke-linejoin: miter"/>
     <use xlink:href="#mfdb0682f81" x="401.843609" y="37.478051" style="fill: #ffa500; stroke: #ffa500; stroke-linejoin: miter"/>
     <use xlink:href="#mfdb0682f81" x="402.819844" y="37.609917" style="fill: #ffa500; stroke: #ffa500; stroke-linejoin: miter"/>
     <use xlink:href="#mfdb0682f81" x="404.347352" y="37.713022" style="fill: #ffa500; stroke: #ffa500; stroke-linejoin: miter"/>
     <use xlink:href="#mfdb0682f81" x="406.620981" y="37.943903" style="fill: #ffa500; stroke: #ffa500; stroke-linejoin: miter"/>
     <use xlink:href="#mfdb0682f81" x="408.912519" y="38.339777" style="fill: #ffa500; stroke: #ffa500; stroke-linejoin: miter"/>
     <use xlink:href="#mfdb0682f81" x="411.833419" y="38.815127" style="fill: #ffa500; stroke: #ffa500; stroke-linejoin: miter"/>
     <use xlink:href="#mfdb0682f81" x="415.331744" y="39.548087" style="fill: #ffa500; stroke: #ffa500; stroke-linejoin: miter"/>
     <use xlink:href="#mfdb0682f81" x="418.424292" y="40.302828" style="fill: #ffa500; stroke: #ffa500; stroke-linejoin: miter"/>
     <use xlink:href="#mfdb0682f81" x="422.502773" y="41.613269" style="fill: #ffa500; stroke: #ffa500; stroke-linejoin: miter"/>
     <use xlink:href="#mfdb0682f81" x="431.227441" y="45.164419" style="fill: #ffa500; stroke: #ffa500; stroke-linejoin: miter"/>
     <use xlink:href="#mfdb0682f81" x="438.793597" y="49.388854" style="fill: #ffa500; stroke: #ffa500; stroke-linejoin: miter"/>
     <use xlink:href="#mfdb0682f81" x="448.15214" y="56.363918" style="fill: #ffa500; stroke: #ffa500; stroke-linejoin: miter"/>
     <use xlink:href="#mfdb0682f81" x="454.361525" y="62.373602" style="fill: #ffa500; stroke: #ffa500; stroke-linejoin: miter"/>
     <use xlink:href="#mfdb0682f81" x="460.456538" y="69.953907" style="fill: #ffa500; stroke: #ffa500; stroke-linejoin: miter"/>
     <use xlink:href="#mfdb0682f81" x="465.062239" y="77.121513" style="fill: #ffa500; stroke: #ffa500; stroke-linejoin: miter"/>
     <use xlink:href="#mfdb0682f81" x="470.113519" y="87.240645" style="fill: #ffa500; stroke: #ffa500; stroke-linejoin: miter"/>
     <use xlink:href="#mfdb0682f81" x="473.020587" y="95.039549" style="fill: #ffa500; stroke: #ffa500; stroke-linejoin: miter"/>
     <use xlink:href="#mfdb0682f81" x="475.42012" y="103.828382" style="fill: #ffa500; stroke: #ffa500; stroke-linejoin: miter"/>
     <use xlink:href="#mfdb0682f81" x="477.052096" y="111.884581" style="fill: #ffa500; stroke: #ffa500; stroke-linejoin: miter"/>
     <use xlink:href="#mfdb0682f81" x="478.161469" y="122.764539" style="fill: #ffa500; stroke: #ffa500; stroke-linejoin: miter"/>
     <use xlink:href="#mfdb0682f81" x="478.270028" y="130.969431" style="fill: #ffa500; stroke: #ffa500; stroke-linejoin: miter"/>
     <use xlink:href="#mfdb0682f81" x="477.708012" y="141.066615" style="fill: #ffa500; stroke: #ffa500; stroke-linejoin: miter"/>
     <use xlink:href="#mfdb0682f81" x="476.757499" y="148.267892" style="fill: #ffa500; stroke: #ffa500; stroke-linejoin: miter"/>
     <use xlink:href="#mfdb0682f81" x="474.44538" y="159.085303" style="fill: #ffa500; stroke: #ffa500; stroke-linejoin: miter"/>
     <use xlink:href="#mfdb0682f81" x="472.085464" y="167.049729" style="fill: #ffa500; stroke: #ffa500; stroke-linejoin: miter"/>
     <use xlink:href="#mfdb0682f81" x="468.665117" y="175.73728" style="fill: #ffa500; stroke: #ffa500; stroke-linejoin: miter"/>
     <use xlink:href="#mfdb0682f81" x="465.072855" y="183.414135" style="fill: #ffa500; stroke: #ffa500; stroke-linejoin: miter"/>
     <use xlink:href="#mfdb0682f81" x="459.809163" y="193.244978" style="fill: #ffa500; stroke: #ffa500; stroke-linejoin: miter"/>
     <use xlink:href="#mfdb0682f81" x="455.238971" y="200.505647" style="fill: #ffa500; stroke: #ffa500; stroke-linejoin: miter"/>
     <use xlink:href="#mfdb0682f81" x="449.69455" y="208.399839" style="fill: #ffa500; stroke: #ffa500; stroke-linejoin: miter"/>
     <use xlink:href="#mfdb0682f81" x="443.12223" y="216.690876" style="fill: #ffa500; stroke: #ffa500; stroke-linejoin: miter"/>
     <use xlink:href="#mfdb0682f81" x="436.841946" y="224.004004" style="fill: #ffa500; stroke: #ffa500; stroke-linejoin: miter"/>
     <use xlink:href="#mfdb0682f81" x="430.966973" y="230.33006" style="fill: #ffa500; stroke: #ffa500; stroke-linejoin: miter"/>
     <use xlink:href="#mfdb0682f81" x="424.002642" y="237.244076" style="fill: #ffa500; stroke: #ffa500; stroke-linejoin: miter"/>
     <use xlink:href="#mfdb0682f81" x="417.532532" y="243.200679" style="fill: #ffa500; stroke: #ffa500; stroke-linejoin: miter"/>
     <use xlink:href="#mfdb0682f81" x="408.541488" y="250.963146" style="fill: #ffa500; stroke: #ffa500; stroke-linejoin: miter"/>
     <use xlink:href="#mfdb0682f81" x="401.569674" y="256.599531" style="fill: #ffa500; stroke: #ffa500; stroke-linejoin: miter"/>
     <use xlink:href="#mfdb0682f81" x="393.714437" y="262.587337" style="fill: #ffa500; stroke: #ffa500; stroke-linejoin: miter"/>
     <use xlink:href="#mfdb0682f81" x="386.38511" y="267.823633" style="fill: #ffa500; stroke: #ffa500; stroke-linejoin: miter"/>
     <use xlink:href="#mfdb0682f81" x="376.315628" y="274.511766" style="fill: #ffa500; stroke: #ffa500; stroke-linejoin: miter"/>
     <use xlink:href="#mfdb0682f81" x="368.63538" y="279.305088" style="fill: #ffa500; stroke: #ffa500; stroke-linejoin: miter"/>
     <use xlink:href="#mfdb0682f81" x="359.828926" y="284.347023" style="fill: #ffa500; stroke: #ffa500; stroke-linejoin: miter"/>
     <use xlink:href="#mfdb0682f81" x="351.821548" y="288.718061" style="fill: #ffa500; stroke: #ffa500; stroke-linejoin: miter"/>
     <use xlink:href="#mfdb0682f81" x="340.843048" y="294.2057" style="fill: #ffa500; stroke: #ffa500; stroke-linejoin: miter"/>
     <use xlink:href="#mfdb0682f81" x="332.498554" y="298.162946" style="fill: #ffa500; stroke: #ffa500; stroke-linejoin: miter"/>
     <use xlink:href="#mfdb0682f81" x="323.047085" y="302.269824" style="fill: #ffa500; stroke: #ffa500; stroke-linejoin: miter"/>
     <use xlink:href="#mfdb0682f81" x="312.607575" y="306.523976" style="fill: #ffa500; stroke: #ffa500; stroke-linejoin: miter"/>
     <use xlink:href="#mfdb0682f81" x="302.981462" y="310.217328" style="fill: #ffa500; stroke: #ffa500; stroke-linejoin: miter"/>
     <use xlink:href="#mfdb0682f81" x="294.257682" y="313.366953" style="fill: #ffa500; stroke: #ffa500; stroke-linejoin: miter"/>
     <use xlink:href="#mfdb0682f81" x="284.406118" y="316.716967" style="fill: #ffa500; stroke: #ffa500; stroke-linejoin: miter"/>
     <use xlink:href="#mfdb0682f81" x="276.144351" y="319.401474" style="fill: #ffa500; stroke: #ffa500; stroke-linejoin: miter"/>
     <use xlink:href="#mfdb0682f81" x="266.42425" y="322.376044" style="fill: #ffa500; stroke: #ffa500; stroke-linejoin: miter"/>
     <use xlink:href="#mfdb0682f81" x="260.026217" y="324.279718" style="fill: #ffa500; stroke: #ffa500; stroke-linejoin: miter"/>
     <use xlink:href="#mfdb0682f81" x="253.676352" y="326.020092" style="fill: #ffa500; stroke: #ffa500; stroke-linejoin: miter"/>
     <use xlink:href="#mfdb0682f81" x="248.66079" y="327.382734" style="fill: #ffa500; stroke: #ffa500; stroke-linejoin: miter"/>
     <use xlink:href="#mfdb0682f81" x="242.771364" y="328.858858" style="fill: #ffa500; stroke: #ffa500; stroke-linejoin: miter"/>
     <use xlink:href="#mfdb0682f81" x="239.371789" y="329.680025" style="fill: #ffa500; stroke: #ffa500; stroke-linejoin: miter"/>
     <use xlink:href="#mfdb0682f81" x="235.823086" y="330.407724" style="fill: #ffa500; stroke: #ffa500; stroke-linejoin: miter"/>
     <use xlink:href="#mfdb0682f81" x="231.454587" y="331.231302" style="fill: #ffa500; stroke: #ffa500; stroke-linejoin: miter"/>
     <use xlink:href="#mfdb0682f81" x="224.275879" y="332.495229" style="fill: #ffa500; stroke: #ffa500; stroke-linejoin: miter"/>
     <use xlink:href="#mfdb0682f81" x="218.311184" y="333.446118" style="fill: #ffa500; stroke: #ffa500; stroke-linejoin: miter"/>
     <use xlink:href="#mfdb0682f81" x="210.911433" y="334.484694" style="fill: #ffa500; stroke: #ffa500; stroke-linejoin: miter"/>
     <use xlink:href="#mfdb0682f81" x="203.629323" y="335.398139" style="fill: #ffa500; stroke: #ffa500; stroke-linejoin: miter"/>
     <use xlink:href="#mfdb0682f81" x="192.484419" y="336.740393" style="fill: #ffa500; stroke: #ffa500; stroke-linejoin: miter"/>
     <use xlink:href="#mfdb0682f81" x="183.726506" y="337.692505" style="fill: #ffa500; stroke: #ffa500; stroke-linejoin: miter"/>
     <use xlink:href="#mfdb0682f81" x="175.624315" y="338.563064" style="fill: #ffa500; stroke: #ffa500; stroke-linejoin: miter"/>
     <use xlink:href="#mfdb0682f81" x="170.254987" y="339.117836" style="fill: #ffa500; stroke: #ffa500; stroke-linejoin: miter"/>
     <use xlink:href="#mfdb0682f81" x="165.920887" y="339.555952" style="fill: #ffa500; stroke: #ffa500; stroke-linejoin: miter"/>
     <use xlink:href="#mfdb0682f81" x="164.012992" y="339.729802" style="fill: #ffa500; stroke: #ffa500; stroke-linejoin: miter"/>
     <use xlink:href="#mfdb0682f81" x="163.364385" y="339.838125" style="fill: #ffa500; stroke: #ffa500; stroke-linejoin: miter"/>
     <use xlink:href="#mfdb0682f81" x="163.841517" y="339.781924" style="fill: #ffa500; stroke: #ffa500; stroke-linejoin: miter"/>
     <use xlink:href="#mfdb0682f81" x="168.114342" y="339.46245" style="fill: #ffa500; stroke: #ffa500; stroke-linejoin: miter"/>
     <use xlink:href="#mfdb0682f81" x="171.080405" y="339.293884" style="fill: #ffa500; stroke: #ffa500; stroke-linejoin: miter"/>
     <use xlink:href="#mfdb0682f81" x="171.87444" y="339.244739" style="fill: #ffa500; stroke: #ffa500; stroke-linejoin: miter"/>
     <use xlink:href="#mfdb0682f81" x="170.372445" y="339.267503" style="fill: #ffa500; stroke: #ffa500; stroke-linejoin: miter"/>
     <use xlink:href="#mfdb0682f81" x="164.341241" y="339.28665" style="fill: #ffa500; stroke: #ffa500; stroke-linejoin: miter"/>
     <use xlink:href="#mfdb0682f81" x="157.427454" y="339.274488" style="fill: #ffa500; stroke: #ffa500; stroke-linejoin: miter"/>
     <use xlink:href="#mfdb0682f81" x="148.352434" y="339.161697" style="fill: #ffa500; stroke: #ffa500; stroke-linejoin: miter"/>
     <use xlink:href="#mfdb0682f81" x="138.443306" y="339.055608" style="fill: #ffa500; stroke: #ffa500; stroke-linejoin: miter"/>
     <use xlink:href="#mfdb0682f81" x="125.720127" y="338.941788" style="fill: #ffa500; stroke: #ffa500; stroke-linejoin: miter"/>
     <use xlink:href="#mfdb0682f81" x="116.161943" y="338.84006" style="fill: #ffa500; stroke: #ffa500; stroke-linejoin: miter"/>
     <use xlink:href="#mfdb0682f81" x="107.570618" y="338.864951" style="fill: #ffa500; stroke: #ffa500; stroke-linejoin: miter"/>
     <use xlink:href="#mfdb0682f81" x="101.827468" y="338.887609" style="fill: #ffa500; stroke: #ffa500; stroke-linejoin: miter"/>
     <use xlink:href="#mfdb0682f81" x="98.636139" y="338.895693" style="fill: #ffa500; stroke: #ffa500; stroke-linejoin: miter"/>
     <use xlink:href="#mfdb0682f81" x="98.96997" y="338.900161" style="fill: #ffa500; stroke: #ffa500; stroke-linejoin: miter"/>
     <use xlink:href="#mfdb0682f81" x="102.055454" y="338.866192" style="fill: #ffa500; stroke: #ffa500; stroke-linejoin: miter"/>
     <use xlink:href="#mfdb0682f81" x="107.531649" y="338.741026" style="fill: #ffa500; stroke: #ffa500; stroke-linejoin: miter"/>
     <use xlink:href="#mfdb0682f81" x="117.94825" y="338.624087" style="fill: #ffa500; stroke: #ffa500; stroke-linejoin: miter"/>
     <use xlink:href="#mfdb0682f81" x="127.543767" y="338.716312" style="fill: #ffa500; stroke: #ffa500; stroke-linejoin: miter"/>
     <use xlink:href="#mfdb0682f81" x="135.165943" y="338.963807" style="fill: #ffa500; stroke: #ffa500; stroke-linejoin: miter"/>
     <use xlink:href="#mfdb0682f81" x="139.22121" y="339.196729" style="fill: #ffa500; stroke: #ffa500; stroke-linejoin: miter"/>
     <use xlink:href="#mfdb0682f81" x="140.795867" y="339.269382" style="fill: #ffa500; stroke: #ffa500; stroke-linejoin: miter"/>
     <use xlink:href="#mfdb0682f81" x="139.212112" y="339.157761" style="fill: #ffa500; stroke: #ffa500; stroke-linejoin: miter"/>
     <use xlink:href="#mfdb0682f81" x="134.899377" y="338.8029" style="fill: #ffa500; stroke: #ffa500; stroke-linejoin: miter"/>
     <use xlink:href="#mfdb0682f81" x="128.475807" y="338.212776" style="fill: #ffa500; stroke: #ffa500; stroke-linejoin: miter"/>
     <use xlink:href="#mfdb0682f81" x="117.018581" y="337.215527" style="fill: #ffa500; stroke: #ffa500; stroke-linejoin: miter"/>
     <use xlink:href="#mfdb0682f81" x="106.923605" y="336.393403" style="fill: #ffa500; stroke: #ffa500; stroke-linejoin: miter"/>
     <use xlink:href="#mfdb0682f81" x="96.382329" y="335.731052" style="fill: #ffa500; stroke: #ffa500; stroke-linejoin: miter"/>
     <use xlink:href="#mfdb0682f81" x="86.866283" y="335.221808" style="fill: #ffa500; stroke: #ffa500; stroke-linejoin: miter"/>
     <use xlink:href="#mfdb0682f81" x="77.340423" y="334.76247" style="fill: #ffa500; stroke: #ffa500; stroke-linejoin: miter"/>
     <use xlink:href="#mfdb0682f81" x="73.584967" y="334.595162" style="fill: #ffa500; stroke: #ffa500; stroke-linejoin: miter"/>
     <use xlink:href="#mfdb0682f81" x="72.451847" y="334.584064" style="fill: #ffa500; stroke: #ffa500; stroke-linejoin: miter"/>
     <use xlink:href="#mfdb0682f81" x="74.403515" y="334.58222" style="fill: #ffa500; stroke: #ffa500; stroke-linejoin: miter"/>
    </g>
   </g>
   <g id="patch_3">
    <path d="M 52.160938 354.958125 
L 52.160938 22.318125 
" style="fill: none; stroke: #000000; stroke-width: 0.8; stroke-linejoin: miter; stroke-linecap: square"/>
   </g>
   <g id="patch_4">
    <path d="M 498.560937 354.958125 
L 498.560937 22.318125 
" style="fill: none; stroke: #000000; stroke-width: 0.8; stroke-linejoin: miter; stroke-linecap: square"/>
   </g>
   <g id="patch_5">
    <path d="M 52.160937 354.958125 
L 498.560937 354.958125 
" style="fill: none; stroke: #000000; stroke-width: 0.8; stroke-linejoin: miter; stroke-linecap: square"/>
   </g>
   <g id="patch_6">
    <path d="M 52.160937 22.318125 
L 498.560937 22.318125 
" style="fill: none; stroke: #000000; stroke-width: 0.8; stroke-linejoin: miter; stroke-linecap: square"/>
   </g>
   <g id="text_16">
    <!-- Trajectory X vs Y (State Space) -->
    <g transform="translate(182.902812 16.318125) scale(0.12 -0.12)">
     <defs>
      <path id="DejaVuSans-54" d="M -19 4666 
L 3928 4666 
L 3928 4134 
L 2272 4134 
L 2272 0 
L 1638 0 
L 1638 4134 
L -19 4134 
L -19 4666 
z
" transform="scale(0.015625)"/>
      <path id="DejaVuSans-72" d="M 2631 2963 
Q 2534 3019 2420 3045 
Q 2306 3072 2169 3072 
Q 1681 3072 1420 2755 
Q 1159 2438 1159 1844 
L 1159 0 
L 581 0 
L 581 3500 
L 1159 3500 
L 1159 2956 
Q 1341 3275 1631 3429 
Q 1922 3584 2338 3584 
Q 2397 3584 2469 3576 
Q 2541 3569 2628 3553 
L 2631 2963 
z
" transform="scale(0.015625)"/>
      <path id="DejaVuSans-61" d="M 2194 1759 
Q 1497 1759 1228 1600 
Q 959 1441 959 1056 
Q 959 750 1161 570 
Q 1363 391 1709 391 
Q 2188 391 2477 730 
Q 2766 1069 2766 1631 
L 2766 1759 
L 2194 1759 
z
M 3341 1997 
L 3341 0 
L 2766 0 
L 2766 531 
Q 2569 213 2275 61 
Q 1981 -91 1556 -91 
Q 1019 -91 701 211 
Q 384 513 384 1019 
Q 384 1609 779 1909 
Q 1175 2209 1959 2209 
L 2766 2209 
L 2766 2266 
Q 2766 2663 2505 2880 
Q 2244 3097 1772 3097 
Q 1472 3097 1187 3025 
Q 903 2953 641 2809 
L 641 3341 
Q 956 3463 1253 3523 
Q 1550 3584 1831 3584 
Q 2591 3584 2966 3190 
Q 3341 2797 3341 1997 
z
" transform="scale(0.015625)"/>
      <path id="DejaVuSans-6a" d="M 603 3500 
L 1178 3500 
L 1178 -63 
Q 1178 -731 923 -1031 
Q 669 -1331 103 -1331 
L -116 -1331 
L -116 -844 
L 38 -844 
Q 366 -844 484 -692 
Q 603 -541 603 -63 
L 603 3500 
z
M 603 4863 
L 1178 4863 
L 1178 4134 
L 603 4134 
L 603 4863 
z
" transform="scale(0.015625)"/>
      <path id="DejaVuSans-65" d="M 3597 1894 
L 3597 1613 
L 953 1613 
Q 991 1019 1311 708 
Q 1631 397 2203 397 
Q 2534 397 2845 478 
Q 3156 559 3463 722 
L 3463 178 
Q 3153 47 2828 -22 
Q 2503 -91 2169 -91 
Q 1331 -91 842 396 
Q 353 884 353 1716 
Q 353 2575 817 3079 
Q 1281 3584 2069 3584 
Q 2775 3584 3186 3129 
Q 3597 2675 3597 1894 
z
M 3022 2063 
Q 3016 2534 2758 2815 
Q 2500 3097 2075 3097 
Q 1594 3097 1305 2825 
Q 1016 2553 972 2059 
L 3022 2063 
z
" transform="scale(0.015625)"/>
      <path id="DejaVuSans-63" d="M 3122 3366 
L 3122 2828 
Q 2878 2963 2633 3030 
Q 2388 3097 2138 3097 
Q 1578 3097 1268 2742 
Q 959 2388 959 1747 
Q 959 1106 1268 751 
Q 1578 397 2138 397 
Q 2388 397 2633 464 
Q 2878 531 3122 666 
L 3122 134 
Q 2881 22 2623 -34 
Q 2366 -91 2075 -91 
Q 1284 -91 818 406 
Q 353 903 353 1747 
Q 353 2603 823 3093 
Q 1294 3584 2113 3584 
Q 2378 3584 2631 3529 
Q 2884 3475 3122 3366 
z
" transform="scale(0.015625)"/>
      <path id="DejaVuSans-74" d="M 1172 4494 
L 1172 3500 
L 2356 3500 
L 2356 3053 
L 1172 3053 
L 1172 1153 
Q 1172 725 1289 603 
Q 1406 481 1766 481 
L 2356 481 
L 2356 0 
L 1766 0 
Q 1100 0 847 248 
Q 594 497 594 1153 
L 594 3053 
L 172 3053 
L 172 3500 
L 594 3500 
L 594 4494 
L 1172 4494 
z
" transform="scale(0.015625)"/>
      <path id="DejaVuSans-6f" d="M 1959 3097 
Q 1497 3097 1228 2736 
Q 959 2375 959 1747 
Q 959 1119 1226 758 
Q 1494 397 1959 397 
Q 2419 397 2687 759 
Q 2956 1122 2956 1747 
Q 2956 2369 2687 2733 
Q 2419 3097 1959 3097 
z
M 1959 3584 
Q 2709 3584 3137 3096 
Q 3566 2609 3566 1747 
Q 3566 888 3137 398 
Q 2709 -91 1959 -91 
Q 1206 -91 779 398 
Q 353 888 353 1747 
Q 353 2609 779 3096 
Q 1206 3584 1959 3584 
z
" transform="scale(0.015625)"/>
      <path id="DejaVuSans-79" d="M 2059 -325 
Q 1816 -950 1584 -1140 
Q 1353 -1331 966 -1331 
L 506 -1331 
L 506 -850 
L 844 -850 
Q 1081 -850 1212 -737 
Q 1344 -625 1503 -206 
L 1606 56 
L 191 3500 
L 800 3500 
L 1894 763 
L 2988 3500 
L 3597 3500 
L 2059 -325 
z
" transform="scale(0.015625)"/>
      <path id="DejaVuSans-76" d="M 191 3500 
L 800 3500 
L 1894 563 
L 2988 3500 
L 3597 3500 
L 2284 0 
L 1503 0 
L 191 3500 
z
" transform="scale(0.015625)"/>
      <path id="DejaVuSans-73" d="M 2834 3397 
L 2834 2853 
Q 2591 2978 2328 3040 
Q 2066 3103 1784 3103 
Q 1356 3103 1142 2972 
Q 928 2841 928 2578 
Q 928 2378 1081 2264 
Q 1234 2150 1697 2047 
L 1894 2003 
Q 2506 1872 2764 1633 
Q 3022 1394 3022 966 
Q 3022 478 2636 193 
Q 2250 -91 1575 -91 
Q 1294 -91 989 -36 
Q 684 19 347 128 
L 347 722 
Q 666 556 975 473 
Q 1284 391 1588 391 
Q 1994 391 2212 530 
Q 2431 669 2431 922 
Q 2431 1156 2273 1281 
Q 2116 1406 1581 1522 
L 1381 1569 
Q 847 1681 609 1914 
Q 372 2147 372 2553 
Q 372 3047 722 3315 
Q 1072 3584 1716 3584 
Q 2034 3584 2315 3537 
Q 2597 3491 2834 3397 
z
" transform="scale(0.015625)"/>
      <path id="DejaVuSans-53" d="M 3425 4513 
L 3425 3897 
Q 3066 4069 2747 4153 
Q 2428 4238 2131 4238 
Q 1616 4238 1336 4038 
Q 1056 3838 1056 3469 
Q 1056 3159 1242 3001 
Q 1428 2844 1947 2747 
L 2328 2669 
Q 3034 2534 3370 2195 
Q 3706 1856 3706 1288 
Q 3706 609 3251 259 
Q 2797 -91 1919 -91 
Q 1588 -91 1214 -16 
Q 841 59 441 206 
L 441 856 
Q 825 641 1194 531 
Q 1563 422 1919 422 
Q 2459 422 2753 634 
Q 3047 847 3047 1241 
Q 3047 1584 2836 1778 
Q 2625 1972 2144 2069 
L 1759 2144 
Q 1053 2284 737 2584 
Q 422 2884 422 3419 
Q 422 4038 858 4394 
Q 1294 4750 2059 4750 
Q 2388 4750 2728 4690 
Q 3069 4631 3425 4513 
z
" transform="scale(0.015625)"/>
      <path id="DejaVuSans-70" d="M 1159 525 
L 1159 -1331 
L 581 -1331 
L 581 3500 
L 1159 3500 
L 1159 2969 
Q 1341 3281 1617 3432 
Q 1894 3584 2278 3584 
Q 2916 3584 3314 3078 
Q 3713 2572 3713 1747 
Q 3713 922 3314 415 
Q 2916 -91 2278 -91 
Q 1894 -91 1617 61 
Q 1341 213 1159 525 
z
M 3116 1747 
Q 3116 2381 2855 2742 
Q 2594 3103 2138 3103 
Q 1681 3103 1420 2742 
Q 1159 2381 1159 1747 
Q 1159 1113 1420 752 
Q 1681 391 2138 391 
Q 2594 391 2855 752 
Q 3116 1113 3116 1747 
z
" transform="scale(0.015625)"/>
     </defs>
     <use xlink:href="#DejaVuSans-54"/>
     <use xlink:href="#DejaVuSans-72" transform="translate(46.333984 0)"/>
     <use xlink:href="#DejaVuSans-61" transform="translate(87.447266 0)"/>
     <use xlink:href="#DejaVuSans-6a" transform="translate(148.726562 0)"/>
     <use xlink:href="#DejaVuSans-65" transform="translate(176.509766 0)"/>
     <use xlink:href="#DejaVuSans-63" transform="translate(238.033203 0)"/>
     <use xlink:href="#DejaVuSans-74" transform="translate(293.013672 0)"/>
     <use xlink:href="#DejaVuSans-6f" transform="translate(332.222656 0)"/>
     <use xlink:href="#DejaVuSans-72" transform="translate(393.404297 0)"/>
     <use xlink:href="#DejaVuSans-79" transform="translate(434.517578 0)"/>
     <use xlink:href="#DejaVuSans-20" transform="translate(493.697266 0)"/>
     <use xlink:href="#DejaVuSans-58" transform="translate(525.484375 0)"/>
     <use xlink:href="#DejaVuSans-20" transform="translate(593.990234 0)"/>
     <use xlink:href="#DejaVuSans-76" transform="translate(625.777344 0)"/>
     <use xlink:href="#DejaVuSans-73" transform="translate(684.957031 0)"/>
     <use xlink:href="#DejaVuSans-20" transform="translate(737.056641 0)"/>
     <use xlink:href="#DejaVuSans-59" transform="translate(768.84375 0)"/>
     <use xlink:href="#DejaVuSans-20" transform="translate(829.927734 0)"/>
     <use xlink:href="#DejaVuSans-28" transform="translate(861.714844 0)"/>
     <use xlink:href="#DejaVuSans-53" transform="translate(900.728516 0)"/>
     <use xlink:href="#DejaVuSans-74" transform="translate(964.205078 0)"/>
     <use xlink:href="#DejaVuSans-61" transform="translate(1003.414062 0)"/>
     <use xlink:href="#DejaVuSans-74" transform="translate(1064.693359 0)"/>
     <use xlink:href="#DejaVuSans-65" transform="translate(1103.902344 0)"/>
     <use xlink:href="#DejaVuSans-20" transform="translate(1165.425781 0)"/>
     <use xlink:href="#DejaVuSans-53" transform="translate(1197.212891 0)"/>
     <use xlink:href="#DejaVuSans-70" transform="translate(1260.689453 0)"/>
     <use xlink:href="#DejaVuSans-61" transform="translate(1324.166016 0)"/>
     <use xlink:href="#DejaVuSans-63" transform="translate(1385.445312 0)"/>
     <use xlink:href="#DejaVuSans-65" transform="translate(1440.425781 0)"/>
     <use xlink:href="#DejaVuSans-29" transform="translate(1501.949219 0)"/>
    </g>
   </g>
  </g>
 </g>
 <defs>
  <clipPath id="p155e7bbfd9">
   <rect x="52.160938" y="22.318125" width="446.4" height="332.64"/>
  </clipPath>
 </defs>
</svg>
