<?xml version="1.0" encoding="utf-8" standalone="no"?>
<!DOCTYPE svg PUBLIC "-//W3C//DTD SVG 1.1//EN"
  "http://www.w3.org/Graphics/SVG/1.1/DTD/svg11.dtd">
<svg xmlns:xlink="http://www.w3.org/1999/xlink" width="623.723438pt" height="392.514375pt" viewBox="0 0 623.723438 392.514375" xmlns="http://www.w3.org/2000/svg" version="1.1">
 <metadata>
  <rdf:RDF xmlns:dc="http://purl.org/dc/elements/1.1/" xmlns:cc="http://creativecommons.org/ns#" xmlns:rdf="http://www.w3.org/1999/02/22-rdf-syntax-ns#">
   <cc:Work>
    <dc:type rdf:resource="http://purl.org/dc/dcmitype/StillImage"/>
    <dc:date>2025-11-21T11:22:59.302929</dc:date>
    <dc:format>image/svg+xml</dc:format>
    <dc:creator>
     <cc:Agent>
      <dc:title>Matplotlib v3.10.6, https://matplotlib.org/</dc:title>
     </cc:Agent>
    </dc:creator>
   </cc:Work>
  </rdf:RDF>
 </metadata>
 <defs>
  <style type="text/css">*{stroke-linejoin: round; stroke-linecap: butt}</style>
 </defs>
 <g id="figure_1">
  <g id="patch_1">
   <path d="M -0 392.514375 
L 623.723438 392.514375 
L 623.723438 0 
L -0 0 
z
" style="fill: #ffffff"/>
  </g>
  <g id="axes_1">
   <g id="patch_2">
    <path d="M 58.523438 354.958125 
L 616.523438 354.958125 
L 616.523438 22.318125 
L 58.523438 22.318125 
z
" style="fill: #ffffff"/>
   </g>
   <g id="matplotlib.axis_1">
    <g id="xtick_1">
     <g id="line2d_1">
      <path d="M 83.887074 354.958125 
L 83.887074 22.318125 
" clip-path="url(#pc7737ef513)" style="fill: none; stroke: #b0b0b0; stroke-width: 0.8; stroke-linecap: square"/>
     </g>
     <g id="line2d_2">
      <defs>
       <path id="m1ad3aaee19" d="M 0 0 
L 0 3.5 
" style="stroke: #000000; stroke-width: 0.8"/>
      </defs>
      <g>
       <use xlink:href="#m1ad3aaee19" x="83.887074" y="354.958125" style="stroke: #000000; stroke-width: 0.8"/>
      </g>
     </g>
     <g id="text_1">
      <!-- 0 -->
      <g transform="translate(80.705824 369.556562) scale(0.1 -0.1)">
       <defs>
        <path id="DejaVuSans-30" d="M 2034 4250 
Q 1547 4250 1301 3770 
Q 1056 3291 1056 2328 
Q 1056 1369 1301 889 
Q 1547 409 2034 409 
Q 2525 409 2770 889 
Q 3016 1369 3016 2328 
Q 3016 3291 2770 3770 
Q 2525 4250 2034 4250 
z
M 2034 4750 
Q 2819 4750 3233 4129 
Q 3647 3509 3647 2328 
Q 3647 1150 3233 529 
Q 2819 -91 2034 -91 
Q 1250 -91 836 529 
Q 422 1150 422 2328 
Q 422 3509 836 4129 
Q 1250 4750 2034 4750 
z
" transform="scale(0.015625)"/>
       </defs>
       <use xlink:href="#DejaVuSans-30"/>
      </g>
     </g>
    </g>
    <g id="xtick_2">
     <g id="line2d_3">
      <path d="M 179.034578 354.958125 
L 179.034578 22.318125 
" clip-path="url(#pc7737ef513)" style="fill: none; stroke: #b0b0b0; stroke-width: 0.8; stroke-linecap: square"/>
     </g>
     <g id="line2d_4">
      <g>
       <use xlink:href="#m1ad3aaee19" x="179.034578" y="354.958125" style="stroke: #000000; stroke-width: 0.8"/>
      </g>
     </g>
     <g id="text_2">
      <!-- 5 -->
      <g transform="translate(175.853328 369.556562) scale(0.1 -0.1)">
       <defs>
        <path id="DejaVuSans-35" d="M 691 4666 
L 3169 4666 
L 3169 4134 
L 1269 4134 
L 1269 2991 
Q 1406 3038 1543 3061 
Q 1681 3084 1819 3084 
Q 2600 3084 3056 2656 
Q 3513 2228 3513 1497 
Q 3513 744 3044 326 
Q 2575 -91 1722 -91 
Q 1428 -91 1123 -41 
Q 819 9 494 109 
L 494 744 
Q 775 591 1075 516 
Q 1375 441 1709 441 
Q 2250 441 2565 725 
Q 2881 1009 2881 1497 
Q 2881 1984 2565 2268 
Q 2250 2553 1709 2553 
Q 1456 2553 1204 2497 
Q 953 2441 691 2322 
L 691 4666 
z
" transform="scale(0.015625)"/>
       </defs>
       <use xlink:href="#DejaVuSans-35"/>
      </g>
     </g>
    </g>
    <g id="xtick_3">
     <g id="line2d_5">
      <path d="M 274.182083 354.958125 
L 274.182083 22.318125 
" clip-path="url(#pc7737ef513)" style="fill: none; stroke: #b0b0b0; stroke-width: 0.8; stroke-linecap: square"/>
     </g>
     <g id="line2d_6">
      <g>
       <use xlink:href="#m1ad3aaee19" x="274.182083" y="354.958125" style="stroke: #000000; stroke-width: 0.8"/>
      </g>
     </g>
     <g id="text_3">
      <!-- 10 -->
      <g transform="translate(267.819583 369.556562) scale(0.1 -0.1)">
       <defs>
        <path id="DejaVuSans-31" d="M 794 531 
L 1825 531 
L 1825 4091 
L 703 3866 
L 703 4441 
L 1819 4666 
L 2450 4666 
L 2450 531 
L 3481 531 
L 3481 0 
L 794 0 
L 794 531 
z
" transform="scale(0.015625)"/>
       </defs>
       <use xlink:href="#DejaVuSans-31"/>
       <use xlink:href="#DejaVuSans-30" transform="translate(63.623047 0)"/>
      </g>
     </g>
    </g>
    <g id="xtick_4">
     <g id="line2d_7">
      <path d="M 369.329587 354.958125 
L 369.329587 22.318125 
" clip-path="url(#pc7737ef513)" style="fill: none; stroke: #b0b0b0; stroke-width: 0.8; stroke-linecap: square"/>
     </g>
     <g id="line2d_8">
      <g>
       <use xlink:href="#m1ad3aaee19" x="369.329587" y="354.958125" style="stroke: #000000; stroke-width: 0.8"/>
      </g>
     </g>
     <g id="text_4">
      <!-- 15 -->
      <g transform="translate(362.967087 369.556562) scale(0.1 -0.1)">
       <use xlink:href="#DejaVuSans-31"/>
       <use xlink:href="#DejaVuSans-35" transform="translate(63.623047 0)"/>
      </g>
     </g>
    </g>
    <g id="xtick_5">
     <g id="line2d_9">
      <path d="M 464.477091 354.958125 
L 464.477091 22.318125 
" clip-path="url(#pc7737ef513)" style="fill: none; stroke: #b0b0b0; stroke-width: 0.8; stroke-linecap: square"/>
     </g>
     <g id="line2d_10">
      <g>
       <use xlink:href="#m1ad3aaee19" x="464.477091" y="354.958125" style="stroke: #000000; stroke-width: 0.8"/>
      </g>
     </g>
     <g id="text_5">
      <!-- 20 -->
      <g transform="translate(458.114591 369.556562) scale(0.1 -0.1)">
       <defs>
        <path id="DejaVuSans-32" d="M 1228 531 
L 3431 531 
L 3431 0 
L 469 0 
L 469 531 
Q 828 903 1448 1529 
Q 2069 2156 2228 2338 
Q 2531 2678 2651 2914 
Q 2772 3150 2772 3378 
Q 2772 3750 2511 3984 
Q 2250 4219 1831 4219 
Q 1534 4219 1204 4116 
Q 875 4013 500 3803 
L 500 4441 
Q 881 4594 1212 4672 
Q 1544 4750 1819 4750 
Q 2544 4750 2975 4387 
Q 3406 4025 3406 3419 
Q 3406 3131 3298 2873 
Q 3191 2616 2906 2266 
Q 2828 2175 2409 1742 
Q 1991 1309 1228 531 
z
" transform="scale(0.015625)"/>
       </defs>
       <use xlink:href="#DejaVuSans-32"/>
       <use xlink:href="#DejaVuSans-30" transform="translate(63.623047 0)"/>
      </g>
     </g>
    </g>
    <g id="xtick_6">
     <g id="line2d_11">
      <path d="M 559.624596 354.958125 
L 559.624596 22.318125 
" clip-path="url(#pc7737ef513)" style="fill: none; stroke: #b0b0b0; stroke-width: 0.8; stroke-linecap: square"/>
     </g>
     <g id="line2d_12">
      <g>
       <use xlink:href="#m1ad3aaee19" x="559.624596" y="354.958125" style="stroke: #000000; stroke-width: 0.8"/>
      </g>
     </g>
     <g id="text_6">
      <!-- 25 -->
      <g transform="translate(553.262096 369.556562) scale(0.1 -0.1)">
       <use xlink:href="#DejaVuSans-32"/>
       <use xlink:href="#DejaVuSans-35" transform="translate(63.623047 0)"/>
      </g>
     </g>
    </g>
    <g id="text_7">
     <!-- Time (s) -->
     <g transform="translate(317.194531 383.234687) scale(0.1 -0.1)">
      <defs>
       <path id="DejaVuSans-54" d="M -19 4666 
L 3928 4666 
L 3928 4134 
L 2272 4134 
L 2272 0 
L 1638 0 
L 1638 4134 
L -19 4134 
L -19 4666 
z
" transform="scale(0.015625)"/>
       <path id="DejaVuSans-69" d="M 603 3500 
L 1178 3500 
L 1178 0 
L 603 0 
L 603 3500 
z
M 603 4863 
L 1178 4863 
L 1178 4134 
L 603 4134 
L 603 4863 
z
" transform="scale(0.015625)"/>
       <path id="DejaVuSans-6d" d="M 3328 2828 
Q 3544 3216 3844 3400 
Q 4144 3584 4550 3584 
Q 5097 3584 5394 3201 
Q 5691 2819 5691 2113 
L 5691 0 
L 5113 0 
L 5113 2094 
Q 5113 2597 4934 2840 
Q 4756 3084 4391 3084 
Q 3944 3084 3684 2787 
Q 3425 2491 3425 1978 
L 3425 0 
L 2847 0 
L 2847 2094 
Q 2847 2600 2669 2842 
Q 2491 3084 2119 3084 
Q 1678 3084 1418 2786 
Q 1159 2488 1159 1978 
L 1159 0 
L 581 0 
L 581 3500 
L 1159 3500 
L 1159 2956 
Q 1356 3278 1631 3431 
Q 1906 3584 2284 3584 
Q 2666 3584 2933 3390 
Q 3200 3197 3328 2828 
z
" transform="scale(0.015625)"/>
       <path id="DejaVuSans-65" d="M 3597 1894 
L 3597 1613 
L 953 1613 
Q 991 1019 1311 708 
Q 1631 397 2203 397 
Q 2534 397 2845 478 
Q 3156 559 3463 722 
L 3463 178 
Q 3153 47 2828 -22 
Q 2503 -91 2169 -91 
Q 1331 -91 842 396 
Q 353 884 353 1716 
Q 353 2575 817 3079 
Q 1281 3584 2069 3584 
Q 2775 3584 3186 3129 
Q 3597 2675 3597 1894 
z
M 3022 2063 
Q 3016 2534 2758 2815 
Q 2500 3097 2075 3097 
Q 1594 3097 1305 2825 
Q 1016 2553 972 2059 
L 3022 2063 
z
" transform="scale(0.015625)"/>
       <path id="DejaVuSans-20" transform="scale(0.015625)"/>
       <path id="DejaVuSans-28" d="M 1984 4856 
Q 1566 4138 1362 3434 
Q 1159 2731 1159 2009 
Q 1159 1288 1364 580 
Q 1569 -128 1984 -844 
L 1484 -844 
Q 1016 -109 783 600 
Q 550 1309 550 2009 
Q 550 2706 781 3412 
Q 1013 4119 1484 4856 
L 1984 4856 
z
" transform="scale(0.015625)"/>
       <path id="DejaVuSans-73" d="M 2834 3397 
L 2834 2853 
Q 2591 2978 2328 3040 
Q 2066 3103 1784 3103 
Q 1356 3103 1142 2972 
Q 928 2841 928 2578 
Q 928 2378 1081 2264 
Q 1234 2150 1697 2047 
L 1894 2003 
Q 2506 1872 2764 1633 
Q 3022 1394 3022 966 
Q 3022 478 2636 193 
Q 2250 -91 1575 -91 
Q 1294 -91 989 -36 
Q 684 19 347 128 
L 347 722 
Q 666 556 975 473 
Q 1284 391 1588 391 
Q 1994 391 2212 530 
Q 2431 669 2431 922 
Q 2431 1156 2273 1281 
Q 2116 1406 1581 1522 
L 1381 1569 
Q 847 1681 609 1914 
Q 372 2147 372 2553 
Q 372 3047 722 3315 
Q 1072 3584 1716 3584 
Q 2034 3584 2315 3537 
Q 2597 3491 2834 3397 
z
" transform="scale(0.015625)"/>
       <path id="DejaVuSans-29" d="M 513 4856 
L 1013 4856 
Q 1481 4119 1714 3412 
Q 1947 2706 1947 2009 
Q 1947 1309 1714 600 
Q 1481 -109 1013 -844 
L 513 -844 
Q 928 -128 1133 580 
Q 1338 1288 1338 2009 
Q 1338 2731 1133 3434 
Q 928 4138 513 4856 
z
" transform="scale(0.015625)"/>
      </defs>
      <use xlink:href="#DejaVuSans-54"/>
      <use xlink:href="#DejaVuSans-69" transform="translate(57.958984 0)"/>
      <use xlink:href="#DejaVuSans-6d" transform="translate(85.742188 0)"/>
      <use xlink:href="#DejaVuSans-65" transform="translate(183.154297 0)"/>
      <use xlink:href="#DejaVuSans-20" transform="translate(244.677734 0)"/>
      <use xlink:href="#DejaVuSans-28" transform="translate(276.464844 0)"/>
      <use xlink:href="#DejaVuSans-73" transform="translate(315.478516 0)"/>
      <use xlink:href="#DejaVuSans-29" transform="translate(367.578125 0)"/>
     </g>
    </g>
   </g>
   <g id="matplotlib.axis_2">
    <g id="ytick_1">
     <g id="line2d_13">
      <path d="M 58.523438 348.106485 
L 616.523438 348.106485 
" clip-path="url(#pc7737ef513)" style="fill: none; stroke: #b0b0b0; stroke-width: 0.8; stroke-linecap: square"/>
     </g>
     <g id="line2d_14">
      <defs>
       <path id="mb3a1757a56" d="M 0 0 
L -3.5 0 
" style="stroke: #000000; stroke-width: 0.8"/>
      </defs>
      <g>
       <use xlink:href="#mb3a1757a56" x="58.523438" y="348.106485" style="stroke: #000000; stroke-width: 0.8"/>
      </g>
     </g>
     <g id="text_8">
      <!-- −0.10 -->
      <g transform="translate(20.878125 351.905704) scale(0.1 -0.1)">
       <defs>
        <path id="DejaVuSans-2212" d="M 678 2272 
L 4684 2272 
L 4684 1741 
L 678 1741 
L 678 2272 
z
" transform="scale(0.015625)"/>
        <path id="DejaVuSans-2e" d="M 684 794 
L 1344 794 
L 1344 0 
L 684 0 
L 684 794 
z
" transform="scale(0.015625)"/>
       </defs>
       <use xlink:href="#DejaVuSans-2212"/>
       <use xlink:href="#DejaVuSans-30" transform="translate(83.789062 0)"/>
       <use xlink:href="#DejaVuSans-2e" transform="translate(147.412109 0)"/>
       <use xlink:href="#DejaVuSans-31" transform="translate(179.199219 0)"/>
       <use xlink:href="#DejaVuSans-30" transform="translate(242.822266 0)"/>
      </g>
     </g>
    </g>
    <g id="ytick_2">
     <g id="line2d_15">
      <path d="M 58.523438 284.049018 
L 616.523438 284.049018 
" clip-path="url(#pc7737ef513)" style="fill: none; stroke: #b0b0b0; stroke-width: 0.8; stroke-linecap: square"/>
     </g>
     <g id="line2d_16">
      <g>
       <use xlink:href="#mb3a1757a56" x="58.523438" y="284.049018" style="stroke: #000000; stroke-width: 0.8"/>
      </g>
     </g>
     <g id="text_9">
      <!-- −0.05 -->
      <g transform="translate(20.878125 287.848236) scale(0.1 -0.1)">
       <use xlink:href="#DejaVuSans-2212"/>
       <use xlink:href="#DejaVuSans-30" transform="translate(83.789062 0)"/>
       <use xlink:href="#DejaVuSans-2e" transform="translate(147.412109 0)"/>
       <use xlink:href="#DejaVuSans-30" transform="translate(179.199219 0)"/>
       <use xlink:href="#DejaVuSans-35" transform="translate(242.822266 0)"/>
      </g>
     </g>
    </g>
    <g id="ytick_3">
     <g id="line2d_17">
      <path d="M 58.523438 219.99155 
L 616.523438 219.99155 
" clip-path="url(#pc7737ef513)" style="fill: none; stroke: #b0b0b0; stroke-width: 0.8; stroke-linecap: square"/>
     </g>
     <g id="line2d_18">
      <g>
       <use xlink:href="#mb3a1757a56" x="58.523438" y="219.99155" style="stroke: #000000; stroke-width: 0.8"/>
      </g>
     </g>
     <g id="text_10">
      <!-- 0.00 -->
      <g transform="translate(29.257812 223.790769) scale(0.1 -0.1)">
       <use xlink:href="#DejaVuSans-30"/>
       <use xlink:href="#DejaVuSans-2e" transform="translate(63.623047 0)"/>
       <use xlink:href="#DejaVuSans-30" transform="translate(95.410156 0)"/>
       <use xlink:href="#DejaVuSans-30" transform="translate(159.033203 0)"/>
      </g>
     </g>
    </g>
    <g id="ytick_4">
     <g id="line2d_19">
      <path d="M 58.523438 155.934083 
L 616.523438 155.934083 
" clip-path="url(#pc7737ef513)" style="fill: none; stroke: #b0b0b0; stroke-width: 0.8; stroke-linecap: square"/>
     </g>
     <g id="line2d_20">
      <g>
       <use xlink:href="#mb3a1757a56" x="58.523438" y="155.934083" style="stroke: #000000; stroke-width: 0.8"/>
      </g>
     </g>
     <g id="text_11">
      <!-- 0.05 -->
      <g transform="translate(29.257812 159.733302) scale(0.1 -0.1)">
       <use xlink:href="#DejaVuSans-30"/>
       <use xlink:href="#DejaVuSans-2e" transform="translate(63.623047 0)"/>
       <use xlink:href="#DejaVuSans-30" transform="translate(95.410156 0)"/>
       <use xlink:href="#DejaVuSans-35" transform="translate(159.033203 0)"/>
      </g>
     </g>
    </g>
    <g id="ytick_5">
     <g id="line2d_21">
      <path d="M 58.523438 91.876616 
L 616.523438 91.876616 
" clip-path="url(#pc7737ef513)" style="fill: none; stroke: #b0b0b0; stroke-width: 0.8; stroke-linecap: square"/>
     </g>
     <g id="line2d_22">
      <g>
       <use xlink:href="#mb3a1757a56" x="58.523438" y="91.876616" style="stroke: #000000; stroke-width: 0.8"/>
      </g>
     </g>
     <g id="text_12">
      <!-- 0.10 -->
      <g transform="translate(29.257812 95.675834) scale(0.1 -0.1)">
       <use xlink:href="#DejaVuSans-30"/>
       <use xlink:href="#DejaVuSans-2e" transform="translate(63.623047 0)"/>
       <use xlink:href="#DejaVuSans-31" transform="translate(95.410156 0)"/>
       <use xlink:href="#DejaVuSans-30" transform="translate(159.033203 0)"/>
      </g>
     </g>
    </g>
    <g id="ytick_6">
     <g id="line2d_23">
      <path d="M 58.523438 27.819148 
L 616.523438 27.819148 
" clip-path="url(#pc7737ef513)" style="fill: none; stroke: #b0b0b0; stroke-width: 0.8; stroke-linecap: square"/>
     </g>
     <g id="line2d_24">
      <g>
       <use xlink:href="#mb3a1757a56" x="58.523438" y="27.819148" style="stroke: #000000; stroke-width: 0.8"/>
      </g>
     </g>
     <g id="text_13">
      <!-- 0.15 -->
      <g transform="translate(29.257812 31.618367) scale(0.1 -0.1)">
       <use xlink:href="#DejaVuSans-30"/>
       <use xlink:href="#DejaVuSans-2e" transform="translate(63.623047 0)"/>
       <use xlink:href="#DejaVuSans-31" transform="translate(95.410156 0)"/>
       <use xlink:href="#DejaVuSans-35" transform="translate(159.033203 0)"/>
      </g>
     </g>
    </g>
    <g id="text_14">
     <!-- θ (rad) -->
     <g transform="translate(14.798437 205.481875) rotate(-90) scale(0.1 -0.1)">
      <defs>
       <path id="DejaVuSans-3b8" d="M 2953 2219 
L 963 2219 
Q 1009 1284 1225 888 
Q 1494 400 1959 400 
Q 2428 400 2688 891 
Q 2916 1322 2953 2219 
z
M 2944 2750 
Q 2856 3638 2688 3950 
Q 2419 4444 1959 4444 
Q 1481 4444 1228 3956 
Q 1028 3563 969 2750 
L 2944 2750 
z
M 1959 4913 
Q 2709 4913 3138 4250 
Q 3566 3591 3566 2422 
Q 3566 1256 3138 594 
Q 2709 -72 1959 -72 
Q 1206 -72 781 594 
Q 353 1256 353 2422 
Q 353 3591 781 4250 
Q 1206 4913 1959 4913 
z
" transform="scale(0.015625)"/>
       <path id="DejaVuSans-72" d="M 2631 2963 
Q 2534 3019 2420 3045 
Q 2306 3072 2169 3072 
Q 1681 3072 1420 2755 
Q 1159 2438 1159 1844 
L 1159 0 
L 581 0 
L 581 3500 
L 1159 3500 
L 1159 2956 
Q 1341 3275 1631 3429 
Q 1922 3584 2338 3584 
Q 2397 3584 2469 3576 
Q 2541 3569 2628 3553 
L 2631 2963 
z
" transform="scale(0.015625)"/>
       <path id="DejaVuSans-61" d="M 2194 1759 
Q 1497 1759 1228 1600 
Q 959 1441 959 1056 
Q 959 750 1161 570 
Q 1363 391 1709 391 
Q 2188 391 2477 730 
Q 2766 1069 2766 1631 
L 2766 1759 
L 2194 1759 
z
M 3341 1997 
L 3341 0 
L 2766 0 
L 2766 531 
Q 2569 213 2275 61 
Q 1981 -91 1556 -91 
Q 1019 -91 701 211 
Q 384 513 384 1019 
Q 384 1609 779 1909 
Q 1175 2209 1959 2209 
L 2766 2209 
L 2766 2266 
Q 2766 2663 2505 2880 
Q 2244 3097 1772 3097 
Q 1472 3097 1187 3025 
Q 903 2953 641 2809 
L 641 3341 
Q 956 3463 1253 3523 
Q 1550 3584 1831 3584 
Q 2591 3584 2966 3190 
Q 3341 2797 3341 1997 
z
" transform="scale(0.015625)"/>
       <path id="DejaVuSans-64" d="M 2906 2969 
L 2906 4863 
L 3481 4863 
L 3481 0 
L 2906 0 
L 2906 525 
Q 2725 213 2448 61 
Q 2172 -91 1784 -91 
Q 1150 -91 751 415 
Q 353 922 353 1747 
Q 353 2572 751 3078 
Q 1150 3584 1784 3584 
Q 2172 3584 2448 3432 
Q 2725 3281 2906 2969 
z
M 947 1747 
Q 947 1113 1208 752 
Q 1469 391 1925 391 
Q 2381 391 2643 752 
Q 2906 1113 2906 1747 
Q 2906 2381 2643 2742 
Q 2381 3103 1925 3103 
Q 1469 3103 1208 2742 
Q 947 2381 947 1747 
z
" transform="scale(0.015625)"/>
      </defs>
      <use xlink:href="#DejaVuSans-3b8"/>
      <use xlink:href="#DejaVuSans-20" transform="translate(61.181641 0)"/>
      <use xlink:href="#DejaVuSans-28" transform="translate(92.96875 0)"/>
      <use xlink:href="#DejaVuSans-72" transform="translate(131.982422 0)"/>
      <use xlink:href="#DejaVuSans-61" transform="translate(173.095703 0)"/>
      <use xlink:href="#DejaVuSans-64" transform="translate(234.375 0)"/>
      <use xlink:href="#DejaVuSans-29" transform="translate(297.851562 0)"/>
     </g>
    </g>
   </g>
   <g id="line2d_25">
    <path d="M 83.887074 219.989106 
L 109.664907 219.989106 
L 111.524123 223.038502 
L 113.285018 225.094654 
L 117.28948 214.714312 
L 119.130181 211.643788 
L 120.919065 209.409227 
L 122.840851 209.304762 
L 126.79851 203.108648 
L 128.511721 199.221622 
L 130.802455 196.896301 
L 134.410997 195.970218 
L 136.123528 195.323006 
L 142.023312 189.709461 
L 143.73479 186.72723 
L 146.018455 186.915661 
L 147.731871 186.915646 
L 149.634583 185.278852 
L 155.335021 185.214358 
L 157.2458 186.810287 
L 161.242917 189.082724 
L 162.957775 189.139832 
L 164.858106 190.854613 
L 168.865395 193.283175 
L 170.567082 193.283161 
L 172.469554 194.475283 
L 174.182884 193.254142 
L 176.37869 192.022923 
L 178.182187 194.78137 
L 181.794482 194.135067 
L 184.002461 193.233396 
L 187.718774 194.344266 
L 189.407731 193.393128 
L 191.63286 194.052586 
L 193.408491 196.568819 
L 195.269373 195.376387 
L 198.940571 195.237722 
L 202.897744 196.60459 
L 206.523935 198.913454 
L 208.626692 201.252248 
L 210.529246 203.010089 
L 214.151063 202.875678 
L 216.257078 203.710769 
L 218.141129 203.811266 
L 219.853937 202.695804 
L 223.852864 203.489938 
L 225.756969 205.33934 
L 227.485752 205.33934 
L 231.462266 204.715039 
L 233.364189 203.833252 
L 235.096447 202.486602 
L 237.351316 201.945993 
L 240.976754 202.046787 
L 242.764726 203.58311 
L 246.78298 205.106002 
L 248.492839 204.94504 
L 250.395556 206.233075 
L 254.397518 208.587991 
L 256.106411 206.378465 
L 258.007775 207.135938 
L 260.125092 209.752013 
L 263.832481 212.910546 
L 265.525848 215.554095 
L 269.532025 218.824403 
L 271.37239 218.683285 
L 275.041379 221.773756 
L 277.150442 223.877619 
L 278.997205 219.833001 
L 282.66382 220.632029 
L 284.786127 221.245953 
L 286.628525 226.277696 
L 288.360755 225.20136 
L 292.375585 218.979437 
L 294.259373 220.274464 
L 295.972122 219.283342 
L 301.871212 217.301097 
L 303.608447 215.751948 
L 307.581263 213.375956 
L 309.483159 216.394306 
L 311.213897 218.429738 
L 313.100326 218.429738 
L 315.194327 215.784044 
L 317.095923 216.62553 
L 321.117867 216.045813 
L 324.707077 221.7356 
L 326.4188 224.792173 
L 328.322365 225.807776 
L 330.44176 230.683605 
L 332.317953 233.461042 
L 335.934589 236.908038 
L 337.865826 239.758228 
L 339.935227 243.854356 
L 343.546686 246.221617 
L 345.631944 245.643705 
L 347.56236 246.721329 
L 349.273824 247.869806 
L 353.273496 246.402425 
L 355.11646 243.398408 
L 359.101781 236.226753 
L 360.862608 227.479664 
L 362.746356 220.151276 
L 364.497129 220.647922 
L 368.512948 202.065102 
L 370.377776 201.537617 
L 372.10894 197.996675 
L 376.105676 197.848836 
L 377.989052 194.716946 
L 379.72131 198.231201 
L 381.995347 204.550461 
L 383.741783 204.836632 
L 385.601557 208.86609 
L 389.639875 221.058086 
L 391.305706 226.803549 
L 393.231771 235.46601 
L 397.226569 250.268144 
L 398.942272 257.305768 
L 400.845229 262.372862 
L 402.575881 263.138524 
L 406.555748 273.238434 
L 408.455357 275.102662 
L 412.063005 281.290501 
L 414.261166 281.183255 
L 417.878038 279.601567 
L 419.611358 280.756926 
L 421.872084 279.556354 
L 423.589673 277.135449 
L 425.491814 277.024856 
L 431.218507 274.096086 
L 433.097314 270.726283 
L 437.085149 270.120127 
L 438.807593 271.963212 
L 440.615968 273.710714 
L 442.509207 272.941974 
L 445.563293 269.767566 
L 447.447072 269.55468 
L 449.198313 269.930354 
L 454.127327 273.902196 
L 455.841523 275.899913 
L 458.123922 276.335762 
L 459.835754 274.93334 
L 461.738784 277.377271 
L 465.353819 279.732005 
L 467.459194 279.732038 
L 469.350668 279.597695 
L 473.343556 269.564489 
L 475.066976 267.290667 
L 476.962506 269.026995 
L 478.694374 268.570125 
L 480.962527 258.424755 
L 484.574608 250.080231 
L 486.28634 245.284958 
L 490.284982 227.909702 
L 492.186478 230.210695 
L 493.156259 235.614422 
L 495.801132 239.538396 
L 498.846226 250.286057 
L 502.463996 270.937747 
L 523.546951 306.672829 
L 527.16885 306.562606 
L 531.177881 306.695442 
L 543.574285 310.387437 
L 547.183861 319.358589 
L 549.470344 311.64495 
L 553.082243 311.623601 
L 555.747646 317.607414 
L 557.645349 322.298756 
L 559.368719 326.885292 
L 561.646445 333.400882 
L 566.390745 339.838125 
L 568.304377 329.521199 
L 570.016577 326.287279 
L 574.006113 289.449165 
L 575.916034 276.322785 
L 579.527952 253.530576 
L 581.630292 243.699095 
L 583.535518 223.600187 
L 587.437875 193.995589 
L 589.243591 177.133194 
L 591.159801 167.06622 
L 591.159801 167.06622 
" clip-path="url(#pc7737ef513)" style="fill: none; stroke-dasharray: 5.55,2.4; stroke-dashoffset: 0; stroke: #1f77b4; stroke-width: 1.5"/>
   </g>
   <g id="line2d_26">
    <path d="M 83.887074 81.614617 
L 87.692671 73.861342 
L 91.499761 67.789992 
L 95.305517 84.009404 
L 99.110842 80.946093 
L 100.26339 81.344759 
L 102.064093 85.569036 
L 105.679445 84.504849 
L 107.903925 85.478987 
L 109.664907 77.248059 
L 111.524123 81.719106 
L 113.285018 85.554097 
L 117.28948 74.920986 
L 119.130181 74.304538 
L 120.919065 72.090991 
L 122.840851 73.113582 
L 126.79851 62.473727 
L 128.511721 55.767123 
L 130.802455 63.961716 
L 134.410997 59.069651 
L 136.123528 57.896567 
L 140.120854 47.021234 
L 142.023312 46.12491 
L 143.73479 39.157942 
L 146.018455 48.361725 
L 149.634583 45.905613 
L 151.365575 37.438125 
L 155.335021 41.383384 
L 157.2458 44.772677 
L 161.242917 53.172901 
L 162.957775 47.524405 
L 164.858106 48.452893 
L 168.865395 53.151824 
L 170.567082 48.863874 
L 172.469554 52.833137 
L 174.182884 51.954656 
L 176.37869 44.251888 
L 178.182187 49.556066 
L 181.794482 56.132283 
L 184.002461 54.042085 
L 187.718774 54.596624 
L 189.407731 61.951423 
L 191.63286 64.251675 
L 193.408491 63.923972 
L 195.269373 49.703573 
L 198.940571 50.908505 
L 201.0143 57.08427 
L 202.897744 55.529983 
L 206.523935 51.761265 
L 208.626692 55.58247 
L 210.529246 61.765503 
L 214.151063 53.793455 
L 218.141129 62.309144 
L 219.853937 62.094435 
L 225.756969 72.030642 
L 227.485752 65.209673 
L 231.462266 58.515331 
L 233.364189 56.894537 
L 235.096447 61.363307 
L 237.351316 62.875563 
L 240.976754 66.073472 
L 242.764726 67.274357 
L 246.78298 62.684212 
L 248.492839 67.09836 
L 250.395556 67.763904 
L 254.397518 67.118327 
L 256.106411 67.014898 
L 258.007775 67.217152 
L 260.125092 74.268533 
L 263.832481 70.657091 
L 265.525848 77.898918 
L 267.742288 78.810226 
L 269.532025 79.197397 
L 271.37239 86.756779 
L 275.041379 88.717677 
L 277.150442 78.065781 
L 278.997205 82.966598 
L 282.66382 91.858176 
L 284.786127 88.995789 
L 286.628525 91.026793 
L 288.360755 84.558424 
L 292.375585 85.93902 
L 294.259373 76.840013 
L 295.972122 72.490947 
L 299.987328 77.778363 
L 301.871212 79.403878 
L 303.608447 81.232859 
L 307.581263 78.533256 
L 309.483159 81.358847 
L 311.213897 78.756725 
L 313.100326 79.393939 
L 315.194327 75.8762 
L 317.095923 72.300982 
L 321.117867 68.515988 
L 324.707077 75.442715 
L 326.4188 90.60153 
L 328.322365 87.435047 
L 330.44176 87.385462 
L 332.317953 92.69776 
L 335.934589 93.017232 
L 337.865826 92.792736 
L 339.935227 106.942505 
L 343.546686 106.138477 
L 345.631944 92.599815 
L 347.56236 99.513744 
L 349.273824 103.830756 
L 353.273496 89.103249 
L 355.11646 90.35961 
L 359.101781 87.48652 
L 360.862608 80.559072 
L 362.746356 82.426324 
L 364.497129 74.722454 
L 368.512948 68.421039 
L 370.377776 67.160869 
L 372.10894 60.829509 
L 376.105676 58.765031 
L 377.989052 50.069348 
L 379.72131 56.885289 
L 381.995347 58.90226 
L 383.741783 59.488282 
L 385.601557 70.230093 
L 389.639875 77.19736 
L 391.305706 94.682908 
L 393.231771 106.924033 
L 397.226569 108.274987 
L 398.942272 110.720017 
L 400.845229 114.403403 
L 402.575881 117.032603 
L 406.555748 111.311967 
L 408.455357 117.471393 
L 412.063005 120.028734 
L 414.261166 116.08267 
L 417.878038 134.737219 
L 419.611358 137.008346 
L 421.872084 131.07272 
L 423.589673 135.053261 
L 425.491814 131.924326 
L 429.483509 126.340333 
L 431.218507 127.229122 
L 433.097314 127.75493 
L 438.807593 136.36284 
L 440.615968 128.178041 
L 442.509207 132.368432 
L 445.563293 146.100048 
L 447.447072 124.024831 
L 449.198313 134.503748 
L 454.127327 129.095801 
L 455.841523 138.168825 
L 458.123922 136.772839 
L 459.835754 142.986721 
L 461.738784 145.196693 
L 465.353819 139.246313 
L 467.459194 145.087263 
L 469.350668 146.828595 
L 473.343556 136.895316 
L 475.066976 139.941155 
L 476.962506 135.245962 
L 478.694374 129.116428 
L 480.962527 123.896374 
L 484.574608 116.715198 
L 486.28634 102.236943 
L 490.284982 91.963993 
L 492.186478 89.194155 
L 493.156259 90.858714 
L 495.801132 94.294781 
L 498.846226 112.379553 
L 502.463996 116.614403 
L 523.546951 115.463351 
L 525.299103 130.599759 
L 527.16885 164.488995 
L 531.177881 167.370361 
L 543.574285 212.432898 
L 547.183861 201.216033 
L 549.470344 195.279108 
L 553.082243 199.201462 
L 554.79516 209.709495 
L 555.747646 220.171137 
L 557.645349 226.273973 
L 559.368719 242.160908 
L 561.646445 244.638379 
L 566.390745 234.716296 
L 568.304377 239.116323 
L 570.016577 240.922855 
L 571.920732 223.677865 
L 574.006113 209.962681 
L 575.916034 206.984588 
L 579.527952 204.391302 
L 581.630292 183.704763 
L 587.437875 154.022341 
L 589.243591 148.280076 
L 591.159801 165.38979 
L 591.159801 165.38979 
" clip-path="url(#pc7737ef513)" style="fill: none; stroke: #ff7f0e; stroke-width: 1.5; stroke-linecap: square"/>
   </g>
   <g id="patch_3">
    <path d="M 58.523438 354.958125 
L 58.523438 22.318125 
" style="fill: none; stroke: #000000; stroke-width: 0.8; stroke-linejoin: miter; stroke-linecap: square"/>
   </g>
   <g id="patch_4">
    <path d="M 616.523438 354.958125 
L 616.523438 22.318125 
" style="fill: none; stroke: #000000; stroke-width: 0.8; stroke-linejoin: miter; stroke-linecap: square"/>
   </g>
   <g id="patch_5">
    <path d="M 58.523438 354.958125 
L 616.523438 354.958125 
" style="fill: none; stroke: #000000; stroke-width: 0.8; stroke-linejoin: miter; stroke-linecap: square"/>
   </g>
   <g id="patch_6">
    <path d="M 58.523438 22.318125 
L 616.523438 22.318125 
" style="fill: none; stroke: #000000; stroke-width: 0.8; stroke-linejoin: miter; stroke-linecap: square"/>
   </g>
   <g id="text_15">
    <!-- SECTION 2: Theta over Time — PF vs Odom -->
    <g transform="translate(206.950312 16.318125) scale(0.12 -0.12)">
     <defs>
      <path id="DejaVuSans-53" d="M 3425 4513 
L 3425 3897 
Q 3066 4069 2747 4153 
Q 2428 4238 2131 4238 
Q 1616 4238 1336 4038 
Q 1056 3838 1056 3469 
Q 1056 3159 1242 3001 
Q 1428 2844 1947 2747 
L 2328 2669 
Q 3034 2534 3370 2195 
Q 3706 1856 3706 1288 
Q 3706 609 3251 259 
Q 2797 -91 1919 -91 
Q 1588 -91 1214 -16 
Q 841 59 441 206 
L 441 856 
Q 825 641 1194 531 
Q 1563 422 1919 422 
Q 2459 422 2753 634 
Q 3047 847 3047 1241 
Q 3047 1584 2836 1778 
Q 2625 1972 2144 2069 
L 1759 2144 
Q 1053 2284 737 2584 
Q 422 2884 422 3419 
Q 422 4038 858 4394 
Q 1294 4750 2059 4750 
Q 2388 4750 2728 4690 
Q 3069 4631 3425 4513 
z
" transform="scale(0.015625)"/>
      <path id="DejaVuSans-45" d="M 628 4666 
L 3578 4666 
L 3578 4134 
L 1259 4134 
L 1259 2753 
L 3481 2753 
L 3481 2222 
L 1259 2222 
L 1259 531 
L 3634 531 
L 3634 0 
L 628 0 
L 628 4666 
z
" transform="scale(0.015625)"/>
      <path id="DejaVuSans-43" d="M 4122 4306 
L 4122 3641 
Q 3803 3938 3442 4084 
Q 3081 4231 2675 4231 
Q 1875 4231 1450 3742 
Q 1025 3253 1025 2328 
Q 1025 1406 1450 917 
Q 1875 428 2675 428 
Q 3081 428 3442 575 
Q 3803 722 4122 1019 
L 4122 359 
Q 3791 134 3420 21 
Q 3050 -91 2638 -91 
Q 1578 -91 968 557 
Q 359 1206 359 2328 
Q 359 3453 968 4101 
Q 1578 4750 2638 4750 
Q 3056 4750 3426 4639 
Q 3797 4528 4122 4306 
z
" transform="scale(0.015625)"/>
      <path id="DejaVuSans-49" d="M 628 4666 
L 1259 4666 
L 1259 0 
L 628 0 
L 628 4666 
z
" transform="scale(0.015625)"/>
      <path id="DejaVuSans-4f" d="M 2522 4238 
Q 1834 4238 1429 3725 
Q 1025 3213 1025 2328 
Q 1025 1447 1429 934 
Q 1834 422 2522 422 
Q 3209 422 3611 934 
Q 4013 1447 4013 2328 
Q 4013 3213 3611 3725 
Q 3209 4238 2522 4238 
z
M 2522 4750 
Q 3503 4750 4090 4092 
Q 4678 3434 4678 2328 
Q 4678 1225 4090 567 
Q 3503 -91 2522 -91 
Q 1538 -91 948 565 
Q 359 1222 359 2328 
Q 359 3434 948 4092 
Q 1538 4750 2522 4750 
z
" transform="scale(0.015625)"/>
      <path id="DejaVuSans-4e" d="M 628 4666 
L 1478 4666 
L 3547 763 
L 3547 4666 
L 4159 4666 
L 4159 0 
L 3309 0 
L 1241 3903 
L 1241 0 
L 628 0 
L 628 4666 
z
" transform="scale(0.015625)"/>
      <path id="DejaVuSans-3a" d="M 750 794 
L 1409 794 
L 1409 0 
L 750 0 
L 750 794 
z
M 750 3309 
L 1409 3309 
L 1409 2516 
L 750 2516 
L 750 3309 
z
" transform="scale(0.015625)"/>
      <path id="DejaVuSans-68" d="M 3513 2113 
L 3513 0 
L 2938 0 
L 2938 2094 
Q 2938 2591 2744 2837 
Q 2550 3084 2163 3084 
Q 1697 3084 1428 2787 
Q 1159 2491 1159 1978 
L 1159 0 
L 581 0 
L 581 4863 
L 1159 4863 
L 1159 2956 
Q 1366 3272 1645 3428 
Q 1925 3584 2291 3584 
Q 2894 3584 3203 3211 
Q 3513 2838 3513 2113 
z
" transform="scale(0.015625)"/>
      <path id="DejaVuSans-74" d="M 1172 4494 
L 1172 3500 
L 2356 3500 
L 2356 3053 
L 1172 3053 
L 1172 1153 
Q 1172 725 1289 603 
Q 1406 481 1766 481 
L 2356 481 
L 2356 0 
L 1766 0 
Q 1100 0 847 248 
Q 594 497 594 1153 
L 594 3053 
L 172 3053 
L 172 3500 
L 594 3500 
L 594 4494 
L 1172 4494 
z
" transform="scale(0.015625)"/>
      <path id="DejaVuSans-6f" d="M 1959 3097 
Q 1497 3097 1228 2736 
Q 959 2375 959 1747 
Q 959 1119 1226 758 
Q 1494 397 1959 397 
Q 2419 397 2687 759 
Q 2956 1122 2956 1747 
Q 2956 2369 2687 2733 
Q 2419 3097 1959 3097 
z
M 1959 3584 
Q 2709 3584 3137 3096 
Q 3566 2609 3566 1747 
Q 3566 888 3137 398 
Q 2709 -91 1959 -91 
Q 1206 -91 779 398 
Q 353 888 353 1747 
Q 353 2609 779 3096 
Q 1206 3584 1959 3584 
z
" transform="scale(0.015625)"/>
      <path id="DejaVuSans-76" d="M 191 3500 
L 800 3500 
L 1894 563 
L 2988 3500 
L 3597 3500 
L 2284 0 
L 1503 0 
L 191 3500 
z
" transform="scale(0.015625)"/>
      <path id="DejaVuSans-2014" d="M 313 1978 
L 6088 1978 
L 6088 1528 
L 313 1528 
L 313 1978 
z
" transform="scale(0.015625)"/>
      <path id="DejaVuSans-50" d="M 1259 4147 
L 1259 2394 
L 2053 2394 
Q 2494 2394 2734 2622 
Q 2975 2850 2975 3272 
Q 2975 3691 2734 3919 
Q 2494 4147 2053 4147 
L 1259 4147 
z
M 628 4666 
L 2053 4666 
Q 2838 4666 3239 4311 
Q 3641 3956 3641 3272 
Q 3641 2581 3239 2228 
Q 2838 1875 2053 1875 
L 1259 1875 
L 1259 0 
L 628 0 
L 628 4666 
z
" transform="scale(0.015625)"/>
      <path id="DejaVuSans-46" d="M 628 4666 
L 3309 4666 
L 3309 4134 
L 1259 4134 
L 1259 2759 
L 3109 2759 
L 3109 2228 
L 1259 2228 
L 1259 0 
L 628 0 
L 628 4666 
z
" transform="scale(0.015625)"/>
     </defs>
     <use xlink:href="#DejaVuSans-53"/>
     <use xlink:href="#DejaVuSans-45" transform="translate(63.476562 0)"/>
     <use xlink:href="#DejaVuSans-43" transform="translate(126.660156 0)"/>
     <use xlink:href="#DejaVuSans-54" transform="translate(196.484375 0)"/>
     <use xlink:href="#DejaVuSans-49" transform="translate(257.568359 0)"/>
     <use xlink:href="#DejaVuSans-4f" transform="translate(287.060547 0)"/>
     <use xlink:href="#DejaVuSans-4e" transform="translate(365.771484 0)"/>
     <use xlink:href="#DejaVuSans-20" transform="translate(440.576172 0)"/>
     <use xlink:href="#DejaVuSans-32" transform="translate(472.363281 0)"/>
     <use xlink:href="#DejaVuSans-3a" transform="translate(535.986328 0)"/>
     <use xlink:href="#DejaVuSans-20" transform="translate(569.677734 0)"/>
     <use xlink:href="#DejaVuSans-54" transform="translate(601.464844 0)"/>
     <use xlink:href="#DejaVuSans-68" transform="translate(662.548828 0)"/>
     <use xlink:href="#DejaVuSans-65" transform="translate(725.927734 0)"/>
     <use xlink:href="#DejaVuSans-74" transform="translate(787.451172 0)"/>
     <use xlink:href="#DejaVuSans-61" transform="translate(826.660156 0)"/>
     <use xlink:href="#DejaVuSans-20" transform="translate(887.939453 0)"/>
     <use xlink:href="#DejaVuSans-6f" transform="translate(919.726562 0)"/>
     <use xlink:href="#DejaVuSans-76" transform="translate(980.908203 0)"/>
     <use xlink:href="#DejaVuSans-65" transform="translate(1040.087891 0)"/>
     <use xlink:href="#DejaVuSans-72" transform="translate(1101.611328 0)"/>
     <use xlink:href="#DejaVuSans-20" transform="translate(1142.724609 0)"/>
     <use xlink:href="#DejaVuSans-54" transform="translate(1174.511719 0)"/>
     <use xlink:href="#DejaVuSans-69" transform="translate(1232.470703 0)"/>
     <use xlink:href="#DejaVuSans-6d" transform="translate(1260.253906 0)"/>
     <use xlink:href="#DejaVuSans-65" transform="translate(1357.666016 0)"/>
     <use xlink:href="#DejaVuSans-20" transform="translate(1419.189453 0)"/>
     <use xlink:href="#DejaVuSans-2014" transform="translate(1450.976562 0)"/>
     <use xlink:href="#DejaVuSans-20" transform="translate(1550.976562 0)"/>
     <use xlink:href="#DejaVuSans-50" transform="translate(1582.763672 0)"/>
     <use xlink:href="#DejaVuSans-46" transform="translate(1643.066406 0)"/>
     <use xlink:href="#DejaVuSans-20" transform="translate(1700.585938 0)"/>
     <use xlink:href="#DejaVuSans-76" transform="translate(1732.373047 0)"/>
     <use xlink:href="#DejaVuSans-73" transform="translate(1791.552734 0)"/>
     <use xlink:href="#DejaVuSans-20" transform="translate(1843.652344 0)"/>
     <use xlink:href="#DejaVuSans-4f" transform="translate(1875.439453 0)"/>
     <use xlink:href="#DejaVuSans-64" transform="translate(1954.150391 0)"/>
     <use xlink:href="#DejaVuSans-6f" transform="translate(2017.626953 0)"/>
     <use xlink:href="#DejaVuSans-6d" transform="translate(2078.808594 0)"/>
    </g>
   </g>
   <g id="legend_1">
    <g id="patch_7">
     <path d="M 538.146875 59.674375 
L 609.523438 59.674375 
Q 611.523438 59.674375 611.523438 57.674375 
L 611.523438 29.318125 
Q 611.523438 27.318125 609.523438 27.318125 
L 538.146875 27.318125 
Q 536.146875 27.318125 536.146875 29.318125 
L 536.146875 57.674375 
Q 536.146875 59.674375 538.146875 59.674375 
z
" style="fill: #ffffff; opacity: 0.8; stroke: #cccccc; stroke-linejoin: miter"/>
    </g>
    <g id="line2d_27">
     <path d="M 540.146875 35.416562 
L 550.146875 35.416562 
L 560.146875 35.416562 
" style="fill: none; stroke-dasharray: 5.55,2.4; stroke-dashoffset: 0; stroke: #1f77b4; stroke-width: 1.5"/>
    </g>
    <g id="text_16">
     <!-- Odom θ -->
     <g transform="translate(568.146875 38.916562) scale(0.1 -0.1)">
      <use xlink:href="#DejaVuSans-4f"/>
      <use xlink:href="#DejaVuSans-64" transform="translate(78.710938 0)"/>
      <use xlink:href="#DejaVuSans-6f" transform="translate(142.1875 0)"/>
      <use xlink:href="#DejaVuSans-6d" transform="translate(203.369141 0)"/>
      <use xlink:href="#DejaVuSans-20" transform="translate(300.78125 0)"/>
      <use xlink:href="#DejaVuSans-3b8" transform="translate(332.568359 0)"/>
     </g>
    </g>
    <g id="line2d_28">
     <path d="M 540.146875 50.094687 
L 550.146875 50.094687 
L 560.146875 50.094687 
" style="fill: none; stroke: #ff7f0e; stroke-width: 1.5; stroke-linecap: square"/>
    </g>
    <g id="text_17">
     <!-- PF θ -->
     <g transform="translate(568.146875 53.594687) scale(0.1 -0.1)">
      <use xlink:href="#DejaVuSans-50"/>
      <use xlink:href="#DejaVuSans-46" transform="translate(60.302734 0)"/>
      <use xlink:href="#DejaVuSans-20" transform="translate(117.822266 0)"/>
      <use xlink:href="#DejaVuSans-3b8" transform="translate(149.609375 0)"/>
     </g>
    </g>
   </g>
  </g>
 </g>
 <defs>
  <clipPath id="pc7737ef513">
   <rect x="58.523438" y="22.318125" width="558" height="332.64"/>
  </clipPath>
 </defs>
</svg>
